  0
SECTION
  2
HEADER
  9
$ACADVER
  1
AC1015
  9
$ACADMAINTVER
 70
     6
  9
$DWGCODEPAGE
  3
ANSI_1252
  9
$INSBASE
 10
0.0
 20
0.0
 30
0.0
  9
$EXTMIN
 10
1.000000E+20
 20
1.000000E+20
 30
1.000000E+20
  9
$EXTMAX
 10
-1.000000E+20
 20
-1.000000E+20
 30
-1.000000E+20
  9
$LIMMIN
 10
0.0
 20
0.0
  9
$LIMMAX
 10
420.0
 20
297.0
  9
$ORTHOMODE
 70
     0
  9
$REGENMODE
 70
     1
  9
$FILLMODE
 70
     1
  9
$QTEXTMODE
 70
     0
  9
$MIRRTEXT
 70
     1
  9
$LTSCALE
 40
1.0
  9
$ATTMODE
 70
     1
  9
$TEXTSIZE
 40
2.5
  9
$TRACEWID
 40
1.0
  9
$TEXTSTYLE
  7
Standard
  9
$CLAYER
  8
0
  9
$CELTYPE
  6
ByLayer
  9
$CECOLOR
 62
   256
  9
$CELTSCALE
 40
1.0
  9
$DISPSILH
 70
     0
  9
$DIMSCALE
 40
1.0
  9
$DIMASZ
 40
2.5
  9
$DIMEXO
 40
0.625
  9
$DIMDLI
 40
3.75
  9
$DIMRND
 40
0.0
  9
$DIMDLE
 40
0.0
  9
$DIMEXE
 40
1.25
  9
$DIMTP
 40
0.0
  9
$DIMTM
 40
0.0
  9
$DIMTXT
 40
2.5
  9
$DIMCEN
 40
2.5
  9
$DIMTSZ
 40
0.0
  9
$DIMTOL
 70
     0
  9
$DIMLIM
 70
     0
  9
$DIMTIH
 70
     0
  9
$DIMTOH
 70
     0
  9
$DIMSE1
 70
     0
  9
$DIMSE2
 70
     0
  9
$DIMTAD
 70
     1
  9
$DIMZIN
 70
     8
  9
$DIMBLK
  1

  9
$DIMASO
 70
     1
  9
$DIMSHO
 70
     1
  9
$DIMPOST
  1

  9
$DIMAPOST
  1

  9
$DIMALT
 70
     0
  9
$DIMALTD
 70
     3
  9
$DIMALTF
 40
0.03937
  9
$DIMLFAC
 40
1.0
  9
$DIMTOFL
 70
     1
  9
$DIMTVP
 40
0.0
  9
$DIMTIX
 70
     0
  9
$DIMSOXD
 70
     0
  9
$DIMSAH
 70
     0
  9
$DIMBLK1
  1

  9
$DIMBLK2
  1

  9
$DIMSTYLE
  2
ISO-25
  9
$DIMCLRD
 70
     0
  9
$DIMCLRE
 70
     0
  9
$DIMCLRT
 70
     0
  9
$DIMTFAC
 40
1.0
  9
$DIMGAP
 40
0.625
  9
$DIMJUST
 70
     0
  9
$DIMSD1
 70
     0
  9
$DIMSD2
 70
     0
  9
$DIMTOLJ
 70
     0
  9
$DIMTZIN
 70
     8
  9
$DIMALTZ
 70
     0
  9
$DIMALTTZ
 70
     0
  9
$DIMUPT
 70
     0
  9
$DIMDEC
 70
     2
  9
$DIMTDEC
 70
     2
  9
$DIMALTU
 70
     2
  9
$DIMALTTD
 70
     3
  9
$DIMTXSTY
  7
Standard
  9
$DIMAUNIT
 70
     0
  9
$DIMADEC
 70
     0
  9
$DIMALTRND
 40
0.0
  9
$DIMAZIN
 70
     0
  9
$DIMDSEP
 70
    44
  9
$DIMATFIT
 70
     3
  9
$DIMFRAC
 70
     0
  9
$DIMLDRBLK
  1

  9
$DIMLUNIT
 70
     2
  9
$DIMLWD
 70
    -2
  9
$DIMLWE
 70
    -2
  9
$DIMTMOVE
 70
     0
  9
$LUNITS
 70
     2
  9
$LUPREC
 70
     4
  9
$SKETCHINC
 40
1.0
  9
$FILLETRAD
 40
10.0
  9
$AUNITS
 70
     0
  9
$AUPREC
 70
     0
  9
$MENU
  1
.
  9
$ELEVATION
 40
0.0
  9
$PELEVATION
 40
0.0
  9
$THICKNESS
 40
0.0
  9
$LIMCHECK
 70
     0
  9
$CHAMFERA
 40
10.0
  9
$CHAMFERB
 40
10.0
  9
$CHAMFERC
 40
20.0
  9
$CHAMFERD
 40
0.0
  9
$SKPOLY
 70
     0
  9
$TDCREATE
 40
2455019.806065903
  9
$TDUCREATE
 40
2455020.056065903
  9
$TDUPDATE
 40
2455019.806065914
  9
$TDUUPDATE
 40
2455020.056065914
  9
$TDINDWG
 40
0.0000000116
  9
$TDUSRTIMER
 40
0.0000000116
  9
$USRTIMER
 70
     1
  9
$ANGBASE
 50
0.0
  9
$ANGDIR
 70
     0
  9
$PDMODE
 70
     3
  9
$PDSIZE
 40
-0.7
  9
$PLINEWID
 40
0.0
  9
$SPLFRAME
 70
     0
  9
$SPLINETYPE
 70
     6
  9
$SPLINESEGS
 70
     8
  9
$HANDSEED
  5
3E
  9
$SURFTAB1
 70
     6
  9
$SURFTAB2
 70
     6
  9
$SURFTYPE
 70
     6
  9
$SURFU
 70
     6
  9
$SURFV
 70
     6
  9
$UCSBASE
  2

  9
$UCSNAME
  2

  9
$UCSORG
 10
0.0
 20
0.0
 30
0.0
  9
$UCSXDIR
 10
1.0
 20
0.0
 30
0.0
  9
$UCSYDIR
 10
0.0
 20
1.0
 30
0.0
  9
$UCSORTHOREF
  2

  9
$UCSORTHOVIEW
 70
     0
  9
$UCSORGTOP
 10
0.0
 20
0.0
 30
0.0
  9
$UCSORGBOTTOM
 10
0.0
 20
0.0
 30
0.0
  9
$UCSORGLEFT
 10
0.0
 20
0.0
 30
0.0
  9
$UCSORGRIGHT
 10
0.0
 20
0.0
 30
0.0
  9
$UCSORGFRONT
 10
0.0
 20
0.0
 30
0.0
  9
$UCSORGBACK
 10
0.0
 20
0.0
 30
0.0
  9
$PUCSBASE
  2

  9
$PUCSNAME
  2

  9
$PUCSORG
 10
0.0
 20
0.0
 30
0.0
  9
$PUCSXDIR
 10
1.0
 20
0.0
 30
0.0
  9
$PUCSYDIR
 10
0.0
 20
1.0
 30
0.0
  9
$PUCSORTHOREF
  2

  9
$PUCSORTHOVIEW
 70
     0
  9
$PUCSORGTOP
 10
0.0
 20
0.0
 30
0.0
  9
$PUCSORGBOTTOM
 10
0.0
 20
0.0
 30
0.0
  9
$PUCSORGLEFT
 10
0.0
 20
0.0
 30
0.0
  9
$PUCSORGRIGHT
 10
0.0
 20
0.0
 30
0.0
  9
$PUCSORGFRONT
 10
0.0
 20
0.0
 30
0.0
  9
$PUCSORGBACK
 10
0.0
 20
0.0
 30
0.0
  9
$USERI1
 70
     0
  9
$USERI2
 70
     0
  9
$USERI3
 70
     0
  9
$USERI4
 70
     0
  9
$USERI5
 70
     0
  9
$USERR1
 40
0.0
  9
$USERR2
 40
0.0
  9
$USERR3
 40
0.0
  9
$USERR4
 40
0.0
  9
$USERR5
 40
0.0
  9
$WORLDVIEW
 70
     1
  9
$SHADEDGE
 70
     3
  9
$SHADEDIF
 70
    70
  9
$TILEMODE
 70
     1
  9
$MAXACTVP
 70
    64
  9
$PINSBASE
 10
0.0
 20
0.0
 30
0.0
  9
$PLIMCHECK
 70
     0
  9
$PEXTMIN
 10
1.000000E+20
 20
1.000000E+20
 30
1.000000E+20
  9
$PEXTMAX
 10
-1.000000E+20
 20
-1.000000E+20
 30
-1.000000E+20
  9
$PLIMMIN
 10
0.0
 20
0.0
  9
$PLIMMAX
 10
420.0
 20
297.0
  9
$UNITMODE
 70
     0
  9
$VISRETAIN
 70
     1
  9
$PLINEGEN
 70
     0
  9
$PSLTSCALE
 70
     1
  9
$TREEDEPTH
 70
  3020
  9
$CMLSTYLE
  2
Standard
  9
$CMLJUST
 70
     1
  9
$CMLSCALE
 40
1.0
  9
$PROXYGRAPHICS
 70
     1
  9
$MEASUREMENT
 70
     0
  9
$CELWEIGHT
370
    -1
  9
$ENDCAPS
280
     0
  9
$JOINSTYLE
280
     0
  9
$LWDISPLAY
290
     0
  9
$INSUNITS
 70
     4
  9
$HYPERLINKBASE
  1

  9
$STYLESHEET
  1

  9
$XEDIT
290
     1
  9
$CEPSNTYPE
380
     0
  9
$PSTYLEMODE
290
     1
  9
$FINGERPRINTGUID
  2
{FAEB1C30-E019-11D5-929B-00C0DF256EC4}
  9
$VERSIONGUID
  2
{FAEB1C32-E019-11D5-929B-00C0DF256EC4}
  9
$EXTNAMES
290
     1
  9
$PSVPSCALE
 40
0.0
  9
$OLESTARTUP
290
     0
  0
ENDSEC
  0
SECTION
  2
CLASSES
  0
CLASS
  1
ACDBDICTIONARYWDFLT
  2
AcDbDictionaryWithDefault
  3
ObjectDBX Classes
 90
        0
280
     0
281
     0
  0
CLASS
  1
ACDBPLACEHOLDER
  2
AcDbPlaceHolder
  3
ObjectDBX Classes
 90
        0
280
     0
281
     0
  0
CLASS
  1
LAYOUT
  2
AcDbLayout
  3
ObjectDBX Classes
 90
        0
280
     0
281
     0
  0
ENDSEC
  0
SECTION
  2
TABLES
  0
TABLE
  2
VPORT
  5
8
330
0
100
AcDbSymbolTable
 70
     2
  0
VPORT
  5
29
330
8
100
AcDbSymbolTableRecord
100
AcDbViewportTableRecord
  2
*Active
 70
     0
 10
0.0
 20
0.0
 11
1.0
 21
1.0
 12
50.0
 22
50.0
 13
0.0
 23
0.0
 14
10.0
 24
10.0
 15
10.0
 25
10.0
 16
0.0
 26
0.0
 36
1.0
 17
0.0
 27
0.0
 37
0.0
 40
103.921569
 41
1.0
 42
50.0
 43
0.0
 44
0.0
 50
0.0
 51
0.0
 71
     0
 72
   100
 73
     1
 74
     3
 75
     0
 76
     0
 77
     0
 78
     0
281
     0
 65
     1
110
0.0
120
0.0
130
0.0
111
1.0
121
0.0
131
0.0
112
0.0
122
1.0
132
0.0
 79
     0
146
0.0
  0
ENDTAB
  0
TABLE
  2
LTYPE
  5
5
330
0
100
AcDbSymbolTable
 70
     1
  0
LTYPE
  5
14
330
5
100
AcDbSymbolTableRecord
100
AcDbLinetypeTableRecord
  2
ByBlock
 70
     0
  3

 72
    65
 73
     0
 40
0.0
  0
LTYPE
  5
15
330
5
100
AcDbSymbolTableRecord
100
AcDbLinetypeTableRecord
  2
ByLayer
 70
     0
  3

 72
    65
 73
     0
 40
0.0
  0
LTYPE
  5
16
330
5
100
AcDbSymbolTableRecord
100
AcDbLinetypeTableRecord
  2
Continuous
 70
     0
  3

 72
    65
 73
     0
 40
0.0
  0
ENDTAB
  0
TABLE
  2
LAYER
  5
2
330
0
100
AcDbSymbolTable
 70
     1
  0
LAYER
  5
10
330
2
100
AcDbSymbolTableRecord
100
AcDbLayerTableRecord
  2
0
 70
     0
 62
     7
  6
Continuous
370
    -3
390
F
  0
ENDTAB
  0
TABLE
  2
STYLE
  5
3
330
0
100
AcDbSymbolTable
 70
     1
  0
STYLE
  5
11
330
3
100
AcDbSymbolTableRecord
100
AcDbTextStyleTableRecord
  2
Standard
 70
     0
 40
1.0
 41
1.0
 50
0.0
 71
     0
 42
2.5
  3
RomanS
  4

  0
ENDTAB
  0
TABLE
  2
VIEW
  5
6
330
0
100
AcDbSymbolTable
 70
     0
  0
ENDTAB
  0
TABLE
  2
UCS
  5
7
330
0
100
AcDbSymbolTable
 70
     0
  0
ENDTAB
  0
TABLE
  2
APPID
  5
9
330
0
100
AcDbSymbolTable
 70
     1
  0
APPID
  5
12
330
9
100
AcDbSymbolTableRecord
100
AcDbRegAppTableRecord
  2
ACAD
 70
     0
  0
ENDTAB
  0
TABLE
  2
DIMSTYLE
  5
A
330
0
100
AcDbSymbolTable
 70
     1
100
AcDbDimStyleTable
  0
DIMSTYLE
105
27
330
A
100
AcDbSymbolTableRecord
100
AcDbDimStyleTableRecord
  2
ISO-25
 70
     0
 41
2.5
 42
0.625
 44
1.25
 73
     0
 74
     0
 77
     1
 78
     8
 79
     2
140
2.5
141
2.5
146
0.0
147
0.625
271
     2
272
     0
273
     0
274
     0
278
    44
283
     0
289
     0
340
11
  0
ENDTAB
  0
TABLE
  2
BLOCK_RECORD
  5
1
330
0
100
AcDbSymbolTable
 70
     1
  0
BLOCK_RECORD
  5
1F
330
1
100
AcDbSymbolTableRecord
100
AcDbBlockTableRecord
  2
*Model_Space
340
22
  0
BLOCK_RECORD
  5
1B
330
1
100
AcDbSymbolTableRecord
100
AcDbBlockTableRecord
  2
*Paper_Space
340
1E
  0
BLOCK_RECORD
  5
23
330
1
100
AcDbSymbolTableRecord
100
AcDbBlockTableRecord
  2
*Paper_Space0
340
26
  0
ENDTAB
  0
ENDSEC
  0
SECTION
  2
BLOCKS
  0
BLOCK
  5
20
330
1F
100
AcDbEntity
  8
0
100
AcDbBlockBegin
  2
*Model_Space
 70
     0
 71
     0
 10
0.0
 20
0.0
 30
0.0
  3
*Model_Space
  1

  0
ENDBLK
  5
21
330
1F
100
AcDbEntity
  8
0
100
AcDbBlockEnd
  0
BLOCK
  5
1C
330
1B
100
AcDbEntity
 67
     1
  8
0
100
AcDbBlockBegin
  2
*Paper_Space
 70
     0
 71
     0
 10
0.0
 20
0.0
 30
0.0
  3
*Paper_Space
  1

  0
ENDBLK
  5
1D
330
1B
100
AcDbEntity
 67
     1
  8
0
100
AcDbBlockEnd
  0
BLOCK
  5
24
330
23
100
AcDbEntity
  8
0
100
AcDbBlockBegin
  2
*Paper_Space0
 70
     0
 71
     0
 10
0.0
 20
0.0
 30
0.0
  3
*Paper_Space0
  1

  0
ENDBLK
  5
25
330
23
100
AcDbEntity
  8
0
100
AcDbBlockEnd
  0
ENDSEC
  0
SECTION
  2
ENTITIES
  0
LWPOLYLINE
  5
2A
330
1F
100
AcDbEntity
  8
0
100
AcDbPolyline
 90
       65
 70
   128
 43
0.0
 10
26.0725
 20
23.328222
 10
26.071211
 20
23.353741
 10
26.067429
 20
23.378523
 10
26.061278
 20
23.402442
 10
26.052885
 20
23.425374
 10
26.042375
 20
23.447192
 10
26.029873
 20
23.467771
 10
26.015504
 20
23.486985
 10
25.999395
 20
23.50471
 10
25.98167
 20
23.520819
 10
25.962456
 20
23.535188
 10
25.941877
 20
23.54769
 10
25.920059
 20
23.5582
 10
25.897127
 20
23.566594
 10
25.873208
 20
23.572744
 10
25.848426
 20
23.576526
 10
25.822907
 20
23.577815
 10
25.797385
 20
23.576526
 10
25.772601
 20
23.572744
 10
25.748681
 20
23.566594
 10
25.725749
 20
23.5582
 10
25.70393
 20
23.54769
 10
25.683351
 20
23.535188
 10
25.664137
 20
23.520819
 10
25.646413
 20
23.50471
 10
25.630305
 20
23.486985
 10
25.615937
 20
23.467771
 10
25.603436
 20
23.447192
 10
25.592926
 20
23.425374
 10
25.584534
 20
23.402442
 10
25.578384
 20
23.378523
 10
25.574602
 20
23.353741
 10
25.573313
 20
23.328222
 10
25.574602
 20
23.302703
 10
25.578384
 20
23.277921
 10
25.584534
 20
23.254001
 10
25.592926
 20
23.23107
 10
25.603436
 20
23.209252
 10
25.615937
 20
23.188673
 10
25.630305
 20
23.169458
 10
25.646413
 20
23.151733
 10
25.664137
 20
23.135624
 10
25.683351
 20
23.121256
 10
25.70393
 20
23.108753
 10
25.725749
 20
23.098243
 10
25.748681
 20
23.08985
 10
25.772601
 20
23.083699
 10
25.797385
 20
23.079917
 10
25.822907
 20
23.078629
 10
25.848426
 20
23.079917
 10
25.873208
 20
23.083699
 10
25.897127
 20
23.08985
 10
25.920059
 20
23.098243
 10
25.941877
 20
23.108753
 10
25.962456
 20
23.121256
 10
25.98167
 20
23.135624
 10
25.999395
 20
23.151733
 10
26.015504
 20
23.169458
 10
26.029873
 20
23.188673
 10
26.042375
 20
23.209252
 10
26.052885
 20
23.23107
 10
26.061278
 20
23.254001
 10
26.067429
 20
23.277921
 10
26.071211
 20
23.302703
 10
26.0725
 20
23.328222
  0
LWPOLYLINE
  5
2B
330
1F
100
AcDbEntity
  8
0
100
AcDbPolyline
 90
        5
 70
   128
 43
0.0
 10
25.82151
 20
22.205052
 10
24.58632
 20
24.10284
 10
22.563159
 20
23.435088
 10
22.620546
 20
22.489557
 10
25.82151
 20
22.205052
  0
LWPOLYLINE
  5
2C
330
1F
100
AcDbEntity
  8
0
100
AcDbPolyline
 90
       65
 70
   128
 43
0.0
 10
22.362326
 20
24.67181
 10
22.361038
 20
24.697329
 10
22.357256
 20
24.722111
 10
22.351105
 20
24.746031
 10
22.342713
 20
24.768962
 10
22.332203
 20
24.79078
 10
22.319701
 20
24.811359
 10
22.305333
 20
24.830574
 10
22.289224
 20
24.848298
 10
22.271499
 20
24.864408
 10
22.252285
 20
24.878776
 10
22.231706
 20
24.891278
 10
22.209888
 20
24.901789
 10
22.186956
 20
24.910182
 10
22.163036
 20
24.916332
 10
22.138253
 20
24.920115
 10
22.112733
 20
24.921403
 10
22.087214
 20
24.920115
 10
22.062432
 20
24.916332
 10
22.038512
 20
24.910182
 10
22.015581
 20
24.901789
 10
21.993763
 20
24.891278
 10
21.973184
 20
24.878776
 10
21.953969
 20
24.864408
 10
21.936245
 20
24.848298
 10
21.920135
 20
24.830574
 10
21.905767
 20
24.811359
 10
21.893265
 20
24.79078
 10
21.882754
 20
24.768962
 10
21.874361
 20
24.746031
 10
21.868211
 20
24.722111
 10
21.864428
 20
24.697329
 10
21.86314
 20
24.67181
 10
21.864428
 20
24.646291
 10
21.868211
 20
24.621509
 10
21.874361
 20
24.597589
 10
21.882754
 20
24.574658
 10
21.893265
 20
24.55284
 10
21.905767
 20
24.532261
 10
21.920135
 20
24.513046
 10
21.936245
 20
24.495322
 10
21.953969
 20
24.479212
 10
21.973184
 20
24.464844
 10
21.993763
 20
24.452342
 10
22.015581
 20
24.441831
 10
22.038512
 20
24.433438
 10
22.062432
 20
24.427288
 10
22.087214
 20
24.423505
 10
22.112733
 20
24.422217
 10
22.138253
 20
24.423505
 10
22.163036
 20
24.427288
 10
22.186956
 20
24.433438
 10
22.209888
 20
24.441831
 10
22.231706
 20
24.452342
 10
22.252285
 20
24.464844
 10
22.271499
 20
24.479212
 10
22.289224
 20
24.495322
 10
22.305333
 20
24.513046
 10
22.319701
 20
24.532261
 10
22.332203
 20
24.55284
 10
22.342713
 20
24.574658
 10
22.351105
 20
24.597589
 10
22.357256
 20
24.621509
 10
22.361038
 20
24.646291
 10
22.362326
 20
24.67181
  0
LWPOLYLINE
  5
2D
330
1F
100
AcDbEntity
  8
0
100
AcDbPolyline
 90
        5
 70
   128
 43
0.0
 10
23.044225
 20
25.79498
 10
22.466086
 20
23.605674
 10
25.416588
 20
24.879106
 10
25.17474
 20
25.79498
 10
23.044225
 20
25.79498
  0
LWPOLYLINE
  5
2E
330
1F
100
AcDbEntity
  8
0
100
AcDbPolyline
 90
       62
 70
   128
 43
0.0
 10
26.138526
 20
25.225467
 10
26.325063
 20
25.26122
 10
26.514883
 20
25.268253
 10
26.70355
 20
25.246395
 10
26.886723
 20
25.196156
 10
26.853832
 20
25.333492
 10
26.731694
 20
25.449975
 10
26.591665
 20
25.54422
 10
26.437775
 20
25.613522
 10
26.274404
 20
25.655914
 10
26.106218
 20
25.670183
 10
25.107845
 20
25.670183
 10
25.029788
 20
25.622155
 10
24.944271
 20
25.58921
 10
24.854169
 20
25.572452
 10
24.762522
 20
25.572452
 10
24.672407
 20
25.58921
 10
24.58689
 20
25.622155
 10
24.508832
 20
25.670183
 10
24.408992
 20
25.670183
 10
24.330935
 20
25.622155
 10
24.245404
 20
25.58921
 10
24.155303
 20
25.572452
 10
24.063655
 20
25.572452
 10
23.973547
 20
25.58921
 10
23.888023
 20
25.622155
 10
23.809966
 20
25.670183
 10
23.710133
 20
25.670183
 10
23.632069
 20
25.622155
 10
23.546551
 20
25.58921
 10
23.456443
 20
25.572452
 10
23.364795
 20
25.572452
 10
23.274687
 20
25.58921
 10
23.189163
 20
25.622155
 10
23.111106
 20
25.670183
 10
22.112733
 20
25.670183
 10
21.917963
 20
25.650998
 10
21.730673
 20
25.594187
 10
21.558065
 20
25.501929
 10
21.40678
 20
25.37777
 10
21.28262
 20
25.226477
 10
21.190362
 20
25.05387
 10
21.133545
 20
24.86658
 10
21.114367
 20
24.67181
 10
21.133545
 20
24.47704
 10
21.190362
 20
24.28975
 10
21.28262
 20
24.117149
 10
21.40678
 20
23.96585
 10
21.558065
 20
23.841691
 10
21.730673
 20
23.749432
 10
21.917963
 20
23.692615
 10
22.112733
 20
23.673437
 10
22.30751
 20
23.692615
 10
22.494793
 20
23.749432
 10
22.6674
 20
23.841691
 10
22.818686
 20
23.96585
 10
22.942852
 20
24.117149
 10
23.03511
 20
24.28975
 10
23.091921
 20
24.47704
 10
23.111106
 20
24.67181
 10
26.106218
 20
25.104929
 10
26.138526
 20
25.225467
  0
LWPOLYLINE
  5
2F
330
1F
100
AcDbEntity
  8
0
100
AcDbPolyline
 90
       56
 70
   128
 43
0.0
 10
21.125116
 20
22.329849
 10
21.113302
 20
22.470569
 10
21.19279
 20
22.619467
 10
21.296211
 20
22.75285
 10
21.420635
 20
22.866904
 10
21.562487
 20
22.958362
 10
21.71772
 20
23.024619
 10
22.665786
 20
23.33754
 10
22.754966
 20
23.316394
 10
22.846505
 20
23.311919
 10
22.937318
 20
23.324248
 10
23.024348
 20
23.352975
 10
23.104663
 20
23.397124
 10
23.175552
 20
23.455216
 10
23.234621
 20
23.525284
 10
23.329429
 20
23.556575
 10
23.418608
 20
23.535443
 10
23.510147
 20
23.530954
 10
23.600968
 20
23.543283
 10
23.687997
 20
23.57201
 10
23.768313
 20
23.616159
 10
23.839195
 20
23.674251
 10
23.89827
 20
23.744333
 10
23.993078
 20
23.775623
 10
24.082251
 20
23.754478
 10
24.17379
 20
23.750002
 10
24.26461
 20
23.762331
 10
24.351646
 20
23.791058
 10
24.431955
 20
23.835207
 10
24.502851
 20
23.893299
 10
24.561919
 20
23.963368
 10
25.509986
 20
24.276288
 10
25.700958
 20
24.319115
 10
25.89661
 20
24.323869
 10
26.08944
 20
24.290353
 10
26.272017
 20
24.219871
 10
26.437341
 20
24.115115
 10
26.579051
 20
23.980132
 10
26.691709
 20
23.820084
 10
26.770973
 20
23.641129
 10
26.813793
 20
23.45017
 10
26.818553
 20
23.254505
 10
26.785038
 20
23.061688
 10
26.714549
 20
22.879098
 10
26.609799
 20
22.713774
 10
26.474803
 20
22.572063
 10
26.314769
 20
22.45942
 10
26.135814
 20
22.380155
 10
25.944841
 20
22.337322
 10
25.74919
 20
22.332575
 10
25.556359
 20
22.36609
 10
25.373782
 20
22.436565
 10
25.208458
 20
22.541329
 10
25.066748
 20
22.676312
 10
24.954091
 20
22.836359
 10
24.874827
 20
23.015301
  0
LWPOLYLINE
  5
30
330
1F
100
AcDbEntity
  8
0
100
AcDbPolyline
 90
        7
 70
   128
 43
0.0
 10
24.874827
 20
23.015301
 10
21.894885
 20
22.487848
 10
21.82643
 20
22.592192
 10
21.638083
 20
22.567669
 10
21.455635
 20
22.514853
 10
21.283312
 20
22.434965
 10
21.125116
 20
22.329849
  0
LWPOLYLINE
  5
31
330
1F
100
AcDbEntity
  8
0
100
AcDbPolyline
 90
        2
 70
   128
 43
0.0
 10
21.71772
 20
23.024619
 10
22.665786
 20
23.33754
  0
LWPOLYLINE
  5
32
330
1F
100
AcDbEntity
  8
0
100
AcDbPolyline
 90
       65
 70
   128
 43
0.0
 10
22.167882
 20
20.907919
 10
22.166593
 20
20.933438
 10
22.162811
 20
20.95822
 10
22.156661
 20
20.982139
 10
22.148268
 20
21.005071
 10
22.137758
 20
21.026889
 10
22.125256
 20
21.047468
 10
22.110888
 20
21.066682
 10
22.094779
 20
21.084407
 10
22.077055
 20
21.100516
 10
22.05784
 20
21.114885
 10
22.037261
 20
21.127387
 10
22.015443
 20
21.137897
 10
21.992512
 20
21.14629
 10
21.968592
 20
21.152441
 10
21.943809
 20
21.156223
 10
21.918288
 20
21.157512
 10
21.892769
 20
21.156223
 10
21.867987
 20
21.152441
 10
21.844068
 20
21.14629
 10
21.821136
 20
21.137897
 10
21.799318
 20
21.127387
 10
21.778739
 20
21.114885
 10
21.759525
 20
21.100516
 10
21.7418
 20
21.084407
 10
21.725691
 20
21.066682
 10
21.711322
 20
21.047468
 10
21.69882
 20
21.026889
 10
21.68831
 20
21.005071
 10
21.679917
 20
20.982139
 10
21.673766
 20
20.95822
 10
21.669984
 20
20.933438
 10
21.668695
 20
20.907919
 10
21.669984
 20
20.882399
 10
21.673766
 20
20.857617
 10
21.679917
 20
20.833698
 10
21.68831
 20
20.810766
 10
21.69882
 20
20.788948
 10
21.711322
 20
20.768369
 10
21.725691
 20
20.749155
 10
21.7418
 20
20.73143
 10
21.759525
 20
20.715321
 10
21.778739
 20
20.700952
 10
21.799318
 20
20.68845
 10
21.821136
 20
20.67794
 10
21.844068
 20
20.669547
 10
21.867987
 20
20.663396
 10
21.892769
 20
20.659614
 10
21.918288
 20
20.658325
 10
21.943809
 20
20.659614
 10
21.968592
 20
20.663396
 10
21.992512
 20
20.669547
 10
22.015443
 20
20.67794
 10
22.037261
 20
20.68845
 10
22.05784
 20
20.700952
 10
22.077055
 20
20.715321
 10
22.094779
 20
20.73143
 10
22.110888
 20
20.749155
 10
22.125256
 20
20.768369
 10
22.137758
 20
20.788948
 10
22.148268
 20
20.810766
 10
22.156661
 20
20.833698
 10
22.162811
 20
20.857617
 10
22.166593
 20
20.882399
 10
22.167882
 20
20.907919
  0
LWPOLYLINE
  5
33
330
1F
100
AcDbEntity
  8
0
100
AcDbPolyline
 90
        5
 70
   128
 43
0.0
 10
22.719348
 20
22.017199
 10
22.213529
 20
19.827894
 10
24.794938
 20
21.101332
 10
24.58335
 20
22.017199
 10
22.719348
 20
22.017199
  0
LWPOLYLINE
  5
34
330
1F
100
AcDbEntity
  8
0
100
AcDbPolyline
 90
       62
 70
   128
 43
0.0
 10
25.426571
 20
21.447687
 10
25.589766
 20
21.48344
 10
25.755849
 20
21.490466
 10
25.920916
 20
21.468615
 10
26.081167
 20
21.418376
 10
26.052385
 20
21.555705
 10
25.945533
 20
21.672188
 10
25.823015
 20
21.76644
 10
25.688385
 20
21.835735
 10
25.545441
 20
21.878134
 10
25.398305
 20
21.892403
 10
24.52481
 20
21.892403
 10
24.456532
 20
21.844375
 10
24.381703
 20
21.811429
 10
24.302872
 20
21.794665
 10
24.222699
 20
21.794665
 10
24.143855
 20
21.811429
 10
24.069026
 20
21.844375
 10
24.000735
 20
21.892403
 10
23.913387
 20
21.892403
 10
23.845095
 20
21.844375
 10
23.770266
 20
21.811429
 10
23.691435
 20
21.794665
 10
23.611249
 20
21.794665
 10
23.532405
 20
21.811429
 10
23.457589
 20
21.844375
 10
23.389298
 20
21.892403
 10
23.301956
 20
21.892403
 10
23.233651
 20
21.844375
 10
23.158829
 20
21.811429
 10
23.079998
 20
21.794665
 10
22.999812
 20
21.794665
 10
22.920981
 20
21.811429
 10
22.846152
 20
21.844375
 10
22.777861
 20
21.892403
 10
21.904379
 20
21.892403
 10
21.733969
 20
21.873224
 10
21.57011
 20
21.816407
 10
21.419095
 20
21.724149
 10
21.286737
 20
21.59999
 10
21.178108
 20
21.44869
 10
21.097392
 20
21.276083
 10
21.047682
 20
21.0888
 10
21.030898
 20
20.89403
 10
21.047682
 20
20.69926
 10
21.097392
 20
20.511976
 10
21.178108
 20
20.339369
 10
21.286737
 20
20.188069
 10
21.419095
 20
20.06391
 10
21.57011
 20
19.971652
 10
21.733969
 20
19.914835
 10
21.904379
 20
19.895657
 10
22.074789
 20
19.914835
 10
22.238642
 20
19.971652
 10
22.389656
 20
20.06391
 10
22.522021
 20
20.188069
 10
22.630657
 20
20.339369
 10
22.711373
 20
20.511976
 10
22.761076
 20
20.69926
 10
22.777861
 20
20.89403
 10
25.398305
 20
21.327149
 10
25.426571
 20
21.447687
  0
LWPOLYLINE
  5
35
330
1F
100
AcDbEntity
  8
0
100
AcDbPolyline
 90
       65
 70
   128
 43
0.0
 10
25.283857
 20
19.531453
 10
25.276432
 20
19.555901
 10
25.271602
 20
19.580501
 10
25.269293
 20
19.60509
 10
25.269428
 20
19.629508
 10
25.271932
 20
19.653595
 10
25.27673
 20
19.677191
 10
25.283746
 20
19.700135
 10
25.292904
 20
19.722266
 10
25.304129
 20
19.743424
 10
25.317346
 20
19.763448
 10
25.332478
 20
19.782179
 10
25.349451
 20
19.799455
 10
25.368189
 20
19.815115
 10
25.388615
 20
19.829001
 10
25.410656
 20
19.84095
 10
25.434234
 20
19.850802
 10
25.458681
 20
19.858228
 10
25.483278
 20
19.863057
 10
25.507866
 20
19.865366
 10
25.532284
 20
19.86523
 10
25.55637
 20
19.862725
 10
25.579966
 20
19.857926
 10
25.60291
 20
19.85091
 10
25.625041
 20
19.841751
 10
25.646199
 20
19.830525
 10
25.666223
 20
19.817308
 10
25.684953
 20
19.802175
 10
25.702229
 20
19.785203
 10
25.717889
 20
19.766466
 10
25.731773
 20
19.746041
 10
25.74372
 20
19.724002
 10
25.753571
 20
19.700425
 10
25.760998
 20
19.675976
 10
25.765829
 20
19.651377
 10
25.768139
 20
19.626787
 10
25.768004
 20
19.602368
 10
25.765499
 20
19.57828
 10
25.760701
 20
19.554684
 10
25.753684
 20
19.531739
 10
25.744526
 20
19.509607
 10
25.7333
 20
19.488449
 10
25.720083
 20
19.468424
 10
25.704951
 20
19.449693
 10
25.687979
 20
19.432418
 10
25.669243
 20
19.416758
 10
25.648818
 20
19.402874
 10
25.626781
 20
19.390926
 10
25.603207
 20
19.381076
 10
25.578756
 20
19.37365
 10
25.554155
 20
19.368821
 10
25.529564
 20
19.366512
 10
25.505144
 20
19.366648
 10
25.481056
 20
19.369153
 10
25.457459
 20
19.373952
 10
25.434515
 20
19.380968
 10
25.412384
 20
19.390127
 10
25.391226
 20
19.401353
 10
25.371202
 20
19.41457
 10
25.352472
 20
19.429703
 10
25.335198
 20
19.446675
 10
25.319538
 20
19.465412
 10
25.305655
 20
19.485838
 10
25.293708
 20
19.507876
 10
25.283857
 20
19.531453
  0
LWPOLYLINE
  5
36
330
1F
100
AcDbEntity
  8
0
100
AcDbPolyline
 90
        5
 70
   128
 43
0.0
 10
24.389448
 20
20.388577
 10
25.606489
 20
18.499727
 10
22.746414
 20
18.824177
 10
22.635486
 20
19.757609
 10
24.389448
 20
20.388577
  0
LWPOLYLINE
  5
37
330
1F
100
AcDbEntity
  8
0
100
AcDbPolyline
 90
       62
 70
   128
 43
0.0
 10
22.034825
 20
18.936278
 10
21.869162
 20
18.914685
 10
21.710504
 20
18.86507
 10
21.562582
 20
18.788641
 10
21.428793
 20
18.687119
 10
21.40939
 20
18.826076
 10
21.470507
 20
18.971855
 10
21.553888
 20
19.102023
 10
21.657112
 20
19.212795
 10
21.777263
 20
19.301079
 10
21.91089
 20
19.364311
 10
22.732817
 20
19.659993
 10
22.813322
 20
19.637912
 10
22.894885
 20
19.632242
 10
22.974733
 20
19.643147
 10
23.050173
 20
19.670287
 10
23.118688
 20
19.712754
 10
23.177953
 20
19.769083
 10
23.225954
 20
19.837388
 10
23.308141
 20
19.866956
 10
23.38866
 20
19.844889
 10
23.470224
 20
19.839206
 10
23.550078
 20
19.850124
 10
23.625531
 20
19.877265
 10
23.694046
 20
19.919732
 10
23.753291
 20
19.97606
 10
23.801292
 20
20.044365
 10
23.883473
 20
20.07392
 10
23.964005
 20
20.051852
 10
24.045562
 20
20.046183
 10
24.125423
 20
20.057101
 10
24.200862
 20
20.084242
 10
24.269371
 20
20.126695
 10
24.328629
 20
20.183024
 10
24.37663
 20
20.251343
 10
25.198557
 20
20.547011
 10
25.365387
 20
20.586656
 10
25.538808
 20
20.58865
 10
25.712134
 20
20.552965
 10
25.878706
 20
20.48093
 10
26.032149
 20
20.375339
 10
26.166521
 20
20.240248
 10
26.276696
 20
20.080851
 10
26.358416
 20
19.903252
 10
26.40856
 20
19.714301
 10
26.425175
 20
19.52124
 10
26.407651
 20
19.331501
 10
26.356639
 20
19.15237
 10
26.274133
 20
18.990735
 10
26.163266
 20
18.852809
 10
26.02831
 20
18.743868
 10
25.874447
 20
18.668144
 10
25.707618
 20
18.628512
 10
25.534197
 20
18.626504
 10
25.360857
 20
18.662189
 10
25.194298
 20
18.734225
 10
25.040856
 20
18.839815
 10
24.90647
 20
18.974907
 10
24.796308
 20
19.134317
 10
24.714589
 20
19.311902
 10
22.102228
 20
18.832423
 10
22.034825
 20
18.936278
  0
LWPOLYLINE
  5
38
330
1F
100
AcDbEntity
  8
0
100
AcDbPolyline
 90
       65
 70
   128
 43
0.0
 10
22.709549
 20
28.616257
 10
22.70826
 20
28.641776
 10
22.704478
 20
28.666558
 10
22.698328
 20
28.690478
 10
22.689935
 20
28.713409
 10
22.679425
 20
28.735227
 10
22.666923
 20
28.755806
 10
22.652555
 20
28.775021
 10
22.636446
 20
28.792745
 10
22.618722
 20
28.808855
 10
22.599507
 20
28.823223
 10
22.578929
 20
28.835725
 10
22.55711
 20
28.846236
 10
22.534179
 20
28.854629
 10
22.510259
 20
28.860779
 10
22.485476
 20
28.864562
 10
22.459955
 20
28.86585
 10
22.434436
 20
28.864562
 10
22.409654
 20
28.860779
 10
22.385735
 20
28.854629
 10
22.362803
 20
28.846236
 10
22.340985
 20
28.835725
 10
22.320406
 20
28.823223
 10
22.301192
 20
28.808855
 10
22.283467
 20
28.792745
 10
22.267358
 20
28.775021
 10
22.252989
 20
28.755806
 10
22.240487
 20
28.735227
 10
22.229977
 20
28.713409
 10
22.221584
 20
28.690478
 10
22.215433
 20
28.666558
 10
22.211651
 20
28.641776
 10
22.210362
 20
28.616257
 10
22.211651
 20
28.590738
 10
22.215433
 20
28.565956
 10
22.221584
 20
28.542036
 10
22.229977
 20
28.519105
 10
22.240487
 20
28.497287
 10
22.252989
 20
28.476708
 10
22.267358
 20
28.457493
 10
22.283467
 20
28.439769
 10
22.301192
 20
28.423659
 10
22.320406
 20
28.409291
 10
22.340985
 20
28.396789
 10
22.362803
 20
28.386278
 10
22.385735
 20
28.377885
 10
22.409654
 20
28.371735
 10
22.434436
 20
28.367952
 10
22.459955
 20
28.366664
 10
22.485476
 20
28.367952
 10
22.510259
 20
28.371735
 10
22.534179
 20
28.377885
 10
22.55711
 20
28.386278
 10
22.578929
 20
28.396789
 10
22.599507
 20
28.409291
 10
22.618722
 20
28.423659
 10
22.636446
 20
28.439769
 10
22.652555
 20
28.457493
 10
22.666923
 20
28.476708
 10
22.679425
 20
28.497287
 10
22.689935
 20
28.519105
 10
22.698328
 20
28.542036
 10
22.704478
 20
28.565956
 10
22.70826
 20
28.590738
 10
22.709549
 20
28.616257
  0
LWPOLYLINE
  5
39
330
1F
100
AcDbEntity
  8
0
100
AcDbPolyline
 90
        5
 70
   128
 43
0.0
 10
23.591738
 20
29.711649
 10
22.891183
 20
27.522343
 10
26.466421
 20
28.795775
 10
26.173357
 20
29.711649
 10
23.591738
 20
29.711649
  0
LWPOLYLINE
  5
3A
330
1F
100
AcDbEntity
  8
0
100
AcDbPolyline
 90
       62
 70
   128
 43
0.0
 10
27.341218
 20
29.142136
 10
27.567252
 20
29.177889
 10
27.79726
 20
29.184922
 10
28.02587
 20
29.163064
 10
28.247835
 20
29.112826
 10
28.207986
 20
29.250162
 10
28.059982
 20
29.366644
 10
27.890304
 20
29.460889
 10
27.703821
 20
29.530191
 10
27.505864
 20
29.572584
 10
27.302074
 20
29.586852
 10
26.092302
 20
29.586852
 10
25.997711
 20
29.538824
 10
25.894087
 20
29.505879
 10
25.784916
 20
29.489121
 10
25.673859
 20
29.489121
 10
25.56466
 20
29.505879
 10
25.461036
 20
29.538824
 10
25.366458
 20
29.586852
 10
25.245473
 20
29.586852
 10
25.150895
 20
29.538824
 10
25.047244
 20
29.505879
 10
24.938073
 20
29.489121
 10
24.827016
 20
29.489121
 10
24.717817
 20
29.505879
 10
24.614193
 20
29.538824
 10
24.519615
 20
29.586852
 10
24.398643
 20
29.586852
 10
24.304052
 20
29.538824
 10
24.200428
 20
29.505879
 10
24.091243
 20
29.489121
 10
23.980186
 20
29.489121
 10
23.870994
 20
29.505879
 10
23.767363
 20
29.538824
 10
23.672779
 20
29.586852
 10
22.463014
 20
29.586852
 10
22.227004
 20
29.567667
 10
22.000055
 20
29.510857
 10
21.790901
 20
29.418599
 10
21.607585
 20
29.294439
 10
21.457134
 20
29.143147
 10
21.345344
 20
28.970539
 10
21.276497
 20
28.783249
 10
21.253256
 20
28.588479
 10
21.276497
 20
28.393709
 10
21.345344
 20
28.206419
 10
21.457134
 20
28.033818
 10
21.607585
 20
27.882519
 10
21.790901
 20
27.75836
 10
22.000055
 20
27.666102
 10
22.227004
 20
27.609285
 10
22.463014
 20
27.590106
 10
22.69903
 20
27.609285
 10
22.925973
 20
27.666102
 10
23.135127
 20
27.75836
 10
23.318443
 20
27.882519
 10
23.468901
 20
28.033818
 10
23.58069
 20
28.206419
 10
23.649531
 20
28.393709
 10
23.672779
 20
28.588479
 10
27.302074
 20
29.021598
 10
27.341218
 20
29.142136
  0
LWPOLYLINE
  5
3B
330
1F
100
AcDbEntity
  8
0
100
AcDbPolyline
 90
       65
 70
   128
 43
0.0
 10
26.887415
 20
27.137259
 10
26.882676
 20
27.162366
 10
26.880533
 20
27.187343
 10
26.880894
 20
27.212037
 10
26.883667
 20
27.236298
 10
26.888759
 20
27.259974
 10
26.896078
 20
27.282913
 10
26.905532
 20
27.304964
 10
26.917027
 20
27.325976
 10
26.930472
 20
27.345797
 10
26.945774
 20
27.364276
 10
26.962841
 20
27.381261
 10
26.981581
 20
27.396601
 10
27.0019
 20
27.410145
 10
27.023707
 20
27.42174
 10
27.04691
 20
27.431236
 10
27.071415
 20
27.438481
 10
27.096522
 20
27.443222
 10
27.121498
 20
27.445366
 10
27.146191
 20
27.445006
 10
27.170452
 20
27.442233
 10
27.194128
 20
27.437141
 10
27.217067
 20
27.429822
 10
27.239119
 20
27.420369
 10
27.260131
 20
27.408873
 10
27.279953
 20
27.395428
 10
27.298433
 20
27.380126
 10
27.315419
 20
27.363059
 10
27.33076
 20
27.34432
 10
27.344304
 20
27.324002
 10
27.355901
 20
27.302196
 10
27.365398
 20
27.278996
 10
27.372644
 20
27.254494
 10
27.377385
 20
27.229385
 10
27.379529
 20
27.204407
 10
27.379167
 20
27.179712
 10
27.376394
 20
27.15545
 10
27.3713
 20
27.131773
 10
27.36398
 20
27.108833
 10
27.354524
 20
27.086781
 10
27.343027
 20
27.065768
 10
27.32958
 20
27.045946
 10
27.314277
 20
27.027467
 10
27.297209
 20
27.010482
 10
27.278469
 20
26.995142
 10
27.25815
 20
26.981599
 10
27.236345
 20
26.970004
 10
27.213145
 20
26.960509
 10
27.188644
 20
26.953265
 10
27.163535
 20
26.948524
 10
27.138558
 20
26.94638
 10
27.113863
 20
26.946741
 10
27.089601
 20
26.949514
 10
27.065925
 20
26.954606
 10
27.042986
 20
26.961926
 10
27.020935
 20
26.97138
 10
26.999923
 20
26.982876
 10
26.980102
 20
26.996322
 10
26.961623
 20
27.011625
 10
26.944638
 20
27.028692
 10
26.929298
 20
27.047432
 10
26.915754
 20
27.067751
 10
26.904158
 20
27.089556
 10
26.894661
 20
27.112757
 10
26.887415
 20
27.137259
  0
LWPOLYLINE
  5
3C
330
1F
100
AcDbEntity
  8
0
100
AcDbPolyline
 90
        5
 70
   128
 43
0.0
 10
25.772654
 20
27.994837
 10
26.967764
 20
26.031281
 10
23.193449
 20
26.429474
 10
23.263226
 20
27.388561
 10
25.772654
 20
27.994837
  0
LWPOLYLINE
  5
3D
330
1F
100
AcDbEntity
  8
0
100
AcDbPolyline
 90
       62
 70
   128
 43
0.0
 10
22.261774
 20
26.560714
 10
22.033665
 20
26.542383
 10
21.808445
 20
26.495202
 10
21.591357
 20
26.420265
 10
21.387397
 20
26.319306
 10
21.393881
 20
26.462162
 10
21.51039
 20
26.610145
 10
21.653192
 20
26.741602
 10
21.818184
 20
26.85276
 10
22.000645
 20
26.940454
 10
22.195388
 20
27.002188
 10
23.371326
 20
27.286286
 10
23.47455
 20
27.261818
 10
23.58301
 20
27.254128
 10
23.693063
 20
27.26348
 10
23.801014
 20
27.289562
 10
23.903228
 20
27.331493
 10
23.996218
 20
27.387849
 10
24.076866
 20
27.456751
 10
24.194474
 20
27.485166
 10
24.297678
 20
27.460684
 10
24.406171
 20
27.453007
 10
24.516224
 20
27.462353
 10
24.624175
 20
27.488435
 10
24.726389
 20
27.530373
 10
24.819379
 20
27.586729
 10
24.900027
 20
27.655624
 10
25.017622
 20
27.684032
 10
25.120839
 20
27.659564
 10
25.229305
 20
27.651874
 10
25.339372
 20
27.661232
 10
25.447323
 20
27.687308
 10
25.549523
 20
27.729239
 10
25.642527
 20
27.785602
 10
25.723175
 20
27.854497
 10
26.89912
 20
28.138609
 10
27.13302
 20
28.175379
 10
27.366975
 20
28.173453
 10
27.591951
 20
28.132899
 10
27.799294
 20
28.055262
 10
27.98107
 20
27.943534
 10
28.130268
 20
27.802007
 10
28.241175
 20
27.636127
 10
28.309508
 20
27.452261
 10
28.33266
 20
27.257478
 10
28.309725
 20
27.059256
 10
28.241582
 20
26.865232
 10
28.130878
 20
26.682825
 10
27.981844
 20
26.519088
 10
27.800203
 20
26.380294
 10
27.592941
 20
26.271766
 10
27.368033
 20
26.197703
 10
27.134119
 20
26.160919
 10
26.900178
 20
26.162845
 10
26.675202
 20
26.203407
 10
26.467859
 20
26.281044
 10
26.286082
 20
26.392779
 10
26.136885
 20
26.534299
 10
26.025977
 20
26.700186
 10
25.957645
 20
26.884051
 10
22.328133
 20
26.452736
 10
22.261774
 20
26.560714
  0
ENDSEC
  0
SECTION
  2
OBJECTS
  0
DICTIONARY
  5
C
330
0
100
AcDbDictionary
281
     1
  3
ACAD_GROUP
350
D
  3
ACAD_LAYOUT
350
1A
  3
ACAD_MLINESTYLE
350
17
  3
ACAD_PLOTSETTINGS
350
19
  3
ACAD_PLOTSTYLENAME
350
E
  0
DICTIONARY
  5
D
102
{ACAD_REACTORS
330
C
102
}
330
C
100
AcDbDictionary
281
     1
  0
DICTIONARY
  5
1A
102
{ACAD_REACTORS
330
C
102
}
330
C
100
AcDbDictionary
281
     1
  3
Layout1
350
1E
  3
Layout2
350
26
  3
Model
350
22
  0
DICTIONARY
  5
17
102
{ACAD_REACTORS
330
C
102
}
330
C
100
AcDbDictionary
281
     1
  3
Standard
350
18
  0
DICTIONARY
  5
19
102
{ACAD_REACTORS
330
C
102
}
330
C
100
AcDbDictionary
281
     1
  0
ACDBDICTIONARYWDFLT
  5
E
102
{ACAD_REACTORS
330
C
102
}
330
C
100
AcDbDictionary
281
     1
  3
Normal
350
F
100
AcDbDictionaryWithDefault
340
F
  0
LAYOUT
  5
1E
102
{ACAD_REACTORS
330
1A
102
}
330
1A
100
AcDbPlotSettings
  1

  2

  4

  6

 40
0.0
 41
0.0
 42
0.0
 43
0.0
 44
0.0
 45
0.0
 46
0.0
 47
0.0
 48
0.0
 49
0.0
140
0.0
141
0.0
142
1.0
143
1.0
 70
   688
 72
     0
 73
     0
 74
     5
  7

 75
    16
147
1.0
148
0.0
149
0.0
100
AcDbLayout
  1
Layout1
 70
     1
 71
     1
 10
0.0
 20
0.0
 11
420.0
 21
297.0
 12
0.0
 22
0.0
 32
0.0
 14
1.000000E+20
 24
1.000000E+20
 34
1.000000E+20
 15
-1.000000E+20
 25
-1.000000E+20
 35
-1.000000E+20
146
0.0
 13
0.0
 23
0.0
 33
0.0
 16
1.0
 26
0.0
 36
0.0
 17
0.0
 27
1.0
 37
0.0
 76
     0
330
1B
  0
LAYOUT
  5
26
102
{ACAD_REACTORS
330
1A
102
}
330
1A
100
AcDbPlotSettings
  1

  2

  4

  6

 40
0.0
 41
0.0
 42
0.0
 43
0.0
 44
0.0
 45
0.0
 46
0.0
 47
0.0
 48
0.0
 49
0.0
140
0.0
141
0.0
142
1.0
143
1.0
 70
   688
 72
     0
 73
     0
 74
     5
  7

 75
    16
147
1.0
148
0.0
149
0.0
100
AcDbLayout
  1
Layout2
 70
     1
 71
     2
 10
0.0
 20
0.0
 11
0.0
 21
0.0
 12
0.0
 22
0.0
 32
0.0
 14
0.0
 24
0.0
 34
0.0
 15
0.0
 25
0.0
 35
0.0
146
0.0
 13
0.0
 23
0.0
 33
0.0
 16
1.0
 26
0.0
 36
0.0
 17
0.0
 27
1.0
 37
0.0
 76
     0
330
23
  0
LAYOUT
  5
22
102
{ACAD_REACTORS
330
1A
102
}
330
1A
100
AcDbPlotSettings
  1

  2

  4

  6

 40
0.0
 41
0.0
 42
0.0
 43
0.0
 44
0.0
 45
0.0
 46
0.0
 47
0.0
 48
0.0
 49
0.0
140
0.0
141
0.0
142
1.0
143
1.0
 70
  1712
 72
     0
 73
     0
 74
     0
  7

 75
     0
147
1.0
148
0.0
149
0.0
100
AcDbLayout
  1
Model
 70
     1
 71
     0
 10
0.0
 20
0.0
 11
0.0
 21
0.0
 12
0.0
 22
0.0
 32
0.0
 14
0.0
 24
0.0
 34
0.0
 15
0.0
 25
0.0
 35
0.0
146
0.0
 13
0.0
 23
0.0
 33
0.0
 16
1.0
 26
0.0
 36
0.0
 17
0.0
 27
1.0
 37
0.0
 76
     0
330
1F
  0
MLINESTYLE
  5
18
102
{ACAD_REACTORS
330
17
102
}
330
17
100
AcDbMlineStyle
  2
Standard
 70
     0
  3

 62
   256
 51
90.0
 52
90.0
 71
     2
 49
1.0
 62
   256
  6
BYLAYER
 49
-1.0
 62
   256
  6
BYLAYER
  0
ACDBPLACEHOLDER
  5
F
102
{ACAD_REACTORS
330
E
102
}
330
E
  0
ENDSEC
  0
EOF
