999
dxflib 2.0.4.8
  0
SECTION
  2
HEADER
  9
$ACADVER
  1
AC1015
  9
$HANDSEED
  5
FFFF
  9
$USERR4
 40
0.0
  9
$DIMTDEC
 70
2
  9
$DIMTAD
 70
1
  9
$CMLSTYLE
  2
Standard
  9
$VISRETAIN
 70
1
  9
$TILEMODE
 70
1
  9
$SHADEDIF
 70
70
  9
$USERR5
 40
0.0
  9
$UCSYDIR
 10
0.0
 20
1.0
 30
0.0
  9
$CHAMFERA
 40
10.0
  9
$MENU
  1
.
  9
$DIMALTZ
 70
0
  9
$CLAYER
  8
0
  9
$OLESTARTUP
290
0
  9
$UCSXDIR
 10
1.0
 20
0.0
 30
0.0
  9
$CHAMFERB
 40
10.0
  9
$DIMADEC
 70
0
  9
$DIMUPT
 70
0
  9
$DIMASZ
 40
2.5
  9
$TRACEWID
 40
1.0
  9
$REGENMODE
 70
1
  9
$ORTHOMODE
 70
0
  9
$EXTMIN
 10
100000000000000000000.0
 20
100000000000000000000.0
 30
100000000000000000000.0
  9
$ENDCAPS
280
0
  9
$MEASUREMENT
 70
0
  9
$CMLJUST
 70
1
  9
$PUCSYDIR
 10
0.0
 20
1.0
 30
0.0
  9
$ANGBASE
 50
0.0
  9
$USRTIMER
 70
1
  9
$CHAMFERC
 40
20.0
  9
$SKETCHINC
 40
1.0
  9
$DIMGAP
 40
0.625
  9
$DIMTFAC
 40
1.0
  9
$DIMSAH
 70
0
  9
$DIMALT
 70
0
  9
$DIMSHO
 70
1
  9
$VERSIONGUID
  2
{FAEB1C32-E019-11D5-929B-00C0DF256EC4}
  9
$LWDISPLAY
290
0
  9
$PUCSXDIR
 10
1.0
 20
0.0
 30
0.0
  9
$SURFTYPE
 70
6
  9
$SPLFRAME
 70
0
  9
$CHAMFERD
 40
0.0
  9
$DIMALTRND
 40
0.0
  9
$DIMALTTD
 70
3
  9
$DIMTSZ
 40
0.0
  9
$LIMMIN
 10
0.0
 20
0.0
  9
$CELWEIGHT
370
-1
  9
$SURFTAB1
 70
6
  9
$SPLINESEGS
 70
8
  9
$AUPREC
 70
0
  9
$LUNITS
 70
2
  9
$DWGCODEPAGE
  3
ANSI_1252
  9
$PSTYLEMODE
290
1
  9
$UNITMODE
 70
0
  9
$USERI1
 70
0
  9
$UCSORTHOVIEW
 70
0
  9
$SURFTAB2
 70
6
  9
$TDUUPDATE
 40
2455020.056065914221108
  9
$TDUCREATE
 40
2455020.0560659030452371
  9
$SKPOLY
 70
0
  9
$ELEVATION
 40
0.0
  9
$DIMDSEP
 70
44
  9
$DIMCEN
 40
2.5
  9
$DIMRND
 40
0.0
  9
$INSBASE
 10
0.0
 20
0.0
 30
0.0
  9
$INSUNITS
 70
4
  9
$USERI2
 70
0
  9
$UCSORGRIGHT
 10
0.0
 20
0.0
 30
0.0
  9
$UCSORG
 10
0.0
 20
0.0
 30
0.0
  9
$PELEVATION
 40
0.0
  9
$DIMEXO
 40
0.625
  9
$TEXTSIZE
 40
2.5
  9
$FILLMODE
 70
1
  9
$EXTMAX
 10
-100000000000000000000.0
 20
-100000000000000000000.0
 30
-100000000000000000000.0
  9
$JOINSTYLE
280
0
  9
$USERI3
 70
0
  9
$PUCSORGBOTTOM
 10
0.0
 20
0.0
 30
0.0
  9
$SURFU
 70
6
  9
$ANGDIR
 70
0
  9
$TDUSRTIMER
 40
0.0000000116
  9
$DIMLWD
 70
-2
  9
$DIMTZIN
 70
8
  9
$DIMTOLJ
 70
0
  9
$DIMZIN
 70
8
  9
$DIMDLE
 40
0.0
  9
$DIMSCALE
 40
1.0
  9
$WORLDVIEW
 70
1
  9
$USERI4
 70
0
  9
$SURFV
 70
6
  9
$DIMLWE
 70
-2
  9
$DIMLUNIT
 70
2
  9
$DIMATFIT
 70
3
  9
$DIMALTTZ
 70
0
  9
$DIMJUST
 70
0
  9
$QTEXTMODE
 70
0
  9
$LIMMAX
 10
420.0
 20
297.0
  9
$ACADMAINTVER
 70
6
  9
$EXTNAMES
290
1
  9
$PROXYGRAPHICS
 70
1
  9
$USERI5
 70
0
  9
$UCSORGTOP
 10
0.0
 20
0.0
 30
0.0
  9
$PDMODE
 70
3
  9
$LIMCHECK
 70
0
  9
$THICKNESS
 40
0.0
  9
$DIMAZIN
 70
0
  9
$DIMSE1
 70
0
  9
$DIMLIM
 70
0
  9
$DIMTXT
 40
2.5
  9
$ATTMODE
 70
1
  9
$XEDIT
290
1
  9
$PEXTMAX
 10
-100000000000000000000.0
 20
-100000000000000000000.0
 30
-100000000000000000000.0
  9
$PEXTMIN
 10
100000000000000000000.0
 20
100000000000000000000.0
 30
100000000000000000000.0
  9
$PUCSORG
 10
0.0
 20
0.0
 30
0.0
  9
$SPLINETYPE
 70
6
  9
$TDINDWG
 40
0.0000000116
  9
$LUPREC
 70
4
  9
$DIMSOXD
 70
0
  9
$DIMLFAC
 40
1.0
  9
$DIMSE2
 70
0
  9
$DIMTOH
 70
0
  9
$CELTYPE
  6
ByLayer
  9
$PSVPSCALE
 40
0.0
  9
$FINGERPRINTGUID
  2
{FAEB1C30-E019-11D5-929B-00C0DF256EC4}
  9
$PLIMCHECK
 70
0
  9
$PUCSORGRIGHT
 10
0.0
 20
0.0
 30
0.0
  9
$PLINEWID
 40
0.0
  9
$DIMFRAC
 70
0
  9
$DIMSTYLE
  2
ISO-25
  9
$DIMTVP
 40
0.0
  9
$DIMASO
 70
1
  9
$DIMTM
 40
0.0
  9
$DIMDLI
 40
3.75
  9
$DISPSILH
 70
0
  9
$CECOLOR
 62
256
  9
$TREEDEPTH
 70
3020
  9
$PLIMMAX
 10
420.0
 20
297.0
  9
$PLIMMIN
 10
0.0
 20
0.0
  9
$MAXACTVP
 70
64
  9
$UCSORGBACK
 10
0.0
 20
0.0
 30
0.0
  9
$UCSORGLEFT
 10
0.0
 20
0.0
 30
0.0
  9
$TDUPDATE
 40
2455019.806065914221108
  9
$FILLETRAD
 40
10.0
  9
$DIMALTU
 70
2
  9
$DIMDEC
 70
2
  9
$DIMCLRT
 70
0
  9
$DIMALTD
 70
3
  9
$DIMTIH
 70
0
  9
$LTSCALE
 40
1.0
  9
$CEPSNTYPE
380
0
  9
$CMLSCALE
 40
1.0
  9
$PINSBASE
 10
0.0
 20
0.0
 30
0.0
  9
$USERR1
 40
0.0
  9
$PUCSORTHOVIEW
 70
0
  9
$PDSIZE
 40
-0.7
  9
$DIMTXSTY
  7
Standard
  9
$DIMCLRD
 70
0
  9
$DIMEXE
 40
1.25
  9
$CELTSCALE
 40
1.0
  9
$PSLTSCALE
 70
1
  9
$PLINEGEN
 70
0
  9
$SHADEDGE
 70
3
  9
$USERR2
 40
0.0
  9
$PUCSORGTOP
 10
0.0
 20
0.0
 30
0.0
  9
$UCSORGFRONT
 10
0.0
 20
0.0
 30
0.0
  9
$TDCREATE
 40
2455019.8060659030452371
  9
$DIMTMOVE
 70
0
  9
$DIMAUNIT
 70
0
  9
$DIMSD1
 70
0
  9
$DIMCLRE
 70
0
  9
$DIMTOFL
 70
1
  9
$DIMALTF
 40
0.03937
  9
$DIMTOL
 70
0
  9
$DIMTP
 40
0.0
  9
$TEXTSTYLE
  7
Standard
  9
$USERR3
 40
0.0
  9
$PUCSORGBACK
 10
0.0
 20
0.0
 30
0.0
  9
$PUCSORGFRONT
 10
0.0
 20
0.0
 30
0.0
  9
$PUCSORGLEFT
 10
0.0
 20
0.0
 30
0.0
  9
$UCSORGBOTTOM
 10
0.0
 20
0.0
 30
0.0
  9
$AUNITS
 70
0
  9
$DIMSD2
 70
0
  9
$DIMTIX
 70
0
  9
$MIRRTEXT
 70
1
  0
ENDSEC
  0
SECTION
  2
TABLES
  0
TABLE
  2
VPORT
  5
8
100
AcDbSymbolTable
 70
1
  0
VPORT
  5
30
100
AcDbSymbolTableRecord
100
AcDbViewportTableRecord
  2
*Active
 70
0
 10
0.0
 20
0.0
 11
1.0
 21
1.0
 12
286.3055555555554861
 22
148.5
 13
0.0
 23
0.0
 14
10.0
 24
10.0
 15
10.0
 25
10.0
 16
0.0
 26
0.0
 36
1.0
 17
0.0
 27
0.0
 37
0.0
 40
297.0
 41
1.92798353909465
 42
50.0
 43
0.0
 44
0.0
 50
0.0
 51
0.0
 71
0
 72
100
 73
1
 74
3
 75
1
 76
1
 77
0
 78
0
281
0
 65
1
110
0.0
120
0.0
130
0.0
111
1.0
121
0.0
131
0.0
112
0.0
122
1.0
132
0.0
 79
0
146
0.0
  0
ENDTAB
  0
TABLE
  2
LTYPE
  5
5
100
AcDbSymbolTable
 70
21
  0
LTYPE
  5
14
100
AcDbSymbolTableRecord
100
AcDbLinetypeTableRecord
  2
ByBlock
 70
0
  3

 72
65
 73
0
 40
0.0
  0
LTYPE
  5
15
100
AcDbSymbolTableRecord
100
AcDbLinetypeTableRecord
  2
ByLayer
 70
0
  3

 72
65
 73
0
 40
0.0
  0
LTYPE
  5
16
100
AcDbSymbolTableRecord
100
AcDbLinetypeTableRecord
  2
CONTINUOUS
 70
0
  3
Solid line
 72
65
 73
0
 40
0.0
  0
LTYPE
  5
31
100
AcDbSymbolTableRecord
100
AcDbLinetypeTableRecord
  2
DOT
 70
0
  3
Dot . . . . . . . . . . . . . . . . . . . . . .
 72
65
 73
2
 40
6.3499999999999996
 49
0.0
 74
0
 49
-6.3499999999999996
 74
0
  0
LTYPE
  5
32
100
AcDbSymbolTableRecord
100
AcDbLinetypeTableRecord
  2
DOT2
 70
0
  3
Dot (.5x) .....................................
 72
65
 73
2
 40
3.1749999999999998
 49
0.0
 74
0
 49
-3.1749999999999998
 74
0
  0
LTYPE
  5
33
100
AcDbSymbolTableRecord
100
AcDbLinetypeTableRecord
  2
DOTX2
 70
0
  3
Dot (2x) .  .  .  .  .  .  .  .  .  .  .  .  .
 72
65
 73
2
 40
12.6999999999999993
 49
0.0
 74
0
 49
-12.6999999999999993
 74
0
  0
LTYPE
  5
34
100
AcDbSymbolTableRecord
100
AcDbLinetypeTableRecord
  2
DASHED
 70
0
  3
Dashed __ __ __ __ __ __ __ __ __ __ __ __ __ _
 72
65
 73
2
 40
19.0500000000000007
 49
12.6999999999999993
 74
0
 49
-6.3499999999999996
 74
0
  0
LTYPE
  5
35
100
AcDbSymbolTableRecord
100
AcDbLinetypeTableRecord
  2
DASHED2
 70
0
  3
Dashed (.5x) _ _ _ _ _ _ _ _ _ _ _ _ _ _ _ _ _
 72
65
 73
2
 40
9.5250000000000004
 49
6.3499999999999996
 74
0
 49
-3.1749999999999998
 74
0
  0
LTYPE
  5
36
100
AcDbSymbolTableRecord
100
AcDbLinetypeTableRecord
  2
DASHEDX2
 70
0
  3
Dashed (2x) ____  ____  ____  ____  ____  ___
 72
65
 73
2
 40
38.1000000000000014
 49
25.3999999999999986
 74
0
 49
-12.6999999999999993
 74
0
  0
LTYPE
  5
37
100
AcDbSymbolTableRecord
100
AcDbLinetypeTableRecord
  2
DASHDOT
 70
0
  3
Dash dot __ . __ . __ . __ . __ . __ . __ . __
 72
65
 73
4
 40
25.3999999999999986
 49
12.6999999999999993
 74
0
 49
-6.3499999999999996
 74
0
 49
0.0
 74
0
 49
-6.3499999999999996
 74
0
  0
LTYPE
  5
38
100
AcDbSymbolTableRecord
100
AcDbLinetypeTableRecord
  2
DASHDOT2
 70
0
  3
Dash dot (.5x) _._._._._._._._._._._._._._._.
 72
65
 73
4
 40
12.6999999999999993
 49
6.3499999999999996
 74
0
 49
-3.1749999999999998
 74
0
 49
0.0
 74
0
 49
-3.1749999999999998
 74
0
  0
LTYPE
  5
39
100
AcDbSymbolTableRecord
100
AcDbLinetypeTableRecord
  2
DASHDOTX2
 70
0
  3
Dash dot (2x) ____  .  ____  .  ____  .  ___
 72
65
 73
4
 40
50.7999999999999972
 49
25.3999999999999986
 74
0
 49
-12.6999999999999993
 74
0
 49
0.0
 74
0
 49
-12.6999999999999993
 74
0
  0
LTYPE
  5
3A
100
AcDbSymbolTableRecord
100
AcDbLinetypeTableRecord
  2
DIVIDE
 70
0
  3
Divide ____ . . ____ . . ____ . . ____ . . ____
 72
65
 73
6
 40
31.75
 49
12.6999999999999993
 74
0
 49
-6.3499999999999996
 74
0
 49
0.0
 74
0
 49
-6.3499999999999996
 74
0
 49
0.0
 74
0
 49
-6.3499999999999996
 74
0
  0
LTYPE
  5
3B
100
AcDbSymbolTableRecord
100
AcDbLinetypeTableRecord
  2
DIVIDE2
 70
0
  3
Divide (.5x) __..__..__..__..__..__..__..__.._
 72
65
 73
6
 40
15.875
 49
6.3499999999999996
 74
0
 49
-3.1749999999999998
 74
0
 49
0.0
 74
0
 49
-3.1749999999999998
 74
0
 49
0.0
 74
0
 49
-3.1749999999999998
 74
0
  0
LTYPE
  5
3C
100
AcDbSymbolTableRecord
100
AcDbLinetypeTableRecord
  2
DIVIDEX2
 70
0
  3
Divide (2x) ________  .  .  ________  .  .  _
 72
65
 73
6
 40
63.5
 49
25.3999999999999986
 74
0
 49
-12.6999999999999993
 74
0
 49
0.0
 74
0
 49
-12.6999999999999993
 74
0
 49
0.0
 74
0
 49
-12.6999999999999993
 74
0
  0
LTYPE
  5
3D
100
AcDbSymbolTableRecord
100
AcDbLinetypeTableRecord
  2
CENTER
 70
0
  3
Center ____ _ ____ _ ____ _ ____ _ ____ _ ____
 72
65
 73
4
 40
50.7999999999999972
 49
31.75
 74
0
 49
-6.3499999999999996
 74
0
 49
6.3499999999999996
 74
0
 49
-6.3499999999999996
 74
0
  0
LTYPE
  5
3E
100
AcDbSymbolTableRecord
100
AcDbLinetypeTableRecord
  2
CENTER2
 70
0
  3
Center (.5x) ___ _ ___ _ ___ _ ___ _ ___ _ ___
 72
65
 73
4
 40
28.5749999999999993
 49
19.0500000000000007
 74
0
 49
-3.1749999999999998
 74
0
 49
3.1749999999999998
 74
0
 49
-3.1749999999999998
 74
0
  0
LTYPE
  5
3F
100
AcDbSymbolTableRecord
100
AcDbLinetypeTableRecord
  2
CENTERX2
 70
0
  3
Center (2x) ________  __  ________  __  _____
 72
65
 73
4
 40
101.5999999999999943
 49
63.5
 74
0
 49
-12.6999999999999993
 74
0
 49
12.6999999999999993
 74
0
 49
-12.6999999999999993
 74
0
  0
LTYPE
  5
40
100
AcDbSymbolTableRecord
100
AcDbLinetypeTableRecord
  2
BORDER
 70
0
  3
Border __ __ . __ __ . __ __ . __ __ . __ __ .
 72
65
 73
6
 40
44.4500000000000028
 49
12.6999999999999993
 74
0
 49
-6.3499999999999996
 74
0
 49
12.6999999999999993
 74
0
 49
-6.3499999999999996
 74
0
 49
0.0
 74
0
 49
-6.3499999999999996
 74
0
  0
LTYPE
  5
41
100
AcDbSymbolTableRecord
100
AcDbLinetypeTableRecord
  2
BORDER2
 70
0
  3
Border (.5x) __.__.__.__.__.__.__.__.__.__.__.
 72
65
 73
6
 40
22.2250000000000014
 49
6.3499999999999996
 74
0
 49
-3.1749999999999998
 74
0
 49
6.3499999999999996
 74
0
 49
-3.1749999999999998
 74
0
 49
0.0
 74
0
 49
-3.1749999999999998
 74
0
  0
LTYPE
  5
42
100
AcDbSymbolTableRecord
100
AcDbLinetypeTableRecord
  2
BORDERX2
 70
0
  3
Border (2x) ____  ____  .  ____  ____  .  ___
 72
65
 73
6
 40
88.9000000000000057
 49
25.3999999999999986
 74
0
 49
-12.6999999999999993
 74
0
 49
25.3999999999999986
 74
0
 49
-12.6999999999999993
 74
0
 49
0.0
 74
0
 49
-12.6999999999999993
 74
0
  0
ENDTAB
  0
TABLE
  2
LAYER
  5
2
100
AcDbSymbolTable
 70
2
  0
LAYER
  5
10
100
AcDbSymbolTableRecord
100
AcDbLayerTableRecord
  2
0
 70
0
 62
7
  6
CONTINUOUS
370
-3
390
F
  0
LAYER
  5
43
100
AcDbSymbolTableRecord
100
AcDbLayerTableRecord
  2
Taschen
 70
0
 62
2
  6
CONTINUOUS
370
0
390
F
  0
ENDTAB
  0
TABLE
  2
STYLE
  5
3
100
AcDbSymbolTable
 70
1
  0
STYLE
  5
11
100
AcDbSymbolTableRecord
100
AcDbTextStyleTableRecord
  2
Standard
 70
0
 40
0.0
 41
0.75
 50
0.0
 71
0
 42
2.5
  3
txt
  4

  0
ENDTAB
  0
TABLE
  2
VIEW
  5
6
100
AcDbSymbolTable
 70
0
  0
ENDTAB
  0
TABLE
  2
UCS
  5
7
100
AcDbSymbolTable
 70
0
  0
ENDTAB
  0
TABLE
  2
APPID
  5
9
100
AcDbSymbolTable
 70
1
  0
APPID
  5
12
100
AcDbSymbolTableRecord
100
AcDbRegAppTableRecord
  2
ACAD
 70
0
  0
ENDTAB
  0
TABLE
  2
DIMSTYLE
  5
A
100
AcDbSymbolTable
 70
1
100
AcDbDimStyleTable
 71
0
  0
DIMSTYLE
105
27
100
AcDbSymbolTableRecord
100
AcDbDimStyleTableRecord
  2
Standard
 41
2.5
 42
0.625
 43
3.75
 44
1.25
 70
0
 73
0
 74
0
 77
1
 78
8
140
2.5
141
2.5
143
0.03937007874016
147
0.625
171
3
172
1
271
2
272
2
274
3
278
44
283
0
284
8
340
11
  0
ENDTAB
  0
TABLE
  2
BLOCK_RECORD
  5
1
100
AcDbSymbolTable
 70
1
  0
BLOCK_RECORD
  5
1F
100
AcDbSymbolTableRecord
100
AcDbBlockTableRecord
  2
*Model_Space
340
22
  0
BLOCK_RECORD
  5
1B
100
AcDbSymbolTableRecord
100
AcDbBlockTableRecord
  2
*Paper_Space
340
1E
  0
BLOCK_RECORD
  5
23
100
AcDbSymbolTableRecord
100
AcDbBlockTableRecord
  2
*Paper_Space0
340
26
  0
ENDTAB
  0
ENDSEC
  0
SECTION
  2
BLOCKS
  0
BLOCK
  5
20
100
AcDbEntity
  8
0
100
AcDbBlockBegin
  2
*Model_Space
 70
0
 10
0.0
 20
0.0
 30
0.0
  3
*Model_Space
  1

  0
ENDBLK
  5
21
100
AcDbEntity
  8
0
100
AcDbBlockEnd
  0
BLOCK
  5
1C
100
AcDbEntity
 67
1
  8
0
100
AcDbBlockBegin
  2
*Paper_Space
 70
0
 10
0.0
 20
0.0
 30
0.0
  3
*Paper_Space
  1

  0
ENDBLK
  5
1D
100
AcDbEntity
 67
1
  8
0
100
AcDbBlockEnd
  0
BLOCK
  5
24
100
AcDbEntity
  8
0
100
AcDbBlockBegin
  2
*Paper_Space0
 70
0
 10
0.0
 20
0.0
 30
0.0
  3
*Paper_Space0
  1

  0
ENDBLK
  5
25
100
AcDbEntity
  8
0
100
AcDbBlockEnd
  0
ENDSEC
  0
SECTION
  2
ENTITIES
  0
LWPOLYLINE
  5
44
  8
0
 62
256
370
-1
  6
ByLayer
100
AcDbEntity
100
AcDbPolyline
 90
65
 70
0
 10
26.0725000000000016
 20
23.3282220000000002
 10
26.0712110000000017
 20
23.3537409999999994
 10
26.0674290000000006
 20
23.3785230000000013
 10
26.0612780000000015
 20
23.4024420000000006
 10
26.0528849999999998
 20
23.4253740000000015
 10
26.0423749999999998
 20
23.4471920000000011
 10
26.0298729999999985
 20
23.467770999999999
 10
26.015504
 20
23.4869850000000007
 10
25.9993949999999998
 20
23.5047099999999993
 10
25.9816700000000012
 20
23.5208189999999995
 10
25.9624559999999995
 20
23.5351880000000016
 10
25.9418770000000016
 20
23.5476899999999993
 10
25.9200589999999984
 20
23.5581999999999994
 10
25.8971270000000011
 20
23.5665939999999985
 10
25.8732080000000018
 20
23.5727440000000001
 10
25.8484259999999999
 20
23.5765260000000012
 10
25.8229070000000007
 20
23.5778150000000011
 10
25.7973849999999985
 20
23.5765260000000012
 10
25.7726010000000016
 20
23.5727440000000001
 10
25.7486810000000013
 20
23.5665939999999985
 10
25.7257490000000004
 20
23.5581999999999994
 10
25.7039299999999997
 20
23.5476899999999993
 10
25.6833509999999983
 20
23.5351880000000016
 10
25.6641370000000002
 20
23.5208189999999995
 10
25.646412999999999
 20
23.5047099999999993
 10
25.6303049999999999
 20
23.4869850000000007
 10
25.6159369999999988
 20
23.467770999999999
 10
25.6034359999999985
 20
23.4471920000000011
 10
25.5929259999999985
 20
23.4253740000000015
 10
25.5845340000000014
 20
23.4024420000000006
 10
25.5783839999999998
 20
23.3785230000000013
 10
25.5746019999999987
 20
23.3537409999999994
 10
25.5733129999999989
 20
23.3282220000000002
 10
25.5746019999999987
 20
23.3027030000000011
 10
25.5783839999999998
 20
23.2779209999999992
 10
25.5845340000000014
 20
23.2540009999999988
 10
25.5929259999999985
 20
23.231069999999999
 10
25.6034359999999985
 20
23.2092519999999993
 10
25.6159369999999988
 20
23.1886730000000014
 10
25.6303049999999999
 20
23.1694579999999988
 10
25.646412999999999
 20
23.1517330000000001
 10
25.6641370000000002
 20
23.135624
 10
25.6833509999999983
 20
23.1212559999999989
 10
25.7039299999999997
 20
23.1087530000000001
 10
25.7257490000000004
 20
23.0982430000000001
 10
25.7486810000000013
 20
23.0898499999999984
 10
25.7726010000000016
 20
23.0836989999999993
 10
25.7973849999999985
 20
23.0799169999999982
 10
25.8229070000000007
 20
23.0786289999999994
 10
25.8484259999999999
 20
23.0799169999999982
 10
25.8732080000000018
 20
23.0836989999999993
 10
25.8971270000000011
 20
23.0898499999999984
 10
25.9200589999999984
 20
23.0982430000000001
 10
25.9418770000000016
 20
23.1087530000000001
 10
25.9624559999999995
 20
23.1212559999999989
 10
25.9816700000000012
 20
23.135624
 10
25.9993949999999998
 20
23.1517330000000001
 10
26.015504
 20
23.1694579999999988
 10
26.0298729999999985
 20
23.1886730000000014
 10
26.0423749999999998
 20
23.2092519999999993
 10
26.0528849999999998
 20
23.231069999999999
 10
26.0612780000000015
 20
23.2540009999999988
 10
26.0674290000000006
 20
23.2779209999999992
 10
26.0712110000000017
 20
23.3027030000000011
 10
26.0725000000000016
 20
23.3282220000000002
  0
LWPOLYLINE
  5
45
  8
0
 62
256
370
-1
  6
ByLayer
100
AcDbEntity
100
AcDbPolyline
 90
65
 70
0
 10
22.3623259999999995
 20
24.6718100000000007
 10
22.3610380000000006
 20
24.6973289999999999
 10
22.3572559999999996
 20
24.7221110000000017
 10
22.3511050000000004
 20
24.7460309999999986
 10
22.3427129999999998
 20
24.7689619999999984
 10
22.3322029999999998
 20
24.7907800000000016
 10
22.3197009999999985
 20
24.8113589999999995
 10
22.305333000000001
 20
24.8305739999999986
 10
22.2892240000000008
 20
24.8482979999999998
 10
22.2714989999999986
 20
24.864408000000001
 10
22.2522850000000005
 20
24.8787759999999984
 10
22.2317059999999991
 20
24.8912779999999998
 10
22.2098879999999994
 20
24.9017890000000008
 10
22.1869559999999986
 20
24.9101819999999989
 10
22.1630360000000017
 20
24.9163320000000006
 10
22.1382529999999988
 20
24.9201149999999991
 10
22.1127329999999986
 20
24.9214030000000015
 10
22.0872139999999995
 20
24.9201149999999991
 10
22.0624320000000012
 20
24.9163320000000006
 10
22.0385120000000008
 20
24.9101819999999989
 10
22.015581000000001
 20
24.9017890000000008
 10
21.9937630000000013
 20
24.8912779999999998
 10
21.9731839999999998
 20
24.8787759999999984
 10
21.9539690000000007
 20
24.864408000000001
 10
21.9362449999999995
 20
24.8482979999999998
 10
21.9201349999999984
 20
24.8305739999999986
 10
21.9057670000000009
 20
24.8113589999999995
 10
21.8932649999999995
 20
24.7907800000000016
 10
21.8827539999999985
 20
24.7689619999999984
 10
21.8743610000000004
 20
24.7460309999999986
 10
21.8682109999999987
 20
24.7221110000000017
 10
21.8644280000000002
 20
24.6973289999999999
 10
21.8631400000000014
 20
24.6718100000000007
 10
21.8644280000000002
 20
24.6462910000000015
 10
21.8682109999999987
 20
24.6215089999999996
 10
21.8743610000000004
 20
24.5975889999999993
 10
21.8827539999999985
 20
24.5746579999999994
 10
21.8932649999999995
 20
24.5528399999999998
 10
21.9057670000000009
 20
24.5322609999999983
 10
21.9201349999999984
 20
24.5130459999999992
 10
21.9362449999999995
 20
24.4953220000000016
 10
21.9539690000000007
 20
24.4792120000000004
 10
21.9731839999999998
 20
24.4648439999999994
 10
21.9937630000000013
 20
24.4523420000000016
 10
22.015581000000001
 20
24.4418310000000005
 10
22.0385120000000008
 20
24.4334379999999989
 10
22.0624320000000012
 20
24.4272880000000008
 10
22.0872139999999995
 20
24.4235049999999987
 10
22.1127329999999986
 20
24.4222169999999998
 10
22.1382529999999988
 20
24.4235049999999987
 10
22.1630360000000017
 20
24.4272880000000008
 10
22.1869559999999986
 20
24.4334379999999989
 10
22.2098879999999994
 20
24.4418310000000005
 10
22.2317059999999991
 20
24.4523420000000016
 10
22.2522850000000005
 20
24.4648439999999994
 10
22.2714989999999986
 20
24.4792120000000004
 10
22.2892240000000008
 20
24.4953220000000016
 10
22.305333000000001
 20
24.5130459999999992
 10
22.3197009999999985
 20
24.5322609999999983
 10
22.3322029999999998
 20
24.5528399999999998
 10
22.3427129999999998
 20
24.5746579999999994
 10
22.3511050000000004
 20
24.5975889999999993
 10
22.3572559999999996
 20
24.6215089999999996
 10
22.3610380000000006
 20
24.6462910000000015
 10
22.3623259999999995
 20
24.6718100000000007
  0
LWPOLYLINE
  5
46
  8
0
 62
256
370
-1
  6
ByLayer
100
AcDbEntity
100
AcDbPolyline
 90
62
 70
0
 10
26.1385259999999988
 20
25.2254669999999983
 10
26.3250630000000001
 20
25.2612200000000016
 10
26.5148830000000011
 20
25.2682530000000014
 10
26.7035499999999999
 20
25.2463949999999997
 10
26.8867229999999999
 20
25.1961559999999984
 10
26.8538320000000006
 20
25.3334919999999997
 10
26.731694000000001
 20
25.4499749999999985
 10
26.591664999999999
 20
25.5442199999999993
 10
26.4377749999999985
 20
25.6135219999999997
 10
26.2744040000000005
 20
25.6559139999999992
 10
26.1062179999999984
 20
25.6701830000000015
 10
25.1078450000000011
 20
25.6701830000000015
 10
25.0297879999999999
 20
25.6221549999999993
 10
24.9442710000000005
 20
25.5892100000000013
 10
24.8541689999999988
 20
25.5724519999999984
 10
24.7625220000000006
 20
25.5724519999999984
 10
24.6724069999999998
 20
25.5892100000000013
 10
24.5868900000000004
 20
25.6221549999999993
 10
24.5088320000000017
 20
25.6701830000000015
 10
24.4089920000000014
 20
25.6701830000000015
 10
24.3309350000000002
 20
25.6221549999999993
 10
24.2454040000000006
 20
25.5892100000000013
 10
24.155303
 20
25.5724519999999984
 10
24.0636550000000007
 20
25.5724519999999984
 10
23.9735469999999999
 20
25.5892100000000013
 10
23.8880230000000005
 20
25.6221549999999993
 10
23.8099659999999993
 20
25.6701830000000015
 10
23.710132999999999
 20
25.6701830000000015
 10
23.6320690000000013
 20
25.6221549999999993
 10
23.5465510000000009
 20
25.5892100000000013
 10
23.4564430000000002
 20
25.5724519999999984
 10
23.3647950000000009
 20
25.5724519999999984
 10
23.2746870000000001
 20
25.5892100000000013
 10
23.1891630000000006
 20
25.6221549999999993
 10
23.1111059999999995
 20
25.6701830000000015
 10
22.1127329999999986
 20
25.6701830000000015
 10
21.9179630000000003
 20
25.6509980000000013
 10
21.7306729999999995
 20
25.5941870000000016
 10
21.5580649999999991
 20
25.5019290000000005
 10
21.4067800000000013
 20
25.3777700000000017
 10
21.2826200000000014
 20
25.2264769999999992
 10
21.1903620000000004
 20
25.0538699999999999
 10
21.1335450000000016
 20
24.866579999999999
 10
21.1143670000000014
 20
24.6718100000000007
 10
21.1335450000000016
 20
24.4770399999999988
 10
21.1903620000000004
 20
24.2897500000000015
 10
21.2826200000000014
 20
24.1171490000000013
 10
21.4067800000000013
 20
23.9658499999999997
 10
21.5580649999999991
 20
23.8416910000000009
 10
21.7306729999999995
 20
23.7494319999999988
 10
21.9179630000000003
 20
23.692615
 10
22.1127329999999986
 20
23.6734369999999998
 10
22.3075100000000006
 20
23.692615
 10
22.4947930000000014
 20
23.7494319999999988
 10
22.6674000000000007
 20
23.8416910000000009
 10
22.8186859999999996
 20
23.9658499999999997
 10
22.9428519999999985
 20
24.1171490000000013
 10
23.0351099999999995
 20
24.2897500000000015
 10
23.0919209999999993
 20
24.4770399999999988
 10
23.1111059999999995
 20
24.6718100000000007
 10
26.1062179999999984
 20
25.1049289999999985
 10
26.1385259999999988
 20
25.2254669999999983
  0
LWPOLYLINE
  5
47
  8
0
 62
256
370
-1
  6
ByLayer
100
AcDbEntity
100
AcDbPolyline
 90
56
 70
0
 10
21.1251159999999985
 20
22.3298489999999994
 10
21.1133020000000009
 20
22.4705690000000011
 10
21.1927899999999987
 20
22.6194670000000002
 10
21.2962109999999996
 20
22.7528499999999987
 10
21.4206350000000008
 20
22.8669040000000017
 10
21.5624870000000008
 20
22.958362000000001
 10
21.7177199999999999
 20
23.0246190000000013
 10
22.6657860000000007
 20
23.3375400000000006
 10
22.7549659999999996
 20
23.316393999999999
 10
22.8465050000000005
 20
23.3119189999999996
 10
22.9373180000000012
 20
23.3242480000000008
 10
23.0243479999999998
 20
23.3529750000000007
 10
23.1046629999999986
 20
23.3971240000000016
 10
23.1755519999999997
 20
23.4552160000000001
 10
23.2346210000000006
 20
23.5252839999999992
 10
23.3294290000000011
 20
23.5565749999999987
 10
23.418607999999999
 20
23.5354430000000008
 10
23.5101469999999999
 20
23.5309540000000013
 10
23.6009680000000017
 20
23.5432829999999989
 10
23.6879969999999993
 20
23.5720099999999988
 10
23.7683129999999991
 20
23.6161589999999997
 10
23.8391950000000001
 20
23.6742510000000017
 10
23.8982700000000001
 20
23.744333000000001
 10
23.9930780000000006
 20
23.7756229999999995
 10
24.0822509999999994
 20
23.7544779999999989
 10
24.1737900000000003
 20
23.7500019999999985
 10
24.2646100000000011
 20
23.7623309999999996
 10
24.3516459999999988
 20
23.7910579999999996
 10
24.4319549999999985
 20
23.8352070000000005
 10
24.5028509999999997
 20
23.893298999999999
 10
24.5619189999999996
 20
23.9633679999999991
 10
25.5099860000000014
 20
24.276288000000001
 10
25.700958
 20
24.319115
 10
25.896609999999999
 20
24.3238689999999984
 10
26.0894399999999997
 20
24.2903529999999996
 10
26.2720170000000017
 20
24.2198710000000013
 10
26.437341
 20
24.1151149999999994
 10
26.5790509999999998
 20
23.9801320000000011
 10
26.6917089999999995
 20
23.8200840000000014
 10
26.7709730000000015
 20
23.6411289999999994
 10
26.8137930000000004
 20
23.45017
 10
26.8185530000000014
 20
23.2545050000000018
 10
26.7850380000000001
 20
23.0616880000000002
 10
26.7145490000000017
 20
22.879097999999999
 10
26.6097989999999989
 20
22.7137740000000008
 10
26.4748030000000014
 20
22.572063
 10
26.3147689999999983
 20
22.4594200000000015
 10
26.1358139999999999
 20
22.3801549999999985
 10
25.9448410000000003
 20
22.3373220000000003
 10
25.7491899999999987
 20
22.3325749999999985
 10
25.5563590000000005
 20
22.3660899999999998
 10
25.3737819999999985
 20
22.4365650000000016
 10
25.2084580000000003
 20
22.5413290000000011
 10
25.0667480000000005
 20
22.6763119999999994
 10
24.9540909999999982
 20
22.8363590000000016
 10
24.8748269999999998
 20
23.0153010000000009
  0
LWPOLYLINE
  5
48
  8
0
 62
256
370
-1
  6
ByLayer
100
AcDbEntity
100
AcDbPolyline
 90
7
 70
0
 10
24.8748269999999998
 20
23.0153010000000009
 10
21.8948849999999986
 20
22.4878479999999996
 10
21.8264299999999984
 20
22.5921920000000007
 10
21.6380830000000017
 20
22.5676689999999986
 10
21.4556350000000009
 20
22.5148529999999987
 10
21.2833119999999987
 20
22.4349649999999983
 10
21.1251159999999985
 20
22.3298489999999994
  0
LWPOLYLINE
  5
49
  8
0
 62
256
370
-1
  6
ByLayer
100
AcDbEntity
100
AcDbPolyline
 90
2
 70
0
 10
21.7177199999999999
 20
23.0246190000000013
 10
22.6657860000000007
 20
23.3375400000000006
  0
LWPOLYLINE
  5
4A
  8
0
 62
256
370
-1
  6
ByLayer
100
AcDbEntity
100
AcDbPolyline
 90
65
 70
0
 10
22.1678819999999988
 20
20.9079189999999997
 10
22.1665929999999989
 20
20.9334379999999989
 10
22.1628110000000014
 20
20.9582200000000007
 10
22.1566609999999997
 20
20.9821390000000001
 10
22.1482680000000016
 20
21.0050710000000009
 10
22.1377580000000016
 20
21.0268890000000006
 10
22.1252560000000003
 20
21.0474679999999985
 10
22.1108879999999992
 20
21.0666820000000001
 10
22.0947789999999991
 20
21.0844069999999988
 10
22.0770550000000014
 20
21.1005159999999989
 10
22.0578399999999988
 20
21.114885000000001
 10
22.0372610000000009
 20
21.1273869999999988
 10
22.0154430000000012
 20
21.1378969999999988
 10
21.9925120000000014
 20
21.1462900000000005
 10
21.968592000000001
 20
21.1524409999999996
 10
21.9438090000000017
 20
21.1562230000000007
 10
21.9182880000000004
 20
21.1575120000000005
 10
21.8927690000000013
 20
21.1562230000000007
 10
21.8679869999999994
 20
21.1524409999999996
 10
21.844068
 20
21.1462900000000005
 10
21.8211359999999992
 20
21.1378969999999988
 10
21.7993179999999995
 20
21.1273869999999988
 10
21.7787390000000016
 20
21.114885000000001
 10
21.759525
 20
21.1005159999999989
 10
21.7418000000000013
 20
21.0844069999999988
 10
21.7256910000000012
 20
21.0666820000000001
 10
21.7113219999999991
 20
21.0474679999999985
 10
21.6988200000000013
 20
21.0268890000000006
 10
21.6883100000000013
 20
21.0050710000000009
 10
21.6799169999999997
 20
20.9821390000000001
 10
21.6737660000000005
 20
20.9582200000000007
 10
21.6699839999999995
 20
20.9334379999999989
 10
21.6686949999999996
 20
20.9079189999999997
 10
21.6699839999999995
 20
20.8823989999999995
 10
21.6737660000000005
 20
20.8576170000000012
 10
21.6799169999999997
 20
20.8336979999999983
 10
21.6883100000000013
 20
20.810766000000001
 10
21.6988200000000013
 20
20.7889480000000013
 10
21.7113219999999991
 20
20.7683689999999999
 10
21.7256910000000012
 20
20.7491549999999982
 10
21.7418000000000013
 20
20.7314299999999996
 10
21.759525
 20
20.7153209999999994
 10
21.7787390000000016
 20
20.7009520000000009
 10
21.7993179999999995
 20
20.6884499999999996
 10
21.8211359999999992
 20
20.6779399999999995
 10
21.844068
 20
20.6695470000000014
 10
21.8679869999999994
 20
20.6633959999999988
 10
21.8927690000000013
 20
20.6596140000000013
 10
21.9182880000000004
 20
20.6583250000000014
 10
21.9438090000000017
 20
20.6596140000000013
 10
21.968592000000001
 20
20.6633959999999988
 10
21.9925120000000014
 20
20.6695470000000014
 10
22.0154430000000012
 20
20.6779399999999995
 10
22.0372610000000009
 20
20.6884499999999996
 10
22.0578399999999988
 20
20.7009520000000009
 10
22.0770550000000014
 20
20.7153209999999994
 10
22.0947789999999991
 20
20.7314299999999996
 10
22.1108879999999992
 20
20.7491549999999982
 10
22.1252560000000003
 20
20.7683689999999999
 10
22.1377580000000016
 20
20.7889480000000013
 10
22.1482680000000016
 20
20.810766000000001
 10
22.1566609999999997
 20
20.8336979999999983
 10
22.1628110000000014
 20
20.8576170000000012
 10
22.1665929999999989
 20
20.8823989999999995
 10
22.1678819999999988
 20
20.9079189999999997
  0
LWPOLYLINE
  5
4B
  8
0
 62
256
370
-1
  6
ByLayer
100
AcDbEntity
100
AcDbPolyline
 90
62
 70
0
 10
25.4265709999999991
 20
21.4476869999999984
 10
25.5897660000000009
 20
21.4834400000000016
 10
25.7558490000000013
 20
21.4904660000000014
 10
25.9209159999999983
 20
21.4686149999999998
 10
26.0811670000000007
 20
21.4183759999999985
 10
26.052385000000001
 20
21.5557049999999997
 10
25.9455330000000011
 20
21.6721879999999985
 10
25.8230150000000016
 20
21.7664399999999993
 10
25.6883850000000002
 20
21.8357349999999997
 10
25.5454410000000003
 20
21.8781339999999993
 10
25.3983050000000006
 20
21.8924030000000016
 10
24.5248099999999987
 20
21.8924030000000016
 10
24.4565319999999993
 20
21.8443749999999994
 10
24.3817030000000017
 20
21.8114290000000004
 10
24.3028720000000007
 20
21.7946649999999984
 10
24.2226989999999986
 20
21.7946649999999984
 10
24.1438549999999985
 20
21.8114290000000004
 10
24.0690260000000009
 20
21.8443749999999994
 10
24.0007349999999988
 20
21.8924030000000016
 10
23.9133870000000002
 20
21.8924030000000016
 10
23.8450950000000006
 20
21.8443749999999994
 10
23.7702659999999995
 20
21.8114290000000004
 10
23.6914349999999985
 20
21.7946649999999984
 10
23.6112490000000008
 20
21.7946649999999984
 10
23.5324050000000007
 20
21.8114290000000004
 10
23.4575889999999987
 20
21.8443749999999994
 10
23.3892980000000001
 20
21.8924030000000016
 10
23.3019560000000006
 20
21.8924030000000016
 10
23.2336509999999983
 20
21.8443749999999994
 10
23.1588290000000008
 20
21.8114290000000004
 10
23.0799979999999998
 20
21.7946649999999984
 10
22.9998119999999986
 20
21.7946649999999984
 10
22.9209810000000012
 20
21.8114290000000004
 10
22.846152
 20
21.8443749999999994
 10
22.7778610000000015
 20
21.8924030000000016
 10
21.9043789999999987
 20
21.8924030000000016
 10
21.7339689999999983
 20
21.8732240000000004
 10
21.5701099999999997
 20
21.8164070000000017
 10
21.4190949999999987
 20
21.7241490000000006
 10
21.2867369999999987
 20
21.5999899999999982
 10
21.1781080000000017
 20
21.4486899999999991
 10
21.0973919999999993
 20
21.2760829999999999
 10
21.0476819999999982
 20
21.0887999999999991
 10
21.0308980000000005
 20
20.8940300000000008
 10
21.0476819999999982
 20
20.6992599999999989
 10
21.0973919999999993
 20
20.5119760000000007
 10
21.1781080000000017
 20
20.3393690000000014
 10
21.2867369999999987
 20
20.1880689999999987
 10
21.4190949999999987
 20
20.0639099999999999
 10
21.5701099999999997
 20
19.9716519999999988
 10
21.7339689999999983
 20
19.9148350000000001
 10
21.9043789999999987
 20
19.8956569999999999
 10
22.0747889999999991
 20
19.9148350000000001
 10
22.2386419999999987
 20
19.9716519999999988
 10
22.3896559999999987
 20
20.0639099999999999
 10
22.5220209999999987
 20
20.1880689999999987
 10
22.6306569999999994
 20
20.3393690000000014
 10
22.7113729999999983
 20
20.5119760000000007
 10
22.7610759999999992
 20
20.6992599999999989
 10
22.7778610000000015
 20
20.8940300000000008
 10
25.3983050000000006
 20
21.3271489999999986
 10
25.4265709999999991
 20
21.4476869999999984
  0
LWPOLYLINE
  5
4C
  8
0
 62
256
370
-1
  6
ByLayer
100
AcDbEntity
100
AcDbPolyline
 90
65
 70
0
 10
25.2838570000000011
 20
19.5314529999999991
 10
25.2764319999999998
 20
19.5559009999999986
 10
25.2716020000000015
 20
19.5805010000000017
 10
25.2692930000000011
 20
19.6050900000000006
 10
25.2694280000000013
 20
19.6295080000000013
 10
25.2719319999999996
 20
19.6535949999999993
 10
25.2767300000000006
 20
19.6771910000000005
 10
25.2837460000000007
 20
19.7001349999999995
 10
25.2929040000000001
 20
19.7222660000000012
 10
25.3041289999999996
 20
19.743424000000001
 10
25.3173460000000006
 20
19.7634480000000003
 10
25.3324779999999983
 20
19.7821789999999993
 10
25.3494509999999984
 20
19.7994549999999983
 10
25.368189000000001
 20
19.8151149999999987
 10
25.3886150000000015
 20
19.8290010000000017
 10
25.4106559999999995
 20
19.8409499999999994
 10
25.434234
 20
19.8508020000000016
 10
25.4586809999999986
 20
19.8582280000000004
 10
25.4832779999999985
 20
19.8630570000000013
 10
25.5078659999999999
 20
19.8653660000000016
 10
25.5322840000000006
 20
19.8652300000000004
 10
25.5563700000000011
 20
19.8627250000000011
 10
25.5799659999999989
 20
19.8579259999999991
 10
25.6029100000000014
 20
19.8509099999999989
 10
25.6250409999999995
 20
19.8417509999999986
 10
25.6461989999999993
 20
19.8305250000000015
 10
25.6662229999999987
 20
19.8173080000000006
 10
25.6849530000000001
 20
19.8021749999999983
 10
25.7022289999999991
 20
19.7852029999999992
 10
25.7178889999999996
 20
19.7664660000000012
 10
25.7317730000000005
 20
19.7460410000000017
 10
25.7437199999999997
 20
19.7240019999999987
 10
25.7535710000000009
 20
19.7004249999999992
 10
25.7609980000000007
 20
19.6759759999999986
 10
25.7658290000000001
 20
19.6513770000000001
 10
25.7681390000000015
 20
19.6267870000000002
 10
25.7680040000000012
 20
19.6023679999999985
 10
25.7654989999999984
 20
19.5782799999999995
 10
25.760701000000001
 20
19.5546840000000017
 10
25.7536839999999998
 20
19.5317390000000017
 10
25.7445260000000005
 20
19.509606999999999
 10
25.7332999999999998
 20
19.4884489999999992
 10
25.7200829999999989
 20
19.4684239999999988
 10
25.7049510000000012
 20
19.4496929999999999
 10
25.6879789999999986
 20
19.4324179999999984
 10
25.6692430000000016
 20
19.4167580000000015
 10
25.6488179999999986
 20
19.4028740000000006
 10
25.6267810000000011
 20
19.3909260000000003
 10
25.6032070000000012
 20
19.3810760000000002
 10
25.5787559999999985
 20
19.3736500000000014
 10
25.5541550000000015
 20
19.3688210000000005
 10
25.5295640000000006
 20
19.3665120000000002
 10
25.5051440000000014
 20
19.3666480000000014
 10
25.4810559999999988
 20
19.3691530000000007
 10
25.4574590000000001
 20
19.3739519999999992
 10
25.4345150000000011
 20
19.3809679999999993
 10
25.4123839999999994
 20
19.3901269999999997
 10
25.3912259999999996
 20
19.4013530000000003
 10
25.3712020000000003
 20
19.4145700000000012
 10
25.3524719999999988
 20
19.4297029999999999
 10
25.3351979999999983
 20
19.446674999999999
 10
25.3195380000000014
 20
19.4654120000000006
 10
25.3056550000000016
 20
19.4858380000000011
 10
25.2937079999999987
 20
19.5078759999999996
 10
25.2838570000000011
 20
19.5314529999999991
  0
LWPOLYLINE
  5
4D
  8
0
 62
256
370
-1
  6
ByLayer
100
AcDbEntity
100
AcDbPolyline
 90
62
 70
0
 10
22.0348250000000014
 20
18.9362780000000015
 10
21.8691619999999993
 20
18.9146849999999986
 10
21.7105040000000002
 20
18.8650699999999993
 10
21.562581999999999
 20
18.7886409999999984
 10
21.4287929999999989
 20
18.6871189999999991
 10
21.4093899999999984
 20
18.8260760000000005
 10
21.4705070000000013
 20
18.9718550000000015
 10
21.5538880000000006
 20
19.1020229999999991
 10
21.6571120000000015
 20
19.2127949999999998
 10
21.7772630000000014
 20
19.3010790000000014
 10
21.9108899999999984
 20
19.3643110000000007
 10
22.7328170000000007
 20
19.6599930000000001
 10
22.8133219999999994
 20
19.637912
 10
22.8948849999999986
 20
19.6322420000000015
 10
22.9747330000000005
 20
19.643146999999999
 10
23.0501730000000009
 20
19.6702869999999983
 10
23.1186879999999988
 20
19.7127540000000003
 10
23.1779529999999987
 20
19.7690829999999984
 10
23.2259540000000015
 20
19.8373880000000007
 10
23.3081409999999991
 20
19.8669559999999983
 10
23.3886600000000016
 20
19.8448889999999984
 10
23.4702240000000018
 20
19.8392060000000008
 10
23.5500779999999992
 20
19.850124000000001
 10
23.6255309999999987
 20
19.8772650000000013
 10
23.6940460000000002
 20
19.9197319999999998
 10
23.7532910000000008
 20
19.9760600000000004
 10
23.8012920000000001
 20
20.0443649999999991
 10
23.8834729999999986
 20
20.0739200000000011
 10
23.9640050000000002
 20
20.0518520000000002
 10
24.0455620000000003
 20
20.0461829999999992
 10
24.1254230000000014
 20
20.0571009999999994
 10
24.2008620000000008
 20
20.0842419999999997
 10
24.2693709999999996
 20
20.1266950000000016
 10
24.3286289999999994
 20
20.1830239999999996
 10
24.3766299999999987
 20
20.2513429999999985
 10
25.198557000000001
 20
20.5470110000000012
 10
25.3653869999999984
 20
20.5866560000000014
 10
25.5388079999999995
 20
20.5886500000000012
 10
25.7121339999999989
 20
20.5529650000000004
 10
25.8787060000000011
 20
20.4809300000000007
 10
26.0321490000000004
 20
20.3753390000000003
 10
26.1665209999999995
 20
20.2402480000000011
 10
26.2766960000000012
 20
20.0808509999999991
 10
26.3584159999999983
 20
19.9032519999999984
 10
26.4085600000000014
 20
19.714300999999999
 10
26.4251749999999994
 20
19.5212399999999988
 10
26.4076510000000013
 20
19.3315009999999994
 10
26.3566390000000013
 20
19.1523700000000012
 10
26.2741329999999991
 20
18.9907350000000008
 10
26.1632660000000001
 20
18.8528090000000006
 10
26.0283100000000012
 20
18.7438679999999991
 10
25.874447
 20
18.6681440000000016
 10
25.7076180000000001
 20
18.6285120000000006
 10
25.5341969999999989
 20
18.6265040000000006
 10
25.3608569999999993
 20
18.6621890000000015
 10
25.1942979999999999
 20
18.7342249999999986
 10
25.0408560000000016
 20
18.8398150000000015
 10
24.9064699999999988
 20
18.9749070000000017
 10
24.7963079999999998
 20
19.1343169999999994
 10
24.7145890000000001
 20
19.3119019999999999
 10
22.1022280000000002
 20
18.8324229999999986
 10
22.0348250000000014
 20
18.9362780000000015
  0
LWPOLYLINE
  5
4E
  8
0
 62
256
370
-1
  6
ByLayer
100
AcDbEntity
100
AcDbPolyline
 90
65
 70
0
 10
22.7095489999999991
 20
28.6162570000000009
 10
22.7082599999999992
 20
28.6417760000000001
 10
22.7044780000000017
 20
28.6665579999999984
 10
22.6983280000000001
 20
28.6904779999999988
 10
22.6899349999999984
 20
28.7134089999999986
 10
22.6794249999999984
 20
28.7352269999999983
 10
22.6669230000000006
 20
28.7558059999999998
 10
22.6525549999999996
 20
28.7750209999999988
 10
22.6364459999999994
 20
28.792745
 10
22.6187220000000018
 20
28.8088550000000012
 10
22.5995069999999991
 20
28.8232229999999987
 10
22.5789289999999987
 20
28.8357250000000001
 10
22.5571100000000015
 20
28.8462360000000011
 10
22.5341790000000017
 20
28.8546289999999992
 10
22.5102590000000014
 20
28.8607790000000008
 10
22.4854759999999985
 20
28.8645619999999994
 10
22.4599550000000008
 20
28.8658499999999982
 10
22.4344360000000016
 20
28.8645619999999994
 10
22.4096539999999997
 20
28.8607790000000008
 10
22.3857350000000004
 20
28.8546289999999992
 10
22.3628029999999995
 20
28.8462360000000011
 10
22.3409849999999999
 20
28.8357250000000001
 10
22.3204059999999984
 20
28.8232229999999987
 10
22.3011920000000003
 20
28.8088550000000012
 10
22.2834670000000017
 20
28.792745
 10
22.2673580000000015
 20
28.7750209999999988
 10
22.2529889999999995
 20
28.7558059999999998
 10
22.2404870000000017
 20
28.7352269999999983
 10
22.2299770000000017
 20
28.7134089999999986
 10
22.221584
 20
28.6904779999999988
 10
22.2154330000000009
 20
28.6665579999999984
 10
22.2116509999999998
 20
28.6417760000000001
 10
22.2103619999999999
 20
28.6162570000000009
 10
22.2116509999999998
 20
28.5907380000000018
 10
22.2154330000000009
 20
28.5659559999999999
 10
22.221584
 20
28.5420359999999995
 10
22.2299770000000017
 20
28.5191049999999997
 10
22.2404870000000017
 20
28.497287
 10
22.2529889999999995
 20
28.4767079999999986
 10
22.2673580000000015
 20
28.4574929999999995
 10
22.2834670000000017
 20
28.4397689999999983
 10
22.3011920000000003
 20
28.4236590000000007
 10
22.3204059999999984
 20
28.4092909999999996
 10
22.3409849999999999
 20
28.3967889999999983
 10
22.3628029999999995
 20
28.3862780000000008
 10
22.3857350000000004
 20
28.3778849999999991
 10
22.4096539999999997
 20
28.371735000000001
 10
22.4344360000000016
 20
28.3679519999999989
 10
22.4599550000000008
 20
28.3666640000000001
 10
22.4854759999999985
 20
28.3679519999999989
 10
22.5102590000000014
 20
28.371735000000001
 10
22.5341790000000017
 20
28.3778849999999991
 10
22.5571100000000015
 20
28.3862780000000008
 10
22.5789289999999987
 20
28.3967889999999983
 10
22.5995069999999991
 20
28.4092909999999996
 10
22.6187220000000018
 20
28.4236590000000007
 10
22.6364459999999994
 20
28.4397689999999983
 10
22.6525549999999996
 20
28.4574929999999995
 10
22.6669230000000006
 20
28.4767079999999986
 10
22.6794249999999984
 20
28.497287
 10
22.6899349999999984
 20
28.5191049999999997
 10
22.6983280000000001
 20
28.5420359999999995
 10
22.7044780000000017
 20
28.5659559999999999
 10
22.7082599999999992
 20
28.5907380000000018
 10
22.7095489999999991
 20
28.6162570000000009
  0
LWPOLYLINE
  5
4F
  8
0
 62
256
370
-1
  6
ByLayer
100
AcDbEntity
100
AcDbPolyline
 90
62
 70
0
 10
27.3412180000000014
 20
29.1421360000000007
 10
27.5672519999999999
 20
29.1778890000000004
 10
27.7972600000000014
 20
29.1849220000000003
 10
28.0258700000000012
 20
29.1630639999999985
 10
28.2478349999999985
 20
29.1128259999999983
 10
28.2079859999999982
 20
29.2501619999999996
 10
28.0599820000000015
 20
29.3666440000000009
 10
27.8903040000000004
 20
29.4608890000000017
 10
27.7038210000000014
 20
29.5301909999999985
 10
27.505863999999999
 20
29.5725839999999991
 10
27.3020740000000011
 20
29.5868520000000004
 10
26.0923020000000001
 20
29.5868520000000004
 10
25.9977109999999989
 20
29.5388240000000017
 10
25.894086999999999
 20
29.5058790000000002
 10
25.7849159999999991
 20
29.4891210000000008
 10
25.6738590000000002
 20
29.4891210000000008
 10
25.5646599999999999
 20
29.5058790000000002
 10
25.461036
 20
29.5388240000000017
 10
25.3664580000000015
 20
29.5868520000000004
 10
25.2454730000000005
 20
29.5868520000000004
 10
25.1508949999999984
 20
29.5388240000000017
 10
25.0472439999999992
 20
29.5058790000000002
 10
24.9380729999999993
 20
29.4891210000000008
 10
24.8270160000000004
 20
29.4891210000000008
 10
24.7178170000000001
 20
29.5058790000000002
 10
24.6141930000000002
 20
29.5388240000000017
 10
24.5196150000000017
 20
29.5868520000000004
 10
24.3986429999999999
 20
29.5868520000000004
 10
24.3040519999999987
 20
29.5388240000000017
 10
24.2004279999999987
 20
29.5058790000000002
 10
24.0912429999999986
 20
29.4891210000000008
 10
23.9801859999999998
 20
29.4891210000000008
 10
23.8709939999999996
 20
29.5058790000000002
 10
23.7673629999999996
 20
29.5388240000000017
 10
23.6727789999999985
 20
29.5868520000000004
 10
22.4630140000000011
 20
29.5868520000000004
 10
22.2270040000000009
 20
29.5676670000000001
 10
22.0000549999999997
 20
29.5108570000000014
 10
21.7909010000000016
 20
29.4185990000000004
 10
21.6075850000000003
 20
29.2944390000000006
 10
21.4571339999999999
 20
29.143146999999999
 10
21.3453440000000008
 20
28.9705389999999987
 10
21.2764969999999991
 20
28.7832490000000014
 10
21.2532560000000004
 20
28.5884789999999995
 10
21.2764969999999991
 20
28.3937090000000012
 10
21.3453440000000008
 20
28.2064190000000004
 10
21.4571339999999999
 20
28.0338180000000001
 10
21.6075850000000003
 20
27.8825189999999985
 10
21.7909010000000016
 20
27.7583599999999997
 10
22.0000549999999997
 20
27.6661019999999986
 10
22.2270040000000009
 20
27.6092849999999999
 10
22.4630140000000011
 20
27.5901059999999987
 10
22.6990300000000005
 20
27.6092849999999999
 10
22.925972999999999
 20
27.6661019999999986
 10
23.1351270000000007
 20
27.7583599999999997
 10
23.3184429999999985
 20
27.8825189999999985
 10
23.4689009999999989
 20
28.0338180000000001
 10
23.5806900000000006
 20
28.2064190000000004
 10
23.6495309999999996
 20
28.3937090000000012
 10
23.6727789999999985
 20
28.5884789999999995
 10
27.3020740000000011
 20
29.0215980000000009
 10
27.3412180000000014
 20
29.1421360000000007
  0
LWPOLYLINE
  5
50
  8
0
 62
256
370
-1
  6
ByLayer
100
AcDbEntity
100
AcDbPolyline
 90
65
 70
0
 10
26.8874150000000007
 20
27.1372590000000002
 10
26.882676
 20
27.1623659999999987
 10
26.8805329999999998
 20
27.1873429999999985
 10
26.8808940000000014
 20
27.2120369999999987
 10
26.8836669999999991
 20
27.2362980000000015
 10
26.8887590000000003
 20
27.2599739999999997
 10
26.8960779999999993
 20
27.2829130000000006
 10
26.9055320000000009
 20
27.3049639999999982
 10
26.9170270000000009
 20
27.3259760000000007
 10
26.9304720000000017
 20
27.345797000000001
 10
26.9457740000000001
 20
27.3642760000000003
 10
26.9628410000000009
 20
27.3812609999999985
 10
26.9815809999999985
 20
27.3966010000000004
 10
27.0018999999999991
 20
27.410145
 10
27.0237070000000017
 20
27.4217399999999998
 10
27.0469100000000005
 20
27.4312359999999984
 10
27.0714149999999982
 20
27.4384809999999995
 10
27.0965220000000002
 20
27.4432219999999987
 10
27.121497999999999
 20
27.4453659999999999
 10
27.1461910000000017
 20
27.4450059999999993
 10
27.1704520000000009
 20
27.4422330000000017
 10
27.1941279999999992
 20
27.4371410000000004
 10
27.2170670000000001
 20
27.4298220000000015
 10
27.2391189999999987
 20
27.4203690000000009
 10
27.2601310000000012
 20
27.4088729999999998
 10
27.279952999999999
 20
27.395427999999999
 10
27.2984329999999993
 20
27.3801260000000006
 10
27.3154189999999986
 20
27.3630589999999998
 10
27.3307600000000015
 20
27.3443199999999997
 10
27.3443040000000011
 20
27.3240020000000001
 10
27.3559009999999994
 20
27.3021959999999986
 10
27.365397999999999
 20
27.2789959999999994
 10
27.3726440000000011
 20
27.2544940000000011
 10
27.3773850000000003
 20
27.2293850000000006
 10
27.3795290000000016
 20
27.2044069999999998
 10
27.3791669999999989
 20
27.1797119999999985
 10
27.3763940000000012
 20
27.1554499999999983
 10
27.3713000000000015
 20
27.131772999999999
 10
27.3639800000000015
 20
27.1088330000000006
 10
27.3545240000000014
 20
27.0867809999999984
 10
27.3430269999999993
 20
27.0657679999999985
 10
27.32958
 20
27.0459460000000007
 10
27.3142770000000006
 20
27.0274670000000015
 10
27.2972089999999987
 20
27.0104819999999997
 10
27.2784690000000012
 20
26.9951420000000013
 10
27.2581500000000005
 20
26.9815989999999992
 10
27.236345
 20
26.9700039999999994
 10
27.2131450000000008
 20
26.9605089999999983
 10
27.188644
 20
26.9532649999999983
 10
27.1635349999999995
 20
26.948523999999999
 10
27.1385579999999997
 20
26.9463800000000013
 10
27.1138629999999985
 20
26.9467409999999994
 10
27.0896009999999983
 20
26.9495140000000006
 10
27.065925
 20
26.9546059999999983
 10
27.0429859999999991
 20
26.9619259999999983
 10
27.0209350000000015
 20
26.9713799999999999
 10
26.999922999999999
 20
26.982876000000001
 10
26.9801019999999987
 20
26.9963219999999993
 10
26.9616229999999995
 20
27.0116249999999987
 10
26.9446380000000012
 20
27.0286919999999995
 10
26.9292979999999993
 20
27.0474320000000006
 10
26.9157539999999997
 20
27.0677510000000012
 10
26.9041579999999989
 20
27.0895560000000017
 10
26.8946609999999993
 20
27.1127569999999984
 10
26.8874150000000007
 20
27.1372590000000002
  0
LWPOLYLINE
  5
51
  8
0
 62
256
370
-1
  6
ByLayer
100
AcDbEntity
100
AcDbPolyline
 90
62
 70
0
 10
22.2617739999999991
 20
26.5607140000000008
 10
22.0336649999999992
 20
26.5423830000000009
 10
21.808444999999999
 20
26.495201999999999
 10
21.5913569999999986
 20
26.4202650000000006
 10
21.387397
 20
26.319306000000001
 10
21.3938810000000004
 20
26.4621619999999993
 10
21.510390000000001
 20
26.6101449999999993
 10
21.6531920000000007
 20
26.7416020000000003
 10
21.8181839999999987
 20
26.85276
 10
22.0006449999999987
 20
26.940453999999999
 10
22.1953880000000012
 20
27.0021880000000003
 10
23.3713259999999998
 20
27.2862860000000005
 10
23.4745500000000007
 20
27.2618180000000017
 10
23.5830100000000016
 20
27.2541280000000015
 10
23.6930629999999987
 20
27.2634800000000013
 10
23.8010139999999986
 20
27.2895620000000001
 10
23.9032279999999986
 20
27.3314929999999983
 10
23.9962179999999989
 20
27.3878489999999992
 10
24.076865999999999
 20
27.4567510000000006
 10
24.1944739999999996
 20
27.4851659999999995
 10
24.2976780000000012
 20
27.4606840000000005
 10
24.4061710000000005
 20
27.4530069999999995
 10
24.5162240000000011
 20
27.4623530000000002
 10
24.624175000000001
 20
27.4884349999999991
 10
24.7263890000000011
 20
27.5303730000000009
 10
24.8193790000000014
 20
27.5867289999999983
 10
24.9000270000000015
 20
27.6556239999999995
 10
25.0176219999999994
 20
27.6840319999999984
 10
25.1208390000000001
 20
27.6595639999999996
 10
25.2293050000000001
 20
27.6518739999999994
 10
25.3393720000000009
 20
27.6612319999999983
 10
25.4473230000000008
 20
27.6873080000000016
 10
25.5495230000000006
 20
27.7292389999999997
 10
25.6425270000000012
 20
27.7856020000000008
 10
25.7231750000000012
 20
27.8544969999999985
 10
26.8991199999999999
 20
28.1386089999999989
 10
27.1330199999999984
 20
28.1753789999999995
 10
27.3669750000000001
 20
28.1734529999999985
 10
27.5919510000000017
 20
28.1328989999999983
 10
27.7992939999999997
 20
28.055261999999999
 10
27.981069999999999
 20
27.9435339999999997
 10
28.1302680000000009
 20
27.8020069999999997
 10
28.2411749999999984
 20
27.6361269999999983
 10
28.309508000000001
 20
27.452261
 10
28.3326600000000006
 20
27.257477999999999
 10
28.3097250000000003
 20
27.0592560000000013
 10
28.2415820000000011
 20
26.8652319999999989
 10
28.1308779999999992
 20
26.6828250000000011
 10
27.9818439999999988
 20
26.519088
 10
27.8002029999999998
 20
26.3802939999999992
 10
27.5929409999999997
 20
26.2717659999999995
 10
27.3680330000000005
 20
26.1977030000000006
 10
27.1341189999999983
 20
26.1609189999999998
 10
26.9001780000000004
 20
26.1628450000000008
 10
26.6752019999999987
 20
26.2034069999999986
 10
26.4678590000000007
 20
26.2810440000000014
 10
26.2860820000000004
 20
26.3927790000000009
 10
26.1368849999999995
 20
26.5342990000000007
 10
26.025977000000001
 20
26.7001859999999986
 10
25.9576449999999994
 20
26.8840509999999995
 10
22.3281330000000011
 20
26.4527360000000016
 10
22.2617739999999991
 20
26.5607140000000008
  0
LWPOLYLINE
  5
52
  8
Taschen
 62
256
370
-1
  6
ByLayer
100
AcDbEntity
100
AcDbPolyline
 90
5
 70
0
 10
25.82151
 20
22.2050519999999985
 10
24.5863200000000006
 20
24.1028400000000005
 10
22.5631589999999989
 20
23.4350880000000004
 10
22.6205460000000009
 20
22.4895570000000014
 10
25.82151
 20
22.2050519999999985
  0
LWPOLYLINE
  5
53
  8
Taschen
 62
256
370
-1
  6
ByLayer
100
AcDbEntity
100
AcDbPolyline
 90
5
 70
0
 10
23.0442250000000008
 20
25.7949799999999989
 10
22.4660860000000007
 20
23.6056740000000005
 10
25.4165880000000008
 20
24.8791060000000002
 10
25.1747399999999999
 20
25.7949799999999989
 10
23.0442250000000008
 20
25.7949799999999989
  0
LWPOLYLINE
  5
54
  8
Taschen
 62
256
370
-1
  6
ByLayer
100
AcDbEntity
100
AcDbPolyline
 90
5
 70
0
 10
22.7193480000000001
 20
22.0171990000000015
 10
22.2135290000000012
 20
19.8278940000000006
 10
24.7949379999999984
 20
21.1013319999999993
 10
24.5833499999999994
 20
22.0171990000000015
 10
22.7193480000000001
 20
22.0171990000000015
  0
LWPOLYLINE
  5
55
  8
Taschen
 62
256
370
-1
  6
ByLayer
100
AcDbEntity
100
AcDbPolyline
 90
5
 70
0
 10
24.3894480000000016
 20
20.3885770000000015
 10
25.6064889999999998
 20
18.499727
 10
22.7464140000000015
 20
18.8241769999999988
 10
22.6354860000000002
 20
19.7576089999999986
 10
24.3894480000000016
 20
20.3885770000000015
  0
LWPOLYLINE
  5
56
  8
Taschen
 62
256
370
-1
  6
ByLayer
100
AcDbEntity
100
AcDbPolyline
 90
5
 70
0
 10
23.5917379999999994
 20
29.7116490000000013
 10
22.8911830000000016
 20
27.5223429999999993
 10
26.4664210000000004
 20
28.795774999999999
 10
26.1733569999999993
 20
29.7116490000000013
 10
23.5917379999999994
 20
29.7116490000000013
  0
LWPOLYLINE
  5
57
  8
Taschen
 62
256
370
-1
  6
ByLayer
100
AcDbEntity
100
AcDbPolyline
 90
5
 70
0
 10
25.7726539999999993
 20
27.9948370000000004
 10
26.967763999999999
 20
26.0312809999999999
 10
23.1934490000000011
 20
26.429473999999999
 10
23.2632259999999995
 20
27.3885609999999993
 10
25.7726539999999993
 20
27.9948370000000004
  0
ENDSEC
  0
SECTION
  2
OBJECTS
  0
DICTIONARY
  5
C
100
AcDbDictionary
280
0
281
1
  3
ACAD_GROUP
350
D
  3
ACAD_LAYOUT
350
1A
  3
ACAD_MLINESTYLE
350
17
  3
ACAD_PLOTSETTINGS
350
19
  3
ACAD_PLOTSTYLENAME
350
E
  3
AcDbVariableDictionary
350
58
  0
DICTIONARY
  5
D
100
AcDbDictionary
280
0
281
1
  0
ACDBDICTIONARYWDFLT
  5
E
100
AcDbDictionary
281
1
  3
Normal
350
F
100
AcDbDictionaryWithDefault
340
F
  0
ACDBPLACEHOLDER
  5
F
  0
DICTIONARY
  5
17
100
AcDbDictionary
280
0
281
1
  3
Standard
350
18
  0
MLINESTYLE
  5
18
100
AcDbMlineStyle
  2
STANDARD
 70
0
  3

 62
256
 51
90.0
 52
90.0
 71
2
 49
0.5
 62
256
  6
BYLAYER
 49
-0.5
 62
256
  6
BYLAYER
  0
DICTIONARY
  5
19
100
AcDbDictionary
280
0
281
1
  0
DICTIONARY
  5
1A
100
AcDbDictionary
281
1
  3
Layout1
350
1E
  3
Layout2
350
26
  3
Model
350
22
  0
LAYOUT
  5
1E
100
AcDbPlotSettings
  1

  2
C:\Program Files\AutoCAD 2002\plotters\DWF ePlot (optimized for plotting).pc3
  4

  6

 40
0.0
 41
0.0
 42
0.0
 43
0.0
 44
0.0
 45
0.0
 46
0.0
 47
0.0
 48
0.0
 49
0.0
140
0.0
141
0.0
142
1.0
143
1.0
 70
688
 72
0
 73
0
 74
5
  7

 75
16
147
1.0
148
0.0
149
0.0
100
AcDbLayout
  1
Layout1
 70
1
 71
1
 10
0.0
 20
0.0
 11
420.0
 21
297.0
 12
0.0
 22
0.0
 32
0.0
 14
100000000000000000000.0
 24
100000000000000000000.0
 34
100000000000000000000.0
 15
-100000000000000000000.0
 25
-100000000000000000000.0
 35
-100000000000000000000.0
146
0.0
 13
0.0
 23
0.0
 33
0.0
 16
1.0
 26
0.0
 36
0.0
 17
0.0
 27
1.0
 37
0.0
 76
0
330
1B
  0
LAYOUT
  5
22
100
AcDbPlotSettings
  1

  2
C:\Program Files\AutoCAD 2002\plotters\DWF ePlot (optimized for plotting).pc3
  4

  6

 40
0.0
 41
0.0
 42
0.0
 43
0.0
 44
0.0
 45
0.0
 46
0.0
 47
0.0
 48
0.0
 49
0.0
140
0.0
141
0.0
142
1.0
143
1.0
 70
1712
 72
0
 73
0
 74
0
  7

 75
0
147
1.0
148
0.0
149
0.0
100
AcDbLayout
  1
Model
 70
1
 71
0
 10
0.0
 20
0.0
 11
12.0
 21
9.0
 12
0.0
 22
0.0
 32
0.0
 14
0.0
 24
0.0
 34
0.0
 15
0.0
 25
0.0
 35
0.0
146
0.0
 13
0.0
 23
0.0
 33
0.0
 16
1.0
 26
0.0
 36
0.0
 17
0.0
 27
1.0
 37
0.0
 76
0
330
1F
  0
LAYOUT
  5
26
100
AcDbPlotSettings
  1

  2
C:\Program Files\AutoCAD 2002\plotters\DWF ePlot (optimized for plotting).pc3
  4

  6

 40
0.0
 41
0.0
 42
0.0
 43
0.0
 44
0.0
 45
0.0
 46
0.0
 47
0.0
 48
0.0
 49
0.0
140
0.0
141
0.0
142
1.0
143
1.0
 70
688
 72
0
 73
0
 74
5
  7

 75
16
147
1.0
148
0.0
149
0.0
100
AcDbLayout
  1
Layout2
 70
1
 71
2
 10
0.0
 20
0.0
 11
12.0
 21
9.0
 12
0.0
 22
0.0
 32
0.0
 14
0.0
 24
0.0
 34
0.0
 15
0.0
 25
0.0
 35
0.0
146
0.0
 13
0.0
 23
0.0
 33
0.0
 16
1.0
 26
0.0
 36
0.0
 17
0.0
 27
1.0
 37
0.0
 76
0
330
23
  0
DICTIONARY
  5
58
100
AcDbDictionary
281
1
  3
DIMASSOC
350
5A
  3
HIDETEXT
350
59
  0
DICTIONARYVAR
  5
59
100
DictionaryVariables
280
0
  1
2
  0
DICTIONARYVAR
  5
5A
100
DictionaryVariables
280
0
  1
1
  0
ENDSEC
  0
EOF
