<?xml version="1.0" encoding="UTF-8" standalone="no"?>
<!-- Created with Inkscape (http://www.inkscape.org/) -->

<svg
   xmlns:dc="http://purl.org/dc/elements/1.1/"
   xmlns:cc="http://creativecommons.org/ns#"
   xmlns:rdf="http://www.w3.org/1999/02/22-rdf-syntax-ns#"
   xmlns:svg="http://www.w3.org/2000/svg"
   xmlns="http://www.w3.org/2000/svg"
   xmlns:sodipodi="http://sodipodi.sourceforge.net/DTD/sodipodi-0.dtd"
   xmlns:inkscape="http://www.inkscape.org/namespaces/inkscape"
   width="177.16534"
   height="496.06299"
   id="svg2"
   version="1.1"
   inkscape:version="0.48.1 r9760"
   sodipodi:docname="daumoserMama.svg"
   style="display:inline">
  <sodipodi:namedview
     id="base"
     pagecolor="#ffffff"
     bordercolor="#666666"
     borderopacity="1.0"
     inkscape:pageopacity="0.0"
     inkscape:pageshadow="2"
     inkscape:zoom="0.798245"
     inkscape:cx="-69.537405"
     inkscape:cy="212.59842"
     inkscape:document-units="mm"
     inkscape:current-layer="layer2"
     showgrid="false"
     inkscape:window-width="1280"
     inkscape:window-height="752"
     inkscape:window-x="4"
     inkscape:window-y="0"
     inkscape:window-maximized="1"
     units="mm" />
  <defs
     id="defs4">
    <inkscape:perspective
       sodipodi:type="inkscape:persp3d"
       inkscape:vp_x="205.5118 : 111.61417 : 1"
       inkscape:vp_y="0 : 1000 : 0"
       inkscape:vp_z="382.67714 : 111.61417 : 1"
       inkscape:persp3d-origin="294.09447 : 28.937008 : 1"
       id="perspective4835" />
  </defs>
  <metadata
     id="metadata7">
    <rdf:RDF>
      <cc:Work
         rdf:about="">
        <dc:format>image/svg+xml</dc:format>
        <dc:type
           rdf:resource="http://purl.org/dc/dcmitype/StillImage" />
        <dc:title />
      </cc:Work>
    </rdf:RDF>
  </metadata>
  <g
     inkscape:label="Layer 1"
     inkscape:groupmode="layer"
     id="layer1"
     transform="translate(0,-556.29913)"
     style="display:inline">
    <path
       style="color:#000000;fill:none;stroke:#000000;stroke-width:0.88440943;stroke-linecap:round;stroke-linejoin:round;stroke-miterlimit:4;stroke-opacity:1;stroke-dasharray:none;stroke-dashoffset:0;marker:none;visibility:visible;display:inline;overflow:visible;enable-background:accumulate"
       d="m 67.257315,922.74902 c -1.005648,-5.81668 -0.395858,-10.97765 3.997011,-15.41322 -1.812521,-4.83345 -0.638369,-3.60011 -1.846716,-7.8294 -1.83337,-6.92297 1.159117,-12.17268 2.773738,-17.15539 2.544023,-11.52958 2.532043,-23.98124 2.532043,-23.98124"
       id="path6820"
       inkscape:connector-curvature="0"
       sodipodi:nodetypes="ccccc" />
    <path
       inkscape:connector-curvature="0"
       style="color:#000000;fill:none;stroke:#000000;stroke-width:0.79698128;stroke-linecap:round;stroke-linejoin:round;stroke-miterlimit:4;stroke-opacity:1;stroke-dasharray:none;stroke-dashoffset:0;marker:none;visibility:visible;display:inline;overflow:visible;enable-background:accumulate"
       d="m 65.400215,852.34043 -6.567591,0 c -9.341155,0 -16.861287,-6.10682 -16.861287,-13.69243 l 0,0 0,-164.99886 c 0,-7.5856 7.520132,-13.69241 16.861287,-13.69241 l 60.547366,0 c 9.34115,0 16.86129,6.10681 16.86129,13.69241 l 0,164.99886 c 0,7.58561 -7.52014,13.69243 -16.86129,13.69243 l -41.199506,0"
       id="path7007" />
    <path
       inkscape:connector-curvature="0"
       style="fill:none;stroke:#000000;stroke-width:0.88440943;stroke-linecap:round;stroke-linejoin:round;stroke-miterlimit:4;stroke-opacity:1;stroke-dasharray:none"
       d="m 112.21938,929.61515 c 0.65673,-1.0638 1.1936,-2.45445 1.37814,-4.25374 -0.15105,-2.71884 -0.4547,-4.58628 -2.26566,-5.28653 -1.20168,-0.62332 -4.55926,0.54101 -7.95708,2.0484"
       id="path6855" />
    <path
       style="fill:none;stroke:#000000;stroke-width:0.88440943;stroke-linecap:round;stroke-linejoin:round;stroke-miterlimit:4;stroke-opacity:1;stroke-dasharray:none"
       d="m 118.0851,941.77755 5.87357,-1.58803 1.92848,-4.35434"
       id="path3042-0"
       inkscape:connector-curvature="0"
       sodipodi:nodetypes="ccc" />
    <path
       style="fill:none;stroke:#000000;stroke-width:0.88440943;stroke-linecap:round;stroke-linejoin:round;stroke-miterlimit:4;stroke-opacity:1;stroke-dasharray:none"
       d="m 126.24915,944.08757 -2.13608,-3.89831 3.89835,-0.53401"
       id="path3044-4"
       inkscape:connector-curvature="0" />
    <path
       inkscape:connector-curvature="0"
       style="fill:none;stroke:#000000;stroke-width:0.88440943;stroke-linecap:round;stroke-linejoin:round;stroke-miterlimit:4;stroke-opacity:1;stroke-dasharray:none"
       d="m 55.423928,958.36411 c 4.865703,10.87838 16.644735,18.5515 30.402895,18.5515 l 0,0 c 5.096257,0 9.920964,-1.0528 14.223337,-2.93144"
       id="path6940" />
    <path
       inkscape:connector-curvature="0"
       style="fill:none;stroke:#000000;stroke-width:0.88440943;stroke-linecap:round;stroke-linejoin:round;stroke-miterlimit:4;stroke-opacity:1;stroke-dasharray:none"
       d="m 55.224963,957.90849 c 0.06498,0.15252 0.131299,0.30439 0.198965,0.45562"
       id="path6938" />
    <path
       inkscape:connector-curvature="0"
       style="fill:none;stroke:#000000;stroke-width:0.88440943;stroke-linecap:round;stroke-linejoin:round;stroke-miterlimit:4;stroke-opacity:1;stroke-dasharray:none"
       d="m 53.385021,951.55976 c 0.356138,2.20416 0.979713,4.32973 1.839942,6.34873"
       id="path6936" />
    <path
       inkscape:connector-curvature="0"
       style="fill:none;stroke:#000000;stroke-width:0.88440943;stroke-linecap:round;stroke-linejoin:round;stroke-miterlimit:4;stroke-opacity:1;stroke-dasharray:none"
       d="m 110.82126,966.44264 c 4.86135,-5.1792 7.79444,-11.88871 7.79444,-19.21856 0,-16.39818 -14.68009,-29.69157 -32.788877,-29.69157 -13.047957,0 -24.315841,6.90144 -29.594798,16.89312"
       id="path6868" />
    <path
       style="fill:none;stroke:#000000;stroke-width:0.88440943;stroke-linecap:round;stroke-linejoin:round;stroke-miterlimit:4;stroke-opacity:1;stroke-dasharray:none"
       d="m 101.30714,933.20995 c 0,0 -6.888877,4.11198 -7.262687,9.39877 -0.106804,4.59257 5.150666,7.08998 5.899466,8.33798 0.249601,0.9984 0.188321,5.01255 0.188321,5.01255 2.86983,-4.83341 7.25417,-7.64282 9.39274,-12.2642 -2.13608,-7.1558 -8.21789,-10.4851 -8.21789,-10.4851 z"
       id="path3758"
       inkscape:connector-curvature="0"
       sodipodi:nodetypes="ccccccc" />
    <path
       style="fill:none;stroke:#000000;stroke-width:0.88440943;stroke-linecap:round;stroke-linejoin:round;stroke-miterlimit:4;stroke-opacity:1;stroke-dasharray:none"
       d="m 101.20033,933.3702 c 0,0 2.88372,4.21874 3.31093,7.42284 0.2136,2.02925 -4.19294,13.51488 -4.19294,13.51488"
       id="path3760"
       inkscape:connector-curvature="0"
       sodipodi:nodetypes="ccc" />
    <path
       style="fill:none;stroke:#000000;stroke-width:0.88440943;stroke-linecap:round;stroke-linejoin:round;stroke-miterlimit:4;stroke-opacity:1;stroke-dasharray:none"
       d="m 91.08641,925.30761 c 0,0 -2.349693,2.69749 -2.456496,4.2638 0.106803,1.3922 2.349693,3.82861 2.349693,3.82861"
       id="path3762"
       inkscape:connector-curvature="0"
       sodipodi:nodetypes="ccc" />
    <path
       style="fill:none;stroke:#000000;stroke-width:0.88440943;stroke-linecap:round;stroke-linejoin:round;stroke-miterlimit:4;stroke-opacity:1;stroke-dasharray:none"
       d="m 90.338783,952.86305 c 0,0 -2.5633,3.09735 -2.5633,4.91303 -0.106804,2.02925 4.304718,6.59686 2.456496,4.37901"
       id="path3764"
       inkscape:connector-curvature="0"
       sodipodi:nodetypes="ccc" />
    <path
       style="fill:none;stroke:#000000;stroke-width:0.88440943;stroke-linecap:round;stroke-linejoin:round;stroke-miterlimit:4;stroke-opacity:1;stroke-dasharray:none"
       d="m 96.383653,954.98753 c 2.14529,0.41447 4.613247,0.33594 5.147577,4.61357"
       id="path3766"
       inkscape:connector-curvature="0"
       sodipodi:nodetypes="cc" />
    <path
       style="fill:none;stroke:#000000;stroke-width:0.88440943;stroke-linecap:round;stroke-linejoin:round;stroke-miterlimit:4;stroke-opacity:1;stroke-dasharray:none"
       d="m 53.331007,952.31246 c 0.0441,-1.54432 0.281141,-2.64256 1.867108,-4.15302 2.19014,-2.64327 9.763279,-2.49293 10.216403,-4.45651 0.981785,-3.32295 -0.679695,-4.75783 -2.114611,-5.73965 -3.895033,-3.8197 -10.422032,-4.68239 -12.083511,-2.56777 -1.434917,1.0573 1.359388,6.64598 0.302083,8.00534 -0.604174,1.05734 -4.833404,2.5678 -4.833404,4.68236 -0.830736,1.66151 3.171924,4.75789 3.398487,5.58861 0.604173,0.83079 -1.585959,4.53133 -1.208347,5.58861 1.737008,2.26566 6.570412,-0.90624 6.570412,-0.90624 l -1.208356,-2.56774 z"
       id="path3036"
       inkscape:connector-curvature="0"
       sodipodi:nodetypes="cccccccccccc" />
    <path
       style="fill:none;stroke:#000000;stroke-width:0.88440943;stroke-linecap:round;stroke-linejoin:round;stroke-miterlimit:4;stroke-opacity:1;stroke-dasharray:none"
       d="m 108.46202,964.84904 c 0,0 4.38028,1.51046 4.98445,7.40121 -0.15104,2.7188 -0.45471,4.58632 -2.26565,5.28656 -2.74759,1.42504 -16.765877,-6.49496 -16.765877,-6.49496"
       id="path3038"
       inkscape:connector-curvature="0"
       sodipodi:nodetypes="cccc" />
    <path
       style="fill:none;stroke:#000000;stroke-width:0.88440943;stroke-linecap:round;stroke-linejoin:round;stroke-miterlimit:4;stroke-opacity:1;stroke-dasharray:none"
       d="m 116.00506,953.75272 7.90324,2.60281 1.92848,4.35437"
       id="path3042"
       inkscape:connector-curvature="0"
       sodipodi:nodetypes="ccc" />
    <path
       style="fill:none;stroke:#000000;stroke-width:0.88440943;stroke-linecap:round;stroke-linejoin:round;stroke-miterlimit:4;stroke-opacity:1;stroke-dasharray:none"
       d="m 126.19878,952.45749 -2.13608,3.89836 3.89836,0.53402"
       id="path3044"
       inkscape:connector-curvature="0" />
    <path
       style="color:#000000;fill:none;stroke:#000000;stroke-width:0.88440943;stroke-linecap:round;stroke-linejoin:round;stroke-miterlimit:4;stroke-opacity:1;stroke-dasharray:none;stroke-dashoffset:0;marker:none;visibility:visible;display:inline;overflow:visible;enable-background:accumulate"
       d="m 115.65236,884.16854 2.70689,-11.62218"
       id="path6997"
       inkscape:connector-curvature="0" />
    <path
       inkscape:connector-curvature="0"
       style="color:#000000;fill:none;stroke:#000000;stroke-width:0.88440943;stroke-linecap:round;stroke-linejoin:round;stroke-miterlimit:4;stroke-opacity:1;stroke-dasharray:none;stroke-dashoffset:0;marker:none;visibility:visible;display:inline;overflow:visible;enable-background:accumulate"
       d="m 113.8655,907.32805 c 0.60418,-1.51045 7.94643,-31.52211 7.94643,-31.52211"
       id="path6995" />
    <path
       inkscape:connector-curvature="0"
       style="color:#000000;fill:none;stroke:#000000;stroke-width:0.88440943;stroke-linecap:round;stroke-linejoin:round;stroke-miterlimit:4;stroke-opacity:1;stroke-dasharray:none;stroke-dashoffset:0;marker:none;visibility:visible;display:inline;overflow:visible;enable-background:accumulate"
       d="m 121.11561,894.64032 c -0.90627,-2.11461 -5.73967,-21.14611 -5.73967,-21.14611"
       id="path6993" />
    <path
       inkscape:connector-curvature="0"
       style="color:#000000;fill:none;stroke:#000000;stroke-width:0.88440943;stroke-linecap:round;stroke-linejoin:round;stroke-miterlimit:4;stroke-opacity:1;stroke-dasharray:none;stroke-dashoffset:0;marker:none;visibility:visible;display:inline;overflow:visible;enable-background:accumulate"
       d="m 113.9004,880.23535 c 1.01654,-9.14866 2.6839,-20.93926 2.6839,-20.93926"
       id="path6991" />
    <path
       inkscape:connector-curvature="0"
       style="color:#000000;fill:none;stroke:#000000;stroke-width:0.88440943;stroke-linecap:round;stroke-linejoin:round;stroke-miterlimit:4;stroke-opacity:1;stroke-dasharray:none;stroke-dashoffset:0;marker:none;visibility:visible;display:inline;overflow:visible;enable-background:accumulate"
       d="m 114.82866,896.46109 2.964,18.41912"
       id="path6987" />
    <path
       inkscape:connector-curvature="0"
       style="color:#000000;fill:none;stroke:#000000;stroke-width:0.88440943;stroke-linecap:round;stroke-linejoin:round;stroke-miterlimit:4;stroke-opacity:1;stroke-dasharray:none;stroke-dashoffset:0;marker:none;visibility:visible;display:inline;overflow:visible;enable-background:accumulate"
       d="m 115.91866,893.59069 5.49904,12.83107"
       id="path6983" />
    <path
       style="color:#000000;fill:none;stroke:#000000;stroke-width:0.85636109;stroke-linecap:round;stroke-linejoin:round;stroke-miterlimit:4;stroke-opacity:1;stroke-dashoffset:0;marker:none;visibility:visible;display:inline;overflow:visible;enable-background:accumulate"
       d="m 105.8515,874.40045 c 4.09092,0 8.52748,6.12107 9.205,13.59396 0.70808,7.8098 -3.20103,13.61038 -9.205,13.59396 -6.500293,-0.0181 -9.983873,-5.70866 -9.204993,-13.59396 0.737508,-7.4664 4.121223,-13.59396 9.204993,-13.59396 z"
       id="path3892"
       inkscape:connector-curvature="0"
       sodipodi:nodetypes="sssss" />
    <path
       inkscape:connector-curvature="0"
       id="path3922"
       d="m 46.86145,871.80535 c 2.25232,0 4.078185,1.82586 4.078185,4.07814 0,2.25236 -1.825865,4.07821 -4.078185,4.07821 -2.252319,0 -4.078184,-1.82585 -4.078184,-4.07821 0,-2.25228 1.825865,-4.07814 4.078184,-4.07814 z"
       style="color:#000000;fill:none;stroke:#000000;stroke-width:0.88440943;stroke-linecap:round;stroke-linejoin:round;stroke-miterlimit:4;stroke-opacity:1;stroke-dashoffset:0;marker:none;visibility:visible;display:inline;overflow:visible;enable-background:accumulate" />
    <path
       style="color:#000000;fill:none;stroke:#000000;stroke-width:0.88440943;stroke-linecap:round;stroke-linejoin:round;stroke-miterlimit:4;stroke-opacity:1;stroke-dasharray:none;stroke-dashoffset:0;marker:none;visibility:visible;display:inline;overflow:visible;enable-background:accumulate"
       d="m 134.35854,999.02521 c -4.73102,0.3676 -8.93344,5.49269 -13.29187,9.21369 l 6.49489,-10.19465 8.30742,-2.19104 c -5.58652,1.34688 -13.54687,3.488 -21.14615,7.25029 3.32201,-2.9555 6.29009,-6.14821 11.63039,-8.30757 l -12.83874,-3.17184 c 5.52668,-0.0536 15.02218,-0.90432 22.3545,1.20832 0.79993,-0.26144 -5.62082,-1.46312 -10.77336,-1.37128 l -9.7686,-8.29552 c 4.98112,1.77064 9.8612,5.75608 13.29184,5.58864 -1.46887,-2.14312 -2.34945,-4.5548 -1.81251,-7.09912 2.41227,2.59408 2.26539,5.82784 7.55219,7.70328"
       id="path3926"
       inkscape:connector-curvature="0"
       sodipodi:nodetypes="ccccccccccccc" />
    <path
       style="color:#000000;fill:none;stroke:#000000;stroke-width:0.88440943;stroke-linecap:round;stroke-linejoin:round;stroke-miterlimit:4;stroke-opacity:1;stroke-dasharray:none;stroke-dashoffset:0;marker:none;visibility:visible;display:inline;overflow:visible;enable-background:accumulate"
       d="m 75.507651,901.52111 -4.202424,5.66036"
       id="path3942"
       inkscape:connector-curvature="0"
       sodipodi:nodetypes="cc" />
    <path
       inkscape:connector-curvature="0"
       id="path3950"
       d="m 93.400835,870.59497 c 1.723128,0 3.120002,1.39687 3.120002,3.12 0,1.72312 -1.396874,3.12 -3.120002,3.12 -1.723129,0 -3.12,-1.39688 -3.12,-3.12 0,-1.72313 1.396871,-3.12 3.12,-3.12 z"
       style="color:#000000;fill:none;stroke:#000000;stroke-width:0.88440943;stroke-linecap:round;stroke-linejoin:round;stroke-miterlimit:4;stroke-opacity:1;stroke-dashoffset:0;marker:none;visibility:visible;display:inline;overflow:visible;enable-background:accumulate" />
    <path
       inkscape:connector-curvature="0"
       id="path3950-9"
       d="m 83.158365,860.68227 c 2.32075,0 4.20209,1.88134 4.20209,4.20209 0,2.32075 -1.88134,4.20209 -4.20209,4.20209 -2.32075,0 -4.20209,-1.88134 -4.20209,-4.20209 0,-2.32075 1.88134,-4.20209 4.20209,-4.20209 z"
       style="color:#000000;fill:none;stroke:#000000;stroke-width:0.88440943;stroke-linecap:round;stroke-linejoin:round;stroke-miterlimit:4;stroke-opacity:1;stroke-dashoffset:0;marker:none;visibility:visible;display:inline;overflow:visible;enable-background:accumulate" />
    <path
       inkscape:connector-curvature="0"
       id="path3950-3"
       d="m 71.790544,846.19733 c 3.536543,0 6.403475,2.86694 6.403475,6.40348 0,3.53653 -2.866932,6.40347 -6.403475,6.40347 -3.536541,0 -6.403474,-2.86694 -6.403474,-6.40347 0,-3.53654 2.866933,-6.40348 6.403474,-6.40348 z"
       style="color:#000000;fill:none;stroke:#000000;stroke-width:0.98527497;stroke-linecap:round;stroke-linejoin:round;stroke-miterlimit:4;stroke-opacity:1;stroke-dashoffset:0;marker:none;visibility:visible;display:inline;overflow:visible;enable-background:accumulate" />
    <path
       style="color:#000000;fill:none;stroke:#000000;stroke-width:0.88440943;stroke-linecap:round;stroke-linejoin:round;stroke-miterlimit:4;stroke-opacity:1;stroke-dasharray:none;stroke-dashoffset:0;marker:none;visibility:visible;display:inline;overflow:visible;enable-background:accumulate"
       d="m 51.591137,869.98359 3.353385,-4.2359"
       id="path3132"
       inkscape:connector-curvature="0" />
    <path
       style="color:#000000;fill:none;stroke:#000000;stroke-width:0.88440943;stroke-linecap:round;stroke-linejoin:round;stroke-miterlimit:4;stroke-opacity:1;stroke-dasharray:none;stroke-dashoffset:0;marker:none;visibility:visible;display:inline;overflow:visible;enable-background:accumulate"
       d="m 44.531384,882.33809 -1.94143,4.94182"
       id="path3136"
       inkscape:connector-curvature="0" />
    <path
       style="color:#000000;fill:none;stroke:#000000;stroke-width:0.88440943;stroke-linecap:round;stroke-linejoin:round;stroke-miterlimit:4;stroke-opacity:1;stroke-dasharray:none;stroke-dashoffset:0;marker:none;visibility:visible;display:inline;overflow:visible;enable-background:accumulate"
       d="m 44.884368,869.10109 -2.470915,-6.88332"
       id="path3138"
       inkscape:connector-curvature="0" />
    <path
       style="color:#000000;fill:none;stroke:#000000;stroke-width:0.88440943;stroke-linecap:round;stroke-linejoin:round;stroke-miterlimit:4;stroke-opacity:1;stroke-dasharray:none;stroke-dashoffset:0;marker:none;visibility:visible;display:inline;overflow:visible;enable-background:accumulate"
       d="m 40.295531,872.98391 -5.625743,-3.15488"
       id="path3140"
       inkscape:connector-curvature="0"
       sodipodi:nodetypes="cc" />
    <path
       style="color:#000000;fill:none;stroke:#000000;stroke-width:0.88440943;stroke-linecap:round;stroke-linejoin:round;stroke-miterlimit:4;stroke-opacity:1;stroke-dasharray:none;stroke-dashoffset:0;marker:none;visibility:visible;display:inline;overflow:visible;enable-background:accumulate"
       d="m 53.709068,874.57239 4.235845,-0.8825"
       id="path3144"
       inkscape:connector-curvature="0" />
    <path
       style="color:#000000;fill:none;stroke:#000000;stroke-width:0.88440943;stroke-linecap:round;stroke-linejoin:round;stroke-miterlimit:4;stroke-opacity:1;stroke-dasharray:none;stroke-dashoffset:0;marker:none;visibility:visible;display:inline;overflow:visible;enable-background:accumulate"
       d="m 50.002691,883.39709 1.588446,4.41229"
       id="path3146"
       inkscape:connector-curvature="0" />
    <path
       style="color:#000000;fill:none;stroke:#000000;stroke-width:0.88440943;stroke-linecap:round;stroke-linejoin:round;stroke-miterlimit:4;stroke-opacity:1;stroke-dasharray:none;stroke-dashoffset:0;marker:none;visibility:visible;display:inline;overflow:visible;enable-background:accumulate"
       d="m 40.472023,878.80817 -3.353384,1.76492"
       id="path3148"
       inkscape:connector-curvature="0" />
  </g>
  <path
     inkscape:connector-curvature="0"
     style="fill:none;stroke:#000000;stroke-width:0.04"
     d=""
     id="path4962" />
  <path
     inkscape:connector-curvature="0"
     style="fill:none;stroke:#000000;stroke-width:0.04"
     d=""
     id="path4966" />
  <path
     inkscape:connector-curvature="0"
     style="fill:none;stroke:#000000;stroke-width:0.04"
     d=""
     id="path4978" />
  <path
     inkscape:connector-curvature="0"
     style="fill:none;stroke:#000000;stroke-width:0.04"
     d=""
     id="path4988" />
  <path
     inkscape:connector-curvature="0"
     style="fill:none;stroke:#000000;stroke-width:0.04"
     d=""
     id="path5000" />
  <path
     inkscape:connector-curvature="0"
     style="fill:none;stroke:#000000;stroke-width:0.04"
     d=""
     id="path5014" />
  <path
     inkscape:connector-curvature="0"
     style="fill:none;stroke:#000000;stroke-width:0.04"
     d=""
     id="path5022" />
  <path
     inkscape:connector-curvature="0"
     style="fill:none;stroke:#000000;stroke-width:0.04"
     d=""
     id="path5030" />
  <path
     inkscape:connector-curvature="0"
     style="fill:none;stroke:#000000;stroke-width:0.04"
     d=""
     id="path5042" />
  <path
     inkscape:connector-curvature="0"
     style="fill:none;stroke:#000000;stroke-width:0.04"
     d=""
     id="path5052" />
  <path
     inkscape:connector-curvature="0"
     style="fill:none;stroke:#000000;stroke-width:0.04"
     d=""
     id="path5068" />
  <path
     inkscape:connector-curvature="0"
     style="fill:none;stroke:#000000;stroke-width:0.04"
     d=""
     id="path5074" />
  <path
     inkscape:connector-curvature="0"
     style="fill:none;stroke:#000000;stroke-width:0.04"
     d=""
     id="path5096" />
  <path
     inkscape:connector-curvature="0"
     style="fill:none;stroke:#000000;stroke-width:0.04"
     d=""
     id="path5108" />
  <path
     inkscape:connector-curvature="0"
     style="fill:none;stroke:#000000;stroke-width:0.04"
     d=""
     id="path5114" />
  <path
     inkscape:connector-curvature="0"
     style="fill:none;stroke:#000000;stroke-width:0.04"
     d=""
     id="path5126" />
  <path
     inkscape:connector-curvature="0"
     style="fill:none;stroke:#000000;stroke-width:0.04"
     d=""
     id="path5132" />
  <path
     inkscape:connector-curvature="0"
     style="fill:none;stroke:#000000;stroke-width:0.04"
     d=""
     id="path5146" />
  <path
     inkscape:connector-curvature="0"
     style="fill:none;stroke:#000000;stroke-width:0.04"
     d=""
     id="path5154" />
  <path
     inkscape:connector-curvature="0"
     style="fill:none;stroke:#000000;stroke-width:0.04"
     d=""
     id="path5178" />
  <path
     id="path3281"
     d=""
     style="fill:none;stroke:#000000;stroke-width:0.12799999"
     inkscape:connector-curvature="0" />
  <path
     id="path3289"
     d=""
     style="fill:none;stroke:#000000;stroke-width:0.12799999"
     inkscape:connector-curvature="0" />
  <path
     id="path3297"
     d=""
     style="fill:none;stroke:#000000;stroke-width:0.12799999"
     inkscape:connector-curvature="0" />
  <path
     id="path3305"
     d=""
     style="fill:none;stroke:#000000;stroke-width:0.12799999"
     inkscape:connector-curvature="0" />
  <path
     id="path3315"
     d=""
     style="fill:none;stroke:#000000;stroke-width:0.12799999"
     inkscape:connector-curvature="0" />
  <path
     id="path3321"
     d=""
     style="fill:none;stroke:#000000;stroke-width:0.12799999"
     inkscape:connector-curvature="0" />
  <path
     id="path3325"
     d=""
     style="fill:none;stroke:#000000;stroke-width:0.12799999"
     inkscape:connector-curvature="0" />
  <path
     id="path3335"
     d=""
     style="fill:none;stroke:#000000;stroke-width:0.12799999"
     inkscape:connector-curvature="0" />
  <path
     id="path3343"
     d=""
     style="fill:none;stroke:#000000;stroke-width:0.12799999"
     inkscape:connector-curvature="0" />
  <path
     id="path3353"
     d=""
     style="fill:none;stroke:#000000;stroke-width:0.12799999"
     inkscape:connector-curvature="0" />
  <path
     id="path3359"
     d=""
     style="fill:none;stroke:#000000;stroke-width:0.12799999"
     inkscape:connector-curvature="0" />
  <path
     id="path3365"
     d=""
     style="fill:none;stroke:#000000;stroke-width:0.12799999"
     inkscape:connector-curvature="0" />
  <path
     id="path3371"
     d=""
     style="fill:none;stroke:#000000;stroke-width:0.12799999"
     inkscape:connector-curvature="0" />
  <path
     id="path3383"
     d=""
     style="fill:none;stroke:#000000;stroke-width:0.12799999"
     inkscape:connector-curvature="0" />
  <path
     id="path3389"
     d=""
     style="fill:none;stroke:#000000;stroke-width:0.12799999"
     inkscape:connector-curvature="0" />
  <path
     inkscape:connector-curvature="0"
     style="fill:none;stroke:#000000;stroke-width:0.12799999"
     d=""
     id="path3798" />
  <path
     inkscape:connector-curvature="0"
     style="fill:none;stroke:#000000;stroke-width:0.12799999"
     d=""
     id="path3806" />
  <path
     inkscape:connector-curvature="0"
     style="fill:none;stroke:#000000;stroke-width:0.12799999"
     d=""
     id="path3812" />
  <path
     inkscape:connector-curvature="0"
     style="fill:none;stroke:#000000;stroke-width:0.12799999"
     d=""
     id="path3820" />
  <path
     inkscape:connector-curvature="0"
     style="fill:none;stroke:#000000;stroke-width:0.12799999"
     d=""
     id="path3834" />
  <path
     inkscape:connector-curvature="0"
     style="fill:none;stroke:#000000;stroke-width:0.12799999"
     d=""
     id="path3840" />
  <path
     inkscape:connector-curvature="0"
     style="fill:none;stroke:#000000;stroke-width:0.12799999"
     d=""
     id="path3848" />
  <path
     inkscape:connector-curvature="0"
     style="fill:none;stroke:#000000;stroke-width:0.12799999"
     d=""
     id="path3856" />
  <path
     inkscape:connector-curvature="0"
     style="fill:none;stroke:#000000;stroke-width:0.12799999"
     d=""
     id="path3862" />
  <path
     inkscape:connector-curvature="0"
     style="fill:none;stroke:#000000;stroke-width:0.12799999"
     d=""
     id="path3868" />
  <path
     id="path4226"
     d=""
     style="fill:none;stroke:#000000;stroke-width:0.12799999"
     inkscape:connector-curvature="0" />
  <path
     id="path4234"
     d=""
     style="fill:none;stroke:#000000;stroke-width:0.12799999"
     inkscape:connector-curvature="0" />
  <path
     id="path4240"
     d=""
     style="fill:none;stroke:#000000;stroke-width:0.12799999"
     inkscape:connector-curvature="0" />
  <path
     id="path4248"
     d=""
     style="fill:none;stroke:#000000;stroke-width:0.12799999"
     inkscape:connector-curvature="0" />
  <path
     id="path4262"
     d=""
     style="fill:none;stroke:#000000;stroke-width:0.12799999"
     inkscape:connector-curvature="0" />
  <path
     id="path4268"
     d=""
     style="fill:none;stroke:#000000;stroke-width:0.12799999"
     inkscape:connector-curvature="0" />
  <path
     id="path4276"
     d=""
     style="fill:none;stroke:#000000;stroke-width:0.12799999"
     inkscape:connector-curvature="0" />
  <path
     id="path4284"
     d=""
     style="fill:none;stroke:#000000;stroke-width:0.12799999"
     inkscape:connector-curvature="0" />
  <path
     id="path4290"
     d=""
     style="fill:none;stroke:#000000;stroke-width:0.12799999"
     inkscape:connector-curvature="0" />
  <path
     id="path4296"
     d=""
     style="fill:none;stroke:#000000;stroke-width:0.12799999"
     inkscape:connector-curvature="0" />
  <path
     inkscape:connector-curvature="0"
     style="fill:none;stroke:#000000;stroke-width:0.12799999"
     d=""
     id="path4678" />
  <path
     inkscape:connector-curvature="0"
     style="fill:none;stroke:#000000;stroke-width:0.12799999"
     d=""
     id="path4686" />
  <path
     inkscape:connector-curvature="0"
     style="fill:none;stroke:#000000;stroke-width:0.12799999"
     d=""
     id="path4692" />
  <path
     inkscape:connector-curvature="0"
     style="fill:none;stroke:#000000;stroke-width:0.12799999"
     d=""
     id="path4700" />
  <path
     inkscape:connector-curvature="0"
     style="fill:none;stroke:#000000;stroke-width:0.12799999"
     d=""
     id="path4714" />
  <path
     inkscape:connector-curvature="0"
     style="fill:none;stroke:#000000;stroke-width:0.12799999"
     d=""
     id="path4724" />
  <path
     inkscape:connector-curvature="0"
     style="fill:none;stroke:#000000;stroke-width:0.12799999"
     d=""
     id="path4732" />
  <path
     inkscape:connector-curvature="0"
     style="fill:none;stroke:#000000;stroke-width:0.12799999"
     d=""
     id="path4738" />
  <path
     inkscape:connector-curvature="0"
     style="fill:none;stroke:#000000;stroke-width:0.12799999"
     d=""
     id="path4748" />
  <path
     inkscape:connector-curvature="0"
     style="fill:none;stroke:#000000;stroke-width:0.12799999"
     d=""
     id="path4754" />
  <path
     inkscape:connector-curvature="0"
     style="fill:none;stroke:#000000;stroke-width:0.12799999"
     d=""
     id="path4766" />
  <path
     id="path5222"
     d=""
     style="fill:none;stroke:#000000;stroke-width:0.12799999"
     inkscape:connector-curvature="0" />
  <path
     id="path5230"
     d=""
     style="fill:none;stroke:#000000;stroke-width:0.12799999"
     inkscape:connector-curvature="0" />
  <path
     id="path5236"
     d=""
     style="fill:none;stroke:#000000;stroke-width:0.12799999"
     inkscape:connector-curvature="0" />
  <path
     id="path5244"
     d=""
     style="fill:none;stroke:#000000;stroke-width:0.12799999"
     inkscape:connector-curvature="0" />
  <path
     id="path5258"
     d=""
     style="fill:none;stroke:#000000;stroke-width:0.12799999"
     inkscape:connector-curvature="0" />
  <path
     id="path5268"
     d=""
     style="fill:none;stroke:#000000;stroke-width:0.12799999"
     inkscape:connector-curvature="0" />
  <path
     id="path5276"
     d=""
     style="fill:none;stroke:#000000;stroke-width:0.12799999"
     inkscape:connector-curvature="0" />
  <path
     id="path5288"
     d=""
     style="fill:none;stroke:#000000;stroke-width:0.12799999"
     inkscape:connector-curvature="0" />
  <path
     inkscape:connector-curvature="0"
     style="fill:none;stroke:#000000;stroke-width:0.12799999"
     d=""
     id="path5729" />
  <path
     inkscape:connector-curvature="0"
     style="fill:none;stroke:#000000;stroke-width:0.12799999"
     d=""
     id="path5737" />
  <path
     inkscape:connector-curvature="0"
     style="fill:none;stroke:#000000;stroke-width:0.12799999"
     d=""
     id="path5745" />
  <path
     inkscape:connector-curvature="0"
     style="fill:none;stroke:#000000;stroke-width:0.12799999"
     d=""
     id="path5753" />
  <path
     inkscape:connector-curvature="0"
     style="fill:none;stroke:#000000;stroke-width:0.12799999"
     d=""
     id="path5773" />
  <path
     id="path6285"
     d=""
     style="fill:none;stroke:#000000;stroke-width:0.12799999"
     inkscape:connector-curvature="0" />
  <path
     id="path6293"
     d=""
     style="fill:none;stroke:#000000;stroke-width:0.12799999"
     inkscape:connector-curvature="0" />
  <path
     id="path6299"
     d=""
     style="fill:none;stroke:#000000;stroke-width:0.12799999"
     inkscape:connector-curvature="0" />
  <path
     id="path6309"
     d=""
     style="fill:none;stroke:#000000;stroke-width:0.12799999"
     inkscape:connector-curvature="0" />
  <path
     id="path6315"
     d=""
     style="fill:none;stroke:#000000;stroke-width:0.12799999"
     inkscape:connector-curvature="0" />
  <path
     id="path6329"
     d=""
     style="fill:none;stroke:#000000;stroke-width:0.12799999"
     inkscape:connector-curvature="0" />
  <path
     id="path6337"
     d=""
     style="fill:none;stroke:#000000;stroke-width:0.12799999"
     inkscape:connector-curvature="0" />
  <path
     id="path6347"
     d=""
     style="fill:none;stroke:#000000;stroke-width:0.12799999"
     inkscape:connector-curvature="0" />
  <path
     id="path6353"
     d=""
     style="fill:none;stroke:#000000;stroke-width:0.12799999"
     inkscape:connector-curvature="0" />
  <path
     id="path6373"
     d=""
     style="fill:none;stroke:#000000;stroke-width:0.12799999"
     inkscape:connector-curvature="0" />
  <path
     id="path8377"
     d=""
     style="fill:none;stroke:#000000;stroke-width:0.12799999"
     inkscape:connector-curvature="0" />
  <path
     id="path8385"
     d=""
     style="fill:none;stroke:#000000;stroke-width:0.12799999"
     inkscape:connector-curvature="0" />
  <path
     id="path8391"
     d=""
     style="fill:none;stroke:#000000;stroke-width:0.12799999"
     inkscape:connector-curvature="0" />
  <path
     id="path8399"
     d=""
     style="fill:none;stroke:#000000;stroke-width:0.12799999"
     inkscape:connector-curvature="0" />
  <path
     id="path8411"
     d=""
     style="fill:none;stroke:#000000;stroke-width:0.12799999"
     inkscape:connector-curvature="0" />
  <path
     id="path8419"
     d=""
     style="fill:none;stroke:#000000;stroke-width:0.12799999"
     inkscape:connector-curvature="0" />
  <path
     id="path8423"
     d=""
     style="fill:none;stroke:#000000;stroke-width:0.12799999"
     inkscape:connector-curvature="0" />
  <path
     id="path8429"
     d=""
     style="fill:none;stroke:#000000;stroke-width:0.12799999"
     inkscape:connector-curvature="0" />
  <path
     id="path8433"
     d=""
     style="fill:none;stroke:#000000;stroke-width:0.12799999"
     inkscape:connector-curvature="0" />
  <path
     id="path8445"
     d=""
     style="fill:none;stroke:#000000;stroke-width:0.12799999"
     inkscape:connector-curvature="0" />
  <path
     id="path8455"
     d=""
     style="fill:none;stroke:#000000;stroke-width:0.12799999"
     inkscape:connector-curvature="0" />
  <path
     id="path8463"
     d=""
     style="fill:none;stroke:#000000;stroke-width:0.12799999"
     inkscape:connector-curvature="0" />
  <path
     id="path8473"
     d=""
     style="fill:none;stroke:#000000;stroke-width:0.12799999"
     inkscape:connector-curvature="0" />
  <path
     id="path8483"
     d=""
     style="fill:none;stroke:#000000;stroke-width:0.12799999"
     inkscape:connector-curvature="0" />
  <path
     id="path8497"
     d=""
     style="fill:none;stroke:#000000;stroke-width:0.12799999"
     inkscape:connector-curvature="0" />
  <path
     inkscape:connector-curvature="0"
     style="fill:none;stroke:#000000;stroke-width:0.12799999"
     d=""
     id="path9180" />
  <path
     inkscape:connector-curvature="0"
     style="fill:none;stroke:#000000;stroke-width:0.12799999"
     d=""
     id="path9188" />
  <path
     inkscape:connector-curvature="0"
     style="fill:none;stroke:#000000;stroke-width:0.12799999"
     d=""
     id="path9196" />
  <path
     inkscape:connector-curvature="0"
     style="fill:none;stroke:#000000;stroke-width:0.12799999"
     d=""
     id="path9206" />
  <path
     inkscape:connector-curvature="0"
     style="fill:none;stroke:#000000;stroke-width:0.12799999"
     d=""
     id="path9220" />
  <path
     inkscape:connector-curvature="0"
     style="fill:none;stroke:#000000;stroke-width:0.12799999"
     d=""
     id="path9226" />
  <path
     inkscape:connector-curvature="0"
     style="fill:none;stroke:#000000;stroke-width:0.12799999"
     d=""
     id="path9238" />
  <path
     id="path9767"
     d=""
     style="fill:none;stroke:#000000;stroke-width:0.12799999"
     inkscape:connector-curvature="0" />
  <path
     id="path9775"
     d=""
     style="fill:none;stroke:#000000;stroke-width:0.12799999"
     inkscape:connector-curvature="0" />
  <path
     id="path9781"
     d=""
     style="fill:none;stroke:#000000;stroke-width:0.12799999"
     inkscape:connector-curvature="0" />
  <path
     id="path9789"
     d=""
     style="fill:none;stroke:#000000;stroke-width:0.12799999"
     inkscape:connector-curvature="0" />
  <path
     id="path9809"
     d=""
     style="fill:none;stroke:#000000;stroke-width:0.12799999"
     inkscape:connector-curvature="0" />
  <path
     id="path9819"
     d=""
     style="fill:none;stroke:#000000;stroke-width:0.12799999"
     inkscape:connector-curvature="0" />
  <path
     id="path9837"
     d=""
     style="fill:none;stroke:#000000;stroke-width:0.12799999"
     inkscape:connector-curvature="0" />
  <path
     id="path9845"
     d=""
     style="fill:none;stroke:#000000;stroke-width:0.12799999"
     inkscape:connector-curvature="0" />
  <path
     id="path9861"
     d=""
     style="fill:none;stroke:#000000;stroke-width:0.12799999"
     inkscape:connector-curvature="0" />
  <path
     id="path9885"
     d=""
     style="fill:none;stroke:#000000;stroke-width:0.12799999"
     inkscape:connector-curvature="0" />
  <path
     inkscape:connector-curvature="0"
     style="fill:none;stroke:#000000;stroke-width:0.12799999"
     d=""
     id="path10671" />
  <path
     inkscape:connector-curvature="0"
     style="fill:none;stroke:#000000;stroke-width:0.12799999"
     d=""
     id="path10679" />
  <path
     inkscape:connector-curvature="0"
     style="fill:none;stroke:#000000;stroke-width:0.12799999"
     d=""
     id="path10687" />
  <path
     inkscape:connector-curvature="0"
     style="fill:none;stroke:#000000;stroke-width:0.12799999"
     d=""
     id="path10697" />
  <path
     inkscape:connector-curvature="0"
     style="fill:none;stroke:#000000;stroke-width:0.12799999"
     d=""
     id="path10705" />
  <path
     inkscape:connector-curvature="0"
     style="fill:none;stroke:#000000;stroke-width:0.12799999"
     d=""
     id="path10721" />
  <path
     inkscape:connector-curvature="0"
     style="fill:none;stroke:#000000;stroke-width:0.12799999"
     d=""
     id="path10729" />
  <path
     id="path11255"
     d=""
     style="fill:none;stroke:#000000;stroke-width:0.152"
     inkscape:connector-curvature="0" />
  <path
     id="path11265"
     d=""
     style="fill:none;stroke:#000000;stroke-width:0.152"
     inkscape:connector-curvature="0" />
  <path
     id="path11277"
     d=""
     style="fill:none;stroke:#000000;stroke-width:0.152"
     inkscape:connector-curvature="0" />
  <g
     inkscape:groupmode="layer"
     id="layer2"
     inkscape:label="Schrift"
     style="display:inline">
    <g
       id="g6724">
      <g
         inkscape:label="Hershey Text"
         transform="matrix(0,-0.75,0.75,0,64.753909,287.78594)"
         id="g5579">
        <path
           inkscape:connector-curvature="0"
           style="fill:none;stroke:#000000"
           d="M -8,-12 -8,9 M -8,-12 0,9 M 8,-12 0,9 M 8,-12 8,9"
           transform="translate(12,0)"
           id="path5581" />
        <path
           inkscape:connector-curvature="0"
           style="fill:none;stroke:#000000"
           d="M -6,1 6,1 6,-1 5,-3 4,-4 2,-5 l -3,0 -2,1 -2,2 -1,3 0,2 1,3 2,2 2,1 3,0 2,-1 2,-2"
           transform="translate(33,0)"
           id="path5583" />
        <path
           inkscape:connector-curvature="0"
           style="fill:none;stroke:#000000"
           d="m -1,-12 1,1 1,-1 -1,-1 -1,1 m 1,7 0,14"
           transform="translate(46,0)"
           id="path5585" />
        <path
           inkscape:connector-curvature="0"
           style="fill:none;stroke:#000000"
           d=""
           transform="translate(58,0)"
           id="path5587" />
        <path
           inkscape:connector-curvature="0"
           style="fill:none;stroke:#000000"
           d="M -8,-12 -8,9 M -8,-12 0,9 M 8,-12 0,9 M 8,-12 8,9"
           transform="translate(78,0)"
           id="path5589" />
        <path
           inkscape:connector-curvature="0"
           style="fill:none;stroke:#000000"
           d="M 6,-5 6,9 M 6,-2 4,-4 2,-5 l -3,0 -2,1 -2,2 -1,3 0,2 1,3 2,2 2,1 3,0 2,-1 2,-2"
           transform="translate(99,0)"
           id="path5591" />
        <path
           inkscape:connector-curvature="0"
           style="fill:none;stroke:#000000"
           d="m -11,-5 0,14 m 0,-10 3,-3 2,-1 3,0 2,1 1,3 0,10 m 0,-10 3,-3 2,-1 3,0 2,1 1,3 0,10"
           transform="translate(124,0)"
           id="path5593" />
        <path
           inkscape:connector-curvature="0"
           style="fill:none;stroke:#000000"
           d="M 6,-5 6,9 M 6,-2 4,-4 2,-5 l -3,0 -2,1 -2,2 -1,3 0,2 1,3 2,2 2,1 3,0 2,-1 2,-2"
           transform="translate(148,0)"
           id="path5595" />
        <path
           inkscape:connector-curvature="0"
           style="fill:none;stroke:#000000"
           d=""
           transform="translate(166,0)"
           id="path5597" />
        <path
           inkscape:connector-curvature="0"
           style="fill:none;stroke:#000000"
           d="m -1,-12 1,1 1,-1 -1,-1 -1,1 m 1,7 0,14"
           transform="translate(178,0)"
           id="path5599" />
        <path
           inkscape:connector-curvature="0"
           style="fill:none;stroke:#000000"
           d="m 6,-2 -1,-2 -3,-1 -3,0 -3,1 -1,2 1,2 2,1 L 3,2 5,3 6,5 6,6 5,8 2,9 -1,9 -4,8 -5,6"
           transform="translate(190,0)"
           id="path5601" />
        <path
           inkscape:connector-curvature="0"
           style="fill:none;stroke:#000000"
           d=""
           transform="translate(207,0)"
           id="path5603" />
        <path
           inkscape:connector-curvature="0"
           style="fill:none;stroke:#000000"
           d="M 6,-5 6,9 M 6,-2 4,-4 2,-5 l -3,0 -2,1 -2,2 -1,3 0,2 1,3 2,2 2,1 3,0 2,-1 2,-2"
           transform="translate(224,0)"
           id="path5605" />
      </g>
      <g
         id="g6007"
         transform="matrix(0,-0.75,0.75,0,87.490869,268.28594)"
         inkscape:label="Hershey Text">
        <path
           id="path6009"
           transform="translate(5,0)"
           d="m 5,-12 -2,0 -2,1 -1,3 0,17 m -3,-14 7,0"
           style="fill:none;stroke:#000000"
           inkscape:connector-curvature="0" />
        <path
           id="path6011"
           transform="translate(19,0)"
           d="m -3,-5 0,14 m 0,-8 1,-3 2,-2 2,-1 3,0"
           style="fill:none;stroke:#000000"
           inkscape:connector-curvature="0" />
        <path
           id="path6013"
           transform="translate(34,0)"
           d="M -6,1 6,1 6,-1 5,-3 4,-4 2,-5 l -3,0 -2,1 -2,2 -1,3 0,2 1,3 2,2 2,1 3,0 2,-1 2,-2"
           style="fill:none;stroke:#000000"
           inkscape:connector-curvature="0" />
        <path
           id="path6015"
           transform="translate(47,0)"
           d="m -1,-12 1,1 1,-1 -1,-1 -1,1 m 1,7 0,14"
           style="fill:none;stroke:#000000"
           inkscape:connector-curvature="0" />
        <path
           id="path6017"
           transform="translate(55,0)"
           d="M 0,-12 0,9"
           style="fill:none;stroke:#000000"
           inkscape:connector-curvature="0" />
        <path
           id="path6019"
           transform="translate(68,0)"
           d="M 6,-5 6,9 M 6,-2 4,-4 2,-5 l -3,0 -2,1 -2,2 -1,3 0,2 1,3 2,2 2,1 3,0 2,-1 2,-2"
           style="fill:none;stroke:#000000"
           inkscape:connector-curvature="0" />
        <path
           id="path6021"
           transform="translate(87,0)"
           d="M -5,-5 -5,5 -4,8 -2,9 1,9 3,8 6,5 M 6,-5 6,9"
           style="fill:none;stroke:#000000"
           inkscape:connector-curvature="0" />
        <path
           id="path6023"
           transform="translate(102,0)"
           d="m 5,-12 -2,0 -2,1 -1,3 0,17 m -3,-14 7,0"
           style="fill:none;stroke:#000000"
           inkscape:connector-curvature="0" />
        <path
           id="path6025"
           transform="translate(118,0)"
           d="M -6,1 6,1 6,-1 5,-3 4,-4 2,-5 l -3,0 -2,1 -2,2 -1,3 0,2 1,3 2,2 2,1 3,0 2,-1 2,-2"
           style="fill:none;stroke:#000000"
           inkscape:connector-curvature="0" />
        <path
           id="path6027"
           transform="translate(136,0)"
           d="m -5,-5 0,14 m 0,-10 3,-3 2,-1 3,0 2,1 1,3 0,10"
           style="fill:none;stroke:#000000"
           inkscape:connector-curvature="0" />
        <path
           id="path6029"
           transform="translate(155,0)"
           d="M 6,-12 6,9 M 6,-2 4,-4 2,-5 l -3,0 -2,1 -2,2 -1,3 0,2 1,3 2,2 2,1 3,0 2,-1 2,-2"
           style="fill:none;stroke:#000000"
           inkscape:connector-curvature="0" />
        <path
           id="path6031"
           transform="translate(174,0)"
           d="M -6,1 6,1 6,-1 5,-3 4,-4 2,-5 l -3,0 -2,1 -2,2 -1,3 0,2 1,3 2,2 2,1 3,0 2,-1 2,-2"
           style="fill:none;stroke:#000000"
           inkscape:connector-curvature="0" />
      </g>
      <g
         inkscape:label="Hershey Text"
         transform="matrix(0,-0.75,0.75,0,109.85284,293.78594)"
         id="g6459">
        <path
           inkscape:connector-curvature="0"
           style="fill:none;stroke:#000000"
           d="m -7,-12 0,21 m 0,-21 7,0 3,1 2,2 1,2 1,3 L 7,1 6,4 5,6 3,8 0,9 -7,9"
           transform="translate(11,0)"
           id="path6461" />
        <path
           inkscape:connector-curvature="0"
           style="fill:none;stroke:#000000"
           d="M 6,-5 6,9 M 6,-2 4,-4 2,-5 l -3,0 -2,1 -2,2 -1,3 0,2 1,3 2,2 2,1 3,0 2,-1 2,-2"
           transform="translate(30,0)"
           id="path6463" />
        <path
           inkscape:connector-curvature="0"
           style="fill:none;stroke:#000000"
           d="M -5,-5 -5,5 -4,8 -2,9 1,9 3,8 6,5 M 6,-5 6,9"
           transform="translate(49,0)"
           id="path6465" />
        <path
           inkscape:connector-curvature="0"
           style="fill:none;stroke:#000000"
           d="m -11,-5 0,14 m 0,-10 3,-3 2,-1 3,0 2,1 1,3 0,10 m 0,-10 3,-3 2,-1 3,0 2,1 1,3 0,10"
           transform="translate(74,0)"
           id="path6467" />
        <path
           inkscape:connector-curvature="0"
           style="fill:none;stroke:#000000"
           d="m -1,-5 -2,1 -2,2 -1,3 0,2 1,3 2,2 2,1 L 2,9 4,8 6,6 7,3 7,1 6,-2 4,-4 2,-5 -1,-5"
           transform="translate(98,0)"
           id="path6469" />
        <path
           inkscape:connector-curvature="0"
           style="fill:none;stroke:#000000"
           d="m 6,-2 -1,-2 -3,-1 -3,0 -3,1 -1,2 1,2 2,1 L 3,2 5,3 6,5 6,6 5,8 2,9 -1,9 -4,8 -5,6"
           transform="translate(116,0)"
           id="path6471" />
        <path
           inkscape:connector-curvature="0"
           style="fill:none;stroke:#000000"
           d="M -6,1 6,1 6,-1 5,-3 4,-4 2,-5 l -3,0 -2,1 -2,2 -1,3 0,2 1,3 2,2 2,1 3,0 2,-1 2,-2"
           transform="translate(134,0)"
           id="path6473" />
        <path
           inkscape:connector-curvature="0"
           style="fill:none;stroke:#000000"
           d="m -3,-5 0,14 m 0,-8 1,-3 2,-2 2,-1 3,0"
           transform="translate(150,0)"
           id="path6475" />
        <path
           inkscape:connector-curvature="0"
           style="fill:none;stroke:#000000"
           d=""
           transform="translate(164,0)"
           id="path6477" />
        <path
           inkscape:connector-curvature="0"
           style="fill:none;stroke:#000000"
           d="M -7,-12 -7,9 M 7,-12 7,9 M -7,-2 7,-2"
           transform="translate(183,0)"
           id="path6479" />
        <path
           inkscape:connector-curvature="0"
           style="fill:none;stroke:#000000"
           d="M -6,1 6,1 6,-1 5,-3 4,-4 2,-5 l -3,0 -2,1 -2,2 -1,3 0,2 1,3 2,2 2,1 3,0 2,-1 2,-2"
           transform="translate(203,0)"
           id="path6481" />
        <path
           inkscape:connector-curvature="0"
           style="fill:none;stroke:#000000"
           d="m -5,-12 0,21 m 0,-10 3,-3 2,-1 3,0 2,1 1,3 0,10"
           transform="translate(221,0)"
           id="path6483" />
        <path
           inkscape:connector-curvature="0"
           style="fill:none;stroke:#000000"
           d="m -5,-5 0,14 m 0,-10 3,-3 2,-1 3,0 2,1 1,3 0,10"
           transform="translate(240,0)"
           id="path6485" />
      </g>
    </g>
  </g>
  <path
     id="path11287"
     d=""
     style="fill:none;stroke:#000000;stroke-width:0.152"
     inkscape:connector-curvature="0" />
  <path
     id="path11297"
     d=""
     style="fill:none;stroke:#000000;stroke-width:0.152"
     inkscape:connector-curvature="0" />
  <path
     id="path11307"
     d=""
     style="fill:none;stroke:#000000;stroke-width:0.152"
     inkscape:connector-curvature="0" />
  <path
     id="path11317"
     d=""
     style="fill:none;stroke:#000000;stroke-width:0.152"
     inkscape:connector-curvature="0" />
  <path
     id="path11337"
     d=""
     style="fill:none;stroke:#000000;stroke-width:0.152"
     inkscape:connector-curvature="0" />
  <path
     id="path11355"
     d=""
     style="fill:none;stroke:#000000;stroke-width:0.152"
     inkscape:connector-curvature="0" />
  <path
     id="path11365"
     d=""
     style="fill:none;stroke:#000000;stroke-width:0.152"
     inkscape:connector-curvature="0" />
  <path
     id="path11369"
     d=""
     style="fill:none;stroke:#000000;stroke-width:0.152"
     inkscape:connector-curvature="0" />
  <path
     id="path11379"
     d=""
     style="fill:none;stroke:#000000;stroke-width:0.152"
     inkscape:connector-curvature="0" />
  <path
     id="path11385"
     d=""
     style="fill:none;stroke:#000000;stroke-width:0.152"
     inkscape:connector-curvature="0" />
  <path
     style="fill:none;stroke:#000000;stroke-width:0.72000003"
     d=""
     id="path3494"
     inkscape:connector-curvature="0" />
</svg>
