<?xml version="1.0" encoding="UTF-8" standalone="no"?>
<!-- Created with Inkscape (http://www.inkscape.org/) -->

<svg
   xmlns:dc="http://purl.org/dc/elements/1.1/"
   xmlns:cc="http://creativecommons.org/ns#"
   xmlns:rdf="http://www.w3.org/1999/02/22-rdf-syntax-ns#"
   xmlns:svg="http://www.w3.org/2000/svg"
   xmlns="http://www.w3.org/2000/svg"
   xmlns:sodipodi="http://sodipodi.sourceforge.net/DTD/sodipodi-0.dtd"
   xmlns:inkscape="http://www.inkscape.org/namespaces/inkscape"
   width="177.16534"
   height="496.06299"
   id="svg2"
   version="1.1"
   inkscape:version="0.48.1 r9760"
   sodipodi:docname="froheOsternShrift.svg"
   style="display:inline">
  <sodipodi:namedview
     id="base"
     pagecolor="#ffffff"
     bordercolor="#666666"
     borderopacity="1.0"
     inkscape:pageopacity="0.0"
     inkscape:pageshadow="2"
     inkscape:zoom="0.97508031"
     inkscape:cx="461.69148"
     inkscape:cy="278.31805"
     inkscape:document-units="mm"
     inkscape:current-layer="layer2"
     showgrid="false"
     inkscape:window-width="1280"
     inkscape:window-height="752"
     inkscape:window-x="0"
     inkscape:window-y="0"
     inkscape:window-maximized="0"
     units="mm" />
  <defs
     id="defs4">
    <inkscape:perspective
       sodipodi:type="inkscape:persp3d"
       inkscape:vp_x="205.5118 : 111.61417 : 1"
       inkscape:vp_y="0 : 1000 : 0"
       inkscape:vp_z="382.67714 : 111.61417 : 1"
       inkscape:persp3d-origin="294.09447 : 28.937008 : 1"
       id="perspective4835" />
    <symbol
       id="*Paper_Space0" />
    <symbol
       id="*Paper_Space" />
    <symbol
       id="*Model_Space" />
    <marker
       orient="auto"
       id="DistanceX"
       style="overflow:visible"
       refX="0.0"
       refY="0.0">
      <path
         id="path6903"
         d="M 3,-3 L -3,3 M 0,-5 L  0,5"
         style="stroke:#000000; stroke-width:0.5" />
    </marker>
    <clipPath
       id="clipPath3488"
       clipPathUnits="userSpaceOnUse">
      <path
         id="path3490"
         d="m 603.684,386.029 53.237,0 0,-230.369 -53.237,0 0,230.369 z" />
    </clipPath>
    <clipPath
       id="clipPath3458"
       clipPathUnits="userSpaceOnUse">
      <path
         id="path3460"
         d="m 411.479,497.648 83.344,0 0,-321.16 -83.344,0 0,321.16 z" />
    </clipPath>
    <clipPath
       id="clipPath3440"
       clipPathUnits="userSpaceOnUse">
      <path
         id="path3442"
         d="m 313.062,410.094 56.59,0 0,-231.745 -56.59,0 0,231.745 z" />
    </clipPath>
    <clipPath
       id="clipPath3416"
       clipPathUnits="userSpaceOnUse">
      <path
         id="path3418"
         d="m 191.904,394.277 50.73,0 0,-233.948 -50.73,0 0,233.948 z" />
    </clipPath>
  </defs>
  <metadata
     id="metadata7">
    <rdf:RDF>
      <cc:Work
         rdf:about="">
        <dc:format>image/svg+xml</dc:format>
        <dc:type
           rdf:resource="http://purl.org/dc/dcmitype/StillImage" />
        <dc:title></dc:title>
      </cc:Work>
    </rdf:RDF>
  </metadata>
  <g
     inkscape:label="Layer 1"
     inkscape:groupmode="layer"
     id="layer1"
     transform="translate(0,-556.29913)"
     style="display:inline" />
  <path
     inkscape:connector-curvature="0"
     style="fill:none;stroke:#000000;stroke-width:0.04"
     d=""
     id="path4962" />
  <path
     inkscape:connector-curvature="0"
     style="fill:none;stroke:#000000;stroke-width:0.04"
     d=""
     id="path4966" />
  <path
     inkscape:connector-curvature="0"
     style="fill:none;stroke:#000000;stroke-width:0.04"
     d=""
     id="path4978" />
  <path
     inkscape:connector-curvature="0"
     style="fill:none;stroke:#000000;stroke-width:0.04"
     d=""
     id="path4988" />
  <path
     inkscape:connector-curvature="0"
     style="fill:none;stroke:#000000;stroke-width:0.04"
     d=""
     id="path5000" />
  <path
     inkscape:connector-curvature="0"
     style="fill:none;stroke:#000000;stroke-width:0.04"
     d=""
     id="path5014" />
  <path
     inkscape:connector-curvature="0"
     style="fill:none;stroke:#000000;stroke-width:0.04"
     d=""
     id="path5022" />
  <path
     inkscape:connector-curvature="0"
     style="fill:none;stroke:#000000;stroke-width:0.04"
     d=""
     id="path5030" />
  <path
     inkscape:connector-curvature="0"
     style="fill:none;stroke:#000000;stroke-width:0.04"
     d=""
     id="path5042" />
  <path
     inkscape:connector-curvature="0"
     style="fill:none;stroke:#000000;stroke-width:0.04"
     d=""
     id="path5052" />
  <path
     inkscape:connector-curvature="0"
     style="fill:none;stroke:#000000;stroke-width:0.04"
     d=""
     id="path5068" />
  <path
     inkscape:connector-curvature="0"
     style="fill:none;stroke:#000000;stroke-width:0.04"
     d=""
     id="path5074" />
  <path
     inkscape:connector-curvature="0"
     style="fill:none;stroke:#000000;stroke-width:0.04"
     d=""
     id="path5096" />
  <path
     inkscape:connector-curvature="0"
     style="fill:none;stroke:#000000;stroke-width:0.04"
     d=""
     id="path5108" />
  <path
     inkscape:connector-curvature="0"
     style="fill:none;stroke:#000000;stroke-width:0.04"
     d=""
     id="path5114" />
  <path
     inkscape:connector-curvature="0"
     style="fill:none;stroke:#000000;stroke-width:0.04"
     d=""
     id="path5126" />
  <path
     inkscape:connector-curvature="0"
     style="fill:none;stroke:#000000;stroke-width:0.04"
     d=""
     id="path5132" />
  <path
     inkscape:connector-curvature="0"
     style="fill:none;stroke:#000000;stroke-width:0.04"
     d=""
     id="path5146" />
  <path
     inkscape:connector-curvature="0"
     style="fill:none;stroke:#000000;stroke-width:0.04"
     d=""
     id="path5154" />
  <path
     inkscape:connector-curvature="0"
     style="fill:none;stroke:#000000;stroke-width:0.04"
     d=""
     id="path5178" />
  <path
     id="path3281"
     d=""
     style="fill:none;stroke:#000000;stroke-width:0.12799999"
     inkscape:connector-curvature="0" />
  <path
     id="path3289"
     d=""
     style="fill:none;stroke:#000000;stroke-width:0.12799999"
     inkscape:connector-curvature="0" />
  <path
     id="path3297"
     d=""
     style="fill:none;stroke:#000000;stroke-width:0.12799999"
     inkscape:connector-curvature="0" />
  <path
     id="path3305"
     d=""
     style="fill:none;stroke:#000000;stroke-width:0.12799999"
     inkscape:connector-curvature="0" />
  <path
     id="path3315"
     d=""
     style="fill:none;stroke:#000000;stroke-width:0.12799999"
     inkscape:connector-curvature="0" />
  <path
     id="path3321"
     d=""
     style="fill:none;stroke:#000000;stroke-width:0.12799999"
     inkscape:connector-curvature="0" />
  <path
     id="path3325"
     d=""
     style="fill:none;stroke:#000000;stroke-width:0.12799999"
     inkscape:connector-curvature="0" />
  <path
     id="path3335"
     d=""
     style="fill:none;stroke:#000000;stroke-width:0.12799999"
     inkscape:connector-curvature="0" />
  <path
     id="path3343"
     d=""
     style="fill:none;stroke:#000000;stroke-width:0.12799999"
     inkscape:connector-curvature="0" />
  <path
     id="path3353"
     d=""
     style="fill:none;stroke:#000000;stroke-width:0.12799999"
     inkscape:connector-curvature="0" />
  <path
     id="path3359"
     d=""
     style="fill:none;stroke:#000000;stroke-width:0.12799999"
     inkscape:connector-curvature="0" />
  <path
     id="path3365"
     d=""
     style="fill:none;stroke:#000000;stroke-width:0.12799999"
     inkscape:connector-curvature="0" />
  <path
     id="path3371"
     d=""
     style="fill:none;stroke:#000000;stroke-width:0.12799999"
     inkscape:connector-curvature="0" />
  <path
     id="path3383"
     d=""
     style="fill:none;stroke:#000000;stroke-width:0.12799999"
     inkscape:connector-curvature="0" />
  <path
     id="path3389"
     d=""
     style="fill:none;stroke:#000000;stroke-width:0.12799999"
     inkscape:connector-curvature="0" />
  <path
     inkscape:connector-curvature="0"
     style="fill:none;stroke:#000000;stroke-width:0.12799999"
     d=""
     id="path3798" />
  <path
     inkscape:connector-curvature="0"
     style="fill:none;stroke:#000000;stroke-width:0.12799999"
     d=""
     id="path3806" />
  <path
     inkscape:connector-curvature="0"
     style="fill:none;stroke:#000000;stroke-width:0.12799999"
     d=""
     id="path3812" />
  <path
     inkscape:connector-curvature="0"
     style="fill:none;stroke:#000000;stroke-width:0.12799999"
     d=""
     id="path3820" />
  <path
     inkscape:connector-curvature="0"
     style="fill:none;stroke:#000000;stroke-width:0.12799999"
     d=""
     id="path3834" />
  <path
     inkscape:connector-curvature="0"
     style="fill:none;stroke:#000000;stroke-width:0.12799999"
     d=""
     id="path3840" />
  <path
     inkscape:connector-curvature="0"
     style="fill:none;stroke:#000000;stroke-width:0.12799999"
     d=""
     id="path3848" />
  <path
     inkscape:connector-curvature="0"
     style="fill:none;stroke:#000000;stroke-width:0.12799999"
     d=""
     id="path3856" />
  <path
     inkscape:connector-curvature="0"
     style="fill:none;stroke:#000000;stroke-width:0.12799999"
     d=""
     id="path3862" />
  <path
     inkscape:connector-curvature="0"
     style="fill:none;stroke:#000000;stroke-width:0.12799999"
     d=""
     id="path3868" />
  <path
     id="path4226"
     d=""
     style="fill:none;stroke:#000000;stroke-width:0.12799999"
     inkscape:connector-curvature="0" />
  <path
     id="path4234"
     d=""
     style="fill:none;stroke:#000000;stroke-width:0.12799999"
     inkscape:connector-curvature="0" />
  <path
     id="path4240"
     d=""
     style="fill:none;stroke:#000000;stroke-width:0.12799999"
     inkscape:connector-curvature="0" />
  <path
     id="path4248"
     d=""
     style="fill:none;stroke:#000000;stroke-width:0.12799999"
     inkscape:connector-curvature="0" />
  <path
     id="path4262"
     d=""
     style="fill:none;stroke:#000000;stroke-width:0.12799999"
     inkscape:connector-curvature="0" />
  <path
     id="path4268"
     d=""
     style="fill:none;stroke:#000000;stroke-width:0.12799999"
     inkscape:connector-curvature="0" />
  <path
     id="path4276"
     d=""
     style="fill:none;stroke:#000000;stroke-width:0.12799999"
     inkscape:connector-curvature="0" />
  <path
     id="path4284"
     d=""
     style="fill:none;stroke:#000000;stroke-width:0.12799999"
     inkscape:connector-curvature="0" />
  <path
     id="path4290"
     d=""
     style="fill:none;stroke:#000000;stroke-width:0.12799999"
     inkscape:connector-curvature="0" />
  <path
     id="path4296"
     d=""
     style="fill:none;stroke:#000000;stroke-width:0.12799999"
     inkscape:connector-curvature="0" />
  <path
     inkscape:connector-curvature="0"
     style="fill:none;stroke:#000000;stroke-width:0.12799999"
     d=""
     id="path4678" />
  <path
     inkscape:connector-curvature="0"
     style="fill:none;stroke:#000000;stroke-width:0.12799999"
     d=""
     id="path4686" />
  <path
     inkscape:connector-curvature="0"
     style="fill:none;stroke:#000000;stroke-width:0.12799999"
     d=""
     id="path4692" />
  <path
     inkscape:connector-curvature="0"
     style="fill:none;stroke:#000000;stroke-width:0.12799999"
     d=""
     id="path4700" />
  <path
     inkscape:connector-curvature="0"
     style="fill:none;stroke:#000000;stroke-width:0.12799999"
     d=""
     id="path4714" />
  <path
     inkscape:connector-curvature="0"
     style="fill:none;stroke:#000000;stroke-width:0.12799999"
     d=""
     id="path4724" />
  <path
     inkscape:connector-curvature="0"
     style="fill:none;stroke:#000000;stroke-width:0.12799999"
     d=""
     id="path4732" />
  <path
     inkscape:connector-curvature="0"
     style="fill:none;stroke:#000000;stroke-width:0.12799999"
     d=""
     id="path4738" />
  <path
     inkscape:connector-curvature="0"
     style="fill:none;stroke:#000000;stroke-width:0.12799999"
     d=""
     id="path4748" />
  <path
     inkscape:connector-curvature="0"
     style="fill:none;stroke:#000000;stroke-width:0.12799999"
     d=""
     id="path4754" />
  <path
     inkscape:connector-curvature="0"
     style="fill:none;stroke:#000000;stroke-width:0.12799999"
     d=""
     id="path4766" />
  <path
     id="path5222"
     d=""
     style="fill:none;stroke:#000000;stroke-width:0.12799999"
     inkscape:connector-curvature="0" />
  <path
     id="path5230"
     d=""
     style="fill:none;stroke:#000000;stroke-width:0.12799999"
     inkscape:connector-curvature="0" />
  <path
     id="path5236"
     d=""
     style="fill:none;stroke:#000000;stroke-width:0.12799999"
     inkscape:connector-curvature="0" />
  <path
     id="path5244"
     d=""
     style="fill:none;stroke:#000000;stroke-width:0.12799999"
     inkscape:connector-curvature="0" />
  <path
     id="path5258"
     d=""
     style="fill:none;stroke:#000000;stroke-width:0.12799999"
     inkscape:connector-curvature="0" />
  <path
     id="path5268"
     d=""
     style="fill:none;stroke:#000000;stroke-width:0.12799999"
     inkscape:connector-curvature="0" />
  <path
     id="path5276"
     d=""
     style="fill:none;stroke:#000000;stroke-width:0.12799999"
     inkscape:connector-curvature="0" />
  <path
     id="path5288"
     d=""
     style="fill:none;stroke:#000000;stroke-width:0.12799999"
     inkscape:connector-curvature="0" />
  <path
     inkscape:connector-curvature="0"
     style="fill:none;stroke:#000000;stroke-width:0.12799999"
     d=""
     id="path5729" />
  <path
     inkscape:connector-curvature="0"
     style="fill:none;stroke:#000000;stroke-width:0.12799999"
     d=""
     id="path5737" />
  <path
     inkscape:connector-curvature="0"
     style="fill:none;stroke:#000000;stroke-width:0.12799999"
     d=""
     id="path5745" />
  <path
     inkscape:connector-curvature="0"
     style="fill:none;stroke:#000000;stroke-width:0.12799999"
     d=""
     id="path5753" />
  <path
     inkscape:connector-curvature="0"
     style="fill:none;stroke:#000000;stroke-width:0.12799999"
     d=""
     id="path5773" />
  <path
     id="path6285"
     d=""
     style="fill:none;stroke:#000000;stroke-width:0.12799999"
     inkscape:connector-curvature="0" />
  <path
     id="path6293"
     d=""
     style="fill:none;stroke:#000000;stroke-width:0.12799999"
     inkscape:connector-curvature="0" />
  <path
     id="path6299"
     d=""
     style="fill:none;stroke:#000000;stroke-width:0.12799999"
     inkscape:connector-curvature="0" />
  <path
     id="path6309"
     d=""
     style="fill:none;stroke:#000000;stroke-width:0.12799999"
     inkscape:connector-curvature="0" />
  <path
     id="path6315"
     d=""
     style="fill:none;stroke:#000000;stroke-width:0.12799999"
     inkscape:connector-curvature="0" />
  <path
     id="path6329"
     d=""
     style="fill:none;stroke:#000000;stroke-width:0.12799999"
     inkscape:connector-curvature="0" />
  <path
     id="path6337"
     d=""
     style="fill:none;stroke:#000000;stroke-width:0.12799999"
     inkscape:connector-curvature="0" />
  <path
     id="path6347"
     d=""
     style="fill:none;stroke:#000000;stroke-width:0.12799999"
     inkscape:connector-curvature="0" />
  <path
     id="path6353"
     d=""
     style="fill:none;stroke:#000000;stroke-width:0.12799999"
     inkscape:connector-curvature="0" />
  <path
     id="path6373"
     d=""
     style="fill:none;stroke:#000000;stroke-width:0.12799999"
     inkscape:connector-curvature="0" />
  <path
     id="path8377"
     d=""
     style="fill:none;stroke:#000000;stroke-width:0.12799999"
     inkscape:connector-curvature="0" />
  <path
     id="path8385"
     d=""
     style="fill:none;stroke:#000000;stroke-width:0.12799999"
     inkscape:connector-curvature="0" />
  <path
     id="path8391"
     d=""
     style="fill:none;stroke:#000000;stroke-width:0.12799999"
     inkscape:connector-curvature="0" />
  <path
     id="path8399"
     d=""
     style="fill:none;stroke:#000000;stroke-width:0.12799999"
     inkscape:connector-curvature="0" />
  <path
     id="path8411"
     d=""
     style="fill:none;stroke:#000000;stroke-width:0.12799999"
     inkscape:connector-curvature="0" />
  <path
     id="path8419"
     d=""
     style="fill:none;stroke:#000000;stroke-width:0.12799999"
     inkscape:connector-curvature="0" />
  <path
     id="path8423"
     d=""
     style="fill:none;stroke:#000000;stroke-width:0.12799999"
     inkscape:connector-curvature="0" />
  <path
     id="path8429"
     d=""
     style="fill:none;stroke:#000000;stroke-width:0.12799999"
     inkscape:connector-curvature="0" />
  <path
     id="path8433"
     d=""
     style="fill:none;stroke:#000000;stroke-width:0.12799999"
     inkscape:connector-curvature="0" />
  <path
     id="path8445"
     d=""
     style="fill:none;stroke:#000000;stroke-width:0.12799999"
     inkscape:connector-curvature="0" />
  <path
     id="path8455"
     d=""
     style="fill:none;stroke:#000000;stroke-width:0.12799999"
     inkscape:connector-curvature="0" />
  <path
     id="path8463"
     d=""
     style="fill:none;stroke:#000000;stroke-width:0.12799999"
     inkscape:connector-curvature="0" />
  <path
     id="path8473"
     d=""
     style="fill:none;stroke:#000000;stroke-width:0.12799999"
     inkscape:connector-curvature="0" />
  <path
     id="path8483"
     d=""
     style="fill:none;stroke:#000000;stroke-width:0.12799999"
     inkscape:connector-curvature="0" />
  <path
     id="path8497"
     d=""
     style="fill:none;stroke:#000000;stroke-width:0.12799999"
     inkscape:connector-curvature="0" />
  <path
     inkscape:connector-curvature="0"
     style="fill:none;stroke:#000000;stroke-width:0.12799999"
     d=""
     id="path9180" />
  <path
     inkscape:connector-curvature="0"
     style="fill:none;stroke:#000000;stroke-width:0.12799999"
     d=""
     id="path9188" />
  <path
     inkscape:connector-curvature="0"
     style="fill:none;stroke:#000000;stroke-width:0.12799999"
     d=""
     id="path9196" />
  <path
     inkscape:connector-curvature="0"
     style="fill:none;stroke:#000000;stroke-width:0.12799999"
     d=""
     id="path9206" />
  <path
     inkscape:connector-curvature="0"
     style="fill:none;stroke:#000000;stroke-width:0.12799999"
     d=""
     id="path9220" />
  <path
     inkscape:connector-curvature="0"
     style="fill:none;stroke:#000000;stroke-width:0.12799999"
     d=""
     id="path9226" />
  <path
     inkscape:connector-curvature="0"
     style="fill:none;stroke:#000000;stroke-width:0.12799999"
     d=""
     id="path9238" />
  <path
     id="path9767"
     d=""
     style="fill:none;stroke:#000000;stroke-width:0.12799999"
     inkscape:connector-curvature="0" />
  <path
     id="path9775"
     d=""
     style="fill:none;stroke:#000000;stroke-width:0.12799999"
     inkscape:connector-curvature="0" />
  <path
     id="path9781"
     d=""
     style="fill:none;stroke:#000000;stroke-width:0.12799999"
     inkscape:connector-curvature="0" />
  <path
     id="path9789"
     d=""
     style="fill:none;stroke:#000000;stroke-width:0.12799999"
     inkscape:connector-curvature="0" />
  <path
     id="path9809"
     d=""
     style="fill:none;stroke:#000000;stroke-width:0.12799999"
     inkscape:connector-curvature="0" />
  <path
     id="path9819"
     d=""
     style="fill:none;stroke:#000000;stroke-width:0.12799999"
     inkscape:connector-curvature="0" />
  <path
     id="path9837"
     d=""
     style="fill:none;stroke:#000000;stroke-width:0.12799999"
     inkscape:connector-curvature="0" />
  <path
     id="path9845"
     d=""
     style="fill:none;stroke:#000000;stroke-width:0.12799999"
     inkscape:connector-curvature="0" />
  <path
     id="path9861"
     d=""
     style="fill:none;stroke:#000000;stroke-width:0.12799999"
     inkscape:connector-curvature="0" />
  <path
     id="path9885"
     d=""
     style="fill:none;stroke:#000000;stroke-width:0.12799999"
     inkscape:connector-curvature="0" />
  <path
     inkscape:connector-curvature="0"
     style="fill:none;stroke:#000000;stroke-width:0.12799999"
     d=""
     id="path10671" />
  <path
     inkscape:connector-curvature="0"
     style="fill:none;stroke:#000000;stroke-width:0.12799999"
     d=""
     id="path10679" />
  <path
     inkscape:connector-curvature="0"
     style="fill:none;stroke:#000000;stroke-width:0.12799999"
     d=""
     id="path10687" />
  <path
     inkscape:connector-curvature="0"
     style="fill:none;stroke:#000000;stroke-width:0.12799999"
     d=""
     id="path10697" />
  <path
     inkscape:connector-curvature="0"
     style="fill:none;stroke:#000000;stroke-width:0.12799999"
     d=""
     id="path10705" />
  <path
     inkscape:connector-curvature="0"
     style="fill:none;stroke:#000000;stroke-width:0.12799999"
     d=""
     id="path10721" />
  <path
     inkscape:connector-curvature="0"
     style="fill:none;stroke:#000000;stroke-width:0.12799999"
     d=""
     id="path10729" />
  <path
     id="path11255"
     d=""
     style="fill:none;stroke:#000000;stroke-width:0.152"
     inkscape:connector-curvature="0" />
  <path
     id="path11265"
     d=""
     style="fill:none;stroke:#000000;stroke-width:0.152"
     inkscape:connector-curvature="0" />
  <path
     id="path11277"
     d=""
     style="fill:none;stroke:#000000;stroke-width:0.152"
     inkscape:connector-curvature="0" />
  <g
     inkscape:groupmode="layer"
     id="layer2"
     inkscape:label="Schrift"
     style="display:inline">
    <g
       id="g3627"
       transform="matrix(0,-0.42374221,0.29030728,0,36.098615,439.10687)">
      <g
         transform="matrix(1.25,0,0,-1.25,-68.753848,567.44524)"
         id="g3396">
        <g
           id="g3398">
          <path
             id="path3400"
             style="fill:#ffffff;fill-opacity:1;fill-rule:evenodd;stroke:#231f20;stroke-width:1.96399999;stroke-linecap:butt;stroke-linejoin:bevel;stroke-miterlimit:10;stroke-opacity:1;stroke-dasharray:none"
             d="m 133.378,426.895 c -0.63,-0.185 -1.289,0.103 -1.977,0.864 -4.269,4.225 -9.985,5.045 -17.09,2.828 -2.296,-0.724 -4.987,-2.111 -8.063,-4.2 -3.075,-2.099 -6.515,-4.946 -10.308,-8.621 -0.101,-25.866 -0.18,-58.445 -0.252,-92.746 6.486,10.462 11.431,16.101 14.725,17.228 5.234,1.776 10.674,2.158 16.308,1.128 3.213,-0.547 4.756,-8.008 4.62,-22.706 -0.066,-7.189 -0.619,-13.334 -1.648,-18.388 -1.03,-5.055 -2.273,-7.816 -3.732,-8.293 -1.765,-0.577 -4.403,-0.728 -7.906,-0.466 -3.503,0.251 -6.124,0.057 -7.871,-0.557 -2.28,-0.805 -7.252,-7.201 -14.749,-19.394 -0.205,-55.438 -0.41,-109.005 -0.682,-140.532 -0.016,-3.935 -0.474,-7.093 -1.368,-9.757 -0.894,-2.654 -2.013,-4.144 -3.359,-4.752 -1.348,-0.582 -2.462,-0.078 -3.35,1.798 -0.889,1.886 -1.333,4.66 -1.335,8.602 -0.002,9.007 0.017,22.183 0.053,41.47 0.037,19.199 0.089,44.708 0.162,76.12 0.072,31.426 0.119,59.983 0.147,83.233 0.028,23.36 0.036,41.612 0.02,55.25 -0.007,6.083 -0.043,15.159 -0.103,25.997 -0.061,10.82 -0.09,17.837 -0.092,22.321 -0.002,4.474 0.472,8.07 1.427,11.041 0.955,2.966 2.198,4.58 3.729,5.105 1.148,0.383 2.172,-0.001 3.07,-1.241 4.32,3.328 8.228,5.898 11.701,7.834 3.477,1.939 6.539,3.289 9.177,4.103 4.044,1.234 8.661,1.415 13.836,0.2 7.031,-1.768 10.476,-6.19 10.343,-13.96 -0.071,-4.2 -0.59,-8.315 -1.558,-12.177 -1.077,-4.364 -2.368,-6.901 -3.875,-7.332 0,0 0,0 0,0 z"
             inkscape:connector-curvature="0" />
        </g>
      </g>
      <g
         transform="matrix(1.25,0,0,-1.25,-68.753848,567.44524)"
         id="g3402">
        <g
           id="g3404">
          <path
             id="path3406"
             style="fill:#ffffff;fill-opacity:1;fill-rule:evenodd;stroke:#231f20;stroke-width:1.96399999;stroke-linecap:butt;stroke-linejoin:bevel;stroke-miterlimit:10;stroke-opacity:1;stroke-dasharray:none"
             d="m 186.845,314.708 c -0.61,-20.036 -2.546,-30.267 -5.792,-31.078 -3.001,-0.743 -4.364,6.641 -4.098,22.453 0.051,3.028 0.094,8.617 0.127,16.728 0.061,6.69 0.122,13.365 0.183,19.989 -5.603,-4.378 -10.138,-12.581 -13.609,-24.665 -3.251,-11.192 -6.037,-27.748 -8.35,-48.902 -0.567,-42.933 -1.14,-82.819 -1.735,-109.603 -0.233,-9.793 -2.012,-13.813 -5.315,-14.946 -2.935,-0.821 -4.29,2.225 -4.085,12.022 0.716,34.338 1.392,90.223 2.066,146.47 0.063,5.278 0.202,13.248 0.417,23.792 0.212,10.541 0.352,18.336 0.416,23.486 0.195,15.747 1.825,23.641 4.897,24.519 3.426,0.897 4.976,-10.827 4.644,-37.106 7.085,31.151 14.833,46.468 23.109,48.529 2.868,0.679 4.926,-3.282 6.165,-12.241 1.242,-8.944 1.68,-23.084 1.319,-42.688 -0.15,-8.282 -0.27,-13.878 -0.359,-16.759 0,0 0,0 0,0 z"
             inkscape:connector-curvature="0" />
        </g>
      </g>
      <g
         transform="matrix(1.25,0,0,-1.25,-68.753848,567.44524)"
         id="g3408">
        <g
           id="g3410">
          <g
             id="g3412">
            <g
               id="g3414" />
            <g
               id="g3420">
              <g
                 id="g3422"
                 clip-path="url(#clipPath3416)">
                <path
                   id="path3424"
                   style="fill:#ffffff;fill-opacity:1;fill-rule:evenodd;stroke:#231f20;stroke-width:1.96399999;stroke-linecap:butt;stroke-linejoin:bevel;stroke-miterlimit:10;stroke-opacity:1;stroke-dasharray:none"
                   d="m 213.542,162.391 c -5.88,-1.062 -10.693,2.181 -14.499,13.877 -4.246,13.061 -6.139,35.093 -5.669,69.609 0.487,33.472 3.09,66.622 7.894,94.719 5.609,33.334 12.926,49.615 21.906,51.375 7.181,1.306 12.312,-11.106 15.327,-39.389 2.395,-22.752 3.133,-51.579 2.236,-83.261 -0.948,-33.811 -3.738,-59.431 -8.326,-77.601 -2.598,-10.347 -5.47,-17.113 -8.615,-21.667 -3.145,-4.525 -6.563,-6.886 -10.254,-7.662 0,0 0,0 0,0 z m 7.861,182.343 c -5.252,-0.849 -9.572,-12.793 -12.948,-35.892 -2.68,-18.428 -4.244,-39.171 -4.718,-60.612 -0.473,-21.444 0.542,-36.106 3.039,-45.563 2.088,-7.81 4.687,-10.938 7.816,-10.334 3.654,0.798 6.942,5.604 9.869,15.623 3.309,11.117 5.325,26.625 6.028,47.889 0.96,28.881 0.689,52.293 -0.828,67.286 -1.515,15.114 -4.274,22.291 -8.258,21.603 0,0 0,0 0,0 z"
                   inkscape:connector-curvature="0" />
              </g>
            </g>
          </g>
        </g>
      </g>
      <g
         transform="matrix(1.25,0,0,-1.25,-68.753848,567.44524)"
         id="g3426">
        <g
           id="g3428">
          <path
             id="path3430"
             style="fill:#ffffff;fill-opacity:1;fill-rule:evenodd;stroke:#231f20;stroke-width:1.96399999;stroke-linecap:butt;stroke-linejoin:bevel;stroke-miterlimit:10;stroke-opacity:1;stroke-dasharray:none"
             d="m 295.959,174.353 c -2.577,-0.198 -4.107,2.452 -4.596,9.543 -0.498,7.709 -0.78,19.88 -0.844,39.333 -0.05,18.723 0.125,36.302 0.515,50.272 0.109,3.921 0.318,9.917 0.631,18.147 0.315,8.225 0.527,14.46 0.637,18.547 0.793,29.783 -0.524,44.599 -3.945,44.159 -4.622,-0.535 -8.987,-10.147 -13.086,-28.93 -2.089,-9.537 -5.087,-28.041 -8.972,-53.703 -0.768,-28.874 -1.52,-49.234 -2.258,-62.939 -0.738,-13.731 -1.462,-21.167 -2.175,-24.76 -1.25,-6.258 -2.931,-9.056 -5.041,-9.396 -1.468,-0.213 -2.698,0.798 -3.7,3.235 -0.999,2.445 -1.422,5.665 -1.265,9.854 0.053,1.472 0.301,3.829 0.738,7.217 0.386,2.895 0.866,10.928 1.448,26.763 0.344,9.711 0.688,20.057 1.034,30.842 1.502,53.521 3.016,117.896 4.517,169.384 0.741,17.398 1.196,27.657 1.364,32.875 0.2,6.158 0.217,11.609 0.049,16.409 -0.169,4.801 -0.159,9.49 0.031,13.925 0.163,3.809 0.826,6.722 1.99,9.013 1.165,2.281 2.514,3.427 4.047,3.661 2.996,0.362 4.577,-2.199 4.74,-9.89 0.2,-8.573 0.146,-17.995 -0.166,-27.142 -0.419,-12.328 -0.987,-26.775 -1.701,-43.069 -0.654,-15.57 -1.187,-32.247 -1.597,-49.431 -0.159,-6.875 -0.319,-13.821 -0.479,-20.796 3.414,17.871 6.935,31.068 10.56,39.815 3.624,8.758 7.353,13.233 11.181,13.678 6.053,0.681 9.987,-6.822 11.792,-23.356 1.284,-11.574 1.65,-31.858 1.103,-60.424 -0.261,-15.095 -0.522,-30.016 -0.782,-44.352 -0.076,-15.594 -0.152,-30.494 -0.224,-44.167 0.019,-15.383 0.207,-27.294 0.567,-36.428 0.074,-1.748 0.088,-3.194 0.038,-4.375 -0.169,-4.045 -0.856,-7.192 -2.058,-9.675 -1.204,-2.474 -2.568,-3.681 -4.093,-3.839 0,0 0,0 0,0 z"
             inkscape:connector-curvature="0" />
        </g>
      </g>
      <g
         transform="matrix(1.25,0,0,-1.25,-68.753848,567.44524)"
         id="g3432">
        <g
           id="g3434">
          <g
             id="g3436">
            <g
               id="g3438" />
            <g
               id="g3444">
              <g
                 id="g3446"
                 clip-path="url(#clipPath3440)">
                <path
                   id="path3448"
                   style="fill:#ffffff;fill-opacity:1;fill-rule:evenodd;stroke:#231f20;stroke-width:1.96399999;stroke-linecap:butt;stroke-linejoin:bevel;stroke-miterlimit:10;stroke-opacity:1;stroke-dasharray:none"
                   d="m 340.602,179.655 c -8.297,-0.306 -14.765,3.512 -19.413,14.819 -5.072,12.554 -7.127,33.322 -6.167,66.294 1.111,38.206 4.352,74.412 9.724,102.317 5.84,30.697 12.959,45.128 21.351,45.67 6.086,0.339 10.936,-3.538 14.548,-11.89 4.434,-10.269 6.345,-26.693 5.729,-49.444 -0.431,-15.896 -2.896,-30.438 -7.4,-43.414 -1.99,-5.683 -6.122,-14.59 -12.394,-26.378 -7.395,-14.013 -14.782,-27.59 -22.151,-40.376 1.696,-11.086 3.983,-18.658 6.863,-23.526 2.882,-4.851 6.359,-6.984 10.431,-6.777 2.53,0.142 5.558,1.762 9.084,4.994 4.474,4.112 7.449,9.483 8.923,16.464 1.472,7.002 2.928,10.759 4.362,10.79 1.288,0.048 2.381,-1.721 3.281,-5.222 0.901,-3.48 1.279,-7.47 1.133,-11.868 -0.46,-13.944 -4.144,-24.431 -11.06,-32.441 -5.904,-6.775 -11.52,-9.698 -16.844,-10.012 0,0 0,0 0,0 z m 4.33,187.636 c -4.47,-0.26 -8.395,-7.92 -11.771,-23.149 -3.375,-15.114 -6.206,-38.34 -8.486,-67.248 5.929,11.441 11.868,23.161 17.811,34.978 7.016,14.236 12.08,26.664 15.187,37.112 -2.809,12.558 -7.057,18.629 -12.741,18.307 0,0 0,0 0,0 z"
                   inkscape:connector-curvature="0" />
              </g>
            </g>
          </g>
        </g>
      </g>
      <g
         transform="matrix(1.25,0,0,-1.25,-68.753848,567.44524)"
         id="g3450">
        <g
           id="g3452">
          <g
             id="g3454">
            <g
               id="g3456" />
            <g
               id="g3462">
              <g
                 id="g3464"
                 clip-path="url(#clipPath3458)">
                <path
                   id="path3466"
                   style="fill:#ffffff;fill-opacity:1;fill-rule:evenodd;stroke:#231f20;stroke-width:1.96399999;stroke-linecap:butt;stroke-linejoin:bevel;stroke-miterlimit:10;stroke-opacity:1;stroke-dasharray:none"
                   d="m 447.322,177.732 c -10.405,0.74 -18.949,6.974 -25.537,25.811 -3.495,10.117 -5.969,22.879 -7.421,38.813 -1.453,15.905 -1.885,35.023 -1.302,57.089 0.709,26.88 2.334,53.623 4.855,78.117 2.52,24.534 5.936,46.837 10.229,65.851 4.793,21.13 9.914,34.223 15.38,42.212 5.466,7.94 11.279,11.023 17.459,10.74 11.888,-0.824 20.443,-7.473 25.717,-24.82 2.753,-9.088 4.679,-21.551 5.771,-38.502 1.092,-16.905 1.35,-38.419 0.767,-64.417 -0.608,-27.076 -2.042,-53.52 -4.298,-77.387 -2.257,-23.908 -5.338,-45.262 -9.249,-63.206 -4.491,-20.56 -9.424,-32.948 -14.817,-40.407 -5.392,-7.406 -11.246,-10.138 -17.554,-9.894 0,0 0,0 0,0 z m 12.589,285.525 c -8.88,0.24 -16.859,-13.119 -24.022,-48.742 -6.608,-32.642 -10.501,-73.198 -11.59,-115.257 -0.78,-30.037 1.224,-52.559 6.023,-68.519 4.604,-15.029 10.642,-21.511 18.074,-21.935 4.47,-0.18 8.654,3.066 12.55,10.485 3.896,7.441 7.505,19.174 10.831,36.611 5.94,31.015 9.394,70.771 10.382,113.658 0.863,37.56 -0.484,61.427 -4.011,74.583 -3.362,12.647 -9.43,18.568 -18.237,19.116 0,0 0,0 0,0 z"
                   inkscape:connector-curvature="0" />
              </g>
            </g>
          </g>
        </g>
      </g>
      <g
         transform="matrix(1.25,0,0,-1.25,-68.753848,567.44524)"
         id="g3468">
        <g
           id="g3470">
          <path
             id="path3472"
             style="fill:#ffffff;fill-opacity:1;fill-rule:evenodd;stroke:#231f20;stroke-width:1.96399999;stroke-linecap:butt;stroke-linejoin:bevel;stroke-miterlimit:10;stroke-opacity:1;stroke-dasharray:none"
             d="m 541.257,336.962 c -1.964,0.265 -3.282,3.371 -3.952,9.3 -0.456,4.154 -0.753,12.753 -0.892,25.502 -2.734,-2.581 -6.966,-7.471 -12.724,-14.802 -5.979,-9.355 -9.163,-21.574 -9.512,-36.411 1.044,-1.849 2.081,-3.224 3.109,-4.127 8.149,-7.366 14.104,-17.007 17.898,-28.589 5.523,-16.75 7.988,-40.563 7.44,-66.65 -0.45,-21.252 -3.292,-33.897 -8.603,-41.281 -4.403,-6.006 -9.857,-8.069 -16.371,-7.43 -4.769,0.517 -9.271,2.735 -13.491,7.176 -5.463,5.689 -8.045,13.621 -7.731,25.254 0.125,4.66 0.814,8.894 2.055,12.558 1.244,3.664 2.595,5.511 4.049,5.371 1.128,-0.088 2.505,-3.389 4.139,-9.493 0.801,-2.918 2.709,-5.378 5.715,-7.458 2.399,-1.657 4.431,-2.569 6.101,-2.745 3.046,-0.317 5.753,0.543 8.126,2.668 3.444,3.085 5.249,8.459 5.43,16.668 0.39,17.818 -2.744,31.888 -9.446,39.651 -1.84,1.902 -3.681,3.81 -5.523,5.722 -4.712,4.818 -8.021,10.281 -9.916,16.441 -2.745,8.828 -3.924,22.091 -3.537,39.958 0.716,33.164 4.783,56.161 12.141,68.727 2.24,3.832 5.787,8.277 10.62,13.19 4.831,4.92 8.289,9.027 10.394,12.447 1.512,2.353 3.118,3.384 4.822,3.133 1.525,-0.214 2.735,-2.342 3.629,-6.478 0.894,-4.14 1.278,-9.487 1.146,-16.146 -0.084,-4.293 0.011,-10.672 0.289,-19.299 0.279,-8.623 0.376,-15.277 0.289,-19.795 -0.134,-7.027 -0.734,-12.693 -1.797,-16.955 -1.064,-4.274 -2.363,-6.315 -3.897,-6.107 0,0 0,0 0,0 z"
             inkscape:connector-curvature="0" />
        </g>
      </g>
      <g
         transform="matrix(1.25,0,0,-1.25,-68.753848,567.44524)"
         id="g3474">
        <g
           id="g3476">
          <path
             id="path3478"
             style="fill:#ffffff;fill-opacity:1;fill-rule:evenodd;stroke:#231f20;stroke-width:1.96399999;stroke-linecap:butt;stroke-linejoin:bevel;stroke-miterlimit:10;stroke-opacity:1;stroke-dasharray:none"
             d="m 594.022,347.678 c -0.731,0.14 -1.59,0.457 -2.58,0.95 -0.987,0.51 -1.848,0.825 -2.58,0.962 -0.804,0.149 -3.195,-0.565 -7.192,-2.207 -0.444,-46.148 -0.903,-94.096 -1.258,-132.352 -0.034,-2.849 -0.067,-5.644 -0.1,-8.381 -0.04,-3.17 -0.08,-6.261 -0.119,-9.266 -0.17,-12.9 -0.765,-20.929 -1.805,-25.892 -1.04,-4.927 -2.527,-6.869 -4.47,-6.611 -1.427,0.217 -2.641,1.453 -3.64,3.891 -1.001,2.446 -1.461,5.496 -1.377,9.361 0.081,3.776 0.259,9.612 0.541,18.414 0.283,8.818 0.477,16.127 0.57,21.056 0.362,38.02 0.823,85.433 1.269,131.121 -2.562,0.889 -6.449,2.869 -11.681,5.885 -3.115,2.351 -4.55,10.38 -4.3,23.687 0.127,6.721 0.709,12.134 1.744,16.295 1.037,4.158 2.295,6.077 3.776,5.839 3.679,-1.849 7.35,-3.723 11.013,-5.62 0.135,7.522 0.236,17.494 0.296,29.221 0.058,11.717 0.13,19.479 0.221,24.169 0.101,5.172 0.689,9.145 1.764,12.094 1.077,2.943 2.344,4.199 3.806,3.927 3.132,-0.734 4.802,-8.544 4.98,-27.487 0.017,-4.787 -0.037,-10.688 -0.164,-17.862 -0.105,-3.992 -0.211,-8.062 -0.318,-12.199 -0.095,-4.428 -0.19,-8.932 -0.287,-13.498 4.373,1.549 6.859,2.225 7.486,2.105 3.619,-0.707 5.964,-1.916 7.05,-3.599 2.066,-3.371 3.011,-10.478 2.835,-21.716 -0.108,-6.673 -0.672,-12.168 -1.695,-16.38 -1.027,-4.222 -2.287,-6.197 -3.785,-5.907 0,0 0,0 0,0 z"
             inkscape:connector-curvature="0" />
        </g>
      </g>
      <g
         transform="matrix(1.25,0,0,-1.25,-68.753848,567.44524)"
         id="g3480">
        <g
           id="g3482">
          <g
             id="g3484">
            <g
               id="g3486" />
            <g
               id="g3492">
              <g
                 id="g3494"
                 clip-path="url(#clipPath3488)">
                <path
                   id="path3496"
                   style="fill:#ffffff;fill-opacity:1;fill-rule:evenodd;stroke:#231f20;stroke-width:1.96399999;stroke-linecap:butt;stroke-linejoin:bevel;stroke-miterlimit:10;stroke-opacity:1;stroke-dasharray:none"
                   d="m 630.915,157.57 c -7.795,1.588 -14.096,7.096 -18.781,19.714 -5.121,13.984 -7.45,35.429 -6.942,67.966 0.586,37.698 3.313,72.617 8.058,98.749 5.162,28.759 11.628,41.03 19.404,39.169 5.639,-1.396 10.158,-6.605 13.589,-15.835 4.211,-11.35 6.17,-27.981 5.892,-50.11 -0.196,-15.463 -2.27,-29.06 -6.256,-40.644 -1.764,-5.069 -5.46,-12.757 -11.146,-22.784 -6.703,-11.937 -13.461,-23.514 -20.267,-34.384 1.775,-11.48 4.075,-19.631 6.888,-25.213 2.814,-5.568 6.139,-8.55 9.955,-9.314 2.372,-0.463 5.172,0.443 8.392,2.833 4.086,3.043 6.733,7.679 7.974,14.237 1.239,6.578 2.522,9.93 3.841,9.619 1.185,-0.261 2.218,-2.263 3.104,-5.928 0.885,-3.644 1.301,-7.667 1.249,-11.979 -0.168,-13.669 -3.301,-23.271 -9.501,-29.777 -5.297,-5.491 -10.451,-7.229 -15.453,-6.319 0,0 0,0 0,0 z m 1.18,184.997 c -4.153,0.976 -7.727,-5.495 -10.718,-19.613 -2.99,-14.009 -5.405,-36.177 -7.209,-64.224 5.472,9.785 10.911,19.807 16.314,29.886 6.373,12.181 10.897,23.042 13.634,32.47 -2.747,13.089 -6.742,20.233 -12.021,21.481 0,0 0,0 0,0 z"
                   inkscape:connector-curvature="0" />
              </g>
            </g>
          </g>
        </g>
      </g>
      <g
         transform="matrix(1.25,0,0,-1.25,-68.753848,567.44524)"
         id="g3498">
        <g
           id="g3500">
          <path
             id="path3502"
             style="fill:#ffffff;fill-opacity:1;fill-rule:evenodd;stroke:#231f20;stroke-width:1.96399999;stroke-linecap:butt;stroke-linejoin:bevel;stroke-miterlimit:10;stroke-opacity:1;stroke-dasharray:none"
             d="m 704.422,293.639 c -0.422,-18.925 -2.129,-27.778 -5.141,-26.892 -2.787,0.828 -4.11,8.653 -3.949,23.736 0.031,2.889 0.039,8.245 0.025,16.038 0.02,6.408 0.039,12.804 0.058,19.155 -5.159,-1.251 -9.372,-6.744 -12.61,-16.554 -3.033,-9.068 -5.648,-23.554 -7.826,-42.786 -0.439,-41.244 -0.841,-79.771 -1.082,-106.625 -0.101,-9.818 -1.781,-13.136 -5.101,-12.504 -2.95,0.73 -4.395,4.744 -4.285,14.6 0.382,34.507 1.021,88.215 1.664,142.247 0.06,5.07 0.194,12.701 0.398,22.786 0.202,10.082 0.333,17.557 0.392,22.514 0.179,15.158 1.726,21.944 4.634,21.107 3.238,-1.007 4.732,-13.263 4.479,-38.492 6.657,26.289 13.756,36.956 21.326,34.486 2.622,-0.886 4.526,-5.829 5.723,-15.13 1.199,-9.291 1.703,-23.131 1.508,-41.775 -0.08,-7.878 -0.152,-13.19 -0.213,-15.911 0,0 0,0 0,0 z"
             inkscape:connector-curvature="0" />
        </g>
      </g>
      <g
         transform="matrix(1.25,0,0,-1.25,-68.753848,567.44524)"
         id="g3504">
        <g
           id="g3506">
          <path
             id="path3508"
             style="fill:#ffffff;fill-opacity:1;fill-rule:evenodd;stroke:#231f20;stroke-width:1.96399999;stroke-linecap:butt;stroke-linejoin:bevel;stroke-miterlimit:10;stroke-opacity:1;stroke-dasharray:none"
             d="m 749.094,126.751 c -2.641,0.817 -4.138,4.506 -4.43,13.247 -0.377,10.266 -0.723,22.399 -1.048,35.84 -0.317,14.365 -0.402,29.183 -0.271,43.476 0.036,3.919 0.154,10.61 0.352,20.284 0.2,9.687 0.323,16.705 0.362,20.835 0.308,32.11 -0.77,48.629 -3.253,49.534 -3.472,1.32 -6.904,-7.245 -10.3,-26.107 -3.062,-17.075 -5.564,-39.602 -7.455,-64.996 -0.115,-5.418 -0.322,-12.124 -0.615,-19.832 -0.249,-6.531 -0.398,-12.676 -0.448,-18.412 -0.031,-3.649 0.018,-9.105 0.155,-15.845 0.139,-6.721 0.202,-11.295 0.181,-14.261 -0.031,-4.428 -0.487,-7.616 -1.376,-9.831 -0.889,-2.207 -2.018,-3.043 -3.391,-2.697 -1.406,0.368 -2.537,1.786 -3.388,4.454 -0.849,2.675 -1.261,6.111 -1.228,10.564 0.022,2.981 -0.048,7.58 -0.199,14.337 -0.154,6.777 -0.209,12.26 -0.176,15.927 0.112,12.596 0.521,31.366 1.247,57.844 0.728,26.511 1.182,48.399 1.337,63.854 0.048,4.828 0.065,12.007 0.047,21.417 -0.018,9.406 -0.005,16.354 0.041,20.98 0.061,6.224 0.564,11.063 1.506,14.592 0.943,3.525 2.08,5 3.41,4.508 2.912,-1.132 4.421,-10.478 4.524,-29.484 -0.035,-8.533 -0.072,-17.224 -0.11,-25.985 5.632,31.679 11.161,44.668 16.647,42.52 4.958,-2.054 8.293,-12.985 10.03,-34.186 1.19,-14.092 1.709,-35.093 1.57,-62.3 -0.071,-7.432 -0.141,-14.812 -0.21,-22.083 -0.078,-6.691 -0.155,-13.291 -0.229,-19.756 -0.105,-11.504 0.092,-26.262 0.621,-42.392 0.528,-16.099 0.785,-27.15 0.744,-34.754 -0.022,-4.075 -0.468,-6.975 -1.349,-8.963 -0.879,-1.979 -1.978,-2.693 -3.298,-2.329 0,0 0,0 0,0 z"
             inkscape:connector-curvature="0" />
        </g>
      </g>
    </g>
  </g>
  <path
     id="path11287"
     d=""
     style="fill:none;stroke:#000000;stroke-width:0.152"
     inkscape:connector-curvature="0" />
  <path
     id="path11297"
     d=""
     style="fill:none;stroke:#000000;stroke-width:0.152"
     inkscape:connector-curvature="0" />
  <path
     id="path11307"
     d=""
     style="fill:none;stroke:#000000;stroke-width:0.152"
     inkscape:connector-curvature="0" />
  <path
     id="path11317"
     d=""
     style="fill:none;stroke:#000000;stroke-width:0.152"
     inkscape:connector-curvature="0" />
  <path
     id="path11337"
     d=""
     style="fill:none;stroke:#000000;stroke-width:0.152"
     inkscape:connector-curvature="0" />
  <path
     id="path11355"
     d=""
     style="fill:none;stroke:#000000;stroke-width:0.152"
     inkscape:connector-curvature="0" />
  <path
     id="path11365"
     d=""
     style="fill:none;stroke:#000000;stroke-width:0.152"
     inkscape:connector-curvature="0" />
  <path
     id="path11369"
     d=""
     style="fill:none;stroke:#000000;stroke-width:0.152"
     inkscape:connector-curvature="0" />
  <path
     id="path11379"
     d=""
     style="fill:none;stroke:#000000;stroke-width:0.152"
     inkscape:connector-curvature="0" />
  <path
     id="path11385"
     d=""
     style="fill:none;stroke:#000000;stroke-width:0.152"
     inkscape:connector-curvature="0" />
  <path
     style="fill:none;stroke:#000000;stroke-width:0.72000003"
     d=""
     id="path3494"
     inkscape:connector-curvature="0" />
</svg>
