999
dxflib 2.2.0.0
  0
SECTION
  2
HEADER
  9
$ACADVER
  1
AC1015
  9
$HANDSEED
  5
FFFF
  9
$UCSYDIR
 10
0.0
 20
1.0
 30
0.0
  9
$UCSXDIR
 10
1.0
 20
0.0
 30
0.0
  9
$EXTMIN
 10
0.0
 20
0.0
 30
0.0
  9
$DIMASZ
 40
2.5
  9
$DIMGAP
 40
0.625
  9
$LIMMIN
 10
0.0
 20
0.0
  9
$LUNITS
 70
2
  9
$UNITMODE
 70
0
  9
$INSBASE
 10
0.0
 20
0.0
 30
0.0
  9
$UCSORG
 10
0.0
 20
0.0
 30
0.0
  9
$EXTMAX
 10
980.0
 20
806.0
 30
0.0
  9
$DIMEXO
 40
0.625
  9
$INSUNITS
 70
4
  9
$WORLDVIEW
 70
1
  9
$LIMMAX
 10
980.0
 20
806.0
  9
$LIMCHECK
 70
0
  9
$DIMTXT
 40
2.5
  9
$LUPREC
 70
3
  9
$DIMSTYLE
  2
Standard
  9
$LTSCALE
 40
1.0
  9
$PLIMMAX
 10
210.0
 20
297.0
  9
$PLIMMIN
 10
0.0
 20
0.0
  9
$DIMEXE
 40
1.25
  0
ENDSEC
  0
SECTION
  2
TABLES
  0
TABLE
  2
VPORT
  5
8
100
AcDbSymbolTable
 70
1
  0
VPORT
  5
30
100
AcDbSymbolTableRecord
100
AcDbViewportTableRecord
  2
*Active
 70
0
 10
0.0
 20
0.0
 11
1.0
 21
1.0
 12
286.3055555555554861
 22
148.5
 13
0.0
 23
0.0
 14
10.0
 24
10.0
 15
10.0
 25
10.0
 16
0.0
 26
0.0
 36
1.0
 17
0.0
 27
0.0
 37
0.0
 40
297.0
 41
1.92798353909465
 42
50.0
 43
0.0
 44
0.0
 50
0.0
 51
0.0
 71
0
 72
100
 73
1
 74
3
 75
1
 76
1
 77
0
 78
0
281
0
 65
1
110
0.0
120
0.0
130
0.0
111
1.0
121
0.0
131
0.0
112
0.0
122
1.0
132
0.0
 79
0
146
0.0
  0
ENDTAB
  0
TABLE
  2
LTYPE
  5
5
100
AcDbSymbolTable
 70
21
  0
LTYPE
  5
14
100
AcDbSymbolTableRecord
100
AcDbLinetypeTableRecord
  2
ByBlock
 70
0
  3

 72
65
 73
0
 40
0.0
  0
LTYPE
  5
15
100
AcDbSymbolTableRecord
100
AcDbLinetypeTableRecord
  2
ByLayer
 70
0
  3

 72
65
 73
0
 40
0.0
  0
LTYPE
  5
16
100
AcDbSymbolTableRecord
100
AcDbLinetypeTableRecord
  2
CONTINUOUS
 70
0
  3
Solid line
 72
65
 73
0
 40
0.0
  0
LTYPE
  5
31
100
AcDbSymbolTableRecord
100
AcDbLinetypeTableRecord
  2
DOT
 70
0
  3
Dot . . . . . . . . . . . . . . . . . . . . . .
 72
65
 73
2
 40
6.3499999999999996
 49
0.0
 74
0
 49
-6.3499999999999996
 74
0
  0
LTYPE
  5
32
100
AcDbSymbolTableRecord
100
AcDbLinetypeTableRecord
  2
DOT2
 70
0
  3
Dot (.5x) .....................................
 72
65
 73
2
 40
3.1749999999999998
 49
0.0
 74
0
 49
-3.1749999999999998
 74
0
  0
LTYPE
  5
33
100
AcDbSymbolTableRecord
100
AcDbLinetypeTableRecord
  2
DOTX2
 70
0
  3
Dot (2x) .  .  .  .  .  .  .  .  .  .  .  .  .
 72
65
 73
2
 40
12.6999999999999993
 49
0.0
 74
0
 49
-12.6999999999999993
 74
0
  0
LTYPE
  5
34
100
AcDbSymbolTableRecord
100
AcDbLinetypeTableRecord
  2
DASHED
 70
0
  3
Dashed __ __ __ __ __ __ __ __ __ __ __ __ __ _
 72
65
 73
2
 40
19.0500000000000007
 49
12.6999999999999993
 74
0
 49
-6.3499999999999996
 74
0
  0
LTYPE
  5
35
100
AcDbSymbolTableRecord
100
AcDbLinetypeTableRecord
  2
DASHED2
 70
0
  3
Dashed (.5x) _ _ _ _ _ _ _ _ _ _ _ _ _ _ _ _ _
 72
65
 73
2
 40
9.5250000000000004
 49
6.3499999999999996
 74
0
 49
-3.1749999999999998
 74
0
  0
LTYPE
  5
36
100
AcDbSymbolTableRecord
100
AcDbLinetypeTableRecord
  2
DASHEDX2
 70
0
  3
Dashed (2x) ____  ____  ____  ____  ____  ___
 72
65
 73
2
 40
38.1000000000000014
 49
25.3999999999999986
 74
0
 49
-12.6999999999999993
 74
0
  0
LTYPE
  5
37
100
AcDbSymbolTableRecord
100
AcDbLinetypeTableRecord
  2
DASHDOT
 70
0
  3
Dash dot __ . __ . __ . __ . __ . __ . __ . __
 72
65
 73
4
 40
25.3999999999999986
 49
12.6999999999999993
 74
0
 49
-6.3499999999999996
 74
0
 49
0.0
 74
0
 49
-6.3499999999999996
 74
0
  0
LTYPE
  5
38
100
AcDbSymbolTableRecord
100
AcDbLinetypeTableRecord
  2
DASHDOT2
 70
0
  3
Dash dot (.5x) _._._._._._._._._._._._._._._.
 72
65
 73
4
 40
12.6999999999999993
 49
6.3499999999999996
 74
0
 49
-3.1749999999999998
 74
0
 49
0.0
 74
0
 49
-3.1749999999999998
 74
0
  0
LTYPE
  5
39
100
AcDbSymbolTableRecord
100
AcDbLinetypeTableRecord
  2
DASHDOTX2
 70
0
  3
Dash dot (2x) ____  .  ____  .  ____  .  ___
 72
65
 73
4
 40
50.7999999999999972
 49
25.3999999999999986
 74
0
 49
-12.6999999999999993
 74
0
 49
0.0
 74
0
 49
-12.6999999999999993
 74
0
  0
LTYPE
  5
3A
100
AcDbSymbolTableRecord
100
AcDbLinetypeTableRecord
  2
DIVIDE
 70
0
  3
Divide ____ . . ____ . . ____ . . ____ . . ____
 72
65
 73
6
 40
31.75
 49
12.6999999999999993
 74
0
 49
-6.3499999999999996
 74
0
 49
0.0
 74
0
 49
-6.3499999999999996
 74
0
 49
0.0
 74
0
 49
-6.3499999999999996
 74
0
  0
LTYPE
  5
3B
100
AcDbSymbolTableRecord
100
AcDbLinetypeTableRecord
  2
DIVIDE2
 70
0
  3
Divide (.5x) __..__..__..__..__..__..__..__.._
 72
65
 73
6
 40
15.875
 49
6.3499999999999996
 74
0
 49
-3.1749999999999998
 74
0
 49
0.0
 74
0
 49
-3.1749999999999998
 74
0
 49
0.0
 74
0
 49
-3.1749999999999998
 74
0
  0
LTYPE
  5
3C
100
AcDbSymbolTableRecord
100
AcDbLinetypeTableRecord
  2
DIVIDEX2
 70
0
  3
Divide (2x) ________  .  .  ________  .  .  _
 72
65
 73
6
 40
63.5
 49
25.3999999999999986
 74
0
 49
-12.6999999999999993
 74
0
 49
0.0
 74
0
 49
-12.6999999999999993
 74
0
 49
0.0
 74
0
 49
-12.6999999999999993
 74
0
  0
LTYPE
  5
3D
100
AcDbSymbolTableRecord
100
AcDbLinetypeTableRecord
  2
CENTER
 70
0
  3
Center ____ _ ____ _ ____ _ ____ _ ____ _ ____
 72
65
 73
4
 40
50.7999999999999972
 49
31.75
 74
0
 49
-6.3499999999999996
 74
0
 49
6.3499999999999996
 74
0
 49
-6.3499999999999996
 74
0
  0
LTYPE
  5
3E
100
AcDbSymbolTableRecord
100
AcDbLinetypeTableRecord
  2
CENTER2
 70
0
  3
Center (.5x) ___ _ ___ _ ___ _ ___ _ ___ _ ___
 72
65
 73
4
 40
28.5749999999999993
 49
19.0500000000000007
 74
0
 49
-3.1749999999999998
 74
0
 49
3.1749999999999998
 74
0
 49
-3.1749999999999998
 74
0
  0
LTYPE
  5
3F
100
AcDbSymbolTableRecord
100
AcDbLinetypeTableRecord
  2
CENTERX2
 70
0
  3
Center (2x) ________  __  ________  __  _____
 72
65
 73
4
 40
101.5999999999999943
 49
63.5
 74
0
 49
-12.6999999999999993
 74
0
 49
12.6999999999999993
 74
0
 49
-12.6999999999999993
 74
0
  0
LTYPE
  5
40
100
AcDbSymbolTableRecord
100
AcDbLinetypeTableRecord
  2
BORDER
 70
0
  3
Border __ __ . __ __ . __ __ . __ __ . __ __ .
 72
65
 73
6
 40
44.4500000000000028
 49
12.6999999999999993
 74
0
 49
-6.3499999999999996
 74
0
 49
12.6999999999999993
 74
0
 49
-6.3499999999999996
 74
0
 49
0.0
 74
0
 49
-6.3499999999999996
 74
0
  0
LTYPE
  5
41
100
AcDbSymbolTableRecord
100
AcDbLinetypeTableRecord
  2
BORDER2
 70
0
  3
Border (.5x) __.__.__.__.__.__.__.__.__.__.__.
 72
65
 73
6
 40
22.2250000000000014
 49
6.3499999999999996
 74
0
 49
-3.1749999999999998
 74
0
 49
6.3499999999999996
 74
0
 49
-3.1749999999999998
 74
0
 49
0.0
 74
0
 49
-3.1749999999999998
 74
0
  0
LTYPE
  5
42
100
AcDbSymbolTableRecord
100
AcDbLinetypeTableRecord
  2
BORDERX2
 70
0
  3
Border (2x) ____  ____  .  ____  ____  .  ___
 72
65
 73
6
 40
88.9000000000000057
 49
25.3999999999999986
 74
0
 49
-12.6999999999999993
 74
0
 49
25.3999999999999986
 74
0
 49
-12.6999999999999993
 74
0
 49
0.0
 74
0
 49
-12.6999999999999993
 74
0
  0
ENDTAB
  0
TABLE
  2
LAYER
  5
2
100
AcDbSymbolTable
 70
2
  0
LAYER
  5
10
100
AcDbSymbolTableRecord
100
AcDbLayerTableRecord
  2
0
 70
0
 62
7
  6
CONTINUOUS
390
F
  0
LAYER
  5
43
100
AcDbSymbolTableRecord
100
AcDbLayerTableRecord
  2
Hilf
 70
0
 62
7
  6
CONTINUOUS
370
0
390
F
  0
ENDTAB
  0
TABLE
  2
STYLE
  5
3
100
AcDbSymbolTable
 70
1
  0
STYLE
  5
11
100
AcDbSymbolTableRecord
100
AcDbTextStyleTableRecord
  2
Standard
 70
0
 40
0.0
 41
0.75
 50
0.0
 71
0
 42
2.5
  3
txt
  4

  0
ENDTAB
  0
TABLE
  2
VIEW
  5
6
100
AcDbSymbolTable
 70
0
  0
ENDTAB
  0
TABLE
  2
UCS
  5
7
100
AcDbSymbolTable
 70
0
  0
ENDTAB
  0
TABLE
  2
APPID
  5
9
100
AcDbSymbolTable
 70
1
  0
APPID
  5
12
100
AcDbSymbolTableRecord
100
AcDbRegAppTableRecord
  2
ACAD
 70
0
  0
ENDTAB
  0
TABLE
  2
DIMSTYLE
  5
A
100
AcDbSymbolTable
 70
1
100
AcDbDimStyleTable
 71
0
  0
DIMSTYLE
105
27
100
AcDbSymbolTableRecord
100
AcDbDimStyleTableRecord
  2
Standard
 41
2.5
 42
0.625
 43
3.75
 44
1.25
 70
0
 73
0
 74
0
 77
1
 78
8
140
2.5
141
2.5
143
0.03937007874016
147
0.625
171
3
172
1
271
2
272
2
274
3
278
44
283
0
284
8
340
11
  0
ENDTAB
  0
TABLE
  2
BLOCK_RECORD
  5
1
100
AcDbSymbolTable
 70
1
  0
BLOCK_RECORD
  5
1F
100
AcDbSymbolTableRecord
100
AcDbBlockTableRecord
  2
*Model_Space
340
22
  0
BLOCK_RECORD
  5
1B
100
AcDbSymbolTableRecord
100
AcDbBlockTableRecord
  2
*Paper_Space
340
1E
  0
BLOCK_RECORD
  5
23
100
AcDbSymbolTableRecord
100
AcDbBlockTableRecord
  2
*Paper_Space0
340
26
  0
ENDTAB
  0
ENDSEC
  0
SECTION
  2
BLOCKS
  0
BLOCK
  5
20
100
AcDbEntity
  8
0
100
AcDbBlockBegin
  2
*Model_Space
 70
0
 10
0.0
 20
0.0
 30
0.0
  3
*Model_Space
  1

  0
ENDBLK
  5
21
100
AcDbEntity
  8
0
100
AcDbBlockEnd
  0
BLOCK
  5
1C
100
AcDbEntity
 67
1
  8
0
100
AcDbBlockBegin
  2
*Paper_Space
 70
0
 10
0.0
 20
0.0
 30
0.0
  3
*Paper_Space
  1

  0
ENDBLK
  5
1D
100
AcDbEntity
 67
1
  8
0
100
AcDbBlockEnd
  0
BLOCK
  5
24
100
AcDbEntity
  8
0
100
AcDbBlockBegin
  2
*Paper_Space0
 70
0
 10
0.0
 20
0.0
 30
0.0
  3
*Paper_Space0
  1

  0
ENDBLK
  5
25
100
AcDbEntity
  8
0
100
AcDbBlockEnd
  0
ENDSEC
  0
SECTION
  2
ENTITIES
  0
LWPOLYLINE
  5
44
  8
0
 62
7
370
-1
  6
CONTINUOUS
100
AcDbEntity
100
AcDbPolyline
 90
2
 70
0
 10
5.6872690081853117
 20
2.4499469708107817
 10
5.6872690081853099
 20
2.3628269708108132
  0
LWPOLYLINE
  5
45
  8
0
 62
7
370
-1
  6
CONTINUOUS
100
AcDbEntity
100
AcDbPolyline
 90
2
 70
0
 10
5.687269008185325
 20
27.3227069708108097
 10
5.6872690081853223
 20
27.2355869708107718
  0
LWPOLYLINE
  5
46
  8
0
 62
7
370
-1
  6
CONTINUOUS
100
AcDbEntity
100
AcDbPolyline
 90
18
 70
0
 10
5.6872690081853099
 20
2.3628269708108132
 10
5.6437090081853176
 20
2.3628269708108185
 10
5.5043170081853177
 20
2.1058229708108023
 10
4.0886170081853344
 20
-0.1680090291891965
 10
3.9294948982253421
 20
-0.6825295125891628
 10
3.770629008185324
 20
-1.557573029189216
 10
3.7706290081853151
 20
-1.9496130291891749
 10
3.8324842081853312
 20
-2.2519194291891633
 10
3.9117634081853243
 20
-2.508052229189202
 10
4.2062290081853417
 20
-2.8643730291892258
 10
4.3848250081853344
 20
-2.942781029189204
 10
4.6418290081853213
 20
-3.0386130291892304
 10
4.8160690081853224
 20
-3.0386130291892339
 10
5.0817850081853173
 20
-2.9166450291892421
 10
5.469469008185329
 20
-2.6465730291892005
 10
5.6306410081853242
 20
-2.2937370291892254
 10
5.8179490081853196
 20
-1.4268930291892321
 10
5.6872690081853099
 20
2.3628269708108132
  0
LWPOLYLINE
  5
47
  8
0
 62
7
370
-1
  6
CONTINUOUS
100
AcDbEntity
100
AcDbPolyline
 90
23
 70
0
 10
5.687269008185325
 20
27.3227069708108097
 10
5.7085051615853395
 20
29.1081489988507691
 10
5.8179490081853364
 20
30.1541069708107798
 10
5.817949008185324
 20
31.0253069708108242
 10
5.7549810679853319
 20
31.4589661985707778
 10
5.6306410081853189
 20
31.9357109708107672
 10
5.6088610081853378
 20
31.9879829708107692
 10
5.4694690081853317
 20
32.2885469708108133
 10
5.3466298081853258
 20
32.3861213708107911
 10
4.9859530081853434
 20
32.6239589708107971
 10
4.7289490081853192
 20
32.7241469708107928
 10
4.5067930081853511
 20
32.6500949708107626
 10
4.2889930081853143
 20
32.5586189708107767
 10
4.1626690081853344
 20
32.5063469708107533
 10
4.0319890081853416
 20
32.3756669708107836
 10
3.8141890081853074
 20
31.7658269708107994
 10
3.8141890081853087
 20
30.9381869708107828
 10
3.9602431181453195
 20
30.419310487410776
 10
4.153957008185329
 20
29.8448309708108361
 10
5.3736370081853453
 20
27.7539509708108341
 10
5.3924013058253406
 20
27.7214485025708299
 10
5.6437090081853194
 20
27.3227069708108132
 10
5.687269008185325
 20
27.3227069708108097
  0
LWPOLYLINE
  5
48
  8
0
 62
7
370
-1
  6
CONTINUOUS
100
AcDbEntity
100
AcDbPolyline
 90
21
 70
0
 10
6.3406690081853263
 20
8.1127469708108109
 10
6.2613898081853163
 20
8.1022925708107998
 10
5.2952290081853191
 20
7.3286669708108185
 10
4.4675890081853087
 20
6.5010269708108055
 10
4.3473634081852968
 20
6.3189461708107846
 10
3.847696710545319
 20
5.5929685025708142
 10
3.6965770081853333
 20
5.3205509708108245
 10
3.4221490081853045
 20
4.3665869708107827
 10
3.4480495663853303
 20
4.0151637087307996
 10
3.5528290081853284
 20
3.6260669708108075
 10
3.7662730081853244
 20
3.4431149708108144
 10
3.988429008185304
 20
3.3647069708107615
 10
4.1626690081853148
 20
3.3647069708107651
 10
4.5480074764253224
 20
3.5054392684507931
 10
4.9467490081852974
 20
3.8003069708108139
 10
5.5914370081853297
 20
4.7194229708108324
 10
5.6959810081853215
 20
4.9285109708107857
 10
5.889694898225323
 20
5.4158704874107713
 10
6.0075631181453142
 20
5.8437834542107829
 10
6.2723133058253158
 20
7.4134414390507581
 10
6.3406690081853263
 20
8.1127469708108109
  0
LWPOLYLINE
  5
49
  8
0
 62
7
370
-1
  6
CONTINUOUS
100
AcDbEntity
100
AcDbPolyline
 90
26
 70
0
 10
6.3406690081853272
 20
21.7470269708108255
 10
6.3154042081853197
 20
21.7932005708107752
 10
6.1405284499853314
 20
23.2310102328908101
 10
5.9616970081853191
 20
23.9293829708108241
 10
5.7874570081853314
 20
24.4521029708107669
 10
5.6336567105453312
 20
24.7895254390507702
 10
5.3475010081853416
 20
25.2797429708107764
 10
4.9031890081853264
 20
25.8852269708108125
 10
4.8663305399453325
 20
25.8952792684507784
 10
4.4196730081853399
 20
26.1770789708107827
 10
4.3412650081853279
 20
26.2032149708108264
 10
3.9884290081853107
 20
26.2772669708107713
 10
3.6399490081853454
 20
26.1030269708107596
 10
3.4962010081853316
 20
25.8024629708108044
 10
3.4657090081853332
 20
25.7545469708108321
 10
3.4657090081853381
 20
24.9704669708108327
 10
3.5682031181453273
 20
24.6693904874107837
 10
3.5833210081853357
 20
24.617630970810783
 10
3.9117634081853301
 20
23.9328677708108088
 10
4.0215346081853145
 20
23.7865061708107959
 10
4.8488353629053078
 20
22.7830225529708024
 10
5.3291757517853213
 20
22.3024920682507926
 10
5.6968822645853274
 20
21.9756418733707726
 10
6.297109008185326
 20
21.5292269708107931
 10
6.3406690081853236
 20
21.5727869708108173
 10
6.3406690081853272
 20
21.7470269708108255
  0
LWPOLYLINE
  5
4A
  8
0
 62
7
370
-1
  6
CONTINUOUS
100
AcDbEntity
100
AcDbPolyline
 90
2
 70
0
 10
7.7781490081853173
 20
0.3155069708108336
 10
7.7345890081853206
 20
0.2283869708107957
  0
LWPOLYLINE
  5
4B
  8
0
 62
7
370
-1
  6
CONTINUOUS
100
AcDbEntity
100
AcDbPolyline
 90
2
 70
0
 10
7.8217090081853353
 20
29.3264669708107704
 10
7.7781490081853306
 20
29.4135869708108117
  0
LWPOLYLINE
  5
4C
  8
0
 62
7
370
-1
  6
CONTINUOUS
100
AcDbEntity
100
AcDbPolyline
 90
20
 70
0
 10
9.128509008185306
 20
-2.3416530291892155
 10
9.0413890081853143
 20
-1.9931730291891956
 10
8.9621098081853106
 20
-1.9391586291892384
 10
8.7331182423053342
 20
-1.7921268585891941
 10
8.3879890081853254
 20
-1.7318130291892242
 10
8.3052250081853174
 20
-1.7840850291892263
 10
8.0395090081853038
 20
-1.9496130291891784
 10
7.943677008185313
 20
-2.1194970291892279
 10
7.8652690081853187
 20
-2.2980930291891912
 10
7.8652690081853134
 20
-2.5594530291892443
 10
7.9218970081853364
 20
-2.6857770291891843
 10
7.943677008185321
 20
-2.738049029189197
 10
8.1266290081853239
 20
-2.9950530291892132
 10
8.252953008185326
 20
-3.0473250291892224
 10
8.300869008185316
 20
-3.08217302918918
 10
8.6929090081853211
 20
-3.0821730291891765
 10
8.823589008185321
 20
-3.0386130291892375
 10
8.9978290081853167
 20
-2.8643730291892222
 10
9.0695748982253264
 20
-2.686289512589207
 10
9.128509008185306
 20
-2.3416530291892155
  0
LWPOLYLINE
  5
4D
  8
0
 62
7
370
-1
  6
CONTINUOUS
100
AcDbEntity
100
AcDbPolyline
 90
18
 70
0
 10
9.1285090081853237
 20
32.1578669708108222
 10
9.0681951787853254
 20
32.3723162049307902
 10
8.9542690081853298
 20
32.5934669708108089
 10
8.7843850081853248
 20
32.6892989708108388
 10
8.6493490081853217
 20
32.7677069708108135
 10
8.3482725247853402
 20
32.7087728608508002
 10
8.0395090081853162
 20
32.5499069708107882
 10
7.9436770081853307
 20
32.423582970810827
 10
7.8652690081853276
 20
32.2885469708108133
 10
7.8652690081853249
 20
31.8529469708108337
 10
7.9175410081853297
 20
31.770182970810815
 10
8.0830690081853298
 20
31.5044669708108174
 10
8.2093930081853284
 20
31.4521949708108082
 10
8.3444290081853332
 20
31.3737869708108263
 10
8.5186690081853165
 20
31.3737869708108335
 10
8.910709008185334
 20
31.548026970810767
 10
9.041389008185325
 20
31.678706970810822
 10
9.1285090081853237
 20
32.1578669708108222
  0
LWPOLYLINE
  5
4E
  8
0
 62
7
370
-1
  6
CONTINUOUS
100
AcDbEntity
100
AcDbPolyline
 90
82
 70
0
 10
9.8690290081853274
 20
14.6903069708108163
 10
9.6612813058253337
 20
15.0019285025707969
 10
8.682454608185326
 20
16.4684261708108082
 10
8.2677634081853224
 20
17.0068277708107871
 10
7.2882271181453255
 20
18.2094424874108185
 10
7.0483908982253167
 20
18.4892514542107946
 10
5.9921890081853153
 20
19.6561469708108163
 10
4.2497890081853269
 20
21.3985469708108056
 10
1.8908474764253289
 20
23.3051346731708371
 10
1.4105482081853336
 20
23.6532125708108083
 10
-0.1564725235746937
 20
24.6990546731708136
 10
-1.1124469918146687
 20
25.3102349708107859
 10
-3.1510549918146205
 20
26.2903349708107932
 10
-4.2836149918146829
 20
26.6388149708108095
 10
-4.6826245918146627
 20
26.738131770810817
 10
-4.9387573918146641
 20
26.7747221708108007
 10
-5.8547818079346579
 20
26.8637850339308102
 10
-6.8144509918146783
 20
26.8871069708108337
 10
-7.7701573918146831
 20
26.7816917708108377
 10
-8.4653749918146772
 20
26.6562389708107901
 10
-9.1274869918146759
 20
26.4166589708108255
 10
-10.2489894600546609
 20
25.8751746731707719
 10
-10.349512523574667
 20
25.8081592684508223
 10
-11.2140109918146784
 20
25.1882669708107869
 10
-11.8674109918146868
 20
24.534866970810782
 10
-11.9876365918146988
 20
24.3527861708108375
 10
-12.1183165918146791
 20
24.1785461708108294
 10
-12.4249789918146636
 20
23.6593109708107932
 10
-12.4424029918146815
 20
23.6244629708108356
 10
-12.8103568818546663
 20
22.8757434542108129
 10
-12.8846651017746954
 20
22.5785104874107816
 10
-13.1047504336146918
 20
21.4886102328908208
 10
-13.1742109918146593
 20
20.919386970810816
 10
-13.1742109918146628
 20
19.5254669708108359
 10
-12.8103568818546663
 20
18.2225104874108403
 10
-12.4685389918146861
 20
17.4825029708108133
 10
-12.1374829918146894
 20
16.9075109708107796
 10
-11.6496109918146615
 20
16.2149069708107838
 10
-10.8219709918146876
 20
15.3872669708107725
 10
-9.9440694600546724
 20
14.7439192684508154
 10
-9.9072109918146722
 20
14.7338669708107659
 10
-9.8636509918146871
 20
14.6903069708108216
 10
-10.2600469918146793
 20
14.4812189708107848
 10
-11.2481265739746732
 20
13.8083133255307828
 10
-11.7802909918146845
 20
13.3399469708107912
 10
-11.9880386941746657
 20
13.0283254390508159
 10
-12.1183165918146827
 20
12.8529461708107764
 10
-12.5077429918146734
 20
12.1159109708107859
 10
-12.7516789918146678
 20
11.3841029708108064
 10
-12.936583699494669
 20
10.1148546964507844
 10
-12.9762382841346842
 20
9.6389992451707727
 10
-13.0435309918146771
 20
8.1563069708108351
 10
-12.9805630516146788
 20
7.7226477430508025
 10
-12.8860448212147016
 20
7.1946362049307719
 10
-12.5925568818546747
 20
6.0692704874107761
 10
-12.3814189918146837
 20
5.6341829708108069
 10
-11.8566491017746731
 20
4.7678514542108239
 10
-11.2575709918146671
 20
4.1052269708108149
 10
-10.9012501918146789
 20
3.8543213708107835
 10
-10.7270101918146707
 20
3.723641370810796
 10
-10.0311894600546747
 20
3.2876392684507714
 10
-9.9986869918146652
 20
3.2688749708108098
 10
-9.4677674752146785
 20
3.0316010807708178
 10
-9.3447745084146909
 20
3.000852860850765
 10
-8.3804861350146762
 20
2.8175508562508131
 10
-7.0322509918146823
 20
2.6677469708108177
 10
-6.2031737296146767
 20
2.6911853435707798
 10
-4.9872765235746854
 20
2.8171912684508378
 10
-3.7614074752146731
 20
3.0444128608507874
 10
-3.6384145084146784
 20
3.0751610807708367
 10
-2.3669749918146841
 20
3.5302349708107847
 10
-2.2798549918146578
 20
3.5737949708108054
 10
-1.0276725235747066
 20
4.1588392684508051
 10
0.3796505399453206
 20
5.0099346731708181
 10
1.8461482081853138
 20
5.9887613708108081
 10
3.039035236265311
 20
6.9259154796907847
 10
4.0650698225453263
 20
7.7751492171308323
 10
6.4277890081853313
 20
10.0729469708108343
 10
7.0269175170653266
 20
10.8223931988907989
 10
7.2447175170653146
 20
11.0837531988907738
 10
8.4416013058253228
 20
12.5927254390508345
 10
9.8690290081853274
 20
14.6903069708108163
  0
LWPOLYLINE
  5
4F
  8
0
 62
7
370
-1
  6
CONTINUOUS
100
AcDbEntity
100
AcDbPolyline
 90
2
 70
0
 10
9.912589008185325
 20
5.8476269708107953
 10
9.8690290081853327
 20
5.9347469708107727
  0
LWPOLYLINE
  5
50
  8
0
 62
7
370
-1
  6
CONTINUOUS
100
AcDbEntity
100
AcDbPolyline
 90
2
 70
0
 10
9.9125890081853285
 20
23.8379069708108311
 10
9.8690290081853327
 20
23.7072269708107655
  0
LWPOLYLINE
  5
51
  8
0
 62
7
370
-1
  6
CONTINUOUS
100
AcDbEntity
100
AcDbPolyline
 90
28
 70
0
 10
7.7781490081853173
 20
0.3155069708108336
 10
7.9436770081853254
 20
0.5812229708107708
 10
8.2006810081853097
 20
1.1910629708108189
 10
8.2268170081853196
 20
1.2694709708108025
 10
8.3199928936253187
 20
1.9251021140107767
 10
8.3444290081853278
 20
2.3192669708108014
 10
8.2573090081853202
 20
3.0162269708108198
 10
8.2807473809453196
 20
3.7581842330108159
 10
8.3244426347453206
 20
4.3681243774507568
 10
8.4904831181453169
 20
7.1941434542108134
 10
8.6647231181453304
 20
7.891103454210775
 10
9.076237008185327
 20
9.0754229708107701
 10
9.159001008185319
 20
9.2932229708107936
 10
10.0084210081853247
 20
11.1575909708107872
 10
10.0955410081853252
 20
11.3318309708107918
 10
10.5224290081853145
 20
12.3380669708107629
 10
10.4788690081853133
 20
12.5558669708107953
 10
10.3917490081853288
 20
12.6429869708108278
 10
10.1303890081853201
 20
12.6865469708107756
 10
9.9561490081853332
 20
12.5994269708108177
 10
9.3375970081853197
 20
11.6019029708108228
 10
9.1197970081853281
 20
11.1663029708107686
 10
8.4033631181453128
 20
9.3721434542107804
 10
8.1855631181453248
 20
8.5009434542108266
 10
7.7604895663853268
 20
6.5910902328908154
 10
7.6910290081853185
 20
6.1961069708108187
 10
7.7258770081853054
 20
0.398270970810767
 10
7.7781490081853173
 20
0.3155069708108336
  0
LWPOLYLINE
  5
52
  8
0
 62
7
370
-1
  6
CONTINUOUS
100
AcDbEntity
100
AcDbPolyline
 90
28
 70
0
 10
7.8217090081853353
 20
29.3264669708107704
 10
7.7345890081853206
 20
29.1957869708107864
 10
7.7345890081853268
 20
23.4458669708107941
 10
7.7969133058253233
 20
23.0997325025708022
 10
7.8829284499853225
 20
22.5776102328908053
 10
8.2291231181453277
 20
20.9667904874107727
 10
8.4184810081853279
 20
20.2180709708108282
 10
9.3114610081853133
 20
18.1794629708108353
 10
9.617721305825329
 20
17.6155285025708181
 10
9.9561490081853332
 20
17.0425469708108004
 10
9.9953530081853206
 20
17.0338349708108083
 10
10.1303890081853201
 20
16.9554269708108336
 10
10.3481890081853329
 20
16.955426970810823
 10
10.4788690081853133
 20
17.0425469708108004
 10
10.5659890081853192
 20
17.3039069708107753
 10
10.1216770081853333
 20
18.3449909708107697
 10
10.0519810081853258
 20
18.4843829708108274
 10
9.202561008185322
 20
20.3487509708108156
 10
9.1197970081853299
 20
20.5665509708107699
 10
8.7082831181453315
 20
21.7508704874107615
 10
8.5468548982253338
 20
22.3965834542108091
 10
8.4521883895853218
 20
23.1419789507707883
 10
8.2807473809453356
 20
25.8837897086107809
 10
8.2573090081853273
 20
25.9287869708108332
 10
8.3444290081853367
 20
27.9761069708108181
 10
8.1969951787853343
 20
28.5825962049308124
 10
7.9872370081853292
 20
29.0607509708107656
 10
7.8217090081853353
 20
29.3264669708107704
  0
LWPOLYLINE
  5
53
  8
0
 62
7
370
-1
  6
CONTINUOUS
100
AcDbEntity
100
AcDbPolyline
 90
2
 70
0
 10
10.7837890081853232
 20
-1.29621302918917
 10
10.7402290081853096
 20
-1.3397730291891978
  0
LWPOLYLINE
  5
54
  8
0
 62
7
370
-1
  6
CONTINUOUS
100
AcDbEntity
100
AcDbPolyline
 90
4
 70
0
 10
10.7837890081853232
 20
-1.29621302918917
 10
10.7402290081853184
 20
-1.2526530291892257
 10
10.6966690081853173
 20
-1.29621302918917
 10
10.7402290081853096
 20
-1.3397730291891978
  0
LWPOLYLINE
  5
55
  8
0
 62
7
370
-1
  6
CONTINUOUS
100
AcDbEntity
100
AcDbPolyline
 90
25
 70
0
 10
9.912589008185325
 20
5.8476269708107953
 10
9.8254690081853227
 20
5.6298269708107682
 10
9.8254690081853315
 20
3.4082669708107911
 10
9.8891506354253274
 20
2.7998642330108261
 10
9.973808449985313
 20
2.2786502328908167
 10
10.0955410081853216
 20
1.7573429708107877
 10
10.2959170081853166
 20
1.3130309708108197
 10
10.4459333793053197
 20
1.0209664851308027
 10
10.740229008185322
 20
0.6639869708107717
 10
11.0480922702653253
 20
0.5509664126107783
 10
11.2600057461053105
 20
0.515647529010792
 10
11.6985490081853225
 20
0.4897469708107671
 10
11.9569657461053218
 20
0.5509664126107765
 10
12.221269008185315
 20
0.7075469708107871
 10
12.3606610081853159
 20
0.9209909708107915
 10
12.4390690081853368
 20
1.0560269708108141
 10
12.4390690081853279
 20
1.7094269708108119
 10
12.3388810081853215
 20
2.1406709708108291
 10
12.3214570081853338
 20
2.1929429708107762
 10
12.2112167105453135
 20
2.4432454390508038
 10
12.144201305825332
 20
2.5437685025708099
 10
11.5349333793053095
 20
3.373206485130769
 10
10.9686533793053158
 20
4.0701664851307999
 10
10.5311410081853261
 20
4.7629829708107749
 10
9.912589008185325
 20
5.8476269708107953
  0
LWPOLYLINE
  5
56
  8
0
 62
7
370
-1
  6
CONTINUOUS
100
AcDbEntity
100
AcDbPolyline
 90
29
 70
0
 10
9.9125890081853285
 20
23.8379069708108311
 10
10.4875810081853285
 20
24.8354309708108083
 10
11.5678690081853244
 20
26.4079469708108228
 10
11.6549890081853214
 20
26.4950669708107966
 10
11.6985490081853278
 20
26.4950669708107966
 10
11.8834133793053365
 20
26.7043674564908144
 10
12.0570813058253261
 20
26.9239654390507965
 10
12.2930148982253264
 20
27.3265504874108274
 10
12.323763118145326
 20
27.4495434542107688
 10
12.4390690081853315
 20
27.9761069708108181
 10
12.4390690081853315
 20
28.368146970810777
 10
12.377849566385331
 20
28.6265637087307709
 10
12.3432370081853371
 20
28.7122709708108239
 10
12.1777090081853228
 20
28.9779869708108393
 10
12.0513850081853384
 20
29.0302589708107632
 10
11.6549890081853302
 20
29.1522269708107586
 10
11.306509008185337
 20
29.1522269708107586
 10
11.0480922702653253
 20
29.091007529010831
 10
10.8317050081853203
 20
28.9692749708107762
 10
10.7794330081853467
 20
28.9431389708107929
 10
10.6095490081853203
 20
28.8037469708108311
 10
10.182661008185331
 20
28.1024309708107722
 10
10.1652370081853398
 20
28.0675829708108111
 10
9.9829551787853248
 20
27.3260577366908066
 10
9.8493912889853199
 20
26.0612522338508334
 10
9.7819090081853268
 20
25.3625069708107915
 10
9.7819090081853304
 20
24.6219869708108199
 10
9.8455906354253351
 20
24.013584233010782
 10
9.9125890081853285
 20
23.8379069708108311
  0
LWPOLYLINE
  5
57
  8
0
 62
7
370
-1
  6
CONTINUOUS
100
AcDbEntity
100
AcDbPolyline
 90
23
 70
0
 10
12.9182290081853317
 20
14.951666970810793
 10
12.8311090081853258
 20
15.3001469708108058
 10
12.4869850081853304
 20
15.5702189708107621
 10
12.304033008185316
 20
15.6399149708108336
 10
12.1341490081853216
 20
15.6921869708107611
 10
11.7813130081853323
 20
15.5702189708107657
 10
11.480749008185315
 20
15.3001469708108058
 10
11.4720370081853247
 20
15.2609429708108113
 10
11.3936290081853304
 20
14.9516669708107877
 10
11.3936290081853304
 20
14.690306970810818
 10
11.4938170081853226
 20
14.3897429708107829
 10
11.5155970081853258
 20
14.337470970810779
 10
11.611429008185322
 20
14.2111469708108125
 10
11.92019252478533
 20
14.0522810807707952
 10
12.0431854915853229
 20
14.0215328608508312
 10
12.3083890081853262
 20
13.9933469708107854
 10
12.3911530081853165
 20
14.0456189708108017
 10
12.4434250081853257
 20
14.0717549708107708
 10
12.5697490081853172
 20
14.1240269708107835
 10
12.7004290081853242
 20
14.2547069708107603
 10
12.8118913816253244
 20
14.4404775641708181
 10
12.8441770081853353
 20
14.5117109708107801
 10
12.9182290081853317
 20
14.951666970810793
  0
LWPOLYLINE
  5
58
  8
0
 62
7
370
-1
  6
CONTINUOUS
100
AcDbEntity
100
AcDbPolyline
 90
28
 70
0
 10
13.1360290081853286
 20
7.7207069708107872
 10
13.0321551787853256
 20
8.1965162049307843
 10
12.6917170081853179
 20
9.0231509708108266
 10
12.6045970081853334
 20
9.1973909708107637
 10
12.2802031181453373
 20
9.9896704874108142
 10
12.24945489822532
 20
10.1126634542108302
 10
12.1082484499853305
 20
10.7292902328908077
 10
12.0646884499853293
 20
10.9906502328907845
 10
11.9599090081853152
 20
11.7717869708108047
 10
11.9163490081853318
 20
11.8153469708108148
 10
11.6449367105453288
 20
11.386448502570822
 10
11.5779213058253259
 20
11.2859254390508195
 10
11.0320810081853153
 20
10.0773029708107913
 10
10.7578884499853142
 20
8.8503237087308193
 10
10.7225695663853262
 20
8.638410232890795
 10
10.6966690081853208
 20
8.5919069708108111
 10
10.6966690081853173
 20
7.6335869708108088
 10
10.7556031181453307
 20
7.4631904874108281
 10
10.9057570081853275
 20
7.0193909708108029
 10
10.9928770081853244
 20
6.8451509708107956
 10
11.175829008185314
 20
6.5445869708108173
 10
11.5321498081853306
 20
6.2501213708107812
 10
11.9599090081853063
 20
6.0654269708108171
 10
12.3110026081853299
 20
6.0906917708108228
 10
12.6568690081853283
 20
6.1525469708107963
 10
12.8833810081853137
 20
6.4095509708107983
 10
13.0730610679853161
 20
6.851447743050759
 10
13.1360290081853286
 20
7.7207069708107872
  0
LWPOLYLINE
  5
59
  8
0
 62
7
370
-1
  6
CONTINUOUS
100
AcDbEntity
100
AcDbPolyline
 90
24
 70
0
 10
13.1360290081853286
 20
22.4439869708107693
 10
13.0748095663853299
 20
22.702403708730774
 10
12.918229008185337
 20
23.2280669708107652
 10
12.656869008185323
 20
23.4894269708108254
 10
12.5741050081853309
 20
23.5024949708107656
 10
12.3519490081853345
 20
23.576546970810778
 10
12.0905890081853169
 20
23.5765469708107815
 10
11.4807490081853185
 20
23.3587469708108202
 10
11.1322690081853217
 20
23.0102669708108181
 10
10.8360610081853217
 20
22.4396309708108213
 10
10.740229008185322
 20
22.0955069708108454
 10
10.7402290081853309
 20
20.919386970810816
 10
10.8450084499853254
 20
20.3996102328908364
 10
11.0146570081853188
 20
19.74762297081082
 10
11.2063210081853271
 20
19.1726309708107827
 10
11.5779213058253347
 20
18.312488502570762
 10
11.8727890081853342
 20
17.8266269708107892
 10
11.9599090081853188
 20
17.9137469708108235
 10
11.9847047105453157
 20
18.1338925025708022
 10
12.1944628375853199
 20
19.4785562049308112
 10
12.7091410081853304
 20
20.740790970810778
 10
12.7352770081853173
 20
20.7930629708107872
 10
13.1055370081853226
 20
21.5684309708107875
 10
13.1360290081853286
 20
22.4439869708107693
  0
LWPOLYLINE
  5
5A
  8
0
 62
7
370
-1
  6
CONTINUOUS
100
AcDbEntity
100
AcDbPolyline
 90
240
 70
0
 10
10.7837890081853232
 20
-1.29621302918917
 10
11.2193890081853223
 20
-1.3397730291891872
 10
11.7856690081853248
 20
-1.3397730291891872
 10
12.0929345399453201
 20
-1.2714173268291926
 10
12.5218330081853289
 20
-1.1960250291891814
 10
12.8790250081853195
 20
-1.0435650291891871
 10
13.4409490081853082
 20
-0.6428130291892415
 10
13.4409490081852994
 20
-0.599253029189228
 10
13.5280690081853177
 20
-0.5121330291891777
 10
13.5716290081853153
 20
-0.5121330291891848
 10
14.0333650081853225
 20
0.1499789708108263
 10
14.1291970081853133
 20
0.4069829708108319
 10
14.2685890081853319
 20
0.9689069708107727
 10
14.2685890081853319
 20
1.6658669708108
 10
14.2062647105453266
 20
2.012001439050783
 10
14.1030610081853318
 20
2.5849829708108096
 10
14.037721008185315
 20
2.7505109708108204
 10
13.6500370081853184
 20
3.5781509708108334
 10
13.092469008185315
 20
4.3665869708107756
 10
13.349473008185317
 20
4.4667749708107696
 10
13.5759850081853291
 20
4.5756749708108124
 10
13.8765490081853322
 20
4.802186970810757
 10
14.3557090081853325
 20
5.2813469708107643
 10
14.4763367105453202
 20
5.5058485025707604
 10
14.4951010081853209
 20
5.5383509708107734
 10
14.7346810081853228
 20
6.0262229708107657
 10
14.8479370081853332
 20
6.4095509708108072
 10
14.9655490081853095
 20
7.0673069708107672
 10
14.9655490081853184
 20
7.8078269708108268
 10
14.8607695663853239
 20
8.4582837087307858
 10
14.691121008185327
 20
8.9795909708108184
 10
14.5212370081853255
 20
9.3280709708108152
 10
14.0661631181453224
 20
10.3381504874108288
 10
13.8678370081853224
 20
11.0704709708108169
 10
13.6718170081853252
 20
12.3859829708108222
 10
13.5716290081853188
 20
12.5994269708108142
 10
14.1049733793053225
 20
13.1136474564908294
 10
14.3657613058253215
 20
13.4639254390507919
 10
14.514574898225332
 20
13.73583048741075
 10
14.5865770081853245
 20
13.9889909708108302
 10
14.7477490081853269
 20
14.4725069708107856
 10
14.7477490081853322
 20
15.0387869708108308
 10
14.6854247105453268
 20
15.3849214390508227
 10
14.5198967105453267
 20
15.9468454390508239
 10
14.4079810081853186
 20
16.1321429708107722
 10
14.0507890081853191
 20
16.650506970810838
 10
13.5716290081853188
 20
17.0861069708108175
 10
13.6456810081853206
 20
17.3082629708108051
 10
13.6718170081853287
 20
17.3866709708107692
 10
13.9354831181453207
 20
18.9989034542108044
 10
14.8066831181453189
 20
20.9155434542107876
 10
14.8938031181453212
 20
21.3511434542107601
 10
14.9655490081853184
 20
21.7034669708107941
 10
14.9655490081853273
 20
22.5311069708108072
 10
14.8607695663853239
 20
23.2251237087307985
 10
14.6954770081853194
 20
23.7028709708108067
 10
14.6736970081853304
 20
23.7551429708108124
 10
14.4327767105453244
 20
24.2232454390508067
 10
14.3450846370653231
 20
24.352127456490841
 10
14.0943490081853202
 20
24.6655469708107695
 10
13.7364245903453259
 20
24.9596733255308152
 10
13.1316730081853308
 20
25.223114970810812
 10
13.0924690081853221
 20
25.2318269708108041
 10
13.0489090081853227
 20
25.3189469708107708
 10
13.2667090081853267
 20
25.4931869708107826
 10
13.7358167105453166
 20
26.1968485025707913
 10
13.8229367105453225
 20
26.3275285025707646
 10
14.0789748982253151
 20
27.0216304874108353
 10
14.1466210081853365
 20
27.231230970810806
 10
14.2685890081853319
 20
27.8454269708108271
 10
14.2685890081853266
 20
28.4552669708108219
 10
14.2056210679853194
 20
28.8889261985707826
 10
14.194537008185339
 20
28.9387829708107667
 10
13.9536167105453366
 20
29.5811254390507585
 10
13.7807170081853236
 20
29.8448309708108361
 10
13.6151890081853235
 20
30.1105469708107663
 10
13.5716290081853277
 20
30.1105469708107591
 10
13.4845090081853218
 20
30.1976669708108076
 10
13.4845090081853165
 20
30.2412269708108212
 10
13.2667090081853338
 20
30.4590269708107719
 10
12.7831930081853411
 20
30.7073189708107961
 10
12.5305450081853387
 20
30.8162189708107732
 10
11.8292290081853295
 20
30.9817469708107964
 10
11.1758290081853353
 20
30.9817469708107893
 10
10.7402290081853309
 20
30.8946269708108332
 10
10.6966690081853386
 20
30.9381869708107757
 10
10.8404170081853444
 20
31.2823109708108262
 10
10.9580290081853136
 20
31.8529469708108337
 10
10.958029008185326
 20
32.3321069708108269
 10
10.811974898225337
 20
32.9816634542108105
 10
10.5119746081853283
 20
33.5003861708107635
 10
10.4022034081853274
 20
33.6467477708107836
 10
9.9997090081853255
 20
34.0745069708108161
 10
9.3424654915853296
 20
34.4076128608507759
 10
9.132865008185318
 20
34.4752589708107635
 10
8.9542690081853404
 20
34.5536669708108164
 10
8.1266290081853327
 20
34.5536669708108164
 10
7.7819925247853288
 20
34.4511728608507966
 10
7.3928105399453328
 20
34.2822546731708044
 10
7.0768330081853206
 20
34.0832189708108118
 10
6.6891490081853382
 20
33.7695869708108276
 10
6.6891490081853355
 20
33.7260269708107998
 10
6.6455890081853308
 20
33.6824669708107862
 10
6.3909305399453284
 20
33.9103192684507917
 10
5.9007130081853196
 20
34.1921189708107889
 10
5.6370074764253246
 20
34.325814673170818
 10
5.2926154081853287
 20
34.4482517708108276
 10
5.0364826081853229
 20
34.4848421708108148
 10
4.9903090081853438
 20
34.5101069708108028
 10
4.3369090081853381
 20
34.5101069708107957
 10
3.6443050081853414
 20
34.283594970810789
 10
3.5049130081853157
 20
34.2138989708107957
 10
3.2132752362653112
 20
34.0637954796908176
 10
2.9776227801053263
 20
33.8674184619308036
 10
2.5945090081853377
 20
33.5082269708107887
 10
2.3418610081853144
 20
33.111830970810793
 10
2.2983010081853386
 20
33.0247109708108297
 10
2.0465242081853368
 20
32.1988133708107611
 10
2.0099338081853442
 20
31.9426805708108077
 10
1.9846690081853167
 20
31.8965069708107762
 10
1.9846690081853202
 20
30.9817469708107964
 10
2.0900842081853148
 20
30.4180805708107656
 10
2.1458410081853434
 20
30.1933109708107743
 10
2.516101008185319
 20
29.0259029708108152
 10
2.8022567105453242
 20
28.4921254390507812
 10
3.1172290081853178
 20
27.9325469708107974
 10
2.8927274764253088
 20
27.7683592684508405
 10
2.5073890081853323
 20
27.4969469708108214
 10
2.115349008185337
 20
27.1049069708107844
 10
2.0805010081853443
 20
27.0134309708107878
 10
2.0617367105453042
 20
26.9809285025707801
 10
1.8670570081853142
 20
26.664950970810775
 10
1.636189008185341
 20
25.7981069708107782
 10
1.5926290081853132
 20
25.7545469708108321
 10
0.9459305399453292
 20
26.1566392684508351
 10
0.1048874764253139
 20
26.7028146731707778
 10
-0.5374549918146766
 20
27.0700589708108339
 10
-2.2798549918146893
 20
27.9020549708108021
 10
-4.0295542538946689
 20
28.4811675290107758
 10
-4.2414677297346808
 20
28.5164864126108313
 10
-5.6818909918146767
 20
28.7166269708107933
 10
-7.075810991814687
 20
28.7166269708107933
 10
-8.5960549918146594
 20
28.4857589708108172
 10
-9.4242074752146898
 20
28.2656528608508211
 10
-10.4691349918146805
 20
27.8367149708107675
 10
-10.7740549918146726
 20
27.6624749708108375
 10
-11.7881317918146955
 20
27.0282413708108358
 10
-12.6514909918146756
 20
26.3208269708107956
 10
-13.3589053918146909
 20
25.5445877708108178
 10
-13.7300365918146827
 20
25.049746170810792
 10
-14.2327189918146857
 20
24.1036229708108358
 10
-14.3633989918146714
 20
23.755142970810823
 10
-14.7682715500146706
 20
22.6152837087308214
 10
-14.8035904336146551
 20
22.4033702328908007
 10
-14.9601709918146693
 20
21.6599069708107912
 10
-14.9601709918146746
 20
19.2205469708107657
 10
-14.6465389918146869
 20
18.0923429708107975
 10
-14.4656368818546834
 20
17.4819904874107976
 10
-14.0802589918146897
 20
16.6548629708107967
 10
-13.8363229918146615
 20
16.1669909708108079
 10
-12.8775098490546895
 20
14.8497529929308101
 10
-13.1198573465346762
 20
14.5066225529708248
 10
-13.4247773465346683
 20
14.1581425529708103
 10
-13.6446589918146728
 20
13.8583109708107806
 10
-13.7073853918146629
 20
13.7398277708108338
 10
-14.0323429918146747
 20
13.2049109708107704
 10
-14.3198389918146916
 20
12.473102970810789
 10
-14.5527568818546928
 20
11.6372634542108049
 10
-14.6270651017746847
 20
11.3400304874107682
 10
-14.7658093645746895
 20
10.4199897086108209
 10
-14.8060526190546877
 20
9.8565842330108282
 10
-14.8294909918146889
 20
7.89494697081079
 10
-14.7247115500146943
 20
7.1138102328907644
 10
-14.5940315500146713
 20
6.3732902328907937
 10
-14.1673789918146955
 20
5.1550229708108102
 10
-14.0541229918146868
 20
4.8849509708107721
 10
-13.4685066206946971
 20
3.8959264851308006
 10
-13.1846653918146792
 20
3.5311061708108387
 10
-12.2248172198946552
 20
2.5699154796907635
 10
-11.8160101918146996
 20
2.2426013708107817
 10
-11.0354149918146778
 20
1.7616989708108228
 10
-10.6085269918146992
 20
1.5264749708108223
 10
-9.9904874752146569
 20
1.2892010807708267
 10
-9.3883345084146637
 20
1.1277728608507847
 10
-7.7713337296146543
 20
0.9019085980507846
 10
-7.2079282540146705
 20
0.8616653435708237
 10
-6.0739309918146844
 20
0.8382269708107852
 10
-5.4218801756946986
 20
0.9020250339307978
 10
-4.9819877297346951
 20
0.9512475290107787
 10
-2.9409617576945801
 20
1.3777008002108317
 10
-1.4173669918146587
 20
1.9402949708107897
 10
-0.0670069918146663
 20
2.6328989708107837
 10
1.6361890081853376
 20
3.6260669708108146
 10
1.8017170081853042
 20
3.1861109708108017
 10
1.8409210081853011
 20
3.098990970810835
 10
2.0382813058253069
 20
2.6308885025707784
 10
2.105296710545324
 20
2.5303654390507724
 10
2.463829008185308
 20
2.1450269708107932
 10
2.8166650081853124
 20
1.8923789708108085
 10
3.073669008185322
 20
1.7529869708108308
 10
3.07366900818533
 20
1.6658669708107929
 10
2.8458167105453223
 20
1.3240885025707563
 10
2.5204570081853048
 20
0.7467509708107816
 10
2.2329610081853346
 20
0.0585029708108227
 10
2.0541295663853179
 20
-0.7705497671091788
 10
1.9846690081853064
 20
-1.0784130291892158
 10
1.984669008185302
 20
-2.3852130291892326
 10
2.1240610081853202
 20
-2.9035770291892167
 10
2.1937570081853113
 20
-3.0865290291892098
 10
2.5073890081853283
 20
-3.7355730291891849
 10
2.6903410081853205
 20
-3.9054570291892379
 10
2.7687490081853046
 20
-4.040493029189177
 10
3.2999685225053379
 20
-4.4654686580692253
 10
3.8621050081853214
 20
-4.7243850291891842
 10
3.9405130081853121
 20
-4.7505210291892279
 10
4.3778554081853018
 20
-4.8428682291891985
 10
4.9467490081852956
 20
-4.8681330291891971
 10
5.3779930081853271
 20
-4.7679450291892014
 10
5.9878330081853219
 20
-4.5109410291891852
 10
6.0401050081853249
 20
-4.4848050291892232
 10
6.6455890081853166
 20
-4.040493029189177
 10
7.0473758631053096
 20
-4.4217031855491999
 10
7.608265008185322
 20
-4.7679450291892085
 10
7.9485454915853317
 20
-4.883507139149172
 10
7.9959490081852991
 20
-4.9116930291892142
 10
8.910709008185334
 20
-4.9116930291892107
 10
9.2553454915853184
 20
-4.8091989192291944
 10
9.3071050081853155
 20
-4.7897250291892153
 10
9.7305082081853147
 20
-4.5963186291892111
 10
9.8768698081853081
 20
-4.4865474291891818
 10
9.9997090081853006
 20
-4.4325330291892211
 10
10.435309008185321
 20
-3.9969330291892415
 10
10.60083700818533
 20
-3.7312170291892262
 10
10.7053810081853378
 20
-3.5221290291891858
 10
10.8541551787853159
 20
-3.1223822633092144
 10
10.8876628375853208
 20
-2.9548437950691824
 10
10.9580290081852958
 20
-2.6901330291892318
 10
10.9580290081853136
 20
-2.1674130291891966
 10
10.8186370081853092
 20
-1.6054890291891919
 10
10.7402290081853096
 20
-1.3397730291891978
  0
MTEXT
  5
5B
100
AcDbEntity
100
AcDbMText
  8
0
 62
256
370
-1
  6
ByLayer
 10
-3.0891249493436597
 20
14.6460584621235785
 30
0.0
 40
1.7424000000000002
 41
4.3560000000000008
 71
5
 72
0
  1
Herzlichen\~\PGl\U+00fcckwunsch\Pzu\~Deinem\PGeburtstag
  7
standard
 50
90.0
 73
1
 44
1.0
  0
LINE
  5
5C
100
AcDbEntity
100
AcDbLine
  8
Hilf
 62
256
370
-1
  6
ByLayer
 10
-14.9939096413900135
 20
14.7447282162162647
 30
0.0
 11
14.9771033402317411
 21
14.7447282162162647
 31
0.0
  0
ENDSEC
  0
SECTION
  2
OBJECTS
  0
DICTIONARY
  5
C
100
AcDbDictionary
280
0
281
1
  3
ACAD_GROUP
350
D
  3
ACAD_LAYOUT
350
1A
  3
ACAD_MLINESTYLE
350
17
  3
ACAD_PLOTSETTINGS
350
19
  3
ACAD_PLOTSTYLENAME
350
E
  3
AcDbVariableDictionary
350
5D
  0
DICTIONARY
  5
D
100
AcDbDictionary
280
0
281
1
  0
ACDBDICTIONARYWDFLT
  5
E
100
AcDbDictionary
281
1
  3
Normal
350
F
100
AcDbDictionaryWithDefault
340
F
  0
ACDBPLACEHOLDER
  5
F
  0
DICTIONARY
  5
17
100
AcDbDictionary
280
0
281
1
  3
Standard
350
18
  0
MLINESTYLE
  5
18
100
AcDbMlineStyle
  2
STANDARD
 70
0
  3

 62
256
 51
90.0
 52
90.0
 71
2
 49
0.5
 62
256
  6
BYLAYER
 49
-0.5
 62
256
  6
BYLAYER
  0
DICTIONARY
  5
19
100
AcDbDictionary
280
0
281
1
  0
DICTIONARY
  5
1A
100
AcDbDictionary
281
1
  3
Layout1
350
1E
  3
Layout2
350
26
  3
Model
350
22
  0
LAYOUT
  5
1E
100
AcDbPlotSettings
  1

  2
C:\Program Files\AutoCAD 2002\plotters\DWF ePlot (optimized for plotting).pc3
  4

  6

 40
0.0
 41
0.0
 42
0.0
 43
0.0
 44
0.0
 45
0.0
 46
0.0
 47
0.0
 48
0.0
 49
0.0
140
0.0
141
0.0
142
1.0
143
1.0
 70
688
 72
0
 73
0
 74
5
  7

 75
16
147
1.0
148
0.0
149
0.0
100
AcDbLayout
  1
Layout1
 70
1
 71
1
 10
0.0
 20
0.0
 11
420.0
 21
297.0
 12
0.0
 22
0.0
 32
0.0
 14
100000000000000000000.0
 24
100000000000000000000.0
 34
100000000000000000000.0
 15
-100000000000000000000.0
 25
-100000000000000000000.0
 35
-100000000000000000000.0
146
0.0
 13
0.0
 23
0.0
 33
0.0
 16
1.0
 26
0.0
 36
0.0
 17
0.0
 27
1.0
 37
0.0
 76
0
330
1B
  0
LAYOUT
  5
22
100
AcDbPlotSettings
  1

  2
C:\Program Files\AutoCAD 2002\plotters\DWF ePlot (optimized for plotting).pc3
  4

  6

 40
0.0
 41
0.0
 42
0.0
 43
0.0
 44
0.0
 45
0.0
 46
0.0
 47
0.0
 48
0.0
 49
0.0
140
0.0
141
0.0
142
1.0
143
1.0
 70
1712
 72
0
 73
0
 74
0
  7

 75
0
147
1.0
148
0.0
149
0.0
100
AcDbLayout
  1
Model
 70
1
 71
0
 10
0.0
 20
0.0
 11
12.0
 21
9.0
 12
0.0
 22
0.0
 32
0.0
 14
0.0
 24
0.0
 34
0.0
 15
0.0
 25
0.0
 35
0.0
146
0.0
 13
0.0
 23
0.0
 33
0.0
 16
1.0
 26
0.0
 36
0.0
 17
0.0
 27
1.0
 37
0.0
 76
0
330
1F
  0
LAYOUT
  5
26
100
AcDbPlotSettings
  1

  2
C:\Program Files\AutoCAD 2002\plotters\DWF ePlot (optimized for plotting).pc3
  4

  6

 40
0.0
 41
0.0
 42
0.0
 43
0.0
 44
0.0
 45
0.0
 46
0.0
 47
0.0
 48
0.0
 49
0.0
140
0.0
141
0.0
142
1.0
143
1.0
 70
688
 72
0
 73
0
 74
5
  7

 75
16
147
1.0
148
0.0
149
0.0
100
AcDbLayout
  1
Layout2
 70
1
 71
2
 10
0.0
 20
0.0
 11
12.0
 21
9.0
 12
0.0
 22
0.0
 32
0.0
 14
0.0
 24
0.0
 34
0.0
 15
0.0
 25
0.0
 35
0.0
146
0.0
 13
0.0
 23
0.0
 33
0.0
 16
1.0
 26
0.0
 36
0.0
 17
0.0
 27
1.0
 37
0.0
 76
0
330
23
  0
DICTIONARY
  5
5D
100
AcDbDictionary
281
1
  3
DIMASSOC
350
5F
  3
HIDETEXT
350
5E
  0
DICTIONARYVAR
  5
5E
100
DictionaryVariables
280
0
  1
2
  0
DICTIONARYVAR
  5
5F
100
DictionaryVariables
280
0
  1
1
  0
ENDSEC
  0
EOF
