<?xml version="1.0" encoding="UTF-8" standalone="no"?>
<!-- Created with Inkscape (http://www.inkscape.org/) -->

<svg
   xmlns:dc="http://purl.org/dc/elements/1.1/"
   xmlns:cc="http://creativecommons.org/ns#"
   xmlns:rdf="http://www.w3.org/1999/02/22-rdf-syntax-ns#"
   xmlns:svg="http://www.w3.org/2000/svg"
   xmlns="http://www.w3.org/2000/svg"
   xmlns:sodipodi="http://sodipodi.sourceforge.net/DTD/sodipodi-0.dtd"
   xmlns:inkscape="http://www.inkscape.org/namespaces/inkscape"
   id="svg2"
   version="1.1"
   inkscape:version="0.48.1 r9760"
   width="744.09447"
   height="1052.3622"
   xml:space="preserve"
   sodipodi:docname="Hertz.pdf"><metadata
     id="metadata8"><rdf:RDF><cc:Work
         rdf:about=""><dc:format>image/svg+xml</dc:format><dc:type
           rdf:resource="http://purl.org/dc/dcmitype/StillImage" /><dc:title></dc:title></cc:Work></rdf:RDF></metadata><defs
     id="defs6" /><sodipodi:namedview
     pagecolor="#ffffff"
     bordercolor="#666666"
     borderopacity="1"
     objecttolerance="10"
     gridtolerance="10"
     guidetolerance="10"
     inkscape:pageopacity="0"
     inkscape:pageshadow="2"
     inkscape:window-width="1920"
     inkscape:window-height="1056"
     id="namedview4"
     showgrid="false"
     inkscape:zoom="6.1757295"
     inkscape:cx="348.00063"
     inkscape:cy="546.78623"
     inkscape:window-x="0"
     inkscape:window-y="24"
     inkscape:window-maximized="1"
     inkscape:current-layer="g10" /><g
     id="g10"
     inkscape:groupmode="layer"
     inkscape:label="Hertz"
     transform="matrix(1.25,0,0,-1.25,0,1052.3622)"><path
       inkscape:connector-curvature="0"
       id="path14"
       style="fill:#000000;fill-opacity:1;fill-rule:nonzero;stroke:none"
       d="m 293.523,402.741 0,-0.226 1.301,0 0,0.226 -1.301,0 z" /><path
       inkscape:connector-curvature="0"
       id="path16"
       style="fill:#000000;fill-opacity:1;fill-rule:nonzero;stroke:none"
       d="m 293.523,472.491 0,-0.25 1.301,0 0,0.25 -1.301,0 z" /><path
       inkscape:connector-curvature="0"
       id="path18"
       style="fill:#000000;fill-opacity:1;fill-rule:nonzero;stroke:none"
       d="m 293.648,403.163 -0.171,-0.347 -0.375,-0.676 -0.028,-0.051 -3.898,-6.324 -0.051,-0.074 -0.023,-0.075 -0.426,-1.453 -0.028,-0.047 0,-0.027 -0.449,-2.449 0,-1.352 0.176,-0.847 0.023,-0.028 0,-0.023 0.227,-0.727 0.023,-0.125 0.102,-0.097 0.801,-1 0.097,-0.125 0.153,-0.051 0.5,-0.227 0.023,-0.023 0.727,-0.25 0.097,-0.051 0.75,0 0.125,0.051 0.727,0.351 0.074,0.024 0.051,0.023 1.074,0.778 0.125,0.097 0.074,0.153 0.454,1 0.023,0.05 0.023,0.075 0.528,2.425 0,0.172 -0.352,10.625 -0.648,-0.023 0,0.648 -0.528,0 z m -0.046,-2.75 0.273,-8.523 0,-0.024 -0.5,-2.25 0,-0.027 -0.324,-0.723 -0.824,-0.578 -0.079,-0.023 -0.023,-0.024 -0.523,-0.226 -0.227,0 -0.551,0.199 0,0.027 -0.347,0.125 -0.625,0.797 -0.204,0.602 -0.023,0 -0.125,0.773 0,0.875 0.426,2.375 0.398,1.375 0.028,0.051 3.25,5.199 z" /><path
       inkscape:connector-curvature="0"
       id="path20"
       style="fill:#000000;fill-opacity:1;fill-rule:nonzero;stroke:none"
       d="m 291.523,488.316 -0.222,-0.075 -0.625,-0.203 -0.028,-0.023 -0.625,-0.25 -0.347,-0.149 -0.102,-0.05 -0.097,-0.102 -0.352,-0.348 -0.125,-0.125 -0.051,-0.125 -0.597,-1.703 -0.028,-0.125 0,-2.523 0.028,-0.074 0.398,-1.45 0,-0.027 0.551,-1.625 0.023,-0.051 0.028,-0.074 3.375,-5.848 0.046,-0.101 0.028,0 0.699,-1.125 0.176,-0.301 0.5,0 0,0.652 0.648,-0.027 0.051,4.949 0,0.078 0.301,2.848 0,2.625 -0.176,1.199 0,0.051 -0.023,0.027 -0.329,1.325 -0.023,0.05 0,0.047 -0.074,0.153 0,0.023 -0.403,0.824 -0.046,0.153 -0.125,0.097 -0.352,0.278 -0.023,0 -0.028,0.023 -1,0.676 -0.051,0.023 -0.074,0.028 -0.699,0.3 -0.227,0.075 z m -0.023,-1.375 0.352,-0.153 0.972,-0.625 0.028,-0.023 0.199,-0.176 0.301,-0.648 0,-0.028 0.023,-0.047 0.023,-0.078 0.301,-1.172 0.028,-0.078 0.148,-1.047 0,-2.453 -0.301,-2.847 0,-0.075 -0.023,-2.953 -3.028,5.227 0,0.023 -0.523,1.551 0,0.027 -0.375,1.325 0,2.175 0.523,1.422 0.153,0.176 0.25,0.102 0.551,0.222 0.046,0.028 0.352,0.125 z" /><path
       inkscape:connector-curvature="0"
       id="path22"
       style="fill:#000000;fill-opacity:1;fill-rule:nonzero;stroke:none"
       d="m 295.898,419.265 -0.222,-0.024 -0.176,-0.027 -0.148,-0.098 -2.676,-2.175 -0.051,-0.051 -2.301,-2.324 -0.051,-0.051 -0.023,-0.051 -0.352,-0.5 -1.375,-2.023 -0.023,-0.028 0,-0.023 -0.426,-0.774 -0.023,-0.078 -0.028,-0.047 -0.773,-2.675 -0.023,-0.125 0,-0.102 0.074,-1 0,-0.051 0.023,-0.074 0.301,-1.074 0.051,-0.199 0.148,-0.125 0.574,-0.528 0.102,-0.074 0.125,-0.051 0.602,-0.199 0.125,-0.051 0.699,0 0.125,0.051 1.051,0.375 0.097,0.051 0.074,0.051 1.102,0.824 0.102,0.074 0.046,0.074 1.778,2.578 0.051,0.047 0,0.028 0.296,0.597 0.028,0.028 0,0.023 0.523,1.375 0.028,0.027 0,0.024 0.324,1.199 0.023,0.051 0,0.023 0.727,4.403 0.023,0.023 0,0.027 0.176,1.95 -0.625,0.05 -0.102,0.649 z m -0.699,-1.977 -0.051,-0.523 0,-0.024 -0.722,-4.3 -0.301,-1.125 -0.023,-0.028 0,-0.047 -0.5,-1.25 -0.028,-0.05 -0.199,-0.45 -0.051,-0.078 -1.699,-2.422 -0.949,-0.703 -0.875,-0.324 -0.199,0 -0.375,0.125 -0.403,0.324 -0.222,0.778 0,0.05 -0.079,0.825 0.704,2.425 0.023,0.047 0.023,0.078 0.329,0.575 0.023,0.05 1.375,2 0.25,0.399 2.25,2.273 0.051,0.051 1.648,1.324 z" /><path
       inkscape:connector-curvature="0"
       id="path24"
       style="fill:#000000;fill-opacity:1;fill-rule:nonzero;stroke:none"
       d="m 289.375,470.241 -0.227,-0.101 -0.949,-0.5 -0.199,-0.102 -0.102,-0.199 -0.347,-0.773 -0.051,-0.075 -0.051,-0.05 -0.097,-0.176 0,-2.477 0.023,-0.097 0.301,-0.825 0,-0.027 0.023,-0.125 0.028,-0.051 0.023,-0.047 0.898,-1.925 0.028,-0.051 0.051,-0.051 0.296,-0.398 0,-0.028 0.028,0 2.273,-2.824 0.028,-0.023 0.023,-0.028 1.324,-1.347 0.028,0 0.023,-0.028 1,-0.898 0.051,-0.051 1.672,-1.25 0.453,-0.324 0.699,0.699 0,0.75 -0.477,0 -0.074,0.051 0.25,0.148 0.227,0.028 0,0.097 -0.028,0.028 -0.449,3.898 0,0.051 -0.023,0.023 -0.5,1.977 0,0.023 -0.477,1.477 -0.023,0.023 0,0.028 -0.426,0.949 -0.023,0.023 -0.028,0.051 -0.773,1.375 -0.051,0.051 -1.227,1.699 -0.148,0.176 -0.199,0.074 -1.176,0.727 -0.074,0.05 -0.074,0.024 -0.204,0.074 -0.046,0 -0.028,0.027 -0.972,0.2 -0.227,0.05 z m 0.176,-1.375 0.676,-0.125 0,-0.027 0.125,-0.023 1.199,-0.75 0.023,-0.028 1.074,-1.472 0.051,-0.075 0.727,-1.25 0.023,-0.027 0,-0.023 0.375,-0.825 0.028,-0.078 0.449,-1.347 0,-0.051 0.472,-1.824 0.028,-0.102 0.398,-3.273 -0.574,0.398 -0.051,0.051 -0.949,0.851 -0.023,0.024 -1.25,1.273 -0.051,0.051 -2.227,2.75 -0.023,0.027 -0.278,0.375 -0.824,1.723 0,0.051 -0.023,0.023 0,0.051 -0.028,0.027 -0.25,0.774 0,1.898 0.028,0.028 0.301,0.648 0.574,0.277 z" /><path
       inkscape:connector-curvature="0"
       id="path26"
       style="fill:#000000;fill-opacity:1;fill-rule:nonzero;stroke:none"
       d="m 299.375,397.066 -0.102,-0.25 1.153,-0.575 0.125,0.25 -1.176,0.575 z" /><path
       inkscape:connector-curvature="0"
       id="path28"
       style="fill:#000000;fill-opacity:1;fill-rule:nonzero;stroke:none"
       d="m 300.551,478.64 -1.176,-0.574 0.125,-0.25 1.176,0.574 -0.125,0.25 z" /><path
       inkscape:connector-curvature="0"
       id="path30"
       style="fill:#000000;fill-opacity:1;fill-rule:nonzero;stroke:none"
       d="m 301.523,391.714 -0.199,-0.125 -0.25,-0.148 -0.722,-0.477 -0.153,-0.074 -0.074,-0.149 -0.273,-0.476 0,-0.024 -0.028,-0.05 -0.199,-0.5 -0.074,-0.125 0,-1 0.074,-0.125 0.148,-0.325 0,-0.027 0.051,-0.125 0.028,-0.074 0.046,-0.051 0.5,-0.723 0.125,-0.152 0.153,-0.074 0.273,-0.125 0.074,-0.051 0.176,-0.125 1.426,0 0.102,0.027 0.347,0.125 0.153,0.047 0.097,0.125 0.5,0.477 0.074,0.101 0.051,0.125 0.199,0.5 0.028,0.047 0.023,0.078 0.153,0.973 -0.602,0.102 0.602,0.148 -0.25,1 -0.051,0.227 -0.199,0.148 -0.227,0.152 -0.023,0 -0.625,0.422 -0.102,0.078 -0.148,0 -0.954,0.172 -0.25,0.051 z m 0.25,-1.375 0.625,-0.098 0.477,-0.328 0.023,-0.023 0.153,-0.625 -0.102,-0.676 0,-0.023 -0.148,-0.352 -0.278,-0.273 -0.148,-0.051 -0.727,0 -0.046,0.023 -0.051,0.028 -0.199,0.074 -0.329,0.449 -0.023,0.051 -0.023,0.101 -0.102,0.2 0,0.55 0.125,0.25 0.023,0.075 0.176,0.273 0.574,0.375 z" /><path
       inkscape:connector-curvature="0"
       id="path32"
       style="fill:#000000;fill-opacity:1;fill-rule:nonzero;stroke:none"
       d="m 302.5,488.441 -0.25,-0.051 -0.824,-0.176 -0.102,-0.023 -0.074,-0.028 -0.852,-0.449 -0.125,-0.074 -0.097,-0.125 -0.278,-0.352 -0.023,-0.023 0,-0.024 -0.227,-0.402 -0.097,-0.148 0,-1.575 0.097,-0.152 0.153,-0.223 0.472,-0.75 0.102,-0.175 0.199,-0.075 0.278,-0.125 0.074,-0.027 0.301,-0.199 0.148,-0.074 0.801,0 0.125,0.05 1.074,0.5 0.125,0.047 0.074,0.078 0.5,0.5 0.051,0.2 0.227,1.347 -0.653,0.125 0.653,0.176 -0.176,0.602 -0.028,0.05 -0.023,0.075 -0.301,0.597 -0.097,0.176 -0.176,0.102 -0.449,0.273 -0.028,0 -0.347,0.227 -0.227,0.125 z m -0.227,-1.375 0.153,-0.102 0.023,0 0.301,-0.176 0.176,-0.324 0.051,-0.125 0.074,-0.324 -0.199,-1.024 -0.125,-0.125 -0.852,-0.375 -0.176,0 -0.199,0.125 -0.051,0.024 -0.023,0.023 -0.176,0.078 -0.352,0.547 -0.023,0.051 0,0.902 0.074,0.149 0.051,0.074 0.148,0.176 0.653,0.324 0.051,0.027 0.421,0.075 z" /><path
       inkscape:connector-curvature="0"
       id="path34"
       style="fill:#000000;fill-opacity:1;fill-rule:nonzero;stroke:none"
       d="m 259.398,471.913 -2.648,-0.297 -0.051,0 -1.926,-0.375 -0.046,0 -0.051,-0.027 -1.852,-0.676 -0.023,0 -0.028,-0.023 -3.125,-1.5 -0.023,-0.024 -0.051,-0.027 -0.273,-0.199 -0.028,0 -2.398,-1.75 -0.023,-0.024 -0.051,-0.027 -1.801,-1.848 -0.102,-0.101 -0.296,-0.477 -0.028,-0.023 -0.347,-0.449 0,-0.051 -0.028,-0.024 -0.847,-1.453 -0.028,-0.023 0,-0.024 -0.047,-0.101 -1.027,-2.098 -0.023,-0.051 -0.028,-0.074 -0.199,-0.828 0,-0.023 -0.625,-3.051 0,-0.051 -0.199,-1.598 0,-4.074 0.023,-0.101 1,-3.649 0.028,-0.051 0.023,-0.05 0.949,-2.075 0,-0.027 0.028,-0.023 0.921,-1.602 0,-0.023 0.028,-0.024 1.347,-1.953 0.028,-0.047 0.051,-0.027 2.296,-2.324 0.028,-0.024 0.051,-0.051 1.796,-1.324 -0.171,-0.101 -0.028,-0.024 -0.023,-0.027 -2.75,-1.875 -0.028,-0.024 -0.023,-0.027 -1.477,-1.324 -0.074,-0.051 -0.047,-0.074 -0.55,-0.848 -0.028,-0.027 -0.347,-0.473 -0.028,-0.027 -0.023,-0.051 -1.074,-2.074 -0.028,-0.024 -0.023,-0.05 -0.676,-2.075 0,-0.05 -0.023,-0.051 -0.5,-3.547 0,-0.051 -0.125,-1.324 0,-0.027 -0.176,-4.149 0,-0.125 0.176,-1.226 0,-0.024 0.273,-1.476 0,-0.051 0.824,-3.149 0,-0.074 0.028,-0.051 0.597,-1.226 0,-0.024 0.028,-0.023 1.449,-2.426 0.023,-0.051 0.051,-0.05 1.676,-1.848 0.023,-0.051 0.078,-0.051 0.973,-0.699 0.477,-0.351 0.023,-0.024 0.023,-0.027 1.926,-1.223 0.028,0 0.097,-0.051 0.028,-0.023 0.023,0 1.477,-0.676 0.046,-0.027 0.051,-0.024 0.352,-0.074 0.023,0 2.676,-0.527 0.051,0 3.75,-0.422 0.097,0 2.301,0.074 0.051,0 3.375,0.348 0.051,0 3.398,0.652 0.028,0 0.347,0.074 0.028,0.024 0.046,0 3.528,1.277 0.023,0.024 0.051,0 0.227,0.125 3.472,1.652 0.028,0 0.023,0.023 3.898,2.375 0.028,0.024 4.074,2.75 0.023,0 0.028,0.027 3.301,2.625 0.023,0 2.824,2.399 0.024,0 0.027,0.027 6.551,6.449 0.023,0.024 0.024,0.027 1.675,2.098 0.602,0.726 0,0.024 3.324,4.226 0.024,0.024 3.976,5.902 -0.551,0.348 0.551,0.351 -0.574,0.875 -2.727,4.125 -0.023,0.024 -1.152,1.527 -0.024,0 -2.699,3.375 -0.027,0.023 -0.649,0.774 -0.023,0 -2.926,3.277 0,0.024 -0.027,0 -4.825,4.902 -0.023,0.023 -0.023,0 -6.551,5.352 -0.028,0.023 -1.347,0.973 0,0.027 -4.352,2.926 -0.023,0 -2.653,1.723 -0.023,0.027 -0.051,0 -5.648,2.75 -0.102,0.047 -3.125,0.977 -0.051,0 -1.097,0.273 -0.028,0.027 -0.046,0 -0.704,0.098 -0.023,0 -2.551,0.25 -0.051,0 -2.648,0.078 -0.102,0 0,-0.004 z m 0.051,-1.297 0.102,0 2.523,-0.078 0.051,0 2.477,-0.25 0.023,0 0.602,-0.074 0.074,-0.023 1,-0.25 0.051,0 3,-0.95 5.597,-2.703 2.653,-1.699 4.324,-2.926 1.301,-0.949 0.023,-0.023 6.477,-5.278 0.046,-0.047 4.75,-4.8 0.028,-0.028 2.898,-3.25 0.676,-0.773 -0.023,0 2.699,-3.352 0.023,-0.023 1.102,-1.449 0.023,-0.028 2.699,-4.074 0.329,-0.5 -3.676,-5.5 -0.028,-0.051 -3.296,-4.172 0.023,0 -0.625,-0.726 0,-0.024 -1.602,-2.027 -6.523,-6.398 -0.051,-0.051 -2.773,-2.324 -0.028,-0.028 -3.25,-2.574 -0.046,-0.023 -4,-2.7 -0.028,-0.027 -3.824,-2.324 -3.477,-1.649 -0.171,-0.101 -0.079,-0.024 -3.398,-1.226 -0.051,-0.024 -0.25,-0.074 0,0.024 -3.347,-0.649 0,0.024 -3.329,-0.375 0,0.023 -2.199,-0.074 -0.097,0 -3.653,0.426 0,-0.024 -2.574,0.524 -0.051,0 -0.301,0.074 -1.296,0.601 -0.079,0.024 -0.023,0.027 -1.852,1.172 -0.046,0.027 -0.454,0.348 -0.972,0.676 -0.028,0.023 -1.472,1.676 -0.028,0.051 -0.046,0.051 -1.352,2.273 -0.023,0.051 -0.528,1.051 -0.023,0.05 -0.778,3.047 -0.273,1.453 0,0.024 -0.148,1.074 0.171,4.152 0.125,1.325 -0.023,0 0.5,3.398 0,0.027 0.023,0.098 0.653,1.926 0.972,1.898 0.051,0.078 0.324,0.399 0,0.023 0.028,0 0.551,0.852 0.023,0.023 1.301,1.153 0.051,0.05 2.625,1.797 0.046,0.028 1.051,0.55 0.778,0.422 -0.625,0.602 -0.25,0.25 -0.153,0.051 -2.25,1.675 -0.074,0.047 -2.148,2.176 -1.329,1.902 -0.023,0.047 -0.875,1.5 -0.023,0.028 0,0.023 -0.875,1.926 -1,3.551 0,3.847 0.199,1.5 0.597,2.977 0,0.051 0.204,0.75 0,0.05 0.972,1.95 0,0.023 0.028,0.051 0.023,0.023 0.824,1.426 0.324,0.426 0,0.023 0.028,0 0.25,0.426 0.023,0.027 0.051,0.075 1.648,1.648 0.079,0.074 2.296,1.653 0.028,0.023 0.176,0.125 0.074,0.051 2.972,1.449 0.079,0.027 1.671,0.598 0.102,0.027 1.773,0.325 0.051,0 2.5,0.3 z" /><path
       inkscape:connector-curvature="0"
       id="path36"
       style="fill:#000000;fill-opacity:1;fill-rule:nonzero;stroke:none"
       d="m 306.352,412.816 -1.153,-0.575 0.102,-0.25 1.176,0.575 -0.125,0.25 z" /><path
       inkscape:connector-curvature="0"
       id="path38"
       style="fill:#000000;fill-opacity:1;fill-rule:nonzero;stroke:none"
       d="m 305.273,462.913 -0.125,-0.375 1.25,-0.398 0.102,0.375 -1.227,0.398 z" /><path
       inkscape:connector-curvature="0"
       id="path40"
       style="fill:#000000;fill-opacity:1;fill-rule:nonzero;stroke:none"
       d="m 306.398,432.116 -0.199,-0.078 -0.472,-0.25 -0.176,-0.074 -0.102,-0.176 -1.699,-2.797 -0.023,-0.027 0,-0.023 -0.625,-1.227 0,-0.051 -2,-5.023 -0.028,-0.024 0,-0.05 -0.597,-2.45 -1.204,-5.375 0,-0.027 -0.171,-1.098 -0.028,-0.05 0,-0.075 0.102,-16.25 0,-0.175 0.097,-0.153 0.153,-0.25 0.551,0.352 0.546,-0.352 0.454,0.75 0.046,0.102 0.727,1.699 0,0.051 0.074,0.226 0.028,0.047 0,0.051 0.273,1.852 0,0.05 0.074,1.098 0,0.125 -0.25,1.852 0,0.097 0.074,1.953 0,0.024 0.102,1.699 0.477,7.902 0,0.024 0.449,1.773 0.023,0.051 1.102,3.25 0.023,0.027 0.176,0.547 0.023,0 2.352,5.203 0,0.024 0.227,0.476 0.023,0.024 1.176,2.824 0.097,0.199 -0.046,0.176 -0.125,0.625 -0.028,0.176 -0.398,0.398 -0.125,0.153 -0.227,0.023 -0.722,0.125 -0.204,0.027 z m 0.227,-1.351 0.25,-0.024 0.023,-0.175 -1.074,-2.625 -0.023,-0.028 -0.227,-0.472 -2.375,-5.227 0,-0.051 -0.222,-0.597 -0.028,-0.028 -1.125,-3.324 -0.023,-0.023 0,-0.028 -0.477,-1.949 -0.023,-0.074 0,-0.051 -0.477,-7.926 -0.097,-1.699 0,-0.023 -0.079,-2.075 0,-0.101 0.25,-1.852 0,-0.097 -0.074,-0.95 0,-0.05 -0.222,-1.676 -0.028,-0.102 -0.023,-0.074 -0.028,-0.047 -0.074,-0.152 -0.074,13.875 0.199,1.101 -0.023,0 1.176,5.325 0.574,2.351 0.023,0.047 0,0.027 1.953,4.899 0.024,0.051 0.551,1.125 0.023,0.05 1.602,2.575 0.148,0.074 z" /><path
       inkscape:connector-curvature="0"
       id="path42"
       style="fill:#000000;fill-opacity:1;fill-rule:nonzero;stroke:none"
       d="m 299.551,478.464 -0.25,-0.375 -0.102,-0.176 0,-16.422 0.176,-0.953 0.25,-1.472 0,-0.028 0.949,-4.523 0.028,0 0.523,-2.102 0,-0.047 0.023,-0.05 2.477,-5.727 0.023,-0.023 0,-0.028 0.852,-1.574 0,-0.023 0.023,0 0.926,-1.602 0.153,-0.25 0.273,-0.074 0.023,0 0.079,-0.024 0.199,-0.125 0.148,-0.101 0.977,0 0.176,0.125 0.347,0.226 0.199,0.125 0.051,0.223 0.25,0.727 0.074,0.222 -0.097,0.227 -1.227,2.926 0,0.023 -0.023,0 -0.176,0.375 0,0.027 -2.352,5.172 0,0.028 -0.222,0.55 0,0.024 -1.125,3.301 -0.426,1.675 -0.273,2.047 0.023,0 -0.477,7.703 -0.023,0.125 -0.051,0.098 0,0.027 0.25,5.547 0,0.078 -0.023,0.098 -0.403,1.699 -0.046,0.102 -0.579,1.351 -0.023,0.047 -0.023,0.028 -0.454,0.75 -0.546,-0.352 -0.551,0.375 z m 0.949,-2.648 0.023,-0.051 0.375,-1.574 0,-0.028 -0.25,-5.574 0,-0.148 0.079,-0.176 0,-0.024 0.472,-7.527 0,-0.023 0.25,-2.102 0.028,-0.051 0,-0.023 0.449,-1.801 0,-0.074 1.148,-3.301 0,-0.023 0.25,-0.625 0,-0.028 2.352,-5.222 0.023,-0.028 0.176,-0.347 0.023,-0.051 1.125,-2.676 -0.097,-0.273 -0.25,0 -0.227,0.125 -0.801,1.375 -0.023,0.023 -0.801,1.527 0,0.024 -0.023,0.023 -2.449,5.653 -0.5,1.972 0,0.028 -0.954,4.472 0,0.028 -0.222,1.425 0,0.024 -0.176,0.949 0,14.102 z" /><path
       inkscape:connector-curvature="0"
       id="path44"
       style="fill:#000000;fill-opacity:1;fill-rule:nonzero;stroke:none"
       d="m 307.852,392.714 -0.125,-0.125 0.921,-0.926 0.125,0.125 -0.921,0.926 z" /><path
       inkscape:connector-curvature="0"
       id="path46"
       style="fill:#000000;fill-opacity:1;fill-rule:nonzero;stroke:none"
       d="m 308.199,393.288 -0.472,-0.449 -0.125,-0.125 -0.454,-0.473 0.579,-0.578 0.125,0.125 0.347,0.352 0.324,-0.352 0.125,0.125 -0.347,0.328 0.472,0.473 -0.574,0.574 z" /><path
       inkscape:connector-curvature="0"
       id="path48"
       style="fill:#000000;fill-opacity:1;fill-rule:nonzero;stroke:none"
       d="m 306.449,412.589 -0.551,-0.301 -0.597,0.227 -0.25,-0.602 -0.051,-0.125 0,-6.422 0.176,-1.703 0,-0.023 0.25,-1.477 0,-0.047 0.347,-1.453 0,-0.047 0.028,-0.078 0.574,-1.25 0,-0.023 0.426,-0.824 0.023,-0.051 0.051,-0.051 0.801,-1 0.125,-0.148 0.176,-0.051 0.847,-0.324 0.051,-0.028 0.051,0 0.597,-0.097 0.079,0 1.199,-0.075 0.097,-0.027 0.102,0.027 0.727,0.172 0.097,0.028 0.074,0.05 0.727,0.45 0.148,0.074 0.079,0.125 0.375,0.601 0.023,0 0,0.024 0.227,0.375 0.074,0.148 0,2.153 -0.301,1.222 0,0.051 -0.051,0.152 -0.023,0.024 0,0.023 -0.301,0.703 -0.023,0.047 -0.028,0.051 -0.199,0.277 0,0.024 -0.023,0 -1.676,2.324 -0.028,0.027 -1.523,1.899 -0.051,0.051 -1.148,1.875 -0.028,0.023 -1.699,3 z m -0.148,-2.348 0.75,-1.328 0,-0.023 1.222,-1.949 0.051,-0.051 1.551,-1.926 0.023,-0.023 1.653,-2.278 0,-0.023 0.125,-0.176 0.023,-0.051 0.028,-0.047 0.222,-0.527 0.028,-0.074 0.023,-0.024 0,-0.05 0.25,-1.028 0,-1.672 -0.102,-0.175 -0.023,-0.028 -0.301,-0.449 -0.523,-0.301 -0.477,-0.125 -1.148,0.078 -0.403,0.047 -0.023,0 -0.676,0.278 -0.676,0.824 -0.023,0.023 -0.324,0.676 -0.028,0.027 -0.523,1.2 -0.301,1.3 0,0.047 -0.222,1.375 0,0.051 -0.176,1.602 0,4.8 z" /><path
       inkscape:connector-curvature="0"
       id="path50"
       style="fill:#000000;fill-opacity:1;fill-rule:nonzero;stroke:none"
       d="m 309.676,478.265 -0.074,-0.024 -0.704,-0.175 -0.097,-0.028 -0.074,-0.023 -0.579,-0.324 -0.023,-0.028 -0.125,-0.047 -0.051,-0.05 -0.074,-0.051 -0.477,-0.375 -0.074,-0.074 -0.051,-0.102 -1.199,-1.973 -0.023,-0.027 -0.051,-0.098 -0.023,-0.078 -0.028,-0.074 -0.5,-2.074 0,-0.074 -0.375,-3.551 -0.199,-1.977 0,-2.199 0.176,-1.699 0.023,-0.074 0.028,-0.102 0.171,-0.473 0.625,0.223 0.551,-0.324 1.574,2.75 0.028,0.051 2.949,4.324 0.148,0 0.204,0.226 0.5,0.575 0.023,0.023 0.477,0.625 0.023,0.027 0.023,0.051 0.653,1.125 0.051,0.074 0.023,0.098 0.102,0.352 0.324,1.476 0,1.399 -0.176,0.722 -0.023,0.051 0,0.027 -0.102,0.25 -0.023,0.047 -0.028,0.051 -0.472,0.75 -0.102,0.176 -0.199,0.074 -0.352,0.152 -0.023,0.024 -0.028,0 -1.097,0.351 -0.102,0.024 -1.148,0 z m 0.25,-1.301 0.676,0 0.972,-0.301 0.051,-0.023 0.125,-0.051 0.273,-0.449 0.051,-0.102 0.028,-0.047 0.023,-0.101 0.125,-0.477 0,-1.097 -0.301,-1.325 0,-0.027 -0.023,-0.148 -0.028,-0.028 -0.574,-1.023 -0.051,-0.074 -0.398,-0.528 -0.023,-0.023 -0.301,-0.324 -0.102,0 -0.176,-0.2 -0.25,-0.25 -0.046,-0.027 -0.028,-0.051 -3,-4.422 -0.023,-0.027 -0.699,-1.25 -0.051,0.324 0,2.078 0.199,1.875 0,0.024 0.352,3.449 0.472,2 0,0.027 0.028,0.024 1.097,1.801 0.403,0.324 0.023,0 0.023,0.023 0.551,0.301 0.051,0.027 0.551,0.098 z" /><path
       inkscape:connector-curvature="0"
       id="path52"
       style="fill:#000000;fill-opacity:1;fill-rule:nonzero;stroke:none"
       d="m 312.051,440.566 -0.199,-0.075 -0.977,-0.351 -0.125,-0.024 -0.102,-0.101 -0.847,-0.75 -0.153,-0.149 -0.046,-0.203 -0.028,-0.097 0.028,0 -0.227,-0.852 -0.023,-0.074 0,-0.926 0.023,-0.098 0.273,-0.851 0.028,-0.024 0,-0.027 0.074,-0.125 0.023,-0.074 0.051,-0.074 0.25,-0.352 0.102,-0.125 0.125,-0.074 0.875,-0.449 0.051,-0.028 0.074,-0.023 0.347,-0.074 0.051,-0.024 0.028,0 0.75,-0.078 0.222,-0.023 0.199,0.125 0.176,0.125 0.051,0.023 0.051,0.027 0.023,0 0.324,0.149 0.102,0.051 0.102,0.074 0.375,0.375 0.046,0.051 0.051,0.074 0.301,0.527 0.023,0.024 0,0.023 0.102,0.199 0.023,0.078 0.028,0.098 0.199,1.227 -0.625,0.097 0.625,0.176 -0.25,0.977 -0.051,0.199 -0.176,0.148 -0.949,0.75 -0.074,0.078 -0.102,0.024 -0.5,0.199 -0.046,0 -0.477,0.152 -0.199,0.075 z m 0.023,-1.375 0.227,-0.075 0.023,0 0.375,-0.175 0.699,-0.528 0.176,-0.648 -0.176,-1.024 -0.023,-0.05 0,-0.028 -0.023,0 0,-0.023 -0.176,-0.324 -0.278,-0.278 -0.222,-0.097 -0.028,-0.028 -0.023,0 -0.148,-0.074 -0.028,-0.023 -0.023,0 -0.051,-0.028 -0.477,0.051 -0.023,0 -0.102,0.027 -0.023,0.024 -0.699,0.324 -0.102,0.102 -0.023,0.074 -0.051,0.051 0,0.023 -0.227,0.727 0,0.597 0.176,0.625 0.625,0.551 0.625,0.227 z" /><path
       inkscape:connector-curvature="0"
       id="path54"
       style="fill:#000000;fill-opacity:1;fill-rule:nonzero;stroke:none"
       d="m 311.352,430.038 -0.454,-0.672 -0.75,-1.203 0,-0.023 -0.171,-0.25 -0.028,-0.051 -0.023,-0.051 -1.528,-3.398 -0.023,-0.051 0,-0.074 -0.773,-3.426 0,-0.051 -0.079,-0.472 -0.023,-0.028 -0.074,-0.148 0,-2.977 0.023,-0.097 0.176,-0.477 0.398,-1.223 0.028,-0.05 0.023,-0.051 0.227,-0.477 0.023,-0.023 0,-0.024 0.528,-0.851 0.046,-0.102 0.079,-0.047 1,-0.828 0.074,-0.074 0.074,-0.023 1.199,-0.528 0.125,-0.047 0.176,0 0.977,0.075 0.074,0 0.949,0.175 0.227,0.047 0.148,0.176 0.625,0.699 0.074,0.102 0.028,0.074 0.523,1.25 0.051,0.102 0,0.097 0.176,2.453 -0.625,0.047 0.625,0.125 -0.301,1.328 0,0.075 -0.028,0.05 -0.949,2.297 0,0.051 -0.222,0.449 -0.028,0.051 -0.847,2.074 -0.028,0.102 -0.074,0.25 0.023,0 -0.398,1.676 0,0.05 -0.125,0.672 -0.273,2.176 -0.028,0.227 -0.176,0.148 -0.097,0.125 -0.574,0.574 z m -0.227,-2.75 0.102,-0.672 0,-0.027 0.125,-0.723 0,-0.05 0.398,-1.727 0.074,-0.348 0.028,-0.05 0,-0.051 0.898,-2.227 0.023,-0.023 0.227,-0.449 0.023,-0.051 0.903,-2.176 0.023,-0.098 0.25,-1.175 0,-0.051 -0.176,-2.149 -0.421,-1 -0.454,-0.527 -0.648,-0.098 -0.824,-0.078 -0.949,0.453 -0.852,0.723 -0.398,0.652 -0.028,0.047 -0.176,0.352 -0.421,1.25 -0.125,0.351 0,2.45 0.046,0.074 0,0.101 0.102,0.575 0,0.023 0.727,3.277 1.449,3.297 0.023,0.028 0.051,0.097 z" /><path
       inkscape:connector-curvature="0"
       id="path56"
       style="fill:#000000;fill-opacity:1;fill-rule:nonzero;stroke:none"
       d="m 311.824,462.64 -0.097,-0.051 -1.704,-0.598 -0.148,-0.05 -0.102,-0.125 -0.949,-0.977 -0.074,-0.051 -0.051,-0.097 -0.824,-1.602 -0.023,-0.051 -0.028,-0.074 -0.273,-0.973 0,-3.601 0.301,-1.449 0,-0.028 0.472,-1.824 0,-0.051 0.551,-1.597 0,-0.075 1.051,-2.402 0,-0.051 0.023,-0.023 0.824,-1.375 0.426,-0.699 0.602,0.574 0.222,0.25 0.176,0.176 0.028,0.222 0.074,0.602 -0.028,0 0.602,3.699 0,0.051 1.352,3.351 0.074,0.149 0.023,0 1.028,2.176 0.046,0.125 0,0.125 0.102,2.472 -0.648,0 0.625,0.153 -0.176,0.722 0,0.051 -0.449,1.477 -0.051,0.148 -0.102,0.125 -0.722,0.727 -0.153,0.148 -0.222,0.027 -0.125,0.024 -0.102,0.023 -0.5,0.176 -0.102,0.051 -0.949,0 z m 0.25,-1.301 0.449,0 0.551,-0.176 0.051,-0.023 0.051,0 0.472,-0.477 0.375,-1.273 0.028,-0.051 0.125,-0.523 0,-0.051 -0.074,-2.301 -0.977,-2 0.023,0 -0.074,-0.148 -0.023,-0.028 0,-0.023 -1.426,-3.524 -0.023,-0.078 -0.028,-0.074 -0.472,-3.074 -0.028,0.051 -0.972,2.273 -0.028,0.051 -0.5,1.523 0,0.028 -0.449,1.75 -0.023,0.05 -0.25,1.297 0,3.278 0.199,0.75 0.023,0.05 0.727,1.375 0.801,0.825 1.472,0.523 z" /><path
       inkscape:connector-curvature="0"
       id="path58"
       style="fill:#000000;fill-opacity:1;fill-rule:nonzero;stroke:none"
       d="m 300.852,493.39 -0.102,-0.024 -0.949,-0.277 -0.051,-0.023 -0.023,0 -1.079,-0.477 -0.046,-0.023 -0.051,-0.028 -0.875,-0.547 -0.051,-0.05 -0.852,-0.7 -0.222,0.2 -0.051,0.023 -0.051,0.051 -1.347,0.773 -0.028,0.028 -0.023,0 -0.727,0.375 -0.023,0.023 -0.051,0 -0.949,0.352 -0.074,0.023 -0.051,0 -0.602,0.074 -0.023,0.028 -0.153,0.097 -2.074,0 -0.097,-0.047 -1.926,-0.625 -0.051,-0.027 -0.051,-0.023 -0.375,-0.176 0,-0.024 -0.824,-0.402 -0.051,-0.051 -0.074,-0.047 -0.648,-0.55 -0.028,-0.028 -1.051,-1 -0.074,-0.047 -0.023,-0.078 -0.727,-1.097 0,-0.028 -0.023,-0.047 -0.125,-0.226 -0.024,-0.051 0,-0.051 -0.703,-2.324 -0.023,-0.051 0,-0.047 -0.074,-0.601 -0.028,-0.024 -0.074,-0.152 0,-2.848 0.301,-1.578 0,-0.047 0.148,-0.625 0.028,-0.027 1.023,-3.273 0.027,-0.075 0.024,-0.05 0.801,-1.477 0,-0.023 0.597,-1.051 -0.148,-0.125 -0.024,0 -1.05,-0.774 -0.051,-0.027 -0.051,-0.051 -1.074,-1.097 -0.102,-0.075 -0.047,-0.152 -0.05,-0.148 -0.051,-0.075 0,-0.027 -0.524,-0.875 -0.05,-0.074 -0.028,-0.098 -0.472,-1.726 -1.102,0.699 -0.023,0 -2.325,1.527 -0.027,0.024 -1.773,1.023 -0.028,0 -0.023,0.027 -4.824,2.325 -0.051,0.023 -0.028,0 -4.847,1.625 -0.051,0.027 -0.051,0 -0.597,0.098 -0.028,0 -4,0.574 -4.051,0 -4.222,-0.648 -0.028,0 -0.023,-0.024 -2.301,-0.625 -0.051,0 -0.023,-0.027 -2.898,-1.199 -0.051,0 -0.051,-0.024 -0.824,-0.5 -0.028,0 -2.824,-1.777 -0.023,-0.023 -0.051,-0.028 -2.375,-2 -0.051,-0.023 -0.023,-0.024 -1.977,-2.175 0,-0.028 -0.023,-0.023 -1.028,-1.399 -0.046,-0.027 0,-0.051 -1.403,-2.648 -0.023,-0.051 -0.028,-0.023 -0.347,-0.977 0,-0.023 -1.125,-3.2 -0.028,-0.05 0,-0.051 -0.097,-0.574 0,-0.028 -0.426,-2.047 -0.023,-0.078 0,-6.972 0.023,-0.102 0.875,-3.148 0,-0.028 0.5,-1.699 0,-0.051 0.023,-0.047 1.079,-2.328 0.671,-1.375 0.028,-0.047 0.051,-0.05 2.375,-3.301 -0.352,-0.551 -0.051,-0.051 -0.801,-0.922 -0.023,0 -0.023,-0.027 -0.602,-0.848 -0.023,-0.027 -0.028,-0.051 -0.148,-0.297 -0.028,-0.027 -0.875,-1.473 -0.046,-0.101 -0.801,-2.051 -0.028,-0.023 0,-0.051 -0.648,-2.324 0,-0.024 -0.199,-0.828 -0.024,-0.047 0,-0.027 -0.375,-2.574 0,-0.051 -0.125,-1.574 0,-0.051 -0.078,-5.5 0,-0.051 0.028,-0.023 0.273,-2.2 0,-0.027 0.023,0 0.352,-2.074 0,-0.051 0.023,-0.047 1.176,-3.426 0.028,0 0,-0.027 0.324,-0.75 0,-0.047 0.023,-0.051 1.625,-2.777 0.028,-0.023 0.023,-0.024 0.773,-1.027 0.028,-0.024 0.051,-0.05 2.648,-2.676 0.051,-0.051 1.148,-0.922 0.051,-0.051 2.176,-1.351 0.023,0 1.176,-0.676 0.051,-0.023 0.051,0 1.699,-0.676 0.051,0 0.023,-0.024 1.676,-0.449 0.023,0 0.051,-0.027 4.477,-0.625 0.046,0 1.579,-0.125 0.023,0 3.148,-0.047 0.079,0 1.796,0.172 0.028,0 1.199,0.152 0.074,0 5.649,1.199 0.05,0 0.051,0.024 4.227,1.574 0.047,0 0.027,0.027 3.75,1.95 0.023,0 0,0.023 4.051,2.375 0.199,-0.5 0,-0.023 0.028,-0.024 0.097,-0.226 0.551,-1.301 0.024,-0.074 0.027,-0.051 0.199,-0.274 0.024,-0.05 0.027,-0.024 1,-1.074 0.051,-0.051 0.047,-0.051 0.976,-0.699 0.024,-0.027 0.05,-0.024 0.2,-0.101 -0.348,-0.547 -0.027,-0.027 0,-0.024 -0.899,-1.625 -0.023,-0.027 -0.028,-0.047 -0.8,-1.926 -0.024,-0.051 0,-0.05 -0.5,-2.325 -0.199,-0.851 0,-3.899 0.023,-0.074 0.375,-1.476 0.028,-0.024 0,-0.027 0.199,-0.524 0,-0.023 0.023,-0.027 0.852,-1.801 0.051,-0.125 0.097,-0.074 0.45,-0.426 0.152,-0.274 0.074,-0.125 0.102,-0.074 1.449,-1.176 0.148,-0.101 1.551,-0.723 0.051,0 0.023,-0.027 0.227,-0.074 0.074,0 1.199,-0.274 0.102,0 1.574,-0.074 0.102,0 0.097,0.023 1.176,0.274 0.074,0 0.051,0.027 1.676,0.723 0.023,0 0.028,0.027 0.148,0.074 0.051,0.024 0.023,0.027 1.25,0.926 0.727,-0.703 0.051,-0.047 0.047,-0.027 1.55,-0.973 0.075,-0.051 0.078,-0.027 0.797,-0.25 0.05,-0.024 0.075,-0.023 0.027,-0.027 0.148,-0.098 2.801,0 0.098,0.023 0.953,0.301 0.047,0 0.152,0.051 0.024,0.023 0.027,0 1.172,0.551 0.051,0.024 0.05,0.05 0.375,0.274 0.051,0.027 0.199,0.074 0.125,0.051 0.075,0.074 1.199,1.227 0.051,0.047 0.05,0.078 0.45,0.75 0.027,0.023 0.023,0.024 0.274,0.578 0.027,0.023 0,0.051 0.426,1.125 0,0.051 0.023,0.047 0.102,0.453 -0.027,0 0.199,0.699 0.027,0.098 0,1.625 -0.027,0.078 -0.375,1.574 0.402,-0.051 0.024,-0.023 1.699,0 0.051,0.023 0.824,0.2 0.027,0 1.176,0.199 0.074,0.027 0.074,0.024 0.977,0.425 0.074,0.024 0.051,0.051 1.574,1.125 0.25,0.175 0,0.051 0.074,0 0.176,0.301 1.301,1.848 0.023,0.05 0.051,0.102 0.25,0.699 0.024,0.051 0,0.023 0.402,1.575 0,2.226 -0.176,0.973 -0.301,1.601 0,0.075 -0.023,0.05 -0.176,0.473 -0.027,0.027 -1.074,2.325 -0.024,0.05 -0.023,0.047 -1.074,1.528 0.625,0.3 0.046,0.047 0.051,0.028 0.824,0.648 0.051,0.027 0.028,0.024 1.324,1.351 0.074,0.047 0.051,0.102 0.324,0.601 0,0.024 0.051,0.074 0,0.027 0.023,0 0.653,1.375 0.023,0.047 0.023,0.051 0.329,1.074 0,0.078 0.324,1.848 0.023,0.051 0,2.176 -0.023,0.05 -0.278,1.825 -0.023,0.05 0,0.047 -0.477,1.477 -0.023,0.023 0,0.051 -0.477,0.949 0,0.028 -1.25,2.824 -0.5,1.875 -0.023,0.074 -0.523,3.602 -0.028,0.097 -0.023,0.102 -0.102,0.176 1.153,1.125 0.046,0.023 0.028,0.051 0.722,0.972 0.028,0.051 0.023,0.028 0.403,0.773 0.046,0.051 0.028,0.074 0.199,0.699 0.426,1.324 0.023,0.102 0,1.824 -0.176,0.977 0,0.023 -0.023,0.028 -0.449,1.574 -0.028,0.074 -0.046,0.074 -0.301,0.528 0,0.023 -0.028,0 -0.972,1.477 -0.051,0.046 -0.051,0.051 -1.023,0.926 0.074,0.227 0.074,0.222 0,0.051 0.028,0.051 0.722,4.472 0,0.051 2.375,5.199 0.028,0.079 0,0.074 0.25,1.222 0.199,0.977 0.023,0.074 0,2.426 -0.023,0.051 -0.278,1.949 -0.023,0.051 0,0.074 -0.477,1.324 0,0.051 -0.074,0.125 0,0.023 -0.023,0.028 -0.653,1.324 -0.023,0.023 -0.023,0.051 -0.25,0.352 0,0.023 -0.028,0.024 -0.699,0.875 -0.023,0.05 -0.051,0.051 -1,0.824 -0.074,0.051 -0.079,0.024 -1.074,0.476 0.051,0.074 1.301,1.977 0.222,0.375 0.051,0.051 0.028,0.074 0.722,1.949 0,0.024 0.176,0.578 0.023,0.047 0,0.027 0.352,1.723 0,1.925 -0.176,1.227 0,0.051 -0.023,0.125 -0.028,0.047 -0.023,0.05 -0.648,1.801 -0.028,0.074 -0.051,0.051 -0.472,0.727 0,0.023 -0.449,0.727 -0.204,0.297 -0.074,0 -0.176,0.175 -0.597,0.625 -0.074,0.075 -0.102,0.027 -1.352,0.699 0,0.024 -0.023,0 -0.699,0.3 -0.051,0.028 -0.074,0.023 -1.926,0.449 -0.074,0.028 -1.977,0 -0.047,-0.028 -0.203,-0.023 0.028,0.051 0,0.047 0.324,1.601 0.023,0.074 0,1.477 -0.023,0.074 -0.399,1.824 -0.027,0.102 -0.051,0.074 -0.824,1.449 -0.023,0.051 -0.028,0.024 -0.297,0.402 -0.027,0.023 -0.023,0.024 -1.102,1.203 -0.098,0.098 -0.101,0.05 -1.824,0.926 -0.028,0.024 -0.047,0.027 -0.527,0.148 -0.074,0.024 -0.426,0.203 -0.125,0.047 -2.523,0 0,0.004 z m 0.097,-1.301 2.199,0 0.329,-0.148 0.023,-0.028 0.023,0 0.579,-0.199 1.597,-0.801 1.028,-1.097 0.046,-0.051 0.227,-0.301 0.023,-0.051 0.75,-1.297 0.375,-1.726 0,-1.074 -0.324,-1.602 -0.347,-0.848 -0.176,-0.402 0.676,-0.676 0.347,0.078 1.199,0.223 1.704,0 1.671,-0.426 0.102,-0.023 0.551,-0.25 0.051,-0.024 1.25,-0.652 0.046,-0.023 0.25,-0.278 0,-0.148 0.204,-0.176 0.222,-0.25 0.199,-0.199 0.051,0 0.25,-0.426 0,-0.023 0.426,-0.602 0.023,-0.023 0.625,-1.676 0.028,-0.102 -0.028,0 0.176,-1.125 0,-1.722 -0.301,-1.528 -0.023,-0.074 -0.148,-0.473 0,-0.027 -0.028,0 -0.676,-1.875 -0.023,-0.051 -0.176,-0.222 -1.25,-1.903 -0.523,-0.422 -0.403,-0.328 0.25,-0.472 0.102,-0.227 0.148,-0.301 0.301,-0.047 1.602,-0.703 0.801,-0.672 0.671,-0.828 0.028,-0.047 0.176,-0.25 0.648,-1.25 0.023,-0.05 0.028,-0.075 0.023,-0.027 0.403,-1.199 0.023,-0.102 0.273,-1.847 0,-2.075 -0.199,-1 -0.222,-1.152 -0.028,-0.074 -2.347,-5.223 -0.051,-0.078 0,-0.098 -0.727,-4.402 -0.023,-0.098 -0.051,-0.125 -0.199,-0.625 -0.125,-0.402 0.301,-0.273 1.296,-1.2 0.028,-0.027 0.875,-1.324 0.023,-0.024 0.25,-0.402 0.426,-1.449 0.148,-0.848 0,-1.578 -0.398,-1.148 0,-0.024 -0.023,-0.027 -0.204,-0.699 -0.296,-0.551 -0.051,-0.074 -0.602,-0.825 -0.074,-0.074 -1.398,-1.375 -0.352,-0.328 0.199,-0.398 0.25,-0.524 0.528,-3.601 0,-0.024 0.023,-0.051 0.551,-2.05 0,-0.051 0.023,-0.051 1.278,-2.824 0,-0.024 0.421,-0.875 0.454,-1.375 0.023,-0.101 0.273,-1.723 0,-1.851 -0.296,-1.774 -0.028,-0.078 -0.301,-1 -0.597,-1.223 -0.028,-0.05 -0.023,-0.051 -0.023,-0.024 -0.278,-0.527 -1.199,-1.223 -0.074,-0.05 -0.75,-0.575 -0.477,-0.226 -0.051,-0.024 -0.671,-0.25 -0.778,-0.3 0.477,-0.7 1.5,-2.101 0.051,-0.098 1,-2.176 0.023,-0.05 0.125,-0.301 0.301,-1.598 0.148,-0.851 0,-1.899 -0.347,-1.426 -0.028,-0.05 -0.199,-0.625 -0.023,-0.024 -1.028,-1.453 -0.051,0 -0.625,-0.625 0,-0.047 -1.148,-0.851 -0.051,-0.024 -0.949,-0.402 -1.051,-0.176 -0.023,0 -0.699,-0.172 -1.579,0 0,-0.027 -1.148,0.125 -0.074,-0.723 -0.727,-0.226 0.199,-0.7 0,-0.05 0.375,-1.375 0,-1.399 -0.171,-0.652 0,-0.051 -0.079,-0.348 -0.023,-0.101 -0.375,-0.973 -0.023,-0.051 -0.227,-0.476 -0.023,-0.051 -0.352,-0.574 -1.125,-1.149 -0.227,-0.101 -0.046,-0.024 -0.079,-0.05 -0.273,-0.227 -0.125,-0.074 -1.023,-0.449 -0.028,-0.024 -0.074,-0.027 -0.023,0 -0.852,-0.25 -2.25,0 -0.023,0.027 -0.075,0.024 -0.875,0.3 -0.078,0.024 -1.297,0.824 -0.05,0.027 -0.051,0.051 -1.024,0.973 -0.402,0.402 -0.426,-0.328 -1.699,-1.25 -0.051,-0.023 -1.648,-0.7 -0.899,-0.226 -0.05,0 -1.528,0.074 -1.047,0.227 -0.078,0.023 -0.074,0.027 -0.051,0.024 -1.5,0.699 -1.25,1.027 -0.148,0.274 -0.051,0.074 -0.074,0.078 -0.449,0.422 -0.778,1.676 -0.023,0 -0.149,0.449 -0.351,1.301 0,3.601 0.176,0.723 0.5,2.328 0.722,1.75 0.028,0.074 0.847,1.5 0.028,0.051 0.597,0.899 0.125,0.175 0,0.825 -0.347,0.175 -0.7,0.399 -0.828,0.574 -0.922,1 -0.125,0.176 -0.027,0.074 -0.023,0.027 -0.5,1.2 0,0.023 -0.125,0.25 -0.426,1.176 -0.274,0.75 -0.675,-0.399 -4.7,-2.777 -0.027,-0.023 -3.648,-1.875 -4.125,-1.551 -0.102,-0.024 -5.574,-1.175 -1.149,-0.125 -1.726,-0.176 -0.074,0 -3.051,0.051 -0.024,0 -1.476,0.125 -0.051,0 -4.449,0.625 -1.524,0.398 0,0.027 -1.625,0.625 -1.175,0.625 -0.028,0.024 -2.074,1.277 -0.051,0.047 -1.023,0.828 -0.051,0.047 -2.551,2.602 -0.047,0.05 -0.703,0.899 -1.574,2.676 -0.023,0.05 -0.028,0.051 -0.25,0.625 -0.023,0.047 -1.149,3.277 0,0.051 -0.027,0.047 -0.324,1.953 0,0.024 -0.301,2.074 0.027,0 0.047,5.449 0,0.051 0.125,1.527 -0.023,0 0.375,2.473 0.023,0.074 0.203,0.75 -0.027,0 0.625,2.277 0.027,0.051 0.723,1.899 0.027,0.05 0.024,0.051 0.851,1.399 0.024,0.023 0.125,0.25 0.574,0.801 0.051,0.051 0.801,0.925 0.023,0.024 0.027,0.051 0.672,0.949 0.25,0.375 -0.273,0.375 -2.649,3.699 -0.625,1.25 0,0.027 -1.05,2.301 -0.477,1.598 0,0.027 -0.848,3.047 0,6.777 0.422,1.95 0,0.023 0.078,0.477 0.024,0.05 0,0.051 1.101,3.074 0,0.024 0.325,0.898 0.023,0.078 1.375,2.575 0.926,1.25 0.051,0.05 1.847,2.047 0.078,0.078 2.25,1.875 0.075,0.047 2.722,1.703 0.028,0.024 0.722,0.426 0.051,0.023 0.051,0.027 2.726,1.125 0.075,0.024 2.148,0.574 0.074,0.027 4.153,0.625 3.773,0 3.875,-0.55 0.023,0 0.477,-0.075 0.102,-0.027 4.671,-1.574 0.079,-0.024 4.722,-2.277 0.051,-0.023 1.699,-1 0.028,0 2.296,-1.528 0.028,0 1.773,-1.125 0.449,-0.273 0.375,0.351 0.25,0.25 0.028,0.172 0.625,2.328 0.5,0.825 0.051,0.097 0.046,0.102 0.051,0.125 0.903,0.926 1.074,0.75 0,0.023 0.625,0.449 0.449,0.352 -0.273,0.5 -0.875,1.551 0.023,0 -0.75,1.375 -0.023,0.074 -0.028,0.051 -0.972,3.125 0,0.023 -0.153,0.551 0,0.051 -0.273,1.425 0,2.375 0.051,0.098 0,0.125 0.074,0.625 0.023,0 0.699,2.301 0.051,0.101 0.028,0.047 0.671,1.028 0,0.023 0.926,0.875 0.028,0.027 0.5,0.422 0.023,0 0.773,0.426 0.028,0 0.273,0.152 0.102,0.047 1.75,0.578 1.5,0 0.097,-0.05 0.125,-0.028 0.579,-0.074 0.023,0 0.926,-0.348 0.625,-0.3 0,-0.028 1.25,-0.699 0.023,0 0.699,-0.648 0.454,-0.403 0.449,0.426 0.125,0.125 0.176,0.199 0,0.078 0.773,0.649 0.074,0.051 0.727,0.449 0.074,0.051 0.926,0.398 0.074,0.027 0.699,0.223 z" /><path
       inkscape:connector-curvature="0"
       id="path60"
       style="fill:#000000;fill-opacity:1;fill-rule:nonzero;stroke:none"
       d="m 256.727,414.839 -7.676,-2.949 0.074,-0.149 -0.074,-0.175 7.676,-2.977 0.148,0.352 -2.449,0.949 0,3.676 2.449,0.949 -0.148,0.324 z m -2.676,-1.398 0,-3.426 -4.426,1.726 4.426,1.7 z" /><path
       inkscape:connector-curvature="0"
       id="path62"
       style="fill:#000000;fill-opacity:1;fill-rule:nonzero;stroke:none"
       d="m 249.125,416.714 0,-0.375 7.676,0 0,0.375 -7.676,0 z" /><path
       inkscape:connector-curvature="0"
       id="path64"
       style="fill:#000000;fill-opacity:1;fill-rule:nonzero;stroke:none"
       d="m 249.125,419.663 0,-0.375 7.676,0 0,0.375 -7.676,0 z" /><path
       inkscape:connector-curvature="0"
       id="path66"
       style="fill:#000000;fill-opacity:1;fill-rule:nonzero;stroke:none"
       d="m 253.102,426.691 -0.028,-0.028 -0.75,-0.375 -0.023,-0.023 -0.028,0 -0.347,-0.375 -0.028,-0.024 -0.023,-0.027 -0.352,-0.75 -0.023,-0.023 0,-1.2 0.023,-0.027 0.352,-0.75 0.773,-0.773 0.028,-0.051 0.051,0 1.097,-0.375 0.852,0 1.097,0.375 0.028,0 0.023,0.051 0.75,0.722 0,0.028 0.028,0.023 0.375,0.75 0,1.25 -0.375,0.75 -0.028,0.027 0,0.024 -0.75,0.726 -0.25,-0.25 0.699,-0.703 0.028,-0.047 0.324,-0.675 0,-0.95 -0.324,-0.703 -0.028,-0.023 -0.625,-0.649 -0.046,-0.027 -1.051,-0.348 -0.5,0 0,4.45 -0.949,0 z m 0.046,-0.375 0.551,0 0,-4 -0.847,0.3 -0.625,0.649 -0.352,0.648 0,1.102 0.352,0.648 0.273,0.301 0.051,0.027 0.597,0.325 z" /><path
       inkscape:connector-curvature="0"
       id="path68"
       style="fill:#000000;fill-opacity:1;fill-rule:nonzero;stroke:none"
       d="m 255.301,432.964 -0.051,-0.023 -0.727,-0.375 -0.046,-0.028 -0.028,-0.047 -0.375,-0.75 0,-0.027 -0.023,-0.023 -0.352,-1.801 0,-0.024 -0.324,-0.652 -0.602,-0.301 -0.574,0.278 -0.324,1 0,1.097 0.324,1 0.676,0.328 -0.176,0.325 -0.722,-0.375 -0.079,-0.028 -0.023,-0.074 -0.375,-1.125 0,-1.199 0.375,-1.125 0.023,-0.074 0.079,-0.024 0.722,-0.375 0.074,-0.027 0.102,0.027 0.727,0.375 0.046,0.024 0.028,0.05 0.375,0.75 0,0.051 0.375,1.824 0.324,0.649 0.602,0.324 0.347,0 0.574,-0.297 0.352,-1.051 0,-1 -0.352,-1.05 -0.648,-0.325 0.148,-0.324 0.75,0.375 0.051,0.024 0.028,0.074 0.375,1.125 0,1.199 -0.375,1.125 -0.028,0.074 -0.051,0.028 -0.75,0.375 -0.023,0.023 -0.449,0 z" /><path
       inkscape:connector-curvature="0"
       id="path70"
       style="fill:#000000;fill-opacity:1;fill-rule:nonzero;stroke:none"
       d="m 253.875,446.616 0,-0.175 -0.176,0 0,-1.852 0.352,0 0,1.652 0.926,0 0.648,-0.351 0.648,-0.649 0.028,-0.05 0.324,-0.676 0,-1.324 -0.324,-0.7 -0.028,-0.05 -0.648,-0.653 -0.051,-0.023 -0.648,-0.324 -0.028,-0.028 -1.074,-0.347 -1.722,0 -1.079,0.347 -0.023,0.028 -0.648,0.324 -0.051,0.023 -0.653,0.653 -0.023,0.05 -0.324,0.7 0,1.324 0.324,0.676 0.023,0.05 0.653,0.649 0.722,0.375 -0.148,0.324 -0.727,-0.375 -0.023,0 -0.023,-0.023 -0.75,-0.727 0,-0.023 -0.028,-0.028 -0.375,-0.75 0,-1.648 0.375,-0.727 0.028,-0.023 0,-0.024 0.75,-0.726 0.023,-0.024 0.023,-0.027 0.727,-0.375 0.023,0 1.102,-0.375 1.926,0 1.097,0.375 0.028,0 0.722,0.375 0.051,0.027 0,0.024 0.75,0.726 0,0.024 0.028,0.023 0.375,0.727 0,1.648 -0.375,0.75 -0.028,0.028 0,0.023 -0.75,0.727 0,0.023 -0.051,0 -0.722,0.375 -0.028,0.027 -1.148,0 z" /><path
       inkscape:connector-curvature="0"
       id="path72"
       style="fill:#000000;fill-opacity:1;fill-rule:nonzero;stroke:none"
       d="m 251.676,453.265 0,-0.375 3.574,0 1.023,-1 0.028,-0.051 0.324,-0.699 0,-0.926 -0.324,-0.676 -1.028,-0.347 -3.597,0 0,-0.352 3.722,0 1.102,0.375 0.074,0.027 0.028,0.075 0.375,0.722 0,1.278 -0.375,0.722 -0.028,0.051 -0.773,0.801 1,0 0,0.375 -5.125,0 z" /><path
       inkscape:connector-curvature="0"
       id="path74"
       style="fill:#000000;fill-opacity:1;fill-rule:nonzero;stroke:none"
       d="m 256.625,458.241 0,-0.652 -0.324,-0.676 -0.949,-0.324 -3.477,0 0,1.301 -0.375,0 0,-1.301 -2.375,0 0,-0.375 2.375,0 0,-0.926 0.375,0 0,0.926 3.523,0 1.102,0.375 0.074,0.027 0.028,0.075 0.375,0.722 0,0.828 -0.352,0 z" /><path
       inkscape:connector-curvature="0"
       id="path76"
       style="fill:#000000;fill-opacity:1;fill-rule:nonzero;stroke:none"
       d="m 253.102,464.714 -0.028,-0.023 -0.75,-0.375 -0.023,0 -0.028,-0.028 -0.347,-0.375 -0.028,-0.023 -0.023,-0.024 -0.352,-0.726 -0.023,-0.051 0,-1.199 0.023,-0.024 0.352,-0.75 0.023,-0.027 0.028,-0.023 0.722,-0.727 0.028,-0.051 0.051,0 1.097,-0.375 0.852,0 1.097,0.375 0.028,0 0.023,0.051 0.75,0.727 0,0.023 0.028,0.027 0.375,0.75 0,1.274 -0.375,0.726 -0.028,0.024 0,0.023 -0.75,0.75 -0.25,-0.273 0.699,-0.676 0.028,-0.051 0.324,-0.699 0,-0.949 -0.324,-0.676 -0.028,-0.051 -0.671,-0.672 -1.051,-0.351 -0.5,0 0,4.449 -0.949,0 z m 0.046,-0.375 0.551,0 0,-4 -0.847,0.301 -0.625,0.648 -0.352,0.653 0,1.097 0.352,0.676 0.273,0.277 0.051,0.024 0.597,0.324 z" /><path
       inkscape:connector-curvature="0"
       id="path78"
       style="fill:#000000;fill-opacity:1;fill-rule:nonzero;stroke:none"
       d="m 262.148,429.964 -0.097,-0.148 -0.199,0 0,-4.051 0.375,0 0,3.676 4.824,-3.825 0.125,0.149 0.148,0 0,4.051 -0.347,0 0,-3.676 -4.829,3.824 z" /><path
       inkscape:connector-curvature="0"
       id="path80"
       style="fill:#000000;fill-opacity:1;fill-rule:nonzero;stroke:none"
       d="m 262.023,436.64 0,-0.352 3.579,0 1.023,-1.023 0.023,-0.051 0.329,-0.598 0,-1.101 -0.301,-0.602 -0.977,-0.324 -3.676,0 0,-0.375 3.704,0 0.023,0.027 1.102,0.348 0.074,0.027 0.023,0.075 0.375,0.75 0,1.25 -0.375,0.75 0,0.023 -0.023,0.027 -0.801,0.797 1.023,0 0,0.352 -5.125,0 z" /><path
       inkscape:connector-curvature="0"
       id="path82"
       style="fill:#000000;fill-opacity:1;fill-rule:nonzero;stroke:none"
       d="m 263.449,447.714 -1.097,-0.375 -0.079,-0.023 -0.046,-0.075 -0.352,-0.726 -0.023,-0.051 0,-1.176 0.023,-0.047 0.352,-0.726 0.023,-0.024 0.023,-0.027 0.903,-0.926 -0.824,-0.25 -0.079,-0.023 -0.046,-0.074 -0.352,-0.75 -0.023,-0.028 0,-1.199 0.023,-0.023 0.352,-0.75 0.023,-0.024 0.023,-0.027 0.801,-0.801 -1.051,0 0,-0.348 5.125,0 0,0.348 -3.574,0 -1,1.027 -0.347,0.649 0,1.101 0.324,0.598 0.949,0.328 3.648,0 0,0.375 -3.574,0 -1,1 -0.347,0.699 0,1.024 0.324,0.625 1,0.351 3.597,0 0,0.348 -3.699,0 z" /><path
       inkscape:connector-curvature="0"
       id="path84"
       style="fill:#000000;fill-opacity:1;fill-rule:nonzero;stroke:none"
       d="m 273.523,417.288 -0.574,-0.297 -0.023,0 -0.028,-0.027 -0.574,-0.598 -0.023,0 0,-0.027 -0.301,-0.598 -0.023,-0.027 0,-1.25 0.023,-0.023 0.301,-0.602 0,-0.023 0.023,-0.028 0.574,-0.574 0.028,-0.023 0.023,0 0.574,-0.301 0.028,0 0.875,-0.301 0.023,-0.023 1.5,0 0.028,0.023 0.875,0.301 0.023,0 0.574,0.301 0.028,0 0.625,0.625 0,0.023 0.296,0.602 0.028,0.023 0,1.25 -0.028,0.027 -0.296,0.598 0,0.027 -0.028,0 -0.574,0.598 -0.023,0.027 -0.028,0 -0.574,0.297 -0.949,0 0,-0.125 -0.153,0 0,-1.5 0.301,0 0,1.352 0.676,0 0.574,-0.301 0.528,-0.523 0.023,-0.028 0.25,-0.5 0,-1.172 -0.25,-0.476 -0.023,-0.051 -0.528,-0.523 -0.023,-0.028 -0.528,-0.25 -0.023,-0.023 -0.824,-0.274 -1.403,0 -0.875,0.297 0,-0.023 -0.523,0.273 -0.051,0.028 -0.523,0.523 -0.028,0.051 -0.25,0.551 0,1.05 0.25,0.547 0.551,0.551 0.574,0.301 -0.125,0.273 z" /><path
       inkscape:connector-curvature="0"
       id="path86"
       style="fill:#000000;fill-opacity:1;fill-rule:nonzero;stroke:none"
       d="m 275.324,422.616 -0.051,-0.027 -0.574,-0.273 -0.023,-0.028 -0.028,0 -0.273,-0.297 -0.023,-0.027 0,-0.023 -0.301,-0.575 -0.028,-0.05 0,-0.95 0.028,-0.027 0.301,-0.598 0,-0.027 0.023,0 0.574,-0.598 0.028,-0.027 0.023,0 0.875,-0.301 0.699,0 0.875,0.301 0.028,0 0.023,0.027 0.574,0.598 0.028,0 0,0.027 0.296,0.598 0.028,0.027 0,0.95 -0.028,0.05 -0.296,0.575 0,0.023 -0.602,0.602 -0.199,-0.2 0.551,-0.55 0.023,-0.051 0.25,-0.477 0,-0.898 -0.25,-0.477 -0.023,-0.047 -0.5,-0.5 -0.875,-0.3 -0.403,0 0,3.55 -0.75,0 z m 0.028,-0.3 0.421,0 0,-3.176 -0.671,0.226 -0.5,0.5 -0.028,0.047 -0.25,0.477 0,0.898 0.25,0.477 0.028,0.051 0.222,0.222 0.051,0.028 0.477,0.25 z" /><path
       inkscape:connector-curvature="0"
       id="path88"
       style="fill:#000000;fill-opacity:1;fill-rule:nonzero;stroke:none"
       d="m 275.898,428.241 -0.023,-0.027 -0.875,-0.301 -0.023,0 -0.028,-0.023 -0.574,-0.602 -0.023,0 0,-0.023 -0.301,-0.602 -0.028,-0.023 0,-0.949 0.028,-0.028 0.301,-0.597 0,-0.028 0.347,-0.347 -2.574,0 0,-0.301 6.148,0 0,0.301 -0.523,0 0.324,0.324 0.028,0.023 0,0.028 0.296,0.597 0.028,0.028 0,0.949 -0.028,0.023 -0.296,0.602 0,0.023 -0.028,0 -0.574,0.602 -0.023,0.023 -0.028,0 -0.875,0.301 -0.023,0.027 -0.653,0 z m 0.079,-0.3 0.5,0 0.875,-0.301 0.5,-0.5 0.023,-0.051 0.25,-0.473 0,-0.902 -0.25,-0.473 -0.023,-0.05 -0.5,-0.5 -2.25,0 -0.5,0.5 -0.028,0.05 -0.25,0.473 0,0.902 0.25,0.473 0.028,0.051 0.5,0.5 0.875,0.301 z" /><path
       inkscape:connector-curvature="0"
       id="path90"
       style="fill:#000000;fill-opacity:1;fill-rule:nonzero;stroke:none"
       d="m 274.176,433.538 0,-0.297 2.875,0 0.801,-0.8 0.023,-0.028 0.25,-0.5 0,-0.875 -0.25,-0.472 -0.824,-0.278 -2.875,0 0,-0.297 2.949,0 0.023,0.024 0.875,0.301 0.051,0 0.028,0.074 0.296,0.574 0.028,0.027 0,0.973 -0.028,0.027 -0.296,0.575 0,0.023 -0.653,0.652 0.824,0 0,0.297 -4.097,0 z" /><path
       inkscape:connector-curvature="0"
       id="path92"
       style="fill:#000000;fill-opacity:1;fill-rule:nonzero;stroke:none"
       d="m 274.023,438.116 0,-0.902 0.028,-0.051 0.301,-0.574 0,-0.023 0.023,-0.028 0.574,-0.574 0.028,-0.023 0.023,-0.028 -0.824,0 0,-0.297 4.097,0 0,0.297 -2.375,0 -0.75,0.25 -0.046,0.028 -0.5,0.523 -0.028,0.027 -0.25,0.5 0,0.875 -0.301,0 z" /><path
       inkscape:connector-curvature="0"
       id="path94"
       style="fill:#000000;fill-opacity:1;fill-rule:nonzero;stroke:none"
       d="m 278.125,441.366 0,-0.578 -0.25,-0.472 -0.824,-0.278 -2.727,0 0,1.051 -0.301,0 0,-1.051 -1.898,0 0,-0.297 1.898,0 0,-0.726 0.301,0 0,0.726 2.801,0 0.023,0.024 0.875,0.301 0.051,0 0.028,0.05 0.296,0.598 0.028,0.027 0,0.625 -0.301,0 z" /><path
       inkscape:connector-curvature="0"
       id="path96"
       style="fill:#000000;fill-opacity:1;fill-rule:nonzero;stroke:none"
       d="m 275,446.241 -0.602,-0.3 -0.046,-0.028 -0.028,-0.074 -0.273,-0.875 -0.028,-0.023 0,-0.926 0.028,-0.024 0.273,-0.902 0.028,-0.051 0.648,-0.324 0.051,-0.023 0.074,0.023 0.574,0.301 0.051,0.023 0.023,0.051 0.301,0.574 0,0.051 0.278,1.426 0.023,0.051 0.25,0.5 0.551,0.273 0.148,0 0.551,-0.273 0.25,-0.778 0,-0.875 -0.25,-0.797 -0.551,-0.25 0.125,-0.277 0.602,0.301 0.051,0.023 0.023,0.051 0.273,0.902 0.028,0.024 0,0.926 -0.028,0.023 -0.273,0.875 -0.023,0.074 -0.051,0.028 -0.602,0.3 -0.426,0 -0.574,-0.3 -0.051,-0.028 -0.023,-0.047 -0.273,-0.578 -0.028,-0.023 0,-0.024 -0.273,-1.453 0,-0.023 -0.301,-0.524 0,-0.027 -0.449,-0.199 -0.477,0.226 -0.25,0.797 0,0.875 0.25,0.75 0.551,0.301 -0.125,0.277 z" /><path
       inkscape:connector-curvature="0"
       id="path98"
       style="fill:#000000;fill-opacity:1;fill-rule:nonzero;stroke:none"
       d="m 278.125,449.941 0,-0.602 -0.25,-0.473 -0.773,-0.25 -2.778,0 0,1.024 -0.301,0 0,-1.024 -1.898,0 0,-0.3 1.898,0 0,-0.75 0.301,0 0,0.75 2.824,0 0.875,0.3 0.051,0.024 0.028,0.051 0.296,0.597 0.028,0.028 0,0.625 -0.301,0 z" /><path
       inkscape:connector-curvature="0"
       id="path100"
       style="fill:#000000;fill-opacity:1;fill-rule:nonzero;stroke:none"
       d="m 274.176,455.116 0,-0.3 0.523,0 -0.324,-0.352 -0.023,0 0,-0.023 -0.301,-0.602 -0.028,-0.023 0,-0.95 0.028,-0.027 0.301,-0.598 0,-0.027 0.648,-0.648 0.875,-0.301 0.699,0 0.875,0.301 0.028,0.023 0.023,0.027 0.574,0.575 0.028,0.023 0,0.027 0.296,0.598 0.028,0.027 0,0.95 -0.028,0.023 -0.296,0.602 0,0.023 -0.028,0 -0.324,0.352 0.523,0 0,0.3 -4.097,0 z m 0.926,-0.3 2.25,0 0.5,-0.5 0.023,-0.051 0.25,-0.477 0,-0.898 -0.25,-0.477 -0.023,-0.047 -0.551,-0.55 -0.778,-0.25 -0.597,0 -0.778,0.25 -0.023,0.023 -0.523,0.527 -0.028,0.047 -0.25,0.477 0,0.898 0.25,0.477 0.028,0.051 0.5,0.5 z" /><path
       inkscape:connector-curvature="0"
       id="path102"
       style="fill:#000000;fill-opacity:1;fill-rule:nonzero;stroke:none"
       d="m 274.176,460.714 0,-0.301 0.523,0 -0.347,-0.347 0,-0.028 -0.301,-0.574 -0.028,-0.051 0,-0.949 0.028,-0.023 0.301,-0.602 0.023,-0.023 0.574,-0.602 0.028,-0.023 0.023,0 0.875,-0.301 0.699,0 0.875,0.301 0.028,0 0.023,0.023 0.574,0.602 0.028,0.023 0.296,0.602 0.028,0.023 0,0.949 -0.028,0.051 -0.296,0.574 0,0.028 -0.028,0.023 -0.324,0.324 1.102,0 0.773,-0.25 0.273,-0.25 0.028,-0.023 0.25,-0.5 0,-0.875 -0.278,-0.524 0.25,-0.152 0.301,0.602 0.024,0.023 0,0.949 -0.024,0.051 -0.301,0.574 0,0.028 -0.023,0.023 -0.273,0.301 -0.028,0.023 -0.051,0 -0.875,0.301 -4.722,0 z m 0.926,-0.301 2.25,0 0.523,-0.523 0.25,-0.5 0,-0.875 -0.25,-0.5 -0.023,-0.024 -0.5,-0.527 -0.875,-0.301 -0.5,0 -0.875,0.301 -0.5,0.527 -0.028,0.024 -0.25,0.5 0,0.875 0.25,0.5 0.028,0.023 0.5,0.5 z" /></g></svg>