<?xml version="1.0" encoding="UTF-8" standalone="no"?>
<!-- Created with Inkscape (http://www.inkscape.org/) -->

<svg
   xmlns:dc="http://purl.org/dc/elements/1.1/"
   xmlns:cc="http://creativecommons.org/ns#"
   xmlns:rdf="http://www.w3.org/1999/02/22-rdf-syntax-ns#"
   xmlns:svg="http://www.w3.org/2000/svg"
   xmlns="http://www.w3.org/2000/svg"
   xmlns:sodipodi="http://sodipodi.sourceforge.net/DTD/sodipodi-0.dtd"
   xmlns:inkscape="http://www.inkscape.org/namespaces/inkscape"
   width="159.44882"
   height="496.06299"
   id="svg2"
   version="1.1"
   inkscape:version="0.48.1 r9760"
   sodipodi:docname="KirchePyramoos.svg">
  <sodipodi:namedview
     id="base"
     pagecolor="#ffffff"
     bordercolor="#666666"
     borderopacity="1.0"
     inkscape:pageopacity="0.0"
     inkscape:pageshadow="2"
     inkscape:zoom="1.0180159"
     inkscape:cx="-43.554609"
     inkscape:cy="248.03149"
     inkscape:document-units="mm"
     inkscape:current-layer="layer1"
     showgrid="false"
     units="mm"
     inkscape:window-width="1270"
     inkscape:window-height="723"
     inkscape:window-x="0"
     inkscape:window-y="0"
     inkscape:window-maximized="0" />
  <defs
     id="defs4">
    <clipPath
       id="clipPath3022">
      <rect
         width="357.65601"
         height="196.424"
         x="0"
         y="0"
         id="rect3024"
         style="opacity:0.3;color:#000000;fill:#000000;fill-opacity:1;fill-rule:nonzero;stroke:none;stroke-width:1;marker:none;visibility:visible;display:inline;overflow:visible;enable-background:accumulate" />
    </clipPath>
  </defs>
  <metadata
     id="metadata7">
    <rdf:RDF>
      <cc:Work
         rdf:about="">
        <dc:format>image/svg+xml</dc:format>
        <dc:type
           rdf:resource="http://purl.org/dc/dcmitype/StillImage" />
        <dc:title />
      </cc:Work>
    </rdf:RDF>
  </metadata>
  <g
     style="opacity:0.47286826;display:inline"
     inkscape:label="Raster"
     id="layer2"
     inkscape:groupmode="layer" />
  <g
     transform="translate(0,-3713.3858)"
     id="layer1"
     inkscape:groupmode="layer"
     inkscape:label="Ebene 1"
     style="display:inline">
    <g
       id="g5601">
      <path
         style="fill:none;stroke:#000000;stroke-width:1px;stroke-linecap:butt;stroke-linejoin:miter;stroke-opacity:1"
         d="m 52.65084,4142.5953 0.403573,-79.1002 8.475025,-1.4125 2.623222,80.311"
         id="path3829"
         inkscape:connector-curvature="0" />
      <path
         style="fill:none;stroke:#000000;stroke-width:1px;stroke-linecap:butt;stroke-linejoin:miter;stroke-opacity:1"
         d="m 52.852627,4093.1577 9.685743,-0.8071 9.28217,0.4035"
         id="path3831"
         inkscape:connector-curvature="0" />
      <path
         style="fill:none;stroke:#000000;stroke-width:1px;stroke-linecap:butt;stroke-linejoin:miter;stroke-opacity:1"
         d="m 52.852627,4115.7578 10.492888,-1.2107 8.273239,0"
         id="path3833"
         inkscape:connector-curvature="0" />
      <path
         style="fill:none;stroke:#000000;stroke-width:1px;stroke-linecap:butt;stroke-linejoin:miter;stroke-opacity:1"
         d="m 70.609822,4063.0916 2.017863,36.9268 -1.61429,0 2.219649,42.1734"
         id="path3835"
         inkscape:connector-curvature="0" />
      <path
         style="fill:none;stroke:#000000;stroke-width:1px;stroke-linecap:butt;stroke-linejoin:miter;stroke-opacity:1"
         d="m 61.731224,4062.4862 8.878598,0.4036"
         id="path3858"
         inkscape:connector-curvature="0" />
      <path
         style="fill:none;stroke:#000000;stroke-width:1px;stroke-linecap:butt;stroke-linejoin:miter;stroke-opacity:1"
         d="m 61.731224,4062.0826 0.201787,-6.0536 3.430367,6.0536 -12.712538,1.4125 -1.210717,-0.4036 4.035726,-5.65"
         id="path3860"
         inkscape:connector-curvature="0" />
      <path
         style="fill:none;stroke:#000000;stroke-width:1px;stroke-linecap:butt;stroke-linejoin:miter;stroke-opacity:1"
         d="m 70.609822,4062.4862 1.210718,-0.2018 -3.632154,-4.8429"
         id="path3862"
         inkscape:connector-curvature="0" />
      <path
         style="fill:none;stroke:#000000;stroke-width:1px;stroke-linecap:butt;stroke-linejoin:miter;stroke-opacity:1"
         d="m 58.906216,4062.2844 3.026795,-6.6589"
         id="path3864"
         inkscape:connector-curvature="0" />
      <path
         style="fill:none;stroke:#000000;stroke-width:1px;stroke-linecap:butt;stroke-linejoin:miter;stroke-opacity:1"
         d="m 55.274063,4057.2397 5.044657,-37.734 7.66788,38.1376"
         id="path3866"
         inkscape:connector-curvature="0" />
      <path
         style="fill:none;stroke:#000000;stroke-width:1px;stroke-linecap:butt;stroke-linejoin:miter;stroke-opacity:1"
         d="m 65.363378,4061.8808 -5.044658,-39.9537 -2.219649,40.1555"
         id="path3868"
         inkscape:connector-curvature="0" />
      <path
         style="fill:none;stroke:#000000;stroke-width:1px;stroke-linecap:butt;stroke-linejoin:miter;stroke-opacity:1"
         d="m 65.565164,4077.822 -0.403572,-8.9795 0.100893,-1.009 0.403573,-0.908 0.605358,-0.6054 0.706253,1.1098 0.504465,1.4126 0.403573,9.5848 z"
         id="path3870"
         inkscape:connector-curvature="0" />
      <path
         style="fill:none;stroke:#000000;stroke-width:1px;stroke-linecap:butt;stroke-linejoin:miter;stroke-opacity:1"
         d="m 65.363378,4078.5282 2.724115,0.7063"
         id="path3872"
         inkscape:connector-curvature="0" />
      <path
         style="fill:none;stroke:#000000;stroke-width:1px;stroke-linecap:butt;stroke-linejoin:miter;stroke-opacity:1"
         d="m 56.48478,4077.3175 -0.100893,-8.7777 0.30268,-1.1099 0.504465,-0.8071 1.008932,0.8071 0.30268,1.1099 0.302679,8.475 z"
         id="path3874"
         inkscape:connector-curvature="0" />
      <path
         style="fill:none;stroke:#000000;stroke-width:1px;stroke-linecap:butt;stroke-linejoin:miter;stroke-opacity:1"
         d="m 56.081208,4078.0237 3.127688,-0.4035"
         id="path3876"
         inkscape:connector-curvature="0" />
      <path
         style="fill:none;stroke:#000000;stroke-width:1px;stroke-linecap:butt;stroke-linejoin:miter;stroke-opacity:1"
         d="m 60.419613,4019.203 -0.504465,-12.0063"
         id="path3878"
         inkscape:connector-curvature="0" />
      <path
         style="fill:none;stroke:#000000;stroke-width:1px;stroke-linecap:butt;stroke-linejoin:miter;stroke-opacity:1"
         d="m 59.208896,4017.2861 0.100893,-0.7063 0.605359,-0.4036 1.210718,0 0.403572,1.3116 -0.807145,0.7063 -1.008932,-0.1009 z"
         id="path3880"
         inkscape:connector-curvature="0" />
      <path
         style="fill:none;stroke:#000000;stroke-width:1px;stroke-linecap:butt;stroke-linejoin:miter;stroke-opacity:1"
         d="m 58.300857,4010.8289 3.632154,-1.0089"
         id="path3882"
         inkscape:connector-curvature="0" />
      <path
         style="fill:none;stroke:#000000;stroke-width:1px;stroke-linecap:butt;stroke-linejoin:miter;stroke-opacity:1"
         d="m 66.977669,4088.4157 0,1.7152"
         id="path3884"
         inkscape:connector-curvature="0" />
      <path
         style="fill:none;stroke:#000000;stroke-width:1px;stroke-linecap:butt;stroke-linejoin:miter;stroke-opacity:1"
         d="m 67.381241,4105.4667 0,1.2107"
         id="path3886"
         inkscape:connector-curvature="0" />
      <path
         style="fill:none;stroke:#000000;stroke-width:1px;stroke-linecap:butt;stroke-linejoin:miter;stroke-opacity:1"
         d="m 57.998178,4119.4908 -0.100893,2.3206"
         id="path3888"
         inkscape:connector-curvature="0" />
      <path
         style="fill:none;stroke:#000000;stroke-width:1px;stroke-linecap:butt;stroke-linejoin:miter;stroke-opacity:1"
         d="m 68.188386,4133.2123 0.100894,2.3205"
         id="path3890"
         inkscape:connector-curvature="0" />
      <path
         style="fill:none;stroke:#000000;stroke-width:1px;stroke-linecap:butt;stroke-linejoin:miter;stroke-opacity:1"
         d="m 58.603537,4132.0016 0.100893,3.6321"
         id="path3892"
         inkscape:connector-curvature="0" />
      <path
         style="fill:none;stroke:#000000;stroke-width:1px;stroke-linecap:butt;stroke-linejoin:miter;stroke-opacity:1"
         d="m 71.517861,4102.4399 8.676811,11.9054 26.837578,-0.4036 -6.86073,9.4839"
         id="path3894"
         inkscape:connector-curvature="0" />
      <path
         style="fill:none;stroke:#000000;stroke-width:1px;stroke-linecap:butt;stroke-linejoin:miter;stroke-opacity:1"
         d="m 79.690206,4114.6479 0.807145,26.8376"
         id="path3896"
         inkscape:connector-curvature="0" />
      <path
         style="fill:none;stroke:#000000;stroke-width:1px;stroke-linecap:butt;stroke-linejoin:miter;stroke-opacity:1"
         d="m 104.30814,4142.7971 -1.00893,-13.7214 0.80714,-0.7063 -6.961631,-6.558 -5.952693,7.9705 -9.080384,-0.2018 0.504466,12.0063"
         id="path3898"
         inkscape:connector-curvature="0" />
      <path
         style="fill:none;stroke:#000000;stroke-width:1px;stroke-linecap:butt;stroke-linejoin:miter;stroke-opacity:1"
         d="m 80.497351,4140.9811 0,1.1098"
         id="path3900"
         inkscape:connector-curvature="0" />
      <path
         style="fill:none;stroke:#000000;stroke-width:1px;stroke-linecap:butt;stroke-linejoin:miter;stroke-opacity:1"
         d="m 91.091133,4130.2864 0.302679,12.3089"
         id="path3902"
         inkscape:connector-curvature="0" />
      <path
         style="fill:none;stroke:#000000;stroke-width:1px;stroke-linecap:butt;stroke-linejoin:miter;stroke-opacity:1"
         d="m 82.111642,4129.2775 6.154482,-8.3742 8.676815,0"
         id="path3904"
         inkscape:connector-curvature="0" />
      <path
         style="fill:none;stroke:#000000;stroke-width:1px;stroke-linecap:butt;stroke-linejoin:miter;stroke-opacity:1"
         d="m 95.227749,4142.2927 -0.70625,-10.0893 0.70625,-1.1099 1.21072,-0.4035 0.80715,-0.1009 1.21071,0.908 0.40358,1.3116 0.60536,9.7866"
         id="path3906"
         inkscape:connector-curvature="0" />
      <path
         style="fill:none;stroke:#000000;stroke-width:1px;stroke-linecap:butt;stroke-linejoin:miter;stroke-opacity:1"
         d="m 101.48313,4125.0399 19.47238,-0.4035 7.86966,-13.0152 8.27324,13.1161 -0.30268,0.5044 0.90804,16.6474"
         id="path3908"
         inkscape:connector-curvature="0" />
      <path
         style="fill:none;stroke:#000000;stroke-width:1px;stroke-linecap:butt;stroke-linejoin:miter;stroke-opacity:1"
         d="m 126.50463,4123.8292 -0.30268,-5.5491 2.11876,0.1009 0.20178,5.1455 z"
         id="path3910"
         inkscape:connector-curvature="0" />
      <path
         style="fill:none;stroke:#000000;stroke-width:1px;stroke-linecap:butt;stroke-linejoin:miter;stroke-opacity:1"
         d="m 121.56087,4125.0399 0.60536,17.5554"
         id="path3912"
         inkscape:connector-curvature="0" />
      <path
         style="fill:none;stroke:#000000;stroke-width:1px;stroke-linecap:butt;stroke-linejoin:miter;stroke-opacity:1"
         d="m 128.32071,4142.4945 -0.50447,-14.1251 0.70625,-1.0089 1.10983,-0.2018 1.00893,0.3027 0.70625,1.3116 0.40358,2.2196 0.20178,11.1992"
         id="path3914"
         inkscape:connector-curvature="0" />
      <path
         style="fill:none;stroke:#000000;stroke-width:1px;stroke-linecap:butt;stroke-linejoin:miter;stroke-opacity:1"
         d="m 97.750079,4141.5864 -0.50446,-9.4839 -0.60536,-0.6054 -1.21072,-0.3027"
         id="path3916"
         inkscape:connector-curvature="0" />
      <path
         style="fill:none;stroke:#000000;stroke-width:1px;stroke-linecap:butt;stroke-linejoin:miter;stroke-opacity:1"
         d="m 130.33857,4141.6873 -0.50446,-12.7125 -0.50447,-1.009 -0.90804,-0.2017"
         id="path3918"
         inkscape:connector-curvature="0" />
      <path
         style="fill:none;stroke:#000000;stroke-width:1px;stroke-linecap:butt;stroke-linejoin:miter;stroke-opacity:1"
         d="m 107.63761,4113.7399 21.49024,-2.1187"
         id="path3920"
         inkscape:connector-curvature="0" />
      <path
         style="fill:none;stroke:#000000;stroke-width:1px;stroke-linecap:butt;stroke-linejoin:miter;stroke-opacity:1"
         d="m 127.61446,4111.4194 -12.91433,-16.4456 -41.971552,-2.1188"
         id="path3922"
         inkscape:connector-curvature="0" />
      <path
         style="fill:none;stroke:#000000;stroke-width:1px;stroke-linecap:butt;stroke-linejoin:miter;stroke-opacity:1"
         d="m 48.485453,4143.6135 c 0.469947,-1.0966 0.266064,-0.6749 0.570738,-1.2842 0.04756,-0.095 0.05419,-0.2264 0.142684,-0.2854 0.07915,-0.053 0.195127,0.03 0.285369,0 0.06381,-0.021 0.09512,-0.095 0.142684,-0.1427 0.04756,-0.048 0.121415,-0.079 0.142685,-0.1426 0.03008,-0.09 -0.03008,-0.1952 0,-0.2854 -0.05333,-0.3109 0.237807,-0.048 0.285369,-0.1427 0.04254,-0.085 -0.04254,-0.2003 0,-0.2854 0.02127,-0.043 0.109053,0.034 0.142684,0 0.03363,-0.034 -0.03363,-0.109 0,-0.1427 0.03363,-0.034 0.121415,0.043 0.142685,0 0.04254,-0.085 -0.04254,-0.2002 0,-0.2853 0.142012,-0.284 0.179217,0.2853 0.142684,0.2853 -0.04756,0 0,-0.095 0,-0.1426 0,-0.048 0,-0.095 0,-0.1427 0,-0.048 -0.03363,-0.1091 0,-0.1427 0.03363,-0.034 0.109054,0.034 0.142685,0 0.07012,-0.07 -0.136587,-0.425 0.142684,-0.2854 0.315483,0.1578 0.04428,0.089 0.142685,0.2854 0.0702,0.1404 0.500535,0.4303 0.570738,0.5707 0.06381,0.1277 0,0.2854 0,0.4281 0,0.2854 0,0.5707 0,0.8561 0,0.1902 0,0.3805 0,0.5707 0,0.048 -0.04254,0.1214 0,0.1427 0.08508,0.043 0.200288,-0.042 0.285368,0 0.04254,0.021 -0.02127,0.1002 0,0.1427 0.473225,0.4732 -0.06726,-0.1345 0.142685,0.2854 0.296909,0.5938 -0.0099,-0.1526 0.285369,0.1427 0.03363,0.034 -0.03363,0.109 0,0.1426 0.03363,0.034 0.09512,0 0.142684,0 0,0.095 -0.04254,0.2003 0,0.2854 0.02127,0.042 0.109054,-0.034 0.142685,0 0.06726,0.067 -0.06726,0.2181 0,0.2854 0.03363,0.034 0.142684,0.048 0.142684,0 0,-0.067 -0.142684,-0.21 -0.142684,-0.1427 0,0.1063 0.09512,0.1902 0.142684,0.2854 0.04756,-0.2378 0.09512,-0.4757 0.142685,-0.7135 0.04756,-0.048 0.112604,-0.082 0.142684,-0.1426 0.02127,-0.043 0,-0.095 0,-0.1427 0,-0.095 -0.03008,-0.1952 0,-0.2854 0.04254,-0.1276 0.225208,-0.165 0.285369,-0.2854 0.02127,-0.042 -0.03363,-0.109 0,-0.1427 0.03363,-0.034 0.121414,0.042 0.142685,0 0.02605,-0.052 -0.02777,-0.6856 0,-0.7134 0.03363,-0.034 0.121414,0.043 0.142684,0 0.04254,-0.085 0,-0.1902 0,-0.2853 0,-0.2379 0,-0.4757 0,-0.7135 0,-0.2853 0,-0.5707 0,-0.8561 0,-0.1406 0,-0.426 0,-0.2853 0,0.095 0,0.3804 0,0.2853 0,-0.4756 -0.142684,-0.428 0.142685,-0.428"
         id="path3924"
         inkscape:connector-curvature="0" />
      <path
         style="fill:none;stroke:#000000;stroke-width:1px;stroke-linecap:butt;stroke-linejoin:miter;stroke-opacity:1"
         d="m 55.619676,4140.3317 c -0.303033,0.7576 -0.285369,0.4573 -0.285369,0.8561 0,0.095 0.03008,0.1951 0,0.2854 -0.176315,0.5289 -0.142684,-0.1739 -0.142684,0.2854 0,0.048 0,0.095 0,0.1426 0,0.048 0.04254,0.1215 0,0.1427 -0.08508,0.043 -0.200289,-0.042 -0.285369,0 -0.01865,0.01 0.0299,0.511 0,0.5708 -0.03008,0.06 -0.112604,0.082 -0.142685,0.1426 -0.02127,0.042 0,0.095 0,0.1427 0,0.048 0,0.095 0,0.1427 0,0.2378 0,0.4756 0,0.7134 0,0.048 0,0.095 0,0.1427 0,0.048 0.04756,0.1427 0,0.1427 -0.04756,0 0,-0.1902 0,-0.1427 0,0.095 0,0.1903 0,0.2854"
         id="path3928"
         inkscape:connector-curvature="0" />
      <path
         style="fill:none;stroke:#000000;stroke-width:1px;stroke-linecap:butt;stroke-linejoin:miter;stroke-opacity:1"
         d="m 57.759943,4140.6171 c 0,0.5707 0,1.1415 0,1.7122 0,0.064 -0.02171,0.3846 0,0.428 0.03008,0.06 0.112604,0.082 0.142685,0.1427 0.04254,0.085 -0.04254,0.2003 0,0.2854 0.03008,0.06 0.112604,0.082 0.142684,0.1427 0.04254,0.085 -0.04254,0.2003 0,0.2854 0.03008,0.06 0.112604,0.082 0.142685,0.1426 0.02127,0.043 -0.03363,0.1091 0,0.1427 0.03363,0.034 0.109053,-0.034 0.142684,0 0.03363,0.034 -0.03363,0.1091 0,0.1427 0.03363,0.034 0.121414,-0.043 0.142684,0 0.06381,0.1276 0,0.2854 0,0.4281"
         id="path3930"
         inkscape:connector-curvature="0" />
      <path
         style="fill:none;stroke:#000000;stroke-width:1px;stroke-linecap:butt;stroke-linejoin:miter;stroke-opacity:1"
         d="m 61.18437,4140.7598 c -0.190246,0 -0.570738,0.1902 -0.570738,0 0,-0.1903 0.655819,-0.1702 0.570738,0 -0.114543,0.2291 -0.513421,0.1253 -0.713422,0.2853 -0.07428,0.059 0.04254,0.2003 0,0.2854 -0.02127,0.042 -0.109053,-0.034 -0.142684,0 -0.03363,0.034 0.03363,0.1091 0,0.1427 -0.03363,0.034 -0.100145,-0.021 -0.142685,0 -0.06016,0.03 -0.08252,0.1126 -0.142684,0.1427 -0.04254,0.021 -0.100145,-0.021 -0.142685,0 -0.06016,0.03 -0.08252,0.1126 -0.142684,0.1427 -0.04254,0.021 -0.121415,-0.043 -0.142685,0 -0.04254,0.085 0.04254,0.2002 0,0.2853 -0.02127,0.043 -0.100144,-0.021 -0.142684,0 -0.0737,0.037 -0.665023,0.665 -0.713423,0.7134 -0.04756,0.048 -0.09512,0.095 -0.142684,0.1427 -0.04756,0.048 -0.07887,0.1214 -0.142685,0.1427 -0.09024,0.03 -0.195127,-0.03 -0.285368,0 -0.06381,0.021 -0.08252,0.1126 -0.142685,0.1427 -0.04254,0.021 -0.100144,-0.021 -0.142684,0 -0.06016,0.03 -0.08252,0.1126 -0.142685,0.1427 -0.04254,0.021 -0.109053,-0.034 -0.142684,0 -0.03363,0.034 0.03363,0.109 0,0.1427 -0.55686,0.5568 -0.07663,-0.033 -0.428054,0.1427 -0.06016,0.03 -0.09512,0.095 -0.142684,0.1426"
         id="path3932"
         inkscape:connector-curvature="0" />
      <path
         style="fill:none;stroke:#000000;stroke-width:1px;stroke-linecap:butt;stroke-linejoin:miter;stroke-opacity:1"
         d="m 63.039268,4141.0451 c 0,0.2378 0,0.4756 0,0.7135 -0.04756,0.095 -0.121827,0.181 -0.142684,0.2853 -0.02798,0.1399 0,0.2854 0,0.4281 -0.04756,0.1427 -0.106206,0.2821 -0.142684,0.428 -0.01465,0.059 0.0173,0.2681 0,0.2854 -0.03363,0.034 -0.109054,-0.034 -0.142685,0 -0.265113,0.2651 -1.93e-4,0.3806 -0.285369,0.5707 -0.08849,0.059 -0.19688,0.084 -0.285369,0.1427 -0.05596,0.037 -0.08252,0.1126 -0.142684,0.1427 -0.04254,0.021 -0.121415,-0.043 -0.142685,0 -0.04254,0.085 0.04254,0.2003 0,0.2854 -0.02127,0.042 -0.109053,-0.034 -0.142684,0 -0.03363,0.034 0.03363,0.109 0,0.1427 -0.03363,0.034 -0.109054,-0.034 -0.142685,0 -0.03363,0.034 0.03363,0.109 0,0.1426 -0.03363,0.034 -0.100144,-0.021 -0.142684,0 -0.06016,0.03 -0.08252,0.1126 -0.142685,0.1427 -0.04254,0.021 -0.142684,0.048 -0.142684,0 0,-0.048 0.09512,0 0.142684,0"
         id="path3934"
         inkscape:connector-curvature="0" />
      <path
         style="fill:none;stroke:#000000;stroke-width:1px;stroke-linecap:butt;stroke-linejoin:miter;stroke-opacity:1"
         d="m 65.179535,4140.0463 c 0,0.333 0,0.6659 0,0.9988 0,0.048 -0.02127,0.1002 0,0.1427 0.473225,0.4732 -0.06726,-0.1345 0.142685,0.2854 0.03008,0.06 0.112604,0.082 0.142684,0.1427 0.02127,0.043 -0.03363,0.109 0,0.1427 0.190246,0.1902 0.136915,-0.3027 0.285369,0.1426 0,0.8086 -0.09512,0.048 0.142685,0.2854 0.03363,0.034 -0.04254,0.1214 0,0.1427 0.08508,0.042 0.200288,-0.043 0.285369,0 0.04254,0.021 -0.03363,0.1091 0,0.1427 0.03363,0.034 0.100144,-0.021 0.142684,0 0.05904,0.03 0.387735,0.3676 0.428054,0.428 0.05899,0.089 0.08369,0.1969 0.142684,0.2854 0.03731,0.056 0.112604,0.082 0.142685,0.1427 0.02127,0.043 -0.03363,0.109 0,0.1427 0.03363,0.034 0.109053,-0.034 0.142684,0 0.03363,0.034 0,0.095 0,0.1427 0,0.048 0,0.095 0,0.1426"
         id="path3936"
         inkscape:connector-curvature="0" />
      <path
         style="fill:none;stroke:#000000;stroke-width:1px;stroke-linecap:butt;stroke-linejoin:miter;stroke-opacity:1"
         d="m 69.888123,4142.6147 c 0.313259,-0.3133 0.461597,-0.582 0.856107,-0.7135 0.04512,-0.015 0.100144,0.021 0.142684,0 0.06016,-0.03 0.08252,-0.1126 0.142685,-0.1426 0.04254,-0.021 0.09512,0 0.142684,0 0.04756,0 0.09512,0 0.142685,0 0.114866,0 0.481181,-0.03 0.570737,0 0.100894,0.034 0.184476,0.109 0.285369,0.1426 0.05552,0.019 0.405911,-0.022 0.428054,0 0.03363,0.034 -0.03363,0.1091 0,0.1427 0.03363,0.034 0.09512,0 0.142684,0 0.237808,0 0.475615,0 0.713423,0 0.570738,0 1.141475,0 1.712213,0 0.134386,0 0.632255,-0.027 0.713423,0 0.06381,0.021 0.08252,0.1126 0.142684,0.1427 0.04254,0.021 0.09512,0 0.142685,0 0.04756,0 0.09512,0 0.142684,0 0.142684,0 0.285369,0 0.428053,0 0.190246,0 0.383081,-0.031 0.570738,0 0.104904,0.017 0.182194,0.1169 0.285369,0.1427 0.111319,0.028 0.68957,0 0.856107,0 0.808545,0 1.617091,0 2.425636,0 0.190246,0 0.380492,0 0.570738,0 0.04756,0 0.09512,0 0.142684,0 0.04756,0 0.142685,-0.048 0.142685,0 0,0.048 -0.09512,0 -0.142685,0"
         id="path3938"
         inkscape:connector-curvature="0" />
      <path
         style="fill:none;stroke:#000000;stroke-width:1px;stroke-linecap:butt;stroke-linejoin:miter;stroke-opacity:1"
         d="m 82.016303,4143.7561 c 0,-0.4645 -0.06016,-0.5931 0.142684,-0.9988 0.03008,-0.06 0.112604,-0.083 0.142685,-0.1426 0.02127,-0.043 -0.03363,-0.1091 0,-0.1427 0.03363,-0.034 0.100144,0.021 0.142684,0 0.06016,-0.03 0.08252,-0.1126 0.142685,-0.1427 0.04254,-0.021 0.109053,0.034 0.142684,0 0.03363,-0.034 -0.03363,-0.1091 0,-0.1427 0.03363,-0.034 0.100144,0.021 0.142685,0 0.593818,-0.2969 -0.152535,0.01 0.142684,-0.2854 0.03363,-0.034 0.109053,0.034 0.142684,0 0.03363,-0.034 -0.03363,-0.109 0,-0.1426 0.03363,-0.034 0.109054,0.034 0.142685,0 0.03363,-0.034 -0.02127,-0.1002 0,-0.1427 0.03008,-0.06 0.112604,-0.082 0.142684,-0.1427 0.02127,-0.043 -0.02127,-0.1002 0,-0.1427 0.03008,-0.06 0.121415,-0.079 0.142685,-0.1427 0.03008,-0.09 -0.03008,-0.1951 0,-0.2854 0.02127,-0.064 0.105374,-0.087 0.142684,-0.1426 0.05899,-0.088 0.06748,-0.2102 0.142685,-0.2854 0.03363,-0.034 0.109053,0.034 0.142684,0 0.03363,-0.034 0,-0.095 0,-0.1427 0,-0.048 0,-0.095 0,-0.1427"
         id="path3940"
         inkscape:connector-curvature="0" />
      <path
         style="fill:none;stroke:#000000;stroke-width:1px;stroke-linecap:butt;stroke-linejoin:miter;stroke-opacity:1"
         d="m 85.298045,4141.4732 c -0.102225,0.1156 0.06191,1.1792 0,1.4268 -0.02579,0.1032 -0.109053,0.1845 -0.142684,0.2854 -0.01851,0.055 0.02214,0.4059 0,0.4281 -0.03363,0.034 -0.121414,-0.043 -0.142684,0 -0.02087,0.042 0,0.7393 0,0.8561 0,0.048 0.02127,0.1001 0,0.1426 -0.03008,0.06 -0.112604,0.083 -0.142685,0.1427 -0.04559,0.091 0.03828,0.4559 0,0.5708 -0.03363,0.1009 -0.109053,0.1844 -0.142684,0.2853 -0.03008,0.09 0,0.1903 0,0.2854"
         id="path3942"
         inkscape:connector-curvature="0" />
      <path
         style="fill:none;stroke:#000000;stroke-width:1px;stroke-linecap:butt;stroke-linejoin:miter;stroke-opacity:1"
         d="m 83.443147,4141.4732 c 0.12153,0.1115 0.930893,-0.07 1.141476,0 0.06381,0.021 0.07743,0.1264 0.142685,0.1427 0.811446,0 0.09394,-0.064 0.713422,0.1427 0.04512,0.015 0.100144,-0.021 0.142684,0 0.06016,0.03 0.08252,0.1126 0.142685,0.1426 0.114147,0.057 0.313906,-0.057 0.428053,0 0.06016,0.03 0.08252,0.1126 0.142685,0.1427 0.05104,0.026 0.406012,-0.044 0.428053,0 0.07097,0.142 -0.05645,0.3999 0,0.4281 0.08508,0.043 0.195128,-0.03 0.285369,0 0.528947,0.1763 -0.173925,0.1427 0.285369,0.1427 0.04756,0 0.121414,-0.043 0.142685,0 0.04254,0.085 -0.04254,0.2003 0,0.2853 0.02127,0.043 0.100144,-0.021 0.142684,0 0.593819,0.2969 -0.152535,-0.01 0.142684,0.2854 0.03363,0.034 0.121415,-0.043 0.142685,0 0.04254,0.085 -0.05276,0.2062 0,0.2854 0.142839,0.2142 0.911559,0.1427 1.141476,0.1427 0.380492,0 0.760984,0 1.141475,0 0.03391,0 0.538758,0.016 0.570738,0 0.06016,-0.03 0.08252,-0.1126 0.142685,-0.1427 0.05657,-0.028 0.398883,0.029 0.428053,0 0,-0.21 -0.03363,-0.1091 0.142685,-0.2854"
         id="path3944"
         inkscape:connector-curvature="0" />
      <path
         style="fill:none;stroke:#000000;stroke-width:1px;stroke-linecap:butt;stroke-linejoin:miter;stroke-opacity:1"
         d="m 68.746647,4142.6147 c 0,-0.333 0,-0.6659 0,-0.9988 0,-0.048 -0.03363,-0.1091 0,-0.1427 0.03363,-0.034 0.121415,0.042 0.142685,0 0.06381,-0.1276 0,-0.2854 0,-0.4281 0,-0.2853 0,-0.5707 0,-0.8561 0,-0.1563 0.01441,-0.5635 0,-0.5707 -7.34e-4,-4e-4 -0.973785,-0.012 -0.998792,0 -0.120322,0.06 -0.165046,0.2252 -0.285369,0.2854 -0.04254,0.021 -0.121414,-0.042 -0.142684,0 -0.04254,0.085 0,0.1902 0,0.2853 0,0.2854 0,0.5708 0,0.8561 0,0.048 0,0.095 0,0.1427 0,0.048 0.03363,0.1091 0,0.1427 -0.03363,0.034 -0.121414,-0.043 -0.142685,0 -0.04254,0.085 0.04254,0.2003 0,0.2854 -0.02127,0.043 -0.109053,-0.034 -0.142684,0 -0.06726,0.067 0.06726,0.2181 0,0.2853 -0.03363,0.034 -0.109053,-0.034 -0.142684,0 -0.03363,0.034 0,0.095 0,0.1427 0,0.048 0,0.095 0,0.1427 0,0.4281 0,0.8561 0,1.2842"
         id="path3946"
         inkscape:connector-curvature="0" />
      <path
         style="fill:none;stroke:#000000;stroke-width:1px;stroke-linecap:butt;stroke-linejoin:miter;stroke-opacity:1"
         d="m 55.191623,4143.0427 c 0.998791,0 1.997582,0 2.996374,0 0.166537,0 0.744788,-0.028 0.856106,0 0.103176,0.026 0.182194,0.1169 0.285369,0.1427 0.09228,0.023 0.193086,-0.023 0.285369,0 0.103176,0.026 0.182194,0.1169 0.285369,0.1427 0.138424,0.035 0.285369,0 0.428054,0"
         id="path3948"
         inkscape:connector-curvature="0" />
      <path
         style="fill:none;stroke:#000000;stroke-width:1px;stroke-linecap:butt;stroke-linejoin:miter;stroke-opacity:1"
         d="m 91.861531,4143.6135 c 0.949453,-0.034 1.905088,0.05 2.853688,0 0.47733,-0.025 0.94979,-0.1129 1.42685,-0.1427 0.28481,-0.018 0.57073,0 0.8561,0 0.66586,0 1.33172,0 1.99759,0 0.19024,0 0.38049,0 0.57073,0 0.0476,0 0.0951,0 0.14269,0 0.0476,0 0.14268,-0.048 0.14268,0 0,0.048 -0.19024,0 -0.14268,0 0.28537,0 0.570741,0 0.856101,0 0.14269,0 0.2927,0.045 0.42806,0 0.0638,-0.021 0.0789,-0.1214 0.14268,-0.1427 0.0902,-0.03 0.19025,0 0.28537,0 0.14269,0 0.28814,0.028 0.42805,0 0.10429,-0.021 0.18448,-0.1091 0.28537,-0.1427 0.11485,-0.038 0.47956,0.046 0.57074,0 0.0602,-0.03 0.0789,-0.1214 0.14269,-0.1427 0.18048,-0.06 0.38617,0.046 0.57073,0 0.10318,-0.026 0.1822,-0.1169 0.28537,-0.1427 0.0923,-0.023 0.19513,0.03 0.28537,0 0.52895,-0.1763 -0.17392,-0.1427 0.28537,-0.1427"
         id="path3950"
         inkscape:connector-curvature="0" />
      <path
         style="fill:none;stroke:#000000;stroke-width:1px;stroke-linecap:butt;stroke-linejoin:miter;stroke-opacity:1"
         d="m 95.285959,4141.9012 c -0.16583,0.3909 -0.14269,0.741 -0.14269,1.1415 0,0.048 0,0.095 0,0.1427 0,0.048 0.0476,0.1427 0,0.1427 -0.0476,0 0,-0.095 0,-0.1427"
         id="path3952"
         inkscape:connector-curvature="0" />
      <path
         style="fill:none;stroke:#000000;stroke-width:1px;stroke-linecap:butt;stroke-linejoin:miter;stroke-opacity:1"
         d="m 105.70193,4143.1854 c 0,-0.8085 0,-1.6171 0,-2.4256 0,-0.1344 -0.0271,-0.6323 0,-0.7135 0.0213,-0.064 0.1126,-0.082 0.14268,-0.1426 0.0425,-0.085 -0.0673,-0.2181 0,-0.2854 0.0336,-0.034 0.10905,0.034 0.14268,0 0.0336,-0.034 -0.0425,-0.1214 0,-0.1427 0.12763,-0.064 0.28537,0 0.42806,0 0.0476,0 0.0951,0 0.14268,0 0.0476,0 0.10015,-0.021 0.14269,0 0.0602,0.03 0.0825,0.1126 0.14268,0.1427 0.0425,0.021 0.10905,-0.034 0.14269,0 0.0336,0.034 -0.0336,0.109 0,0.1427 0.0336,0.034 0.10905,-0.034 0.14268,0 0.0336,0.034 -0.0336,0.109 0,0.1427 0.0336,0.034 0.10905,-0.034 0.14268,0 0.0336,0.034 -0.0336,0.109 0,0.1426 0.0336,0.034 0.10906,-0.034 0.14269,0 0.0336,0.034 -0.0425,0.1215 0,0.1427 0.0851,0.042 0.21811,-0.067 0.28537,0 0.40835,0.4084 -0.35601,0.1787 0.14268,0.4281 0.0425,0.021 0.0951,0 0.14269,0 0.0762,0 0.67258,-0.02 0.71342,0 0.0602,0.03 0.1126,0.082 0.14268,0.1427 0.0217,0.043 0,0.3638 0,0.428 0,0.4756 0,0.9512 0,1.4269 0,0.035 -0.005,0.4234 0,0.428 0.0336,0.034 0.10906,-0.034 0.14269,0 0.0336,0.034 -0.0336,0.1091 0,0.1427 0.0336,0.034 0.10905,-0.034 0.14268,0 0.0336,0.034 -0.0336,0.1091 0,0.1427 0.0336,0.034 0.10906,-0.034 0.14269,0 0.0713,0.071 -0.0714,0.3567 0,0.428 0.0336,0.034 0.0951,0 0.14268,0"
         id="path3954"
         inkscape:connector-curvature="0" />
      <path
         style="fill:none;stroke:#000000;stroke-width:1px;stroke-linecap:butt;stroke-linejoin:miter;stroke-opacity:1"
         d="m 110.5532,4143.1854 c 0,-0.3805 0,-0.761 0,-1.1415 0,-0.048 -0.0336,-0.109 0,-0.1427 0.0673,-0.067 0.2181,0.067 0.28537,0 0.0336,-0.034 -0.0425,-0.1214 0,-0.1426 0.0851,-0.043 0.19024,0 0.28537,0 0.0476,0 0.10905,0.034 0.14268,0 0.0673,-0.067 -0.0673,-0.2182 0,-0.2854 0.0336,-0.034 0.10905,0.034 0.14268,0 0.0336,-0.034 -0.0213,-0.1002 0,-0.1427 0.0301,-0.06 0.11261,-0.083 0.14269,-0.1427 0.0213,-0.042 0,-0.095 0,-0.1427 0.0476,-0.095 0.0837,-0.1968 0.14268,-0.2853 0.0373,-0.056 0.11261,-0.082 0.14269,-0.1427 0.0213,-0.043 -0.0425,-0.1214 0,-0.1427 0.0851,-0.043 0.19024,0 0.28537,0"
         id="path3956"
         inkscape:connector-curvature="0" />
      <path
         style="fill:none;stroke:#000000;stroke-width:1px;stroke-linecap:butt;stroke-linejoin:miter;stroke-opacity:1"
         d="m 112.83615,4141.0451 c 0.31545,0.6309 0.13497,0.4204 0.42805,0.7135 0.0476,0.048 0.0867,0.1053 0.14269,0.1426 0.0885,0.059 0.19688,0.084 0.28537,0.1427 0.056,0.037 0.0825,0.1126 0.14268,0.1427 0.0425,0.021 0.10905,-0.034 0.14268,0 0.0336,0.034 -0.0425,0.1214 0,0.1427 0.0851,0.042 0.20029,-0.043 0.28537,0 0.0425,0.021 -0.0425,0.1214 0,0.1427 0.0851,0.043 0.20029,-0.042 0.28537,0 0.0425,0.021 -0.0425,0.1214 0,0.1427 0.0851,0.042 0.20029,-0.043 0.28537,0 0.0425,0.021 -0.0336,0.109 0,0.1426 0.19025,0.1903 0.14269,-0.2378 0.14269,0.1427"
         id="path3958"
         inkscape:connector-curvature="0" />
      <path
         style="fill:none;stroke:#000000;stroke-width:1px;stroke-linecap:butt;stroke-linejoin:miter;stroke-opacity:1"
         d="m 109.55441,4140.189 c -0.0595,0.5314 0.59474,0.9522 0.71342,1.4269 0.0231,0.092 -0.0301,0.1951 0,0.2853 0.0425,0.1277 0.22521,0.1651 0.28537,0.2854 0.0213,0.042 -0.0336,0.1091 0,0.1427 0.0336,0.034 0.10905,-0.034 0.14268,0 0.0673,0.067 -0.0425,0.2003 0,0.2854 0.0301,0.06 0.11261,0.082 0.14269,0.1426 0.0213,0.042 -0.0336,0.1091 0,0.1427 0.0336,0.034 0.10905,-0.034 0.14268,0 0.0336,0.034 -0.0336,0.1091 0,0.1427 0.0713,0.071 0.35671,-0.071 0.42805,0 0.0336,0.034 -0.0336,0.1091 0,0.1427 0.0336,0.034 0.10906,-0.034 0.14269,0 0.0336,0.034 -0.0336,0.1091 0,0.1427 0.0336,0.034 0.10905,-0.034 0.14268,0 0,0.2099 -0.0336,0.109 0.14269,0.2854"
         id="path3960"
         inkscape:connector-curvature="0" />
      <path
         style="fill:none;stroke:#000000;stroke-width:1px;stroke-linecap:butt;stroke-linejoin:miter;stroke-opacity:1"
         d="m 115.68984,4143.3281 c -0.16134,0.8067 -0.14269,0.4709 -0.14269,0.9988 0,0.048 -0.007,-0.096 0,-0.1427 0.0409,-0.2864 -0.0232,-0.6191 0.14269,-0.8561 0.19668,-0.281 0.58538,-0.3602 0.85611,-0.5708 1.05187,-0.8181 -0.11098,-0.032 0.71342,-0.8561 0.12126,-0.1212 0.29414,-0.1782 0.42805,-0.2853 0.10505,-0.084 0.17344,-0.2108 0.28537,-0.2854 0.0396,-0.026 0.12141,0.042 0.14268,0 0.0425,-0.085 -0.0673,-0.2181 0,-0.2854 0.0673,-0.067 0.20029,0.042 0.28537,0 0.0425,-0.021 -0.0336,-0.109 0,-0.1427 0.0336,-0.034 0.12142,0.043 0.14269,0 0,-0.8085 -0.0951,-0.048 0.14268,-0.2853 0.0336,-0.034 -0.0476,-0.1427 0,-0.1427 0.0476,0 0,0.095 0,0.1427 0,0.048 0.0425,0.1214 0,0.1427 -0.52229,0.2611 -0.18192,-0.2069 -0.14268,-0.2854 0.0476,-0.095 0.0837,-0.1969 0.14268,-0.2854 0.0373,-0.056 0.0951,-0.095 0.14269,-0.1427"
         id="path3962"
         inkscape:connector-curvature="0" />
      <path
         style="fill:none;stroke:#000000;stroke-width:1px;stroke-linecap:butt;stroke-linejoin:miter;stroke-opacity:1"
         d="m 118.54353,4144.4696 c 0.19024,0 0.38165,0.021 0.57074,0 0.24103,-0.027 0.47277,-0.1126 0.71342,-0.1427 0.22195,-0.028 0.81383,0.037 0.99879,0 0.066,-0.013 0.0951,-0.095 0.14268,-0.1427 0.0951,0 0.19025,0 0.28537,0 0.0476,0 -0.10463,-0.028 -0.14268,0 -0.16143,0.1211 -0.29673,0.2748 -0.42806,0.428 -0.15476,0.1806 -0.25989,0.4026 -0.42805,0.5708 -0.41163,0.4116 -0.97687,0.6388 -1.42684,0.9988 -0.10505,0.084 -0.17002,0.2161 -0.28537,0.2853 -0.12897,0.077 -0.29353,0.075 -0.42806,0.1427 -0.17122,0.086 -0.25683,0.3425 -0.42805,0.4281 -0.0425,0.021 -0.16395,0.042 -0.14268,0 0.0602,-0.1203 0.20278,-0.1792 0.28537,-0.2854 0.25118,-0.3229 0.44546,-0.6896 0.71342,-0.9988 0.35241,-0.4066 0.77532,-0.7471 1.14147,-1.1415 0.25277,-0.2722 0.43732,-0.6076 0.71343,-0.8561 1.74832,-1.049 0.0106,0.1321 0.99879,-0.8561 0.10305,-0.103 0.4122,0.2537 0.14268,-0.2853 -0.007,-0.014 -0.41443,0 -0.57074,0"
         id="path3964"
         inkscape:connector-curvature="0" />
      <path
         style="fill:none;stroke:#000000;stroke-width:1px;stroke-linecap:butt;stroke-linejoin:miter;stroke-opacity:1"
         d="m 116.68863,4141.4732 c 0.25608,0.1805 0.58538,-0.09 0.85611,0 0.27557,0.092 0.0499,0.2424 0.14268,0.428 0.0213,0.042 0.10014,-0.021 0.14269,0 0.31548,0.1578 0.0443,0.089 0.14268,0.2854 0.0301,0.06 0.0825,0.1126 0.14268,0.1427 0.0425,0.021 0.12142,-0.043 0.14269,0 0.0425,0.085 0,0.1902 0,0.2854 0,0.048 -0.0336,0.109 0,0.1426 0.0336,0.034 0.12141,-0.043 0.14268,0 0,0.6496 -0.0673,0.01 0.14269,0.4281 0.0425,0.085 -0.0851,0.2428 0,0.2854 0.0851,0.042 0.20029,-0.043 0.28537,0 0.0257,0.013 -0.0388,0.493 0,0.5707 0.0301,0.06 0.1126,0.082 0.14268,0.1427 0.0425,0.085 -0.0425,0.2003 0,0.2854 0.0602,0.1203 0.21075,0.1734 0.28537,0.2853 0.059,0.088 0.0951,0.1903 0.14268,0.2854"
         id="path3966"
         inkscape:connector-curvature="0" />
      <path
         style="fill:none;stroke:#000000;stroke-width:1px;stroke-linecap:butt;stroke-linejoin:miter;stroke-opacity:1"
         d="m 121.68259,4142.6147 c 0.46894,0.1878 0.93815,0.1426 1.42684,0.1426 0.14269,0 0.28814,0.028 0.42805,0 0.1509,-0.03 0.66104,-0.3887 0.71343,-0.428 0.0538,-0.04 0.0867,-0.1054 0.14268,-0.1427 0.0885,-0.059 0.18448,-0.109 0.28537,-0.1427 0.0451,-0.015 0.12141,0.043 0.14268,0 0.0425,-0.085 -0.0425,-0.2003 0,-0.2853 0.0213,-0.043 0.0951,0 0.14269,0 0.0476,0 0.0951,0 0.14268,0 0.19025,0 0.3805,0 0.57074,0 0.42805,0 0.85611,0 1.28416,0 0.0476,0 0.0951,0 0.14269,0 0.0476,0 0.10905,-0.034 0.14268,0 0.0336,0.034 0,0.095 0,0.1426"
         id="path3968"
         inkscape:connector-curvature="0" />
      <path
         style="fill:none;stroke:#000000;stroke-width:1px;stroke-linecap:butt;stroke-linejoin:miter;stroke-opacity:1"
         d="m 132.52661,4144.1842 c -0.33293,0 -0.66587,0 -0.9988,0 -0.0476,0 -0.0951,0 -0.14268,0 -0.0476,0 -0.10014,0.021 -0.14268,0 -0.0822,-0.041 -0.14196,-0.2383 -0.28537,-0.1427 -0.31134,0.2076 -0.33223,0.4272 -0.57074,0.7134 -0.12918,0.155 -0.28537,0.2854 -0.42805,0.4281 -0.0951,0.1902 -0.16174,0.3976 -0.28537,0.5707 -0.11729,0.1642 -0.302,0.2705 -0.42806,0.4281 -0.13287,0.1661 -0.13496,0.4203 -0.28537,0.5707 -0.0336,0.034 0,-0.095 0,-0.1427 0,-0.2734 -0.0425,-0.067 0.28537,-0.2853 0.056,-0.037 0.0951,-0.095 0.14269,-0.1427 0.6543,-0.6543 -0.12032,0.1805 0.57074,-0.8561 0.16892,-0.2534 0.38376,-0.4731 0.57073,-0.7135 0.146,-0.1877 0.28983,-0.3772 0.42806,-0.5707 0.0997,-0.1395 0.17558,-0.2963 0.28537,-0.428 0.12918,-0.1551 0.28536,-0.2854 0.42805,-0.4281 0.0951,-0.095 0.17344,-0.2107 0.28537,-0.2854 0.0396,-0.026 0.10905,0.034 0.14268,0 0.0336,-0.034 0.0336,-0.109 0,-0.1427 -0.0336,-0.034 -0.0951,0 -0.14268,0 -0.39284,0 0.21788,-0.015 -0.57074,0.1427 -0.0933,0.019 -0.20029,-0.042 -0.28537,0 -0.12032,0.06 -0.16047,0.2354 -0.28537,0.2854 -0.13248,0.053 -0.28814,-0.028 -0.42805,0 -0.20857,0.042 -0.36217,0.2437 -0.57074,0.2854 -0.13991,0.028 -0.28537,0 -0.42805,0 -0.38049,0 -0.76099,0 -1.14148,0 -0.19024,0 -0.38049,0 -0.57074,0 -0.0476,0 -0.19024,0 -0.14268,0 0.0951,0 0.38049,0 0.28537,0 -0.14269,0 -0.30933,0.079 -0.42806,0 -0.0438,-0.029 0.0476,-0.6659 0,-0.7135 -0.0336,-0.034 -0.0951,0 -0.14268,0"
         id="path3970"
         inkscape:connector-curvature="0" />
      <path
         style="fill:none;stroke:#000000;stroke-width:1px;stroke-linecap:butt;stroke-linejoin:miter;stroke-opacity:1"
         d="m 125.82044,4143.7561 c -0.23781,0.1427 -0.46538,0.3041 -0.71343,0.4281 -0.0425,0.021 -0.0951,0 -0.14268,0 -0.19025,0 -0.38049,0 -0.57074,0 -0.28537,0 -0.57074,0 -0.85611,0"
         id="path3972"
         inkscape:connector-curvature="0" />
      <path
         style="fill:none;stroke:#000000;stroke-width:1px;stroke-linecap:butt;stroke-linejoin:miter;stroke-opacity:1"
         d="m 133.95345,4142.9 c 0.0434,-0.038 1.22716,0.046 1.28416,0 0.16609,-0.1328 0.1525,-0.4046 0.28537,-0.5707 0.22661,-0.2833 0.30767,-0.055 0.57074,-0.1427 0.52894,-0.1763 -0.17393,-0.1427 0.28537,-0.1427 0.0476,0 0.14268,-0.048 0.14268,0 0,0.048 -0.14268,-0.048 -0.14268,0 0,0.4175 0.20009,-0.028 0.28537,0.1427 0.0209,0.042 0,0.7393 0,0.8561"
         id="path3974"
         inkscape:connector-curvature="0" />
      <path
         style="fill:none;stroke:#000000;stroke-width:1px;stroke-linecap:butt;stroke-linejoin:miter;stroke-opacity:1"
         d="m 137.80593,4142.1866 c 0.61688,0.1542 0.57074,-0.053 0.57074,0.2854 0,0.048 -0.0213,0.1001 0,0.1427 0.0301,0.06 0.1126,0.082 0.14268,0.1426 0.0425,0.085 -0.0673,0.2182 0,0.2854 0.0336,0.034 0.10906,-0.034 0.14269,0 0.29522,0.2952 -0.45114,-0.011 0.14268,0.2854 0.0425,0.021 0.10906,-0.034 0.14269,0 0.0673,0.067 -0.0673,0.2181 0,0.2854 0.0336,0.034 0.10905,-0.034 0.14268,0 0.0336,0.034 -0.0425,0.1214 0,0.1426 0.12762,0.064 0.30043,-0.064 0.42805,0 0.0602,0.03 0.11261,0.083 0.14269,0.1427 0.0213,0.043 -0.0425,0.1214 0,0.1427 0.0851,0.042 0.20029,-0.043 0.28537,0 0.0425,0.021 -0.0336,0.1091 0,0.1427 0.0336,0.034 0.10905,-0.034 0.14268,0 0.0713,0.071 -0.0713,0.3567 0,0.428 0.19025,0.1903 0.14269,-0.2378 0.14269,0.1427"
         id="path3976"
         inkscape:connector-curvature="0" />
      <path
         style="fill:none;stroke:#000000;stroke-width:1px;stroke-linecap:butt;stroke-linejoin:miter;stroke-opacity:1"
         d="m 138.66204,4144.7549 c 0,-0.3329 0,-0.6658 0,-0.9988 0,-0.048 -0.0336,-0.109 0,-0.1426 0.0949,-0.095 0.19041,0.095 0.28537,0 0.0336,-0.034 -0.0336,-0.1091 0,-0.1427 0.0336,-0.034 0.10905,0.034 0.14268,0 0.0336,-0.034 -0.0336,-0.1091 0,-0.1427 0.0336,-0.034 0.12142,0.043 0.14269,0 0.19024,-0.3805 -0.20179,-0.1984 0.14268,-0.4281 0.0885,-0.059 0.19688,-0.084 0.28537,-0.1427 0.056,-0.037 0.0951,-0.095 0.14268,-0.1426 0.0951,-0.048 0.19688,-0.084 0.28537,-0.1427 0.056,-0.037 0.0825,-0.1126 0.14269,-0.1427 0.0425,-0.021 0.12141,0.042 0.14268,0 0.0425,-0.085 0,-0.1903 0,-0.2854"
         id="path3978"
         inkscape:connector-curvature="0" />
    </g>
    <g
       id="g4689"
       transform="translate(-122.27559,248.0315)"
       inkscape:label="Hershey Text">
      <path
         id="path4691"
         transform="translate(10,0)"
         d="m 8,-7 -1,-2 -2,-2 -2,-1 -4,0 -2,1 -2,2 -1,2 -1,3 0,5 1,3 1,2 2,2 2,1 L 3,9 5,8 7,6 8,4 8,1 M 3,1 8,1"
         style="fill:none;stroke:#000000"
         inkscape:connector-curvature="0" />
      <path
         id="path4693"
         transform="translate(28,0)"
         d="m -3,-5 0,14 m 0,-8 1,-3 2,-2 2,-1 3,0"
         style="fill:none;stroke:#000000"
         inkscape:connector-curvature="0" />
      <path
         id="path4695"
         transform="translate(43,0)"
         d="M -6,1 6,1 6,-1 5,-3 4,-4 2,-5 l -3,0 -2,1 -2,2 -1,3 0,2 1,3 2,2 2,1 3,0 2,-1 2,-2"
         style="fill:none;stroke:#000000"
         inkscape:connector-curvature="0" />
      <path
         id="path4697"
         transform="translate(61,0)"
         d="M -6,1 6,1 6,-1 5,-3 4,-4 2,-5 l -3,0 -2,1 -2,2 -1,3 0,2 1,3 2,2 2,1 3,0 2,-1 2,-2"
         style="fill:none;stroke:#000000"
         inkscape:connector-curvature="0" />
      <path
         id="path4699"
         transform="translate(75,0)"
         d="M 0,-12 0,5 1,8 3,9 5,9 m -8,-14 7,0"
         style="fill:none;stroke:#000000"
         inkscape:connector-curvature="0" />
      <path
         id="path4701"
         transform="translate(86,0)"
         d="m -1,-12 1,1 1,-1 -1,-1 -1,1 m 1,7 0,14"
         style="fill:none;stroke:#000000"
         inkscape:connector-curvature="0" />
      <path
         id="path4703"
         transform="translate(99,0)"
         d="m -5,-5 0,14 m 0,-10 3,-3 2,-1 3,0 2,1 1,3 0,10"
         style="fill:none;stroke:#000000"
         inkscape:connector-curvature="0" />
      <path
         id="path4705"
         transform="translate(118,0)"
         d="m 6,-5 0,16 -1,3 -1,1 -2,1 -3,0 -2,-1 M 6,-2 4,-4 2,-5 l -3,0 -2,1 -2,2 -1,3 0,2 1,3 2,2 2,1 3,0 2,-1 2,-2"
         style="fill:none;stroke:#000000"
         inkscape:connector-curvature="0" />
      <path
         id="path4707"
         transform="translate(136,0)"
         d="m 6,-2 -1,-2 -3,-1 -3,0 -3,1 -1,2 1,2 2,1 L 3,2 5,3 6,5 6,6 5,8 2,9 -1,9 -4,8 -5,6"
         style="fill:none;stroke:#000000"
         inkscape:connector-curvature="0" />
      <path
         id="path4709"
         transform="translate(153,0)"
         d=""
         style="fill:none;stroke:#000000"
         inkscape:connector-curvature="0" />
      <path
         id="path4711"
         transform="translate(166,0)"
         d="m 5,-12 -2,0 -2,1 -1,3 0,17 m -3,-14 7,0"
         style="fill:none;stroke:#000000"
         inkscape:connector-curvature="0" />
      <path
         id="path4713"
         transform="translate(180,0)"
         d="m -3,-5 0,14 m 0,-8 1,-3 2,-2 2,-1 3,0"
         style="fill:none;stroke:#000000"
         inkscape:connector-curvature="0" />
      <path
         id="path4715"
         transform="translate(195,0)"
         d="m -1,-5 -2,1 -2,2 -1,3 0,2 1,3 2,2 2,1 L 2,9 4,8 6,6 7,3 7,1 6,-2 4,-4 2,-5 -1,-5"
         style="fill:none;stroke:#000000"
         inkscape:connector-curvature="0" />
      <path
         id="path4717"
         transform="translate(220,0)"
         d="m -11,-5 0,14 m 0,-10 3,-3 2,-1 3,0 2,1 1,3 0,10 m 0,-10 3,-3 2,-1 3,0 2,1 1,3 0,10"
         style="fill:none;stroke:#000000"
         inkscape:connector-curvature="0" />
      <path
         id="path4719"
         transform="translate(243,0)"
         d=""
         style="fill:none;stroke:#000000"
         inkscape:connector-curvature="0" />
      <path
         id="path4721"
         transform="translate(262,0)"
         d="m -7,-12 0,21 m 0,-21 9,0 3,1 1,1 1,2 0,3 -1,2 -1,1 -3,1 -9,0"
         style="fill:none;stroke:#000000"
         inkscape:connector-curvature="0" />
      <path
         id="path4723"
         transform="translate(280,0)"
         d="M -6,-5 0,9 M 6,-5 0,9 l -2,4 -2,2 -2,1 -1,0"
         style="fill:none;stroke:#000000"
         inkscape:connector-curvature="0" />
      <path
         id="path4725"
         transform="translate(295,0)"
         d="m -3,-5 0,14 m 0,-8 1,-3 2,-2 2,-1 3,0"
         style="fill:none;stroke:#000000"
         inkscape:connector-curvature="0" />
      <path
         id="path4727"
         transform="translate(310,0)"
         d="M 6,-5 6,9 M 6,-2 4,-4 2,-5 l -3,0 -2,1 -2,2 -1,3 0,2 1,3 2,2 2,1 3,0 2,-1 2,-2"
         style="fill:none;stroke:#000000"
         inkscape:connector-curvature="0" />
      <path
         id="path4729"
         transform="translate(335,0)"
         d="m -11,-5 0,14 m 0,-10 3,-3 2,-1 3,0 2,1 1,3 0,10 m 0,-10 3,-3 2,-1 3,0 2,1 1,3 0,10"
         style="fill:none;stroke:#000000"
         inkscape:connector-curvature="0" />
      <path
         id="path4731"
         transform="translate(359,0)"
         d="m -1,-5 -2,1 -2,2 -1,3 0,2 1,3 2,2 2,1 L 2,9 4,8 6,6 7,3 7,1 6,-2 4,-4 2,-5 -1,-5"
         style="fill:none;stroke:#000000"
         inkscape:connector-curvature="0" />
      <path
         id="path4733"
         transform="translate(378,0)"
         d="m -1,-5 -2,1 -2,2 -1,3 0,2 1,3 2,2 2,1 L 2,9 4,8 6,6 7,3 7,1 6,-2 4,-4 2,-5 -1,-5"
         style="fill:none;stroke:#000000"
         inkscape:connector-curvature="0" />
      <path
         id="path4735"
         transform="translate(396,0)"
         d="m 6,-2 -1,-2 -3,-1 -3,0 -3,1 -1,2 1,2 2,1 L 3,2 5,3 6,5 6,6 5,8 2,9 -1,9 -4,8 -5,6"
         style="fill:none;stroke:#000000"
         inkscape:connector-curvature="0" />
    </g>
    <g
       id="g5484"
       clip-path="url(#clipPath3022)"
       transform="matrix(0,0.64171229,-0.18316602,0,147.1883,3740.2077)">
      <g
         id="g5486"
         transform="translate(76.09375,-943.53125)">
        <path
           style="fill:#000000;stroke:none"
           id="path5488"
           d="m 15.04314,1073.2739 c 0.20301,4.588 0.423751,7.4156 0.211876,15.0431 -0.211876,7.6275 -8.2631339,12.2888 -13.5600143,12.9244 -5.2968804,0.6356 -13.3481387,-1.2713 -14.1956397,-1.4831 -0.847501,-0.2119 -1.969097,0.5236 -2.542502,2.1187 -4.433193,12.332 -10.934862,15.4222 -19.280645,16.1025 -4.985892,0.4064 -10.748812,-3.516 -12.924388,-7.6275 -3.744683,-7.0768 0.386269,-16.2223 7.25493,-16.9887 4.838118,-0.5399 8.664525,2.2552 8.43012,7.3008 -0.202828,4.3659 -5.085005,6.0339 -5.983679,2.0541 -5.362419,5.5123 3.254856,8.3691 6.401145,6.3626 8.209746,-5.2357 6.395647,-16.0639 1.572904,-21.4057 -9.90411,-7.7813 -24.885073,-2.3836 -28.773164,7.9408 -6.600698,17.5274 5.350381,29.7816 18.153605,31.2254 19.051731,1.0594 33.8695052,-8.7273 41.7628892,-14.8683 17.8817448,-13.9119 34.9433878,-32.5422 57.7095948,-36.5487 8.992714,-1.4764 19.139527,-1.3079 26.459264,5.015 15.166844,13.1014 17.813904,33.4386 5.753684,46.2541 -9.986212,10.6116 -24.645773,13.9446 -36.617439,6.3932 -17.004834,-10.7261 -28.565772,-9.7842 -27.755653,1.695 -22.1002855,-5.7753 -8.603629,-19.3769 2.491734,-19.6812 12.124779,-0.3325 16.132332,4.1374 20.206581,7.9511 1.65586,1.55 2.430969,1.285 1.472438,-0.2059 -5.940526,-9.8274 -4.541444,-18.9434 4.149601,-24.8081 13.611385,-9.185 26.895249,5.127 21.448061,15.4704 -2.443474,4.6398 -10.73618,6.0777 -13.050261,2.8918 -1.483127,-2.5425 -2.503,-5.2718 0.578168,-7.711 1.027056,4.6217 5.341769,1.7085 4.186331,-0.4427 -1.50384,-2.7998 -4.62265,-3.4222 -7.165153,-1.0916 -7.202272,7.7109 -3.223512,19.2389 8.38537,19.9208 9.819279,0.5768 15.572759,-5.2913 17.20734,-12.6201 3.963475,-17.7707 -6.706976,-30.8938 -23.788179,-29.0404 -9.537084,1.0348 -19.07106,3.1781 -30.088571,13.1363 -11.017511,9.9581 -19.914024,17.2966 -29.9753598,25.7848 -9.3360126,7.8763 -20.1623392,15.758 -47.8198182,13.3851 -17.333323,-1.4871 -30.002798,-21.3161 -27.681706,-35.4471 2.704788,-16.467 11.20773,-23.0134 19.354592,-26.0337 25.260965,-9.365 30.952847,4.1823 44.0465743,14.1352 6.1399272,4.6671 16.5497375,1.3452 16.3378623,-4.5873 -0.2118752,-5.9325 0.1234145,-9.1187 0,-11.8785 -0.336869,-7.533 7.3259354,-7.4512 7.6275074,-0.6356 z"
           inkscape:connector-curvature="0" />
        <path
           style="fill:#000000;stroke:none"
           id="use5490"
           d="m 188.96662,1073.2739 c -0.20301,4.588 -0.42375,7.4156 -0.21188,15.0431 0.21188,7.6275 8.26314,12.2888 13.56002,12.9244 5.29688,0.6356 13.34814,-1.2713 14.19564,-1.4831 0.8475,-0.2119 1.96909,0.5236 2.5425,2.1187 4.43319,12.332 10.93486,15.4222 19.28065,16.1025 4.98589,0.4064 10.74881,-3.516 12.92438,-7.6275 3.74469,-7.0768 -0.38627,-16.2223 -7.25493,-16.9887 -4.83812,-0.5399 -8.66452,2.2552 -8.43012,7.3008 0.20283,4.3659 5.08501,6.0339 5.98368,2.0541 5.36242,5.5123 -3.25485,8.3691 -6.40114,6.3626 -8.20975,-5.2357 -6.39565,-16.0639 -1.57291,-21.4057 9.90411,-7.7813 24.88508,-2.3836 28.77317,7.9408 6.60069,17.5274 -5.35038,29.7816 -18.15361,31.2254 -19.05173,1.0594 -33.8695,-8.7273 -41.76289,-14.8683 -17.88174,-13.9119 -34.94339,-32.5422 -57.70959,-36.5487 -8.99272,-1.4764 -19.13953,-1.3079 -26.45927,5.015 -15.16684,13.1014 -17.8139,33.4386 -5.75368,46.2541 9.98621,10.6116 24.64577,13.9446 36.61744,6.3932 17.00483,-10.7261 28.56577,-9.7842 27.75565,1.695 22.10029,-5.7753 8.60363,-19.3769 -2.49173,-19.6812 -12.12478,-0.3325 -16.13233,4.1374 -20.20658,7.9511 -1.65586,1.55 -2.43097,1.285 -1.47244,-0.2059 5.94052,-9.8274 4.54144,-18.9434 -4.1496,-24.8081 -13.61139,-9.185 -26.89525,5.127 -21.44806,15.4704 2.44347,4.6398 10.73618,6.0777 13.05026,2.8918 1.48312,-2.5425 2.503,-5.2718 -0.57817,-7.711 -1.02706,4.6217 -5.34177,1.7085 -4.18633,-0.4427 1.50384,-2.7998 4.62265,-3.4222 7.16515,-1.0916 7.20227,7.7109 3.22351,19.2389 -8.38537,19.9208 -9.81928,0.5768 -15.57276,-5.2913 -17.20734,-12.6201 -3.96347,-17.7707 6.70698,-30.8938 23.78818,-29.0404 9.53708,1.0348 19.07106,3.1781 30.08857,13.1363 11.01751,9.9581 19.91403,17.2966 29.97536,25.7848 9.33601,7.8763 20.16234,15.758 47.81982,13.3851 17.33332,-1.4871 30.0028,-21.3161 27.68171,-35.4471 -2.70479,-16.467 -11.20773,-23.0134 -19.3546,-26.0337 -25.26096,-9.365 -30.95284,4.1823 -44.04657,14.1352 -6.13993,4.6671 -16.54974,1.3452 -16.33786,-4.5873 0.21187,-5.9325 -0.12342,-9.1187 0,-11.8785 0.33687,-7.533 -7.32594,-7.4512 -7.62751,-0.6356 z"
           inkscape:connector-curvature="0" />
        <path
           style="fill:#000000;stroke:none"
           id="path5492"
           d="m 101.78125,945.4375 c -7.444687,2.04491 -9.976696,12.89029 -9.8125,19.4375 0.122839,4.89814 3.107374,28.07077 4.25,37.375 1.142625,9.3042 2.9375,21.0468 2.9375,28.7188 0,7.6719 0.65625,22.2216 0.65625,24.3437 0,2.122 0.6629,2.5937 1.96875,2.5937 1.30585,0 1.96875,-0.4717 1.96875,-2.5937 0,-2.1221 0.65625,-16.6718 0.65625,-24.3437 0,-7.672 1.79487,-19.4146 2.9375,-28.7188 1.14263,-9.30423 4.12716,-32.47686 4.25,-37.375 0.1642,-6.54721 -2.36781,-17.39259 -9.8125,-19.4375 z m -31.9375,15.4375 c -0.674951,0.0228 -1.340788,0.12461 -2.03125,0.3125 -5.523693,1.50315 -8.754584,7.60793 -7.0625,13.59375 2.66043,9.41139 14.038472,16.39904 18.03125,25.87495 4.85563,11.5239 11.447116,19.2283 16.71875,57.8438 0.205545,1.5057 1.732884,1.817 1.65625,-1.125 -1.072874,-41.1875 -4.610489,-49.5999 -5.8125,-58.125 C 89.669439,987.37518 85.505361,975.00212 81.75,969 c -2.886931,-4.61413 -7.181596,-8.28479 -11.90625,-8.125 z m 63,0 c -4.37539,0.28851 -8.32475,3.79925 -11.03125,8.125 -3.75536,6.00212 -7.91944,18.37518 -9.59375,30.25 -1.20201,8.5251 -4.73963,16.9375 -5.8125,58.125 -0.0766,2.942 1.45071,2.6307 1.65625,1.125 5.27163,-38.6155 11.86312,-46.3199 16.71875,-57.8438 3.99278,-9.47591 15.37082,-16.46356 18.03125,-25.87495 1.69208,-5.98582 -1.53881,-12.0906 -7.0625,-13.59375 -0.69046,-0.18789 -1.3563,-0.2897 -2.03125,-0.3125 -0.29529,-0.01 -0.58331,-0.0192 -0.875,0 z M 56.0625,986.53125 c -4.236479,0.13781 -8.087117,2.669 -9.5625,6.71875 -1.967163,5.39963 1.031865,11.4594 6.71875,13.5312 3.609562,1.3152 15.490816,7.471 19.78125,12.6563 5.733908,6.9298 13.401934,17.7726 18.34375,41.1875 0.540673,2.5616 1.860722,2.7205 1.5,0.094 -3.768376,-27.4421 -10.148098,-42.8665 -12.875,-49 -4.488562,-10.0961 -13.938114,-22.39698 -19.625,-24.4688 -1.421721,-0.51795 -2.86909,-0.76469 -4.28125,-0.71875 z m 91.4375,0 c -1.41216,-0.0459 -2.85953,0.2008 -4.28125,0.71875 -5.68689,2.07182 -15.13644,14.3727 -19.625,24.4688 -2.7269,6.1335 -9.10662,21.5579 -12.875,49 -0.36072,2.6267 0.95933,2.4678 1.5,-0.094 4.94182,-23.4149 12.60984,-34.2577 18.34375,-41.1875 4.29043,-5.1853 16.17169,-11.3411 19.78125,-12.6563 5.68689,-2.0718 8.68591,-8.13157 6.71875,-13.5312 -1.47538,-4.04975 -5.32602,-6.58094 -9.5625,-6.71875 z M 51.15625,1013.625 c -4.279734,0.014 -7.976077,2.2249 -9.09375,5.7188 -1.4902,4.6583 2.125204,9.9969 8.09375,11.9062 3.037181,0.9716 17.28362,2.7746 23.15625,8.6562 1.400624,1.4029 6.826089,5.4684 15.4375,24 1.053601,2.2673 2.017744,0.6763 1.6875,-0.2187 -8.349152,-22.6304 -13.308608,-30.846 -14.25,-32.4375 -3.969161,-6.7103 -15.17116,-14.943 -20.625,-16.875 -1.47671,-0.5231 -2.979672,-0.7546 -4.40625,-0.75 z m 101.25,0 c -1.42658,0 -2.92954,0.2269 -4.40625,0.75 -5.45384,1.932 -16.65584,10.1647 -20.625,16.875 -0.94139,1.5915 -5.90085,9.8071 -14.25,32.4375 -0.33024,0.895 0.6339,2.486 1.6875,0.2187 8.61141,-18.5316 14.03688,-22.5971 15.4375,-24 5.87263,-5.8816 20.11907,-7.6846 23.15625,-8.6562 5.96855,-1.9093 9.58395,-7.2479 8.09375,-11.9062 -1.11767,-3.4939 -4.81402,-5.7048 -9.09375,-5.7188 z m -95.4375,24.625 c -5.514243,0 -9.96875,3.4482 -9.96875,7.7188 0,4.2702 4.454507,7.75 9.96875,7.75 1.96021,0 3.684665,-0.7428 5.34375,-1.1876 9.117942,-2.4429 18.844504,10.012 23.625,15.1563 1.679983,1.8079 2.95393,-0.2705 2.375,-1.0937 -0.840696,-1.1957 -8.108686,-10.268 -14.5,-18.5313 -2.376644,-3.0728 -8.86508,-9.8125 -16.84375,-9.8125 z m 89.625,0 c -7.97867,0 -14.46711,6.7397 -16.84375,9.8125 -6.39131,8.2633 -13.6593,17.3356 -14.5,18.5313 -0.57893,0.8232 0.69502,2.9016 2.375,1.0937 4.7805,-5.1443 14.50706,-17.5992 23.625,-15.1563 1.65908,0.4448 3.38354,1.1876 5.34375,1.1876 5.51424,0 9.96875,-3.4798 9.96875,-7.75 0,-4.2706 -4.45451,-7.7188 -9.96875,-7.7188 z M 63,1056.875 c -4.353351,0 -7.90625,3.1128 -7.90625,6.9688 0,3.8558 3.552919,7.0134 7.90625,7 3.303302,-0.01 6.93965,-2.3334 10.5625,-2.0938 1.130939,0.075 5.144561,0.1823 8.875,3.25 2.455591,2.0193 4.651181,0.072 2,-2.0625 -4.563231,-4.2272 -9.384146,-7.3392 -16.78125,-11.7187 -1.339249,-0.7929 -2.913583,-1.3438 -4.65625,-1.3438 z m 77.5625,0 c -1.74267,0 -3.317,0.5509 -4.65625,1.3438 -7.3971,4.3795 -12.21802,7.4915 -16.78125,11.7187 -2.65118,2.1345 -0.45559,4.0818 2,2.0625 3.73044,-3.0677 7.74406,-3.175 8.875,-3.25 3.62285,-0.2396 7.2592,2.0838 10.5625,2.0938 4.35333,0.013 7.90625,-3.1442 7.90625,-7 0,-3.856 -3.5529,-6.9688 -7.90625,-6.9688 z m -38.78125,3.75 c -6.558852,3.7626 -11.137655,9.0603 -14.09375,15.625 8.845423,5.4229 11.009036,14.8392 14.09375,23.7188 3.08471,-8.8796 5.24833,-18.2959 14.09375,-23.7188 -2.9561,-6.5647 -7.5349,-11.8624 -14.09375,-15.625 z m 0,54.1875 c -1.50142,8.5581 -9.4375,16.8928 -9.4375,16.8928 1.784877,3.7204 5.198691,6.9472 9.4375,8.25 4.23881,-1.3028 7.65262,-4.5296 9.4375,-8.25 0,0 -7.93608,-8.3347 -9.4375,-16.8928 z"
           inkscape:connector-curvature="0" />
        <path
           style="fill:#000000;stroke:none"
           id="path5494"
           d="m 11.475307,943.53125 c -3.9021979,5.41972 -6.0860349,7.59401 -8.6874999,14.53125 -2.60146502,6.93724 -2.73032402,24.30378 -1.5,36.625 1.772054,17.7464 3.03125,49.2306 3.03125,54 0,6.07 -2.014608,6.0625 -2.375,-0.4375 -1.17766302,-21.2404 -1.73640102,-40.9731 -3.6875,-51.8125 -1.951099,-10.83944 -7.25208,-32.35266 -18.4375001,-43.375 -5.725374,-5.6419 -13.238336,-8.8893 -22.34375,-9.09375 -6.300448,-0.14147 -18.989341,2.57708 -14.28125,18.21875 3.251832,-6.07009 13.073695,-5.77036 19.28125,-3.6875 8.585545,2.88076 11.281509,7.5825 18.21875,20.15625 6.93724,12.57375 7.35944,28.39485 9.09375,37.49995 1.7343101,9.1051 1.9687501,31.8791 1.9687501,35.7813 0,3.9022 1.939591,7.1603 5.625,11.0625 3.685409,3.9022 6.080151,3.6562 8.03125,3.6562 1.951099,0 3.98073,-1.5 6.0624999,-1.5 2.08177,0 4.111401,1.5 6.0625,1.5 1.951099,0 4.345841,0.246 8.03125,-3.6562 3.685409,-3.9022 5.625,-7.1603 5.625,-11.0625 0,-3.9022 0.23444,-26.6762 1.96875,-35.7813 1.73431,-9.1051 2.15651,-24.9262 9.09375,-37.49995 6.937241,-12.57375 9.633205,-17.27549 18.21875,-20.15625 6.207555,-2.08286 16.029418,-2.38259 19.28125,3.6875 4.708091,-15.64167 -8.012052,-18.36022 -14.3125,-18.21875 -9.105414,0.20445 -16.587126,3.45185 -22.3125,9.09375 -11.18542,11.02234 -16.486401,32.53556 -18.4375,43.375 -1.951099,10.8394 -2.509837,30.5721 -3.6875,51.8125 -0.360392,6.5 -2.375,6.5075 -2.375,0.4375 0,-4.7694 1.259196,-36.2536 3.03125,-54 1.230324,-12.32122 1.070215,-29.68776 -1.53125,-36.625 -2.601465,-6.93724 -4.754052,-9.11153 -8.65625,-14.53125 z"
           inkscape:connector-curvature="0" />
        <path
           style="fill:#000000;stroke:none"
           id="use5496"
           d="m 193.09584,943.53125 c -3.9022,5.41972 -6.08604,7.59401 -8.6875,14.53125 -2.60147,6.93724 -2.73033,24.30378 -1.5,36.625 1.77205,17.7464 3.03125,49.2306 3.03125,54 0,6.07 -2.01461,6.0625 -2.375,-0.4375 -1.17767,-21.2404 -1.7364,-40.9731 -3.6875,-51.8125 -1.9511,-10.83944 -7.25208,-32.35266 -18.4375,-43.375 -5.72538,-5.6419 -13.23834,-8.8893 -22.34375,-9.09375 -6.30045,-0.14147 -18.98934,2.57708 -14.28125,18.21875 3.25183,-6.07009 13.07369,-5.77036 19.28125,-3.6875 8.58554,2.88076 11.28151,7.5825 18.21875,20.15625 6.93724,12.57375 7.35944,28.39485 9.09375,37.49995 1.73431,9.1051 1.96875,31.8791 1.96875,35.7813 0,3.9022 1.93959,7.1603 5.625,11.0625 3.68541,3.9022 6.08015,3.6562 8.03125,3.6562 1.9511,0 3.98073,-1.5 6.0625,-1.5 2.08177,0 4.1114,1.5 6.0625,1.5 1.9511,0 4.34584,0.246 8.03125,-3.6562 3.68541,-3.9022 5.625,-7.1603 5.625,-11.0625 0,-3.9022 0.23444,-26.6762 1.96875,-35.7813 1.73431,-9.1051 2.15651,-24.9262 9.09375,-37.49995 6.93724,-12.57375 9.6332,-17.27549 18.21875,-20.15625 6.20755,-2.08286 16.02942,-2.38259 19.28125,3.6875 4.70809,-15.64167 -8.01206,-18.36022 -14.3125,-18.21875 -9.10542,0.20445 -16.58713,3.45185 -22.3125,9.09375 -11.18542,11.02234 -16.4864,32.53556 -18.4375,43.375 -1.9511,10.8394 -2.50984,30.5721 -3.6875,51.8125 -0.3604,6.5 -2.375,6.5075 -2.375,0.4375 0,-4.7694 1.25919,-36.2536 3.03125,-54 1.23032,-12.32122 1.07021,-29.68776 -1.53125,-36.625 -2.60147,-6.93724 -4.75405,-9.11153 -8.65625,-14.53125 z"
           inkscape:connector-curvature="0" />
        <path
           style="fill:#000000;stroke:none"
           id="use5498"
           d="m 281.55791,945.4375 c -7.44469,2.04491 -9.9767,12.89029 -9.8125,19.4375 0.12284,4.89814 3.10737,28.07077 4.25,37.375 1.14262,9.3042 2.9375,21.0468 2.9375,28.7188 0,7.6719 0.65625,22.2216 0.65625,24.3437 0,2.122 0.6629,2.5937 1.96875,2.5937 1.30585,0 1.96875,-0.4717 1.96875,-2.5937 0,-2.1221 0.65625,-16.6718 0.65625,-24.3437 0,-7.672 1.79487,-19.4146 2.9375,-28.7188 1.14263,-9.30423 4.12716,-32.47686 4.25,-37.375 0.1642,-6.54721 -2.36781,-17.39259 -9.8125,-19.4375 z m -31.9375,15.4375 c -0.67495,0.0228 -1.34079,0.12461 -2.03125,0.3125 -5.52369,1.50315 -8.75458,7.60793 -7.0625,13.59375 2.66043,9.41139 14.03847,16.39904 18.03125,25.87495 4.85563,11.5239 11.44712,19.2283 16.71875,57.8438 0.20555,1.5057 1.73288,1.817 1.65625,-1.125 -1.07287,-41.1875 -4.61049,-49.5999 -5.8125,-58.125 -1.67431,-11.87482 -5.83839,-24.24788 -9.59375,-30.25 -2.88693,-4.61413 -7.1816,-8.28479 -11.90625,-8.125 z m 63,0 c -4.37539,0.28851 -8.32475,3.79925 -11.03125,8.125 -3.75536,6.00212 -7.91944,18.37518 -9.59375,30.25 -1.20201,8.5251 -4.73963,16.9375 -5.8125,58.125 -0.0766,2.942 1.45071,2.6307 1.65625,1.125 5.27163,-38.6155 11.86312,-46.3199 16.71875,-57.8438 3.99278,-9.47591 15.37082,-16.46356 18.03125,-25.87495 1.69208,-5.98582 -1.53881,-12.0906 -7.0625,-13.59375 -0.69046,-0.18789 -1.3563,-0.2897 -2.03125,-0.3125 -0.29529,-0.01 -0.58331,-0.0192 -0.875,0 z m -76.78125,25.65625 c -4.23648,0.13781 -8.08712,2.669 -9.5625,6.71875 -1.96716,5.39963 1.03186,11.4594 6.71875,13.5312 3.60956,1.3152 15.49082,7.471 19.78125,12.6563 5.73391,6.9298 13.40193,17.7726 18.34375,41.1875 0.54067,2.5616 1.86072,2.7205 1.5,0.094 -3.76838,-27.4421 -10.1481,-42.8665 -12.875,-49 -4.48856,-10.0961 -13.93811,-22.39698 -19.625,-24.4688 -1.42172,-0.51795 -2.86909,-0.76469 -4.28125,-0.71875 z m 91.4375,0 c -1.41216,-0.0459 -2.85953,0.2008 -4.28125,0.71875 -5.68689,2.07182 -15.13644,14.3727 -19.625,24.4688 -2.7269,6.1335 -9.10662,21.5579 -12.875,49 -0.36072,2.6267 0.95933,2.4678 1.5,-0.094 4.94182,-23.4149 12.60984,-34.2577 18.34375,-41.1875 4.29043,-5.1853 16.17169,-11.3411 19.78125,-12.6563 5.68689,-2.0718 8.68591,-8.13157 6.71875,-13.5312 -1.47538,-4.04975 -5.32602,-6.58094 -9.5625,-6.71875 z m -96.34375,27.09375 c -4.27973,0.014 -7.97608,2.2249 -9.09375,5.7188 -1.4902,4.6583 2.1252,9.9969 8.09375,11.9062 3.03718,0.9716 17.28362,2.7746 23.15625,8.6562 1.40062,1.4029 6.82609,5.4684 15.4375,24 1.0536,2.2673 2.01774,0.6763 1.6875,-0.2187 -8.34915,-22.6304 -13.30861,-30.846 -14.25,-32.4375 -3.96916,-6.7103 -15.17116,-14.943 -20.625,-16.875 -1.47671,-0.5231 -2.97967,-0.7546 -4.40625,-0.75 z m 101.25,0 c -1.42658,0 -2.92954,0.2269 -4.40625,0.75 -5.45384,1.932 -16.65584,10.1647 -20.625,16.875 -0.94139,1.5915 -5.90085,9.8071 -14.25,32.4375 -0.33024,0.895 0.6339,2.486 1.6875,0.2187 8.61141,-18.5316 14.03688,-22.5971 15.4375,-24 5.87263,-5.8816 20.11907,-7.6846 23.15625,-8.6562 5.96855,-1.9093 9.58395,-7.2479 8.09375,-11.9062 -1.11767,-3.4939 -4.81402,-5.7048 -9.09375,-5.7188 z m -95.4375,24.625 c -5.51424,0 -9.96875,3.4482 -9.96875,7.7188 0,4.2702 4.45451,7.75 9.96875,7.75 1.96021,0 3.68466,-0.7428 5.34375,-1.1876 9.11794,-2.4429 18.8445,10.012 23.625,15.1563 1.67998,1.8079 2.95393,-0.2705 2.375,-1.0937 -0.8407,-1.1957 -8.10869,-10.268 -14.5,-18.5313 -2.37664,-3.0728 -8.86508,-9.8125 -16.84375,-9.8125 z m 89.625,0 c -7.97867,0 -14.46711,6.7397 -16.84375,9.8125 -6.39131,8.2633 -13.6593,17.3356 -14.5,18.5313 -0.57893,0.8232 0.69502,2.9016 2.375,1.0937 4.7805,-5.1443 14.50706,-17.5992 23.625,-15.1563 1.65908,0.4448 3.38354,1.1876 5.34375,1.1876 5.51424,0 9.96875,-3.4798 9.96875,-7.75 0,-4.2706 -4.45451,-7.7188 -9.96875,-7.7188 z m -83.59375,18.625 c -4.35335,0 -7.90625,3.1128 -7.90625,6.9688 0,3.8558 3.55292,7.0134 7.90625,7 3.3033,-0.01 6.93965,-2.3334 10.5625,-2.0938 1.13094,0.075 5.14456,0.1823 8.875,3.25 2.45559,2.0193 4.65118,0.072 2,-2.0625 -4.56323,-4.2272 -9.38415,-7.3392 -16.78125,-11.7187 -1.33925,-0.7929 -2.91358,-1.3438 -4.65625,-1.3438 z m 77.5625,0 c -1.74267,0 -3.317,0.5509 -4.65625,1.3438 -7.3971,4.3795 -12.21802,7.4915 -16.78125,11.7187 -2.65118,2.1345 -0.45559,4.0818 2,2.0625 3.73044,-3.0677 7.74406,-3.175 8.875,-3.25 3.62285,-0.2396 7.2592,2.0838 10.5625,2.0938 4.35333,0.013 7.90625,-3.1442 7.90625,-7 0,-3.856 -3.5529,-6.9688 -7.90625,-6.9688 z m -38.78125,3.75 c -6.55885,3.7626 -11.13766,9.0603 -14.09375,15.625 8.84542,5.4229 11.00904,14.8392 14.09375,23.7188 3.08471,-8.8796 5.24833,-18.2959 14.09375,-23.7188 -2.9561,-6.5647 -7.5349,-11.8624 -14.09375,-15.625 z m 0,54.1875 c -1.50142,8.5581 -9.4375,16.8928 -9.4375,16.8928 1.78488,3.7204 5.19869,6.9472 9.4375,8.25 4.23881,-1.3028 7.65262,-4.5296 9.4375,-8.25 0,0 -7.93608,-8.3347 -9.4375,-16.8928 z"
           inkscape:connector-curvature="0" />
        <path
           inkscape:connector-curvature="0"
           d="m -76.093,945.4375 c -7.44469,2.04491 -9.9767,12.89029 -9.8125,19.4375 0.12284,4.89814 3.10737,28.07077 4.25,37.375 1.14262,9.3042 2.9375,21.0468 2.9375,28.7188 0,7.6719 0.65625,22.2216 0.65625,24.3437 0,2.122 0.6629,2.5937 1.96875,2.5937 1.30585,0 1.96875,-0.4717 1.96875,-2.5937 0,-2.1221 0.65625,-16.6718 0.65625,-24.3437 0,-7.672 1.79487,-19.4146 2.9375,-28.7188 1.14263,-9.30423 4.12716,-32.47686 4.25,-37.375 0.1642,-6.54721 -2.36781,-17.39259 -9.8125,-19.4375 z m -31.9375,15.4375 c -0.67495,0.0228 -1.34079,0.12461 -2.03125,0.3125 -5.52369,1.50315 -8.75458,7.60793 -7.0625,13.59375 2.66043,9.41139 14.03847,16.39904 18.03125,25.87495 4.85563,11.5239 11.44712,19.2283 16.71875,57.8438 0.20555,1.5057 1.73288,1.817 1.65625,-1.125 -1.07287,-41.1875 -4.61049,-49.5999 -5.8125,-58.125 -1.67431,-11.87482 -5.83839,-24.24788 -9.59375,-30.25 -2.88693,-4.61413 -7.1816,-8.28479 -11.90625,-8.125 z m 63,0 c -4.37539,0.28851 -8.32475,3.79925 -11.03125,8.125 -3.75536,6.00212 -7.91944,18.37518 -9.59375,30.25 -1.20201,8.5251 -4.73963,16.9375 -5.8125,58.125 -0.0766,2.942 1.45071,2.6307 1.65625,1.125 5.27163,-38.6155 11.86312,-46.3199 16.71875,-57.8438 3.99278,-9.47591 15.37082,-16.46356 18.03125,-25.87495 1.69208,-5.98582 -1.53881,-12.0906 -7.0625,-13.59375 -0.69046,-0.18789 -1.3563,-0.2897 -2.03125,-0.3125 -0.29529,-0.01 -0.58331,-0.0192 -0.875,0 z m -76.78125,25.65625 c -4.23648,0.13781 -8.08712,2.669 -9.5625,6.71875 -1.96716,5.39963 1.03186,11.4594 6.71875,13.5312 3.60956,1.3152 15.49082,7.471 19.78125,12.6563 5.73391,6.9298 13.40193,17.7726 18.34375,41.1875 0.54067,2.5616 1.86072,2.7205 1.5,0.094 -3.76838,-27.4421 -10.1481,-42.8665 -12.875,-49 -4.48856,-10.0961 -13.93811,-22.39698 -19.625,-24.4688 -1.42172,-0.51795 -2.86909,-0.76469 -4.28125,-0.71875 z m 91.4375,0 c -1.41216,-0.0459 -2.85953,0.2008 -4.28125,0.71875 -5.68689,2.07182 -15.13644,14.3727 -19.625,24.4688 -2.7269,6.1335 -9.10662,21.5579 -12.875,49 -0.36072,2.6267 0.95933,2.4678 1.5,-0.094 4.94182,-23.4149 12.60984,-34.2577 18.34375,-41.1875 4.29043,-5.1853 16.17169,-11.3411 19.78125,-12.6563 5.68689,-2.0718 8.68591,-8.13157 6.71875,-13.5312 -1.47538,-4.04975 -5.32602,-6.58094 -9.5625,-6.71875 z M -126.718,1013.625 c -4.27973,0.014 -7.97608,2.2249 -9.09375,5.7188 -1.4902,4.6583 2.1252,9.9969 8.09375,11.9062 3.03718,0.9716 17.28362,2.7746 23.15625,8.6562 1.40062,1.4029 6.82609,5.4684 15.4375,24 1.0536,2.2673 2.01774,0.6763 1.6875,-0.2187 -8.34915,-22.6304 -13.30861,-30.846 -14.25,-32.4375 -3.96916,-6.7103 -15.17116,-14.943 -20.625,-16.875 -1.47671,-0.5231 -2.97967,-0.7546 -4.40625,-0.75 z m 101.25,0 c -1.42658,0 -2.92954,0.2269 -4.40625,0.75 -5.45384,1.932 -16.65584,10.1647 -20.625,16.875 -0.94139,1.5915 -5.90085,9.8071 -14.25,32.4375 -0.33024,0.895 0.6339,2.486 1.6875,0.2187 8.61141,-18.5316 14.03688,-22.5971 15.4375,-24 5.87263,-5.8816 20.11907,-7.6846 23.15625,-8.6562 5.96855,-1.9093 9.58395,-7.2479 8.09375,-11.9062 -1.11767,-3.4939 -4.81402,-5.7048 -9.09375,-5.7188 z m -95.4375,24.625 c -5.51424,0 -9.96875,3.4482 -9.96875,7.7188 0,4.2702 4.45451,7.75 9.96875,7.75 1.96021,0 3.68466,-0.7428 5.34375,-1.1876 9.11794,-2.4429 18.8445,10.012 23.625,15.1563 1.67998,1.8079 2.95393,-0.2705 2.375,-1.0937 -0.8407,-1.1957 -8.10869,-10.268 -14.5,-18.5313 -2.37664,-3.0728 -8.86508,-9.8125 -16.84375,-9.8125 z m 89.625,0 c -7.97867,0 -14.46711,6.7397 -16.84375,9.8125 -6.39131,8.2633 -13.6593,17.3356 -14.5,18.5313 -0.57893,0.8232 0.69502,2.9016 2.375,1.0937 4.7805,-5.1443 14.50706,-17.5992 23.625,-15.1563 1.65908,0.4448 3.38354,1.1876 5.34375,1.1876 5.51424,0 9.96875,-3.4798 9.96875,-7.75 0,-4.2706 -4.45451,-7.7188 -9.96875,-7.7188 z m -83.59375,18.625 c -4.35335,0 -7.90625,3.1128 -7.90625,6.9688 0,3.8558 3.55292,7.0134 7.90625,7 3.3033,-0.01 6.93965,-2.3334 10.5625,-2.0938 1.13094,0.075 5.14456,0.1823 8.875,3.25 2.45559,2.0193 4.65118,0.072 2,-2.0625 -4.56323,-4.2272 -9.38415,-7.3392 -16.78125,-11.7187 -1.33925,-0.7929 -2.91358,-1.3438 -4.65625,-1.3438 z m 77.5625,0 c -1.74267,0 -3.317,0.5509 -4.65625,1.3438 -7.3971,4.3795 -12.21802,7.4915 -16.78125,11.7187 -2.65118,2.1345 -0.45559,4.0818 2,2.0625 3.73044,-3.0677 7.74406,-3.175 8.875,-3.25 3.62285,-0.2396 7.2592,2.0838 10.5625,2.0938 4.35333,0.013 7.90625,-3.1442 7.90625,-7 0,-3.856 -3.5529,-6.9688 -7.90625,-6.9688 z m -38.78125,3.75 c -6.55885,3.7626 -11.13766,9.0603 -14.09375,15.625 8.84542,5.4229 11.00904,14.8392 14.09375,23.7188 3.08471,-8.8796 5.24833,-18.2959 14.09375,-23.7188 -2.9561,-6.5647 -7.5349,-11.8624 -14.09375,-15.625 z m 0,54.1875 c -1.50142,8.5581 -9.4375,16.8928 -9.4375,16.8928 1.78488,3.7204 5.19869,6.9472 9.4375,8.25 4.23881,-1.3028 7.65262,-4.5296 9.4375,-8.25 0,0 -7.93608,-8.3347 -9.4375,-16.8928 z"
           id="use5500"
           style="fill:#000000;stroke:none" />
      </g>
    </g>
    <g
       transform="matrix(0,0.64171229,0.18316602,0,13.962107,3740.2077)"
       clip-path="url(#clipPath3022)"
       id="g5518">
      <g
         transform="translate(76.09375,-943.53125)"
         id="g5520">
        <path
           inkscape:connector-curvature="0"
           d="m 15.04314,1073.2739 c 0.20301,4.588 0.423751,7.4156 0.211876,15.0431 -0.211876,7.6275 -8.2631339,12.2888 -13.5600143,12.9244 -5.2968804,0.6356 -13.3481387,-1.2713 -14.1956397,-1.4831 -0.847501,-0.2119 -1.969097,0.5236 -2.542502,2.1187 -4.433193,12.332 -10.934862,15.4222 -19.280645,16.1025 -4.985892,0.4064 -10.748812,-3.516 -12.924388,-7.6275 -3.744683,-7.0768 0.386269,-16.2223 7.25493,-16.9887 4.838118,-0.5399 8.664525,2.2552 8.43012,7.3008 -0.202828,4.3659 -5.085005,6.0339 -5.983679,2.0541 -5.362419,5.5123 3.254856,8.3691 6.401145,6.3626 8.209746,-5.2357 6.395647,-16.0639 1.572904,-21.4057 -9.90411,-7.7813 -24.885073,-2.3836 -28.773164,7.9408 -6.600698,17.5274 5.350381,29.7816 18.153605,31.2254 19.051731,1.0594 33.8695052,-8.7273 41.7628892,-14.8683 17.8817448,-13.9119 34.9433878,-32.5422 57.7095948,-36.5487 8.992714,-1.4764 19.139527,-1.3079 26.459264,5.015 15.166844,13.1014 17.813904,33.4386 5.753684,46.2541 -9.986212,10.6116 -24.645773,13.9446 -36.617439,6.3932 -17.004834,-10.7261 -28.565772,-9.7842 -27.755653,1.695 -22.1002855,-5.7753 -8.603629,-19.3769 2.491734,-19.6812 12.124779,-0.3325 16.132332,4.1374 20.206581,7.9511 1.65586,1.55 2.430969,1.285 1.472438,-0.2059 -5.940526,-9.8274 -4.541444,-18.9434 4.149601,-24.8081 13.611385,-9.185 26.895249,5.127 21.448061,15.4704 -2.443474,4.6398 -10.73618,6.0777 -13.050261,2.8918 -1.483127,-2.5425 -2.503,-5.2718 0.578168,-7.711 1.027056,4.6217 5.341769,1.7085 4.186331,-0.4427 -1.50384,-2.7998 -4.62265,-3.4222 -7.165153,-1.0916 -7.202272,7.7109 -3.223512,19.2389 8.38537,19.9208 9.819279,0.5768 15.572759,-5.2913 17.20734,-12.6201 3.963475,-17.7707 -6.706976,-30.8938 -23.788179,-29.0404 -9.537084,1.0348 -19.07106,3.1781 -30.088571,13.1363 -11.017511,9.9581 -19.914024,17.2966 -29.9753598,25.7848 -9.3360126,7.8763 -20.1623392,15.758 -47.8198182,13.3851 -17.333323,-1.4871 -30.002798,-21.3161 -27.681706,-35.4471 2.704788,-16.467 11.20773,-23.0134 19.354592,-26.0337 25.260965,-9.365 30.952847,4.1823 44.0465743,14.1352 6.1399272,4.6671 16.5497375,1.3452 16.3378623,-4.5873 -0.2118752,-5.9325 0.1234145,-9.1187 0,-11.8785 -0.336869,-7.533 7.3259354,-7.4512 7.6275074,-0.6356 z"
           id="path5522"
           style="fill:#000000;stroke:none" />
        <path
           inkscape:connector-curvature="0"
           d="m 188.96662,1073.2739 c -0.20301,4.588 -0.42375,7.4156 -0.21188,15.0431 0.21188,7.6275 8.26314,12.2888 13.56002,12.9244 5.29688,0.6356 13.34814,-1.2713 14.19564,-1.4831 0.8475,-0.2119 1.96909,0.5236 2.5425,2.1187 4.43319,12.332 10.93486,15.4222 19.28065,16.1025 4.98589,0.4064 10.74881,-3.516 12.92438,-7.6275 3.74469,-7.0768 -0.38627,-16.2223 -7.25493,-16.9887 -4.83812,-0.5399 -8.66452,2.2552 -8.43012,7.3008 0.20283,4.3659 5.08501,6.0339 5.98368,2.0541 5.36242,5.5123 -3.25485,8.3691 -6.40114,6.3626 -8.20975,-5.2357 -6.39565,-16.0639 -1.57291,-21.4057 9.90411,-7.7813 24.88508,-2.3836 28.77317,7.9408 6.60069,17.5274 -5.35038,29.7816 -18.15361,31.2254 -19.05173,1.0594 -33.8695,-8.7273 -41.76289,-14.8683 -17.88174,-13.9119 -34.94339,-32.5422 -57.70959,-36.5487 -8.99272,-1.4764 -19.13953,-1.3079 -26.45927,5.015 -15.16684,13.1014 -17.8139,33.4386 -5.75368,46.2541 9.98621,10.6116 24.64577,13.9446 36.61744,6.3932 17.00483,-10.7261 28.56577,-9.7842 27.75565,1.695 22.10029,-5.7753 8.60363,-19.3769 -2.49173,-19.6812 -12.12478,-0.3325 -16.13233,4.1374 -20.20658,7.9511 -1.65586,1.55 -2.43097,1.285 -1.47244,-0.2059 5.94052,-9.8274 4.54144,-18.9434 -4.1496,-24.8081 -13.61139,-9.185 -26.89525,5.127 -21.44806,15.4704 2.44347,4.6398 10.73618,6.0777 13.05026,2.8918 1.48312,-2.5425 2.503,-5.2718 -0.57817,-7.711 -1.02706,4.6217 -5.34177,1.7085 -4.18633,-0.4427 1.50384,-2.7998 4.62265,-3.4222 7.16515,-1.0916 7.20227,7.7109 3.22351,19.2389 -8.38537,19.9208 -9.81928,0.5768 -15.57276,-5.2913 -17.20734,-12.6201 -3.96347,-17.7707 6.70698,-30.8938 23.78818,-29.0404 9.53708,1.0348 19.07106,3.1781 30.08857,13.1363 11.01751,9.9581 19.91403,17.2966 29.97536,25.7848 9.33601,7.8763 20.16234,15.758 47.81982,13.3851 17.33332,-1.4871 30.0028,-21.3161 27.68171,-35.4471 -2.70479,-16.467 -11.20773,-23.0134 -19.3546,-26.0337 -25.26096,-9.365 -30.95284,4.1823 -44.04657,14.1352 -6.13993,4.6671 -16.54974,1.3452 -16.33786,-4.5873 0.21187,-5.9325 -0.12342,-9.1187 0,-11.8785 0.33687,-7.533 -7.32594,-7.4512 -7.62751,-0.6356 z"
           id="path5524"
           style="fill:#000000;stroke:none" />
        <path
           inkscape:connector-curvature="0"
           d="m 101.78125,945.4375 c -7.444687,2.04491 -9.976696,12.89029 -9.8125,19.4375 0.122839,4.89814 3.107374,28.07077 4.25,37.375 1.142625,9.3042 2.9375,21.0468 2.9375,28.7188 0,7.6719 0.65625,22.2216 0.65625,24.3437 0,2.122 0.6629,2.5937 1.96875,2.5937 1.30585,0 1.96875,-0.4717 1.96875,-2.5937 0,-2.1221 0.65625,-16.6718 0.65625,-24.3437 0,-7.672 1.79487,-19.4146 2.9375,-28.7188 1.14263,-9.30423 4.12716,-32.47686 4.25,-37.375 0.1642,-6.54721 -2.36781,-17.39259 -9.8125,-19.4375 z m -31.9375,15.4375 c -0.674951,0.0228 -1.340788,0.12461 -2.03125,0.3125 -5.523693,1.50315 -8.754584,7.60793 -7.0625,13.59375 2.66043,9.41139 14.038472,16.39904 18.03125,25.87495 4.85563,11.5239 11.447116,19.2283 16.71875,57.8438 0.205545,1.5057 1.732884,1.817 1.65625,-1.125 -1.072874,-41.1875 -4.610489,-49.5999 -5.8125,-58.125 C 89.669439,987.37518 85.505361,975.00212 81.75,969 c -2.886931,-4.61413 -7.181596,-8.28479 -11.90625,-8.125 z m 63,0 c -4.37539,0.28851 -8.32475,3.79925 -11.03125,8.125 -3.75536,6.00212 -7.91944,18.37518 -9.59375,30.25 -1.20201,8.5251 -4.73963,16.9375 -5.8125,58.125 -0.0766,2.942 1.45071,2.6307 1.65625,1.125 5.27163,-38.6155 11.86312,-46.3199 16.71875,-57.8438 3.99278,-9.47591 15.37082,-16.46356 18.03125,-25.87495 1.69208,-5.98582 -1.53881,-12.0906 -7.0625,-13.59375 -0.69046,-0.18789 -1.3563,-0.2897 -2.03125,-0.3125 -0.29529,-0.01 -0.58331,-0.0192 -0.875,0 z M 56.0625,986.53125 c -4.236479,0.13781 -8.087117,2.669 -9.5625,6.71875 -1.967163,5.39963 1.031865,11.4594 6.71875,13.5312 3.609562,1.3152 15.490816,7.471 19.78125,12.6563 5.733908,6.9298 13.401934,17.7726 18.34375,41.1875 0.540673,2.5616 1.860722,2.7205 1.5,0.094 -3.768376,-27.4421 -10.148098,-42.8665 -12.875,-49 -4.488562,-10.0961 -13.938114,-22.39698 -19.625,-24.4688 -1.421721,-0.51795 -2.86909,-0.76469 -4.28125,-0.71875 z m 91.4375,0 c -1.41216,-0.0459 -2.85953,0.2008 -4.28125,0.71875 -5.68689,2.07182 -15.13644,14.3727 -19.625,24.4688 -2.7269,6.1335 -9.10662,21.5579 -12.875,49 -0.36072,2.6267 0.95933,2.4678 1.5,-0.094 4.94182,-23.4149 12.60984,-34.2577 18.34375,-41.1875 4.29043,-5.1853 16.17169,-11.3411 19.78125,-12.6563 5.68689,-2.0718 8.68591,-8.13157 6.71875,-13.5312 -1.47538,-4.04975 -5.32602,-6.58094 -9.5625,-6.71875 z M 51.15625,1013.625 c -4.279734,0.014 -7.976077,2.2249 -9.09375,5.7188 -1.4902,4.6583 2.125204,9.9969 8.09375,11.9062 3.037181,0.9716 17.28362,2.7746 23.15625,8.6562 1.400624,1.4029 6.826089,5.4684 15.4375,24 1.053601,2.2673 2.017744,0.6763 1.6875,-0.2187 -8.349152,-22.6304 -13.308608,-30.846 -14.25,-32.4375 -3.969161,-6.7103 -15.17116,-14.943 -20.625,-16.875 -1.47671,-0.5231 -2.979672,-0.7546 -4.40625,-0.75 z m 101.25,0 c -1.42658,0 -2.92954,0.2269 -4.40625,0.75 -5.45384,1.932 -16.65584,10.1647 -20.625,16.875 -0.94139,1.5915 -5.90085,9.8071 -14.25,32.4375 -0.33024,0.895 0.6339,2.486 1.6875,0.2187 8.61141,-18.5316 14.03688,-22.5971 15.4375,-24 5.87263,-5.8816 20.11907,-7.6846 23.15625,-8.6562 5.96855,-1.9093 9.58395,-7.2479 8.09375,-11.9062 -1.11767,-3.4939 -4.81402,-5.7048 -9.09375,-5.7188 z m -95.4375,24.625 c -5.514243,0 -9.96875,3.4482 -9.96875,7.7188 0,4.2702 4.454507,7.75 9.96875,7.75 1.96021,0 3.684665,-0.7428 5.34375,-1.1876 9.117942,-2.4429 18.844504,10.012 23.625,15.1563 1.679983,1.8079 2.95393,-0.2705 2.375,-1.0937 -0.840696,-1.1957 -8.108686,-10.268 -14.5,-18.5313 -2.376644,-3.0728 -8.86508,-9.8125 -16.84375,-9.8125 z m 89.625,0 c -7.97867,0 -14.46711,6.7397 -16.84375,9.8125 -6.39131,8.2633 -13.6593,17.3356 -14.5,18.5313 -0.57893,0.8232 0.69502,2.9016 2.375,1.0937 4.7805,-5.1443 14.50706,-17.5992 23.625,-15.1563 1.65908,0.4448 3.38354,1.1876 5.34375,1.1876 5.51424,0 9.96875,-3.4798 9.96875,-7.75 0,-4.2706 -4.45451,-7.7188 -9.96875,-7.7188 z M 63,1056.875 c -4.353351,0 -7.90625,3.1128 -7.90625,6.9688 0,3.8558 3.552919,7.0134 7.90625,7 3.303302,-0.01 6.93965,-2.3334 10.5625,-2.0938 1.130939,0.075 5.144561,0.1823 8.875,3.25 2.455591,2.0193 4.651181,0.072 2,-2.0625 -4.563231,-4.2272 -9.384146,-7.3392 -16.78125,-11.7187 -1.339249,-0.7929 -2.913583,-1.3438 -4.65625,-1.3438 z m 77.5625,0 c -1.74267,0 -3.317,0.5509 -4.65625,1.3438 -7.3971,4.3795 -12.21802,7.4915 -16.78125,11.7187 -2.65118,2.1345 -0.45559,4.0818 2,2.0625 3.73044,-3.0677 7.74406,-3.175 8.875,-3.25 3.62285,-0.2396 7.2592,2.0838 10.5625,2.0938 4.35333,0.013 7.90625,-3.1442 7.90625,-7 0,-3.856 -3.5529,-6.9688 -7.90625,-6.9688 z m -38.78125,3.75 c -6.558852,3.7626 -11.137655,9.0603 -14.09375,15.625 8.845423,5.4229 11.009036,14.8392 14.09375,23.7188 3.08471,-8.8796 5.24833,-18.2959 14.09375,-23.7188 -2.9561,-6.5647 -7.5349,-11.8624 -14.09375,-15.625 z m 0,54.1875 c -1.50142,8.5581 -9.4375,16.8928 -9.4375,16.8928 1.784877,3.7204 5.198691,6.9472 9.4375,8.25 4.23881,-1.3028 7.65262,-4.5296 9.4375,-8.25 0,0 -7.93608,-8.3347 -9.4375,-16.8928 z"
           id="path5526"
           style="fill:#000000;stroke:none" />
        <path
           inkscape:connector-curvature="0"
           d="m 11.475307,943.53125 c -3.9021979,5.41972 -6.0860349,7.59401 -8.6874999,14.53125 -2.60146502,6.93724 -2.73032402,24.30378 -1.5,36.625 1.772054,17.7464 3.03125,49.2306 3.03125,54 0,6.07 -2.014608,6.0625 -2.375,-0.4375 -1.17766302,-21.2404 -1.73640102,-40.9731 -3.6875,-51.8125 -1.951099,-10.83944 -7.25208,-32.35266 -18.4375001,-43.375 -5.725374,-5.6419 -13.238336,-8.8893 -22.34375,-9.09375 -6.300448,-0.14147 -18.989341,2.57708 -14.28125,18.21875 3.251832,-6.07009 13.073695,-5.77036 19.28125,-3.6875 8.585545,2.88076 11.281509,7.5825 18.21875,20.15625 6.93724,12.57375 7.35944,28.39485 9.09375,37.49995 1.7343101,9.1051 1.9687501,31.8791 1.9687501,35.7813 0,3.9022 1.939591,7.1603 5.625,11.0625 3.685409,3.9022 6.080151,3.6562 8.03125,3.6562 1.951099,0 3.98073,-1.5 6.0624999,-1.5 2.08177,0 4.111401,1.5 6.0625,1.5 1.951099,0 4.345841,0.246 8.03125,-3.6562 3.685409,-3.9022 5.625,-7.1603 5.625,-11.0625 0,-3.9022 0.23444,-26.6762 1.96875,-35.7813 1.73431,-9.1051 2.15651,-24.9262 9.09375,-37.49995 6.937241,-12.57375 9.633205,-17.27549 18.21875,-20.15625 6.207555,-2.08286 16.029418,-2.38259 19.28125,3.6875 4.708091,-15.64167 -8.012052,-18.36022 -14.3125,-18.21875 -9.105414,0.20445 -16.587126,3.45185 -22.3125,9.09375 -11.18542,11.02234 -16.486401,32.53556 -18.4375,43.375 -1.951099,10.8394 -2.509837,30.5721 -3.6875,51.8125 -0.360392,6.5 -2.375,6.5075 -2.375,0.4375 0,-4.7694 1.259196,-36.2536 3.03125,-54 1.230324,-12.32122 1.070215,-29.68776 -1.53125,-36.625 -2.601465,-6.93724 -4.754052,-9.11153 -8.65625,-14.53125 z"
           id="path5528"
           style="fill:#000000;stroke:none" />
        <path
           inkscape:connector-curvature="0"
           d="m 193.09584,943.53125 c -3.9022,5.41972 -6.08604,7.59401 -8.6875,14.53125 -2.60147,6.93724 -2.73033,24.30378 -1.5,36.625 1.77205,17.7464 3.03125,49.2306 3.03125,54 0,6.07 -2.01461,6.0625 -2.375,-0.4375 -1.17767,-21.2404 -1.7364,-40.9731 -3.6875,-51.8125 -1.9511,-10.83944 -7.25208,-32.35266 -18.4375,-43.375 -5.72538,-5.6419 -13.23834,-8.8893 -22.34375,-9.09375 -6.30045,-0.14147 -18.98934,2.57708 -14.28125,18.21875 3.25183,-6.07009 13.07369,-5.77036 19.28125,-3.6875 8.58554,2.88076 11.28151,7.5825 18.21875,20.15625 6.93724,12.57375 7.35944,28.39485 9.09375,37.49995 1.73431,9.1051 1.96875,31.8791 1.96875,35.7813 0,3.9022 1.93959,7.1603 5.625,11.0625 3.68541,3.9022 6.08015,3.6562 8.03125,3.6562 1.9511,0 3.98073,-1.5 6.0625,-1.5 2.08177,0 4.1114,1.5 6.0625,1.5 1.9511,0 4.34584,0.246 8.03125,-3.6562 3.68541,-3.9022 5.625,-7.1603 5.625,-11.0625 0,-3.9022 0.23444,-26.6762 1.96875,-35.7813 1.73431,-9.1051 2.15651,-24.9262 9.09375,-37.49995 6.93724,-12.57375 9.6332,-17.27549 18.21875,-20.15625 6.20755,-2.08286 16.02942,-2.38259 19.28125,3.6875 4.70809,-15.64167 -8.01206,-18.36022 -14.3125,-18.21875 -9.10542,0.20445 -16.58713,3.45185 -22.3125,9.09375 -11.18542,11.02234 -16.4864,32.53556 -18.4375,43.375 -1.9511,10.8394 -2.50984,30.5721 -3.6875,51.8125 -0.3604,6.5 -2.375,6.5075 -2.375,0.4375 0,-4.7694 1.25919,-36.2536 3.03125,-54 1.23032,-12.32122 1.07021,-29.68776 -1.53125,-36.625 -2.60147,-6.93724 -4.75405,-9.11153 -8.65625,-14.53125 z"
           id="path5530"
           style="fill:#000000;stroke:none" />
        <path
           inkscape:connector-curvature="0"
           d="m 281.55791,945.4375 c -7.44469,2.04491 -9.9767,12.89029 -9.8125,19.4375 0.12284,4.89814 3.10737,28.07077 4.25,37.375 1.14262,9.3042 2.9375,21.0468 2.9375,28.7188 0,7.6719 0.65625,22.2216 0.65625,24.3437 0,2.122 0.6629,2.5937 1.96875,2.5937 1.30585,0 1.96875,-0.4717 1.96875,-2.5937 0,-2.1221 0.65625,-16.6718 0.65625,-24.3437 0,-7.672 1.79487,-19.4146 2.9375,-28.7188 1.14263,-9.30423 4.12716,-32.47686 4.25,-37.375 0.1642,-6.54721 -2.36781,-17.39259 -9.8125,-19.4375 z m -31.9375,15.4375 c -0.67495,0.0228 -1.34079,0.12461 -2.03125,0.3125 -5.52369,1.50315 -8.75458,7.60793 -7.0625,13.59375 2.66043,9.41139 14.03847,16.39904 18.03125,25.87495 4.85563,11.5239 11.44712,19.2283 16.71875,57.8438 0.20555,1.5057 1.73288,1.817 1.65625,-1.125 -1.07287,-41.1875 -4.61049,-49.5999 -5.8125,-58.125 -1.67431,-11.87482 -5.83839,-24.24788 -9.59375,-30.25 -2.88693,-4.61413 -7.1816,-8.28479 -11.90625,-8.125 z m 63,0 c -4.37539,0.28851 -8.32475,3.79925 -11.03125,8.125 -3.75536,6.00212 -7.91944,18.37518 -9.59375,30.25 -1.20201,8.5251 -4.73963,16.9375 -5.8125,58.125 -0.0766,2.942 1.45071,2.6307 1.65625,1.125 5.27163,-38.6155 11.86312,-46.3199 16.71875,-57.8438 3.99278,-9.47591 15.37082,-16.46356 18.03125,-25.87495 1.69208,-5.98582 -1.53881,-12.0906 -7.0625,-13.59375 -0.69046,-0.18789 -1.3563,-0.2897 -2.03125,-0.3125 -0.29529,-0.01 -0.58331,-0.0192 -0.875,0 z m -76.78125,25.65625 c -4.23648,0.13781 -8.08712,2.669 -9.5625,6.71875 -1.96716,5.39963 1.03186,11.4594 6.71875,13.5312 3.60956,1.3152 15.49082,7.471 19.78125,12.6563 5.73391,6.9298 13.40193,17.7726 18.34375,41.1875 0.54067,2.5616 1.86072,2.7205 1.5,0.094 -3.76838,-27.4421 -10.1481,-42.8665 -12.875,-49 -4.48856,-10.0961 -13.93811,-22.39698 -19.625,-24.4688 -1.42172,-0.51795 -2.86909,-0.76469 -4.28125,-0.71875 z m 91.4375,0 c -1.41216,-0.0459 -2.85953,0.2008 -4.28125,0.71875 -5.68689,2.07182 -15.13644,14.3727 -19.625,24.4688 -2.7269,6.1335 -9.10662,21.5579 -12.875,49 -0.36072,2.6267 0.95933,2.4678 1.5,-0.094 4.94182,-23.4149 12.60984,-34.2577 18.34375,-41.1875 4.29043,-5.1853 16.17169,-11.3411 19.78125,-12.6563 5.68689,-2.0718 8.68591,-8.13157 6.71875,-13.5312 -1.47538,-4.04975 -5.32602,-6.58094 -9.5625,-6.71875 z m -96.34375,27.09375 c -4.27973,0.014 -7.97608,2.2249 -9.09375,5.7188 -1.4902,4.6583 2.1252,9.9969 8.09375,11.9062 3.03718,0.9716 17.28362,2.7746 23.15625,8.6562 1.40062,1.4029 6.82609,5.4684 15.4375,24 1.0536,2.2673 2.01774,0.6763 1.6875,-0.2187 -8.34915,-22.6304 -13.30861,-30.846 -14.25,-32.4375 -3.96916,-6.7103 -15.17116,-14.943 -20.625,-16.875 -1.47671,-0.5231 -2.97967,-0.7546 -4.40625,-0.75 z m 101.25,0 c -1.42658,0 -2.92954,0.2269 -4.40625,0.75 -5.45384,1.932 -16.65584,10.1647 -20.625,16.875 -0.94139,1.5915 -5.90085,9.8071 -14.25,32.4375 -0.33024,0.895 0.6339,2.486 1.6875,0.2187 8.61141,-18.5316 14.03688,-22.5971 15.4375,-24 5.87263,-5.8816 20.11907,-7.6846 23.15625,-8.6562 5.96855,-1.9093 9.58395,-7.2479 8.09375,-11.9062 -1.11767,-3.4939 -4.81402,-5.7048 -9.09375,-5.7188 z m -95.4375,24.625 c -5.51424,0 -9.96875,3.4482 -9.96875,7.7188 0,4.2702 4.45451,7.75 9.96875,7.75 1.96021,0 3.68466,-0.7428 5.34375,-1.1876 9.11794,-2.4429 18.8445,10.012 23.625,15.1563 1.67998,1.8079 2.95393,-0.2705 2.375,-1.0937 -0.8407,-1.1957 -8.10869,-10.268 -14.5,-18.5313 -2.37664,-3.0728 -8.86508,-9.8125 -16.84375,-9.8125 z m 89.625,0 c -7.97867,0 -14.46711,6.7397 -16.84375,9.8125 -6.39131,8.2633 -13.6593,17.3356 -14.5,18.5313 -0.57893,0.8232 0.69502,2.9016 2.375,1.0937 4.7805,-5.1443 14.50706,-17.5992 23.625,-15.1563 1.65908,0.4448 3.38354,1.1876 5.34375,1.1876 5.51424,0 9.96875,-3.4798 9.96875,-7.75 0,-4.2706 -4.45451,-7.7188 -9.96875,-7.7188 z m -83.59375,18.625 c -4.35335,0 -7.90625,3.1128 -7.90625,6.9688 0,3.8558 3.55292,7.0134 7.90625,7 3.3033,-0.01 6.93965,-2.3334 10.5625,-2.0938 1.13094,0.075 5.14456,0.1823 8.875,3.25 2.45559,2.0193 4.65118,0.072 2,-2.0625 -4.56323,-4.2272 -9.38415,-7.3392 -16.78125,-11.7187 -1.33925,-0.7929 -2.91358,-1.3438 -4.65625,-1.3438 z m 77.5625,0 c -1.74267,0 -3.317,0.5509 -4.65625,1.3438 -7.3971,4.3795 -12.21802,7.4915 -16.78125,11.7187 -2.65118,2.1345 -0.45559,4.0818 2,2.0625 3.73044,-3.0677 7.74406,-3.175 8.875,-3.25 3.62285,-0.2396 7.2592,2.0838 10.5625,2.0938 4.35333,0.013 7.90625,-3.1442 7.90625,-7 0,-3.856 -3.5529,-6.9688 -7.90625,-6.9688 z m -38.78125,3.75 c -6.55885,3.7626 -11.13766,9.0603 -14.09375,15.625 8.84542,5.4229 11.00904,14.8392 14.09375,23.7188 3.08471,-8.8796 5.24833,-18.2959 14.09375,-23.7188 -2.9561,-6.5647 -7.5349,-11.8624 -14.09375,-15.625 z m 0,54.1875 c -1.50142,8.5581 -9.4375,16.8928 -9.4375,16.8928 1.78488,3.7204 5.19869,6.9472 9.4375,8.25 4.23881,-1.3028 7.65262,-4.5296 9.4375,-8.25 0,0 -7.93608,-8.3347 -9.4375,-16.8928 z"
           id="path5532"
           style="fill:#000000;stroke:none" />
        <path
           style="fill:#000000;stroke:none"
           id="path5534"
           d="m -76.093,945.4375 c -7.44469,2.04491 -9.9767,12.89029 -9.8125,19.4375 0.12284,4.89814 3.10737,28.07077 4.25,37.375 1.14262,9.3042 2.9375,21.0468 2.9375,28.7188 0,7.6719 0.65625,22.2216 0.65625,24.3437 0,2.122 0.6629,2.5937 1.96875,2.5937 1.30585,0 1.96875,-0.4717 1.96875,-2.5937 0,-2.1221 0.65625,-16.6718 0.65625,-24.3437 0,-7.672 1.79487,-19.4146 2.9375,-28.7188 1.14263,-9.30423 4.12716,-32.47686 4.25,-37.375 0.1642,-6.54721 -2.36781,-17.39259 -9.8125,-19.4375 z m -31.9375,15.4375 c -0.67495,0.0228 -1.34079,0.12461 -2.03125,0.3125 -5.52369,1.50315 -8.75458,7.60793 -7.0625,13.59375 2.66043,9.41139 14.03847,16.39904 18.03125,25.87495 4.85563,11.5239 11.44712,19.2283 16.71875,57.8438 0.20555,1.5057 1.73288,1.817 1.65625,-1.125 -1.07287,-41.1875 -4.61049,-49.5999 -5.8125,-58.125 -1.67431,-11.87482 -5.83839,-24.24788 -9.59375,-30.25 -2.88693,-4.61413 -7.1816,-8.28479 -11.90625,-8.125 z m 63,0 c -4.37539,0.28851 -8.32475,3.79925 -11.03125,8.125 -3.75536,6.00212 -7.91944,18.37518 -9.59375,30.25 -1.20201,8.5251 -4.73963,16.9375 -5.8125,58.125 -0.0766,2.942 1.45071,2.6307 1.65625,1.125 5.27163,-38.6155 11.86312,-46.3199 16.71875,-57.8438 3.99278,-9.47591 15.37082,-16.46356 18.03125,-25.87495 1.69208,-5.98582 -1.53881,-12.0906 -7.0625,-13.59375 -0.69046,-0.18789 -1.3563,-0.2897 -2.03125,-0.3125 -0.29529,-0.01 -0.58331,-0.0192 -0.875,0 z m -76.78125,25.65625 c -4.23648,0.13781 -8.08712,2.669 -9.5625,6.71875 -1.96716,5.39963 1.03186,11.4594 6.71875,13.5312 3.60956,1.3152 15.49082,7.471 19.78125,12.6563 5.73391,6.9298 13.40193,17.7726 18.34375,41.1875 0.54067,2.5616 1.86072,2.7205 1.5,0.094 -3.76838,-27.4421 -10.1481,-42.8665 -12.875,-49 -4.48856,-10.0961 -13.93811,-22.39698 -19.625,-24.4688 -1.42172,-0.51795 -2.86909,-0.76469 -4.28125,-0.71875 z m 91.4375,0 c -1.41216,-0.0459 -2.85953,0.2008 -4.28125,0.71875 -5.68689,2.07182 -15.13644,14.3727 -19.625,24.4688 -2.7269,6.1335 -9.10662,21.5579 -12.875,49 -0.36072,2.6267 0.95933,2.4678 1.5,-0.094 4.94182,-23.4149 12.60984,-34.2577 18.34375,-41.1875 4.29043,-5.1853 16.17169,-11.3411 19.78125,-12.6563 5.68689,-2.0718 8.68591,-8.13157 6.71875,-13.5312 -1.47538,-4.04975 -5.32602,-6.58094 -9.5625,-6.71875 z M -126.718,1013.625 c -4.27973,0.014 -7.97608,2.2249 -9.09375,5.7188 -1.4902,4.6583 2.1252,9.9969 8.09375,11.9062 3.03718,0.9716 17.28362,2.7746 23.15625,8.6562 1.40062,1.4029 6.82609,5.4684 15.4375,24 1.0536,2.2673 2.01774,0.6763 1.6875,-0.2187 -8.34915,-22.6304 -13.30861,-30.846 -14.25,-32.4375 -3.96916,-6.7103 -15.17116,-14.943 -20.625,-16.875 -1.47671,-0.5231 -2.97967,-0.7546 -4.40625,-0.75 z m 101.25,0 c -1.42658,0 -2.92954,0.2269 -4.40625,0.75 -5.45384,1.932 -16.65584,10.1647 -20.625,16.875 -0.94139,1.5915 -5.90085,9.8071 -14.25,32.4375 -0.33024,0.895 0.6339,2.486 1.6875,0.2187 8.61141,-18.5316 14.03688,-22.5971 15.4375,-24 5.87263,-5.8816 20.11907,-7.6846 23.15625,-8.6562 5.96855,-1.9093 9.58395,-7.2479 8.09375,-11.9062 -1.11767,-3.4939 -4.81402,-5.7048 -9.09375,-5.7188 z m -95.4375,24.625 c -5.51424,0 -9.96875,3.4482 -9.96875,7.7188 0,4.2702 4.45451,7.75 9.96875,7.75 1.96021,0 3.68466,-0.7428 5.34375,-1.1876 9.11794,-2.4429 18.8445,10.012 23.625,15.1563 1.67998,1.8079 2.95393,-0.2705 2.375,-1.0937 -0.8407,-1.1957 -8.10869,-10.268 -14.5,-18.5313 -2.37664,-3.0728 -8.86508,-9.8125 -16.84375,-9.8125 z m 89.625,0 c -7.97867,0 -14.46711,6.7397 -16.84375,9.8125 -6.39131,8.2633 -13.6593,17.3356 -14.5,18.5313 -0.57893,0.8232 0.69502,2.9016 2.375,1.0937 4.7805,-5.1443 14.50706,-17.5992 23.625,-15.1563 1.65908,0.4448 3.38354,1.1876 5.34375,1.1876 5.51424,0 9.96875,-3.4798 9.96875,-7.75 0,-4.2706 -4.45451,-7.7188 -9.96875,-7.7188 z m -83.59375,18.625 c -4.35335,0 -7.90625,3.1128 -7.90625,6.9688 0,3.8558 3.55292,7.0134 7.90625,7 3.3033,-0.01 6.93965,-2.3334 10.5625,-2.0938 1.13094,0.075 5.14456,0.1823 8.875,3.25 2.45559,2.0193 4.65118,0.072 2,-2.0625 -4.56323,-4.2272 -9.38415,-7.3392 -16.78125,-11.7187 -1.33925,-0.7929 -2.91358,-1.3438 -4.65625,-1.3438 z m 77.5625,0 c -1.74267,0 -3.317,0.5509 -4.65625,1.3438 -7.3971,4.3795 -12.21802,7.4915 -16.78125,11.7187 -2.65118,2.1345 -0.45559,4.0818 2,2.0625 3.73044,-3.0677 7.74406,-3.175 8.875,-3.25 3.62285,-0.2396 7.2592,2.0838 10.5625,2.0938 4.35333,0.013 7.90625,-3.1442 7.90625,-7 0,-3.856 -3.5529,-6.9688 -7.90625,-6.9688 z m -38.78125,3.75 c -6.55885,3.7626 -11.13766,9.0603 -14.09375,15.625 8.84542,5.4229 11.00904,14.8392 14.09375,23.7188 3.08471,-8.8796 5.24833,-18.2959 14.09375,-23.7188 -2.9561,-6.5647 -7.5349,-11.8624 -14.09375,-15.625 z m 0,54.1875 c -1.50142,8.5581 -9.4375,16.8928 -9.4375,16.8928 1.78488,3.7204 5.19869,6.9472 9.4375,8.25 4.23881,-1.3028 7.65262,-4.5296 9.4375,-8.25 0,0 -7.93608,-8.3347 -9.4375,-16.8928 z"
           inkscape:connector-curvature="0" />
      </g>
    </g>
  </g>
  <g
     id="g5440"
     transform="matrix(0,1,-1,0,185.64623,462.48666)">
    <g
       id="g4949"
       transform="matrix(0.54556448,0,0,0.54556448,-425.65341,96.51578)"
       inkscape:label="Hershey Text">
      <path
         id="path4951"
         transform="translate(10,0)"
         d="m 8,-7 -1,-2 -2,-2 -2,-1 -4,0 -2,1 -2,2 -1,2 -1,3 0,5 1,3 1,2 2,2 2,1 L 3,9 5,8 7,6 8,4 8,1 M 3,1 8,1"
         style="fill:none;stroke:#000000"
         inkscape:connector-curvature="0" />
      <path
         id="path4953"
         transform="translate(28,0)"
         d="m -3,-5 0,14 m 0,-8 1,-3 2,-2 2,-1 3,0"
         style="fill:none;stroke:#000000"
         inkscape:connector-curvature="0" />
      <path
         id="path4955"
         transform="translate(43,0)"
         d="M -6,1 6,1 6,-1 5,-3 4,-4 2,-5 l -3,0 -2,1 -2,2 -1,3 0,2 1,3 2,2 2,1 3,0 2,-1 2,-2"
         style="fill:none;stroke:#000000"
         inkscape:connector-curvature="0" />
      <path
         id="path4957"
         transform="translate(61,0)"
         d="M -6,1 6,1 6,-1 5,-3 4,-4 2,-5 l -3,0 -2,1 -2,2 -1,3 0,2 1,3 2,2 2,1 3,0 2,-1 2,-2"
         style="fill:none;stroke:#000000"
         inkscape:connector-curvature="0" />
      <path
         id="path4959"
         transform="translate(75,0)"
         d="M 0,-12 0,5 1,8 3,9 5,9 m -8,-14 7,0"
         style="fill:none;stroke:#000000"
         inkscape:connector-curvature="0" />
      <path
         id="path4961"
         transform="translate(86,0)"
         d="m -1,-12 1,1 1,-1 -1,-1 -1,1 m 1,7 0,14"
         style="fill:none;stroke:#000000"
         inkscape:connector-curvature="0" />
      <path
         id="path4963"
         transform="translate(99,0)"
         d="m -5,-5 0,14 m 0,-10 3,-3 2,-1 3,0 2,1 1,3 0,10"
         style="fill:none;stroke:#000000"
         inkscape:connector-curvature="0" />
      <path
         id="path4965"
         transform="translate(118,0)"
         d="m 6,-5 0,16 -1,3 -1,1 -2,1 -3,0 -2,-1 M 6,-2 4,-4 2,-5 l -3,0 -2,1 -2,2 -1,3 0,2 1,3 2,2 2,1 3,0 2,-1 2,-2"
         style="fill:none;stroke:#000000"
         inkscape:connector-curvature="0" />
      <path
         id="path4967"
         transform="translate(136,0)"
         d="m 6,-2 -1,-2 -3,-1 -3,0 -3,1 -1,2 1,2 2,1 L 3,2 5,3 6,5 6,6 5,8 2,9 -1,9 -4,8 -5,6"
         style="fill:none;stroke:#000000"
         inkscape:connector-curvature="0" />
      <path
         id="path4969"
         transform="translate(153,0)"
         d=""
         style="fill:none;stroke:#000000"
         inkscape:connector-curvature="0" />
      <path
         id="path4971"
         transform="translate(166,0)"
         d="m 5,-12 -2,0 -2,1 -1,3 0,17 m -3,-14 7,0"
         style="fill:none;stroke:#000000"
         inkscape:connector-curvature="0" />
      <path
         id="path4973"
         transform="translate(180,0)"
         d="m -3,-5 0,14 m 0,-8 1,-3 2,-2 2,-1 3,0"
         style="fill:none;stroke:#000000"
         inkscape:connector-curvature="0" />
      <path
         id="path4975"
         transform="translate(195,0)"
         d="m -1,-5 -2,1 -2,2 -1,3 0,2 1,3 2,2 2,1 L 2,9 4,8 6,6 7,3 7,1 6,-2 4,-4 2,-5 -1,-5"
         style="fill:none;stroke:#000000"
         inkscape:connector-curvature="0" />
      <path
         id="path4977"
         transform="translate(220,0)"
         d="m -11,-5 0,14 m 0,-10 3,-3 2,-1 3,0 2,1 1,3 0,10 m 0,-10 3,-3 2,-1 3,0 2,1 1,3 0,10"
         style="fill:none;stroke:#000000"
         inkscape:connector-curvature="0" />
      <path
         id="path4979"
         transform="translate(243,0)"
         d=""
         style="fill:none;stroke:#000000"
         inkscape:connector-curvature="0" />
      <path
         id="path4981"
         transform="translate(262,0)"
         d="m -7,-12 0,21 m 0,-21 9,0 3,1 1,1 1,2 0,3 -1,2 -1,1 -3,1 -9,0"
         style="fill:none;stroke:#000000"
         inkscape:connector-curvature="0" />
      <path
         id="path4983"
         transform="translate(280,0)"
         d="M -6,-5 0,9 M 6,-5 0,9 l -2,4 -2,2 -2,1 -1,0"
         style="fill:none;stroke:#000000"
         inkscape:connector-curvature="0" />
      <path
         id="path4985"
         transform="translate(295,0)"
         d="m -3,-5 0,14 m 0,-8 1,-3 2,-2 2,-1 3,0"
         style="fill:none;stroke:#000000"
         inkscape:connector-curvature="0" />
      <path
         id="path4987"
         transform="translate(310,0)"
         d="M 6,-5 6,9 M 6,-2 4,-4 2,-5 l -3,0 -2,1 -2,2 -1,3 0,2 1,3 2,2 2,1 3,0 2,-1 2,-2"
         style="fill:none;stroke:#000000"
         inkscape:connector-curvature="0" />
      <path
         id="path4989"
         transform="translate(335,0)"
         d="m -11,-5 0,14 m 0,-10 3,-3 2,-1 3,0 2,1 1,3 0,10 m 0,-10 3,-3 2,-1 3,0 2,1 1,3 0,10"
         style="fill:none;stroke:#000000"
         inkscape:connector-curvature="0" />
      <path
         id="path4991"
         transform="translate(359,0)"
         d="m -1,-5 -2,1 -2,2 -1,3 0,2 1,3 2,2 2,1 L 2,9 4,8 6,6 7,3 7,1 6,-2 4,-4 2,-5 -1,-5"
         style="fill:none;stroke:#000000"
         inkscape:connector-curvature="0" />
      <path
         id="path4993"
         transform="translate(378,0)"
         d="m -1,-5 -2,1 -2,2 -1,3 0,2 1,3 2,2 2,1 L 2,9 4,8 6,6 7,3 7,1 6,-2 4,-4 2,-5 -1,-5"
         style="fill:none;stroke:#000000"
         inkscape:connector-curvature="0" />
      <path
         id="path4995"
         transform="translate(396,0)"
         d="m 6,-2 -1,-2 -3,-1 -3,0 -3,1 -1,2 1,2 2,1 L 3,2 5,3 6,5 6,6 5,8 2,9 -1,9 -4,8 -5,6"
         style="fill:none;stroke:#000000"
         inkscape:connector-curvature="0" />
    </g>
    <g
       inkscape:label="Hershey Text"
       transform="matrix(0.54556448,0,0,0.54556448,-391.01007,115.80853)"
       id="g5257">
      <path
         inkscape:connector-curvature="0"
         style="fill:none;stroke:#000000"
         d="m 5,-12 -2,0 -2,1 -1,3 0,17 m -3,-14 7,0"
         transform="translate(5,0)"
         id="path5259" />
      <path
         inkscape:connector-curvature="0"
         style="fill:none;stroke:#000000"
         d="m -1,-5 -2,1 -2,2 -1,3 0,2 1,3 2,2 2,1 L 2,9 4,8 6,6 7,3 7,1 6,-2 4,-4 2,-5 -1,-5"
         transform="translate(21,0)"
         id="path5261" />
      <path
         inkscape:connector-curvature="0"
         style="fill:none;stroke:#000000"
         d="m -3,-5 0,14 m 0,-8 1,-3 2,-2 2,-1 3,0"
         transform="translate(38,0)"
         id="path5263" />
      <path
         inkscape:connector-curvature="0"
         style="fill:none;stroke:#000000"
         d=""
         transform="translate(52,0)"
         id="path5265" />
      <path
         inkscape:connector-curvature="0"
         style="fill:none;stroke:#000000"
         d="M -6,-12 -6,9 M -6,9 6,9"
         transform="translate(70,0)"
         id="path5267" />
      <path
         inkscape:connector-curvature="0"
         style="fill:none;stroke:#000000"
         d="m -1,-5 -2,1 -2,2 -1,3 0,2 1,3 2,2 2,1 L 2,9 4,8 6,6 7,3 7,1 6,-2 4,-4 2,-5 -1,-5"
         transform="translate(86,0)"
         id="path5269" />
      <path
         inkscape:connector-curvature="0"
         style="fill:none;stroke:#000000"
         d="m -3,-5 0,14 m 0,-8 1,-3 2,-2 2,-1 3,0"
         transform="translate(103,0)"
         id="path5271" />
      <path
         inkscape:connector-curvature="0"
         style="fill:none;stroke:#000000"
         d="m -5,-5 0,14 m 0,-10 3,-3 2,-1 3,0 2,1 1,3 0,10"
         transform="translate(118,0)"
         id="path5273" />
      <path
         inkscape:connector-curvature="0"
         style="fill:none;stroke:#000000"
         d="M 6,-5 6,9 M 6,-2 4,-4 2,-5 l -3,0 -2,1 -2,2 -1,3 0,2 1,3 2,2 2,1 3,0 2,-1 2,-2"
         transform="translate(137,0)"
         id="path5275" />
      <path
         inkscape:connector-curvature="0"
         style="fill:none;stroke:#000000"
         d=""
         transform="translate(155,0)"
         id="path5277" />
      <path
         inkscape:connector-curvature="0"
         style="fill:none;stroke:#000000"
         d="M 10,-3 10,-4 9,-5 8,-5 7,-4 6,-2 4,3 2,6 0,8 -2,9 -6,9 -8,8 -9,7 l -1,-2 0,-2 1,-2 1,-1 7,-4 1,-1 1,-2 0,-2 -1,-2 -2,-1 -2,1 -1,2 0,2 1,3 2,3 5,7 2,2 2,1 2,0 1,-1 0,-1"
         transform="translate(176,0)"
         id="path5279" />
      <path
         inkscape:connector-curvature="0"
         style="fill:none;stroke:#000000"
         d=""
         transform="translate(197,0)"
         id="path5281" />
      <path
         inkscape:connector-curvature="0"
         style="fill:none;stroke:#000000"
         d="m 8,-7 -1,-2 -2,-2 -2,-1 -4,0 -2,1 -2,2 -1,2 -1,3 0,5 1,3 1,2 2,2 2,1 L 3,9 5,8 7,6 8,4"
         transform="translate(215,0)"
         id="path5283" />
      <path
         inkscape:connector-curvature="0"
         style="fill:none;stroke:#000000"
         d="m -1,-5 -2,1 -2,2 -1,3 0,2 1,3 2,2 2,1 L 2,9 4,8 6,6 7,3 7,1 6,-2 4,-4 2,-5 -1,-5"
         transform="translate(235,0)"
         id="path5285" />
      <path
         inkscape:connector-curvature="0"
         style="fill:none;stroke:#000000"
         d="M 0,-12 0,9"
         transform="translate(249,0)"
         id="path5287" />
      <path
         inkscape:connector-curvature="0"
         style="fill:none;stroke:#000000"
         d="m -1,-12 1,1 1,-1 -1,-1 -1,1 m 1,7 0,14"
         transform="translate(257,0)"
         id="path5289" />
      <path
         inkscape:connector-curvature="0"
         style="fill:none;stroke:#000000"
         d="m -5,-5 0,14 m 0,-10 3,-3 2,-1 3,0 2,1 1,3 0,10"
         transform="translate(270,0)"
         id="path5291" />
    </g>
  </g>
</svg>
