<?xml version="1.0" encoding="UTF-8" standalone="no"?>
<!-- Created with Inkscape (http://www.inkscape.org/) -->

<svg
   xmlns:dc="http://purl.org/dc/elements/1.1/"
   xmlns:cc="http://creativecommons.org/ns#"
   xmlns:rdf="http://www.w3.org/1999/02/22-rdf-syntax-ns#"
   xmlns:svg="http://www.w3.org/2000/svg"
   xmlns="http://www.w3.org/2000/svg"
   xmlns:sodipodi="http://sodipodi.sourceforge.net/DTD/sodipodi-0.dtd"
   xmlns:inkscape="http://www.inkscape.org/namespaces/inkscape"
   width="159.44882"
   height="496.06299"
   id="svg2"
   version="1.1"
   inkscape:version="0.48.1 r9760"
   sodipodi:docname="KirchePyramoos.svg">
  <sodipodi:namedview
     id="base"
     pagecolor="#ffffff"
     bordercolor="#666666"
     borderopacity="1.0"
     inkscape:pageopacity="0.0"
     inkscape:pageshadow="2"
     inkscape:zoom="1.0180159"
     inkscape:cx="-74.988302"
     inkscape:cy="248.03149"
     inkscape:document-units="mm"
     inkscape:current-layer="layer1"
     showgrid="false"
     units="mm"
     inkscape:window-width="1270"
     inkscape:window-height="723"
     inkscape:window-x="0"
     inkscape:window-y="0"
     inkscape:window-maximized="0" />
  <defs
     id="defs4">
    <inkscape:path-effect
       effect="skeletal"
       id="path-effect3223"
       is_visible="true"
       pattern="M 0,0 1,0"
       copytype="repeated"
       prop_scale="1"
       scale_y_rel="false"
       spacing="0"
       normal_offset="0"
       tang_offset="0"
       prop_units="false"
       vertical_pattern="false"
       fuse_tolerance="0" />
    <inkscape:path-effect
       effect="skeletal"
       id="path-effect3207"
       is_visible="true"
       pattern="M 0,0 1,0"
       copytype="repeated"
       prop_scale="1"
       scale_y_rel="false"
       spacing="0"
       normal_offset="0"
       tang_offset="0"
       prop_units="false"
       vertical_pattern="false"
       fuse_tolerance="0" />
    <clipPath
       id="clipPath3022">
      <rect
         width="357.65601"
         height="196.424"
         x="0"
         y="0"
         id="rect3024"
         style="opacity:0.3;color:#000000;fill:#000000;fill-opacity:1;fill-rule:nonzero;stroke:none;stroke-width:1;marker:none;visibility:visible;display:inline;overflow:visible;enable-background:accumulate" />
    </clipPath>
  </defs>
  <metadata
     id="metadata7">
    <rdf:RDF>
      <cc:Work
         rdf:about="">
        <dc:format>image/svg+xml</dc:format>
        <dc:type
           rdf:resource="http://purl.org/dc/dcmitype/StillImage" />
        <dc:title />
      </cc:Work>
    </rdf:RDF>
  </metadata>
  <g
     style="opacity:0.47286826;display:inline"
     inkscape:label="Raster"
     id="layer2"
     inkscape:groupmode="layer" />
  <g
     transform="translate(0,-3713.3858)"
     id="layer1"
     inkscape:groupmode="layer"
     inkscape:label="Ebene 1"
     style="display:inline">
    <g
       id="g5601"
       transform="matrix(0,1,-1,0,4164.6926,4006.2654)">
      <path
         style="fill:none;stroke:#000000;stroke-width:1px;stroke-linecap:butt;stroke-linejoin:miter;stroke-opacity:1"
         d="m 52.65084,4142.5953 0.403573,-79.1002 8.475025,-1.4125 2.623222,80.311"
         id="path3829"
         inkscape:connector-curvature="0" />
      <path
         style="fill:none;stroke:#000000;stroke-width:1px;stroke-linecap:butt;stroke-linejoin:miter;stroke-opacity:1"
         d="m 52.852627,4093.1577 9.685743,-0.8071 9.28217,0.4035"
         id="path3831"
         inkscape:connector-curvature="0" />
      <path
         style="fill:none;stroke:#000000;stroke-width:1px;stroke-linecap:butt;stroke-linejoin:miter;stroke-opacity:1"
         d="m 52.852627,4115.7578 10.492888,-1.2107 8.273239,0"
         id="path3833"
         inkscape:connector-curvature="0" />
      <path
         style="fill:none;stroke:#000000;stroke-width:1px;stroke-linecap:butt;stroke-linejoin:miter;stroke-opacity:1"
         d="m 70.609822,4063.0916 2.017863,36.9268 -1.61429,0 2.219649,42.1734"
         id="path3835"
         inkscape:connector-curvature="0" />
      <path
         style="fill:none;stroke:#000000;stroke-width:1px;stroke-linecap:butt;stroke-linejoin:miter;stroke-opacity:1"
         d="m 61.731224,4062.4862 8.878598,0.4036"
         id="path3858"
         inkscape:connector-curvature="0" />
      <path
         style="fill:none;stroke:#000000;stroke-width:1px;stroke-linecap:butt;stroke-linejoin:miter;stroke-opacity:1"
         d="m 61.731224,4062.0826 0.201787,-6.0536 3.430367,6.0536 -12.712538,1.4125 -1.210717,-0.4036 4.035726,-5.65"
         id="path3860"
         inkscape:connector-curvature="0" />
      <path
         style="fill:none;stroke:#000000;stroke-width:1px;stroke-linecap:butt;stroke-linejoin:miter;stroke-opacity:1"
         d="m 70.609822,4062.4862 1.210718,-0.2018 -3.632154,-4.8429"
         id="path3862"
         inkscape:connector-curvature="0" />
      <path
         style="fill:none;stroke:#000000;stroke-width:1px;stroke-linecap:butt;stroke-linejoin:miter;stroke-opacity:1"
         d="m 58.906216,4062.2844 3.026795,-6.6589"
         id="path3864"
         inkscape:connector-curvature="0" />
      <path
         style="fill:none;stroke:#000000;stroke-width:1px;stroke-linecap:butt;stroke-linejoin:miter;stroke-opacity:1"
         d="m 55.274063,4057.2397 5.044657,-37.734 7.66788,38.1376"
         id="path3866"
         inkscape:connector-curvature="0" />
      <path
         style="fill:none;stroke:#000000;stroke-width:1px;stroke-linecap:butt;stroke-linejoin:miter;stroke-opacity:1"
         d="m 65.363378,4061.8808 -5.044658,-39.9537 -2.219649,40.1555"
         id="path3868"
         inkscape:connector-curvature="0" />
      <path
         style="fill:none;stroke:#000000;stroke-width:1px;stroke-linecap:butt;stroke-linejoin:miter;stroke-opacity:1"
         d="m 65.565164,4077.822 -0.403572,-8.9795 0.100893,-1.009 0.403573,-0.908 0.605358,-0.6054 0.706253,1.1098 0.504465,1.4126 0.403573,9.5848 z"
         id="path3870"
         inkscape:connector-curvature="0" />
      <path
         style="fill:none;stroke:#000000;stroke-width:1px;stroke-linecap:butt;stroke-linejoin:miter;stroke-opacity:1"
         d="m 65.363378,4078.5282 2.724115,0.7063"
         id="path3872"
         inkscape:connector-curvature="0" />
      <path
         style="fill:none;stroke:#000000;stroke-width:1px;stroke-linecap:butt;stroke-linejoin:miter;stroke-opacity:1"
         d="m 56.48478,4077.3175 -0.100893,-8.7777 0.30268,-1.1099 0.504465,-0.8071 1.008932,0.8071 0.30268,1.1099 0.302679,8.475 z"
         id="path3874"
         inkscape:connector-curvature="0" />
      <path
         style="fill:none;stroke:#000000;stroke-width:1px;stroke-linecap:butt;stroke-linejoin:miter;stroke-opacity:1"
         d="m 56.081208,4078.0237 3.127688,-0.4035"
         id="path3876"
         inkscape:connector-curvature="0" />
      <path
         style="fill:none;stroke:#000000;stroke-width:1px;stroke-linecap:butt;stroke-linejoin:miter;stroke-opacity:1"
         d="m 60.419613,4019.203 -0.504465,-12.0063"
         id="path3878"
         inkscape:connector-curvature="0" />
      <path
         style="fill:none;stroke:#000000;stroke-width:1px;stroke-linecap:butt;stroke-linejoin:miter;stroke-opacity:1"
         d="m 59.208896,4017.2861 0.100893,-0.7063 0.605359,-0.4036 1.210718,0 0.403572,1.3116 -0.807145,0.7063 -1.008932,-0.1009 z"
         id="path3880"
         inkscape:connector-curvature="0" />
      <path
         style="fill:none;stroke:#000000;stroke-width:1px;stroke-linecap:butt;stroke-linejoin:miter;stroke-opacity:1"
         d="m 58.300857,4010.8289 3.632154,-1.0089"
         id="path3882"
         inkscape:connector-curvature="0" />
      <path
         style="fill:none;stroke:#000000;stroke-width:1px;stroke-linecap:butt;stroke-linejoin:miter;stroke-opacity:1"
         d="m 66.977669,4088.4157 0,1.7152"
         id="path3884"
         inkscape:connector-curvature="0" />
      <path
         style="fill:none;stroke:#000000;stroke-width:1px;stroke-linecap:butt;stroke-linejoin:miter;stroke-opacity:1"
         d="m 67.381241,4105.4667 0,1.2107"
         id="path3886"
         inkscape:connector-curvature="0" />
      <path
         style="fill:none;stroke:#000000;stroke-width:1px;stroke-linecap:butt;stroke-linejoin:miter;stroke-opacity:1"
         d="m 57.998178,4119.4908 -0.100893,2.3206"
         id="path3888"
         inkscape:connector-curvature="0" />
      <path
         style="fill:none;stroke:#000000;stroke-width:1px;stroke-linecap:butt;stroke-linejoin:miter;stroke-opacity:1"
         d="m 68.188386,4133.2123 0.100894,2.3205"
         id="path3890"
         inkscape:connector-curvature="0" />
      <path
         style="fill:none;stroke:#000000;stroke-width:1px;stroke-linecap:butt;stroke-linejoin:miter;stroke-opacity:1"
         d="m 58.603537,4132.0016 0.100893,3.6321"
         id="path3892"
         inkscape:connector-curvature="0" />
      <path
         style="fill:none;stroke:#000000;stroke-width:1px;stroke-linecap:butt;stroke-linejoin:miter;stroke-opacity:1"
         d="m 71.517861,4102.4399 8.676811,11.9054 26.837578,-0.4036 -6.86073,9.4839"
         id="path3894"
         inkscape:connector-curvature="0" />
      <path
         style="fill:none;stroke:#000000;stroke-width:1px;stroke-linecap:butt;stroke-linejoin:miter;stroke-opacity:1"
         d="m 79.690206,4114.6479 0.807145,26.8376"
         id="path3896"
         inkscape:connector-curvature="0" />
      <path
         style="fill:none;stroke:#000000;stroke-width:1px;stroke-linecap:butt;stroke-linejoin:miter;stroke-opacity:1"
         d="m 104.30814,4142.7971 -1.00893,-13.7214 0.80714,-0.7063 -6.961631,-6.558 -5.952693,7.9705 -9.080384,-0.2018 0.504466,12.0063"
         id="path3898"
         inkscape:connector-curvature="0" />
      <path
         style="fill:none;stroke:#000000;stroke-width:1px;stroke-linecap:butt;stroke-linejoin:miter;stroke-opacity:1"
         d="m 80.497351,4140.9811 0,1.1098"
         id="path3900"
         inkscape:connector-curvature="0" />
      <path
         style="fill:none;stroke:#000000;stroke-width:1px;stroke-linecap:butt;stroke-linejoin:miter;stroke-opacity:1"
         d="m 91.091133,4130.2864 0.302679,12.3089"
         id="path3902"
         inkscape:connector-curvature="0" />
      <path
         style="fill:none;stroke:#000000;stroke-width:1px;stroke-linecap:butt;stroke-linejoin:miter;stroke-opacity:1"
         d="m 82.111642,4129.2775 6.154482,-8.3742 8.676815,0"
         id="path3904"
         inkscape:connector-curvature="0" />
      <path
         style="fill:none;stroke:#000000;stroke-width:1px;stroke-linecap:butt;stroke-linejoin:miter;stroke-opacity:1"
         d="m 95.227749,4142.2927 -0.70625,-10.0893 0.70625,-1.1099 1.21072,-0.4035 0.80715,-0.1009 1.21071,0.908 0.40358,1.3116 0.60536,9.7866"
         id="path3906"
         inkscape:connector-curvature="0" />
      <path
         style="fill:none;stroke:#000000;stroke-width:1px;stroke-linecap:butt;stroke-linejoin:miter;stroke-opacity:1"
         d="m 101.48313,4125.0399 19.47238,-0.4035 7.86966,-13.0152 8.27324,13.1161 -0.30268,0.5044 0.90804,16.6474"
         id="path3908"
         inkscape:connector-curvature="0" />
      <path
         style="fill:none;stroke:#000000;stroke-width:1px;stroke-linecap:butt;stroke-linejoin:miter;stroke-opacity:1"
         d="m 126.50463,4123.8292 -0.30268,-5.5491 2.11876,0.1009 0.20178,5.1455 z"
         id="path3910"
         inkscape:connector-curvature="0" />
      <path
         style="fill:none;stroke:#000000;stroke-width:1px;stroke-linecap:butt;stroke-linejoin:miter;stroke-opacity:1"
         d="m 121.56087,4125.0399 0.60536,17.5554"
         id="path3912"
         inkscape:connector-curvature="0" />
      <path
         style="fill:none;stroke:#000000;stroke-width:1px;stroke-linecap:butt;stroke-linejoin:miter;stroke-opacity:1"
         d="m 128.32071,4142.4945 -0.50447,-14.1251 0.70625,-1.0089 1.10983,-0.2018 1.00893,0.3027 0.70625,1.3116 0.40358,2.2196 0.20178,11.1992"
         id="path3914"
         inkscape:connector-curvature="0" />
      <path
         style="fill:none;stroke:#000000;stroke-width:1px;stroke-linecap:butt;stroke-linejoin:miter;stroke-opacity:1"
         d="m 97.750079,4141.5864 -0.50446,-9.4839 -0.60536,-0.6054 -1.21072,-0.3027"
         id="path3916"
         inkscape:connector-curvature="0" />
      <path
         style="fill:none;stroke:#000000;stroke-width:1px;stroke-linecap:butt;stroke-linejoin:miter;stroke-opacity:1"
         d="m 130.33857,4141.6873 -0.50446,-12.7125 -0.50447,-1.009 -0.90804,-0.2017"
         id="path3918"
         inkscape:connector-curvature="0" />
      <path
         style="fill:none;stroke:#000000;stroke-width:1px;stroke-linecap:butt;stroke-linejoin:miter;stroke-opacity:1"
         d="m 107.63761,4113.7399 21.49024,-2.1187"
         id="path3920"
         inkscape:connector-curvature="0" />
      <path
         style="fill:none;stroke:#000000;stroke-width:1px;stroke-linecap:butt;stroke-linejoin:miter;stroke-opacity:1"
         d="m 127.61446,4111.4194 -12.91433,-16.4456 -41.971552,-2.1188"
         id="path3922"
         inkscape:connector-curvature="0" />
      <path
         style="fill:none;stroke:#000000;stroke-width:1px;stroke-linecap:butt;stroke-linejoin:miter;stroke-opacity:1"
         d="m 48.485453,4143.6135 c 0.469947,-1.0966 0.266064,-0.6749 0.570738,-1.2842 0.04756,-0.095 0.05419,-0.2264 0.142684,-0.2854 0.07915,-0.053 0.195127,0.03 0.285369,0 0.06381,-0.021 0.09512,-0.095 0.142684,-0.1427 0.04756,-0.048 0.121415,-0.079 0.142685,-0.1426 0.03008,-0.09 -0.03008,-0.1952 0,-0.2854 -0.05333,-0.3109 0.237807,-0.048 0.285369,-0.1427 0.04254,-0.085 -0.04254,-0.2003 0,-0.2854 0.02127,-0.043 0.109053,0.034 0.142684,0 0.03363,-0.034 -0.03363,-0.109 0,-0.1427 0.03363,-0.034 0.121415,0.043 0.142685,0 0.04254,-0.085 -0.04254,-0.2002 0,-0.2853 0.142012,-0.284 0.179217,0.2853 0.142684,0.2853 -0.04756,0 0,-0.095 0,-0.1426 0,-0.048 0,-0.095 0,-0.1427 0,-0.048 -0.03363,-0.1091 0,-0.1427 0.03363,-0.034 0.109054,0.034 0.142685,0 0.07012,-0.07 -0.136587,-0.425 0.142684,-0.2854 0.315483,0.1578 0.04428,0.089 0.142685,0.2854 0.0702,0.1404 0.500535,0.4303 0.570738,0.5707 0.06381,0.1277 0,0.2854 0,0.4281 0,0.2854 0,0.5707 0,0.8561 0,0.1902 0,0.3805 0,0.5707 0,0.048 -0.04254,0.1214 0,0.1427 0.08508,0.043 0.200288,-0.042 0.285368,0 0.04254,0.021 -0.02127,0.1002 0,0.1427 0.473225,0.4732 -0.06726,-0.1345 0.142685,0.2854 0.296909,0.5938 -0.0099,-0.1526 0.285369,0.1427 0.03363,0.034 -0.03363,0.109 0,0.1426 0.03363,0.034 0.09512,0 0.142684,0 0,0.095 -0.04254,0.2003 0,0.2854 0.02127,0.042 0.109054,-0.034 0.142685,0 0.06726,0.067 -0.06726,0.2181 0,0.2854 0.03363,0.034 0.142684,0.048 0.142684,0 0,-0.067 -0.142684,-0.21 -0.142684,-0.1427 0,0.1063 0.09512,0.1902 0.142684,0.2854 0.04756,-0.2378 0.09512,-0.4757 0.142685,-0.7135 0.04756,-0.048 0.112604,-0.082 0.142684,-0.1426 0.02127,-0.043 0,-0.095 0,-0.1427 0,-0.095 -0.03008,-0.1952 0,-0.2854 0.04254,-0.1276 0.225208,-0.165 0.285369,-0.2854 0.02127,-0.042 -0.03363,-0.109 0,-0.1427 0.03363,-0.034 0.121414,0.042 0.142685,0 0.02605,-0.052 -0.02777,-0.6856 0,-0.7134 0.03363,-0.034 0.121414,0.043 0.142684,0 0.04254,-0.085 0,-0.1902 0,-0.2853 0,-0.2379 0,-0.4757 0,-0.7135 0,-0.2853 0,-0.5707 0,-0.8561 0,-0.1406 0,-0.426 0,-0.2853 0,0.095 0,0.3804 0,0.2853 0,-0.4756 -0.142684,-0.428 0.142685,-0.428"
         id="path3924"
         inkscape:connector-curvature="0" />
      <path
         style="fill:none;stroke:#000000;stroke-width:1px;stroke-linecap:butt;stroke-linejoin:miter;stroke-opacity:1"
         d="m 55.619676,4140.3317 c -0.303033,0.7576 -0.285369,0.4573 -0.285369,0.8561 0,0.095 0.03008,0.1951 0,0.2854 -0.176315,0.5289 -0.142684,-0.1739 -0.142684,0.2854 0,0.048 0,0.095 0,0.1426 0,0.048 0.04254,0.1215 0,0.1427 -0.08508,0.043 -0.200289,-0.042 -0.285369,0 -0.01865,0.01 0.0299,0.511 0,0.5708 -0.03008,0.06 -0.112604,0.082 -0.142685,0.1426 -0.02127,0.042 0,0.095 0,0.1427 0,0.048 0,0.095 0,0.1427 0,0.2378 0,0.4756 0,0.7134 0,0.048 0,0.095 0,0.1427 0,0.048 0.04756,0.1427 0,0.1427 -0.04756,0 0,-0.1902 0,-0.1427 0,0.095 0,0.1903 0,0.2854"
         id="path3928"
         inkscape:connector-curvature="0" />
      <path
         style="fill:none;stroke:#000000;stroke-width:1px;stroke-linecap:butt;stroke-linejoin:miter;stroke-opacity:1"
         d="m 57.759943,4140.6171 c 0,0.5707 0,1.1415 0,1.7122 0,0.064 -0.02171,0.3846 0,0.428 0.03008,0.06 0.112604,0.082 0.142685,0.1427 0.04254,0.085 -0.04254,0.2003 0,0.2854 0.03008,0.06 0.112604,0.082 0.142684,0.1427 0.04254,0.085 -0.04254,0.2003 0,0.2854 0.03008,0.06 0.112604,0.082 0.142685,0.1426 0.02127,0.043 -0.03363,0.1091 0,0.1427 0.03363,0.034 0.109053,-0.034 0.142684,0 0.03363,0.034 -0.03363,0.1091 0,0.1427 0.03363,0.034 0.121414,-0.043 0.142684,0 0.06381,0.1276 0,0.2854 0,0.4281"
         id="path3930"
         inkscape:connector-curvature="0" />
      <path
         style="fill:none;stroke:#000000;stroke-width:1px;stroke-linecap:butt;stroke-linejoin:miter;stroke-opacity:1"
         d="m 61.18437,4140.7598 c -0.190246,0 -0.570738,0.1902 -0.570738,0 0,-0.1903 0.655819,-0.1702 0.570738,0 -0.114543,0.2291 -0.513421,0.1253 -0.713422,0.2853 -0.07428,0.059 0.04254,0.2003 0,0.2854 -0.02127,0.042 -0.109053,-0.034 -0.142684,0 -0.03363,0.034 0.03363,0.1091 0,0.1427 -0.03363,0.034 -0.100145,-0.021 -0.142685,0 -0.06016,0.03 -0.08252,0.1126 -0.142684,0.1427 -0.04254,0.021 -0.100145,-0.021 -0.142685,0 -0.06016,0.03 -0.08252,0.1126 -0.142684,0.1427 -0.04254,0.021 -0.121415,-0.043 -0.142685,0 -0.04254,0.085 0.04254,0.2002 0,0.2853 -0.02127,0.043 -0.100144,-0.021 -0.142684,0 -0.0737,0.037 -0.665023,0.665 -0.713423,0.7134 -0.04756,0.048 -0.09512,0.095 -0.142684,0.1427 -0.04756,0.048 -0.07887,0.1214 -0.142685,0.1427 -0.09024,0.03 -0.195127,-0.03 -0.285368,0 -0.06381,0.021 -0.08252,0.1126 -0.142685,0.1427 -0.04254,0.021 -0.100144,-0.021 -0.142684,0 -0.06016,0.03 -0.08252,0.1126 -0.142685,0.1427 -0.04254,0.021 -0.109053,-0.034 -0.142684,0 -0.03363,0.034 0.03363,0.109 0,0.1427 -0.55686,0.5568 -0.07663,-0.033 -0.428054,0.1427 -0.06016,0.03 -0.09512,0.095 -0.142684,0.1426"
         id="path3932"
         inkscape:connector-curvature="0" />
      <path
         style="fill:none;stroke:#000000;stroke-width:1px;stroke-linecap:butt;stroke-linejoin:miter;stroke-opacity:1"
         d="m 63.039268,4141.0451 c 0,0.2378 0,0.4756 0,0.7135 -0.04756,0.095 -0.121827,0.181 -0.142684,0.2853 -0.02798,0.1399 0,0.2854 0,0.4281 -0.04756,0.1427 -0.106206,0.2821 -0.142684,0.428 -0.01465,0.059 0.0173,0.2681 0,0.2854 -0.03363,0.034 -0.109054,-0.034 -0.142685,0 -0.265113,0.2651 -1.93e-4,0.3806 -0.285369,0.5707 -0.08849,0.059 -0.19688,0.084 -0.285369,0.1427 -0.05596,0.037 -0.08252,0.1126 -0.142684,0.1427 -0.04254,0.021 -0.121415,-0.043 -0.142685,0 -0.04254,0.085 0.04254,0.2003 0,0.2854 -0.02127,0.042 -0.109053,-0.034 -0.142684,0 -0.03363,0.034 0.03363,0.109 0,0.1427 -0.03363,0.034 -0.109054,-0.034 -0.142685,0 -0.03363,0.034 0.03363,0.109 0,0.1426 -0.03363,0.034 -0.100144,-0.021 -0.142684,0 -0.06016,0.03 -0.08252,0.1126 -0.142685,0.1427 -0.04254,0.021 -0.142684,0.048 -0.142684,0 0,-0.048 0.09512,0 0.142684,0"
         id="path3934"
         inkscape:connector-curvature="0" />
      <path
         style="fill:none;stroke:#000000;stroke-width:1px;stroke-linecap:butt;stroke-linejoin:miter;stroke-opacity:1"
         d="m 65.179535,4140.0463 c 0,0.333 0,0.6659 0,0.9988 0,0.048 -0.02127,0.1002 0,0.1427 0.473225,0.4732 -0.06726,-0.1345 0.142685,0.2854 0.03008,0.06 0.112604,0.082 0.142684,0.1427 0.02127,0.043 -0.03363,0.109 0,0.1427 0.190246,0.1902 0.136915,-0.3027 0.285369,0.1426 0,0.8086 -0.09512,0.048 0.142685,0.2854 0.03363,0.034 -0.04254,0.1214 0,0.1427 0.08508,0.042 0.200288,-0.043 0.285369,0 0.04254,0.021 -0.03363,0.1091 0,0.1427 0.03363,0.034 0.100144,-0.021 0.142684,0 0.05904,0.03 0.387735,0.3676 0.428054,0.428 0.05899,0.089 0.08369,0.1969 0.142684,0.2854 0.03731,0.056 0.112604,0.082 0.142685,0.1427 0.02127,0.043 -0.03363,0.109 0,0.1427 0.03363,0.034 0.109053,-0.034 0.142684,0 0.03363,0.034 0,0.095 0,0.1427 0,0.048 0,0.095 0,0.1426"
         id="path3936"
         inkscape:connector-curvature="0" />
      <path
         style="fill:none;stroke:#000000;stroke-width:1px;stroke-linecap:butt;stroke-linejoin:miter;stroke-opacity:1"
         d="m 69.888123,4142.6147 c 0.313259,-0.3133 0.461597,-0.582 0.856107,-0.7135 0.04512,-0.015 0.100144,0.021 0.142684,0 0.06016,-0.03 0.08252,-0.1126 0.142685,-0.1426 0.04254,-0.021 0.09512,0 0.142684,0 0.04756,0 0.09512,0 0.142685,0 0.114866,0 0.481181,-0.03 0.570737,0 0.100894,0.034 0.184476,0.109 0.285369,0.1426 0.05552,0.019 0.405911,-0.022 0.428054,0 0.03363,0.034 -0.03363,0.1091 0,0.1427 0.03363,0.034 0.09512,0 0.142684,0 0.237808,0 0.475615,0 0.713423,0 0.570738,0 1.141475,0 1.712213,0 0.134386,0 0.632255,-0.027 0.713423,0 0.06381,0.021 0.08252,0.1126 0.142684,0.1427 0.04254,0.021 0.09512,0 0.142685,0 0.04756,0 0.09512,0 0.142684,0 0.142684,0 0.285369,0 0.428053,0 0.190246,0 0.383081,-0.031 0.570738,0 0.104904,0.017 0.182194,0.1169 0.285369,0.1427 0.111319,0.028 0.68957,0 0.856107,0 0.808545,0 1.617091,0 2.425636,0 0.190246,0 0.380492,0 0.570738,0 0.04756,0 0.09512,0 0.142684,0 0.04756,0 0.142685,-0.048 0.142685,0 0,0.048 -0.09512,0 -0.142685,0"
         id="path3938"
         inkscape:connector-curvature="0" />
      <path
         style="fill:none;stroke:#000000;stroke-width:1px;stroke-linecap:butt;stroke-linejoin:miter;stroke-opacity:1"
         d="m 82.016303,4143.7561 c 0,-0.4645 -0.06016,-0.5931 0.142684,-0.9988 0.03008,-0.06 0.112604,-0.083 0.142685,-0.1426 0.02127,-0.043 -0.03363,-0.1091 0,-0.1427 0.03363,-0.034 0.100144,0.021 0.142684,0 0.06016,-0.03 0.08252,-0.1126 0.142685,-0.1427 0.04254,-0.021 0.109053,0.034 0.142684,0 0.03363,-0.034 -0.03363,-0.1091 0,-0.1427 0.03363,-0.034 0.100144,0.021 0.142685,0 0.593818,-0.2969 -0.152535,0.01 0.142684,-0.2854 0.03363,-0.034 0.109053,0.034 0.142684,0 0.03363,-0.034 -0.03363,-0.109 0,-0.1426 0.03363,-0.034 0.109054,0.034 0.142685,0 0.03363,-0.034 -0.02127,-0.1002 0,-0.1427 0.03008,-0.06 0.112604,-0.082 0.142684,-0.1427 0.02127,-0.043 -0.02127,-0.1002 0,-0.1427 0.03008,-0.06 0.121415,-0.079 0.142685,-0.1427 0.03008,-0.09 -0.03008,-0.1951 0,-0.2854 0.02127,-0.064 0.105374,-0.087 0.142684,-0.1426 0.05899,-0.088 0.06748,-0.2102 0.142685,-0.2854 0.03363,-0.034 0.109053,0.034 0.142684,0 0.03363,-0.034 0,-0.095 0,-0.1427 0,-0.048 0,-0.095 0,-0.1427"
         id="path3940"
         inkscape:connector-curvature="0" />
      <path
         style="fill:none;stroke:#000000;stroke-width:1px;stroke-linecap:butt;stroke-linejoin:miter;stroke-opacity:1"
         d="m 85.298045,4141.4732 c -0.102225,0.1156 0.06191,1.1792 0,1.4268 -0.02579,0.1032 -0.109053,0.1845 -0.142684,0.2854 -0.01851,0.055 0.02214,0.4059 0,0.4281 -0.03363,0.034 -0.121414,-0.043 -0.142684,0 -0.02087,0.042 0,0.7393 0,0.8561 0,0.048 0.02127,0.1001 0,0.1426 -0.03008,0.06 -0.112604,0.083 -0.142685,0.1427 -0.04559,0.091 0.03828,0.4559 0,0.5708 -0.03363,0.1009 -0.109053,0.1844 -0.142684,0.2853 -0.03008,0.09 0,0.1903 0,0.2854"
         id="path3942"
         inkscape:connector-curvature="0" />
      <path
         style="fill:none;stroke:#000000;stroke-width:1px;stroke-linecap:butt;stroke-linejoin:miter;stroke-opacity:1"
         d="m 83.443147,4141.4732 c 0.12153,0.1115 0.930893,-0.07 1.141476,0 0.06381,0.021 0.07743,0.1264 0.142685,0.1427 0.811446,0 0.09394,-0.064 0.713422,0.1427 0.04512,0.015 0.100144,-0.021 0.142684,0 0.06016,0.03 0.08252,0.1126 0.142685,0.1426 0.114147,0.057 0.313906,-0.057 0.428053,0 0.06016,0.03 0.08252,0.1126 0.142685,0.1427 0.05104,0.026 0.406012,-0.044 0.428053,0 0.07097,0.142 -0.05645,0.3999 0,0.4281 0.08508,0.043 0.195128,-0.03 0.285369,0 0.528947,0.1763 -0.173925,0.1427 0.285369,0.1427 0.04756,0 0.121414,-0.043 0.142685,0 0.04254,0.085 -0.04254,0.2003 0,0.2853 0.02127,0.043 0.100144,-0.021 0.142684,0 0.593819,0.2969 -0.152535,-0.01 0.142684,0.2854 0.03363,0.034 0.121415,-0.043 0.142685,0 0.04254,0.085 -0.05276,0.2062 0,0.2854 0.142839,0.2142 0.911559,0.1427 1.141476,0.1427 0.380492,0 0.760984,0 1.141475,0 0.03391,0 0.538758,0.016 0.570738,0 0.06016,-0.03 0.08252,-0.1126 0.142685,-0.1427 0.05657,-0.028 0.398883,0.029 0.428053,0 0,-0.21 -0.03363,-0.1091 0.142685,-0.2854"
         id="path3944"
         inkscape:connector-curvature="0" />
      <path
         style="fill:none;stroke:#000000;stroke-width:1px;stroke-linecap:butt;stroke-linejoin:miter;stroke-opacity:1"
         d="m 68.746647,4142.6147 c 0,-0.333 0,-0.6659 0,-0.9988 0,-0.048 -0.03363,-0.1091 0,-0.1427 0.03363,-0.034 0.121415,0.042 0.142685,0 0.06381,-0.1276 0,-0.2854 0,-0.4281 0,-0.2853 0,-0.5707 0,-0.8561 0,-0.1563 0.01441,-0.5635 0,-0.5707 -7.34e-4,-4e-4 -0.973785,-0.012 -0.998792,0 -0.120322,0.06 -0.165046,0.2252 -0.285369,0.2854 -0.04254,0.021 -0.121414,-0.042 -0.142684,0 -0.04254,0.085 0,0.1902 0,0.2853 0,0.2854 0,0.5708 0,0.8561 0,0.048 0,0.095 0,0.1427 0,0.048 0.03363,0.1091 0,0.1427 -0.03363,0.034 -0.121414,-0.043 -0.142685,0 -0.04254,0.085 0.04254,0.2003 0,0.2854 -0.02127,0.043 -0.109053,-0.034 -0.142684,0 -0.06726,0.067 0.06726,0.2181 0,0.2853 -0.03363,0.034 -0.109053,-0.034 -0.142684,0 -0.03363,0.034 0,0.095 0,0.1427 0,0.048 0,0.095 0,0.1427 0,0.4281 0,0.8561 0,1.2842"
         id="path3946"
         inkscape:connector-curvature="0" />
      <path
         style="fill:none;stroke:#000000;stroke-width:1px;stroke-linecap:butt;stroke-linejoin:miter;stroke-opacity:1"
         d="m 55.191623,4143.0427 c 0.998791,0 1.997582,0 2.996374,0 0.166537,0 0.744788,-0.028 0.856106,0 0.103176,0.026 0.182194,0.1169 0.285369,0.1427 0.09228,0.023 0.193086,-0.023 0.285369,0 0.103176,0.026 0.182194,0.1169 0.285369,0.1427 0.138424,0.035 0.285369,0 0.428054,0"
         id="path3948"
         inkscape:connector-curvature="0" />
      <path
         style="fill:none;stroke:#000000;stroke-width:1px;stroke-linecap:butt;stroke-linejoin:miter;stroke-opacity:1"
         d="m 91.861531,4143.6135 c 0.949453,-0.034 1.905088,0.05 2.853688,0 0.47733,-0.025 0.94979,-0.1129 1.42685,-0.1427 0.28481,-0.018 0.57073,0 0.8561,0 0.66586,0 1.33172,0 1.99759,0 0.19024,0 0.38049,0 0.57073,0 0.0476,0 0.0951,0 0.14269,0 0.0476,0 0.14268,-0.048 0.14268,0 0,0.048 -0.19024,0 -0.14268,0 0.28537,0 0.570741,0 0.856101,0 0.14269,0 0.2927,0.045 0.42806,0 0.0638,-0.021 0.0789,-0.1214 0.14268,-0.1427 0.0902,-0.03 0.19025,0 0.28537,0 0.14269,0 0.28814,0.028 0.42805,0 0.10429,-0.021 0.18448,-0.1091 0.28537,-0.1427 0.11485,-0.038 0.47956,0.046 0.57074,0 0.0602,-0.03 0.0789,-0.1214 0.14269,-0.1427 0.18048,-0.06 0.38617,0.046 0.57073,0 0.10318,-0.026 0.1822,-0.1169 0.28537,-0.1427 0.0923,-0.023 0.19513,0.03 0.28537,0 0.52895,-0.1763 -0.17392,-0.1427 0.28537,-0.1427"
         id="path3950"
         inkscape:connector-curvature="0" />
      <path
         style="fill:none;stroke:#000000;stroke-width:1px;stroke-linecap:butt;stroke-linejoin:miter;stroke-opacity:1"
         d="m 95.285959,4141.9012 c -0.16583,0.3909 -0.14269,0.741 -0.14269,1.1415 0,0.048 0,0.095 0,0.1427 0,0.048 0.0476,0.1427 0,0.1427 -0.0476,0 0,-0.095 0,-0.1427"
         id="path3952"
         inkscape:connector-curvature="0" />
      <path
         style="fill:none;stroke:#000000;stroke-width:1px;stroke-linecap:butt;stroke-linejoin:miter;stroke-opacity:1"
         d="m 105.70193,4143.1854 c 0,-0.8085 0,-1.6171 0,-2.4256 0,-0.1344 -0.0271,-0.6323 0,-0.7135 0.0213,-0.064 0.1126,-0.082 0.14268,-0.1426 0.0425,-0.085 -0.0673,-0.2181 0,-0.2854 0.0336,-0.034 0.10905,0.034 0.14268,0 0.0336,-0.034 -0.0425,-0.1214 0,-0.1427 0.12763,-0.064 0.28537,0 0.42806,0 0.0476,0 0.0951,0 0.14268,0 0.0476,0 0.10015,-0.021 0.14269,0 0.0602,0.03 0.0825,0.1126 0.14268,0.1427 0.0425,0.021 0.10905,-0.034 0.14269,0 0.0336,0.034 -0.0336,0.109 0,0.1427 0.0336,0.034 0.10905,-0.034 0.14268,0 0.0336,0.034 -0.0336,0.109 0,0.1427 0.0336,0.034 0.10905,-0.034 0.14268,0 0.0336,0.034 -0.0336,0.109 0,0.1426 0.0336,0.034 0.10906,-0.034 0.14269,0 0.0336,0.034 -0.0425,0.1215 0,0.1427 0.0851,0.042 0.21811,-0.067 0.28537,0 0.40835,0.4084 -0.35601,0.1787 0.14268,0.4281 0.0425,0.021 0.0951,0 0.14269,0 0.0762,0 0.67258,-0.02 0.71342,0 0.0602,0.03 0.1126,0.082 0.14268,0.1427 0.0217,0.043 0,0.3638 0,0.428 0,0.4756 0,0.9512 0,1.4269 0,0.035 -0.005,0.4234 0,0.428 0.0336,0.034 0.10906,-0.034 0.14269,0 0.0336,0.034 -0.0336,0.1091 0,0.1427 0.0336,0.034 0.10905,-0.034 0.14268,0 0.0336,0.034 -0.0336,0.1091 0,0.1427 0.0336,0.034 0.10906,-0.034 0.14269,0 0.0713,0.071 -0.0714,0.3567 0,0.428 0.0336,0.034 0.0951,0 0.14268,0"
         id="path3954"
         inkscape:connector-curvature="0" />
      <path
         style="fill:none;stroke:#000000;stroke-width:1px;stroke-linecap:butt;stroke-linejoin:miter;stroke-opacity:1"
         d="m 110.5532,4143.1854 c 0,-0.3805 0,-0.761 0,-1.1415 0,-0.048 -0.0336,-0.109 0,-0.1427 0.0673,-0.067 0.2181,0.067 0.28537,0 0.0336,-0.034 -0.0425,-0.1214 0,-0.1426 0.0851,-0.043 0.19024,0 0.28537,0 0.0476,0 0.10905,0.034 0.14268,0 0.0673,-0.067 -0.0673,-0.2182 0,-0.2854 0.0336,-0.034 0.10905,0.034 0.14268,0 0.0336,-0.034 -0.0213,-0.1002 0,-0.1427 0.0301,-0.06 0.11261,-0.083 0.14269,-0.1427 0.0213,-0.042 0,-0.095 0,-0.1427 0.0476,-0.095 0.0837,-0.1968 0.14268,-0.2853 0.0373,-0.056 0.11261,-0.082 0.14269,-0.1427 0.0213,-0.043 -0.0425,-0.1214 0,-0.1427 0.0851,-0.043 0.19024,0 0.28537,0"
         id="path3956"
         inkscape:connector-curvature="0" />
      <path
         style="fill:none;stroke:#000000;stroke-width:1px;stroke-linecap:butt;stroke-linejoin:miter;stroke-opacity:1"
         d="m 112.83615,4141.0451 c 0.31545,0.6309 0.13497,0.4204 0.42805,0.7135 0.0476,0.048 0.0867,0.1053 0.14269,0.1426 0.0885,0.059 0.19688,0.084 0.28537,0.1427 0.056,0.037 0.0825,0.1126 0.14268,0.1427 0.0425,0.021 0.10905,-0.034 0.14268,0 0.0336,0.034 -0.0425,0.1214 0,0.1427 0.0851,0.042 0.20029,-0.043 0.28537,0 0.0425,0.021 -0.0425,0.1214 0,0.1427 0.0851,0.043 0.20029,-0.042 0.28537,0 0.0425,0.021 -0.0425,0.1214 0,0.1427 0.0851,0.042 0.20029,-0.043 0.28537,0 0.0425,0.021 -0.0336,0.109 0,0.1426 0.19025,0.1903 0.14269,-0.2378 0.14269,0.1427"
         id="path3958"
         inkscape:connector-curvature="0" />
      <path
         style="fill:none;stroke:#000000;stroke-width:1px;stroke-linecap:butt;stroke-linejoin:miter;stroke-opacity:1"
         d="m 109.55441,4140.189 c -0.0595,0.5314 0.59474,0.9522 0.71342,1.4269 0.0231,0.092 -0.0301,0.1951 0,0.2853 0.0425,0.1277 0.22521,0.1651 0.28537,0.2854 0.0213,0.042 -0.0336,0.1091 0,0.1427 0.0336,0.034 0.10905,-0.034 0.14268,0 0.0673,0.067 -0.0425,0.2003 0,0.2854 0.0301,0.06 0.11261,0.082 0.14269,0.1426 0.0213,0.042 -0.0336,0.1091 0,0.1427 0.0336,0.034 0.10905,-0.034 0.14268,0 0.0336,0.034 -0.0336,0.1091 0,0.1427 0.0713,0.071 0.35671,-0.071 0.42805,0 0.0336,0.034 -0.0336,0.1091 0,0.1427 0.0336,0.034 0.10906,-0.034 0.14269,0 0.0336,0.034 -0.0336,0.1091 0,0.1427 0.0336,0.034 0.10905,-0.034 0.14268,0 0,0.2099 -0.0336,0.109 0.14269,0.2854"
         id="path3960"
         inkscape:connector-curvature="0" />
      <path
         style="fill:none;stroke:#000000;stroke-width:1px;stroke-linecap:butt;stroke-linejoin:miter;stroke-opacity:1"
         d="m 115.68984,4143.3281 c -0.16134,0.8067 -0.14269,0.4709 -0.14269,0.9988 0,0.048 -0.007,-0.096 0,-0.1427 0.0409,-0.2864 -0.0232,-0.6191 0.14269,-0.8561 0.19668,-0.281 0.58538,-0.3602 0.85611,-0.5708 1.05187,-0.8181 -0.11098,-0.032 0.71342,-0.8561 0.12126,-0.1212 0.29414,-0.1782 0.42805,-0.2853 0.10505,-0.084 0.17344,-0.2108 0.28537,-0.2854 0.0396,-0.026 0.12141,0.042 0.14268,0 0.0425,-0.085 -0.0673,-0.2181 0,-0.2854 0.0673,-0.067 0.20029,0.042 0.28537,0 0.0425,-0.021 -0.0336,-0.109 0,-0.1427 0.0336,-0.034 0.12142,0.043 0.14269,0 0,-0.8085 -0.0951,-0.048 0.14268,-0.2853 0.0336,-0.034 -0.0476,-0.1427 0,-0.1427 0.0476,0 0,0.095 0,0.1427 0,0.048 0.0425,0.1214 0,0.1427 -0.52229,0.2611 -0.18192,-0.2069 -0.14268,-0.2854 0.0476,-0.095 0.0837,-0.1969 0.14268,-0.2854 0.0373,-0.056 0.0951,-0.095 0.14269,-0.1427"
         id="path3962"
         inkscape:connector-curvature="0" />
      <path
         style="fill:none;stroke:#000000;stroke-width:1px;stroke-linecap:butt;stroke-linejoin:miter;stroke-opacity:1"
         d="m 118.54353,4144.4696 c 0.19024,0 0.38165,0.021 0.57074,0 0.24103,-0.027 0.47277,-0.1126 0.71342,-0.1427 0.22195,-0.028 0.81383,0.037 0.99879,0 0.066,-0.013 0.0951,-0.095 0.14268,-0.1427 0.0951,0 0.19025,0 0.28537,0 0.0476,0 -0.10463,-0.028 -0.14268,0 -0.16143,0.1211 -0.29673,0.2748 -0.42806,0.428 -0.15476,0.1806 -0.25989,0.4026 -0.42805,0.5708 -0.41163,0.4116 -0.97687,0.6388 -1.42684,0.9988 -0.10505,0.084 -0.17002,0.2161 -0.28537,0.2853 -0.12897,0.077 -0.29353,0.075 -0.42806,0.1427 -0.17122,0.086 -0.25683,0.3425 -0.42805,0.4281 -0.0425,0.021 -0.16395,0.042 -0.14268,0 0.0602,-0.1203 0.20278,-0.1792 0.28537,-0.2854 0.25118,-0.3229 0.44546,-0.6896 0.71342,-0.9988 0.35241,-0.4066 0.77532,-0.7471 1.14147,-1.1415 0.25277,-0.2722 0.43732,-0.6076 0.71343,-0.8561 1.74832,-1.049 0.0106,0.1321 0.99879,-0.8561 0.10305,-0.103 0.4122,0.2537 0.14268,-0.2853 -0.007,-0.014 -0.41443,0 -0.57074,0"
         id="path3964"
         inkscape:connector-curvature="0" />
      <path
         style="fill:none;stroke:#000000;stroke-width:1px;stroke-linecap:butt;stroke-linejoin:miter;stroke-opacity:1"
         d="m 116.68863,4141.4732 c 0.25608,0.1805 0.58538,-0.09 0.85611,0 0.27557,0.092 0.0499,0.2424 0.14268,0.428 0.0213,0.042 0.10014,-0.021 0.14269,0 0.31548,0.1578 0.0443,0.089 0.14268,0.2854 0.0301,0.06 0.0825,0.1126 0.14268,0.1427 0.0425,0.021 0.12142,-0.043 0.14269,0 0.0425,0.085 0,0.1902 0,0.2854 0,0.048 -0.0336,0.109 0,0.1426 0.0336,0.034 0.12141,-0.043 0.14268,0 0,0.6496 -0.0673,0.01 0.14269,0.4281 0.0425,0.085 -0.0851,0.2428 0,0.2854 0.0851,0.042 0.20029,-0.043 0.28537,0 0.0257,0.013 -0.0388,0.493 0,0.5707 0.0301,0.06 0.1126,0.082 0.14268,0.1427 0.0425,0.085 -0.0425,0.2003 0,0.2854 0.0602,0.1203 0.21075,0.1734 0.28537,0.2853 0.059,0.088 0.0951,0.1903 0.14268,0.2854"
         id="path3966"
         inkscape:connector-curvature="0" />
      <path
         style="fill:none;stroke:#000000;stroke-width:1px;stroke-linecap:butt;stroke-linejoin:miter;stroke-opacity:1"
         d="m 121.68259,4142.6147 c 0.46894,0.1878 0.93815,0.1426 1.42684,0.1426 0.14269,0 0.28814,0.028 0.42805,0 0.1509,-0.03 0.66104,-0.3887 0.71343,-0.428 0.0538,-0.04 0.0867,-0.1054 0.14268,-0.1427 0.0885,-0.059 0.18448,-0.109 0.28537,-0.1427 0.0451,-0.015 0.12141,0.043 0.14268,0 0.0425,-0.085 -0.0425,-0.2003 0,-0.2853 0.0213,-0.043 0.0951,0 0.14269,0 0.0476,0 0.0951,0 0.14268,0 0.19025,0 0.3805,0 0.57074,0 0.42805,0 0.85611,0 1.28416,0 0.0476,0 0.0951,0 0.14269,0 0.0476,0 0.10905,-0.034 0.14268,0 0.0336,0.034 0,0.095 0,0.1426"
         id="path3968"
         inkscape:connector-curvature="0" />
      <path
         style="fill:none;stroke:#000000;stroke-width:1px;stroke-linecap:butt;stroke-linejoin:miter;stroke-opacity:1"
         d="m 132.52661,4144.1842 c -0.33293,0 -0.66587,0 -0.9988,0 -0.0476,0 -0.0951,0 -0.14268,0 -0.0476,0 -0.10014,0.021 -0.14268,0 -0.0822,-0.041 -0.14196,-0.2383 -0.28537,-0.1427 -0.31134,0.2076 -0.33223,0.4272 -0.57074,0.7134 -0.12918,0.155 -0.28537,0.2854 -0.42805,0.4281 -0.0951,0.1902 -0.16174,0.3976 -0.28537,0.5707 -0.11729,0.1642 -0.302,0.2705 -0.42806,0.4281 -0.13287,0.1661 -0.13496,0.4203 -0.28537,0.5707 -0.0336,0.034 0,-0.095 0,-0.1427 0,-0.2734 -0.0425,-0.067 0.28537,-0.2853 0.056,-0.037 0.0951,-0.095 0.14269,-0.1427 0.6543,-0.6543 -0.12032,0.1805 0.57074,-0.8561 0.16892,-0.2534 0.38376,-0.4731 0.57073,-0.7135 0.146,-0.1877 0.28983,-0.3772 0.42806,-0.5707 0.0997,-0.1395 0.17558,-0.2963 0.28537,-0.428 0.12918,-0.1551 0.28536,-0.2854 0.42805,-0.4281 0.0951,-0.095 0.17344,-0.2107 0.28537,-0.2854 0.0396,-0.026 0.10905,0.034 0.14268,0 0.0336,-0.034 0.0336,-0.109 0,-0.1427 -0.0336,-0.034 -0.0951,0 -0.14268,0 -0.39284,0 0.21788,-0.015 -0.57074,0.1427 -0.0933,0.019 -0.20029,-0.042 -0.28537,0 -0.12032,0.06 -0.16047,0.2354 -0.28537,0.2854 -0.13248,0.053 -0.28814,-0.028 -0.42805,0 -0.20857,0.042 -0.36217,0.2437 -0.57074,0.2854 -0.13991,0.028 -0.28537,0 -0.42805,0 -0.38049,0 -0.76099,0 -1.14148,0 -0.19024,0 -0.38049,0 -0.57074,0 -0.0476,0 -0.19024,0 -0.14268,0 0.0951,0 0.38049,0 0.28537,0 -0.14269,0 -0.30933,0.079 -0.42806,0 -0.0438,-0.029 0.0476,-0.6659 0,-0.7135 -0.0336,-0.034 -0.0951,0 -0.14268,0"
         id="path3970"
         inkscape:connector-curvature="0" />
      <path
         style="fill:none;stroke:#000000;stroke-width:1px;stroke-linecap:butt;stroke-linejoin:miter;stroke-opacity:1"
         d="m 125.82044,4143.7561 c -0.23781,0.1427 -0.46538,0.3041 -0.71343,0.4281 -0.0425,0.021 -0.0951,0 -0.14268,0 -0.19025,0 -0.38049,0 -0.57074,0 -0.28537,0 -0.57074,0 -0.85611,0"
         id="path3972"
         inkscape:connector-curvature="0" />
      <path
         style="fill:none;stroke:#000000;stroke-width:1px;stroke-linecap:butt;stroke-linejoin:miter;stroke-opacity:1"
         d="m 133.95345,4142.9 c 0.0434,-0.038 1.22716,0.046 1.28416,0 0.16609,-0.1328 0.1525,-0.4046 0.28537,-0.5707 0.22661,-0.2833 0.30767,-0.055 0.57074,-0.1427 0.52894,-0.1763 -0.17393,-0.1427 0.28537,-0.1427 0.0476,0 0.14268,-0.048 0.14268,0 0,0.048 -0.14268,-0.048 -0.14268,0 0,0.4175 0.20009,-0.028 0.28537,0.1427 0.0209,0.042 0,0.7393 0,0.8561"
         id="path3974"
         inkscape:connector-curvature="0" />
      <path
         style="fill:none;stroke:#000000;stroke-width:1px;stroke-linecap:butt;stroke-linejoin:miter;stroke-opacity:1"
         d="m 137.80593,4142.1866 c 0.61688,0.1542 0.57074,-0.053 0.57074,0.2854 0,0.048 -0.0213,0.1001 0,0.1427 0.0301,0.06 0.1126,0.082 0.14268,0.1426 0.0425,0.085 -0.0673,0.2182 0,0.2854 0.0336,0.034 0.10906,-0.034 0.14269,0 0.29522,0.2952 -0.45114,-0.011 0.14268,0.2854 0.0425,0.021 0.10906,-0.034 0.14269,0 0.0673,0.067 -0.0673,0.2181 0,0.2854 0.0336,0.034 0.10905,-0.034 0.14268,0 0.0336,0.034 -0.0425,0.1214 0,0.1426 0.12762,0.064 0.30043,-0.064 0.42805,0 0.0602,0.03 0.11261,0.083 0.14269,0.1427 0.0213,0.043 -0.0425,0.1214 0,0.1427 0.0851,0.042 0.20029,-0.043 0.28537,0 0.0425,0.021 -0.0336,0.1091 0,0.1427 0.0336,0.034 0.10905,-0.034 0.14268,0 0.0713,0.071 -0.0713,0.3567 0,0.428 0.19025,0.1903 0.14269,-0.2378 0.14269,0.1427"
         id="path3976"
         inkscape:connector-curvature="0" />
      <path
         style="fill:none;stroke:#000000;stroke-width:1px;stroke-linecap:butt;stroke-linejoin:miter;stroke-opacity:1"
         d="m 138.66204,4144.7549 c 0,-0.3329 0,-0.6658 0,-0.9988 0,-0.048 -0.0336,-0.109 0,-0.1426 0.0949,-0.095 0.19041,0.095 0.28537,0 0.0336,-0.034 -0.0336,-0.1091 0,-0.1427 0.0336,-0.034 0.10905,0.034 0.14268,0 0.0336,-0.034 -0.0336,-0.1091 0,-0.1427 0.0336,-0.034 0.12142,0.043 0.14269,0 0.19024,-0.3805 -0.20179,-0.1984 0.14268,-0.4281 0.0885,-0.059 0.19688,-0.084 0.28537,-0.1427 0.056,-0.037 0.0951,-0.095 0.14268,-0.1426 0.0951,-0.048 0.19688,-0.084 0.28537,-0.1427 0.056,-0.037 0.0825,-0.1126 0.14269,-0.1427 0.0425,-0.021 0.12141,0.042 0.14268,0 0.0425,-0.085 0,-0.1903 0,-0.2854"
         id="path3978"
         inkscape:connector-curvature="0" />
    </g>
    <g
       id="g3264"
       transform="matrix(1.3801081,0,0,1,-47.400209,5.7331572)">
      <path
         inkscape:connector-curvature="0"
         d="m 123.42385,3798.6914 c -0.84036,0.1302 -1.35828,0.2719 -2.75538,0.1359 -1.3971,-0.1359 -2.25089,-5.3025 -2.36731,-8.7016 -0.11642,-3.3991 0.23285,-8.5657 0.27165,-9.1095 0.0388,-0.5439 -0.0959,-1.2636 -0.38807,-1.6316 -2.25881,-2.8448 -2.82483,-7.017 -2.94944,-12.3726 -0.0744,-3.1995 0.64402,-6.8976 1.3971,-8.2937 1.29623,-2.403 2.97138,0.2478 3.11176,4.6555 0.0989,3.1047 -0.41308,5.5602 -1.33726,5.4098 -0.79969,-0.1302 -1.10521,-3.2632 -0.37624,-3.8398 -1.00967,-3.4412 -1.53294,2.0886 -1.16542,4.1076 0.95901,5.2683 2.94236,4.1042 3.9208,1.0094 1.42527,-6.3556 0.4366,-15.9691 -1.45448,-18.4641 -3.21043,-4.2357 -5.45498,3.4334 -5.71944,11.6494 -0.19404,12.2257 1.59855,21.7345 2.72337,26.7998 2.54819,11.4749 5.96063,22.4236 6.69448,37.0329 0.27043,5.7708 0.23956,12.2821 -0.91858,16.9792 -2.39973,9.7328 -6.12481,11.4315 -8.47218,3.6923 -1.94368,-6.4083 -2.55417,-15.8155 -1.17101,-23.4979 1.96465,-10.9122 1.79213,-18.331 -0.31047,-17.8111 1.05784,-14.1821 3.54919,-5.5211 3.60493,1.5989 0.0609,7.7807 -0.75783,10.3523 -1.45637,12.9668 -0.28391,1.0626 -0.23537,1.56 0.0377,0.9449 1.80005,-3.8121 3.46979,-2.9143 4.544,2.6629 1.68238,8.7346 -0.93909,17.259 -2.83365,13.7635 -0.84985,-1.568 -1.11323,-6.8896 -0.52968,-8.3746 0.4657,-0.9517 0.96561,-1.6062 1.41239,0.3711 -0.84653,0.659 -0.31294,3.4278 0.0811,2.6864 0.51283,-0.965 0.62683,-2.9664 0.19995,-4.598 -1.41238,-4.6218 -3.52392,-2.0686 -3.64882,5.381 -0.10565,6.3012 0.96919,9.9932 2.31157,11.0422 3.25499,2.5434 5.6587,-4.304 5.31922,-15.2652 -0.18954,-6.1201 -0.58212,-12.2381 -2.40612,-19.3082 -1.82399,-7.0701 -3.16815,-12.7791 -4.7229,-19.2356 -1.44267,-5.991 -2.88633,-12.9384 -2.4517,-30.6865 0.27239,-11.123 3.90439,-19.2532 6.49271,-17.7637 3.01619,1.7357 4.21527,7.1921 4.76848,12.4201 1.71535,16.2102 -0.76605,19.8628 -2.58908,28.2652 -0.85486,3.9401 -0.2464,10.6202 0.84023,10.4842 1.08664,-0.136 1.67024,0.079 2.17574,0 1.37979,-0.2162 1.36481,4.7011 0.11642,4.8947 z"
         id="path5488"
         style="fill:#000000;stroke:none" />
      <path
         inkscape:connector-curvature="0"
         d="m 123.42385,3910.3002 c -0.84036,-0.1303 -1.35828,-0.2719 -2.75538,-0.136 -1.3971,0.136 -2.25089,5.3026 -2.36731,8.7017 -0.11642,3.399 0.23285,8.5656 0.27165,9.1095 0.0388,0.5438 -0.0959,1.2636 -0.38807,1.6315 -2.25881,2.8449 -2.82483,7.0171 -2.94944,12.3727 -0.0744,3.1995 0.64402,6.8976 1.3971,8.2937 1.29623,2.403 2.97138,-0.2479 3.11176,-4.6556 0.0989,-3.1047 -0.41308,-5.5601 -1.33726,-5.4097 -0.79969,0.1302 -1.10521,3.2631 -0.37624,3.8398 -1.00967,3.4411 -1.53294,-2.0887 -1.16542,-4.1077 0.95901,-5.2683 2.94236,-4.1041 3.9208,-1.0093 1.42527,6.3556 0.4366,15.969 -1.45448,18.4641 -3.21043,4.2357 -5.45498,-3.4334 -5.71944,-11.6494 -0.19404,-12.2258 1.59855,-21.7345 2.72337,-26.7998 2.54819,-11.4749 5.96063,-22.4236 6.69448,-37.0329 0.27043,-5.7708 0.23956,-12.2821 -0.91858,-16.9793 -2.39973,-9.7327 -6.12481,-11.4314 -8.47218,-3.6922 -1.94368,6.4083 -2.55417,15.8155 -1.17101,23.4979 1.96465,10.9122 1.79213,18.331 -0.31047,17.8111 1.05784,14.182 3.54919,5.5211 3.60493,-1.599 0.0609,-7.7806 -0.75783,-10.3523 -1.45637,-12.9668 -0.28391,-1.0626 -0.23537,-1.56 0.0377,-0.9449 1.80005,3.8122 3.46979,2.9143 4.544,-2.6628 1.68238,-8.7346 -0.93909,-17.259 -2.83365,-13.7635 -0.84985,1.568 -1.11323,6.8896 -0.52968,8.3745 0.4657,0.9518 0.96561,1.6062 1.41239,-0.371 -0.84653,-0.6591 -0.31294,-3.4279 0.0811,-2.6864 0.51283,0.965 0.62683,2.9664 0.19995,4.598 -1.41238,4.6217 -3.52392,2.0685 -3.64882,-5.381 -0.10565,-6.3012 0.96919,-9.9933 2.31157,-11.0422 3.25499,-2.5434 5.6587,4.3039 5.31922,15.2652 -0.18954,6.12 -0.58212,12.2381 -2.40612,19.3082 -1.82399,7.07 -3.16815,12.779 -4.7229,19.2355 -1.44267,5.9911 -2.88633,12.9384 -2.4517,30.6866 0.27239,11.123 3.90439,19.2532 6.49271,17.7637 3.01619,-1.7357 4.21527,-7.1922 4.76848,-12.4201 1.71535,-16.2103 -0.76605,-19.8628 -2.58908,-28.2652 -0.85486,-3.9401 -0.2464,-10.6202 0.84023,-10.4842 1.08664,0.1359 1.67024,-0.079 2.17574,0 1.37979,0.2161 1.36481,-4.7012 0.11642,-4.8947 z"
         id="use5490"
         style="fill:#000000;stroke:none" />
      <path
         id="path3236"
         d="m 146.83914,3854.3523 c -0.37456,-4.7774 -2.36107,-6.4022 -3.56029,-6.2968 -0.89718,0.079 -5.14161,1.994 -6.84583,2.7273 -1.70422,0.7332 -3.85506,1.885 -5.26031,1.885 -1.40523,0 -4.07024,0.4211 -4.45894,0.4211 -0.38868,0 -0.47508,0.4254 -0.47508,1.2634 0,0.838 0.0864,1.2634 0.47508,1.2634 0.3887,0 3.05371,0.4211 4.45894,0.4211 1.40525,0 3.55609,1.1518 5.26031,1.885 1.70422,0.7332 5.94865,2.6485 6.84583,2.7273 1.19922,0.1054 3.18573,-1.5195 3.56029,-6.2968 z"
         style="fill:#000000;stroke:none"
         inkscape:connector-curvature="0" />
      <path
         id="path3234"
         d="m 144.01151,3833.8576 c -0.004,-0.4331 -0.0228,-0.8604 -0.0572,-1.3035 -0.27532,-3.5446 -1.39351,-5.6179 -2.48991,-4.5321 -1.72385,1.7073 -3.00375,9.0087 -4.73941,11.5709 -2.11079,3.1159 -3.52197,7.3458 -10.59502,10.7286 -0.2758,0.1319 -0.33281,1.112 0.20606,1.0629 7.54415,-0.6885 9.08502,-2.9586 10.64652,-3.73 2.17507,-1.0744 4.44139,-3.7466 5.54078,-6.1564 0.84515,-1.8526 1.51749,-4.6085 1.48822,-7.6404 z"
         style="fill:#000000;stroke:none"
         inkscape:connector-curvature="0" />
      <path
         id="path3232"
         d="m 144.01151,3874.2855 c -0.0528,-2.8078 -0.69589,-5.3421 -1.48822,-7.0789 -1.09939,-2.4099 -3.36571,-5.082 -5.54078,-6.1564 -1.5615,-0.7714 -3.10237,-3.0415 -10.64652,-3.73 -0.53887,-0.049 -0.48186,0.9309 -0.20606,1.0628 7.07305,3.3829 8.48423,7.6127 10.59502,10.7287 1.73566,2.5622 3.01556,9.8636 4.73941,11.5708 1.0964,1.0859 2.21459,-0.9874 2.48991,-4.5321 0.0344,-0.443 0.0531,-0.8703 0.0572,-1.3034 0.002,-0.1895 0.004,-0.3744 0,-0.5615 z"
         style="fill:#000000;stroke:none"
         inkscape:connector-curvature="0" />
      <path
         id="path3230"
         d="m 139.31216,3825.014 c -0.0252,-2.7186 -0.48887,-5.1896 -1.23065,-6.1364 -0.98903,-1.2623 -2.09897,0.6622 -2.47846,4.3115 -0.2409,2.3163 -1.36843,9.9407 -2.3182,12.6939 -1.2693,3.6795 -3.25534,8.6002 -7.54415,11.7714 -0.4692,0.347 -0.4983,1.1941 -0.0172,0.9626 5.02646,-2.4182 7.85169,-6.5122 8.97514,-8.2621 1.84926,-2.8803 4.10236,-8.9442 4.48185,-12.5936 0.0949,-0.9123 0.14007,-1.8411 0.13165,-2.7473 z"
         style="fill:#000000;stroke:none"
         inkscape:connector-curvature="0" />
      <path
         id="path3228"
         d="m 139.31216,3883.6906 c 0.008,-0.9062 -0.0368,-1.835 -0.13165,-2.7474 -0.37949,-3.6493 -2.63259,-9.7132 -4.48186,-12.5936 -1.12344,-1.7499 -3.94867,-5.8438 -8.97513,-8.262 -0.48112,-0.2315 -0.45202,0.6156 0.0172,0.9626 4.28881,3.1712 6.27484,8.0918 7.54415,11.7714 0.94977,2.7532 2.0773,10.3775 2.3182,12.6938 0.37948,3.6494 1.48943,5.5739 2.47846,4.3115 0.74177,-0.9467 1.2054,-3.4177 1.23064,-6.1363 z"
         style="fill:#000000;stroke:none"
         inkscape:connector-curvature="0" />
      <path
         id="path3222"
         d="m 129.83904,3825.5955 c 0,-3.5385 -0.63159,-6.397 -1.41382,-6.397 -0.78216,0 -1.41954,2.8585 -1.41954,6.397 0,1.2579 0.13606,2.3645 0.21753,3.4292 0.44746,5.8511 -1.83386,12.0927 -2.77612,15.1604 -0.33115,1.0781 0.0495,1.8956 0.20033,1.5241 0.21901,-0.5395 1.88075,-5.2034 3.3943,-9.3048 0.56284,-1.5251 1.79732,-5.6888 1.79732,-10.8089 z"
         style="fill:#000000;stroke:none"
         inkscape:connector-curvature="0" />
      <path
         id="path3220"
         d="m 129.83904,3883.109 c 0,-5.12 -1.23448,-9.2837 -1.79732,-10.8088 -1.51355,-4.1014 -3.17529,-8.7654 -3.3943,-9.3049 -0.15078,-0.3715 -0.53148,0.446 -0.20033,1.5241 0.94226,3.0677 3.22358,9.3094 2.77612,15.1605 -0.0815,1.0646 -0.21753,2.1712 -0.21753,3.4291 0,3.5386 0.63738,6.3971 1.41954,6.3971 0.78223,0 1.41382,-2.8585 1.41382,-6.3971 z"
         style="fill:#000000;stroke:none"
         inkscape:connector-curvature="0" />
      <path
         id="path3214"
         d="m 125.7407,3854.3523 c -0.68918,-4.2089 -1.65954,-7.1472 -2.86197,-9.0442 -0.99329,5.6763 -2.71804,7.0647 -4.34448,9.0442 1.62644,1.9795 3.35119,3.3679 4.34448,9.0441 1.20243,-1.897 2.17279,-4.8352 2.86197,-9.0441 z"
         style="fill:#000000;stroke:none"
         inkscape:connector-curvature="0" />
      <path
         id="path5492"
         d="m 115.81539,3854.3523 c -1.56755,-0.9635 -3.09419,-6.0562 -3.09419,-6.0562 -0.68145,1.1454 -1.27249,3.3361 -1.51112,6.0562 0.23863,2.7201 0.82967,4.9108 1.51112,6.0561 0,0 1.52664,-5.0926 3.09419,-6.0561 z"
         style="fill:#000000;stroke:none"
         inkscape:connector-curvature="0" />
      <path
         inkscape:connector-curvature="0"
         d="m 147.1883,3796.4018 c -0.99271,-2.504 -1.39097,-3.9054 -2.66164,-5.5748 -1.27066,-1.6694 -4.45162,-1.7521 -6.70845,-0.9626 -3.25054,1.1372 -9.01737,1.9452 -9.89097,1.9452 -1.11181,0 -1.11044,-1.2928 0.0801,-1.5241 3.89052,-0.7557 7.50488,-1.1142 9.49029,-2.3663 1.98542,-1.252 5.92591,-4.6537 7.94483,-11.8316 1.0334,-3.674 1.62821,-8.4952 1.66566,-14.3382 0.0259,-4.0431 -0.47203,-12.1857 -3.33705,-9.1645 1.11183,2.0868 1.05693,8.3896 0.67542,12.373 -0.52766,5.5095 -1.38886,7.2395 -3.69194,11.6912 -2.30308,4.4518 -5.20097,4.7227 -6.86872,5.8356 -1.66774,1.1129 -5.83916,1.2634 -6.55392,1.2634 -0.71475,0 -1.31152,1.2446 -2.02627,3.6096 -0.71475,2.365 -0.66969,3.9017 -0.66969,5.1538 0,1.252 0.27475,2.5544 0.27475,3.8903 0,1.3359 -0.27475,2.6384 -0.27475,3.8904 0,1.2521 -0.0451,2.7888 0.66969,5.1538 0.71475,2.365 1.31152,3.6096 2.02627,3.6096 0.71476,0 4.88618,0.1505 6.55392,1.2634 1.66775,1.1129 4.56564,1.3838 6.86872,5.8356 2.30308,4.4517 3.16428,6.1817 3.69194,11.6911 0.38151,3.9835 0.43641,10.2863 -0.67542,12.3731 2.86502,3.0212 3.36296,-5.1415 3.33705,-9.1845 -0.0375,-5.8431 -0.63226,-10.6442 -1.66566,-14.3182 -2.01892,-7.1779 -5.95941,-10.5796 -7.94483,-11.8316 -1.98541,-1.2521 -5.59977,-1.6106 -9.49029,-2.3663 -1.19058,-0.2313 -1.19195,-1.5241 -0.0801,-1.5241 0.8736,0 6.64043,0.808 9.89097,1.9452 2.25683,0.7895 5.43779,0.6868 6.70845,-0.9826 1.27067,-1.6694 1.66893,-3.0508 2.66164,-5.5549 z"
         id="path5494"
         style="fill:#000000;stroke:none" />
      <path
         inkscape:connector-curvature="0"
         d="m 147.1883,3912.95 c -0.99271,-2.5041 -1.39097,-3.9055 -2.66164,-5.5749 -1.27066,-1.6694 -4.45162,-1.7521 -6.70845,-0.9626 -3.25054,1.1372 -9.01737,1.9452 -9.89097,1.9452 -1.11181,0 -1.11044,-1.2928 0.0801,-1.524 3.89052,-0.7558 7.50488,-1.1143 9.49029,-2.3664 1.98542,-1.252 5.92591,-4.6537 7.94483,-11.8315 1.0334,-3.6741 1.62821,-8.4952 1.66566,-14.3383 0.0259,-4.0431 -0.47203,-12.1857 -3.33705,-9.1644 1.11183,2.0867 1.05693,8.3895 0.67542,12.373 -0.52766,5.5094 -1.38886,7.2395 -3.69194,11.6912 -2.30308,4.4517 -5.20097,4.7226 -6.86872,5.8355 -1.66774,1.113 -5.83916,1.2634 -6.55392,1.2634 -0.71475,0 -1.31152,1.2447 -2.02627,3.6096 -0.71475,2.365 -0.66969,3.9017 -0.66969,5.1538 0,1.252 0.27475,2.5545 0.27475,3.8904 0,1.3359 -0.27475,2.6383 -0.27475,3.8904 0,1.252 -0.0451,2.7887 0.66969,5.1537 0.71475,2.365 1.31152,3.6096 2.02627,3.6096 0.71476,0 4.88618,0.1505 6.55392,1.2634 1.66775,1.1129 4.56564,1.3839 6.86872,5.8356 2.30308,4.4517 3.16428,6.1817 3.69194,11.6912 0.38151,3.9834 0.43641,10.2863 -0.67542,12.373 2.86502,3.0212 3.36296,-5.1414 3.33705,-9.1845 -0.0375,-5.8431 -0.63226,-10.6442 -1.66566,-14.3182 -2.01892,-7.1778 -5.95941,-10.5795 -7.94483,-11.8316 -1.98541,-1.252 -5.59977,-1.6106 -9.49029,-2.3663 -1.19058,-0.2313 -1.19195,-1.5241 -0.0801,-1.5241 0.8736,0 6.64043,0.8081 9.89097,1.9452 2.25683,0.7895 5.43779,0.6868 6.70845,-0.9826 1.27067,-1.6694 1.66893,-3.0507 2.66164,-5.5548 z"
         id="use5496"
         style="fill:#000000;stroke:none" />
      <path
         id="path3210"
         d="m 146.83914,3969.7172 c -0.37456,-4.7774 -2.36107,-6.4022 -3.56029,-6.2968 -0.89718,0.079 -5.14161,1.994 -6.84583,2.7272 -1.70422,0.7333 -3.85506,1.8851 -5.26031,1.8851 -1.40523,0 -4.07024,0.4211 -4.45894,0.4211 -0.38868,0 -0.47508,0.4254 -0.47508,1.2634 0,0.838 0.0864,1.2633 0.47508,1.2633 0.3887,0 3.05371,0.4212 4.45894,0.4212 1.40525,0 3.55609,1.1518 5.26031,1.885 1.70422,0.7332 5.94865,2.6484 6.84583,2.7273 1.19922,0.1053 3.18573,-1.5195 3.56029,-6.2968 z"
         style="fill:#000000;stroke:none"
         inkscape:connector-curvature="0" />
      <path
         id="path3208"
         d="m 144.01151,3949.2225 c -0.004,-0.4331 -0.0228,-0.8604 -0.0572,-1.3035 -0.27532,-3.5446 -1.39351,-5.6179 -2.48991,-4.5321 -1.72385,1.7072 -3.00375,9.0087 -4.73941,11.5709 -2.11079,3.1159 -3.52197,7.3457 -10.59502,10.7286 -0.2758,0.1319 -0.33281,1.112 0.20606,1.0629 7.54415,-0.6885 9.08502,-2.9587 10.64652,-3.73 2.17507,-1.0744 4.44139,-3.7466 5.54078,-6.1564 0.84515,-1.8526 1.51749,-4.6085 1.48822,-7.6404 z"
         style="fill:#000000;stroke:none"
         inkscape:connector-curvature="0" />
      <path
         id="path3204"
         d="m 139.31216,3940.3789 c -0.0252,-2.7186 -0.48887,-5.1896 -1.23065,-6.1364 -0.98903,-1.2623 -2.09897,0.6622 -2.47846,4.3115 -0.2409,2.3163 -1.36843,9.9407 -2.3182,12.6939 -1.2693,3.6795 -3.25534,8.6002 -7.54415,11.7714 -0.4692,0.347 -0.4983,1.194 -0.0172,0.9626 5.02646,-2.4182 7.85169,-6.5122 8.97514,-8.2621 1.84926,-2.8803 4.10236,-8.9442 4.48185,-12.5936 0.0949,-0.9123 0.14007,-1.8411 0.13165,-2.7473 z"
         style="fill:#000000;stroke:none"
         inkscape:connector-curvature="0" />
      <path
         id="path3196"
         d="m 129.83904,3940.9604 c 0,-3.5385 -0.63159,-6.397 -1.41382,-6.397 -0.78216,0 -1.41954,2.8585 -1.41954,6.397 0,1.2579 0.13606,2.3645 0.21753,3.4292 0.44746,5.8511 -1.83386,12.0927 -2.77612,15.1604 -0.33115,1.0781 0.0495,1.8956 0.20033,1.5241 0.21901,-0.5395 1.88075,-5.2034 3.3943,-9.3048 0.56284,-1.5251 1.79732,-5.6889 1.79732,-10.8089 z"
         style="fill:#000000;stroke:none"
         inkscape:connector-curvature="0" />
      <path
         id="path3188"
         d="m 125.7407,3969.7172 c -0.68918,-4.2089 -1.65954,-7.1472 -2.86197,-9.0442 -0.99329,5.6763 -2.71804,7.0647 -4.34448,9.0442 1.62644,1.9795 3.35119,3.3679 4.34448,9.0441 1.20243,-1.897 2.17279,-4.8352 2.86197,-9.0441 z"
         style="fill:#000000;stroke:none"
         inkscape:connector-curvature="0" />
      <path
         id="use5498"
         d="m 115.81539,3969.7172 c -1.56755,-0.9635 -3.09419,-6.0562 -3.09419,-6.0562 -0.68145,1.1454 -1.27249,3.3361 -1.51112,6.0562 0.23863,2.7201 0.82967,4.9108 1.51112,6.0561 0,0 1.52664,-5.0926 3.09419,-6.0561 z"
         style="fill:#000000;stroke:none"
         inkscape:connector-curvature="0" />
      <path
         id="path3262"
         d="m 146.83914,3740.2082 c -0.37456,-4.7774 -2.36107,-6.4022 -3.56029,-6.2968 -0.89718,0.079 -5.14161,1.994 -6.84583,2.7273 -1.70422,0.7332 -3.85506,1.885 -5.26031,1.885 -1.40523,0 -4.07024,0.4211 -4.45894,0.4211 -0.38868,0 -0.47508,0.4254 -0.47508,1.2634 0,0.838 0.0864,1.2634 0.47508,1.2634 0.3887,0 3.05371,0.4211 4.45894,0.4211 1.40525,0 3.55609,1.1518 5.26031,1.885 1.70422,0.7333 5.94865,2.6485 6.84583,2.7273 1.19922,0.1054 3.18573,-1.5195 3.56029,-6.2968 z"
         style="fill:#000000;stroke:none"
         inkscape:connector-curvature="0" />
      <path
         id="path3258"
         d="m 144.01151,3760.1414 c -0.0528,-2.8078 -0.69589,-5.3421 -1.48822,-7.0789 -1.09939,-2.4099 -3.36571,-5.082 -5.54078,-6.1564 -1.5615,-0.7714 -3.10237,-3.0415 -10.64652,-3.73 -0.53887,-0.049 -0.48186,0.9309 -0.20606,1.0628 7.07305,3.3829 8.48423,7.6128 10.59502,10.7287 1.73566,2.5622 3.01556,9.8636 4.73941,11.5708 1.0964,1.0859 2.21459,-0.9874 2.48991,-4.532 0.0344,-0.4431 0.0531,-0.8704 0.0572,-1.3035 0.002,-0.1895 0.004,-0.3743 0,-0.5615 z"
         style="fill:#000000;stroke:none"
         inkscape:connector-curvature="0" />
      <path
         id="path3254"
         d="m 139.31216,3769.5465 c 0.008,-0.9062 -0.0368,-1.835 -0.13165,-2.7474 -0.37949,-3.6493 -2.63259,-9.7132 -4.48186,-12.5936 -1.12344,-1.7498 -3.94867,-5.8438 -8.97513,-8.262 -0.48112,-0.2315 -0.45202,0.6156 0.0172,0.9626 4.28881,3.1712 6.27484,8.0918 7.54415,11.7714 0.94977,2.7532 2.0773,10.3775 2.3182,12.6938 0.37948,3.6494 1.48943,5.5739 2.47846,4.3115 0.74177,-0.9467 1.2054,-3.4177 1.23064,-6.1363 z"
         style="fill:#000000;stroke:none"
         inkscape:connector-curvature="0" />
      <path
         id="path3246"
         d="m 129.83904,3768.9649 c 0,-5.12 -1.23448,-9.2837 -1.79732,-10.8088 -1.51355,-4.1014 -3.17529,-8.7654 -3.3943,-9.3049 -0.15078,-0.3715 -0.53148,0.4461 -0.20033,1.5241 0.94226,3.0677 3.22358,9.3094 2.77612,15.1605 -0.0815,1.0646 -0.21753,2.1712 -0.21753,3.4291 0,3.5386 0.63738,6.3971 1.41954,6.3971 0.78223,0 1.41382,-2.8585 1.41382,-6.3971 z"
         style="fill:#000000;stroke:none"
         inkscape:connector-curvature="0" />
      <path
         id="path3240"
         d="m 125.7407,3740.2082 c -0.68918,-4.2089 -1.65954,-7.1472 -2.86197,-9.0441 -0.99329,5.6762 -2.71804,7.0646 -4.34448,9.0441 1.62644,1.9795 3.35119,3.3679 4.34448,9.0441 1.20243,-1.8969 2.17279,-4.8352 2.86197,-9.0441 z"
         style="fill:#000000;stroke:none"
         inkscape:connector-curvature="0" />
      <path
         id="use5500"
         d="m 115.81539,3740.2082 c -1.56755,-0.9635 -3.09419,-6.0562 -3.09419,-6.0562 -0.68145,1.1454 -1.27249,3.3361 -1.51112,6.0562 0.23863,2.7201 0.82967,4.9108 1.51112,6.0561 0,0 1.52664,-5.0926 3.09419,-6.0561 z"
         style="fill:#000000;stroke:none"
         inkscape:connector-curvature="0" />
    </g>
    <g
       transform="matrix(-1.3801081,0,0,1,210.63911,5.7331572)"
       id="g3343">
      <path
         style="fill:#000000;stroke:none"
         id="path3345"
         d="m 123.42385,3798.6914 c -0.84036,0.1302 -1.35828,0.2719 -2.75538,0.1359 -1.3971,-0.1359 -2.25089,-5.3025 -2.36731,-8.7016 -0.11642,-3.3991 0.23285,-8.5657 0.27165,-9.1095 0.0388,-0.5439 -0.0959,-1.2636 -0.38807,-1.6316 -2.25881,-2.8448 -2.82483,-7.017 -2.94944,-12.3726 -0.0744,-3.1995 0.64402,-6.8976 1.3971,-8.2937 1.29623,-2.403 2.97138,0.2478 3.11176,4.6555 0.0989,3.1047 -0.41308,5.5602 -1.33726,5.4098 -0.79969,-0.1302 -1.10521,-3.2632 -0.37624,-3.8398 -1.00967,-3.4412 -1.53294,2.0886 -1.16542,4.1076 0.95901,5.2683 2.94236,4.1042 3.9208,1.0094 1.42527,-6.3556 0.4366,-15.9691 -1.45448,-18.4641 -3.21043,-4.2357 -5.45498,3.4334 -5.71944,11.6494 -0.19404,12.2257 1.59855,21.7345 2.72337,26.7998 2.54819,11.4749 5.96063,22.4236 6.69448,37.0329 0.27043,5.7708 0.23956,12.2821 -0.91858,16.9792 -2.39973,9.7328 -6.12481,11.4315 -8.47218,3.6923 -1.94368,-6.4083 -2.55417,-15.8155 -1.17101,-23.4979 1.96465,-10.9122 1.79213,-18.331 -0.31047,-17.8111 1.05784,-14.1821 3.54919,-5.5211 3.60493,1.5989 0.0609,7.7807 -0.75783,10.3523 -1.45637,12.9668 -0.28391,1.0626 -0.23537,1.56 0.0377,0.9449 1.80005,-3.8121 3.46979,-2.9143 4.544,2.6629 1.68238,8.7346 -0.93909,17.259 -2.83365,13.7635 -0.84985,-1.568 -1.11323,-6.8896 -0.52968,-8.3746 0.4657,-0.9517 0.96561,-1.6062 1.41239,0.3711 -0.84653,0.659 -0.31294,3.4278 0.0811,2.6864 0.51283,-0.965 0.62683,-2.9664 0.19995,-4.598 -1.41238,-4.6218 -3.52392,-2.0686 -3.64882,5.381 -0.10565,6.3012 0.96919,9.9932 2.31157,11.0422 3.25499,2.5434 5.6587,-4.304 5.31922,-15.2652 -0.18954,-6.1201 -0.58212,-12.2381 -2.40612,-19.3082 -1.82399,-7.0701 -3.16815,-12.7791 -4.7229,-19.2356 -1.44267,-5.991 -2.88633,-12.9384 -2.4517,-30.6865 0.27239,-11.123 3.90439,-19.2532 6.49271,-17.7637 3.01619,1.7357 4.21527,7.1921 4.76848,12.4201 1.71535,16.2102 -0.76605,19.8628 -2.58908,28.2652 -0.85486,3.9401 -0.2464,10.6202 0.84023,10.4842 1.08664,-0.136 1.67024,0.079 2.17574,0 1.37979,-0.2162 1.36481,4.7011 0.11642,4.8947 z"
         inkscape:connector-curvature="0" />
      <path
         style="fill:#000000;stroke:none"
         id="path3347"
         d="m 123.42385,3910.3002 c -0.84036,-0.1303 -1.35828,-0.2719 -2.75538,-0.136 -1.3971,0.136 -2.25089,5.3026 -2.36731,8.7017 -0.11642,3.399 0.23285,8.5656 0.27165,9.1095 0.0388,0.5438 -0.0959,1.2636 -0.38807,1.6315 -2.25881,2.8449 -2.82483,7.0171 -2.94944,12.3727 -0.0744,3.1995 0.64402,6.8976 1.3971,8.2937 1.29623,2.403 2.97138,-0.2479 3.11176,-4.6556 0.0989,-3.1047 -0.41308,-5.5601 -1.33726,-5.4097 -0.79969,0.1302 -1.10521,3.2631 -0.37624,3.8398 -1.00967,3.4411 -1.53294,-2.0887 -1.16542,-4.1077 0.95901,-5.2683 2.94236,-4.1041 3.9208,-1.0093 1.42527,6.3556 0.4366,15.969 -1.45448,18.4641 -3.21043,4.2357 -5.45498,-3.4334 -5.71944,-11.6494 -0.19404,-12.2258 1.59855,-21.7345 2.72337,-26.7998 2.54819,-11.4749 5.96063,-22.4236 6.69448,-37.0329 0.27043,-5.7708 0.23956,-12.2821 -0.91858,-16.9793 -2.39973,-9.7327 -6.12481,-11.4314 -8.47218,-3.6922 -1.94368,6.4083 -2.55417,15.8155 -1.17101,23.4979 1.96465,10.9122 1.79213,18.331 -0.31047,17.8111 1.05784,14.182 3.54919,5.5211 3.60493,-1.599 0.0609,-7.7806 -0.75783,-10.3523 -1.45637,-12.9668 -0.28391,-1.0626 -0.23537,-1.56 0.0377,-0.9449 1.80005,3.8122 3.46979,2.9143 4.544,-2.6628 1.68238,-8.7346 -0.93909,-17.259 -2.83365,-13.7635 -0.84985,1.568 -1.11323,6.8896 -0.52968,8.3745 0.4657,0.9518 0.96561,1.6062 1.41239,-0.371 -0.84653,-0.6591 -0.31294,-3.4279 0.0811,-2.6864 0.51283,0.965 0.62683,2.9664 0.19995,4.598 -1.41238,4.6217 -3.52392,2.0685 -3.64882,-5.381 -0.10565,-6.3012 0.96919,-9.9933 2.31157,-11.0422 3.25499,-2.5434 5.6587,4.3039 5.31922,15.2652 -0.18954,6.12 -0.58212,12.2381 -2.40612,19.3082 -1.82399,7.07 -3.16815,12.779 -4.7229,19.2355 -1.44267,5.9911 -2.88633,12.9384 -2.4517,30.6866 0.27239,11.123 3.90439,19.2532 6.49271,17.7637 3.01619,-1.7357 4.21527,-7.1922 4.76848,-12.4201 1.71535,-16.2103 -0.76605,-19.8628 -2.58908,-28.2652 -0.85486,-3.9401 -0.2464,-10.6202 0.84023,-10.4842 1.08664,0.1359 1.67024,-0.079 2.17574,0 1.37979,0.2161 1.36481,-4.7012 0.11642,-4.8947 z"
         inkscape:connector-curvature="0" />
      <path
         inkscape:connector-curvature="0"
         style="fill:#000000;stroke:none"
         d="m 146.83914,3854.3523 c -0.37456,-4.7774 -2.36107,-6.4022 -3.56029,-6.2968 -0.89718,0.079 -5.14161,1.994 -6.84583,2.7273 -1.70422,0.7332 -3.85506,1.885 -5.26031,1.885 -1.40523,0 -4.07024,0.4211 -4.45894,0.4211 -0.38868,0 -0.47508,0.4254 -0.47508,1.2634 0,0.838 0.0864,1.2634 0.47508,1.2634 0.3887,0 3.05371,0.4211 4.45894,0.4211 1.40525,0 3.55609,1.1518 5.26031,1.885 1.70422,0.7332 5.94865,2.6485 6.84583,2.7273 1.19922,0.1054 3.18573,-1.5195 3.56029,-6.2968 z"
         id="path3349" />
      <path
         inkscape:connector-curvature="0"
         style="fill:#000000;stroke:none"
         d="m 144.01151,3833.8576 c -0.004,-0.4331 -0.0228,-0.8604 -0.0572,-1.3035 -0.27532,-3.5446 -1.39351,-5.6179 -2.48991,-4.5321 -1.72385,1.7073 -3.00375,9.0087 -4.73941,11.5709 -2.11079,3.1159 -3.52197,7.3458 -10.59502,10.7286 -0.2758,0.1319 -0.33281,1.112 0.20606,1.0629 7.54415,-0.6885 9.08502,-2.9586 10.64652,-3.73 2.17507,-1.0744 4.44139,-3.7466 5.54078,-6.1564 0.84515,-1.8526 1.51749,-4.6085 1.48822,-7.6404 z"
         id="path3351" />
      <path
         inkscape:connector-curvature="0"
         style="fill:#000000;stroke:none"
         d="m 144.01151,3874.2855 c -0.0528,-2.8078 -0.69589,-5.3421 -1.48822,-7.0789 -1.09939,-2.4099 -3.36571,-5.082 -5.54078,-6.1564 -1.5615,-0.7714 -3.10237,-3.0415 -10.64652,-3.73 -0.53887,-0.049 -0.48186,0.9309 -0.20606,1.0628 7.07305,3.3829 8.48423,7.6127 10.59502,10.7287 1.73566,2.5622 3.01556,9.8636 4.73941,11.5708 1.0964,1.0859 2.21459,-0.9874 2.48991,-4.5321 0.0344,-0.443 0.0531,-0.8703 0.0572,-1.3034 0.002,-0.1895 0.004,-0.3744 0,-0.5615 z"
         id="path3353" />
      <path
         inkscape:connector-curvature="0"
         style="fill:#000000;stroke:none"
         d="m 139.31216,3825.014 c -0.0252,-2.7186 -0.48887,-5.1896 -1.23065,-6.1364 -0.98903,-1.2623 -2.09897,0.6622 -2.47846,4.3115 -0.2409,2.3163 -1.36843,9.9407 -2.3182,12.6939 -1.2693,3.6795 -3.25534,8.6002 -7.54415,11.7714 -0.4692,0.347 -0.4983,1.1941 -0.0172,0.9626 5.02646,-2.4182 7.85169,-6.5122 8.97514,-8.2621 1.84926,-2.8803 4.10236,-8.9442 4.48185,-12.5936 0.0949,-0.9123 0.14007,-1.8411 0.13165,-2.7473 z"
         id="path3355" />
      <path
         inkscape:connector-curvature="0"
         style="fill:#000000;stroke:none"
         d="m 139.31216,3883.6906 c 0.008,-0.9062 -0.0368,-1.835 -0.13165,-2.7474 -0.37949,-3.6493 -2.63259,-9.7132 -4.48186,-12.5936 -1.12344,-1.7499 -3.94867,-5.8438 -8.97513,-8.262 -0.48112,-0.2315 -0.45202,0.6156 0.0172,0.9626 4.28881,3.1712 6.27484,8.0918 7.54415,11.7714 0.94977,2.7532 2.0773,10.3775 2.3182,12.6938 0.37948,3.6494 1.48943,5.5739 2.47846,4.3115 0.74177,-0.9467 1.2054,-3.4177 1.23064,-6.1363 z"
         id="path3357" />
      <path
         inkscape:connector-curvature="0"
         style="fill:#000000;stroke:none"
         d="m 129.83904,3825.5955 c 0,-3.5385 -0.63159,-6.397 -1.41382,-6.397 -0.78216,0 -1.41954,2.8585 -1.41954,6.397 0,1.2579 0.13606,2.3645 0.21753,3.4292 0.44746,5.8511 -1.83386,12.0927 -2.77612,15.1604 -0.33115,1.0781 0.0495,1.8956 0.20033,1.5241 0.21901,-0.5395 1.88075,-5.2034 3.3943,-9.3048 0.56284,-1.5251 1.79732,-5.6888 1.79732,-10.8089 z"
         id="path3359" />
      <path
         inkscape:connector-curvature="0"
         style="fill:#000000;stroke:none"
         d="m 129.83904,3883.109 c 0,-5.12 -1.23448,-9.2837 -1.79732,-10.8088 -1.51355,-4.1014 -3.17529,-8.7654 -3.3943,-9.3049 -0.15078,-0.3715 -0.53148,0.446 -0.20033,1.5241 0.94226,3.0677 3.22358,9.3094 2.77612,15.1605 -0.0815,1.0646 -0.21753,2.1712 -0.21753,3.4291 0,3.5386 0.63738,6.3971 1.41954,6.3971 0.78223,0 1.41382,-2.8585 1.41382,-6.3971 z"
         id="path3361" />
      <path
         inkscape:connector-curvature="0"
         style="fill:#000000;stroke:none"
         d="m 125.7407,3854.3523 c -0.68918,-4.2089 -1.65954,-7.1472 -2.86197,-9.0442 -0.99329,5.6763 -2.71804,7.0647 -4.34448,9.0442 1.62644,1.9795 3.35119,3.3679 4.34448,9.0441 1.20243,-1.897 2.17279,-4.8352 2.86197,-9.0441 z"
         id="path3363" />
      <path
         inkscape:connector-curvature="0"
         style="fill:#000000;stroke:none"
         d="m 115.81539,3854.3523 c -1.56755,-0.9635 -3.09419,-6.0562 -3.09419,-6.0562 -0.68145,1.1454 -1.27249,3.3361 -1.51112,6.0562 0.23863,2.7201 0.82967,4.9108 1.51112,6.0561 0,0 1.52664,-5.0926 3.09419,-6.0561 z"
         id="path3365" />
      <path
         style="fill:#000000;stroke:none"
         id="path3367"
         d="m 147.1883,3796.4018 c -0.99271,-2.504 -1.39097,-3.9054 -2.66164,-5.5748 -1.27066,-1.6694 -4.45162,-1.7521 -6.70845,-0.9626 -3.25054,1.1372 -9.01737,1.9452 -9.89097,1.9452 -1.11181,0 -1.11044,-1.2928 0.0801,-1.5241 3.89052,-0.7557 7.50488,-1.1142 9.49029,-2.3663 1.98542,-1.252 5.92591,-4.6537 7.94483,-11.8316 1.0334,-3.674 1.62821,-8.4952 1.66566,-14.3382 0.0259,-4.0431 -0.47203,-12.1857 -3.33705,-9.1645 1.11183,2.0868 1.05693,8.3896 0.67542,12.373 -0.52766,5.5095 -1.38886,7.2395 -3.69194,11.6912 -2.30308,4.4518 -5.20097,4.7227 -6.86872,5.8356 -1.66774,1.1129 -5.83916,1.2634 -6.55392,1.2634 -0.71475,0 -1.31152,1.2446 -2.02627,3.6096 -0.71475,2.365 -0.66969,3.9017 -0.66969,5.1538 0,1.252 0.27475,2.5544 0.27475,3.8903 0,1.3359 -0.27475,2.6384 -0.27475,3.8904 0,1.2521 -0.0451,2.7888 0.66969,5.1538 0.71475,2.365 1.31152,3.6096 2.02627,3.6096 0.71476,0 4.88618,0.1505 6.55392,1.2634 1.66775,1.1129 4.56564,1.3838 6.86872,5.8356 2.30308,4.4517 3.16428,6.1817 3.69194,11.6911 0.38151,3.9835 0.43641,10.2863 -0.67542,12.3731 2.86502,3.0212 3.36296,-5.1415 3.33705,-9.1845 -0.0375,-5.8431 -0.63226,-10.6442 -1.66566,-14.3182 -2.01892,-7.1779 -5.95941,-10.5796 -7.94483,-11.8316 -1.98541,-1.2521 -5.59977,-1.6106 -9.49029,-2.3663 -1.19058,-0.2313 -1.19195,-1.5241 -0.0801,-1.5241 0.8736,0 6.64043,0.808 9.89097,1.9452 2.25683,0.7895 5.43779,0.6868 6.70845,-0.9826 1.27067,-1.6694 1.66893,-3.0508 2.66164,-5.5549 z"
         inkscape:connector-curvature="0" />
      <path
         style="fill:#000000;stroke:none"
         id="path3369"
         d="m 147.1883,3912.95 c -0.99271,-2.5041 -1.39097,-3.9055 -2.66164,-5.5749 -1.27066,-1.6694 -4.45162,-1.7521 -6.70845,-0.9626 -3.25054,1.1372 -9.01737,1.9452 -9.89097,1.9452 -1.11181,0 -1.11044,-1.2928 0.0801,-1.524 3.89052,-0.7558 7.50488,-1.1143 9.49029,-2.3664 1.98542,-1.252 5.92591,-4.6537 7.94483,-11.8315 1.0334,-3.6741 1.62821,-8.4952 1.66566,-14.3383 0.0259,-4.0431 -0.47203,-12.1857 -3.33705,-9.1644 1.11183,2.0867 1.05693,8.3895 0.67542,12.373 -0.52766,5.5094 -1.38886,7.2395 -3.69194,11.6912 -2.30308,4.4517 -5.20097,4.7226 -6.86872,5.8355 -1.66774,1.113 -5.83916,1.2634 -6.55392,1.2634 -0.71475,0 -1.31152,1.2447 -2.02627,3.6096 -0.71475,2.365 -0.66969,3.9017 -0.66969,5.1538 0,1.252 0.27475,2.5545 0.27475,3.8904 0,1.3359 -0.27475,2.6383 -0.27475,3.8904 0,1.252 -0.0451,2.7887 0.66969,5.1537 0.71475,2.365 1.31152,3.6096 2.02627,3.6096 0.71476,0 4.88618,0.1505 6.55392,1.2634 1.66775,1.1129 4.56564,1.3839 6.86872,5.8356 2.30308,4.4517 3.16428,6.1817 3.69194,11.6912 0.38151,3.9834 0.43641,10.2863 -0.67542,12.373 2.86502,3.0212 3.36296,-5.1414 3.33705,-9.1845 -0.0375,-5.8431 -0.63226,-10.6442 -1.66566,-14.3182 -2.01892,-7.1778 -5.95941,-10.5795 -7.94483,-11.8316 -1.98541,-1.252 -5.59977,-1.6106 -9.49029,-2.3663 -1.19058,-0.2313 -1.19195,-1.5241 -0.0801,-1.5241 0.8736,0 6.64043,0.8081 9.89097,1.9452 2.25683,0.7895 5.43779,0.6868 6.70845,-0.9826 1.27067,-1.6694 1.66893,-3.0507 2.66164,-5.5548 z"
         inkscape:connector-curvature="0" />
      <path
         inkscape:connector-curvature="0"
         style="fill:#000000;stroke:none"
         d="m 146.83914,3969.7172 c -0.37456,-4.7774 -2.36107,-6.4022 -3.56029,-6.2968 -0.89718,0.079 -5.14161,1.994 -6.84583,2.7272 -1.70422,0.7333 -3.85506,1.8851 -5.26031,1.8851 -1.40523,0 -4.07024,0.4211 -4.45894,0.4211 -0.38868,0 -0.47508,0.4254 -0.47508,1.2634 0,0.838 0.0864,1.2633 0.47508,1.2633 0.3887,0 3.05371,0.4212 4.45894,0.4212 1.40525,0 3.55609,1.1518 5.26031,1.885 1.70422,0.7332 5.94865,2.6484 6.84583,2.7273 1.19922,0.1053 3.18573,-1.5195 3.56029,-6.2968 z"
         id="path3371" />
      <path
         inkscape:connector-curvature="0"
         style="fill:#000000;stroke:none"
         d="m 144.01151,3949.2225 c -0.004,-0.4331 -0.0228,-0.8604 -0.0572,-1.3035 -0.27532,-3.5446 -1.39351,-5.6179 -2.48991,-4.5321 -1.72385,1.7072 -3.00375,9.0087 -4.73941,11.5709 -2.11079,3.1159 -3.52197,7.3457 -10.59502,10.7286 -0.2758,0.1319 -0.33281,1.112 0.20606,1.0629 7.54415,-0.6885 9.08502,-2.9587 10.64652,-3.73 2.17507,-1.0744 4.44139,-3.7466 5.54078,-6.1564 0.84515,-1.8526 1.51749,-4.6085 1.48822,-7.6404 z"
         id="path3373" />
      <path
         inkscape:connector-curvature="0"
         style="fill:#000000;stroke:none"
         d="m 139.31216,3940.3789 c -0.0252,-2.7186 -0.48887,-5.1896 -1.23065,-6.1364 -0.98903,-1.2623 -2.09897,0.6622 -2.47846,4.3115 -0.2409,2.3163 -1.36843,9.9407 -2.3182,12.6939 -1.2693,3.6795 -3.25534,8.6002 -7.54415,11.7714 -0.4692,0.347 -0.4983,1.194 -0.0172,0.9626 5.02646,-2.4182 7.85169,-6.5122 8.97514,-8.2621 1.84926,-2.8803 4.10236,-8.9442 4.48185,-12.5936 0.0949,-0.9123 0.14007,-1.8411 0.13165,-2.7473 z"
         id="path3375" />
      <path
         inkscape:connector-curvature="0"
         style="fill:#000000;stroke:none"
         d="m 129.83904,3940.9604 c 0,-3.5385 -0.63159,-6.397 -1.41382,-6.397 -0.78216,0 -1.41954,2.8585 -1.41954,6.397 0,1.2579 0.13606,2.3645 0.21753,3.4292 0.44746,5.8511 -1.83386,12.0927 -2.77612,15.1604 -0.33115,1.0781 0.0495,1.8956 0.20033,1.5241 0.21901,-0.5395 1.88075,-5.2034 3.3943,-9.3048 0.56284,-1.5251 1.79732,-5.6889 1.79732,-10.8089 z"
         id="path3377" />
      <path
         inkscape:connector-curvature="0"
         style="fill:#000000;stroke:none"
         d="m 125.7407,3969.7172 c -0.68918,-4.2089 -1.65954,-7.1472 -2.86197,-9.0442 -0.99329,5.6763 -2.71804,7.0647 -4.34448,9.0442 1.62644,1.9795 3.35119,3.3679 4.34448,9.0441 1.20243,-1.897 2.17279,-4.8352 2.86197,-9.0441 z"
         id="path3379" />
      <path
         inkscape:connector-curvature="0"
         style="fill:#000000;stroke:none"
         d="m 115.81539,3969.7172 c -1.56755,-0.9635 -3.09419,-6.0562 -3.09419,-6.0562 -0.68145,1.1454 -1.27249,3.3361 -1.51112,6.0562 0.23863,2.7201 0.82967,4.9108 1.51112,6.0561 0,0 1.52664,-5.0926 3.09419,-6.0561 z"
         id="path3381" />
      <path
         inkscape:connector-curvature="0"
         style="fill:#000000;stroke:none"
         d="m 146.83914,3740.2082 c -0.37456,-4.7774 -2.36107,-6.4022 -3.56029,-6.2968 -0.89718,0.079 -5.14161,1.994 -6.84583,2.7273 -1.70422,0.7332 -3.85506,1.885 -5.26031,1.885 -1.40523,0 -4.07024,0.4211 -4.45894,0.4211 -0.38868,0 -0.47508,0.4254 -0.47508,1.2634 0,0.838 0.0864,1.2634 0.47508,1.2634 0.3887,0 3.05371,0.4211 4.45894,0.4211 1.40525,0 3.55609,1.1518 5.26031,1.885 1.70422,0.7333 5.94865,2.6485 6.84583,2.7273 1.19922,0.1054 3.18573,-1.5195 3.56029,-6.2968 z"
         id="path3383" />
      <path
         inkscape:connector-curvature="0"
         style="fill:#000000;stroke:none"
         d="m 144.01151,3760.1414 c -0.0528,-2.8078 -0.69589,-5.3421 -1.48822,-7.0789 -1.09939,-2.4099 -3.36571,-5.082 -5.54078,-6.1564 -1.5615,-0.7714 -3.10237,-3.0415 -10.64652,-3.73 -0.53887,-0.049 -0.48186,0.9309 -0.20606,1.0628 7.07305,3.3829 8.48423,7.6128 10.59502,10.7287 1.73566,2.5622 3.01556,9.8636 4.73941,11.5708 1.0964,1.0859 2.21459,-0.9874 2.48991,-4.532 0.0344,-0.4431 0.0531,-0.8704 0.0572,-1.3035 0.002,-0.1895 0.004,-0.3743 0,-0.5615 z"
         id="path3385" />
      <path
         inkscape:connector-curvature="0"
         style="fill:#000000;stroke:none"
         d="m 139.31216,3769.5465 c 0.008,-0.9062 -0.0368,-1.835 -0.13165,-2.7474 -0.37949,-3.6493 -2.63259,-9.7132 -4.48186,-12.5936 -1.12344,-1.7498 -3.94867,-5.8438 -8.97513,-8.262 -0.48112,-0.2315 -0.45202,0.6156 0.0172,0.9626 4.28881,3.1712 6.27484,8.0918 7.54415,11.7714 0.94977,2.7532 2.0773,10.3775 2.3182,12.6938 0.37948,3.6494 1.48943,5.5739 2.47846,4.3115 0.74177,-0.9467 1.2054,-3.4177 1.23064,-6.1363 z"
         id="path3387" />
      <path
         inkscape:connector-curvature="0"
         style="fill:#000000;stroke:none"
         d="m 129.83904,3768.9649 c 0,-5.12 -1.23448,-9.2837 -1.79732,-10.8088 -1.51355,-4.1014 -3.17529,-8.7654 -3.3943,-9.3049 -0.15078,-0.3715 -0.53148,0.4461 -0.20033,1.5241 0.94226,3.0677 3.22358,9.3094 2.77612,15.1605 -0.0815,1.0646 -0.21753,2.1712 -0.21753,3.4291 0,3.5386 0.63738,6.3971 1.41954,6.3971 0.78223,0 1.41382,-2.8585 1.41382,-6.3971 z"
         id="path3389" />
      <path
         inkscape:connector-curvature="0"
         style="fill:#000000;stroke:none"
         d="m 125.7407,3740.2082 c -0.68918,-4.2089 -1.65954,-7.1472 -2.86197,-9.0441 -0.99329,5.6762 -2.71804,7.0646 -4.34448,9.0441 1.62644,1.9795 3.35119,3.3679 4.34448,9.0441 1.20243,-1.8969 2.17279,-4.8352 2.86197,-9.0441 z"
         id="path3391" />
      <path
         inkscape:connector-curvature="0"
         style="fill:#000000;stroke:none"
         d="m 115.81539,3740.2082 c -1.56755,-0.9635 -3.09419,-6.0562 -3.09419,-6.0562 -0.68145,1.1454 -1.27249,3.3361 -1.51112,6.0562 0.23863,2.7201 0.82967,4.9108 1.51112,6.0561 0,0 1.52664,-5.0926 3.09419,-6.0561 z"
         id="path3393" />
    </g>
    <rect
       style="fill:none;stroke:#000000;stroke-width:0.85180384;stroke-linejoin:round;stroke-miterlimit:4;stroke-opacity:1;stroke-dasharray:none"
       id="rect3414"
       width="152.13284"
       height="153.75714"
       x="-4176.4795"
       y="7.7696662"
       transform="matrix(0,-1,1,0,0,0)"
       ry="40.054382" />
  </g>
  <g
     id="g5440"
     transform="matrix(0,1,-1,0,186.69048,462.48666)">
    <g
       id="g4949"
       transform="matrix(0.54556448,0,0,0.54556448,-425.65341,96.51578)"
       inkscape:label="Hershey Text">
      <path
         id="path4951"
         transform="translate(10,0)"
         d="m 8,-7 -1,-2 -2,-2 -2,-1 -4,0 -2,1 -2,2 -1,2 -1,3 0,5 1,3 1,2 2,2 2,1 L 3,9 5,8 7,6 8,4 8,1 M 3,1 8,1"
         style="fill:none;stroke:#000000"
         inkscape:connector-curvature="0" />
      <path
         id="path4953"
         transform="translate(28,0)"
         d="m -3,-5 0,14 m 0,-8 1,-3 2,-2 2,-1 3,0"
         style="fill:none;stroke:#000000"
         inkscape:connector-curvature="0" />
      <path
         id="path4955"
         transform="translate(43,0)"
         d="M -6,1 6,1 6,-1 5,-3 4,-4 2,-5 l -3,0 -2,1 -2,2 -1,3 0,2 1,3 2,2 2,1 3,0 2,-1 2,-2"
         style="fill:none;stroke:#000000"
         inkscape:connector-curvature="0" />
      <path
         id="path4957"
         transform="translate(61,0)"
         d="M -6,1 6,1 6,-1 5,-3 4,-4 2,-5 l -3,0 -2,1 -2,2 -1,3 0,2 1,3 2,2 2,1 3,0 2,-1 2,-2"
         style="fill:none;stroke:#000000"
         inkscape:connector-curvature="0" />
      <path
         id="path4959"
         transform="translate(75,0)"
         d="M 0,-12 0,5 1,8 3,9 5,9 m -8,-14 7,0"
         style="fill:none;stroke:#000000"
         inkscape:connector-curvature="0" />
      <path
         id="path4961"
         transform="translate(86,0)"
         d="m -1,-12 1,1 1,-1 -1,-1 -1,1 m 1,7 0,14"
         style="fill:none;stroke:#000000"
         inkscape:connector-curvature="0" />
      <path
         id="path4963"
         transform="translate(99,0)"
         d="m -5,-5 0,14 m 0,-10 3,-3 2,-1 3,0 2,1 1,3 0,10"
         style="fill:none;stroke:#000000"
         inkscape:connector-curvature="0" />
      <path
         id="path4965"
         transform="translate(118,0)"
         d="m 6,-5 0,16 -1,3 -1,1 -2,1 -3,0 -2,-1 M 6,-2 4,-4 2,-5 l -3,0 -2,1 -2,2 -1,3 0,2 1,3 2,2 2,1 3,0 2,-1 2,-2"
         style="fill:none;stroke:#000000"
         inkscape:connector-curvature="0" />
      <path
         id="path4967"
         transform="translate(136,0)"
         d="m 6,-2 -1,-2 -3,-1 -3,0 -3,1 -1,2 1,2 2,1 L 3,2 5,3 6,5 6,6 5,8 2,9 -1,9 -4,8 -5,6"
         style="fill:none;stroke:#000000"
         inkscape:connector-curvature="0" />
      <path
         id="path4969"
         transform="translate(153,0)"
         d=""
         style="fill:none;stroke:#000000"
         inkscape:connector-curvature="0" />
      <path
         id="path4971"
         transform="translate(166,0)"
         d="m 5,-12 -2,0 -2,1 -1,3 0,17 m -3,-14 7,0"
         style="fill:none;stroke:#000000"
         inkscape:connector-curvature="0" />
      <path
         id="path4973"
         transform="translate(180,0)"
         d="m -3,-5 0,14 m 0,-8 1,-3 2,-2 2,-1 3,0"
         style="fill:none;stroke:#000000"
         inkscape:connector-curvature="0" />
      <path
         id="path4975"
         transform="translate(195,0)"
         d="m -1,-5 -2,1 -2,2 -1,3 0,2 1,3 2,2 2,1 L 2,9 4,8 6,6 7,3 7,1 6,-2 4,-4 2,-5 -1,-5"
         style="fill:none;stroke:#000000"
         inkscape:connector-curvature="0" />
      <path
         id="path4977"
         transform="translate(220,0)"
         d="m -11,-5 0,14 m 0,-10 3,-3 2,-1 3,0 2,1 1,3 0,10 m 0,-10 3,-3 2,-1 3,0 2,1 1,3 0,10"
         style="fill:none;stroke:#000000"
         inkscape:connector-curvature="0" />
      <path
         id="path4979"
         transform="translate(243,0)"
         d=""
         style="fill:none;stroke:#000000"
         inkscape:connector-curvature="0" />
      <path
         id="path4981"
         transform="translate(262,0)"
         d="m -7,-12 0,21 m 0,-21 9,0 3,1 1,1 1,2 0,3 -1,2 -1,1 -3,1 -9,0"
         style="fill:none;stroke:#000000"
         inkscape:connector-curvature="0" />
      <path
         id="path4983"
         transform="translate(280,0)"
         d="M -6,-5 0,9 M 6,-5 0,9 l -2,4 -2,2 -2,1 -1,0"
         style="fill:none;stroke:#000000"
         inkscape:connector-curvature="0" />
      <path
         id="path4985"
         transform="translate(295,0)"
         d="m -3,-5 0,14 m 0,-8 1,-3 2,-2 2,-1 3,0"
         style="fill:none;stroke:#000000"
         inkscape:connector-curvature="0" />
      <path
         id="path4987"
         transform="translate(310,0)"
         d="M 6,-5 6,9 M 6,-2 4,-4 2,-5 l -3,0 -2,1 -2,2 -1,3 0,2 1,3 2,2 2,1 3,0 2,-1 2,-2"
         style="fill:none;stroke:#000000"
         inkscape:connector-curvature="0" />
      <path
         id="path4989"
         transform="translate(335,0)"
         d="m -11,-5 0,14 m 0,-10 3,-3 2,-1 3,0 2,1 1,3 0,10 m 0,-10 3,-3 2,-1 3,0 2,1 1,3 0,10"
         style="fill:none;stroke:#000000"
         inkscape:connector-curvature="0" />
      <path
         id="path4991"
         transform="translate(359,0)"
         d="m -1,-5 -2,1 -2,2 -1,3 0,2 1,3 2,2 2,1 L 2,9 4,8 6,6 7,3 7,1 6,-2 4,-4 2,-5 -1,-5"
         style="fill:none;stroke:#000000"
         inkscape:connector-curvature="0" />
      <path
         id="path4993"
         transform="translate(378,0)"
         d="m -1,-5 -2,1 -2,2 -1,3 0,2 1,3 2,2 2,1 L 2,9 4,8 6,6 7,3 7,1 6,-2 4,-4 2,-5 -1,-5"
         style="fill:none;stroke:#000000"
         inkscape:connector-curvature="0" />
      <path
         id="path4995"
         transform="translate(396,0)"
         d="m 6,-2 -1,-2 -3,-1 -3,0 -3,1 -1,2 1,2 2,1 L 3,2 5,3 6,5 6,6 5,8 2,9 -1,9 -4,8 -5,6"
         style="fill:none;stroke:#000000"
         inkscape:connector-curvature="0" />
    </g>
    <g
       inkscape:label="Hershey Text"
       transform="matrix(0.54556448,0,0,0.54556448,-391.01007,115.80853)"
       id="g5257">
      <path
         inkscape:connector-curvature="0"
         style="fill:none;stroke:#000000"
         d="m 5,-12 -2,0 -2,1 -1,3 0,17 m -3,-14 7,0"
         transform="translate(5,0)"
         id="path5259" />
      <path
         inkscape:connector-curvature="0"
         style="fill:none;stroke:#000000"
         d="m -1,-5 -2,1 -2,2 -1,3 0,2 1,3 2,2 2,1 L 2,9 4,8 6,6 7,3 7,1 6,-2 4,-4 2,-5 -1,-5"
         transform="translate(21,0)"
         id="path5261" />
      <path
         inkscape:connector-curvature="0"
         style="fill:none;stroke:#000000"
         d="m -3,-5 0,14 m 0,-8 1,-3 2,-2 2,-1 3,0"
         transform="translate(38,0)"
         id="path5263" />
      <path
         inkscape:connector-curvature="0"
         style="fill:none;stroke:#000000"
         d=""
         transform="translate(52,0)"
         id="path5265" />
      <path
         inkscape:connector-curvature="0"
         style="fill:none;stroke:#000000"
         d="M -6,-12 -6,9 M -6,9 6,9"
         transform="translate(70,0)"
         id="path5267" />
      <path
         inkscape:connector-curvature="0"
         style="fill:none;stroke:#000000"
         d="m -1,-5 -2,1 -2,2 -1,3 0,2 1,3 2,2 2,1 L 2,9 4,8 6,6 7,3 7,1 6,-2 4,-4 2,-5 -1,-5"
         transform="translate(86,0)"
         id="path5269" />
      <path
         inkscape:connector-curvature="0"
         style="fill:none;stroke:#000000"
         d="m -3,-5 0,14 m 0,-8 1,-3 2,-2 2,-1 3,0"
         transform="translate(103,0)"
         id="path5271" />
      <path
         inkscape:connector-curvature="0"
         style="fill:none;stroke:#000000"
         d="m -5,-5 0,14 m 0,-10 3,-3 2,-1 3,0 2,1 1,3 0,10"
         transform="translate(118,0)"
         id="path5273" />
      <path
         inkscape:connector-curvature="0"
         style="fill:none;stroke:#000000"
         d="M 6,-5 6,9 M 6,-2 4,-4 2,-5 l -3,0 -2,1 -2,2 -1,3 0,2 1,3 2,2 2,1 3,0 2,-1 2,-2"
         transform="translate(137,0)"
         id="path5275" />
      <path
         inkscape:connector-curvature="0"
         style="fill:none;stroke:#000000"
         d=""
         transform="translate(155,0)"
         id="path5277" />
      <path
         inkscape:connector-curvature="0"
         style="fill:none;stroke:#000000"
         d="M 10,-3 10,-4 9,-5 8,-5 7,-4 6,-2 4,3 2,6 0,8 -2,9 -6,9 -8,8 -9,7 l -1,-2 0,-2 1,-2 1,-1 7,-4 1,-1 1,-2 0,-2 -1,-2 -2,-1 -2,1 -1,2 0,2 1,3 2,3 5,7 2,2 2,1 2,0 1,-1 0,-1"
         transform="translate(176,0)"
         id="path5279" />
      <path
         inkscape:connector-curvature="0"
         style="fill:none;stroke:#000000"
         d=""
         transform="translate(197,0)"
         id="path5281" />
      <path
         inkscape:connector-curvature="0"
         style="fill:none;stroke:#000000"
         d="m 8,-7 -1,-2 -2,-2 -2,-1 -4,0 -2,1 -2,2 -1,2 -1,3 0,5 1,3 1,2 2,2 2,1 L 3,9 5,8 7,6 8,4"
         transform="translate(215,0)"
         id="path5283" />
      <path
         inkscape:connector-curvature="0"
         style="fill:none;stroke:#000000"
         d="m -1,-5 -2,1 -2,2 -1,3 0,2 1,3 2,2 2,1 L 2,9 4,8 6,6 7,3 7,1 6,-2 4,-4 2,-5 -1,-5"
         transform="translate(235,0)"
         id="path5285" />
      <path
         inkscape:connector-curvature="0"
         style="fill:none;stroke:#000000"
         d="M 0,-12 0,9"
         transform="translate(249,0)"
         id="path5287" />
      <path
         inkscape:connector-curvature="0"
         style="fill:none;stroke:#000000"
         d="m -1,-12 1,1 1,-1 -1,-1 -1,1 m 1,7 0,14"
         transform="translate(257,0)"
         id="path5289" />
      <path
         inkscape:connector-curvature="0"
         style="fill:none;stroke:#000000"
         d="m -5,-5 0,14 m 0,-10 3,-3 2,-1 3,0 2,1 1,3 0,10"
         transform="translate(270,0)"
         id="path5291" />
    </g>
  </g>
</svg>
