999
dxflib 2.0.4.8
  0
SECTION
  2
HEADER
  9
$ACADVER
  1
AC1015
  9
$HANDSEED
  5
FFFF
  9
$DIMASZ
 40
2.5
  9
$DIMGAP
 40
0.625
  9
$INSUNITS
 70
4
  9
$DIMEXO
 40
0.625
  9
$DIMTXT
 40
2.5
  9
$DIMSTYLE
  2
Standard
  9
$PLIMMIN
 10
0.0
 20
0.0
  9
$PLIMMAX
 10
210.0
 20
297.0
  9
$DIMEXE
 40
1.25
  0
ENDSEC
  0
SECTION
  2
TABLES
  0
TABLE
  2
VPORT
  5
8
100
AcDbSymbolTable
 70
1
  0
VPORT
  5
30
100
AcDbSymbolTableRecord
100
AcDbViewportTableRecord
  2
*Active
 70
0
 10
0.0
 20
0.0
 11
1.0
 21
1.0
 12
286.3055555555554861
 22
148.5
 13
0.0
 23
0.0
 14
10.0
 24
10.0
 15
10.0
 25
10.0
 16
0.0
 26
0.0
 36
1.0
 17
0.0
 27
0.0
 37
0.0
 40
297.0
 41
1.92798353909465
 42
50.0
 43
0.0
 44
0.0
 50
0.0
 51
0.0
 71
0
 72
100
 73
1
 74
3
 75
1
 76
1
 77
0
 78
0
281
0
 65
1
110
0.0
120
0.0
130
0.0
111
1.0
121
0.0
131
0.0
112
0.0
122
1.0
132
0.0
 79
0
146
0.0
  0
ENDTAB
  0
TABLE
  2
LTYPE
  5
5
100
AcDbSymbolTable
 70
21
  0
LTYPE
  5
14
100
AcDbSymbolTableRecord
100
AcDbLinetypeTableRecord
  2
ByBlock
 70
0
  3

 72
65
 73
0
 40
0.0
  0
LTYPE
  5
15
100
AcDbSymbolTableRecord
100
AcDbLinetypeTableRecord
  2
ByLayer
 70
0
  3

 72
65
 73
0
 40
0.0
  0
LTYPE
  5
16
100
AcDbSymbolTableRecord
100
AcDbLinetypeTableRecord
  2
CONTINUOUS
 70
0
  3
Solid line
 72
65
 73
0
 40
0.0
  0
LTYPE
  5
31
100
AcDbSymbolTableRecord
100
AcDbLinetypeTableRecord
  2
DOT
 70
0
  3
Dot . . . . . . . . . . . . . . . . . . . . . .
 72
65
 73
2
 40
6.3499999999999996
 49
0.0
 74
0
 49
-6.3499999999999996
 74
0
  0
LTYPE
  5
32
100
AcDbSymbolTableRecord
100
AcDbLinetypeTableRecord
  2
DOT2
 70
0
  3
Dot (.5x) .....................................
 72
65
 73
2
 40
3.1749999999999998
 49
0.0
 74
0
 49
-3.1749999999999998
 74
0
  0
LTYPE
  5
33
100
AcDbSymbolTableRecord
100
AcDbLinetypeTableRecord
  2
DOTX2
 70
0
  3
Dot (2x) .  .  .  .  .  .  .  .  .  .  .  .  .
 72
65
 73
2
 40
12.6999999999999993
 49
0.0
 74
0
 49
-12.6999999999999993
 74
0
  0
LTYPE
  5
34
100
AcDbSymbolTableRecord
100
AcDbLinetypeTableRecord
  2
DASHED
 70
0
  3
Dashed __ __ __ __ __ __ __ __ __ __ __ __ __ _
 72
65
 73
2
 40
19.0500000000000007
 49
12.6999999999999993
 74
0
 49
-6.3499999999999996
 74
0
  0
LTYPE
  5
35
100
AcDbSymbolTableRecord
100
AcDbLinetypeTableRecord
  2
DASHED2
 70
0
  3
Dashed (.5x) _ _ _ _ _ _ _ _ _ _ _ _ _ _ _ _ _
 72
65
 73
2
 40
9.5250000000000004
 49
6.3499999999999996
 74
0
 49
-3.1749999999999998
 74
0
  0
LTYPE
  5
36
100
AcDbSymbolTableRecord
100
AcDbLinetypeTableRecord
  2
DASHEDX2
 70
0
  3
Dashed (2x) ____  ____  ____  ____  ____  ___
 72
65
 73
2
 40
38.1000000000000014
 49
25.3999999999999986
 74
0
 49
-12.6999999999999993
 74
0
  0
LTYPE
  5
37
100
AcDbSymbolTableRecord
100
AcDbLinetypeTableRecord
  2
DASHDOT
 70
0
  3
Dash dot __ . __ . __ . __ . __ . __ . __ . __
 72
65
 73
4
 40
25.3999999999999986
 49
12.6999999999999993
 74
0
 49
-6.3499999999999996
 74
0
 49
0.0
 74
0
 49
-6.3499999999999996
 74
0
  0
LTYPE
  5
38
100
AcDbSymbolTableRecord
100
AcDbLinetypeTableRecord
  2
DASHDOT2
 70
0
  3
Dash dot (.5x) _._._._._._._._._._._._._._._.
 72
65
 73
4
 40
12.6999999999999993
 49
6.3499999999999996
 74
0
 49
-3.1749999999999998
 74
0
 49
0.0
 74
0
 49
-3.1749999999999998
 74
0
  0
LTYPE
  5
39
100
AcDbSymbolTableRecord
100
AcDbLinetypeTableRecord
  2
DASHDOTX2
 70
0
  3
Dash dot (2x) ____  .  ____  .  ____  .  ___
 72
65
 73
4
 40
50.7999999999999972
 49
25.3999999999999986
 74
0
 49
-12.6999999999999993
 74
0
 49
0.0
 74
0
 49
-12.6999999999999993
 74
0
  0
LTYPE
  5
3A
100
AcDbSymbolTableRecord
100
AcDbLinetypeTableRecord
  2
DIVIDE
 70
0
  3
Divide ____ . . ____ . . ____ . . ____ . . ____
 72
65
 73
6
 40
31.75
 49
12.6999999999999993
 74
0
 49
-6.3499999999999996
 74
0
 49
0.0
 74
0
 49
-6.3499999999999996
 74
0
 49
0.0
 74
0
 49
-6.3499999999999996
 74
0
  0
LTYPE
  5
3B
100
AcDbSymbolTableRecord
100
AcDbLinetypeTableRecord
  2
DIVIDE2
 70
0
  3
Divide (.5x) __..__..__..__..__..__..__..__.._
 72
65
 73
6
 40
15.875
 49
6.3499999999999996
 74
0
 49
-3.1749999999999998
 74
0
 49
0.0
 74
0
 49
-3.1749999999999998
 74
0
 49
0.0
 74
0
 49
-3.1749999999999998
 74
0
  0
LTYPE
  5
3C
100
AcDbSymbolTableRecord
100
AcDbLinetypeTableRecord
  2
DIVIDEX2
 70
0
  3
Divide (2x) ________  .  .  ________  .  .  _
 72
65
 73
6
 40
63.5
 49
25.3999999999999986
 74
0
 49
-12.6999999999999993
 74
0
 49
0.0
 74
0
 49
-12.6999999999999993
 74
0
 49
0.0
 74
0
 49
-12.6999999999999993
 74
0
  0
LTYPE
  5
3D
100
AcDbSymbolTableRecord
100
AcDbLinetypeTableRecord
  2
CENTER
 70
0
  3
Center ____ _ ____ _ ____ _ ____ _ ____ _ ____
 72
65
 73
4
 40
50.7999999999999972
 49
31.75
 74
0
 49
-6.3499999999999996
 74
0
 49
6.3499999999999996
 74
0
 49
-6.3499999999999996
 74
0
  0
LTYPE
  5
3E
100
AcDbSymbolTableRecord
100
AcDbLinetypeTableRecord
  2
CENTER2
 70
0
  3
Center (.5x) ___ _ ___ _ ___ _ ___ _ ___ _ ___
 72
65
 73
4
 40
28.5749999999999993
 49
19.0500000000000007
 74
0
 49
-3.1749999999999998
 74
0
 49
3.1749999999999998
 74
0
 49
-3.1749999999999998
 74
0
  0
LTYPE
  5
3F
100
AcDbSymbolTableRecord
100
AcDbLinetypeTableRecord
  2
CENTERX2
 70
0
  3
Center (2x) ________  __  ________  __  _____
 72
65
 73
4
 40
101.5999999999999943
 49
63.5
 74
0
 49
-12.6999999999999993
 74
0
 49
12.6999999999999993
 74
0
 49
-12.6999999999999993
 74
0
  0
LTYPE
  5
40
100
AcDbSymbolTableRecord
100
AcDbLinetypeTableRecord
  2
BORDER
 70
0
  3
Border __ __ . __ __ . __ __ . __ __ . __ __ .
 72
65
 73
6
 40
44.4500000000000028
 49
12.6999999999999993
 74
0
 49
-6.3499999999999996
 74
0
 49
12.6999999999999993
 74
0
 49
-6.3499999999999996
 74
0
 49
0.0
 74
0
 49
-6.3499999999999996
 74
0
  0
LTYPE
  5
41
100
AcDbSymbolTableRecord
100
AcDbLinetypeTableRecord
  2
BORDER2
 70
0
  3
Border (.5x) __.__.__.__.__.__.__.__.__.__.__.
 72
65
 73
6
 40
22.2250000000000014
 49
6.3499999999999996
 74
0
 49
-3.1749999999999998
 74
0
 49
6.3499999999999996
 74
0
 49
-3.1749999999999998
 74
0
 49
0.0
 74
0
 49
-3.1749999999999998
 74
0
  0
LTYPE
  5
42
100
AcDbSymbolTableRecord
100
AcDbLinetypeTableRecord
  2
BORDERX2
 70
0
  3
Border (2x) ____  ____  .  ____  ____  .  ___
 72
65
 73
6
 40
88.9000000000000057
 49
25.3999999999999986
 74
0
 49
-12.6999999999999993
 74
0
 49
25.3999999999999986
 74
0
 49
-12.6999999999999993
 74
0
 49
0.0
 74
0
 49
-12.6999999999999993
 74
0
  0
ENDTAB
  0
TABLE
  2
LAYER
  5
2
100
AcDbSymbolTable
 70
6
  0
LAYER
  5
10
100
AcDbSymbolTableRecord
100
AcDbLayerTableRecord
  2
0
 70
0
 62
7
  6
CONTINUOUS
370
0
390
F
  0
LAYER
  5
43
100
AcDbSymbolTableRecord
100
AcDbLayerTableRecord
  2
pocket-4mm
 70
0
 62
7
  6
CONTINUOUS
370
0
390
F
  0
LAYER
  5
44
100
AcDbSymbolTableRecord
100
AcDbLayerTableRecord
  2
outer-cut-full
 70
0
 62
7
  6
CONTINUOUS
370
0
390
F
  0
LAYER
  5
45
100
AcDbSymbolTableRecord
100
AcDbLayerTableRecord
  2
inner-cut-full
 70
0
 62
7
  6
CONTINUOUS
370
0
390
F
  0
LAYER
  5
46
100
AcDbSymbolTableRecord
100
AcDbLayerTableRecord
  2
kabel-cut-2mm
 70
0
 62
7
  6
CONTINUOUS
370
0
390
F
  0
LAYER
  5
47
100
AcDbSymbolTableRecord
100
AcDbLayerTableRecord
  2
pocket-3.5mm
 70
0
 62
7
  6
CONTINUOUS
370
0
390
F
  0
ENDTAB
  0
TABLE
  2
STYLE
  5
3
100
AcDbSymbolTable
 70
1
  0
STYLE
  5
11
100
AcDbSymbolTableRecord
100
AcDbTextStyleTableRecord
  2
Standard
 70
0
 40
0.0
 41
0.75
 50
0.0
 71
0
 42
2.5
  3
txt
  4

  0
ENDTAB
  0
TABLE
  2
VIEW
  5
6
100
AcDbSymbolTable
 70
0
  0
ENDTAB
  0
TABLE
  2
UCS
  5
7
100
AcDbSymbolTable
 70
0
  0
ENDTAB
  0
TABLE
  2
APPID
  5
9
100
AcDbSymbolTable
 70
1
  0
APPID
  5
12
100
AcDbSymbolTableRecord
100
AcDbRegAppTableRecord
  2
ACAD
 70
0
  0
ENDTAB
  0
TABLE
  2
DIMSTYLE
  5
A
100
AcDbSymbolTable
 70
1
100
AcDbDimStyleTable
 71
0
  0
DIMSTYLE
105
27
100
AcDbSymbolTableRecord
100
AcDbDimStyleTableRecord
  2
Standard
 41
2.5
 42
0.625
 43
3.75
 44
1.25
 70
0
 73
0
 74
0
 77
1
 78
8
140
2.5
141
2.5
143
0.03937007874016
147
0.625
171
3
172
1
271
2
272
2
274
3
278
44
283
0
284
8
340
11
  0
ENDTAB
  0
TABLE
  2
BLOCK_RECORD
  5
1
100
AcDbSymbolTable
 70
1
  0
BLOCK_RECORD
  5
1F
100
AcDbSymbolTableRecord
100
AcDbBlockTableRecord
  2
*Model_Space
340
22
  0
BLOCK_RECORD
  5
1B
100
AcDbSymbolTableRecord
100
AcDbBlockTableRecord
  2
*Paper_Space
340
1E
  0
BLOCK_RECORD
  5
23
100
AcDbSymbolTableRecord
100
AcDbBlockTableRecord
  2
*Paper_Space0
340
26
  0
ENDTAB
  0
ENDSEC
  0
SECTION
  2
BLOCKS
  0
BLOCK
  5
20
100
AcDbEntity
  8
0
100
AcDbBlockBegin
  2
*Model_Space
 70
0
 10
0.0
 20
0.0
 30
0.0
  3
*Model_Space
  1

  0
ENDBLK
  5
21
100
AcDbEntity
  8
0
100
AcDbBlockEnd
  0
BLOCK
  5
1C
100
AcDbEntity
 67
1
  8
0
100
AcDbBlockBegin
  2
*Paper_Space
 70
0
 10
0.0
 20
0.0
 30
0.0
  3
*Paper_Space
  1

  0
ENDBLK
  5
1D
100
AcDbEntity
 67
1
  8
0
100
AcDbBlockEnd
  0
BLOCK
  5
24
100
AcDbEntity
  8
0
100
AcDbBlockBegin
  2
*Paper_Space0
 70
0
 10
0.0
 20
0.0
 30
0.0
  3
*Paper_Space0
  1

  0
ENDBLK
  5
25
100
AcDbEntity
  8
0
100
AcDbBlockEnd
  0
ENDSEC
  0
SECTION
  2
ENTITIES
  0
CIRCLE
  5
48
100
AcDbEntity
100
AcDbCircle
  8
pocket-4mm
 62
256
370
-1
  6
ByLayer
 10
32.0
 20
10.0
 30
0.0
 40
6.2000000000000002
  0
SPLINE
  5
49
  8
outer-cut-full
 62
256
370
-1
  6
ByLayer
100
AcDbEntity
100
AcDbSpline
 70
8
 71
3
 72
8
 73
4
 74
0
 40
0.0
 40
0.0
 40
0.0
 40
0.0
 40
1.0
 40
1.0
 40
1.0
 40
1.0
 10
19.3999999999999986
 20
40.0
 30
0.0
 10
23.3999999999999986
 20
40.0
 30
0.0
 10
23.3999999999999986
 20
30.0
 30
0.0
 10
23.3999999999999986
 20
30.0
 30
0.0
  0
LINE
  5
4A
100
AcDbEntity
100
AcDbLine
  8
outer-cut-full
 62
256
370
-1
  6
ByLayer
 10
22.0
 20
20.0
 30
0.0
 11
23.3999999999999986
 21
20.0
 31
0.0
  0
LINE
  5
4B
100
AcDbEntity
100
AcDbLine
  8
outer-cut-full
 62
256
370
-1
  6
ByLayer
 10
23.3999999999999986
 20
20.0
 30
0.0
 11
23.3999999999999986
 21
30.0
 31
0.0
  0
LINE
  5
4C
100
AcDbEntity
100
AcDbLine
  8
outer-cut-full
 62
256
370
-1
  6
ByLayer
 10
16.6000000000000014
 20
40.0
 30
0.0
 11
13.4000000000000004
 21
40.0
 31
0.0
  0
LINE
  5
4D
100
AcDbEntity
100
AcDbLine
  8
outer-cut-full
 62
256
370
-1
  6
ByLayer
 10
13.4000000000000004
 20
40.0
 30
0.0
 11
12.2999999999999989
 21
38.0
 31
0.0
  0
LINE
  5
4E
100
AcDbEntity
100
AcDbLine
  8
outer-cut-full
 62
256
370
-1
  6
ByLayer
 10
16.6000000000000014
 20
40.0
 30
0.0
 11
19.3999999999999986
 21
40.0
 31
0.0
  0
LINE
  5
4F
100
AcDbEntity
100
AcDbLine
  8
outer-cut-full
 62
256
370
-1
  6
ByLayer
 10
22.0
 20
6.3000000000000007
 30
0.0
 11
22.0
 21
20.0
 31
0.0
  0
ARC
  5
50
100
AcDbEntity
  8
outer-cut-full
 62
256
370
-1
  6
ByLayer
100
AcDbCircle
 10
28.3000000000000007
 20
6.3000000000000007
 30
0.0
 40
6.2999999999999998
100
AcDbArc
 50
180.0
 51
270.0
  0
LINE
  5
51
100
AcDbEntity
100
AcDbLine
  8
outer-cut-full
 62
256
370
-1
  6
ByLayer
 10
28.3000000000000007
 20
0.0
 30
0.0
 11
35.7000000000000028
 21
0.0
 31
0.0
  0
ARC
  5
52
100
AcDbEntity
  8
outer-cut-full
 62
256
370
-1
  6
ByLayer
100
AcDbCircle
 10
35.7000000000000028
 20
6.3000000000000007
 30
0.0
 40
6.2999999999999998
100
AcDbArc
 50
270.0
 51
0.0
  0
ARC
  5
53
100
AcDbEntity
  8
outer-cut-full
 62
256
370
-1
  6
ByLayer
100
AcDbCircle
 10
18.0
 20
40.1131354772700703
 30
0.0
 40
10.0
100
AcDbArc
 50
0.0
 51
21.370622269343162
  0
LINE
  5
54
100
AcDbEntity
100
AcDbLine
  8
outer-cut-full
 62
256
370
-1
  6
ByLayer
 10
28.0
 20
40.1131354772700703
 30
0.0
 11
28.0
 21
33.142135623730951
 31
0.0
  0
LINE
  5
55
100
AcDbEntity
100
AcDbLine
  8
outer-cut-full
 62
256
370
-1
  6
ByLayer
 10
30.9289321881345245
 20
26.0710678118654755
 30
0.0
 11
33.0
 21
24.0
 31
0.0
  0
ARC
  5
56
100
AcDbEntity
  8
outer-cut-full
 62
256
370
-1
  6
ByLayer
100
AcDbCircle
 10
38.0
 20
33.142135623730951
 30
0.0
 40
10.0
100
AcDbArc
 50
180.0
 51
225.0
  0
LINE
  5
57
100
AcDbEntity
100
AcDbLine
  8
outer-cut-full
 62
256
370
-1
  6
ByLayer
 10
42.0
 20
6.3000000000000007
 30
0.0
 11
42.0
 21
12.6481624151200371
 31
0.0
  0
ARC
  5
58
100
AcDbEntity
  8
outer-cut-full
 62
256
370
-1
  6
ByLayer
100
AcDbCircle
 10
32.0
 20
12.6481624151200371
 30
0.0
 40
10.0
100
AcDbArc
 50
0.0
 51
56.3099324740202292
  0
LINE
  5
59
100
AcDbEntity
100
AcDbLine
  8
outer-cut-full
 62
256
370
-1
  6
ByLayer
 10
33.0
 20
24.0
 30
0.0
 11
37.5470019622522884
 21
20.9686653584984768
 31
0.0
  0
LINE
  5
5A
100
AcDbEntity
100
AcDbLine
  8
outer-cut-full
 62
256
370
-1
  6
ByLayer
 10
21.4871329838153855
 20
58.6439934858051259
 30
0.0
 11
27.3124277970575342
 21
43.7571289630751892
 31
0.0
  0
ARC
  5
5B
100
AcDbEntity
  8
outer-cut-full
 62
256
370
-1
  6
ByLayer
100
AcDbCircle
 10
12.1747051867578531
 20
55.0
 30
0.0
 40
10.0
100
AcDbArc
 50
21.3706222693432153
 51
90.0
  0
LINE
  5
5C
100
AcDbEntity
100
AcDbLine
  8
outer-cut-full
 62
256
370
-1
  6
ByLayer
 10
12.0
 20
65.0
 30
0.0
 11
12.1747051867578531
 21
65.0
 31
0.0
  0
ARC
  5
5D
100
AcDbEntity
  8
outer-cut-full
 62
256
370
-1
  6
ByLayer
100
AcDbCircle
 10
11.0
 20
27.0
 30
0.0
 40
1.0
100
AcDbArc
 50
180.0
 51
270.0
  0
LINE
  5
5E
100
AcDbEntity
100
AcDbLine
  8
outer-cut-full
 62
256
370
-1
  6
ByLayer
 10
12.2999999999999989
 20
38.0
 30
0.0
 11
12.2999999999999989
 21
27.0
 31
0.0
  0
LINE
  5
5F
100
AcDbEntity
100
AcDbLine
  8
outer-cut-full
 62
256
370
-1
  6
ByLayer
 10
11.2999999999999989
 20
26.0
 30
0.0
 11
11.0
 21
26.0
 31
0.0
  0
ARC
  5
60
100
AcDbEntity
  8
outer-cut-full
 62
256
370
-1
  6
ByLayer
100
AcDbCircle
 10
11.2999999999999989
 20
27.0
 30
0.0
 40
1.0
100
AcDbArc
 50
270.0
 51
0.0
  0
CIRCLE
  5
61
100
AcDbEntity
100
AcDbCircle
  8
inner-cut-full
 62
256
370
-1
  6
ByLayer
 10
4.0
 20
61.0
 30
0.0
 40
2.0
  0
LINE
  5
62
100
AcDbEntity
100
AcDbLine
  8
outer-cut-full
 62
256
370
-1
  6
ByLayer
 10
2.0
 20
65.0
 30
0.0
 11
12.0
 21
65.0
 31
0.0
  0
ARC
  5
63
100
AcDbEntity
  8
outer-cut-full
 62
256
370
-1
  6
ByLayer
100
AcDbCircle
 10
2.0
 20
63.0
 30
0.0
 40
2.0
100
AcDbArc
 50
90.0
 51
180.0
  0
LINE
  5
64
100
AcDbEntity
100
AcDbLine
  8
outer-cut-full
 62
256
370
-1
  6
ByLayer
 10
0.0
 20
63.0
 30
0.0
 11
0.0
 21
59.0
 31
0.0
  0
ARC
  5
65
100
AcDbEntity
  8
outer-cut-full
 62
256
370
-1
  6
ByLayer
100
AcDbCircle
 10
2.0
 20
59.0
 30
0.0
 40
2.0
100
AcDbArc
 50
180.0
 51
270.0
  0
LINE
  5
66
100
AcDbEntity
100
AcDbLine
  8
outer-cut-full
 62
256
370
-1
  6
ByLayer
 10
2.0
 20
57.0
 30
0.0
 11
8.0
 21
57.0
 31
0.0
  0
LINE
  5
67
100
AcDbEntity
100
AcDbLine
  8
outer-cut-full
 62
256
370
-1
  6
ByLayer
 10
10.0
 20
55.0
 30
0.0
 11
10.0
 21
27.0
 31
0.0
  0
ARC
  5
68
100
AcDbEntity
  8
outer-cut-full
 62
256
370
-1
  6
ByLayer
100
AcDbCircle
 10
8.0
 20
55.0
 30
0.0
 40
2.0
100
AcDbArc
 50
0.0
 51
90.0
  0
SPLINE
  5
69
  8
outer-cut-full
 62
256
370
-1
  6
ByLayer
100
AcDbEntity
100
AcDbSpline
 70
8
 71
3
 72
8
 73
4
 74
0
 40
0.0
 40
0.0
 40
0.0
 40
0.0
 40
1.0
 40
1.0
 40
1.0
 40
1.0
 10
57.6000000000000085
 20
25.0
 30
0.0
 10
53.6000000000000085
 20
24.9999999999999929
 30
0.0
 10
53.6000000000000085
 20
35.0000000000000071
 30
0.0
 10
53.6000000000000085
 20
35.0000000000000071
 30
0.0
  0
LINE
  5
6A
100
AcDbEntity
100
AcDbLine
  8
outer-cut-full
 62
256
370
-1
  6
ByLayer
 10
55.0
 20
45.0
 30
0.0
 11
53.5999999999999943
 21
44.9999999999999929
 31
0.0
  0
LINE
  5
6B
100
AcDbEntity
100
AcDbLine
  8
outer-cut-full
 62
256
370
-1
  6
ByLayer
 10
53.5999999999999943
 20
44.9999999999999929
 30
0.0
 11
53.6000000000000085
 21
35.0000000000000071
 31
0.0
  0
LINE
  5
6C
100
AcDbEntity
100
AcDbLine
  8
outer-cut-full
 62
256
370
-1
  6
ByLayer
 10
60.4000000000000199
 20
25.0000000000000142
 30
0.0
 11
63.6000000000000227
 21
25.0000000000000213
 31
0.0
  0
LINE
  5
6D
100
AcDbEntity
100
AcDbLine
  8
outer-cut-full
 62
256
370
-1
  6
ByLayer
 10
63.6000000000000227
 20
25.0000000000000213
 30
0.0
 11
64.7000000000000028
 21
27.0000000000000142
 31
0.0
  0
LINE
  5
6E
100
AcDbEntity
100
AcDbLine
  8
outer-cut-full
 62
256
370
-1
  6
ByLayer
 10
60.4000000000000199
 20
25.0000000000000142
 30
0.0
 11
57.6000000000000085
 21
25.0
 31
0.0
  0
LINE
  5
6F
100
AcDbEntity
100
AcDbLine
  8
outer-cut-full
 62
256
370
-1
  6
ByLayer
 10
55.0
 20
58.6999999999999886
 30
0.0
 11
55.0
 21
45.0
 31
0.0
  0
ARC
  5
70
100
AcDbEntity
  8
outer-cut-full
 62
256
370
-1
  6
ByLayer
100
AcDbCircle
 10
48.7000000000000028
 20
58.7000000000000028
 30
0.0
 40
6.2999999999999998
100
AcDbArc
 50
0.0
 51
90.0000000000000142
  0
LINE
  5
71
100
AcDbEntity
100
AcDbLine
  8
outer-cut-full
 62
256
370
-1
  6
ByLayer
 10
48.7000000000000028
 20
64.9999999999999858
 30
0.0
 11
41.2999999999999972
 21
65.0
 31
0.0
  0
ARC
  5
72
100
AcDbEntity
  8
outer-cut-full
 62
256
370
-1
  6
ByLayer
100
AcDbCircle
 10
41.2999999999999972
 20
58.7000000000000028
 30
0.0
 40
6.2999999999999998
100
AcDbArc
 50
90.0000000000000142
 51
180.0
  0
ARC
  5
73
100
AcDbEntity
  8
outer-cut-full
 62
256
370
-1
  6
ByLayer
100
AcDbCircle
 10
59.0
 20
24.8868645227299439
 30
0.0
 40
10.0
100
AcDbArc
 50
180.0
 51
201.3706222693431585
  0
LINE
  5
74
100
AcDbEntity
100
AcDbLine
  8
outer-cut-full
 62
256
370
-1
  6
ByLayer
 10
49.0000000000000142
 20
24.8868645227299368
 30
0.0
 11
49.0
 21
31.857864376269049
 31
0.0
  0
LINE
  5
75
100
AcDbEntity
100
AcDbLine
  8
outer-cut-full
 62
256
370
-1
  6
ByLayer
 10
46.0710678118654755
 20
38.9289321881345174
 30
0.0
 11
44.0
 21
41.0
 31
0.0
  0
ARC
  5
76
100
AcDbEntity
  8
outer-cut-full
 62
256
370
-1
  6
ByLayer
100
AcDbCircle
 10
38.9999999999999929
 20
31.857864376269049
 30
0.0
 40
10.0
100
AcDbArc
 50
0.0
 51
44.9999999999999645
  0
LINE
  5
77
100
AcDbEntity
100
AcDbLine
  8
outer-cut-full
 62
256
370
-1
  6
ByLayer
 10
35.0000000000000071
 20
58.7000000000000028
 30
0.0
 11
35.0
 21
52.3518375848799593
 31
0.0
  0
ARC
  5
78
100
AcDbEntity
  8
outer-cut-full
 62
256
370
-1
  6
ByLayer
100
AcDbCircle
 10
45.0
 20
52.3518375848799664
 30
0.0
 40
10.0
100
AcDbArc
 50
180.0
 51
236.3099324740202576
  0
LINE
  5
79
100
AcDbEntity
100
AcDbLine
  8
outer-cut-full
 62
256
370
-1
  6
ByLayer
 10
44.0
 20
41.0
 30
0.0
 11
39.4529980377477187
 21
44.0313346415015303
 31
0.0
  0
LINE
  5
7A
100
AcDbEntity
100
AcDbLine
  8
outer-cut-full
 62
256
370
-1
  6
ByLayer
 10
55.5128670161846287
 20
6.3560065141948883
 30
0.0
 11
49.6875722029424765
 21
21.2428710369248179
 31
0.0
  0
ARC
  5
7B
100
AcDbEntity
  8
outer-cut-full
 62
256
370
-1
  6
ByLayer
100
AcDbCircle
 10
64.825294813242138
 20
10.0
 30
0.0
 40
10.0
100
AcDbArc
 50
201.3706222693432153
 51
270.0
  0
LINE
  5
7C
100
AcDbEntity
100
AcDbLine
  8
outer-cut-full
 62
256
370
-1
  6
ByLayer
 10
65.0000000000000142
 20
0.0000000000000142
 30
0.0
 11
64.825294813242138
 21
0.0
 31
0.0
  0
ARC
  5
7D
100
AcDbEntity
  8
outer-cut-full
 62
256
370
-1
  6
ByLayer
100
AcDbCircle
 10
66.0
 20
37.9999999999999929
 30
0.0
 40
1.0
100
AcDbArc
 50
0.0
 51
90.0000000000000142
  0
LINE
  5
7E
100
AcDbEntity
100
AcDbLine
  8
outer-cut-full
 62
256
370
-1
  6
ByLayer
 10
64.7000000000000028
 20
27.0000000000000142
 30
0.0
 11
64.7000000000000171
 21
38.0000000000000142
 31
0.0
  0
LINE
  5
7F
100
AcDbEntity
100
AcDbLine
  8
outer-cut-full
 62
256
370
-1
  6
ByLayer
 10
65.7000000000000171
 20
39.0000000000000213
 30
0.0
 11
66.0
 21
38.9999999999999929
 31
0.0
  0
ARC
  5
80
100
AcDbEntity
  8
outer-cut-full
 62
256
370
-1
  6
ByLayer
100
AcDbCircle
 10
65.7000000000000028
 20
37.9999999999999929
 30
0.0
 40
1.0
100
AcDbArc
 50
90.0000000000000142
 51
180.0
  0
CIRCLE
  5
81
100
AcDbEntity
100
AcDbCircle
  8
inner-cut-full
 62
256
370
-1
  6
ByLayer
 10
73.0000000000000142
 20
4.0000000000000142
 30
0.0
 40
2.0
  0
LINE
  5
82
100
AcDbEntity
100
AcDbLine
  8
outer-cut-full
 62
256
370
-1
  6
ByLayer
 10
75.0000000000000142
 20
0.0000000000000142
 30
0.0
 11
65.0000000000000142
 21
0.0000000000000142
 31
0.0
  0
ARC
  5
83
100
AcDbEntity
  8
outer-cut-full
 62
256
370
-1
  6
ByLayer
100
AcDbCircle
 10
75.0
 20
1.9999999999999858
 30
0.0
 40
2.0
100
AcDbArc
 50
270.0
 51
0.0
  0
LINE
  5
84
100
AcDbEntity
100
AcDbLine
  8
outer-cut-full
 62
256
370
-1
  6
ByLayer
 10
77.0
 20
2.0
 30
0.0
 11
77.0
 21
6.0
 31
0.0
  0
ARC
  5
85
100
AcDbEntity
  8
outer-cut-full
 62
256
370
-1
  6
ByLayer
100
AcDbCircle
 10
75.0000000000000142
 20
6.0000000000000142
 30
0.0
 40
2.0
100
AcDbArc
 50
0.0
 51
90.0000000000000142
  0
LINE
  5
86
100
AcDbEntity
100
AcDbLine
  8
outer-cut-full
 62
256
370
-1
  6
ByLayer
 10
75.0000000000000284
 20
8.0000000000000142
 30
0.0
 11
69.0000000000000142
 21
8.0
 31
0.0
  0
LINE
  5
87
100
AcDbEntity
100
AcDbLine
  8
outer-cut-full
 62
256
370
-1
  6
ByLayer
 10
67.0
 20
10.0
 30
0.0
 11
67.0
 21
38.0000000000000142
 31
0.0
  0
ARC
  5
88
100
AcDbEntity
  8
outer-cut-full
 62
256
370
-1
  6
ByLayer
100
AcDbCircle
 10
69.0
 20
9.9999999999999858
 30
0.0
 40
2.0
100
AcDbArc
 50
180.0
 51
270.0
  0
CIRCLE
  5
89
100
AcDbEntity
100
AcDbCircle
  8
inner-cut-full
 62
256
370
-1
  6
ByLayer
 10
45.0
 20
55.0
 30
0.0
 40
6.2999999999999998
  0
LINE
  5
8A
100
AcDbEntity
100
AcDbLine
  8
kabel-cut-2mm
 62
256
370
-1
  6
ByLayer
 10
27.0
 20
24.0
 30
0.0
 11
26.0
 21
28.0
 31
0.0
  0
LINE
  5
8B
100
AcDbEntity
100
AcDbLine
  8
kabel-cut-2mm
 62
256
370
-1
  6
ByLayer
 10
26.0
 20
28.0
 30
0.0
 11
26.0
 21
33.0
 31
0.0
  0
LINE
  5
8C
100
AcDbEntity
100
AcDbLine
  8
kabel-cut-2mm
 62
256
370
-1
  6
ByLayer
 10
26.0
 20
33.0
 30
0.0
 11
25.0
 21
39.0
 31
0.0
  0
LINE
  5
8D
100
AcDbEntity
100
AcDbLine
  8
kabel-cut-2mm
 62
256
370
-1
  6
ByLayer
 10
25.0
 20
39.0
 30
0.0
 11
23.0
 21
43.0
 31
0.0
  0
LINE
  5
8E
100
AcDbEntity
100
AcDbLine
  8
kabel-cut-2mm
 62
256
370
-1
  6
ByLayer
 10
23.0
 20
43.0
 30
0.0
 11
19.0
 21
50.0
 31
0.0
  0
LINE
  5
8F
100
AcDbEntity
100
AcDbLine
  8
kabel-cut-2mm
 62
256
370
-1
  6
ByLayer
 10
19.0
 20
50.0
 30
0.0
 11
16.0
 21
56.0
 31
0.0
  0
LINE
  5
90
100
AcDbEntity
100
AcDbLine
  8
kabel-cut-2mm
 62
256
370
-1
  6
ByLayer
 10
46.0
 20
52.0
 30
0.0
 11
49.0
 21
44.0
 31
0.0
  0
LINE
  5
91
100
AcDbEntity
100
AcDbLine
  8
kabel-cut-2mm
 62
256
370
-1
  6
ByLayer
 10
49.0
 20
44.0
 30
0.0
 11
51.0
 21
36.0
 31
0.0
  0
LINE
  5
92
100
AcDbEntity
100
AcDbLine
  8
kabel-cut-2mm
 62
256
370
-1
  6
ByLayer
 10
51.0
 20
36.0
 30
0.0
 11
52.0
 21
28.0
 31
0.0
  0
LINE
  5
93
100
AcDbEntity
100
AcDbLine
  8
kabel-cut-2mm
 62
256
370
-1
  6
ByLayer
 10
52.0
 20
28.0
 30
0.0
 11
53.0
 21
22.0
 31
0.0
  0
LINE
  5
94
100
AcDbEntity
100
AcDbLine
  8
kabel-cut-2mm
 62
256
370
-1
  6
ByLayer
 10
53.0
 20
22.0
 30
0.0
 11
58.0
 21
13.0
 31
0.0
  0
LINE
  5
95
100
AcDbEntity
100
AcDbLine
  8
kabel-cut-2mm
 62
256
370
-1
  6
ByLayer
 10
11.8676192420618811
 20
61.0
 30
0.0
 11
5.0
 21
61.0
 31
0.0
  0
LINE
  5
96
100
AcDbEntity
100
AcDbLine
  8
kabel-cut-2mm
 62
256
370
-1
  6
ByLayer
 10
16.0
 20
56.0
 30
0.0
 11
13.5826050934869684
 21
60.0289915108550503
 31
0.0
  0
ARC
  5
97
100
AcDbEntity
  8
kabel-cut-2mm
 62
256
370
-1
  6
ByLayer
100
AcDbCircle
 10
11.8676192420618811
 20
59.0
 30
0.0
 40
2.0
100
AcDbArc
 50
30.9637565320734716
 51
90.0
  0
LINE
  5
98
100
AcDbEntity
100
AcDbLine
  8
kabel-cut-2mm
 62
256
370
-1
  6
ByLayer
 10
66.4721359549995867
 20
4.0
 30
0.0
 11
72.0
 21
4.0
 31
0.0
  0
ARC
  5
99
100
AcDbEntity
  8
kabel-cut-2mm
 62
256
370
-1
  6
ByLayer
100
AcDbCircle
 10
66.4721359549995867
 20
6.0
 30
0.0
 40
2.0
100
AcDbArc
 50
243.4349488229219673
 51
270.0
  0
LINE
  5
9A
100
AcDbEntity
100
AcDbLine
  8
kabel-cut-2mm
 62
256
370
-1
  6
ByLayer
 10
62.5416215263196662
 20
5.7291892368401651
 30
0.0
 11
65.5777087639996665
 21
4.211145618000165
 31
0.0
  0
LINE
  5
9B
100
AcDbEntity
100
AcDbLine
  8
kabel-cut-2mm
 62
256
370
-1
  6
ByLayer
 10
58.0
 20
13.0
 30
0.0
 11
61.6995624330706676
 21
6.5257657421263282
 31
0.0
  0
ARC
  5
9C
100
AcDbEntity
  8
kabel-cut-2mm
 62
256
370
-1
  6
ByLayer
100
AcDbCircle
 10
63.4360487173195864
 20
7.5180436188399966
 30
0.0
 40
2.0
100
AcDbArc
 50
209.7448812969422249
 51
243.4349488229218537
  0
LINE
  5
9D
100
AcDbEntity
100
AcDbLine
  8
pocket-4mm
 62
256
370
-1
  6
ByLayer
 10
29.0
 20
13.0
 30
0.0
 11
32.0
 21
14.0
 31
0.0
  0
LINE
  5
9E
100
AcDbEntity
100
AcDbLine
  8
kabel-cut-2mm
 62
256
370
-1
  6
ByLayer
 10
27.0
 20
24.0
 30
0.0
 11
29.0
 21
18.0
 31
0.0
  0
LINE
  5
9F
100
AcDbEntity
100
AcDbLine
  8
pocket-4mm
 62
256
370
-1
  6
ByLayer
 10
26.7603337201920404
 20
16.3594994197119377
 30
0.0
 11
29.0
 21
13.0
 31
0.0
  0
LINE
  5
A0
100
AcDbEntity
100
AcDbLine
  8
pocket-4mm
 62
256
370
-1
  6
ByLayer
 10
29.7171572875253815
 20
19.6738796125036259
 30
0.0
 11
28.1415915963931091
 21
19.4487987994847309
 31
0.0
  0
LINE
  5
A1
100
AcDbEntity
100
AcDbLine
  8
pocket-4mm
 62
256
370
-1
  6
ByLayer
 10
32.0
 20
14.0
 30
0.0
 11
32.0
 21
17.6939806251812932
 31
0.0
  0
ARC
  5
A2
100
AcDbEntity
  8
pocket-4mm
 62
256
370
-1
  6
ByLayer
100
AcDbCircle
 10
28.4244343088677276
 20
17.4688998121623982
 30
0.0
 40
2.0
100
AcDbArc
 50
98.1301023541559658
 51
213.6900675259798277
  0
ARC
  5
A3
100
AcDbEntity
  8
pocket-4mm
 62
256
370
-1
  6
ByLayer
100
AcDbCircle
 10
30.0
 20
17.6939806251812932
 30
0.0
 40
2.0
100
AcDbArc
 50
0.0
 51
98.1301023541559658
  0
ARC
  5
A4
100
AcDbEntity
  8
outer-cut-full
 62
256
370
-1
  6
ByLayer
100
AcDbCircle
 10
2.0000000000000004
 20
2.0
 30
0.0
 40
2.0
100
AcDbArc
 50
180.0
 51
270.0
  0
LINE
  5
A5
100
AcDbEntity
100
AcDbLine
  8
outer-cut-full
 62
256
370
-1
  6
ByLayer
 10
0.0000000000000013
 20
21.0
 30
0.0
 11
0.0000000000000002
 21
2.0
 31
0.0
  0
ARC
  5
A6
100
AcDbEntity
  8
outer-cut-full
 62
256
370
-1
  6
ByLayer
100
AcDbCircle
 10
2.0000000000000155
 20
21.0
 30
0.0
 40
2.0
100
AcDbArc
 50
90.0
 51
180.0
  0
LINE
  5
A7
100
AcDbEntity
100
AcDbLine
  8
outer-cut-full
 62
256
370
-1
  6
ByLayer
 10
10.0000000000000107
 20
23.0
 30
0.0
 11
1.9999999999999947
 21
23.0
 31
0.0
  0
ARC
  5
A8
100
AcDbEntity
  8
outer-cut-full
 62
256
370
-1
  6
ByLayer
100
AcDbCircle
 10
10.0000000000000107
 20
20.9999999999999964
 30
0.0
 40
2.0
100
AcDbArc
 50
360.0
 51
90.0
  0
LINE
  5
A9
100
AcDbEntity
100
AcDbLine
  8
outer-cut-full
 62
256
370
-1
  6
ByLayer
 10
12.0
 20
1.9999999999999982
 30
0.0
 11
11.9999999999999982
 21
21.0
 31
0.0
  0
LINE
  5
AA
100
AcDbEntity
100
AcDbLine
  8
outer-cut-full
 62
256
370
-1
  6
ByLayer
 10
2.0
 20
0.0
 30
0.0
 11
10.0
 21
-0.0000000000000018
 31
0.0
  0
ARC
  5
AB
100
AcDbEntity
  8
outer-cut-full
 62
256
370
-1
  6
ByLayer
100
AcDbCircle
 10
10.0
 20
1.9999999999999947
 30
0.0
 40
2.0
100
AcDbArc
 50
270.0
 51
360.0
  0
LINE
  5
AC
100
AcDbEntity
100
AcDbLine
  8
pocket-3.5mm
 62
256
370
-1
  6
ByLayer
 10
12.0000000000000053
 20
20.0
 30
0.0
 11
0.0000000000000013
 21
20.0
 31
0.0
  0
CIRCLE
  5
AD
100
AcDbEntity
100
AcDbCircle
  8
inner-cut-full
 62
256
370
-1
  6
ByLayer
 10
6.0000000000000062
 20
12.9999999999999964
 30
0.0
 40
1.6000000000000001
  0
LINE
  5
AE
100
AcDbEntity
100
AcDbLine
  8
pocket-3.5mm
 62
256
370
-1
  6
ByLayer
 10
0.0
 20
20.0
 30
0.0
 11
0.0
 21
15.0
 31
0.0
  0
LINE
  5
AF
100
AcDbEntity
100
AcDbLine
  8
pocket-3.5mm
 62
256
370
-1
  6
ByLayer
 10
0.0
 20
15.0
 30
0.0
 11
12.0
 21
15.0
 31
0.0
  0
LINE
  5
B0
100
AcDbEntity
100
AcDbLine
  8
pocket-3.5mm
 62
256
370
-1
  6
ByLayer
 10
12.0
 20
15.0
 30
0.0
 11
12.0
 21
20.0
 31
0.0
  0
LINE
  5
B1
100
AcDbEntity
100
AcDbLine
  8
pocket-3.5mm
 62
256
370
-1
  6
ByLayer
 10
2.0
 20
16.0
 30
0.0
 11
0.5
 21
13.0
 31
0.0
  0
LINE
  5
B2
100
AcDbEntity
100
AcDbLine
  8
pocket-3.5mm
 62
256
370
-1
  6
ByLayer
 10
0.5
 20
13.0
 30
0.0
 11
0.5
 21
0.0
 31
0.0
  0
LINE
  5
B3
100
AcDbEntity
100
AcDbLine
  8
pocket-3.5mm
 62
256
370
-1
  6
ByLayer
 10
0.5
 20
0.0
 30
0.0
 11
11.5
 21
0.0
 31
0.0
  0
LINE
  5
B4
100
AcDbEntity
100
AcDbLine
  8
pocket-3.5mm
 62
256
370
-1
  6
ByLayer
 10
11.5
 20
0.0
 30
0.0
 11
11.5
 21
13.0
 31
0.0
  0
LINE
  5
B5
100
AcDbEntity
100
AcDbLine
  8
pocket-3.5mm
 62
256
370
-1
  6
ByLayer
 10
11.5
 20
13.0
 30
0.0
 11
10.0
 21
16.0
 31
0.0
  0
LINE
  5
B6
100
AcDbEntity
100
AcDbLine
  8
pocket-3.5mm
 62
256
370
-1
  6
ByLayer
 10
10.0
 20
16.0
 30
0.0
 11
2.0
 21
16.0
 31
0.0
  0
ENDSEC
  0
SECTION
  2
OBJECTS
  0
DICTIONARY
  5
C
100
AcDbDictionary
280
0
281
1
  3
ACAD_GROUP
350
D
  3
ACAD_LAYOUT
350
1A
  3
ACAD_MLINESTYLE
350
17
  3
ACAD_PLOTSETTINGS
350
19
  3
ACAD_PLOTSTYLENAME
350
E
  3
AcDbVariableDictionary
350
B7
  0
DICTIONARY
  5
D
100
AcDbDictionary
280
0
281
1
  0
ACDBDICTIONARYWDFLT
  5
E
100
AcDbDictionary
281
1
  3
Normal
350
F
100
AcDbDictionaryWithDefault
340
F
  0
ACDBPLACEHOLDER
  5
F
  0
DICTIONARY
  5
17
100
AcDbDictionary
280
0
281
1
  3
Standard
350
18
  0
MLINESTYLE
  5
18
100
AcDbMlineStyle
  2
STANDARD
 70
0
  3

 62
256
 51
90.0
 52
90.0
 71
2
 49
0.5
 62
256
  6
BYLAYER
 49
-0.5
 62
256
  6
BYLAYER
  0
DICTIONARY
  5
19
100
AcDbDictionary
280
0
281
1
  0
DICTIONARY
  5
1A
100
AcDbDictionary
281
1
  3
Layout1
350
1E
  3
Layout2
350
26
  3
Model
350
22
  0
LAYOUT
  5
1E
100
AcDbPlotSettings
  1

  2
C:\Program Files\AutoCAD 2002\plotters\DWF ePlot (optimized for plotting).pc3
  4

  6

 40
0.0
 41
0.0
 42
0.0
 43
0.0
 44
0.0
 45
0.0
 46
0.0
 47
0.0
 48
0.0
 49
0.0
140
0.0
141
0.0
142
1.0
143
1.0
 70
688
 72
0
 73
0
 74
5
  7

 75
16
147
1.0
148
0.0
149
0.0
100
AcDbLayout
  1
Layout1
 70
1
 71
1
 10
0.0
 20
0.0
 11
420.0
 21
297.0
 12
0.0
 22
0.0
 32
0.0
 14
100000000000000000000.0
 24
100000000000000000000.0
 34
100000000000000000000.0
 15
-100000000000000000000.0
 25
-100000000000000000000.0
 35
-100000000000000000000.0
146
0.0
 13
0.0
 23
0.0
 33
0.0
 16
1.0
 26
0.0
 36
0.0
 17
0.0
 27
1.0
 37
0.0
 76
0
330
1B
  0
LAYOUT
  5
22
100
AcDbPlotSettings
  1

  2
C:\Program Files\AutoCAD 2002\plotters\DWF ePlot (optimized for plotting).pc3
  4

  6

 40
0.0
 41
0.0
 42
0.0
 43
0.0
 44
0.0
 45
0.0
 46
0.0
 47
0.0
 48
0.0
 49
0.0
140
0.0
141
0.0
142
1.0
143
1.0
 70
1712
 72
0
 73
0
 74
0
  7

 75
0
147
1.0
148
0.0
149
0.0
100
AcDbLayout
  1
Model
 70
1
 71
0
 10
0.0
 20
0.0
 11
12.0
 21
9.0
 12
0.0
 22
0.0
 32
0.0
 14
0.0
 24
0.0
 34
0.0
 15
0.0
 25
0.0
 35
0.0
146
0.0
 13
0.0
 23
0.0
 33
0.0
 16
1.0
 26
0.0
 36
0.0
 17
0.0
 27
1.0
 37
0.0
 76
0
330
1F
  0
LAYOUT
  5
26
100
AcDbPlotSettings
  1

  2
C:\Program Files\AutoCAD 2002\plotters\DWF ePlot (optimized for plotting).pc3
  4

  6

 40
0.0
 41
0.0
 42
0.0
 43
0.0
 44
0.0
 45
0.0
 46
0.0
 47
0.0
 48
0.0
 49
0.0
140
0.0
141
0.0
142
1.0
143
1.0
 70
688
 72
0
 73
0
 74
5
  7

 75
16
147
1.0
148
0.0
149
0.0
100
AcDbLayout
  1
Layout2
 70
1
 71
2
 10
0.0
 20
0.0
 11
12.0
 21
9.0
 12
0.0
 22
0.0
 32
0.0
 14
0.0
 24
0.0
 34
0.0
 15
0.0
 25
0.0
 35
0.0
146
0.0
 13
0.0
 23
0.0
 33
0.0
 16
1.0
 26
0.0
 36
0.0
 17
0.0
 27
1.0
 37
0.0
 76
0
330
23
  0
DICTIONARY
  5
B7
100
AcDbDictionary
281
1
  3
DIMASSOC
350
B9
  3
HIDETEXT
350
B8
  0
DICTIONARYVAR
  5
B8
100
DictionaryVariables
280
0
  1
2
  0
DICTIONARYVAR
  5
B9
100
DictionaryVariables
280
0
  1
1
  0
ENDSEC
  0
EOF
