<?xml version="1.0" encoding="UTF-8" standalone="no"?>
<!-- Created with Inkscape (http://www.inkscape.org/) -->

<svg
   xmlns:dc="http://purl.org/dc/elements/1.1/"
   xmlns:cc="http://creativecommons.org/ns#"
   xmlns:rdf="http://www.w3.org/1999/02/22-rdf-syntax-ns#"
   xmlns:svg="http://www.w3.org/2000/svg"
   xmlns="http://www.w3.org/2000/svg"
   xmlns:sodipodi="http://sodipodi.sourceforge.net/DTD/sodipodi-0.dtd"
   xmlns:inkscape="http://www.inkscape.org/namespaces/inkscape"
   width="1417.3228"
   height="1771.6534"
   id="svg2"
   version="1.1"
   inkscape:version="0.48.4 r9939"
   sodipodi:docname="brettPfad.dxf">
  <defs
     id="defs4">
    <symbol
       id="*Paper_Space" />
    <symbol
       id="*Model_Space" />
    <pattern
       y="0"
       x="0"
       width="8"
       patternUnits="userSpaceOnUse"
       id="Hatch"
       height="8">
      <path
         id="path3014"
         stroke-width="0.25"
         stroke="#000000"
         linecap="square"
         d="M8 4 l-4,4" />
      <path
         id="path3016"
         stroke-width="0.25"
         stroke="#000000"
         linecap="square"
         d="M6 2 l-4,4" />
      <path
         id="path3018"
         stroke-width="0.25"
         stroke="#000000"
         linecap="square"
         d="M4 0 l-4,4" />
    </pattern>
    <marker
       style="overflow:visible"
       refY="0.0"
       refX="0.0"
       orient="auto"
       id="DistanceX">
      <path
         id="path3011"
         style="stroke:#000000; stroke-width:0.5"
         d="M 3,-3 L -3,3 M 0,-5 L  0,5" />
    </marker>
  </defs>
  <sodipodi:namedview
     id="base"
     pagecolor="#ffffff"
     bordercolor="#666666"
     borderopacity="1.0"
     inkscape:pageopacity="0.0"
     inkscape:pageshadow="2"
     inkscape:zoom="0.49497475"
     inkscape:cx="558.55227"
     inkscape:cy="808.93287"
     inkscape:document-units="cm"
     inkscape:current-layer="layer1"
     showgrid="false"
     units="cm"
     inkscape:window-width="1920"
     inkscape:window-height="1176"
     inkscape:window-x="1920"
     inkscape:window-y="24"
     inkscape:window-maximized="1"
     showguides="true"
     inkscape:guide-bbox="true" />
  <metadata
     id="metadata7">
    <rdf:RDF>
      <cc:Work
         rdf:about="">
        <dc:format>image/svg+xml</dc:format>
        <dc:type
           rdf:resource="http://purl.org/dc/dcmitype/StillImage" />
        <dc:title></dc:title>
      </cc:Work>
    </rdf:RDF>
  </metadata>
  <g
     inkscape:label="Ebene 1"
     inkscape:groupmode="layer"
     id="layer1"
     transform="translate(0,719.29263)">
    <g
       id="g3073">
      <path
         id="path3032"
         style="fill:none;stroke:#000000;stroke-width:1.90705228;stroke-linecap:round"
         d="m 655.50847,627.65336 106.43937,0"
         inkscape:connector-curvature="0" />
      <path
         id="path3034"
         style="fill:none;stroke:#000000;stroke-width:1.90705228;stroke-linecap:round"
         d="m 761.94784,627.65336 0,-354.71564"
         inkscape:connector-curvature="0" />
      <path
         id="path3036"
         style="fill:none;stroke:#000000;stroke-width:1.90705228;stroke-linecap:round"
         d="m 761.94784,272.93772 -106.43937,0"
         inkscape:connector-curvature="0" />
      <path
         id="path3038"
         style="fill:none;stroke:#000000;stroke-width:1.90705228;stroke-linecap:round"
         d="m 655.50847,272.93772 0,354.71564"
         inkscape:connector-curvature="0" />
      <path
         id="path3040"
         style="fill:none;stroke:#000000;stroke-width:1.90705228;stroke-linecap:round"
         d="m 708.72815,-294.60732 a 266.09842,319.24408 0 1 0 0,638.48816 266.09842,319.24408 0 0 0 0,-638.48816 z"
         inkscape:connector-curvature="0" />
    </g>
    <g
       style="font-size:165.99479675000000611px;font-style:normal;font-variant:normal;font-weight:bold;font-stretch:normal;line-height:125%;letter-spacing:0px;word-spacing:0px;fill:none;fill-opacity:1;stroke:#000000;font-family:Comic Sans MS;-inkscape-font-specification:Comic Sans MS Bold;stroke-opacity:1"
       id="text3099">
      <path
         d="m 155.69893,-70.94612 c -0.32701,3.171715 -1.63292,5.743996 -3.91772,7.71685 -2.33864,1.968254 -5.01537,2.822733 -8.03019,2.56344 -5.38359,-0.462989 -13.43815,-1.399752 -24.16371,-2.810294 -10.72086,-1.464346 -18.77311,-2.428028 -24.156767,-2.891047 -5.975737,-0.513913 -14.951003,-1.15022 -26.925825,-1.908923 -11.970024,-0.812498 -20.942975,-1.475723 -26.91888,-1.989676 -2.960868,-0.254629 -5.772233,-1.933618 -8.434106,-5.036973 -2.715468,-3.10793 -3.934362,-6.276989 -3.656685,-9.507184 0.152914,-1.776551 2.20612,-6.101407 6.159625,-12.974582 4.701632,-8.001911 7.361786,-12.762671 7.980471,-14.282311 6.471121,-15.33403 15.542513,-28.11241 27.214204,-38.33519 13.902822,-12.20007 28.579656,-17.63575 44.030543,-16.30706 9.31366,0.80111 17.97291,3.85078 25.97776,9.14901 8.16638,5.31234 14.49107,12.17456 18.97409,20.58668 5.0457,9.4369 6.87173,22.25762 5.47811,38.462202 -0.338,3.930077 -1.2922,8.403684 -2.8626,13.420836 -1.93219,6.070794 -4.18163,10.78553 -6.74832,14.144222 m -79.112065,-52.52326 c -3.733029,4.93973 -9.864326,15.69314 -18.393908,32.260239 l 79.946513,6.875573 c 1.52648,-1.983817 2.7554,-4.291548 3.68676,-6.923199 0.88217,-2.690032 1.46679,-5.703985 1.75384,-9.041873 1.00009,-11.62852 0.10266,-20.11199 -2.69229,-25.45045 -2.65657,-5.05524 -6.50244,-9.2095 -11.53763,-12.4628 -5.03051,-3.30696 -10.39909,-5.20588 -16.10574,-5.69675 -13.351283,-1.14815 -25.570453,5.66493 -36.657545,20.43926"
         style="stroke:#000000;stroke-opacity:1;fill:none"
         id="path3953" />
      <path
         d="m 81.175621,-220.75065 c -0.985625,3.31482 -2.953975,5.85821 -5.905055,7.63017 -2.950898,1.77205 -6.031982,2.1806 -9.243262,1.22565 -3.211078,-0.95486 -5.568282,-2.9806 -7.071616,-6.0772 -1.503119,-3.09651 -1.761878,-6.30217 -0.776276,-9.61699 0.985819,-3.31471 2.946468,-5.8322 5.881953,-7.55248 2.951092,-1.77194 6.032176,-2.18049 9.243262,-1.22565 3.211272,0.95498 5.568475,2.98071 7.071616,6.0772 1.518715,3.04483 1.785174,6.22459 0.799378,9.5393 m 58.910419,10.33058 c 2.95224,0.87794 7.71442,2.2095 14.28655,3.9947 6.58757,1.73349 11.35745,3.03916 14.30967,3.91702 3.004,0.89334 5.18974,2.64259 6.55722,5.24776 1.31568,2.58983 1.51147,5.43852 0.58737,8.54609 -0.92411,3.10762 -2.64467,5.38645 -5.16168,6.83651 -2.56882,1.43468 -5.35522,1.70537 -8.35923,0.81205 -2.95221,-0.87788 -7.7221,-2.18355 -14.30967,-3.91702 -6.57213,-1.78522 -11.33431,-3.11678 -14.28655,-3.9947 -4.60957,-1.37074 -10.3075,-3.34699 -17.09383,-5.92879 -6.78622,-2.58173 -12.48415,-4.55799 -17.093816,-5.92878 -3.003939,-0.89326 -5.163783,-2.63481 -6.479538,-5.22465 -1.367401,-2.60516 -1.589086,-5.46156 -0.665057,-8.5692 0.924178,-3.10755 2.670634,-5.37868 5.239374,-6.8134 2.517087,-1.45002 5.277597,-1.7284 8.281547,-0.83516 4.60965,1.37081 10.30759,3.34707 17.09382,5.92878 6.78631,2.58182 12.48425,4.55807 17.09382,5.92879"
         style="stroke:#000000;stroke-opacity:1;fill:none"
         id="path3955" />
      <path
         d="m 203.46146,-255.42535 c -5.65281,11.61146 -13.04599,19.76135 -22.17957,24.4497 -10.09501,5.18189 -20.7053,5.06469 -31.83092,-0.35159 -12.29156,-5.98389 -21.11555,-14.27617 -26.472,-24.87687 -5.92464,-11.77874 -5.91869,-23.76535 0.0179,-35.95984 4.11547,-8.45343 8.89349,-14.81147 14.33408,-19.07415 7.16663,-5.58576 14.53943,-6.53384 22.11841,-2.84426 5.34419,2.6018 8.62648,7.89573 9.84688,15.8818 0.57026,3.64318 0.67868,10.45696 0.32526,20.44136 l -1.09761,29.84509 c 3.66163,-1.10207 6.92818,-2.99748 9.79968,-5.68624 2.87149,-2.68868 5.34791,-6.17071 7.42928,-10.44609 3.16933,-6.51012 4.51777,-12.67476 4.04532,-18.49393 -0.4175,-5.19128 -0.0349,-9.00155 1.14766,-11.43079 2.45978,-5.05259 6.14313,-6.38451 11.05007,-3.99576 5.53848,2.69639 8.0818,8.95272 7.62998,18.769 -0.39628,8.22085 -2.45107,16.14503 -6.16438,23.77257 m -62.82886,-28.15299 c -2.19958,4.51832 -2.57381,9.11391 -1.12271,13.78676 1.45119,4.67297 4.7159,9.44751 9.79413,14.32363 0.2921,-6.64882 0.59664,-13.26156 0.91361,-19.83824 0.22944,-8.00145 0.027,-14.56049 -0.60717,-19.67713 -3.43081,2.35639 -6.42342,6.15805 -8.97786,11.40498"
         style="stroke:#000000;stroke-opacity:1;fill:none"
         id="path3957" />
      <path
         d="m 273.10973,-497.90605 c -3.0979,2.85792 -8.12495,7.09102 -15.08119,12.69931 -6.71793,5.38871 -11.72666,9.64167 -15.02622,12.75887 4.33563,4.38124 12.30935,11.94906 23.92118,22.70349 10.28668,9.47753 18.17789,17.19498 23.67364,23.15237 1.24567,1.35043 3.23491,3.22788 5.96771,5.63235 2.73274,2.4046 4.72198,4.28204 5.96771,5.63234 2.74783,2.97879 4.58544,6.24586 5.51285,9.80122 1.19272,4.56038 0.27988,8.2328 -2.73853,11.01726 -2.18445,2.01514 -4.75186,3.09705 -7.70225,3.24574 -3.2956,0.17309 -6.0242,-0.91202 -8.18583,-3.25533 -0.51296,-0.55599 -1.18307,-1.48163 -2.01033,-2.77692 -0.86395,-1.33493 -1.5707,-2.30028 -2.12025,-2.89607 -1.68538,-1.82692 -4.37074,-4.45897 -8.05609,-7.89619 -3.64566,-3.47374 -6.32948,-6.14398 -8.05147,-8.01071 -4.90952,-5.32194 -11.97637,-12.14578 -21.20057,-20.47152 -10.58901,-9.56602 -17.79487,-16.26162 -21.61759,-20.08681 l -3.09788,2.85778 c -8.85673,8.17041 -16.47275,14.0199 -22.84808,17.54849 -5.3977,2.99457 -10.00176,2.42657 -13.8122,-1.70403 -1.86847,-2.02545 -2.83893,-4.51189 -2.91138,-7.45933 -0.1271,-3.48482 1.25126,-6.37368 4.13509,-8.66659 1.46343,-1.20281 4.93231,-3.77795 10.40666,-7.72544 4.33501,-3.19019 7.71383,-5.90281 10.13648,-8.13785 2.42276,-2.23481 6.00031,-5.6086 10.73268,-10.12138 4.77217,-4.54916 8.36959,-7.94127 10.79226,-10.17633 3.01848,-2.78437 7.74766,-6.74268 14.18756,-11.87494 6.4033,-5.17169 11.11416,-9.14986 14.13261,-11.93452 2.38299,-2.19813 5.08325,-3.25557 8.1008,-3.17232 3.05726,0.0469 5.63008,1.20225 7.71847,3.46592 2.08836,2.264 3.05112,4.94133 2.88829,8.032 -0.15978,3.01462 -1.43116,5.621 -3.81413,7.81914"
         style="stroke:#000000;stroke-opacity:1;fill:none"
         id="path3959" />
      <path
         d="m 388.44021,-570.55377 c -3.63309,2.13666 -9.44291,5.20853 -17.42949,9.21561 -7.70715,3.84299 -13.50328,6.93815 -17.38839,9.28548 3.30891,5.20039 9.49814,14.28585 18.56771,27.25639 8.04506,11.44188 14.12195,20.65609 18.23069,27.64265 0.93126,1.5837 2.47754,3.84 4.63885,6.7689 2.16121,2.92901 3.70749,5.18531 4.63885,6.76889 2.0543,3.49337 3.15797,7.07561 3.31102,10.74675 0.1994,4.70955 -1.47082,8.10517 -5.01066,10.18688 -2.56182,1.50655 -5.30018,2.01993 -8.21509,1.54012 -3.25744,-0.5291 -5.69419,-2.16771 -7.31024,-4.91582 -0.38351,-0.65205 -0.84229,-1.69865 -1.37632,-3.13982 -0.5615,-1.48767 -1.04766,-2.58085 -1.4585,-3.27955 -1.26003,-2.14253 -3.32675,-5.2838 -6.20016,-9.42382 -2.82688,-4.16731 -4.884,-7.34557 -6.17137,-9.53477 -3.67046,-6.24133 -9.13104,-14.40754 -16.38178,-24.49866 -8.32178,-11.59242 -13.94538,-19.66276 -16.87084,-24.21106 l -3.63305,2.13653 c -10.38677,6.10836 -19.06925,10.21138 -26.04747,12.30907 -5.90963,1.78293 -10.28882,0.25232 -13.13757,-4.59184 -1.3969,-2.37535 -1.8185,-5.01096 -1.26481,-7.90683 0.61414,-3.43263 2.57329,-5.96386 5.87747,-7.59369 1.68505,-0.86543 5.62079,-2.64713 11.80723,-5.34511 4.91252,-2.19927 8.78938,-4.1344 11.63058,-5.80539 2.84125,-1.67074 7.05242,-4.20993 12.6335,-7.61756 5.62769,-3.43477 9.86215,-5.98765 12.70337,-7.65866 3.5399,-2.0816 9.00039,-4.94803 16.38149,-8.5993 7.35369,-3.69756 12.80048,-6.58728 16.3404,-8.66917 2.79462,-1.64333 5.65763,-2.10463 8.58903,-1.38392 2.9779,0.69364 5.24753,2.36784 6.80887,5.02261 1.56126,2.65507 1.9349,5.4756 1.12092,8.4616 -0.79488,2.91232 -2.58963,5.19015 -5.38424,6.83349"
         style="stroke:#000000;stroke-opacity:1;fill:none"
         id="path3961" />
      <path
         d="m 449.78009,-612.25135 9.53866,26.55434 c 0.90884,2.48751 0.77972,4.91459 -0.38738,7.28124 -1.16711,2.36683 -3.16086,4.09833 -5.98124,5.19449 -2.77003,1.07675 -5.40978,1.14623 -7.91925,0.20844 -2.54026,-0.86769 -4.2746,-2.57046 -5.20303,-5.10833 -2.79097,-7.0313 -6.48786,-17.36287 -11.09067,-30.99474 -0.97859,-3.56167 -0.95989,-6.49657 0.0561,-8.80471 0.99645,-2.35825 3.00559,-4.12471 6.02742,-5.2994 2.77004,-1.07653 5.40979,-1.14601 7.91925,-0.20844 2.50948,0.93785 4.24382,2.64062 5.20304,5.10833 0.27406,0.70523 0.59003,1.74187 0.94791,3.10994 0.35787,1.36832 0.65427,2.3546 0.88918,2.95884"
         style="stroke:#000000;stroke-opacity:1;fill:none"
         id="path3963" />
      <path
         d="m 543.73977,-536.3906 c 2.78058,9.8829 0.58185,15.83413 -6.59622,17.85373 -3.12093,0.87809 -5.97374,0.61423 -8.55844,-0.79159 -2.58472,-1.40581 -4.31612,-3.66918 -5.1942,-6.79009 l -30.35994,-107.90547 c -0.8488,-3.01676 -0.45163,-5.79481 1.19149,-8.33416 1.58305,-2.35378 3.909,-3.96246 6.97788,-4.82604 3.06891,-0.86332 5.85507,-0.63684 8.35849,0.67945 2.4888,1.26454 4.1576,3.40518 5.00642,6.42193 l 29.17452,103.69224"
         style="stroke:#000000;stroke-opacity:1;fill:none"
         id="path3965" />
      <path
         d="m 607.52702,-533.82497 c -12.74055,2.11159 -23.66577,0.80031 -32.77569,-3.93382 -10.0689,-5.23245 -16.11495,-13.95239 -18.13819,-26.15984 -2.23527,-13.48677 -0.58102,-25.48211 4.96274,-35.98606 6.17551,-11.64918 15.95336,-18.58261 29.33358,-20.8003 9.27547,-1.53721 17.22579,-1.32127 23.85098,0.64783 8.70317,2.61075 13.74392,8.07407 15.12226,16.38997 0.97179,5.8639 -1.4452,11.60474 -7.25098,17.22253 -2.64072,2.57382 -8.13422,6.60629 -16.48051,12.09744 l -24.97234,16.38037 c 3.01816,2.34794 6.45457,3.9145 10.30922,4.69968 3.85459,0.78524 8.12744,0.7891 12.81854,0.0116 7.14316,-1.18388 12.9506,-3.65261 17.42234,-7.40622 3.99154,-3.34535 7.32003,-5.23891 9.98548,-5.6807 5.54391,-0.91881 8.76207,1.31379 9.65449,6.69782 1.00712,6.07709 -2.6224,11.77242 -10.88856,17.086 -6.93302,4.43538 -14.58413,7.34661 -22.95336,8.73371 m -13.41043,-67.52937 c -4.95763,0.82173 -8.92169,3.17665 -11.89219,7.06477 -2.97055,3.88824 -4.97419,9.3141 -6.01092,16.27759 5.59081,-3.61038 11.15941,-7.18974 16.7058,-10.73809 6.65754,-4.44444 11.88892,-8.40608 15.69415,-11.88495 -3.90739,-1.43366 -8.73966,-1.67344 -14.49684,-0.71932"
         style="stroke:#000000;stroke-opacity:1;fill:none"
         id="path3967" />
      <path
         d="m 724.46946,-604.91861 c -0.2323,8.27841 -3.85901,12.52543 -10.88014,12.74109 -6.80523,0.20911 -10.31566,-3.19696 -10.53131,-10.21822 l -0.65645,-8.16996 c -12.09239,2.31773 -20.59624,8.82294 -25.51155,19.51563 l 1.33291,40.74752 c 0.0945,3.07853 -0.88064,5.64932 -2.92559,7.71238 -2.04333,2.11705 -4.68526,3.22536 -7.9258,3.32492 -3.34859,0.10287 -5.97422,-0.89767 -7.87689,-3.00162 -1.78804,-1.89124 -2.72851,-4.34912 -2.82142,-7.37364 l -1.63021,-53.06412 c -0.0514,-1.67423 -0.0738,-4.16031 -0.067,-7.45826 0.005,-3.35183 -0.018,-5.86491 -0.0694,-7.53927 -0.0929,-3.02445 0.72107,-5.56325 2.44199,-7.61643 1.77326,-2.10868 4.33417,-3.2145 7.68276,-3.31746 5.99501,-0.18409 9.6542,2.78492 10.97757,8.90706 9.34059,-7.42283 19.84389,-11.31348 31.50994,-11.67197 10.80179,-0.33176 16.42339,6.68554 16.86483,21.05193 0.0845,2.75454 0.11312,4.56468 0.0857,5.43042"
         style="stroke:#000000;stroke-opacity:1;fill:none"
         id="path3969" />
      <path
         d="m 927.34338,-585.69193 c -10.37326,19.3197 -20.32726,36.73959 -29.86204,52.25974 -2.69164,4.36272 -6.4135,8.62185 -11.16559,12.77741 -3.34146,2.87761 -7.10992,3.7952 -11.3054,2.75278 -6.6028,-1.66423 -10.30678,-9.27994 -11.11194,-22.84716 -0.28191,-5.17319 0.15689,-14.58986 1.31643,-28.25004 -1.64906,2.05455 -2.69785,3.44537 -3.14638,4.17246 -4.26947,5.87891 -10.64881,15.06387 -19.13804,27.55491 -1.30869,2.02356 -2.90667,3.50724 -4.79393,4.45103 -3.03819,3.00446 -6.75868,4.07211 -11.1615,3.20295 -2.49692,-0.47635 -4.5809,-3.29797 -6.25195,-8.46488 -1.81651,-5.25664 -2.77139,-11.69833 -2.86463,-19.3251 -0.0963,-6.90583 0.71965,-21.70147 2.44792,-44.38697 0.37717,-4.90708 0.88127,-8.70192 1.51232,-11.38454 0.6805,-2.89288 2.32175,-5.03248 4.92377,-6.41883 2.66693,-1.42642 5.52579,-1.78085 8.57656,-1.06329 5.68066,1.33637 8.51654,4.97322 8.50764,10.91058 -0.009,3.10646 -0.28429,6.8719 -0.82545,11.29632 -0.82888,6.35522 -1.29431,10.10365 -1.39631,11.2453 -0.28135,4.26362 -0.80693,11.21746 -1.57675,20.86153 6.40402,-9.76197 13.99913,-21.99152 22.78536,-36.68867 3.765,-6.33052 8.61937,-8.79673 14.56314,-7.39864 5.83841,1.37348 8.7811,6.09014 8.82805,14.15 0.0528,5.67448 -0.19271,12.97174 -0.73666,21.89179 -0.77594,12.9733 -1.20557,20.69909 -1.28888,23.17739 0.85687,-1.5192 8.74731,-16.53802 23.67132,-45.0565 2.22115,-4.25125 6.04063,-5.7397 11.45845,-4.46533 2.99803,0.70532 5.39908,2.29706 7.20316,4.77521 1.85643,2.49063 2.44445,5.18239 1.76405,8.07529 -0.12385,0.52604 -0.43476,1.25779 -0.93272,2.19526"
         style="stroke:#000000;stroke-opacity:1;fill:none"
         id="path3971" />
      <path
         d="m 1007.7663,-525.84123 c -1.3913,3.34235 -3.4636,8.39119 -6.2168,15.14654 -2.75343,6.75533 -4.8257,11.80417 -6.21684,15.14653 -0.43614,1.04758 -1.01539,2.65013 -1.73776,4.80765 -0.65188,2.12835 -1.19581,3.71633 -1.63178,4.76396 -1.16289,2.79358 -3.14072,4.66265 -5.93348,5.60722 -2.76379,1.01516 -5.61728,0.9102 -8.56047,-0.31487 -4.14058,-1.72348 -6.38,-4.85045 -6.71826,-9.38091 -7.36136,-0.31325 -14.45919,-1.89223 -21.2935,-4.73694 -7.08381,-2.94858 -12.42222,-6.92651 -16.01524,-11.9338 -4.00482,-5.70545 -5.16056,-12.06866 -3.46723,-19.08964 3.24556,-13.28124 6.91366,-24.8356 11.00429,-34.66314 2.69935,-6.4851 6.53117,-13.58166 11.49545,-21.28971 3.34406,-5.22173 7.88454,-6.63867 13.62145,-4.25083 2.89332,1.20442 4.97852,3.15514 6.25561,5.8522 1.29773,2.64729 1.36523,5.36771 0.20247,8.16125 -0.91369,2.19503 -2.72059,5.48141 -5.42068,9.85915 -2.65032,4.39861 -4.48418,7.82009 -5.50159,10.26445 -2.92784,7.03392 -5.26777,13.28825 -7.01979,18.763 -1.68146,5.44567 -2.76463,10.08681 -3.24951,13.92345 1.0187,1.06786 2.03946,1.99023 3.06228,2.76713 1.07263,0.79766 2.15771,1.4249 3.25524,1.88172 5.53727,2.30486 11.95556,4.03996 19.25489,5.20529 1.5988,-3.8412 3.39075,-8.21659 5.37586,-13.12616 2.3296,-5.87815 4.02393,-10.08932 5.083,-12.63351 4.25664,-10.22655 8.40587,-18.85906 12.4477,-25.89756 3.21919,-5.62489 7.84689,-7.1811 13.88319,-4.66865 2.9431,1.22516 5.0782,3.19665 6.4052,5.91449 1.3268,2.71792 1.3341,5.44251 0.022,8.17379 -8.8592,18.61197 -12.9877,27.19459 -12.3854,25.7479 m 5.5311,-49.14455 c -2.9433,-1.22505 -5.3798,-3.17565 -7.3093,-5.85181 -2.3039,-3.18299 -2.8537,-6.2212 -1.6492,-9.11465 2.9069,-6.98393 9.5485,-8.31642 19.9249,-3.99749 2.6937,1.12136 4.9888,3.13021 6.8854,6.02654 2.1915,3.31202 2.6956,6.38974 1.5121,9.23316 -1.3913,3.34241 -4.1672,5.23047 -8.3276,5.6642 -3.4166,0.33382 -7.0954,-0.3195 -11.0363,-1.95995 m -32.25112,-13.42426 c -9.27882,-3.86212 -12.44391,-9.3351 -9.4953,-16.41897 0.99664,-2.39442 3.4775,-3.99558 7.44259,-4.80348 3.70312,-0.74111 6.92657,-0.54068 9.67036,0.60127 9.62787,4.00764 12.92187,9.5928 9.88197,16.75551 -1.03831,2.49436 -3.72909,4.0374 -8.07236,4.62913 -3.79063,0.52933 -6.93305,0.27484 -9.42726,-0.76346"
         style="stroke:#000000;stroke-opacity:1;fill:none"
         id="path3973" />
      <path
         d="m 1050.9608,-439.44328 c -5.688,-3.43812 -7.1646,-8.15054 -4.4298,-14.13728 2.2316,-5.15442 4.4772,-10.33193 6.7369,-15.53254 2.381,-5.50606 4.9271,-10.50188 7.6385,-14.98748 0.7267,-1.20233 2.0399,-3.21823 3.9397,-6.04771 1.9459,-2.80151 3.2822,-4.80344 4.0091,-6.00578 0.1955,-0.32368 0.7309,-1.10499 1.6062,-2.34392 0.903,-1.28513 1.6061,-2.3439 2.1093,-3.1763 2.3199,-3.83817 2.4857,-6.35823 0.4973,-7.56019 -4.2545,-2.57155 -9.9489,-2.60405 -17.0833,-0.0975 -7.0603,2.4883 -14.0525,6.84871 -20.9767,13.08125 -1.015,1.47014 -2.4529,3.37906 -4.3139,5.72677 -1.5354,1.91325 -2.904,3.8641 -4.1059,5.85256 -0.7827,1.29481 -1.8319,3.34401 -3.1477,6.14759 -1.2416,2.78529 -2.2537,4.82534 -3.0363,6.12016 -1.5933,2.63586 -3.8319,4.25026 -6.7159,4.8432 -2.8656,0.66711 -5.6858,0.16212 -8.4604,-1.51498 -2.7746,-1.67713 -4.5325,-3.93937 -5.27384,-6.78673 -0.76927,-2.80113 -0.35728,-5.51963 1.23594,-8.1555 0.7827,-1.29481 1.8179,-3.32088 3.1058,-6.07823 1.3158,-2.80357 2.365,-4.85277 3.1477,-6.14759 2.6833,-4.43935 6.7386,-10.41716 12.1658,-17.93348 5.4271,-7.51625 9.4824,-13.49406 12.1658,-17.93347 0.8386,-1.38725 1.9899,-3.50098 3.4542,-6.3412 1.5383,-2.8584 2.7128,-4.95816 3.5234,-6.29927 1.5653,-2.58957 3.7759,-4.15772 6.632,-4.70447 2.9301,-0.56491 5.7594,-0.0228 8.4878,1.62627 6.0578,3.66176 7.1007,9.24849 3.1285,16.76021 l -0.3919,0.80494 c 10.8604,-2.71675 20.0363,-1.81105 27.5279,2.71711 8.7398,5.28294 12.5664,12.58388 11.4796,21.90284 -0.7433,6.2435 -4.0638,14.24391 -9.9616,24.00125 l -2.9768,4.92491 c -1.3322,2.09924 -2.2637,3.58817 -2.7947,4.4668 -2.1803,3.60697 -4.504,8.54792 -6.9708,14.82286 -2.4208,6.30284 -4.7074,11.23465 -6.8596,14.79542 -1.5654,2.58959 -3.79,4.18086 -6.6739,4.77384 -2.884,0.59288 -5.6901,0.0648 -8.4184,-1.58435"
         style="stroke:#000000;stroke-opacity:1;fill:none"
         id="path3975" />
      <path
         d="m 1154.8005,-440.06761 c -4.1009,-3.43519 -5.1254,-7.21877 -3.0737,-11.35074 -1.4141,-1.67789 -2.9909,-3.24552 -4.7305,-4.7029 -9.9827,-8.36243 -16.119,-11.17675 -18.4091,-8.44297 -1.3533,1.61547 -0.172,6.30576 3.5441,14.07091 5.0437,10.63976 8.1306,18.23034 9.2605,22.77177 2.3626,9.38058 1.2539,16.80469 -3.3263,22.27235 -5.9683,7.12445 -13.8102,9.75402 -23.5258,7.88873 -7.8071,-1.53529 -15.6042,-5.56461 -23.3914,-12.08799 -5.509,-4.61499 -9.8304,-9.68005 -12.9641,-15.19521 -4.2701,-7.52445 -4.514,-13.54414 -0.7318,-18.05908 3.4699,-4.14213 7.6694,-4.14861 12.5986,-0.0194 1.9053,1.59616 4.1567,4.50425 6.7541,8.72428 2.5974,4.22003 4.8695,7.14547 6.8163,8.77633 8.4085,7.04388 14.0562,8.8849 16.943,5.52306 1.7696,-2.11251 0.8098,-6.89909 -2.8792,-14.35977 -5.3752,-10.91734 -8.5701,-18.2107 -9.5845,-21.88012 -2.4053,-8.99325 -1.1443,-16.4308 3.783,-22.31268 6.9745,-8.32566 16.0876,-10.24282 27.3393,-5.75148 6.6003,2.63914 15.1817,8.3828 25.7442,17.23101 4.1421,3.46992 6.7562,6.57613 7.8423,9.31861 1.5193,3.7399 0.6481,7.55665 -2.6135,11.45025 -6.2459,7.45586 -11.3778,9.50089 -15.3955,6.13508"
         style="stroke:#000000;stroke-opacity:1;fill:none"
         id="path3977" />
      <path
         d="m 1154.6643,-346.90963 c -7.7442,-9.01907 -11.6766,-18.78282 -11.7971,-29.29128 -0.1152,-11.08285 4.2548,-20.42598 13.1099,-28.02942 8.158,-7.00499 19.0643,-11.34861 32.7188,-13.03089 15.553,-1.95932 27.0609,1.40653 34.5236,10.09757 3.6608,4.26357 6.7898,10.23016 9.3871,17.8998 3.1202,9.35712 2.8356,15.61973 -0.8539,18.78784 -2.0089,1.72484 -4.3907,2.55916 -7.1452,2.50296 -2.9482,-0.0326 -5.4254,-1.21729 -7.4318,-3.55402 -1.5137,-1.76282 -2.4013,-4.70422 -2.6627,-8.82419 -0.1853,-4.11419 -2.4076,-8.65151 -6.6669,-13.61199 -2.7105,-3.15665 -8.745,-3.9221 -18.1033,-2.29636 -9.0128,1.61374 -15.6918,4.28626 -20.0373,8.01757 -4.3046,3.69611 -6.3491,8.15803 -6.1335,13.38576 0.1977,4.95813 2.3734,9.85594 6.5272,14.69345 2.3584,2.74668 6.2903,5.21069 11.7956,7.39204 5.5052,2.18128 8.7155,3.80489 9.6307,4.87081 1.9008,2.21372 2.7207,4.78594 2.4595,7.71665 -0.226,2.97163 -1.3639,5.33749 -3.4136,7.09759 -3.1977,2.74563 -9.3875,2.00669 -18.5693,-2.21683 -8.1792,-3.80251 -13.9585,-7.67153 -17.3378,-11.60706"
         style="stroke:#000000;stroke-opacity:1;fill:none"
         id="path3979" />
      <path
         d="m 1265.6385,-328.61997 c 5.3278,1.51959 9.9184,3.76625 13.7717,6.74 3.9268,2.99421 7.1532,6.72574 9.6792,11.19458 4.5466,8.0439 5.559,15.10612 3.0374,21.18668 -1.8981,4.54861 -6.192,9.08602 -12.8819,13.61224 -5.6531,3.50555 -11.3164,7.04795 -16.9898,10.62723 -7.1481,5.03334 -11.4922,8.10942 -13.0322,9.22825 -4.8493,3.60982 -8.9602,6.9886 -12.3328,10.13633 -0.8549,0.79349 -1.6587,1.40298 -2.4113,1.82847 -2.6343,1.48888 -5.3698,1.70058 -8.2065,0.63511 -2.8573,-0.992 -5.0437,-2.82861 -6.5592,-5.50984 -2.6855,-4.75116 -2.075,-9.16173 1.8314,-13.23174 3.1721,-3.28269 7.9498,-7.34868 14.333,-12.19795 6.1541,-4.59576 11.3715,-8.10339 15.6522,-10.52291 1.176,-0.66475 2.9666,-1.61478 5.3718,-2.85009 2.4788,-1.21493 4.3062,-2.15473 5.4823,-2.81942 3.4809,-1.96758 5.4771,-3.15793 5.9884,-3.57104 2.3479,-1.88576 2.9502,-3.84 1.807,-5.86271 -2.9514,-5.22151 -8.0226,-8.59306 -15.2137,-10.11465 -3.6222,-0.80786 -9.8602,-1.19231 -18.714,-1.15338 -17.0287,9.62504 -27.7488,14.59813 -32.1603,14.9193 -4.8943,0.34565 -8.4715,-1.48072 -10.7315,-5.47914 -1.4889,-2.63428 -1.9481,-5.47819 -1.3775,-8.53173 0.6442,-3.03311 2.2599,-5.28085 4.8472,-6.74321 0.8937,-0.50519 2.2865,-0.95106 4.1784,-1.33763 1.221,-0.25566 7.731,-3.56287 19.53,-9.92163 9.3221,-5.57949 25.0837,-14.42632 47.2848,-26.5405 l 2.4083,-1.17501 c 5.7102,-2.85517 9.5062,-4.81454 11.3879,-5.87813 1.4581,-0.8242 3.4655,-2.26918 6.0222,-4.33494 2.63,-2.04522 4.6743,-3.47997 6.1326,-4.30427 2.6812,-1.5155 5.4137,-1.78753 8.1974,-0.81612 2.8305,0.94494 5.0168,2.78155 6.5591,5.50985 2.6321,4.65704 1.9071,9.19442 -2.175,13.61215 -2.3174,2.48911 -6.3925,5.38214 -12.2254,8.67909 -4.7042,2.65888 -9.5585,5.2165 -14.5631,7.67286 -4.7696,2.32344 -9.4123,4.76141 -13.9281,7.3139"
         style="stroke:#000000;stroke-opacity:1;fill:none"
         id="path3981" />
      <path
         d="m 1243.2248,-188.30468 c -3.7488,-12.35826 -3.8679,-23.36124 -0.3574,-33.00898 3.8801,-10.66332 11.7407,-17.79094 23.5819,-21.3829 13.0821,-3.96839 25.1906,-3.88647 36.3258,0.24575 12.3527,4.60983 20.4976,13.4041 24.4347,26.38283 2.7292,8.99718 3.5479,16.90817 2.4562,23.73302 -1.458,8.96859 -6.2202,14.67636 -14.2866,17.12334 -5.688,1.72533 -11.6941,0.0746 -18.0186,-4.95217 -2.895,-2.28397 -7.607,-7.20706 -14.1358,-14.76927 l -19.4858,-22.63275 c -1.9359,3.29761 -3.0428,6.9084 -3.3205,10.83239 -0.2779,3.92394 0.2734,8.16108 1.6537,12.71142 2.1018,6.92884 5.3041,12.36635 9.6068,16.31256 3.8355,3.52312 6.1455,6.57741 6.9298,9.16288 1.6312,5.37757 -0.1644,8.8585 -5.3869,10.4428 -5.8947,1.78805 -12.0133,-1.07083 -18.3557,-8.57665 -5.2985,-6.29807 -9.179,-13.50615 -11.6416,-21.62427 m 65.215,-22.06951 c -1.4588,-4.80887 -4.3088,-8.43341 -8.5498,-10.87363 -4.2412,-2.44025 -9.8814,-3.72204 -16.9205,-3.84536 4.306,5.07441 8.5785,10.13082 12.8173,15.16925 5.2716,6.02375 9.8793,10.69614 13.823,14.01718 0.914,-4.06052 0.5239,-8.883 -1.17,-14.46744"
         style="stroke:#000000;stroke-opacity:1;fill:none"
         id="path3983" />
      <path
         d="m 1258.9601,-74.892402 c -0.5021,-6.627347 2.478,-10.565127 8.9403,-11.813354 5.4926,-1.174865 11.012,-2.351712 16.5584,-3.530542 5.8656,-1.257319 11.4116,-2.083943 16.638,-2.479875 1.4009,-0.106196 3.8047,-0.20704 7.2114,-0.302532 3.4108,-0.04172 5.8166,-0.115624 7.2175,-0.221711 0.3771,-0.02863 1.3241,-0.04619 2.841,-0.05268 1.5706,-0.01068 2.8409,-0.05274 3.8108,-0.126164 4.472,-0.338889 6.6203,-1.666732 6.4448,-3.983534 -0.3756,-4.957034 -3.6546,-9.612754 -9.837,-13.967174 -6.1245,-4.30469 -13.7339,-7.46723 -22.8282,-9.48763 -1.7862,0.0269 -4.1753,-0.0359 -7.1673,-0.18851 -2.4491,-0.13961 -4.8321,-0.12162 -7.149,0.0539 -1.5086,0.11428 -3.7863,0.44942 -6.833,1.00543 -2.9887,0.60574 -5.2374,0.96578 -6.746,1.08011 -3.0712,0.23267 -5.6852,-0.65307 -7.8421,-2.65721 -2.2066,-1.94622 -3.4324,-4.53573 -3.6774,-7.76853 -0.2449,-3.23284 0.5767,-5.97747 2.465,-8.23392 1.8343,-2.25239 4.2871,-3.49493 7.3583,-3.72761 1.5086,-0.11432 3.7593,-0.44741 6.7522,-0.9993 3.0466,-0.55598 5.3243,-0.89112 6.833,-1.00542 5.1724,-0.39191 12.394,-0.55974 21.6648,-0.5035 9.2706,0.0562 16.4922,-0.11159 21.6648,-0.50349 1.6163,-0.12247 4.0058,-0.4119 7.1685,-0.86827 3.2205,-0.40659 5.612,-0.66907 7.1746,-0.78746 3.0173,-0.22861 5.5774,0.66121 7.6805,2.66946 2.1608,2.05804 3.3617,4.67653 3.6027,7.85548 0.5347,7.0583 -3.4092,11.15039 -11.8315,12.27626 l -0.8829,0.14818 c 8.5163,7.26639 13.1052,15.2639 13.7666,23.992556 0.7715,10.183324 -2.9523,17.537205 -11.1714,22.061666 -5.5154,3.018911 -13.9575,4.959088 -25.3262,5.820538 l -5.7382,0.43477 c -2.4826,0.133831 -4.2358,0.239567 -5.2595,0.317208 -4.2027,0.318346 -9.5748,1.294364 -16.1163,2.928058 -6.5375,1.687414 -11.8806,2.688331 -16.0294,3.002754 -3.0173,0.228528 -5.6044,-0.659248 -7.7612,-2.663333 -2.1569,-2.004244 -3.3558,-4.595795 -3.5966,-7.774659"
         style="stroke:#000000;stroke-opacity:1;fill:none"
         id="path3985" />
    </g>
    <flowRoot
       xml:space="preserve"
       id="flowRoot3103"
       style="fill:black;stroke:none;stroke-opacity:1;stroke-width:1px;stroke-linejoin:miter;stroke-linecap:butt;fill-opacity:1;font-family:Sans;font-style:normal;font-weight:normal;font-size:40px;line-height:125%;letter-spacing:0px;word-spacing:0px"><flowRegion
         id="flowRegion3105"><rect
           id="rect3107"
           width="20.203051"
           height="62.629459"
           x="105.05586"
           y="262.48553" /></flowRegion><flowPara
         id="flowPara3109"></flowPara></flowRoot>    <g
       transform="scale(0.75168375,1.3303467)"
       style="font-size:152.07371520999996051px;font-style:normal;font-variant:normal;font-weight:bold;font-stretch:normal;line-height:125%;letter-spacing:0px;word-spacing:0px;fill:none;fill-opacity:1;stroke:#000000;font-family:Comic Sans MS;-inkscape-font-specification:Comic Sans MS Bold;stroke-opacity:1"
       id="text3111">
      <path
         d="m 102.79137,713.99458 c -11.831285,-1e-5 -21.509144,-2.82169 -29.033601,-8.46505 -8.316539,-6.23738 -12.4748,-15.02418 -12.474797,-26.36043 -3e-6,-12.52426 3.291954,-23.11792 9.875881,-31.78103 7.326448,-9.60354 17.202319,-14.40534 29.627647,-14.40542 8.61349,8e-5 15.76669,1.38616 21.45962,4.15827 7.4749,3.6633 11.21239,9.35616 11.21246,17.07859 -7e-5,5.4454 -3.04451,10.27195 -9.13333,14.47967 -2.77224,1.93067 -8.34134,4.75234 -16.70732,8.46504 l -25.023846,11.06396 c 2.376124,2.57418 5.247305,4.50481 8.61355,5.79187 3.366178,1.2871 7.227421,1.93064 11.583736,1.93062 6.63338,2e-5 12.25198,-1.36132 16.85583,-4.08401 4.1087,-2.42563 7.40065,-3.63846 9.87588,-3.63848 5.14825,2e-5 7.72242,2.49993 7.7225,7.49973 -8e-5,5.64337 -4.13359,10.24716 -12.40055,13.81138 -6.9305,2.97019 -14.28171,4.45528 -22.05366,4.45529 M 100.7865,650.9523 c -4.603837,6e-5 -8.539334,1.53465 -11.806508,4.60379 -3.267237,3.06925 -5.890902,7.67304 -7.871003,13.81138 5.593828,-2.42561 11.162928,-4.82651 16.707317,-7.20271 6.682884,-3.01964 12.004464,-5.81656 15.964774,-8.39078 -3.31677,-1.88106 -7.64829,-2.82162 -12.99458,-2.82168"
         style="fill:none;stroke:#000000;stroke-opacity:1"
         id="path3988" />
      <path
         d="m 167.24449,621.32466 c -3.16822,8e-5 -5.91565,-1.06423 -8.24228,-3.19296 -2.32666,-2.12854 -3.48998,-4.72745 -3.48997,-7.79675 -1e-5,-3.06909 1.16331,-5.668 3.48997,-7.79674 2.32663,-2.12853 5.07406,-3.19285 8.24228,-3.19296 3.16818,1.1e-4 5.89085,1.06443 8.16802,3.19296 2.32662,2.12874 3.48994,4.72765 3.48998,7.79674 -4e-5,3.0693 -1.16336,5.66821 -3.48998,7.79675 -2.27717,2.12873 -4.99984,3.19304 -8.16802,3.19296 m 6.31165,54.42872 c -3e-5,2.82171 0.0742,7.35125 0.22277,13.58862 0.19798,6.23741 0.29699,10.76695 0.29702,13.58862 -3e-5,2.87119 -0.96535,5.24734 -2.89594,7.12845 -1.93065,1.83162 -4.38105,2.74743 -7.35122,2.74743 -2.97021,0 -5.42061,-0.91581 -7.35122,-2.74743 -1.93063,-1.88111 -2.89594,-4.25726 -2.89593,-7.12845 -10e-6,-2.82167 -0.099,-7.35121 -0.29702,-13.58862 -0.14852,-6.23737 -0.22278,-10.76691 -0.22277,-13.58862 -10e-6,-4.40574 0.24751,-9.92534 0.74255,-16.55881 0.49502,-6.63336 0.74254,-12.15296 0.74255,-16.5588 -1e-5,-2.87112 0.9653,-5.22251 2.89593,-7.0542 1.93061,-1.88105 4.38102,-2.82161 7.35122,-2.82168 2.97017,7e-5 5.42057,0.94063 7.35122,2.82168 1.9306,1.83169 2.89591,4.18308 2.89594,7.0542 -3e-5,4.40584 -0.24755,9.92544 -0.74255,16.5588 -0.49506,6.63347 -0.74258,12.15307 -0.74255,16.55881"
         style="fill:none;stroke:#000000;stroke-opacity:1"
         id="path3990" />
      <path
         d="m 251.59788,715.85094 c -6.08895,0 -9.47992,-2.99494 -10.1729,-8.98482 -0.6931,-5.09882 -1.38615,-10.22239 -2.07914,-15.37073 -0.7426,-5.44533 -1.11387,-10.5689 -1.11382,-15.37073 -5e-5,-1.28705 0.0742,-3.48994 0.22277,-6.60868 0.19796,-3.11865 0.29696,-5.32154 0.29702,-6.60867 -6e-5,-0.34647 0.0495,-1.21278 0.1485,-2.59891 0.099,-1.43554 0.14846,-2.59887 0.14851,-3.48998 -5e-5,-4.1087 -1.06437,-6.16308 -3.19295,-6.16314 -4.55434,6e-5 -9.03437,2.67323 -13.44011,8.01951 -4.35631,5.29689 -7.77202,12.02931 -10.24715,20.19729 -0.099,1.63364 -0.3218,3.81177 -0.6683,6.53442 -0.29704,2.22766 -0.44555,4.4058 -0.44552,6.53442 -3e-5,1.3861 0.14848,3.48998 0.44552,6.31165 0.3465,2.77219 0.51976,4.85132 0.51979,6.2374 -3e-5,2.82168 -0.99009,5.14833 -2.97019,6.97994 -1.93065,1.88112 -4.38105,2.82168 -7.35122,2.82168 -2.9702,0 -5.42061,-0.94056 -7.35122,-2.82168 -1.93063,-1.83161 -2.89594,-4.15826 -2.89594,-6.97994 0,-1.38608 -0.14851,-3.46521 -0.44552,-6.2374 -0.29703,-2.82167 -0.44554,-4.92555 -0.44553,-6.31165 -1e-5,-4.75228 0.34651,-11.36095 1.03956,-19.82602 0.69304,-8.46499 1.03956,-15.07366 1.03957,-19.82602 -1e-5,-1.48503 -0.099,-3.68792 -0.29702,-6.60867 -0.14852,-2.97012 -0.22277,-5.17301 -0.22276,-6.60867 -1e-5,-2.7721 0.99005,-5.04925 2.97019,-6.83144 2.02961,-1.83153 4.50477,-2.74734 7.42547,-2.74742 6.48489,8e-5 9.95011,3.88607 10.39566,11.65799 l 0.0743,0.8168 c 7.22743,-7.27688 14.85091,-10.91536 22.87046,-10.91544 9.35604,8e-5 15.81619,3.91082 19.38049,11.73225 2.37608,5.24739 3.56415,13.09364 3.56423,23.53875 l 0,5.27209 c -0.0496,2.27718 -0.0743,3.88603 -0.0743,4.82656 -7e-5,3.86127 0.51971,8.83634 1.55935,14.9252 1.08899,6.0889 1.63353,11.03921 1.63361,14.85095 -8e-5,2.77218 -0.99014,5.07407 -2.97019,6.90569 -1.9802,1.83161 -4.43061,2.74742 -7.35122,2.74742"
         style="fill:none;stroke:#000000;stroke-opacity:1"
         id="path3992" />
      <path
         d="m 376.04882,713.99458 c -11.83129,-1e-5 -21.50915,-2.82169 -29.0336,-8.46505 -8.31654,-6.23738 -12.4748,-15.02418 -12.4748,-26.36043 0,-12.52426 3.29195,-23.11792 9.87588,-31.78103 7.32645,-9.60354 17.20232,-14.40534 29.62764,-14.40542 8.6135,8e-5 15.7667,1.38616 21.45962,4.15827 7.47491,3.6633 11.21239,9.35616 11.21247,17.07859 -8e-5,5.4454 -3.04452,10.27195 -9.13333,14.47967 -2.77224,1.93067 -8.34135,4.75234 -16.70732,8.46504 l -25.02385,11.06396 c 2.37612,2.57418 5.24731,4.50481 8.61355,5.79187 3.36618,1.2871 7.22742,1.93064 11.58374,1.93062 6.63337,2e-5 12.25198,-1.36132 16.85583,-4.08401 4.10869,-2.42563 7.40065,-3.63846 9.87588,-3.63848 5.14825,2e-5 7.72241,2.49993 7.72249,7.49973 -8e-5,5.64337 -4.13359,10.24716 -12.40054,13.81138 -6.9305,2.97019 -14.28172,4.45528 -22.05366,4.45529 m -2.00488,-63.04228 c -4.60383,6e-5 -8.53933,1.53465 -11.8065,4.60379 -3.26724,3.06925 -5.8909,7.67304 -7.871,13.81138 5.59382,-2.42561 11.16292,-4.82651 16.70731,-7.20271 6.68288,-3.01964 12.00447,-5.81656 15.96477,-8.39078 -3.31676,-1.88106 -7.64828,-2.82162 -12.99458,-2.82168"
         style="fill:none;stroke:#000000;stroke-opacity:1"
         id="path3994" />
      <path
         d="m 485.79732,657.04119 c -0.44559,7.57403 -3.88606,11.36102 -10.32141,11.36097 -6.23745,5e-5 -9.35614,-3.21766 -9.35609,-9.65311 l -0.37128,-7.49973 c -11.13825,1.78217 -19.10825,7.49978 -23.91003,17.15284 l 0.0743,37.35014 c -3e-5,2.82168 -0.96534,5.14833 -2.89594,6.97994 -1.93064,1.88112 -4.38104,2.82168 -7.35122,2.82169 -3.0692,-1e-5 -5.44535,-0.99007 -7.12845,-2.97019 -1.58411,-1.78212 -2.37616,-4.05926 -2.37615,-6.83144 l 0,-48.63686 c -10e-6,-1.53454 0.0495,-3.81168 0.14851,-6.83143 0.099,-3.06914 0.1485,-5.37103 0.14851,-6.9057 -1e-5,-2.7721 0.81679,-5.074 2.4504,-6.90569 1.6831,-1.88104 4.05925,-2.8216 7.12846,-2.82168 5.49483,8e-5 8.76203,2.82176 9.80162,8.46504 8.76203,-6.53434 18.48939,-9.80154 29.18212,-9.80162 9.90057,8e-5 14.85088,6.58399 14.85095,19.75176 -7e-5,2.52472 -0.0248,4.18307 -0.0743,4.97507"
         style="fill:none;stroke:#000000;stroke-opacity:1"
         id="path3996" />
      <path
         d="m 531.90953,634.31924 c 6.63338,-0.59397 11.38567,-0.89098 14.25691,-0.89106 9.25703,8e-5 13.88557,3.16828 13.88564,9.50461 -7e-5,6.53447 -4.92563,9.65317 -14.77669,9.35609 -3.11876,-0.0989 -7.8463,0.12382 -14.18266,0.6683 -0.19805,5.24738 -0.24756,11.9303 -0.14851,20.04878 0.19797,11.68277 0.29698,18.34094 0.29702,19.97452 -4e-5,9.05909 -0.56933,16.23704 -1.70786,21.53388 -1.13861,5.29683 -4.40582,7.94524 -9.80163,7.94526 -2.7722,-2e-5 -5.19785,-0.89107 -7.27696,-2.67317 -2.02965,-1.78213 -3.04447,-4.03452 -3.04445,-6.75719 -2e-5,-0.64354 0.0495,-1.26233 0.14851,-1.85636 1.18806,-7.07895 1.7821,-13.73712 1.78212,-19.97453 l 0,-37.12737 c -0.89108,0.0496 -2.52468,0.24757 -4.90082,0.59404 -1.88113,0.24757 -3.31672,0.37132 -4.30677,0.37127 -3.0197,5e-5 -5.51961,-0.86625 -7.49973,-2.59892 -1.98013,-1.78205 -2.97019,-4.1582 -2.97019,-7.12845 0,-4.60373 2.42565,-7.62342 7.27697,-9.05908 2.17812,-0.64347 6.50965,-1.06424 12.99458,-1.26233 0.0495,-0.89098 0.37125,-3.68791 0.96531,-8.39079 1.38606,-11.03911 4.381,-19.25662 8.98482,-24.65257 5.74233,-6.73232 14.55388,-10.09853 26.43469,-10.09865 9.05901,1.2e-4 13.58855,3.24257 13.58862,9.72737 -7e-5,6.43552 -4.20784,9.65322 -12.62331,9.65312 -5.98994,10e-5 -10.34621,2.10398 -13.06883,6.31165 -2.02968,3.11879 -3.39101,7.99485 -4.08401,14.62819 l -0.22277,2.15339"
         style="fill:none;stroke:#000000;stroke-opacity:1"
         id="path3998" />
      <path
         d="m 604.4564,714.95989 c -9.15812,-10e-6 -17.02911,-3.14345 -23.61301,-9.43036 -7.22747,-6.88092 -11.01446,-16.06375 -11.36098,-27.54851 -0.34652,-10.94015 2.64842,-20.69226 8.98483,-29.25636 7.52446,-10.09858 17.99437,-15.14789 31.40975,-15.14797 9.90058,8e-5 17.77158,3.96032 23.61301,11.88076 5.24727,7.12851 7.87093,15.96482 7.87101,26.50894 -8e-5,11.48476 -3.06927,21.28638 -9.20759,29.40488 -6.881,9.05908 -16.11333,13.58861 -27.69702,13.58862 m 4.45528,-61.77995 c -6.08892,-0.0494 -10.89073,2.72273 -14.40542,8.31653 -2.97021,4.70285 -4.45531,10.19769 -4.45528,16.48455 -3e-5,5.94041 1.68308,10.4947 5.04932,13.66288 2.67314,2.52468 5.79184,3.787 9.3561,3.78699 4.30673,10e-6 8.04422,-1.46033 11.21246,-4.38103 3.61368,-3.4157 5.5443,-8.04424 5.79187,-13.88564 0.64349,-15.93997 -3.53952,-23.93472 -12.54905,-23.98428"
         style="fill:none;stroke:#000000;stroke-opacity:1"
         id="path4000" />
      <path
         d="m 676.63204,699.66341 c -3e-5,9.4056 -3.41575,14.1084 -10.24716,14.1084 -2.97021,0 -5.42061,-0.94056 -7.35122,-2.82168 -1.93063,-1.88112 -2.89594,-4.30677 -2.89593,-7.27696 l 0,-102.69431 c -1e-5,-2.87108 1.03955,-5.22247 3.1187,-7.05421 1.98011,-1.68298 4.43051,-2.52454 7.35122,-2.52466 2.92066,1.2e-4 5.32156,0.89118 7.20271,2.67317 1.88109,1.73273 2.82165,4.03462 2.82168,6.9057 l 0,98.68455"
         style="fill:none;stroke:#000000;stroke-opacity:1"
         id="path4002" />
      <path
         d="m 764.17836,666.32303 c -2.0792,11.63328 -3.31678,23.91005 -3.71273,36.83035 -0.49511,15.98952 -3.16827,27.598 -8.01952,34.82548 -6.48497,9.65308 -17.96969,14.47963 -34.4542,14.47967 -19.25674,-4e-5 -28.88509,-3.81178 -28.88509,-11.43523 0,-2.7227 0.8663,-4.92559 2.59891,-6.60867 1.73261,-1.68313 4.00975,-2.52468 6.83144,-2.52466 2.22763,-2e-5 5.42058,0.42075 9.57886,1.26233 4.15824,0.84153 7.84623,1.26231 11.06396,1.26233 7.37593,-2e-5 12.82127,-2.25242 16.33604,-6.75718 3.36617,-4.4058 5.34629,-11.41049 5.94038,-21.01409 -2.52471,2.57416 -5.37114,4.50478 -8.53929,5.79187 -3.16825,1.28708 -6.63346,1.93062 -10.39567,1.93062 -9.85115,0 -17.87066,-3.19296 -24.05853,-9.57886 -6.1384,-6.4354 -9.20759,-14.65292 -9.20759,-24.65258 0,-13.46481 4.10875,-24.3555 12.32629,-32.67208 8.51452,-8.61348 20.02399,-12.92025 34.52845,-12.92033 4.65325,8e-5 8.663,0.56936 12.02927,1.70786 3.36615,1.13864 6.08882,2.87125 8.16802,5.19783 6.28683,0.74262 9.43028,4.45535 9.43035,11.13821 -7e-5,3.31677 -0.51986,7.89581 -1.55935,13.73713 m -28.81084,-14.85095 c -8.36607,6e-5 -14.87573,2.74748 -19.52899,8.24228 -4.15829,4.99986 -6.23742,11.48477 -6.2374,19.45474 -2e-5,5.8909 1.1138,10.32143 3.34146,13.2916 2.22762,2.9702 5.56908,4.4553 10.02439,4.45528 4.05922,2e-5 8.14323,-2.35138 12.25203,-7.0542 3.8612,-4.45526 6.06409,-8.86103 6.60868,-13.21734 0.9405,-4.75227 2.02957,-12.15298 3.26721,-22.20217 -1.68317,-0.99 -3.34152,-1.73255 -4.97507,-2.22764 -1.63366,-0.49497 -3.21776,-0.74249 -4.75231,-0.74255"
         style="fill:none;stroke:#000000;stroke-opacity:1"
         id="path4004" />
      <path
         d="m 838.35888,657.04119 c -0.4456,7.57403 -3.88607,11.36102 -10.32141,11.36097 -6.23745,5e-5 -9.35615,-3.21766 -9.3561,-9.65311 l -0.37127,-7.49973 c -11.13825,1.78217 -19.10826,7.49978 -23.91003,17.15284 l 0.0743,37.35014 c -2e-5,2.82168 -0.96533,5.14833 -2.89593,6.97994 -1.93065,1.88112 -4.38105,2.82168 -7.35122,2.82169 -3.06921,-1e-5 -5.44536,-0.99007 -7.12846,-2.97019 -1.5841,-1.78212 -2.37615,-4.05926 -2.37615,-6.83144 l 0,-48.63686 c 0,-1.53454 0.0495,-3.81168 0.14851,-6.83143 0.099,-3.06914 0.1485,-5.37103 0.14851,-6.9057 -10e-6,-2.7721 0.8168,-5.074 2.45041,-6.90569 1.68309,-1.88104 4.05924,-2.8216 7.12845,-2.82168 5.49483,8e-5 8.76204,2.82176 9.80163,8.46504 8.76202,-6.53434 18.48939,-9.80154 29.18211,-9.80162 9.90057,8e-5 14.85088,6.58399 14.85095,19.75176 -7e-5,2.52472 -0.0248,4.18307 -0.0743,4.97507"
         style="fill:none;stroke:#000000;stroke-opacity:1"
         id="path4006" />
      <path
         d="m 886.62444,713.99458 c -11.83129,-1e-5 -21.50914,-2.82169 -29.0336,-8.46505 -8.31654,-6.23738 -12.4748,-15.02418 -12.4748,-26.36043 0,-12.52426 3.29195,-23.11792 9.87588,-31.78103 7.32645,-9.60354 17.20232,-14.40534 29.62764,-14.40542 8.6135,8e-5 15.7667,1.38616 21.45963,4.15827 7.4749,3.6633 11.21239,9.35616 11.21246,17.07859 -7e-5,5.4454 -3.04452,10.27195 -9.13333,14.47967 -2.77224,1.93067 -8.34134,4.75234 -16.70732,8.46504 l -25.02385,11.06396 c 2.37613,2.57418 5.24731,4.50481 8.61355,5.79187 3.36618,1.2871 7.22742,1.93064 11.58374,1.93062 6.63337,2e-5 12.25198,-1.36132 16.85583,-4.08401 4.1087,-2.42563 7.40065,-3.63846 9.87588,-3.63848 5.14825,2e-5 7.72241,2.49993 7.72249,7.49973 -8e-5,5.64337 -4.13359,10.24716 -12.40054,13.81138 -6.9305,2.97019 -14.28171,4.45528 -22.05366,4.45529 m -2.00488,-63.04228 c -4.60383,6e-5 -8.53933,1.53465 -11.8065,4.60379 -3.26724,3.06925 -5.8909,7.67304 -7.871,13.81138 5.59383,-2.42561 11.16293,-4.82651 16.70731,-7.20271 6.68289,-3.01964 12.00447,-5.81656 15.96477,-8.39078 -3.31676,-1.88106 -7.64828,-2.82162 -12.99458,-2.82168"
         style="fill:none;stroke:#000000;stroke-opacity:1"
         id="path4008" />
      <path
         d="m 951.07752,621.32466 c -3.16822,8e-5 -5.91565,-1.06423 -8.24228,-3.19296 -2.32666,-2.12854 -3.48998,-4.72745 -3.48997,-7.79675 -10e-6,-3.06909 1.16331,-5.668 3.48997,-7.79674 2.32663,-2.12853 5.07406,-3.19285 8.24228,-3.19296 3.16818,1.1e-4 5.89085,1.06443 8.16802,3.19296 2.32662,2.12874 3.48994,4.72765 3.48998,7.79674 -4e-5,3.0693 -1.16336,5.66821 -3.48998,7.79675 -2.27717,2.12873 -4.99984,3.19304 -8.16802,3.19296 m 6.31165,54.42872 c -3e-5,2.82171 0.0742,7.35125 0.22277,13.58862 0.19798,6.23741 0.29699,10.76695 0.29702,13.58862 -3e-5,2.87119 -0.96534,5.24734 -2.89594,7.12845 -1.93065,1.83162 -4.38105,2.74743 -7.35122,2.74743 -2.9702,0 -5.42061,-0.91581 -7.35122,-2.74743 -1.93063,-1.88111 -2.89594,-4.25726 -2.89593,-7.12845 -1e-5,-2.82167 -0.099,-7.35121 -0.29702,-13.58862 -0.14852,-6.23737 -0.22278,-10.76691 -0.22276,-13.58862 -2e-5,-4.40574 0.2475,-9.92534 0.74254,-16.55881 0.49502,-6.63336 0.74254,-12.15296 0.74255,-16.5588 -10e-6,-2.87112 0.9653,-5.22251 2.89594,-7.0542 1.9306,-1.88105 4.38101,-2.82161 7.35121,-2.82168 2.97017,7e-5 5.42057,0.94063 7.35122,2.82168 1.9306,1.83169 2.89591,4.18308 2.89594,7.0542 -3e-5,4.40584 -0.24755,9.92544 -0.74255,16.5588 -0.49506,6.63347 -0.74258,12.15307 -0.74255,16.55881"
         style="fill:none;stroke:#000000;stroke-opacity:1"
         id="path4010" />
      <path
         d="m 1011.0754,715.25691 c -10.8908,-10e-6 -20.02408,-3.09395 -27.40003,-9.28185 -7.772,-6.5344 -11.65799,-15.14794 -11.65799,-25.84065 0,-9.85109 3.48997,-20.02398 10.46992,-30.5187 7.92048,-11.97969 17.12806,-17.96957 27.6228,-17.96965 5.1482,8e-5 11.1629,1.38617 18.0439,4.15827 8.3659,3.41579 12.5489,7.35129 12.549,11.8065 -10e-5,2.42572 -0.8416,4.57911 -2.5246,6.46017 -1.7822,2.02968 -4.0841,3.0445 -6.9057,3.04444 -2.1287,6e-5 -4.7029,-1.13852 -7.7225,-3.41572 -2.9703,-2.32659 -7.4503,-3.48991 -13.4401,-3.48997 -3.8118,6e-5 -7.9453,3.73755 -12.40058,11.21247 -4.2573,7.2275 -6.38593,13.46489 -6.38591,18.71219 -2e-5,5.19786 1.8811,9.28187 5.64336,12.25204 3.56423,2.82169 8.26703,4.23253 14.10843,4.23252 3.3166,10e-6 7.3759,-1.26232 12.1778,-3.787 4.8017,-2.52464 7.8461,-3.78697 9.1333,-3.78699 2.6731,2e-5 4.9502,0.96533 6.8314,2.89594 1.9306,1.93064 2.8959,4.13353 2.896,6.60867 -10e-5,3.86125 -4.2079,7.7225 -12.6233,11.58374 -7.5246,3.41571 -13.663,5.12357 -18.4152,5.12358"
         style="fill:none;stroke:#000000;stroke-opacity:1"
         id="path4012" />
      <path
         d="m 1077.0879,642.63577 c 3.6137,-3.56416 7.4749,-6.21258 11.5837,-7.94526 4.1582,-1.78204 8.5888,-2.67309 13.2916,-2.67317 8.465,8e-5 14.5539,2.37623 18.2667,7.12845 2.7721,3.5643 4.4552,9.03439 5.0493,16.4103 0.2474,6.08894 0.5197,12.20257 0.8168,18.34092 0.792,7.97004 1.287,12.82135 1.4851,14.55393 0.693,5.49487 1.5345,10.29667 2.5247,14.40542 0.2474,1.03958 0.3712,1.95538 0.3712,2.74743 0,2.77218 -1.0644,5.04932 -3.1929,6.83144 -2.0792,1.83161 -4.5296,2.74742 -7.3512,2.74742 -4.9999,0 -8.2424,-2.47516 -9.7274,-7.42547 -1.1881,-4.00975 -2.2772,-9.65311 -3.2672,-16.93008 -0.8911,-6.97992 -1.3367,-12.72228 -1.3366,-17.2271 -10e-5,-1.23755 0.049,-3.09391 0.1485,-5.56911 0.1485,-2.52462 0.2227,-4.40574 0.2228,-5.64336 -10e-5,-3.66318 -0.05,-5.79182 -0.1485,-6.38591 -0.4456,-2.72262 -1.7327,-4.08395 -3.8613,-4.08401 -5.4949,6e-5 -10.4699,2.52472 -14.9252,7.57398 -2.2772,2.52471 -5.3959,7.32652 -9.3561,14.40542 0,17.92017 -0.8663,28.71185 -2.5989,32.37507 -1.9306,4.05926 -4.9998,6.08889 -9.2076,6.08889 -2.7722,0 -5.2473,-0.91581 -7.4255,-2.74742 -2.1286,-1.88112 -3.1929,-4.18302 -3.1929,-6.9057 0,-0.94055 0.2722,-2.25238 0.8168,-3.9355 0.3465,-1.08905 0.6435,-7.77197 0.891,-20.04878 -0.2475,-9.95009 -0.198,-26.50888 0.1486,-49.67642 l 0.1485,-2.45041 c 0.297,-5.84128 0.4455,-9.75203 0.4455,-11.73225 0,-1.5345 -0.2475,-3.78689 -0.7426,-6.75718 -0.4455,-3.01959 -0.6683,-5.29673 -0.6682,-6.83144 -10e-5,-2.82156 1.0148,-5.12346 3.0444,-6.90569 2.0296,-1.8315 4.48,-2.7473 7.3512,-2.74742 4.9008,1.2e-4 8.1928,2.62378 9.8759,7.871 0.9405,2.9703 1.4108,7.52459 1.4108,13.66287 0,4.95041 -0.1485,9.97498 -0.4455,15.07372 -0.297,4.85138 -0.4456,9.65319 -0.4455,14.40542"
         style="fill:none;stroke:#000000;stroke-opacity:1"
         id="path4014" />
      <path
         d="m 1180.3762,713.99458 c -11.8313,-1e-5 -21.5091,-2.82169 -29.0336,-8.46505 -8.3165,-6.23738 -12.4748,-15.02418 -12.4748,-26.36043 0,-12.52426 3.292,-23.11792 9.8759,-31.78103 7.3264,-9.60354 17.2023,-14.40534 29.6276,-14.40542 8.6135,8e-5 15.7667,1.38616 21.4597,4.15827 7.4749,3.6633 11.2123,9.35616 11.2124,17.07859 -10e-5,5.4454 -3.0445,10.27195 -9.1333,14.47967 -2.7723,1.93067 -8.3414,4.75234 -16.7073,8.46504 l -25.0239,11.06396 c 2.3761,2.57418 5.2473,4.50481 8.6136,5.79187 3.3662,1.2871 7.2274,1.93064 11.5837,1.93062 6.6334,2e-5 12.252,-1.36132 16.8558,-4.08401 4.1087,-2.42563 7.4007,-3.63846 9.8759,-3.63848 5.1483,2e-5 7.7224,2.49993 7.7225,7.49973 -10e-5,5.64337 -4.1336,10.24716 -12.4005,13.81138 -6.9305,2.97019 -14.2817,4.45528 -22.0537,4.45529 m -2.0049,-63.04228 c -4.6038,6e-5 -8.5393,1.53465 -11.8065,4.60379 -3.2672,3.06925 -5.8909,7.67304 -7.871,13.81138 5.5939,-2.42561 11.163,-4.82651 16.7073,-7.20271 6.6829,-3.01964 12.0045,-5.81656 15.9648,-8.39078 -3.3167,-1.88106 -7.6483,-2.82162 -12.9946,-2.82168"
         style="fill:none;stroke:#000000;stroke-opacity:1"
         id="path4016" />
      <path
         d="m 1280.1745,656.22438 c -4.9008,6e-5 -7.8463,-2.05432 -8.8363,-6.16314 -1.9801,-0.34646 -4.0098,-0.51972 -6.0889,-0.51978 -11.9302,6e-5 -17.8954,1.63366 -17.8953,4.90081 -10e-5,1.93068 3.5889,4.52959 10.7669,7.79675 9.8016,4.50483 16.435,8.01955 19.9003,10.54417 7.1779,5.19787 10.7668,11.06399 10.7669,17.59838 -10e-5,8.51455 -3.9603,14.97471 -11.8808,19.38049 -6.3859,3.51472 -14.2322,5.27208 -23.5387,5.27208 -6.584,0 -12.5986,-1.01482 -18.0439,-3.04444 -7.4255,-2.77218 -11.1382,-6.85619 -11.1382,-12.25204 0,-4.9503 2.9454,-7.42545 8.8363,-7.42547 2.2771,2e-5 5.5691,0.71781 9.8759,2.15339 4.3067,1.4356 7.6234,2.1534 9.9501,2.15339 10.0491,10e-6 15.0984,-2.02962 15.148,-6.08889 -10e-5,-2.52464 -3.49,-5.32157 -10.4699,-8.39079 -10.1977,-4.50475 -16.7321,-7.74721 -19.6033,-9.72737 -6.98,-4.90077 -10.4699,-10.8659 -10.4699,-17.89539 0,-9.95007 5.2721,-16.65775 15.8162,-20.12304 6.1879,-2.02955 15.5935,-3.04436 28.2168,-3.04444 4.9503,8e-5 8.6135,0.64362 10.9897,1.93062 3.2672,1.73269 4.9008,4.92564 4.9009,9.57886 -1e-4,8.91063 -2.401,13.36591 -7.2028,13.36585"
         style="fill:none;stroke:#000000;stroke-opacity:1"
         id="path4018" />
      <path
         d="m 1381.1611,711.3214 c -2.9207,-0.0495 -5.3711,-1.03956 -7.3513,-2.97018 -1.9801,-1.98013 -2.9702,-4.35628 -2.9701,-7.12846 -10e-5,-4.9503 0.2227,-12.37577 0.6682,-22.27642 0.4951,-9.90059 0.7426,-17.32606 0.7426,-22.27643 0,-5.49479 -0.1238,-13.73706 -0.3713,-24.72683 -0.198,-10.98961 -0.297,-19.23188 -0.297,-24.72683 0,-2.72256 1.3118,-5.42048 3.9355,-8.09376 2.6236,-2.72256 5.4206,-4.0839 8.3908,-4.08401 1.6336,1.1e-4 5.7423,1.53471 12.3263,4.60379 7.6729,3.66334 12.2272,5.71772 13.6628,6.16314 14.5044,4.7029 26.8802,11.97986 37.1274,21.8309 12.2272,11.73232 18.3408,24.70213 18.3409,38.90948 -10e-5,8.56409 -2.1039,16.70735 -6.3116,24.42982 -4.2079,7.87101 -9.975,14.18266 -17.3014,18.93495 -8.2176,5.34634 -19.7765,8.01951 -34.6769,8.01952 -3.6138,-10e-6 -7.7721,-0.51979 -12.4748,-1.55935 -5.6929,-1.28709 -10.173,-2.9702 -13.4401,-5.04933 m 41.7311,-76.33387 c -4.8018,-3.01962 -15.0985,-7.77191 -30.8899,-14.25691 l 0,73.51219 c 1.9305,1.2376 4.1334,2.17816 6.6086,2.82168 2.5246,0.59405 5.3216,0.89107 8.3908,0.89106 10.6926,10e-6 18.3656,-1.48508 23.019,-4.45528 4.4057,-2.82166 7.8957,-6.65816 10.4699,-11.50949 2.6236,-4.85128 3.9354,-9.90059 3.9355,-15.14797 -10e-5,-12.27672 -7.178,-22.89514 -21.5339,-31.85528"
         style="fill:none;stroke:#000000;stroke-opacity:1"
         id="path4020" />
      <path
         d="m 1508.2851,714.95989 c -9.1581,-10e-6 -17.0291,-3.14345 -23.613,-9.43036 -7.2274,-6.88092 -11.0144,-16.06375 -11.361,-27.54851 -0.3465,-10.94015 2.6485,-20.69226 8.9849,-29.25636 7.5244,-10.09858 17.9943,-15.14789 31.4097,-15.14797 9.9006,8e-5 17.7716,3.96032 23.613,11.88076 5.2473,7.12851 7.871,15.96482 7.871,26.50894 0,11.48476 -3.0692,21.28638 -9.2075,29.40488 -6.881,9.05908 -16.1134,13.58861 -27.6971,13.58862 m 4.4553,-61.77995 c -6.0889,-0.0494 -10.8907,2.72273 -14.4054,8.31653 -2.9702,4.70285 -4.4553,10.19769 -4.4553,16.48455 0,5.94041 1.6831,10.4947 5.0493,13.66288 2.6732,2.52468 5.7919,3.787 9.3561,3.78699 4.3068,10e-6 8.0443,-1.46033 11.2125,-4.38103 3.6137,-3.4157 5.5443,-8.04424 5.7919,-13.88564 0.6435,-15.93997 -3.5396,-23.93472 -12.5491,-23.98428"
         style="fill:none;stroke:#000000;stroke-opacity:1"
         id="path4022" />
      <path
         d="m 1591.8959,714.95989 c -4.2573,-10e-6 -8.7373,-0.49504 -13.4401,-1.4851 l -0.074,30.29594 c -10e-5,2.87115 -0.9654,5.24729 -2.896,7.12845 -1.9306,1.88108 -4.381,2.82164 -7.3512,2.82168 -2.9702,-4e-5 -5.4206,-0.9406 -7.3512,-2.82168 -1.9306,-1.88116 -2.8959,-4.2573 -2.8959,-7.12845 0,-2.32668 0.049,-11.55901 0.1485,-27.69702 0.099,-11.97976 0.099,-21.75663 0,-29.33063 -0.1485,-10.69264 -0.4951,-19.90022 -1.0396,-27.62276 -0.7425,-10.64312 -1.1138,-15.51917 -1.1138,-14.62818 0,-4.1087 0.9158,-7.62342 2.7474,-10.54418 2.1286,-3.31663 4.9998,-4.97498 8.6136,-4.97507 2.7721,9e-5 5.0988,0.94064 6.9799,2.82168 1.8811,1.8812 2.8217,4.13359 2.8217,6.75719 l -0.074,0.74254 c 3.3167,-1.88104 6.6334,-3.26713 9.9502,-4.15826 3.3661,-0.94049 6.7324,-1.41077 10.0986,-1.41084 11.3857,7e-5 19.7022,4.82663 24.9496,14.47967 3.9107,7.27702 5.8661,16.70737 5.8661,28.29106 0,10.84122 -3.094,19.82603 -9.2818,26.95447 -6.6335,7.67299 -15.5193,11.50948 -26.6575,11.50949 m 5.1236,-61.40868 c -3.1187,6e-5 -6.2869,0.74261 -9.5046,2.22765 -3.2177,1.43564 -6.4602,3.61378 -9.7274,6.53441 0.594,10.19769 0.8911,20.42009 0.8911,30.66721 4.4057,1.43561 8.8115,2.15341 13.2173,2.15339 5.0988,2e-5 9.0096,-1.80685 11.7323,-5.4206 2.4751,-3.26718 3.7127,-7.67296 3.7127,-13.21734 0,-6.68289 -0.297,-11.31143 -0.891,-13.88564 -1.4357,-6.03933 -4.5791,-9.05902 -9.4304,-9.05908"
         style="fill:none;stroke:#000000;stroke-opacity:1"
         id="path4024" />
      <path
         d="m 1673.2791,714.95989 c -4.2573,-10e-6 -8.7373,-0.49504 -13.4401,-1.4851 l -0.074,30.29594 c -10e-5,2.87115 -0.9654,5.24729 -2.896,7.12845 -1.9306,1.88108 -4.381,2.82164 -7.3512,2.82168 -2.9702,-4e-5 -5.4206,-0.9406 -7.3512,-2.82168 -1.9306,-1.88116 -2.896,-4.2573 -2.896,-7.12845 0,-2.32668 0.049,-11.55901 0.1486,-27.69702 0.099,-11.97976 0.099,-21.75663 0,-29.33063 -0.1486,-10.69264 -0.4951,-19.90022 -1.0396,-27.62276 -0.7426,-10.64312 -1.1138,-15.51917 -1.1138,-14.62818 0,-4.1087 0.9158,-7.62342 2.7474,-10.54418 2.1286,-3.31663 4.9998,-4.97498 8.6135,-4.97507 2.7722,9e-5 5.0988,0.94064 6.98,2.82168 1.8811,1.8812 2.8216,4.13359 2.8217,6.75719 l -0.074,0.74254 c 3.3167,-1.88104 6.6334,-3.26713 9.9502,-4.15826 3.3661,-0.94049 6.7323,-1.41077 10.0986,-1.41084 11.3857,7e-5 19.7022,4.82663 24.9496,14.47967 3.9107,7.27702 5.866,16.70737 5.8661,28.29106 -10e-5,10.84122 -3.094,19.82603 -9.2818,26.95447 -6.6335,7.67299 -15.5193,11.50948 -26.6575,11.50949 m 5.1236,-61.40868 c -3.1187,6e-5 -6.2869,0.74261 -9.5046,2.22765 -3.2177,1.43564 -6.4602,3.61378 -9.7274,6.53441 0.594,10.19769 0.891,20.42009 0.8911,30.66721 4.4057,1.43561 8.8115,2.15341 13.2173,2.15339 5.0988,2e-5 9.0095,-1.80685 11.7323,-5.4206 2.4751,-3.26718 3.7126,-7.67296 3.7127,-13.21734 -10e-5,-6.68289 -0.2971,-11.31143 -0.8911,-13.88564 -1.4356,-6.03933 -4.579,-9.05902 -9.4303,-9.05908"
         style="fill:none;stroke:#000000;stroke-opacity:1"
         id="path4026" />
      <path
         d="m 1757.7811,713.99458 c -11.8313,-1e-5 -21.5091,-2.82169 -29.0336,-8.46505 -8.3165,-6.23738 -12.4748,-15.02418 -12.4748,-26.36043 0,-12.52426 3.292,-23.11792 9.8759,-31.78103 7.3264,-9.60354 17.2023,-14.40534 29.6276,-14.40542 8.6135,8e-5 15.7667,1.38616 21.4597,4.15827 7.4749,3.6633 11.2124,9.35616 11.2124,17.07859 0,5.4454 -3.0445,10.27195 -9.1333,14.47967 -2.7722,1.93067 -8.3413,4.75234 -16.7073,8.46504 l -25.0239,11.06396 c 2.3762,2.57418 5.2473,4.50481 8.6136,5.79187 3.3662,1.2871 7.2274,1.93064 11.5837,1.93062 6.6334,2e-5 12.252,-1.36132 16.8558,-4.08401 4.1087,-2.42563 7.4007,-3.63846 9.8759,-3.63848 5.1483,2e-5 7.7224,2.49993 7.7225,7.49973 -10e-5,5.64337 -4.1336,10.24716 -12.4005,13.81138 -6.9305,2.97019 -14.2817,4.45528 -22.0537,4.45529 m -2.0049,-63.04228 c -4.6038,6e-5 -8.5393,1.53465 -11.8065,4.60379 -3.2672,3.06925 -5.8909,7.67304 -7.871,13.81138 5.5939,-2.42561 11.163,-4.82651 16.7074,-7.20271 6.6828,-3.01964 12.0044,-5.81656 15.9647,-8.39078 -3.3167,-1.88106 -7.6483,-2.82162 -12.9946,-2.82168"
         style="fill:none;stroke:#000000;stroke-opacity:1"
         id="path4028" />
      <path
         d="m 1828.1746,699.66341 c -10e-5,9.4056 -3.4158,14.1084 -10.2472,14.1084 -2.9702,0 -5.4206,-0.94056 -7.3512,-2.82168 -1.9306,-1.88112 -2.8959,-4.30677 -2.8959,-7.27696 l 0,-102.69431 c 0,-2.87108 1.0395,-5.22247 3.1187,-7.05421 1.9801,-1.68298 4.4305,-2.52454 7.3512,-2.52466 2.9207,1.2e-4 5.3216,0.89118 7.2027,2.67317 1.8811,1.73273 2.8216,4.03462 2.8217,6.9057 l 0,98.68455"
         style="fill:none;stroke:#000000;stroke-opacity:1"
         id="path4030" />
    </g>
    <rect
       style="fill:none;stroke:#000000;stroke-opacity:1"
       id="rect3893"
       width="1420.2745"
       height="1775.8481"
       x="0"
       y="1.8661839"
       transform="translate(0,-719.29263)" />
    <path
       sodipodi:type="arc"
       style="fill:none;stroke:#000000;stroke-opacity:1"
       id="path3899"
       sodipodi:cx="1214.2034"
       sodipodi:cy="1066.567"
       sodipodi:rx="553.5636"
       sodipodi:ry="472.7514"
       d="m 1767.767,1066.567 a 553.5636,472.7514 0 1 1 -1107.12723,0 553.5636,472.7514 0 1 1 1107.12723,0 z"
       transform="translate(-504.0661,-1139.5161)" />
    <g
       transform="scale(0.75168375,1.3303467)"
       style="font-size:211.51564025999999785px;font-style:normal;font-variant:normal;font-weight:bold;font-stretch:normal;line-height:125%;letter-spacing:0px;word-spacing:0px;fill:none;fill-opacity:1;stroke:#000000;font-family:Comic Sans MS;-inkscape-font-specification:Comic Sans MS Bold;stroke-opacity:1"
       id="text3910">
      <path
         d="m 212.72047,259.30036 c -3.58044,1.2e-4 -13.39195,-0.96381 -29.43455,-2.89181 -0.96401,12.66901 -1.44598,29.50349 -1.44591,50.50349 l -0.10328,46.37232 c 9.15734,-0.20653 18.48688,-0.30981 27.98864,-0.30984 4.13107,3e-5 7.53927,1.37709 10.22463,4.13117 2.75401,2.75413 4.13106,6.05906 4.13117,9.91479 -1.1e-4,3.85577 -1.37716,7.1607 -4.13117,9.9148 -2.68536,2.68526 -6.09356,4.02789 -10.22463,4.02789 -3.85584,0 -9.63947,0.10327 -17.35089,0.30983 -7.71158,0.13771 -13.4952,0.20656 -17.35089,0.20656 -4.54434,0 -11.36076,0.58525 -20.44927,1.75575 -9.08859,1.23934 -15.90501,1.85902 -20.44927,1.85902 -4.13118,0 -7.57381,-1.34263 -10.32791,-4.02789 -2.68526,-2.7541 -4.02789,-6.05903 -4.02788,-9.91479 -1e-5,-3.85574 1.34262,-7.16067 4.02788,-9.9148 2.7541,-2.75408 6.19673,-4.13114 10.32791,-4.13116 4.68197,2e-5 10.84428,-0.51637 18.48697,-1.54919 -0.13775,-8.12459 -0.2066,-23.68529 -0.20656,-46.68216 -4e-5,-18.72786 0.68849,-36.59513 2.06558,-53.60187 l -22.41157,0.61968 c -4.13118,1.2e-4 -7.60824,-1.3425 -10.43119,-4.02789 -2.75411,-2.68512 -4.13117,-6.02448 -4.13116,-10.01807 -10e-6,-4.06217 1.37705,-7.3671 4.13116,-9.9148 2.54754,-2.34084 5.68034,-3.68347 9.3984,-4.02788 6.05902,-0.55067 16.59348,-0.82608 31.60341,-0.82624 13.49508,1.6e-4 30.88038,1.44607 52.15596,4.33773 8.46878,1.17064 12.70322,5.92148 12.70333,14.25252 -1.1e-4,4.4067 -1.72143,7.88376 -5.16396,10.43119 -2.82306,2.13456 -6.02471,3.20177 -9.60495,3.20165"
         style="stroke:#000000;stroke-opacity:1;fill:none"
         id="path3935" />
      <path
         d="m 326.63734,306.91204 c -0.61978,10.53453 -5.40504,15.80176 -14.3558,15.8017 -8.67552,6e-5 -13.01324,-4.47536 -13.01317,-13.42628 l -0.5164,-10.4312 c -15.49192,2.47878 -26.5772,10.43127 -33.25587,23.85748 l 0.10328,51.9494 c -4e-5,3.92461 -1.34267,7.16068 -4.02789,9.70824 -2.68529,2.6164 -6.09349,3.9246 -10.22463,3.9246 -4.26889,0 -7.57382,-1.37706 -9.9148,-4.13116 -2.2033,-2.4787 -3.30494,-5.64592 -3.30493,-9.50168 l 0,-67.64783 c -1e-5,-2.13435 0.0688,-5.30158 0.20656,-9.50167 0.13769,-4.26879 0.20655,-7.47044 0.20656,-9.60496 -10e-6,-3.85566 1.13606,-7.05731 3.40821,-9.60496 2.34098,-2.6163 5.6459,-3.9245 9.91479,-3.92461 7.64263,1.1e-4 12.1869,3.92471 13.63285,11.77382 12.18688,-9.08846 25.71644,-13.63273 40.58869,-13.63284 13.77046,1.1e-4 20.65573,9.15751 20.65583,27.47224 -10e-5,3.51157 -0.0345,5.81814 -0.10328,6.91971"
         style="stroke:#000000;stroke-opacity:1;fill:none"
         id="path3937" />
      <path
         d="m 368.46538,289.97426 c 10.39672,-12.04913 20.24265,-18.07374 29.53783,-18.07385 10.60324,1.1e-4 18.3836,4.02799 23.34108,12.08366 4.19992,-3.71795 8.84748,-6.50648 13.94268,-8.36561 5.095,-1.85891 10.60321,-2.78843 16.52466,-2.78853 13.49501,1e-4 22.65241,6.71324 27.47225,20.13942 0.96379,2.7542 2.44412,12.08374 4.441,27.98865 1.92772,11.15419 4.40642,29.74441 7.4361,55.77072 0.27525,3.92461 -1.06738,7.16068 -4.02789,9.70824 -2.96082,2.54754 -6.43788,3.82132 -10.43119,3.82133 -7.9182,-10e-6 -12.56576,-3.92462 -13.94268,-11.77382 -1.23948,-7.09183 -2.51326,-17.10989 -3.82133,-30.05423 -1.37718,-14.18362 -2.51325,-24.23611 -3.40821,-30.1575 -1.85915,-12.32457 -4.23456,-18.48688 -7.12626,-18.48696 -1.58373,8e-5 -5.19849,1.58369 -10.84431,4.75084 -5.64602,3.1673 -9.77718,5.88698 -12.39349,8.15905 -10e-5,7.84927 0.92942,19.14111 2.78853,33.87555 1.92778,15.07877 2.89172,26.37061 2.89182,33.87555 -1e-4,3.9246 -1.34273,7.19511 -4.02789,9.81152 -2.68535,2.61639 -6.09355,3.92459 -10.22463,3.9246 -4.13125,-10e-6 -7.53945,-1.30821 -10.22463,-3.9246 -2.68533,-2.61641 -4.02796,-5.88692 -4.02789,-9.81152 -7e-5,-7.8492 -0.86073,-19.38203 -2.58198,-34.59851 -1.65253,-15.28526 -2.47876,-26.85251 -2.47869,-34.70178 -7e-5,-4.4065 -0.37876,-7.91799 -1.13608,-10.53447 -7.98697,4.61321 -16.00831,12.29028 -24.06403,23.03124 -0.3443,0.48203 -0.92955,1.20498 -1.75575,2.16886 -0.27545,13.9083 -0.41315,24.82145 -0.41311,32.73949 -4e-5,1.92789 -0.0689,4.5443 -0.20656,7.84921 -0.13774,3.23609 -0.2066,5.64593 -0.20656,7.22954 -4e-5,3.71805 -1.5148,6.64429 -4.54428,8.77872 -2.75414,1.99673 -6.16235,2.99509 -10.22463,2.9951 -5.8525,-1e-5 -9.81153,-2.54756 -11.8771,-7.64266 -1.44592,-3.44263 -2.16887,-8.91642 -2.16886,-16.42138 l 0,-38.41983 c -10e-6,-3.44258 -0.13772,-8.46882 -0.41312,-15.07875 -0.27542,-6.67864 -0.41312,-11.73931 -0.41312,-15.18203 0,-6.1278 1.10164,-11.67044 3.30494,-16.62794 2.68524,-6.19664 6.47214,-9.29501 11.3607,-9.29512 3.85573,1.1e-4 7.29836,1.51487 10.32791,4.54428 3.02949,2.96077 4.54424,6.23128 4.54428,9.81152 -4e-5,-1.44581 -0.30987,1.51485 -0.92951,8.882"
         style="stroke:#000000;stroke-opacity:1;fill:none"
         id="path3939" />
      <path
         d="m 529.68409,257.23478 c -4.4066,1.2e-4 -8.22793,-1.48021 -11.46398,-4.441 -3.2361,-2.96054 -4.85414,-6.57531 -4.85412,-10.84431 -2e-5,-4.26873 1.61802,-7.88349 4.85412,-10.84431 3.23605,-2.96051 7.05738,-4.44085 11.46398,-4.441 4.40654,1.5e-4 8.19344,1.48049 11.36071,4.441 3.23603,2.96082 4.85406,6.57558 4.85411,10.84431 -5e-5,4.269 -1.61808,7.88377 -4.85411,10.84431 -3.16727,2.96079 -6.95417,4.44112 -11.36071,4.441 m 8.77873,75.70359 c -5e-5,3.92466 0.10323,10.22468 0.30983,18.90008 0.27537,8.67547 0.41308,14.97549 0.41312,18.90008 -4e-5,3.99347 -1.34267,7.2984 -4.02788,9.9148 -2.6853,2.54755 -6.09351,3.82132 -10.22464,3.82133 -4.13119,-10e-6 -7.5394,-1.27378 -10.22463,-3.82133 -2.68527,-2.6164 -4.0279,-5.92133 -4.02789,-9.9148 -10e-6,-3.92459 -0.13772,-10.22461 -0.41311,-18.90008 -0.20658,-8.6754 -0.30985,-14.97542 -0.30984,-18.90008 -1e-5,-6.12784 0.34425,-13.80491 1.03279,-23.03124 0.68851,-9.22619 1.03278,-16.90326 1.03279,-23.03124 -10e-6,-3.99337 1.34261,-7.26387 4.02789,-9.81152 2.68523,-2.6163 6.09344,-3.9245 10.22463,-3.92461 4.13113,1.1e-4 7.53934,1.30831 10.22463,3.92461 2.68522,2.54765 4.02784,5.81815 4.02789,9.81152 -5e-5,6.12798 -0.34431,13.80505 -1.03279,23.03124 -0.68857,9.22633 -1.03284,16.9034 -1.03279,23.03124"
         style="stroke:#000000;stroke-opacity:1;fill:none"
         id="path3941" />
    </g>
    <g
       transform="scale(0.75168375,1.3303467)"
       style="font-size:211.51564025999999785px;font-style:normal;font-variant:normal;font-weight:bold;font-stretch:normal;line-height:125%;letter-spacing:0px;word-spacing:0px;fill:none;fill-opacity:1;stroke:#000000;font-family:Comic Sans MS;-inkscape-font-specification:Comic Sans MS Bold;stroke-opacity:1"
       id="text3914">
      <path
         d="m 1344.6947,362.4762 c -17.4887,0 -31.2592,-3.89018 -41.3117,-11.67054 -8.4689,-6.47214 -12.7033,-13.94266 -12.7033,-22.41157 0,-4.33769 1.3082,-7.91803 3.9246,-10.74102 2.6164,-2.89178 6.2312,-4.33768 10.8443,-4.33773 6.1967,5e-5 10.741,3.16727 13.6328,9.50168 3.9246,8.46891 12.8066,12.70335 26.6461,12.70333 11.8426,2e-5 23.3065,-2.58195 34.3919,-7.74593 11.4983,-5.30163 17.2475,-11.11968 17.2476,-17.45417 -10e-5,-8.67539 -3.5804,-14.39017 -10.741,-17.14434 -5.0952,-1.99666 -15.3198,-3.16716 -30.6739,-3.51149 -11.9116,-0.27534 -22.5838,-2.51305 -32.0165,-6.71314 -12.7378,-5.7147 -19.0034,-13.90817 -18.7968,-24.58043 0.2065,-13.42617 7.3672,-25.71638 21.482,-36.87065 14.1148,-11.22285 29.6755,-16.83434 46.6822,-16.83449 6.7475,1.5e-4 15.0786,1.54933 24.9935,4.64756 12.3245,3.85589 18.4869,8.29689 18.487,13.323 -10e-5,3.58048 -1.2395,6.7477 -3.7181,9.50168 -2.7542,3.0985 -6.3001,4.64768 -10.6377,4.64756 -3.2362,1.2e-4 -8.0903,-0.6884 -14.5624,-2.06558 -6.4034,-1.37693 -11.2575,-2.06546 -14.5623,-2.06558 -8.8821,0.069 -17.3166,2.20341 -25.3034,6.4033 -8.2624,4.26899 -12.3935,8.91654 -12.3935,13.94269 0,2.6165 1.2393,4.78536 3.7181,6.50658 2.5474,1.65256 6.3343,2.82306 11.3607,3.51149 8.813,0.48206 17.5918,0.96403 26.3361,1.44591 15.2852,1.17059 27.3689,5.47388 36.251,12.90989 9.777,8.2624 14.6655,19.69194 14.6656,34.28867 -10e-5,17.76403 -10.1214,31.22473 -30.364,40.38213 -15.4231,6.95413 -33.0494,10.43119 -52.8789,10.43119"
         style="fill:none;stroke:#000000;stroke-opacity:1"
         id="path3944" />
      <path
         d="m 1494.9658,360.92702 c -16.4559,-1e-5 -29.9166,-3.92461 -40.3821,-11.77382 -11.5673,-8.67543 -17.3509,-20.89678 -17.3509,-36.66409 0,-17.41968 4.5787,-32.15416 13.7361,-44.20346 10.1902,-13.35734 23.9263,-20.03605 41.2084,-20.03615 11.9803,10e-5 21.9295,1.92798 29.8476,5.78363 10.3967,5.0952 15.5951,13.01326 15.5952,23.75419 -1e-4,7.57388 -4.2346,14.28701 -12.7034,20.13943 -3.8558,2.68532 -11.6017,6.60992 -23.2378,11.77382 l -34.805,15.38859 c 3.3049,3.58037 7.2983,6.26563 11.9804,8.05577 4.6819,1.7902 10.0524,2.68528 16.1115,2.68526 9.2262,2e-5 17.041,-1.89343 23.4444,-5.68035 5.7146,-3.37376 10.2933,-5.06065 13.7361,-5.06068 7.1606,3e-5 10.7409,3.47709 10.741,10.43119 -1e-4,7.84923 -5.7493,14.25253 -17.2476,19.20992 -9.6395,4.13116 -19.8641,6.19674 -30.6739,6.19675 m -2.7885,-87.68398 c -6.4034,9e-5 -11.8772,2.13452 -16.4214,6.40331 -4.5443,4.26894 -8.1935,10.67224 -10.9476,19.20992 7.7803,-3.37373 15.5262,-6.71308 23.2378,-10.01808 9.295,-4.19995 16.6967,-8.09012 22.205,-11.67054 -4.6132,-2.61632 -10.6378,-3.92452 -18.0738,-3.92461"
         style="fill:none;stroke:#000000;stroke-opacity:1"
         id="path3946" />
      <path
         d="m 1608.7794,362.26965 c -5.9214,-1e-5 -12.1526,-0.68854 -18.6935,-2.06559 l -0.1033,42.13789 c 0,3.9934 -1.3427,7.29833 -4.0279,9.91479 -2.6853,2.61635 -6.0935,3.92455 -10.2246,3.92461 -4.1312,-6e-5 -7.5394,-1.30826 -10.2247,-3.92461 -2.6852,-2.61646 -4.0279,-5.92139 -4.0278,-9.91479 -10e-5,-3.23613 0.069,-16.07715 0.2065,-38.52312 0.1377,-16.66235 0.1377,-30.26076 0,-40.79525 -0.2066,-14.87215 -0.6885,-27.67874 -1.4459,-38.41983 -1.0328,-14.80326 -1.5492,-21.58525 -1.5492,-20.34599 0,-5.71468 1.2738,-10.60322 3.8213,-14.66564 2.9607,-4.61302 6.9542,-6.91958 11.9804,-6.9197 3.8558,1.2e-4 7.0918,1.30832 9.7083,3.92461 2.6163,2.61651 3.9245,5.74931 3.9246,9.3984 l -0.1033,1.03279 c 4.6131,-2.6163 9.2262,-4.54418 13.8394,-5.78363 4.6819,-1.3081 9.3639,-1.9622 14.046,-1.9623 15.836,1e-4 27.4033,6.71324 34.7017,20.13943 5.4393,10.12143 8.159,23.23786 8.1591,39.34934 -10e-5,15.07879 -4.3034,27.57555 -12.9099,37.49032 -9.2264,10.67218 -21.5854,16.00826 -37.0772,16.00827 m 7.1263,-85.41184 c -4.3378,8e-5 -8.7444,1.03287 -13.2198,3.09838 -4.4755,1.9968 -8.9853,5.02632 -13.5295,9.08856 0.8262,14.18372 1.2393,28.4018 1.2393,42.65428 6.1279,1.99675 12.2557,2.99511 18.3837,2.99509 7.0918,2e-5 12.5311,-2.5131 16.3181,-7.53938 3.4426,-4.54424 5.1639,-10.67213 5.1639,-18.38368 0,-9.29506 -0.4131,-15.73279 -1.2393,-19.31319 -1.9968,-8.39996 -6.369,-12.59998 -13.1164,-12.60006"
         style="fill:none;stroke:#000000;stroke-opacity:1"
         id="path3948" />
      <path
         d="m 1721.9733,362.26965 c -5.9214,-1e-5 -12.1526,-0.68854 -18.6935,-2.06559 l -0.1033,42.13789 c 0,3.9934 -1.3427,7.29833 -4.0279,9.91479 -2.6853,2.61635 -6.0935,3.92455 -10.2246,3.92461 -4.1312,-6e-5 -7.5394,-1.30826 -10.2247,-3.92461 -2.6852,-2.61646 -4.0278,-5.92139 -4.0278,-9.91479 0,-3.23613 0.069,-16.07715 0.2065,-38.52312 0.1377,-16.66235 0.1377,-30.26076 0,-40.79525 -0.2065,-14.87215 -0.6885,-27.67874 -1.4459,-38.41983 -1.0328,-14.80326 -1.5492,-21.58525 -1.5492,-20.34599 0,-5.71468 1.2738,-10.60322 3.8214,-14.66564 2.9606,-4.61302 6.9541,-6.91958 11.9803,-6.9197 3.8558,1.2e-4 7.0918,1.30832 9.7083,3.92461 2.6163,2.61651 3.9245,5.74931 3.9246,9.3984 l -0.1033,1.03279 c 4.6131,-2.6163 9.2262,-4.54418 13.8394,-5.78363 4.6819,-1.3081 9.3639,-1.9622 14.046,-1.9623 15.836,1e-4 27.4033,6.71324 34.7017,20.13943 5.4393,10.12143 8.159,23.23786 8.1591,39.34934 -10e-5,15.07879 -4.3034,27.57555 -12.9099,37.49032 -9.2263,10.67218 -21.5854,16.00826 -37.0772,16.00827 m 7.1263,-85.41184 c -4.3378,8e-5 -8.7444,1.03287 -13.2198,3.09838 -4.4754,1.9968 -8.9853,5.02632 -13.5295,9.08856 0.8262,14.18372 1.2393,28.4018 1.2393,42.65428 6.1279,1.99675 12.2558,2.99511 18.3837,2.99509 7.0918,2e-5 12.5311,-2.5131 16.3181,-7.53938 3.4426,-4.54424 5.1639,-10.67213 5.164,-18.38368 -10e-5,-9.29506 -0.4132,-15.73279 -1.2394,-19.31319 -1.9968,-8.39996 -6.3689,-12.59998 -13.1164,-12.60006"
         style="fill:none;stroke:#000000;stroke-opacity:1"
         id="path3950" />
    </g>
  </g>
</svg>
