999
dxfrw 0.5.11
0
SECTION
2
HEADER
9
$ACADVER
1
AC1021
9
$HANDSEED
5
20000
9
$DWGCODEPAGE
3
ANSI_1252
9
$INSBASE
10
0
20
0
30
0
9
$EXTMIN
10
-566.3
20
-577.05
30
0
9
$EXTMAX
10
704.1
20
577.05
30
0
9
$LIMMIN
10
0
20
0
9
$LIMMAX
10
420
20
297
9
$ORTHOMODE
70
0
9
$LTSCALE
40
1
9
$TEXTSTYLE
7
STANDARD
9
$CLAYER
8
0
9
$DIMASZ
40
2.5
9
$DIMLFAC
40
1
9
$DIMSCALE
40
1
9
$DIMEXO
40
0.625
9
$DIMEXE
40
1.25
9
$DIMTXT
40
2.5
9
$DIMTSZ
40
0
9
$DIMAUNIT
70
0
9
$DIMADEC
70
0
9
$DIMLUNIT
70
2
9
$DIMSTYLE
2
Standard
9
$DIMGAP
40
0.625
9
$DIMTIH
70
0
9
$LUNITS
70
2
9
$LUPREC
70
4
9
$AUNITS
70
0
9
$AUPREC
70
2
9
$SPLINESEGS
70
8
9
$SNAPSTYLE
70
0
9
$PINSBASE
10
0
20
0
30
0
9
$PLIMMIN
10
0
20
0
9
$PLIMMAX
10
210
20
297
9
$INSUNITS
70
4
9
$PSVPSCALE
40
1
0
ENDSEC
0
SECTION
2
CLASSES
0
ENDSEC
0
SECTION
2
TABLES
0
TABLE
2
VPORT
5
8
330
0
100
AcDbSymbolTable
70
1
0
VPORT
5
31
330
2
100
AcDbSymbolTableRecord
100
AcDbViewportTableRecord
2
*ACTIVE
70
0
10
0
20
0
11
1
21
1
12
86.71875
22
-92.7734375
13
0
23
0
14
10
24
10
15
10
25
10
16
0
26
0
36
1
17
0
27
0
37
0
40
314.0625
41
1.95024875622
42
50
43
0
44
0
50
0
51
0
71
0
72
100
73
1
74
3
75
0
76
1
77
0
78
0
281
0
65
1
110
0
120
0
130
0
111
1
121
0
131
0
112
0
122
1
132
0
79
0
146
0
348
10020
60
7
61
5
292
1
282
1
141
0
142
0
63
250
421
3358443
0
ENDTAB
0
TABLE
2
LTYPE
5
5
330
0
100
AcDbSymbolTable
70
4
0
LTYPE
5
14
330
5
100
AcDbSymbolTableRecord
100
AcDbLinetypeTableRecord
2
ByBlock
70
0
3

72
65
73
0
40
0
0
LTYPE
5
15
330
5
100
AcDbSymbolTableRecord
100
AcDbLinetypeTableRecord
2
ByLayer
70
0
3

72
65
73
0
40
0
0
LTYPE
5
16
330
5
100
AcDbSymbolTableRecord
100
AcDbLinetypeTableRecord
2
Continuous
70
0
3
Solid line
72
65
73
0
40
0
0
LTYPE
5
32
330
5
100
AcDbSymbolTableRecord
100
AcDbLinetypeTableRecord
2
DOT
70
0
3
Dot . . . . . . . . . . . . . . . . . . . . . .
72
65
73
2
40
6.35
49
0
74
0
49
-6.35
74
0
0
LTYPE
5
33
330
5
100
AcDbSymbolTableRecord
100
AcDbLinetypeTableRecord
2
DOT2
70
0
3
Dot (.5x) .....................................
72
65
73
2
40
3.175
49
0
74
0
49
-3.175
74
0
0
LTYPE
5
34
330
5
100
AcDbSymbolTableRecord
100
AcDbLinetypeTableRecord
2
DOTX2
70
0
3
Dot (2x) .  .  .  .  .  .  .  .  .  .  .  .  .
72
65
73
2
40
12.7
49
0
74
0
49
-12.7
74
0
0
LTYPE
5
35
330
5
100
AcDbSymbolTableRecord
100
AcDbLinetypeTableRecord
2
DASHED
70
0
3
Dot . . . . . . . . . . . . . . . . . . . . . .
72
65
73
2
40
19.05
49
12.7
74
0
49
-6.35
74
0
0
LTYPE
5
36
330
5
100
AcDbSymbolTableRecord
100
AcDbLinetypeTableRecord
2
DASHED2
70
0
3
Dashed (.5x) _ _ _ _ _ _ _ _ _ _ _ _ _ _ _ _ _
72
65
73
2
40
9.525
49
6.35
74
0
49
-3.175
74
0
0
LTYPE
5
37
330
5
100
AcDbSymbolTableRecord
100
AcDbLinetypeTableRecord
2
DASHEDX2
70
0
3
Dashed (2x) ____  ____  ____  ____  ____  ___
72
65
73
2
40
38.1
49
25.4
74
0
49
-12.7
74
0
0
LTYPE
5
38
330
5
100
AcDbSymbolTableRecord
100
AcDbLinetypeTableRecord
2
DASHDOT
70
0
3
Dash dot __ . __ . __ . __ . __ . __ . __ . __
72
65
73
4
40
25.4
49
12.7
74
0
49
-6.35
74
0
49
0
74
0
49
-6.35
74
0
0
LTYPE
5
39
330
5
100
AcDbSymbolTableRecord
100
AcDbLinetypeTableRecord
2
DASHDOT2
70
0
3
Dash dot (.5x) _._._._._._._._._._._._._._._.
72
65
73
4
40
12.7
49
6.35
74
0
49
-3.175
74
0
49
0
74
0
49
-3.175
74
0
0
LTYPE
5
3A
330
5
100
AcDbSymbolTableRecord
100
AcDbLinetypeTableRecord
2
DASHDOTX2
70
0
3
Dash dot (2x) ____  .  ____  .  ____  .  ___
72
65
73
4
40
50.8
49
25.4
74
0
49
-12.7
74
0
49
0
74
0
49
-12.7
74
0
0
LTYPE
5
3B
330
5
100
AcDbSymbolTableRecord
100
AcDbLinetypeTableRecord
2
DIVIDE
70
0
3
Divide ____ . . ____ . . ____ . . ____ . . ____
72
65
73
6
40
31.75
49
12.7
74
0
49
-6.35
74
0
49
0
74
0
49
-6.35
74
0
49
0
74
0
49
-6.35
74
0
0
LTYPE
5
3C
330
5
100
AcDbSymbolTableRecord
100
AcDbLinetypeTableRecord
2
DIVIDE2
70
0
3
Divide (.5x) __..__..__..__..__..__..__..__.._
72
65
73
6
40
15.875
49
6.35
74
0
49
-3.175
74
0
49
0
74
0
49
-3.175
74
0
49
0
74
0
49
-3.175
74
0
0
LTYPE
5
3D
330
5
100
AcDbSymbolTableRecord
100
AcDbLinetypeTableRecord
2
DIVIDEX2
70
0
3
Divide (2x) ________  .  .  ________  .  .  _
72
65
73
6
40
63.5
49
25.4
74
0
49
-12.7
74
0
49
0
74
0
49
-12.7
74
0
49
0
74
0
49
-12.7
74
0
0
LTYPE
5
3E
330
5
100
AcDbSymbolTableRecord
100
AcDbLinetypeTableRecord
2
BORDER
70
0
3
Border __ __ . __ __ . __ __ . __ __ . __ __ .
72
65
73
6
40
44.45
49
12.7
74
0
49
-6.35
74
0
49
12.7
74
0
49
-6.35
74
0
49
0
74
0
49
-6.35
74
0
0
LTYPE
5
3F
330
5
100
AcDbSymbolTableRecord
100
AcDbLinetypeTableRecord
2
BORDER2
70
0
3
Border (.5x) __.__.__.__.__.__.__.__.__.__.__.
72
65
73
6
40
22.225
49
6.35
74
0
49
-3.175
74
0
49
6.35
74
0
49
-3.175
74
0
49
0
74
0
49
-3.175
74
0
0
LTYPE
5
40
330
5
100
AcDbSymbolTableRecord
100
AcDbLinetypeTableRecord
2
BORDERX2
70
0
3
Border (2x) ____  ____  .  ____  ____  .  ___
72
65
73
6
40
88.9
49
25.4
74
0
49
-12.7
74
0
49
25.4
74
0
49
-12.7
74
0
49
0
74
0
49
-12.7
74
0
0
LTYPE
5
41
330
5
100
AcDbSymbolTableRecord
100
AcDbLinetypeTableRecord
2
CENTER
70
0
3
Center ____ _ ____ _ ____ _ ____ _ ____ _ ____
72
65
73
4
40
50.8
49
31.75
74
0
49
-6.35
74
0
49
6.35
74
0
49
-6.35
74
0
0
LTYPE
5
42
330
5
100
AcDbSymbolTableRecord
100
AcDbLinetypeTableRecord
2
CENTER2
70
0
3
Center (.5x) ___ _ ___ _ ___ _ ___ _ ___ _ ___
72
65
73
4
40
28.575
49
19.05
74
0
49
-3.175
74
0
49
3.175
74
0
49
-3.175
74
0
0
LTYPE
5
43
330
5
100
AcDbSymbolTableRecord
100
AcDbLinetypeTableRecord
2
CENTERX2
70
0
3
Center (2x) ________  __  ________  __  _____
72
65
73
4
40
101.6
49
63.5
74
0
49
-12.7
74
0
49
12.7
74
0
49
-12.7
74
0
0
ENDTAB
0
TABLE
2
LAYER
5
2
330
0
100
AcDbSymbolTable
70
1
0
LAYER
5
10
330
2
100
AcDbSymbolTableRecord
100
AcDbLayerTableRecord
2
0
70
0
62
7
6
CONTINUOUS
370
0
390
F
0
ENDTAB
0
TABLE
2
STYLE
5
3
330
0
100
AcDbSymbolTable
70
3
0
STYLE
5
44
330
2
100
AcDbSymbolTableRecord
100
AcDbTextStyleTableRecord
2
Standard
70
0
40
0
41
1
50
0
71
0
42
1
3
txt
4

0
ENDTAB
0
TABLE
2
VIEW
5
6
330
0
100
AcDbSymbolTable
70
0
0
ENDTAB
0
TABLE
2
UCS
5
7
330
0
100
AcDbSymbolTable
70
0
0
ENDTAB
0
TABLE
2
APPID
5
9
330
0
100
AcDbSymbolTable
70
1
0
APPID
5
12
330
9
100
AcDbSymbolTableRecord
100
AcDbRegAppTableRecord
2
ACAD
70
0
0
ENDTAB
0
TABLE
2
DIMSTYLE
5
A
330
0
100
AcDbSymbolTable
70
1
100
AcDbDimStyleTable
71
1
0
DIMSTYLE
105
45
330
A
100
AcDbSymbolTableRecord
100
AcDbDimStyleTableRecord
2
Standard
70
0
40
1
41
2.5
42
0.625
43
0.38
44
1.25
45
0
46
0
47
0
48
0
140
2.5
141
0.09
142
0
143
25.4
144
1
145
0
146
1
147
0.625
148
0
71
0
72
0
73
0
74
1
75
0
76
0
77
0
78
0
79
0
170
0
171
2
172
0
173
0
174
0
175
0
176
0
177
0
178
0
179
0
271
4
272
4
273
2
274
2
275
0
276
0
277
2
278
46
279
0
280
0
281
0
282
0
283
1
284
0
285
0
286
0
288
0
289
3
340
Standard
341

371
-2
372
-2
0
ENDTAB
0
TABLE
2
BLOCK_RECORD
5
1
330
0
100
AcDbSymbolTable
70
2
0
BLOCK_RECORD
5
1F
330
1
100
AcDbSymbolTableRecord
100
AcDbBlockTableRecord
2
*Model_Space
70
0
280
1
281
0
0
BLOCK_RECORD
5
1E
330
1
100
AcDbSymbolTableRecord
100
AcDbBlockTableRecord
2
*Paper_Space
70
0
280
1
281
0
0
ENDTAB
0
ENDSEC
0
SECTION
2
BLOCKS
0
BLOCK
5
20
330
1F
100
AcDbEntity
8
0
100
AcDbBlockBegin
2
*Model_Space
70
0
10
0
20
0
30
0
3
*Model_Space
1

0
ENDBLK
5
21
330
1F
100
AcDbEntity
8
0
100
AcDbBlockEnd
0
BLOCK
5
1C
330
1B
100
AcDbEntity
8
0
100
AcDbBlockBegin
2
*Paper_Space
70
0
10
0
20
0
30
0
3
*Paper_Space
1

0
ENDBLK
5
1D
330
1F
100
AcDbEntity
8
0
100
AcDbBlockEnd
0
ENDSEC
0
SECTION
2
ENTITIES
0
LINE
5
46
100
AcDbEntity
8
0
6
ByLayer
62
256
370
-1
100
AcDbLine
10
-566.3
20
-78.65
11
-566.3
21
-58
0
LINE
5
47
100
AcDbEntity
8
0
6
ByLayer
62
256
370
-1
100
AcDbLine
10
-566.3
20
-58
11
-563.4
21
-58
0
LINE
5
48
100
AcDbEntity
8
0
6
ByLayer
62
256
370
-1
100
AcDbLine
10
-563.4
20
-58
11
-563.4
21
-43
0
LINE
5
49
100
AcDbEntity
8
0
6
ByLayer
62
256
370
-1
100
AcDbLine
10
-563.4
20
-43
11
-566.3
21
-43
0
LINE
5
4A
100
AcDbEntity
8
0
6
ByLayer
62
256
370
-1
100
AcDbLine
10
-566.3
20
-43
11
-566.3
21
-7.5
0
LINE
5
4B
100
AcDbEntity
8
0
6
ByLayer
62
256
370
-1
100
AcDbLine
10
-566.3
20
-7.5
11
-563.4
21
-7.5
0
LINE
5
4C
100
AcDbEntity
8
0
6
ByLayer
62
256
370
-1
100
AcDbLine
10
-563.4
20
-7.5
11
-563.4
21
7.5
0
LINE
5
4D
100
AcDbEntity
8
0
6
ByLayer
62
256
370
-1
100
AcDbLine
10
-563.4
20
7.5
11
-566.3
21
7.5
0
LINE
5
4E
100
AcDbEntity
8
0
6
ByLayer
62
256
370
-1
100
AcDbLine
10
-566.3
20
7.5
11
-566.3
21
43
0
LINE
5
4F
100
AcDbEntity
8
0
6
ByLayer
62
256
370
-1
100
AcDbLine
10
-566.3
20
43
11
-563.4
21
43
0
LINE
5
50
100
AcDbEntity
8
0
6
ByLayer
62
256
370
-1
100
AcDbLine
10
-563.4
20
43
11
-563.4
21
58
0
LINE
5
51
100
AcDbEntity
8
0
6
ByLayer
62
256
370
-1
100
AcDbLine
10
-563.4
20
58
11
-566.3
21
58
0
LINE
5
52
100
AcDbEntity
8
0
6
ByLayer
62
256
370
-1
100
AcDbLine
10
-566.3
20
58
11
-566.3
21
78.65
0
LINE
5
53
100
AcDbEntity
8
0
6
ByLayer
62
256
370
-1
100
AcDbLine
10
-566.3
20
78.65
11
-543.645
21
78.65
0
LINE
5
54
100
AcDbEntity
8
0
6
ByLayer
62
256
370
-1
100
AcDbLine
10
-543.645
20
78.65
11
-543.645
21
75.75
0
LINE
5
55
100
AcDbEntity
8
0
6
ByLayer
62
256
370
-1
100
AcDbLine
10
-543.645
20
75.75
11
-528.645
21
75.75
0
LINE
5
56
100
AcDbEntity
8
0
6
ByLayer
62
256
370
-1
100
AcDbLine
10
-528.645
20
75.75
11
-528.645
21
78.65
0
LINE
5
57
100
AcDbEntity
8
0
6
ByLayer
62
256
370
-1
100
AcDbLine
10
-528.645
20
78.65
11
-489.134
21
78.65
0
LINE
5
58
100
AcDbEntity
8
0
6
ByLayer
62
256
370
-1
100
AcDbLine
10
-489.134
20
78.65
11
-489.134
21
75.75
0
LINE
5
59
100
AcDbEntity
8
0
6
ByLayer
62
256
370
-1
100
AcDbLine
10
-489.134
20
75.75
11
-474.134
21
75.75
0
LINE
5
5A
100
AcDbEntity
8
0
6
ByLayer
62
256
370
-1
100
AcDbLine
10
-474.134
20
75.75
11
-474.134
21
78.65
0
LINE
5
5B
100
AcDbEntity
8
0
6
ByLayer
62
256
370
-1
100
AcDbLine
10
-474.134
20
78.65
11
-434.623
21
78.65
0
LINE
5
5C
100
AcDbEntity
8
0
6
ByLayer
62
256
370
-1
100
AcDbLine
10
-434.623
20
78.65
11
-434.623
21
75.75
0
LINE
5
5D
100
AcDbEntity
8
0
6
ByLayer
62
256
370
-1
100
AcDbLine
10
-434.623
20
75.75
11
-419.623
21
75.75
0
LINE
5
5E
100
AcDbEntity
8
0
6
ByLayer
62
256
370
-1
100
AcDbLine
10
-419.623
20
75.75
11
-419.623
21
78.65
0
LINE
5
5F
100
AcDbEntity
8
0
6
ByLayer
62
256
370
-1
100
AcDbLine
10
-419.623
20
78.65
11
-380.112
21
78.65
0
LINE
5
60
100
AcDbEntity
8
0
6
ByLayer
62
256
370
-1
100
AcDbLine
10
-380.112
20
78.65
11
-380.112
21
75.75
0
LINE
5
61
100
AcDbEntity
8
0
6
ByLayer
62
256
370
-1
100
AcDbLine
10
-380.112
20
75.75
11
-365.112
21
75.75
0
LINE
5
62
100
AcDbEntity
8
0
6
ByLayer
62
256
370
-1
100
AcDbLine
10
-365.112
20
75.75
11
-365.112
21
78.65
0
LINE
5
63
100
AcDbEntity
8
0
6
ByLayer
62
256
370
-1
100
AcDbLine
10
-365.112
20
78.65
11
-325.6
21
78.65
0
LINE
5
64
100
AcDbEntity
8
0
6
ByLayer
62
256
370
-1
100
AcDbLine
10
-325.6
20
78.65
11
-325.6
21
75.75
0
LINE
5
65
100
AcDbEntity
8
0
6
ByLayer
62
256
370
-1
100
AcDbLine
10
-325.6
20
75.75
11
-310.6
21
75.75
0
LINE
5
66
100
AcDbEntity
8
0
6
ByLayer
62
256
370
-1
100
AcDbLine
10
-310.6
20
75.75
11
-310.6
21
78.65
0
LINE
5
67
100
AcDbEntity
8
0
6
ByLayer
62
256
370
-1
100
AcDbLine
10
-310.6
20
78.65
11
-271.089
21
78.65
0
LINE
5
68
100
AcDbEntity
8
0
6
ByLayer
62
256
370
-1
100
AcDbLine
10
-271.089
20
78.65
11
-271.089
21
75.75
0
LINE
5
69
100
AcDbEntity
8
0
6
ByLayer
62
256
370
-1
100
AcDbLine
10
-271.089
20
75.75
11
-256.089
21
75.75
0
LINE
5
6A
100
AcDbEntity
8
0
6
ByLayer
62
256
370
-1
100
AcDbLine
10
-256.089
20
75.75
11
-256.089
21
78.65
0
LINE
5
6B
100
AcDbEntity
8
0
6
ByLayer
62
256
370
-1
100
AcDbLine
10
-256.089
20
78.65
11
-216.578
21
78.65
0
LINE
5
6C
100
AcDbEntity
8
0
6
ByLayer
62
256
370
-1
100
AcDbLine
10
-216.578
20
78.65
11
-216.578
21
75.75
0
LINE
5
6D
100
AcDbEntity
8
0
6
ByLayer
62
256
370
-1
100
AcDbLine
10
-216.578
20
75.75
11
-201.578
21
75.75
0
LINE
5
6E
100
AcDbEntity
8
0
6
ByLayer
62
256
370
-1
100
AcDbLine
10
-201.578
20
75.75
11
-201.578
21
78.65
0
LINE
5
6F
100
AcDbEntity
8
0
6
ByLayer
62
256
370
-1
100
AcDbLine
10
-201.578
20
78.65
11
-162.067
21
78.65
0
LINE
5
70
100
AcDbEntity
8
0
6
ByLayer
62
256
370
-1
100
AcDbLine
10
-162.067
20
78.65
11
-162.067
21
75.75
0
LINE
5
71
100
AcDbEntity
8
0
6
ByLayer
62
256
370
-1
100
AcDbLine
10
-162.067
20
75.75
11
-147.067
21
75.75
0
LINE
5
72
100
AcDbEntity
8
0
6
ByLayer
62
256
370
-1
100
AcDbLine
10
-147.067
20
75.75
11
-147.067
21
78.65
0
LINE
5
73
100
AcDbEntity
8
0
6
ByLayer
62
256
370
-1
100
AcDbLine
10
-147.067
20
78.65
11
-107.556
21
78.65
0
LINE
5
74
100
AcDbEntity
8
0
6
ByLayer
62
256
370
-1
100
AcDbLine
10
-107.556
20
78.65
11
-107.556
21
75.75
0
LINE
5
75
100
AcDbEntity
8
0
6
ByLayer
62
256
370
-1
100
AcDbLine
10
-107.556
20
75.75
11
-92.556
21
75.75
0
LINE
5
76
100
AcDbEntity
8
0
6
ByLayer
62
256
370
-1
100
AcDbLine
10
-92.556
20
75.75
11
-92.556
21
78.65
0
LINE
5
77
100
AcDbEntity
8
0
6
ByLayer
62
256
370
-1
100
AcDbLine
10
-92.556
20
78.65
11
-69.9
21
78.65
0
LINE
5
78
100
AcDbEntity
8
0
6
ByLayer
62
256
370
-1
100
AcDbLine
10
-69.9
20
78.65
11
-69.9
21
58
0
LINE
5
79
100
AcDbEntity
8
0
6
ByLayer
62
256
370
-1
100
AcDbLine
10
-69.9
20
58
11
-72.8
21
58
0
LINE
5
7A
100
AcDbEntity
8
0
6
ByLayer
62
256
370
-1
100
AcDbLine
10
-72.8
20
58
11
-72.8
21
43
0
LINE
5
7B
100
AcDbEntity
8
0
6
ByLayer
62
256
370
-1
100
AcDbLine
10
-72.8
20
43
11
-69.9
21
43
0
LINE
5
7C
100
AcDbEntity
8
0
6
ByLayer
62
256
370
-1
100
AcDbLine
10
-69.9
20
43
11
-69.9
21
7.5
0
LINE
5
7D
100
AcDbEntity
8
0
6
ByLayer
62
256
370
-1
100
AcDbLine
10
-69.9
20
7.5
11
-72.8
21
7.5
0
LINE
5
7E
100
AcDbEntity
8
0
6
ByLayer
62
256
370
-1
100
AcDbLine
10
-72.8
20
7.5
11
-72.8
21
-7.5
0
LINE
5
7F
100
AcDbEntity
8
0
6
ByLayer
62
256
370
-1
100
AcDbLine
10
-72.8
20
-7.5
11
-69.9
21
-7.5
0
LINE
5
80
100
AcDbEntity
8
0
6
ByLayer
62
256
370
-1
100
AcDbLine
10
-69.9
20
-7.5
11
-69.9
21
-43
0
LINE
5
81
100
AcDbEntity
8
0
6
ByLayer
62
256
370
-1
100
AcDbLine
10
-69.9
20
-43
11
-72.8
21
-43
0
LINE
5
82
100
AcDbEntity
8
0
6
ByLayer
62
256
370
-1
100
AcDbLine
10
-72.8
20
-43
11
-72.8
21
-58
0
LINE
5
83
100
AcDbEntity
8
0
6
ByLayer
62
256
370
-1
100
AcDbLine
10
-72.8
20
-58
11
-69.9
21
-58
0
LINE
5
84
100
AcDbEntity
8
0
6
ByLayer
62
256
370
-1
100
AcDbLine
10
-69.9
20
-58
11
-69.9
21
-78.65
0
LINE
5
85
100
AcDbEntity
8
0
6
ByLayer
62
256
370
-1
100
AcDbLine
10
-69.9
20
-78.65
11
-92.556
21
-78.65
0
LINE
5
86
100
AcDbEntity
8
0
6
ByLayer
62
256
370
-1
100
AcDbLine
10
-92.556
20
-78.65
11
-92.556
21
-75.75
0
LINE
5
87
100
AcDbEntity
8
0
6
ByLayer
62
256
370
-1
100
AcDbLine
10
-92.556
20
-75.75
11
-107.556
21
-75.75
0
LINE
5
88
100
AcDbEntity
8
0
6
ByLayer
62
256
370
-1
100
AcDbLine
10
-107.556
20
-75.75
11
-107.556
21
-78.65
0
LINE
5
89
100
AcDbEntity
8
0
6
ByLayer
62
256
370
-1
100
AcDbLine
10
-107.556
20
-78.65
11
-147.067
21
-78.65
0
LINE
5
8A
100
AcDbEntity
8
0
6
ByLayer
62
256
370
-1
100
AcDbLine
10
-147.067
20
-78.65
11
-147.067
21
-75.75
0
LINE
5
8B
100
AcDbEntity
8
0
6
ByLayer
62
256
370
-1
100
AcDbLine
10
-147.067
20
-75.75
11
-162.067
21
-75.75
0
LINE
5
8C
100
AcDbEntity
8
0
6
ByLayer
62
256
370
-1
100
AcDbLine
10
-162.067
20
-75.75
11
-162.067
21
-78.65
0
LINE
5
8D
100
AcDbEntity
8
0
6
ByLayer
62
256
370
-1
100
AcDbLine
10
-162.067
20
-78.65
11
-201.578
21
-78.65
0
LINE
5
8E
100
AcDbEntity
8
0
6
ByLayer
62
256
370
-1
100
AcDbLine
10
-201.578
20
-78.65
11
-201.578
21
-75.75
0
LINE
5
8F
100
AcDbEntity
8
0
6
ByLayer
62
256
370
-1
100
AcDbLine
10
-201.578
20
-75.75
11
-216.578
21
-75.75
0
LINE
5
90
100
AcDbEntity
8
0
6
ByLayer
62
256
370
-1
100
AcDbLine
10
-216.578
20
-75.75
11
-216.578
21
-78.65
0
LINE
5
91
100
AcDbEntity
8
0
6
ByLayer
62
256
370
-1
100
AcDbLine
10
-216.578
20
-78.65
11
-256.089
21
-78.65
0
LINE
5
92
100
AcDbEntity
8
0
6
ByLayer
62
256
370
-1
100
AcDbLine
10
-256.089
20
-78.65
11
-256.089
21
-75.75
0
LINE
5
93
100
AcDbEntity
8
0
6
ByLayer
62
256
370
-1
100
AcDbLine
10
-256.089
20
-75.75
11
-271.089
21
-75.75
0
LINE
5
94
100
AcDbEntity
8
0
6
ByLayer
62
256
370
-1
100
AcDbLine
10
-271.089
20
-75.75
11
-271.089
21
-78.65
0
LINE
5
95
100
AcDbEntity
8
0
6
ByLayer
62
256
370
-1
100
AcDbLine
10
-271.089
20
-78.65
11
-310.6
21
-78.65
0
LINE
5
96
100
AcDbEntity
8
0
6
ByLayer
62
256
370
-1
100
AcDbLine
10
-310.6
20
-78.65
11
-310.6
21
-75.75
0
LINE
5
97
100
AcDbEntity
8
0
6
ByLayer
62
256
370
-1
100
AcDbLine
10
-310.6
20
-75.75
11
-325.6
21
-75.75
0
LINE
5
98
100
AcDbEntity
8
0
6
ByLayer
62
256
370
-1
100
AcDbLine
10
-325.6
20
-75.75
11
-325.6
21
-78.65
0
LINE
5
99
100
AcDbEntity
8
0
6
ByLayer
62
256
370
-1
100
AcDbLine
10
-325.6
20
-78.65
11
-365.112
21
-78.65
0
LINE
5
9A
100
AcDbEntity
8
0
6
ByLayer
62
256
370
-1
100
AcDbLine
10
-365.112
20
-78.65
11
-365.112
21
-75.75
0
LINE
5
9B
100
AcDbEntity
8
0
6
ByLayer
62
256
370
-1
100
AcDbLine
10
-365.112
20
-75.75
11
-380.112
21
-75.75
0
LINE
5
9C
100
AcDbEntity
8
0
6
ByLayer
62
256
370
-1
100
AcDbLine
10
-380.112
20
-75.75
11
-380.112
21
-78.65
0
LINE
5
9D
100
AcDbEntity
8
0
6
ByLayer
62
256
370
-1
100
AcDbLine
10
-380.112
20
-78.65
11
-419.623
21
-78.65
0
LINE
5
9E
100
AcDbEntity
8
0
6
ByLayer
62
256
370
-1
100
AcDbLine
10
-419.623
20
-78.65
11
-419.623
21
-75.75
0
LINE
5
9F
100
AcDbEntity
8
0
6
ByLayer
62
256
370
-1
100
AcDbLine
10
-419.623
20
-75.75
11
-434.623
21
-75.75
0
LINE
5
A0
100
AcDbEntity
8
0
6
ByLayer
62
256
370
-1
100
AcDbLine
10
-434.623
20
-75.75
11
-434.623
21
-78.65
0
LINE
5
A1
100
AcDbEntity
8
0
6
ByLayer
62
256
370
-1
100
AcDbLine
10
-434.623
20
-78.65
11
-474.134
21
-78.65
0
LINE
5
A2
100
AcDbEntity
8
0
6
ByLayer
62
256
370
-1
100
AcDbLine
10
-474.134
20
-78.65
11
-474.134
21
-75.75
0
LINE
5
A3
100
AcDbEntity
8
0
6
ByLayer
62
256
370
-1
100
AcDbLine
10
-474.134
20
-75.75
11
-489.134
21
-75.75
0
LINE
5
A4
100
AcDbEntity
8
0
6
ByLayer
62
256
370
-1
100
AcDbLine
10
-489.134
20
-75.75
11
-489.134
21
-78.65
0
LINE
5
A5
100
AcDbEntity
8
0
6
ByLayer
62
256
370
-1
100
AcDbLine
10
-489.134
20
-78.65
11
-528.645
21
-78.65
0
LINE
5
A6
100
AcDbEntity
8
0
6
ByLayer
62
256
370
-1
100
AcDbLine
10
-528.645
20
-78.65
11
-528.645
21
-75.75
0
LINE
5
A7
100
AcDbEntity
8
0
6
ByLayer
62
256
370
-1
100
AcDbLine
10
-528.645
20
-75.75
11
-543.645
21
-75.75
0
LINE
5
A8
100
AcDbEntity
8
0
6
ByLayer
62
256
370
-1
100
AcDbLine
10
-543.645
20
-75.75
11
-543.645
21
-78.65
0
LINE
5
A9
100
AcDbEntity
8
0
6
ByLayer
62
256
370
-1
100
AcDbLine
10
-543.645
20
-78.65
11
-566.3
21
-78.65
0
LINE
5
AA
100
AcDbEntity
8
0
6
ByLayer
62
256
370
-1
100
AcDbLine
10
-510.363
20
76.475
11
-510.351
21
76.66
0
LINE
5
AB
100
AcDbEntity
8
0
6
ByLayer
62
256
370
-1
100
AcDbLine
10
-510.351
20
76.66
11
-510.317
21
76.842
0
LINE
5
AC
100
AcDbEntity
8
0
6
ByLayer
62
256
370
-1
100
AcDbLine
10
-510.317
20
76.842
11
-510.259
21
77.018
0
LINE
5
AD
100
AcDbEntity
8
0
6
ByLayer
62
256
370
-1
100
AcDbLine
10
-510.259
20
77.018
11
-510.181
21
77.186
0
LINE
5
AE
100
AcDbEntity
8
0
6
ByLayer
62
256
370
-1
100
AcDbLine
10
-510.181
20
77.186
11
-510.081
21
77.342
0
LINE
5
AF
100
AcDbEntity
8
0
6
ByLayer
62
256
370
-1
100
AcDbLine
10
-510.081
20
77.342
11
-509.963
21
77.485
0
LINE
5
B0
100
AcDbEntity
8
0
6
ByLayer
62
256
370
-1
100
AcDbLine
10
-509.963
20
77.485
11
-509.828
21
77.612
0
LINE
5
B1
100
AcDbEntity
8
0
6
ByLayer
62
256
370
-1
100
AcDbLine
10
-509.828
20
77.612
11
-509.678
21
77.72
0
LINE
5
B2
100
AcDbEntity
8
0
6
ByLayer
62
256
370
-1
100
AcDbLine
10
-509.678
20
77.72
11
-509.516
21
77.81
0
LINE
5
B3
100
AcDbEntity
8
0
6
ByLayer
62
256
370
-1
100
AcDbLine
10
-509.516
20
77.81
11
-509.344
21
77.878
0
LINE
5
B4
100
AcDbEntity
8
0
6
ByLayer
62
256
370
-1
100
AcDbLine
10
-509.344
20
77.878
11
-509.164
21
77.924
0
LINE
5
B5
100
AcDbEntity
8
0
6
ByLayer
62
256
370
-1
100
AcDbLine
10
-509.164
20
77.924
11
-508.981
21
77.947
0
LINE
5
B6
100
AcDbEntity
8
0
6
ByLayer
62
256
370
-1
100
AcDbLine
10
-508.981
20
77.947
11
-508.795
21
77.947
0
LINE
5
B7
100
AcDbEntity
8
0
6
ByLayer
62
256
370
-1
100
AcDbLine
10
-508.795
20
77.947
11
-508.612
21
77.924
0
LINE
5
B8
100
AcDbEntity
8
0
6
ByLayer
62
256
370
-1
100
AcDbLine
10
-508.612
20
77.924
11
-508.432
21
77.878
0
LINE
5
B9
100
AcDbEntity
8
0
6
ByLayer
62
256
370
-1
100
AcDbLine
10
-508.432
20
77.878
11
-508.26
21
77.81
0
LINE
5
BA
100
AcDbEntity
8
0
6
ByLayer
62
256
370
-1
100
AcDbLine
10
-508.26
20
77.81
11
-508.098
21
77.72
0
LINE
5
BB
100
AcDbEntity
8
0
6
ByLayer
62
256
370
-1
100
AcDbLine
10
-508.098
20
77.72
11
-507.948
21
77.612
0
LINE
5
BC
100
AcDbEntity
8
0
6
ByLayer
62
256
370
-1
100
AcDbLine
10
-507.948
20
77.612
11
-507.813
21
77.485
0
LINE
5
BD
100
AcDbEntity
8
0
6
ByLayer
62
256
370
-1
100
AcDbLine
10
-507.813
20
77.485
11
-507.695
21
77.342
0
LINE
5
BE
100
AcDbEntity
8
0
6
ByLayer
62
256
370
-1
100
AcDbLine
10
-507.695
20
77.342
11
-507.595
21
77.186
0
LINE
5
BF
100
AcDbEntity
8
0
6
ByLayer
62
256
370
-1
100
AcDbLine
10
-507.595
20
77.186
11
-507.517
21
77.018
0
LINE
5
C0
100
AcDbEntity
8
0
6
ByLayer
62
256
370
-1
100
AcDbLine
10
-507.517
20
77.018
11
-507.459
21
76.842
0
LINE
5
C1
100
AcDbEntity
8
0
6
ByLayer
62
256
370
-1
100
AcDbLine
10
-507.459
20
76.842
11
-507.425
21
76.66
0
LINE
5
C2
100
AcDbEntity
8
0
6
ByLayer
62
256
370
-1
100
AcDbLine
10
-507.425
20
76.66
11
-507.413
21
76.475
0
LINE
5
C3
100
AcDbEntity
8
0
6
ByLayer
62
256
370
-1
100
AcDbLine
10
-507.413
20
76.475
11
-507.425
21
76.29
0
LINE
5
C4
100
AcDbEntity
8
0
6
ByLayer
62
256
370
-1
100
AcDbLine
10
-507.425
20
76.29
11
-507.459
21
76.108
0
LINE
5
C5
100
AcDbEntity
8
0
6
ByLayer
62
256
370
-1
100
AcDbLine
10
-507.459
20
76.108
11
-507.517
21
75.932
0
LINE
5
C6
100
AcDbEntity
8
0
6
ByLayer
62
256
370
-1
100
AcDbLine
10
-507.517
20
75.932
11
-507.595
21
75.764
0
LINE
5
C7
100
AcDbEntity
8
0
6
ByLayer
62
256
370
-1
100
AcDbLine
10
-507.595
20
75.764
11
-507.695
21
75.608
0
LINE
5
C8
100
AcDbEntity
8
0
6
ByLayer
62
256
370
-1
100
AcDbLine
10
-507.695
20
75.608
11
-507.813
21
75.465
0
LINE
5
C9
100
AcDbEntity
8
0
6
ByLayer
62
256
370
-1
100
AcDbLine
10
-507.813
20
75.465
11
-507.948
21
75.338
0
LINE
5
CA
100
AcDbEntity
8
0
6
ByLayer
62
256
370
-1
100
AcDbLine
10
-507.948
20
75.338
11
-508.098
21
75.23
0
LINE
5
CB
100
AcDbEntity
8
0
6
ByLayer
62
256
370
-1
100
AcDbLine
10
-508.098
20
75.23
11
-508.26
21
75.14
0
LINE
5
CC
100
AcDbEntity
8
0
6
ByLayer
62
256
370
-1
100
AcDbLine
10
-508.26
20
75.14
11
-508.432
21
75.072
0
LINE
5
CD
100
AcDbEntity
8
0
6
ByLayer
62
256
370
-1
100
AcDbLine
10
-508.432
20
75.072
11
-508.612
21
75.026
0
LINE
5
CE
100
AcDbEntity
8
0
6
ByLayer
62
256
370
-1
100
AcDbLine
10
-508.612
20
75.026
11
-508.795
21
75.003
0
LINE
5
CF
100
AcDbEntity
8
0
6
ByLayer
62
256
370
-1
100
AcDbLine
10
-508.795
20
75.003
11
-508.981
21
75.003
0
LINE
5
D0
100
AcDbEntity
8
0
6
ByLayer
62
256
370
-1
100
AcDbLine
10
-508.981
20
75.003
11
-509.164
21
75.026
0
LINE
5
D1
100
AcDbEntity
8
0
6
ByLayer
62
256
370
-1
100
AcDbLine
10
-509.164
20
75.026
11
-509.344
21
75.072
0
LINE
5
D2
100
AcDbEntity
8
0
6
ByLayer
62
256
370
-1
100
AcDbLine
10
-509.344
20
75.072
11
-509.516
21
75.14
0
LINE
5
D3
100
AcDbEntity
8
0
6
ByLayer
62
256
370
-1
100
AcDbLine
10
-509.516
20
75.14
11
-509.678
21
75.23
0
LINE
5
D4
100
AcDbEntity
8
0
6
ByLayer
62
256
370
-1
100
AcDbLine
10
-509.678
20
75.23
11
-509.828
21
75.338
0
LINE
5
D5
100
AcDbEntity
8
0
6
ByLayer
62
256
370
-1
100
AcDbLine
10
-509.828
20
75.338
11
-509.963
21
75.465
0
LINE
5
D6
100
AcDbEntity
8
0
6
ByLayer
62
256
370
-1
100
AcDbLine
10
-509.963
20
75.465
11
-510.081
21
75.608
0
LINE
5
D7
100
AcDbEntity
8
0
6
ByLayer
62
256
370
-1
100
AcDbLine
10
-510.081
20
75.608
11
-510.181
21
75.764
0
LINE
5
D8
100
AcDbEntity
8
0
6
ByLayer
62
256
370
-1
100
AcDbLine
10
-510.181
20
75.764
11
-510.259
21
75.932
0
LINE
5
D9
100
AcDbEntity
8
0
6
ByLayer
62
256
370
-1
100
AcDbLine
10
-510.259
20
75.932
11
-510.317
21
76.108
0
LINE
5
DA
100
AcDbEntity
8
0
6
ByLayer
62
256
370
-1
100
AcDbLine
10
-510.317
20
76.108
11
-510.351
21
76.29
0
LINE
5
DB
100
AcDbEntity
8
0
6
ByLayer
62
256
370
-1
100
AcDbLine
10
-510.351
20
76.29
11
-510.363
21
76.475
0
LINE
5
DC
100
AcDbEntity
8
0
6
ByLayer
62
256
370
-1
100
AcDbLine
10
-128.786
20
76.475
11
-128.774
21
76.66
0
LINE
5
DD
100
AcDbEntity
8
0
6
ByLayer
62
256
370
-1
100
AcDbLine
10
-128.774
20
76.66
11
-128.74
21
76.842
0
LINE
5
DE
100
AcDbEntity
8
0
6
ByLayer
62
256
370
-1
100
AcDbLine
10
-128.74
20
76.842
11
-128.682
21
77.018
0
LINE
5
DF
100
AcDbEntity
8
0
6
ByLayer
62
256
370
-1
100
AcDbLine
10
-128.682
20
77.018
11
-128.604
21
77.186
0
LINE
5
E0
100
AcDbEntity
8
0
6
ByLayer
62
256
370
-1
100
AcDbLine
10
-128.604
20
77.186
11
-128.504
21
77.342
0
LINE
5
E1
100
AcDbEntity
8
0
6
ByLayer
62
256
370
-1
100
AcDbLine
10
-128.504
20
77.342
11
-128.386
21
77.485
0
LINE
5
E2
100
AcDbEntity
8
0
6
ByLayer
62
256
370
-1
100
AcDbLine
10
-128.386
20
77.485
11
-128.251
21
77.612
0
LINE
5
E3
100
AcDbEntity
8
0
6
ByLayer
62
256
370
-1
100
AcDbLine
10
-128.251
20
77.612
11
-128.101
21
77.72
0
LINE
5
E4
100
AcDbEntity
8
0
6
ByLayer
62
256
370
-1
100
AcDbLine
10
-128.101
20
77.72
11
-127.939
21
77.81
0
LINE
5
E5
100
AcDbEntity
8
0
6
ByLayer
62
256
370
-1
100
AcDbLine
10
-127.939
20
77.81
11
-127.767
21
77.878
0
LINE
5
E6
100
AcDbEntity
8
0
6
ByLayer
62
256
370
-1
100
AcDbLine
10
-127.767
20
77.878
11
-127.587
21
77.924
0
LINE
5
E7
100
AcDbEntity
8
0
6
ByLayer
62
256
370
-1
100
AcDbLine
10
-127.587
20
77.924
11
-127.404
21
77.947
0
LINE
5
E8
100
AcDbEntity
8
0
6
ByLayer
62
256
370
-1
100
AcDbLine
10
-127.404
20
77.947
11
-127.218
21
77.947
0
LINE
5
E9
100
AcDbEntity
8
0
6
ByLayer
62
256
370
-1
100
AcDbLine
10
-127.218
20
77.947
11
-127.035
21
77.924
0
LINE
5
EA
100
AcDbEntity
8
0
6
ByLayer
62
256
370
-1
100
AcDbLine
10
-127.035
20
77.924
11
-126.855
21
77.878
0
LINE
5
EB
100
AcDbEntity
8
0
6
ByLayer
62
256
370
-1
100
AcDbLine
10
-126.855
20
77.878
11
-126.683
21
77.81
0
LINE
5
EC
100
AcDbEntity
8
0
6
ByLayer
62
256
370
-1
100
AcDbLine
10
-126.683
20
77.81
11
-126.521
21
77.72
0
LINE
5
ED
100
AcDbEntity
8
0
6
ByLayer
62
256
370
-1
100
AcDbLine
10
-126.521
20
77.72
11
-126.371
21
77.612
0
LINE
5
EE
100
AcDbEntity
8
0
6
ByLayer
62
256
370
-1
100
AcDbLine
10
-126.371
20
77.612
11
-126.236
21
77.485
0
LINE
5
EF
100
AcDbEntity
8
0
6
ByLayer
62
256
370
-1
100
AcDbLine
10
-126.236
20
77.485
11
-126.118
21
77.342
0
LINE
5
F0
100
AcDbEntity
8
0
6
ByLayer
62
256
370
-1
100
AcDbLine
10
-126.118
20
77.342
11
-126.018
21
77.186
0
LINE
5
F1
100
AcDbEntity
8
0
6
ByLayer
62
256
370
-1
100
AcDbLine
10
-126.018
20
77.186
11
-125.94
21
77.018
0
LINE
5
F2
100
AcDbEntity
8
0
6
ByLayer
62
256
370
-1
100
AcDbLine
10
-125.94
20
77.018
11
-125.882
21
76.842
0
LINE
5
F3
100
AcDbEntity
8
0
6
ByLayer
62
256
370
-1
100
AcDbLine
10
-125.882
20
76.842
11
-125.848
21
76.66
0
LINE
5
F4
100
AcDbEntity
8
0
6
ByLayer
62
256
370
-1
100
AcDbLine
10
-125.848
20
76.66
11
-125.836
21
76.475
0
LINE
5
F5
100
AcDbEntity
8
0
6
ByLayer
62
256
370
-1
100
AcDbLine
10
-125.836
20
76.475
11
-125.848
21
76.29
0
LINE
5
F6
100
AcDbEntity
8
0
6
ByLayer
62
256
370
-1
100
AcDbLine
10
-125.848
20
76.29
11
-125.882
21
76.108
0
LINE
5
F7
100
AcDbEntity
8
0
6
ByLayer
62
256
370
-1
100
AcDbLine
10
-125.882
20
76.108
11
-125.94
21
75.932
0
LINE
5
F8
100
AcDbEntity
8
0
6
ByLayer
62
256
370
-1
100
AcDbLine
10
-125.94
20
75.932
11
-126.018
21
75.764
0
LINE
5
F9
100
AcDbEntity
8
0
6
ByLayer
62
256
370
-1
100
AcDbLine
10
-126.018
20
75.764
11
-126.118
21
75.608
0
LINE
5
FA
100
AcDbEntity
8
0
6
ByLayer
62
256
370
-1
100
AcDbLine
10
-126.118
20
75.608
11
-126.236
21
75.465
0
LINE
5
FB
100
AcDbEntity
8
0
6
ByLayer
62
256
370
-1
100
AcDbLine
10
-126.236
20
75.465
11
-126.371
21
75.338
0
LINE
5
FC
100
AcDbEntity
8
0
6
ByLayer
62
256
370
-1
100
AcDbLine
10
-126.371
20
75.338
11
-126.521
21
75.23
0
LINE
5
FD
100
AcDbEntity
8
0
6
ByLayer
62
256
370
-1
100
AcDbLine
10
-126.521
20
75.23
11
-126.683
21
75.14
0
LINE
5
FE
100
AcDbEntity
8
0
6
ByLayer
62
256
370
-1
100
AcDbLine
10
-126.683
20
75.14
11
-126.855
21
75.072
0
LINE
5
FF
100
AcDbEntity
8
0
6
ByLayer
62
256
370
-1
100
AcDbLine
10
-126.855
20
75.072
11
-127.035
21
75.026
0
LINE
5
100
100
AcDbEntity
8
0
6
ByLayer
62
256
370
-1
100
AcDbLine
10
-127.035
20
75.026
11
-127.218
21
75.003
0
LINE
5
101
100
AcDbEntity
8
0
6
ByLayer
62
256
370
-1
100
AcDbLine
10
-127.218
20
75.003
11
-127.404
21
75.003
0
LINE
5
102
100
AcDbEntity
8
0
6
ByLayer
62
256
370
-1
100
AcDbLine
10
-127.404
20
75.003
11
-127.587
21
75.026
0
LINE
5
103
100
AcDbEntity
8
0
6
ByLayer
62
256
370
-1
100
AcDbLine
10
-127.587
20
75.026
11
-127.767
21
75.072
0
LINE
5
104
100
AcDbEntity
8
0
6
ByLayer
62
256
370
-1
100
AcDbLine
10
-127.767
20
75.072
11
-127.939
21
75.14
0
LINE
5
105
100
AcDbEntity
8
0
6
ByLayer
62
256
370
-1
100
AcDbLine
10
-127.939
20
75.14
11
-128.101
21
75.23
0
LINE
5
106
100
AcDbEntity
8
0
6
ByLayer
62
256
370
-1
100
AcDbLine
10
-128.101
20
75.23
11
-128.251
21
75.338
0
LINE
5
107
100
AcDbEntity
8
0
6
ByLayer
62
256
370
-1
100
AcDbLine
10
-128.251
20
75.338
11
-128.386
21
75.465
0
LINE
5
108
100
AcDbEntity
8
0
6
ByLayer
62
256
370
-1
100
AcDbLine
10
-128.386
20
75.465
11
-128.504
21
75.608
0
LINE
5
109
100
AcDbEntity
8
0
6
ByLayer
62
256
370
-1
100
AcDbLine
10
-128.504
20
75.608
11
-128.604
21
75.764
0
LINE
5
10A
100
AcDbEntity
8
0
6
ByLayer
62
256
370
-1
100
AcDbLine
10
-128.604
20
75.764
11
-128.682
21
75.932
0
LINE
5
10B
100
AcDbEntity
8
0
6
ByLayer
62
256
370
-1
100
AcDbLine
10
-128.682
20
75.932
11
-128.74
21
76.108
0
LINE
5
10C
100
AcDbEntity
8
0
6
ByLayer
62
256
370
-1
100
AcDbLine
10
-128.74
20
76.108
11
-128.774
21
76.29
0
LINE
5
10D
100
AcDbEntity
8
0
6
ByLayer
62
256
370
-1
100
AcDbLine
10
-128.774
20
76.29
11
-128.786
21
76.475
0
LINE
5
10E
100
AcDbEntity
8
0
6
ByLayer
62
256
370
-1
100
AcDbLine
10
-67.9
20
-554.395
11
-67.9
21
-539.395
0
LINE
5
10F
100
AcDbEntity
8
0
6
ByLayer
62
256
370
-1
100
AcDbLine
10
-67.9
20
-539.395
11
-65
21
-539.395
0
LINE
5
110
100
AcDbEntity
8
0
6
ByLayer
62
256
370
-1
100
AcDbLine
10
-65
20
-539.395
11
-65
21
-521.114
0
LINE
5
111
100
AcDbEntity
8
0
6
ByLayer
62
256
370
-1
100
AcDbLine
10
-65
20
-518.164
11
-65
21
-499.884
0
LINE
5
112
100
AcDbEntity
8
0
6
ByLayer
62
256
370
-1
100
AcDbLine
10
-65
20
-499.884
11
-67.9
21
-499.884
0
LINE
5
113
100
AcDbEntity
8
0
6
ByLayer
62
256
370
-1
100
AcDbLine
10
-67.9
20
-499.884
11
-67.9
21
-484.884
0
LINE
5
114
100
AcDbEntity
8
0
6
ByLayer
62
256
370
-1
100
AcDbLine
10
-67.9
20
-484.884
11
-65
21
-484.884
0
LINE
5
115
100
AcDbEntity
8
0
6
ByLayer
62
256
370
-1
100
AcDbLine
10
-65
20
-484.884
11
-65
21
-445.373
0
LINE
5
116
100
AcDbEntity
8
0
6
ByLayer
62
256
370
-1
100
AcDbLine
10
-65
20
-445.373
11
-67.9
21
-445.373
0
LINE
5
117
100
AcDbEntity
8
0
6
ByLayer
62
256
370
-1
100
AcDbLine
10
-67.9
20
-445.373
11
-67.9
21
-430.373
0
LINE
5
118
100
AcDbEntity
8
0
6
ByLayer
62
256
370
-1
100
AcDbLine
10
-67.9
20
-430.373
11
-65
21
-430.373
0
LINE
5
119
100
AcDbEntity
8
0
6
ByLayer
62
256
370
-1
100
AcDbLine
10
-65
20
-430.373
11
-65
21
-390.862
0
LINE
5
11A
100
AcDbEntity
8
0
6
ByLayer
62
256
370
-1
100
AcDbLine
10
-65
20
-390.862
11
-67.9
21
-390.862
0
LINE
5
11B
100
AcDbEntity
8
0
6
ByLayer
62
256
370
-1
100
AcDbLine
10
-67.9
20
-390.862
11
-67.9
21
-375.862
0
LINE
5
11C
100
AcDbEntity
8
0
6
ByLayer
62
256
370
-1
100
AcDbLine
10
-67.9
20
-375.862
11
-65
21
-375.862
0
LINE
5
11D
100
AcDbEntity
8
0
6
ByLayer
62
256
370
-1
100
AcDbLine
10
-65
20
-375.862
11
-65
21
-357.581
0
LINE
5
11E
100
AcDbEntity
8
0
6
ByLayer
62
256
370
-1
100
AcDbLine
10
-65
20
-354.631
11
-65
21
-336.35
0
LINE
5
11F
100
AcDbEntity
8
0
6
ByLayer
62
256
370
-1
100
AcDbLine
10
-65
20
-336.35
11
-67.9
21
-336.35
0
LINE
5
120
100
AcDbEntity
8
0
6
ByLayer
62
256
370
-1
100
AcDbLine
10
-67.9
20
-336.35
11
-67.9
21
-321.35
0
LINE
5
121
100
AcDbEntity
8
0
6
ByLayer
62
256
370
-1
100
AcDbLine
10
-67.9
20
-321.35
11
-65
21
-321.35
0
LINE
5
122
100
AcDbEntity
8
0
6
ByLayer
62
256
370
-1
100
AcDbLine
10
-65
20
-321.35
11
-65
21
-281.839
0
LINE
5
123
100
AcDbEntity
8
0
6
ByLayer
62
256
370
-1
100
AcDbLine
10
-65
20
-281.839
11
-67.9
21
-281.839
0
LINE
5
124
100
AcDbEntity
8
0
6
ByLayer
62
256
370
-1
100
AcDbLine
10
-67.9
20
-281.839
11
-67.9
21
-266.839
0
LINE
5
125
100
AcDbEntity
8
0
6
ByLayer
62
256
370
-1
100
AcDbLine
10
-67.9
20
-266.839
11
-65
21
-266.839
0
LINE
5
126
100
AcDbEntity
8
0
6
ByLayer
62
256
370
-1
100
AcDbLine
10
-65
20
-266.839
11
-65
21
-227.328
0
LINE
5
127
100
AcDbEntity
8
0
6
ByLayer
62
256
370
-1
100
AcDbLine
10
-65
20
-227.328
11
-67.9
21
-227.328
0
LINE
5
128
100
AcDbEntity
8
0
6
ByLayer
62
256
370
-1
100
AcDbLine
10
-67.9
20
-227.328
11
-67.9
21
-212.328
0
LINE
5
129
100
AcDbEntity
8
0
6
ByLayer
62
256
370
-1
100
AcDbLine
10
-67.9
20
-212.328
11
-65
21
-212.328
0
LINE
5
12A
100
AcDbEntity
8
0
6
ByLayer
62
256
370
-1
100
AcDbLine
10
-65
20
-212.328
11
-65
21
-172.817
0
LINE
5
12B
100
AcDbEntity
8
0
6
ByLayer
62
256
370
-1
100
AcDbLine
10
-65
20
-172.817
11
-67.9
21
-172.817
0
LINE
5
12C
100
AcDbEntity
8
0
6
ByLayer
62
256
370
-1
100
AcDbLine
10
-67.9
20
-172.817
11
-67.9
21
-157.817
0
LINE
5
12D
100
AcDbEntity
8
0
6
ByLayer
62
256
370
-1
100
AcDbLine
10
-67.9
20
-157.817
11
-65
21
-157.817
0
LINE
5
12E
100
AcDbEntity
8
0
6
ByLayer
62
256
370
-1
100
AcDbLine
10
-65
20
-157.817
11
-65
21
-139.537
0
LINE
5
12F
100
AcDbEntity
8
0
6
ByLayer
62
256
370
-1
100
AcDbLine
10
-65
20
-136.587
11
-65
21
-118.306
0
LINE
5
130
100
AcDbEntity
8
0
6
ByLayer
62
256
370
-1
100
AcDbLine
10
-65
20
-118.306
11
-67.9
21
-118.306
0
LINE
5
131
100
AcDbEntity
8
0
6
ByLayer
62
256
370
-1
100
AcDbLine
10
-67.9
20
-118.306
11
-67.9
21
-103.306
0
LINE
5
132
100
AcDbEntity
8
0
6
ByLayer
62
256
370
-1
100
AcDbLine
10
-67.9
20
-103.306
11
-65
21
-103.306
0
LINE
5
133
100
AcDbEntity
8
0
6
ByLayer
62
256
370
-1
100
AcDbLine
10
-65
20
-103.306
11
-65
21
-80.65
0
LINE
5
134
100
AcDbEntity
8
0
6
ByLayer
62
256
370
-1
100
AcDbLine
10
-65
20
-80.65
11
-50.834
21
-80.65
0
LINE
5
135
100
AcDbEntity
8
0
6
ByLayer
62
256
370
-1
100
AcDbLine
10
-50.834
20
-80.65
11
-50.834
21
-83.55
0
LINE
5
136
100
AcDbEntity
8
0
6
ByLayer
62
256
370
-1
100
AcDbLine
10
-50.834
20
-83.55
11
-35.834
21
-83.55
0
LINE
5
137
100
AcDbEntity
8
0
6
ByLayer
62
256
370
-1
100
AcDbLine
10
-35.834
20
-83.55
11
-35.834
21
-80.65
0
LINE
5
138
100
AcDbEntity
8
0
6
ByLayer
62
256
370
-1
100
AcDbLine
10
-35.834
20
-80.65
11
-7.5
21
-80.65
0
LINE
5
139
100
AcDbEntity
8
0
6
ByLayer
62
256
370
-1
100
AcDbLine
10
-7.5
20
-80.65
11
-7.5
21
-83.55
0
LINE
5
13A
100
AcDbEntity
8
0
6
ByLayer
62
256
370
-1
100
AcDbLine
10
-7.5
20
-83.55
11
7.5
21
-83.55
0
LINE
5
13B
100
AcDbEntity
8
0
6
ByLayer
62
256
370
-1
100
AcDbLine
10
7.5
20
-83.55
11
7.5
21
-80.65
0
LINE
5
13C
100
AcDbEntity
8
0
6
ByLayer
62
256
370
-1
100
AcDbLine
10
7.5
20
-80.65
11
35.833
21
-80.65
0
LINE
5
13D
100
AcDbEntity
8
0
6
ByLayer
62
256
370
-1
100
AcDbLine
10
35.833
20
-80.65
11
35.833
21
-83.55
0
LINE
5
13E
100
AcDbEntity
8
0
6
ByLayer
62
256
370
-1
100
AcDbLine
10
35.833
20
-83.55
11
50.833
21
-83.55
0
LINE
5
13F
100
AcDbEntity
8
0
6
ByLayer
62
256
370
-1
100
AcDbLine
10
50.833
20
-83.55
11
50.833
21
-80.65
0
LINE
5
140
100
AcDbEntity
8
0
6
ByLayer
62
256
370
-1
100
AcDbLine
10
50.833
20
-80.65
11
65
21
-80.65
0
LINE
5
141
100
AcDbEntity
8
0
6
ByLayer
62
256
370
-1
100
AcDbLine
10
65
20
-80.65
11
65
21
-103.306
0
LINE
5
142
100
AcDbEntity
8
0
6
ByLayer
62
256
370
-1
100
AcDbLine
10
65
20
-103.306
11
67.9
21
-103.306
0
LINE
5
143
100
AcDbEntity
8
0
6
ByLayer
62
256
370
-1
100
AcDbLine
10
67.9
20
-103.306
11
67.9
21
-118.306
0
LINE
5
144
100
AcDbEntity
8
0
6
ByLayer
62
256
370
-1
100
AcDbLine
10
67.9
20
-118.306
11
65
21
-118.306
0
LINE
5
145
100
AcDbEntity
8
0
6
ByLayer
62
256
370
-1
100
AcDbLine
10
65
20
-118.306
11
65
21
-136.587
0
LINE
5
146
100
AcDbEntity
8
0
6
ByLayer
62
256
370
-1
100
AcDbLine
10
65
20
-139.537
11
65
21
-157.817
0
LINE
5
147
100
AcDbEntity
8
0
6
ByLayer
62
256
370
-1
100
AcDbLine
10
65
20
-157.817
11
67.9
21
-157.817
0
LINE
5
148
100
AcDbEntity
8
0
6
ByLayer
62
256
370
-1
100
AcDbLine
10
67.9
20
-157.817
11
67.9
21
-172.817
0
LINE
5
149
100
AcDbEntity
8
0
6
ByLayer
62
256
370
-1
100
AcDbLine
10
67.9
20
-172.817
11
65
21
-172.817
0
LINE
5
14A
100
AcDbEntity
8
0
6
ByLayer
62
256
370
-1
100
AcDbLine
10
65
20
-172.817
11
65
21
-212.328
0
LINE
5
14B
100
AcDbEntity
8
0
6
ByLayer
62
256
370
-1
100
AcDbLine
10
65
20
-212.328
11
67.9
21
-212.328
0
LINE
5
14C
100
AcDbEntity
8
0
6
ByLayer
62
256
370
-1
100
AcDbLine
10
67.9
20
-212.328
11
67.9
21
-227.328
0
LINE
5
14D
100
AcDbEntity
8
0
6
ByLayer
62
256
370
-1
100
AcDbLine
10
67.9
20
-227.328
11
65
21
-227.328
0
LINE
5
14E
100
AcDbEntity
8
0
6
ByLayer
62
256
370
-1
100
AcDbLine
10
65
20
-227.328
11
65
21
-266.839
0
LINE
5
14F
100
AcDbEntity
8
0
6
ByLayer
62
256
370
-1
100
AcDbLine
10
65
20
-266.839
11
67.9
21
-266.839
0
LINE
5
150
100
AcDbEntity
8
0
6
ByLayer
62
256
370
-1
100
AcDbLine
10
67.9
20
-266.839
11
67.9
21
-281.839
0
LINE
5
151
100
AcDbEntity
8
0
6
ByLayer
62
256
370
-1
100
AcDbLine
10
67.9
20
-281.839
11
65
21
-281.839
0
LINE
5
152
100
AcDbEntity
8
0
6
ByLayer
62
256
370
-1
100
AcDbLine
10
65
20
-281.839
11
65
21
-321.35
0
LINE
5
153
100
AcDbEntity
8
0
6
ByLayer
62
256
370
-1
100
AcDbLine
10
65
20
-321.35
11
67.9
21
-321.35
0
LINE
5
154
100
AcDbEntity
8
0
6
ByLayer
62
256
370
-1
100
AcDbLine
10
67.9
20
-321.35
11
67.9
21
-336.35
0
LINE
5
155
100
AcDbEntity
8
0
6
ByLayer
62
256
370
-1
100
AcDbLine
10
67.9
20
-336.35
11
65
21
-336.35
0
LINE
5
156
100
AcDbEntity
8
0
6
ByLayer
62
256
370
-1
100
AcDbLine
10
65
20
-336.35
11
65
21
-354.631
0
LINE
5
157
100
AcDbEntity
8
0
6
ByLayer
62
256
370
-1
100
AcDbLine
10
65
20
-357.581
11
65
21
-375.862
0
LINE
5
158
100
AcDbEntity
8
0
6
ByLayer
62
256
370
-1
100
AcDbLine
10
65
20
-375.862
11
67.9
21
-375.862
0
LINE
5
159
100
AcDbEntity
8
0
6
ByLayer
62
256
370
-1
100
AcDbLine
10
67.9
20
-375.862
11
67.9
21
-390.862
0
LINE
5
15A
100
AcDbEntity
8
0
6
ByLayer
62
256
370
-1
100
AcDbLine
10
67.9
20
-390.862
11
65
21
-390.862
0
LINE
5
15B
100
AcDbEntity
8
0
6
ByLayer
62
256
370
-1
100
AcDbLine
10
65
20
-390.862
11
65
21
-430.373
0
LINE
5
15C
100
AcDbEntity
8
0
6
ByLayer
62
256
370
-1
100
AcDbLine
10
65
20
-430.373
11
67.9
21
-430.373
0
LINE
5
15D
100
AcDbEntity
8
0
6
ByLayer
62
256
370
-1
100
AcDbLine
10
67.9
20
-430.373
11
67.9
21
-445.373
0
LINE
5
15E
100
AcDbEntity
8
0
6
ByLayer
62
256
370
-1
100
AcDbLine
10
67.9
20
-445.373
11
65
21
-445.373
0
LINE
5
15F
100
AcDbEntity
8
0
6
ByLayer
62
256
370
-1
100
AcDbLine
10
65
20
-445.373
11
65
21
-484.884
0
LINE
5
160
100
AcDbEntity
8
0
6
ByLayer
62
256
370
-1
100
AcDbLine
10
65
20
-484.884
11
67.9
21
-484.884
0
LINE
5
161
100
AcDbEntity
8
0
6
ByLayer
62
256
370
-1
100
AcDbLine
10
67.9
20
-484.884
11
67.9
21
-499.884
0
LINE
5
162
100
AcDbEntity
8
0
6
ByLayer
62
256
370
-1
100
AcDbLine
10
67.9
20
-499.884
11
65
21
-499.884
0
LINE
5
163
100
AcDbEntity
8
0
6
ByLayer
62
256
370
-1
100
AcDbLine
10
65
20
-499.884
11
65
21
-518.164
0
LINE
5
164
100
AcDbEntity
8
0
6
ByLayer
62
256
370
-1
100
AcDbLine
10
65
20
-521.114
11
65
21
-539.395
0
LINE
5
165
100
AcDbEntity
8
0
6
ByLayer
62
256
370
-1
100
AcDbLine
10
65
20
-539.395
11
67.9
21
-539.395
0
LINE
5
166
100
AcDbEntity
8
0
6
ByLayer
62
256
370
-1
100
AcDbLine
10
67.9
20
-539.395
11
67.9
21
-554.395
0
LINE
5
167
100
AcDbEntity
8
0
6
ByLayer
62
256
370
-1
100
AcDbLine
10
67.9
20
-554.395
11
65
21
-554.395
0
LINE
5
168
100
AcDbEntity
8
0
6
ByLayer
62
256
370
-1
100
AcDbLine
10
65
20
-554.395
11
65
21
-577.05
0
LINE
5
169
100
AcDbEntity
8
0
6
ByLayer
62
256
370
-1
100
AcDbLine
10
65
20
-577.05
11
50.833
21
-577.05
0
LINE
5
16A
100
AcDbEntity
8
0
6
ByLayer
62
256
370
-1
100
AcDbLine
10
50.833
20
-577.05
11
50.833
21
-574.15
0
LINE
5
16B
100
AcDbEntity
8
0
6
ByLayer
62
256
370
-1
100
AcDbLine
10
50.833
20
-574.15
11
35.833
21
-574.15
0
LINE
5
16C
100
AcDbEntity
8
0
6
ByLayer
62
256
370
-1
100
AcDbLine
10
35.833
20
-574.15
11
35.833
21
-577.05
0
LINE
5
16D
100
AcDbEntity
8
0
6
ByLayer
62
256
370
-1
100
AcDbLine
10
35.833
20
-577.05
11
7.5
21
-577.05
0
LINE
5
16E
100
AcDbEntity
8
0
6
ByLayer
62
256
370
-1
100
AcDbLine
10
7.5
20
-577.05
11
7.5
21
-574.15
0
LINE
5
16F
100
AcDbEntity
8
0
6
ByLayer
62
256
370
-1
100
AcDbLine
10
7.5
20
-574.15
11
-7.5
21
-574.15
0
LINE
5
170
100
AcDbEntity
8
0
6
ByLayer
62
256
370
-1
100
AcDbLine
10
-7.5
20
-574.15
11
-7.5
21
-577.05
0
LINE
5
171
100
AcDbEntity
8
0
6
ByLayer
62
256
370
-1
100
AcDbLine
10
-7.5
20
-577.05
11
-35.834
21
-577.05
0
LINE
5
172
100
AcDbEntity
8
0
6
ByLayer
62
256
370
-1
100
AcDbLine
10
-35.834
20
-577.05
11
-35.834
21
-574.15
0
LINE
5
173
100
AcDbEntity
8
0
6
ByLayer
62
256
370
-1
100
AcDbLine
10
-35.834
20
-574.15
11
-50.834
21
-574.15
0
LINE
5
174
100
AcDbEntity
8
0
6
ByLayer
62
256
370
-1
100
AcDbLine
10
-50.834
20
-574.15
11
-50.834
21
-577.05
0
LINE
5
175
100
AcDbEntity
8
0
6
ByLayer
62
256
370
-1
100
AcDbLine
10
-50.834
20
-577.05
11
-65
21
-577.05
0
LINE
5
176
100
AcDbEntity
8
0
6
ByLayer
62
256
370
-1
100
AcDbLine
10
-65
20
-577.05
11
-65
21
-554.395
0
LINE
5
177
100
AcDbEntity
8
0
6
ByLayer
62
256
370
-1
100
AcDbLine
10
-65
20
-554.395
11
-67.9
21
-554.395
0
LINE
5
178
100
AcDbEntity
8
0
6
ByLayer
62
256
370
-1
100
AcDbLine
10
-67.9
20
-58
11
-67.9
21
-43
0
LINE
5
179
100
AcDbEntity
8
0
6
ByLayer
62
256
370
-1
100
AcDbLine
10
-67.9
20
-43
11
-65
21
-43
0
LINE
5
17A
100
AcDbEntity
8
0
6
ByLayer
62
256
370
-1
100
AcDbLine
10
-65
20
-43
11
-65
21
-26.725
0
LINE
5
17B
100
AcDbEntity
8
0
6
ByLayer
62
256
370
-1
100
AcDbLine
10
-65
20
-23.775
11
-65
21
-7.5
0
LINE
5
17C
100
AcDbEntity
8
0
6
ByLayer
62
256
370
-1
100
AcDbLine
10
-65
20
-7.5
11
-67.9
21
-7.5
0
LINE
5
17D
100
AcDbEntity
8
0
6
ByLayer
62
256
370
-1
100
AcDbLine
10
-67.9
20
-7.5
11
-67.9
21
7.5
0
LINE
5
17E
100
AcDbEntity
8
0
6
ByLayer
62
256
370
-1
100
AcDbLine
10
-67.9
20
7.5
11
-65
21
7.5
0
LINE
5
17F
100
AcDbEntity
8
0
6
ByLayer
62
256
370
-1
100
AcDbLine
10
-65
20
7.5
11
-65
21
23.775
0
LINE
5
180
100
AcDbEntity
8
0
6
ByLayer
62
256
370
-1
100
AcDbLine
10
-65
20
26.725
11
-65
21
43
0
LINE
5
181
100
AcDbEntity
8
0
6
ByLayer
62
256
370
-1
100
AcDbLine
10
-65
20
43
11
-67.9
21
43
0
LINE
5
182
100
AcDbEntity
8
0
6
ByLayer
62
256
370
-1
100
AcDbLine
10
-67.9
20
43
11
-67.9
21
58
0
LINE
5
183
100
AcDbEntity
8
0
6
ByLayer
62
256
370
-1
100
AcDbLine
10
-67.9
20
58
11
-65
21
58
0
LINE
5
184
100
AcDbEntity
8
0
6
ByLayer
62
256
370
-1
100
AcDbLine
10
-65
20
58
11
-65
21
75.75
0
LINE
5
185
100
AcDbEntity
8
0
6
ByLayer
62
256
370
-1
100
AcDbLine
10
-65
20
75.75
11
-50.834
21
75.75
0
LINE
5
186
100
AcDbEntity
8
0
6
ByLayer
62
256
370
-1
100
AcDbLine
10
-50.834
20
75.75
11
-50.834
21
78.65
0
LINE
5
187
100
AcDbEntity
8
0
6
ByLayer
62
256
370
-1
100
AcDbLine
10
-50.834
20
78.65
11
-35.834
21
78.65
0
LINE
5
188
100
AcDbEntity
8
0
6
ByLayer
62
256
370
-1
100
AcDbLine
10
-35.834
20
78.65
11
-35.834
21
75.75
0
LINE
5
189
100
AcDbEntity
8
0
6
ByLayer
62
256
370
-1
100
AcDbLine
10
-35.834
20
75.75
11
-7.5
21
75.75
0
LINE
5
18A
100
AcDbEntity
8
0
6
ByLayer
62
256
370
-1
100
AcDbLine
10
-7.5
20
75.75
11
-7.5
21
78.65
0
LINE
5
18B
100
AcDbEntity
8
0
6
ByLayer
62
256
370
-1
100
AcDbLine
10
-7.5
20
78.65
11
7.5
21
78.65
0
LINE
5
18C
100
AcDbEntity
8
0
6
ByLayer
62
256
370
-1
100
AcDbLine
10
7.5
20
78.65
11
7.5
21
75.75
0
LINE
5
18D
100
AcDbEntity
8
0
6
ByLayer
62
256
370
-1
100
AcDbLine
10
7.5
20
75.75
11
35.833
21
75.75
0
LINE
5
18E
100
AcDbEntity
8
0
6
ByLayer
62
256
370
-1
100
AcDbLine
10
35.833
20
75.75
11
35.833
21
78.65
0
LINE
5
18F
100
AcDbEntity
8
0
6
ByLayer
62
256
370
-1
100
AcDbLine
10
35.833
20
78.65
11
50.833
21
78.65
0
LINE
5
190
100
AcDbEntity
8
0
6
ByLayer
62
256
370
-1
100
AcDbLine
10
50.833
20
78.65
11
50.833
21
75.75
0
LINE
5
191
100
AcDbEntity
8
0
6
ByLayer
62
256
370
-1
100
AcDbLine
10
50.833
20
75.75
11
65
21
75.75
0
LINE
5
192
100
AcDbEntity
8
0
6
ByLayer
62
256
370
-1
100
AcDbLine
10
65
20
75.75
11
65
21
58
0
LINE
5
193
100
AcDbEntity
8
0
6
ByLayer
62
256
370
-1
100
AcDbLine
10
65
20
58
11
67.9
21
58
0
LINE
5
194
100
AcDbEntity
8
0
6
ByLayer
62
256
370
-1
100
AcDbLine
10
67.9
20
58
11
67.9
21
43
0
LINE
5
195
100
AcDbEntity
8
0
6
ByLayer
62
256
370
-1
100
AcDbLine
10
67.9
20
43
11
65
21
43
0
LINE
5
196
100
AcDbEntity
8
0
6
ByLayer
62
256
370
-1
100
AcDbLine
10
65
20
43
11
65
21
26.725
0
LINE
5
197
100
AcDbEntity
8
0
6
ByLayer
62
256
370
-1
100
AcDbLine
10
65
20
23.775
11
65
21
7.5
0
LINE
5
198
100
AcDbEntity
8
0
6
ByLayer
62
256
370
-1
100
AcDbLine
10
65
20
7.5
11
67.9
21
7.5
0
LINE
5
199
100
AcDbEntity
8
0
6
ByLayer
62
256
370
-1
100
AcDbLine
10
67.9
20
7.5
11
67.9
21
-7.5
0
LINE
5
19A
100
AcDbEntity
8
0
6
ByLayer
62
256
370
-1
100
AcDbLine
10
67.9
20
-7.5
11
65
21
-7.5
0
LINE
5
19B
100
AcDbEntity
8
0
6
ByLayer
62
256
370
-1
100
AcDbLine
10
65
20
-7.5
11
65
21
-23.775
0
LINE
5
19C
100
AcDbEntity
8
0
6
ByLayer
62
256
370
-1
100
AcDbLine
10
65
20
-26.725
11
65
21
-43
0
LINE
5
19D
100
AcDbEntity
8
0
6
ByLayer
62
256
370
-1
100
AcDbLine
10
65
20
-43
11
67.9
21
-43
0
LINE
5
19E
100
AcDbEntity
8
0
6
ByLayer
62
256
370
-1
100
AcDbLine
10
67.9
20
-43
11
67.9
21
-58
0
LINE
5
19F
100
AcDbEntity
8
0
6
ByLayer
62
256
370
-1
100
AcDbLine
10
67.9
20
-58
11
65
21
-58
0
LINE
5
1A0
100
AcDbEntity
8
0
6
ByLayer
62
256
370
-1
100
AcDbLine
10
65
20
-58
11
65
21
-75.75
0
LINE
5
1A1
100
AcDbEntity
8
0
6
ByLayer
62
256
370
-1
100
AcDbLine
10
65
20
-75.75
11
50.833
21
-75.75
0
LINE
5
1A2
100
AcDbEntity
8
0
6
ByLayer
62
256
370
-1
100
AcDbLine
10
50.833
20
-75.75
11
50.833
21
-78.65
0
LINE
5
1A3
100
AcDbEntity
8
0
6
ByLayer
62
256
370
-1
100
AcDbLine
10
50.833
20
-78.65
11
35.833
21
-78.65
0
LINE
5
1A4
100
AcDbEntity
8
0
6
ByLayer
62
256
370
-1
100
AcDbLine
10
35.833
20
-78.65
11
35.833
21
-75.75
0
LINE
5
1A5
100
AcDbEntity
8
0
6
ByLayer
62
256
370
-1
100
AcDbLine
10
35.833
20
-75.75
11
7.5
21
-75.75
0
LINE
5
1A6
100
AcDbEntity
8
0
6
ByLayer
62
256
370
-1
100
AcDbLine
10
7.5
20
-75.75
11
7.5
21
-78.65
0
LINE
5
1A7
100
AcDbEntity
8
0
6
ByLayer
62
256
370
-1
100
AcDbLine
10
7.5
20
-78.65
11
-7.5
21
-78.65
0
LINE
5
1A8
100
AcDbEntity
8
0
6
ByLayer
62
256
370
-1
100
AcDbLine
10
-7.5
20
-78.65
11
-7.5
21
-75.75
0
LINE
5
1A9
100
AcDbEntity
8
0
6
ByLayer
62
256
370
-1
100
AcDbLine
10
-7.5
20
-75.75
11
-35.834
21
-75.75
0
LINE
5
1AA
100
AcDbEntity
8
0
6
ByLayer
62
256
370
-1
100
AcDbLine
10
-35.834
20
-75.75
11
-35.834
21
-78.65
0
LINE
5
1AB
100
AcDbEntity
8
0
6
ByLayer
62
256
370
-1
100
AcDbLine
10
-35.834
20
-78.65
11
-50.834
21
-78.65
0
LINE
5
1AC
100
AcDbEntity
8
0
6
ByLayer
62
256
370
-1
100
AcDbLine
10
-50.834
20
-78.65
11
-50.834
21
-75.75
0
LINE
5
1AD
100
AcDbEntity
8
0
6
ByLayer
62
256
370
-1
100
AcDbLine
10
-50.834
20
-75.75
11
-65
21
-75.75
0
LINE
5
1AE
100
AcDbEntity
8
0
6
ByLayer
62
256
370
-1
100
AcDbLine
10
-65
20
-75.75
11
-65
21
-58
0
LINE
5
1AF
100
AcDbEntity
8
0
6
ByLayer
62
256
370
-1
100
AcDbLine
10
-65
20
-58
11
-67.9
21
-58
0
LINE
5
1B0
100
AcDbEntity
8
0
6
ByLayer
62
256
370
-1
100
AcDbLine
10
-67.9
20
103.305
11
-67.9
21
118.305
0
LINE
5
1B1
100
AcDbEntity
8
0
6
ByLayer
62
256
370
-1
100
AcDbLine
10
-67.9
20
118.305
11
-65
21
118.305
0
LINE
5
1B2
100
AcDbEntity
8
0
6
ByLayer
62
256
370
-1
100
AcDbLine
10
-65
20
118.305
11
-65
21
136.586
0
LINE
5
1B3
100
AcDbEntity
8
0
6
ByLayer
62
256
370
-1
100
AcDbLine
10
-65
20
136.586
11
-59.034
21
136.586
0
LINE
5
1B4
100
AcDbEntity
8
0
6
ByLayer
62
256
370
-1
100
AcDbLine
10
-59.034
20
136.586
11
-59.034
21
135.311
0
LINE
5
1B5
100
AcDbEntity
8
0
6
ByLayer
62
256
370
-1
100
AcDbLine
10
-59.034
20
135.311
11
-56.634
21
135.311
0
LINE
5
1B6
100
AcDbEntity
8
0
6
ByLayer
62
256
370
-1
100
AcDbLine
10
-56.634
20
135.311
11
-56.634
21
136.586
0
LINE
5
1B7
100
AcDbEntity
8
0
6
ByLayer
62
256
370
-1
100
AcDbLine
10
-56.634
20
136.586
11
-55.4
21
136.586
0
LINE
5
1B8
100
AcDbEntity
8
0
6
ByLayer
62
256
370
-1
100
AcDbLine
10
-55.4
20
136.586
11
-55.4
21
139.536
0
LINE
5
1B9
100
AcDbEntity
8
0
6
ByLayer
62
256
370
-1
100
AcDbLine
10
-55.4
20
139.536
11
-56.634
21
139.536
0
LINE
5
1BA
100
AcDbEntity
8
0
6
ByLayer
62
256
370
-1
100
AcDbLine
10
-56.634
20
139.536
11
-56.634
21
140.811
0
LINE
5
1BB
100
AcDbEntity
8
0
6
ByLayer
62
256
370
-1
100
AcDbLine
10
-56.634
20
140.811
11
-59.034
21
140.811
0
LINE
5
1BC
100
AcDbEntity
8
0
6
ByLayer
62
256
370
-1
100
AcDbLine
10
-59.034
20
140.811
11
-59.034
21
139.536
0
LINE
5
1BD
100
AcDbEntity
8
0
6
ByLayer
62
256
370
-1
100
AcDbLine
10
-59.034
20
139.536
11
-65
21
139.536
0
LINE
5
1BE
100
AcDbEntity
8
0
6
ByLayer
62
256
370
-1
100
AcDbLine
10
-65
20
139.536
11
-65
21
157.816
0
LINE
5
1BF
100
AcDbEntity
8
0
6
ByLayer
62
256
370
-1
100
AcDbLine
10
-65
20
157.816
11
-67.9
21
157.816
0
LINE
5
1C0
100
AcDbEntity
8
0
6
ByLayer
62
256
370
-1
100
AcDbLine
10
-67.9
20
157.816
11
-67.9
21
172.816
0
LINE
5
1C1
100
AcDbEntity
8
0
6
ByLayer
62
256
370
-1
100
AcDbLine
10
-67.9
20
172.816
11
-65
21
172.816
0
LINE
5
1C2
100
AcDbEntity
8
0
6
ByLayer
62
256
370
-1
100
AcDbLine
10
-65
20
172.816
11
-65
21
212.327
0
LINE
5
1C3
100
AcDbEntity
8
0
6
ByLayer
62
256
370
-1
100
AcDbLine
10
-65
20
212.327
11
-67.9
21
212.327
0
LINE
5
1C4
100
AcDbEntity
8
0
6
ByLayer
62
256
370
-1
100
AcDbLine
10
-67.9
20
212.327
11
-67.9
21
227.327
0
LINE
5
1C5
100
AcDbEntity
8
0
6
ByLayer
62
256
370
-1
100
AcDbLine
10
-67.9
20
227.327
11
-65
21
227.327
0
LINE
5
1C6
100
AcDbEntity
8
0
6
ByLayer
62
256
370
-1
100
AcDbLine
10
-65
20
227.327
11
-65
21
266.838
0
LINE
5
1C7
100
AcDbEntity
8
0
6
ByLayer
62
256
370
-1
100
AcDbLine
10
-65
20
266.838
11
-67.9
21
266.838
0
LINE
5
1C8
100
AcDbEntity
8
0
6
ByLayer
62
256
370
-1
100
AcDbLine
10
-67.9
20
266.838
11
-67.9
21
281.838
0
LINE
5
1C9
100
AcDbEntity
8
0
6
ByLayer
62
256
370
-1
100
AcDbLine
10
-67.9
20
281.838
11
-65
21
281.838
0
LINE
5
1CA
100
AcDbEntity
8
0
6
ByLayer
62
256
370
-1
100
AcDbLine
10
-65
20
281.838
11
-65
21
300.119
0
LINE
5
1CB
100
AcDbEntity
8
0
6
ByLayer
62
256
370
-1
100
AcDbLine
10
-65
20
300.119
11
-59.034
21
300.119
0
LINE
5
1CC
100
AcDbEntity
8
0
6
ByLayer
62
256
370
-1
100
AcDbLine
10
-59.034
20
300.119
11
-59.034
21
298.844
0
LINE
5
1CD
100
AcDbEntity
8
0
6
ByLayer
62
256
370
-1
100
AcDbLine
10
-59.034
20
298.844
11
-56.634
21
298.844
0
LINE
5
1CE
100
AcDbEntity
8
0
6
ByLayer
62
256
370
-1
100
AcDbLine
10
-56.634
20
298.844
11
-56.634
21
300.119
0
LINE
5
1CF
100
AcDbEntity
8
0
6
ByLayer
62
256
370
-1
100
AcDbLine
10
-56.634
20
300.119
11
-55.4
21
300.119
0
LINE
5
1D0
100
AcDbEntity
8
0
6
ByLayer
62
256
370
-1
100
AcDbLine
10
-55.4
20
300.119
11
-55.4
21
303.069
0
LINE
5
1D1
100
AcDbEntity
8
0
6
ByLayer
62
256
370
-1
100
AcDbLine
10
-55.4
20
303.069
11
-56.634
21
303.069
0
LINE
5
1D2
100
AcDbEntity
8
0
6
ByLayer
62
256
370
-1
100
AcDbLine
10
-56.634
20
303.069
11
-56.634
21
304.344
0
LINE
5
1D3
100
AcDbEntity
8
0
6
ByLayer
62
256
370
-1
100
AcDbLine
10
-56.634
20
304.344
11
-59.034
21
304.344
0
LINE
5
1D4
100
AcDbEntity
8
0
6
ByLayer
62
256
370
-1
100
AcDbLine
10
-59.034
20
304.344
11
-59.034
21
303.069
0
LINE
5
1D5
100
AcDbEntity
8
0
6
ByLayer
62
256
370
-1
100
AcDbLine
10
-59.034
20
303.069
11
-65
21
303.069
0
LINE
5
1D6
100
AcDbEntity
8
0
6
ByLayer
62
256
370
-1
100
AcDbLine
10
-65
20
303.069
11
-65
21
321.35
0
LINE
5
1D7
100
AcDbEntity
8
0
6
ByLayer
62
256
370
-1
100
AcDbLine
10
-65
20
321.35
11
-67.9
21
321.35
0
LINE
5
1D8
100
AcDbEntity
8
0
6
ByLayer
62
256
370
-1
100
AcDbLine
10
-67.9
20
321.35
11
-67.9
21
336.35
0
LINE
5
1D9
100
AcDbEntity
8
0
6
ByLayer
62
256
370
-1
100
AcDbLine
10
-67.9
20
336.35
11
-65
21
336.35
0
LINE
5
1DA
100
AcDbEntity
8
0
6
ByLayer
62
256
370
-1
100
AcDbLine
10
-65
20
336.35
11
-65
21
375.861
0
LINE
5
1DB
100
AcDbEntity
8
0
6
ByLayer
62
256
370
-1
100
AcDbLine
10
-65
20
375.861
11
-67.9
21
375.861
0
LINE
5
1DC
100
AcDbEntity
8
0
6
ByLayer
62
256
370
-1
100
AcDbLine
10
-67.9
20
375.861
11
-67.9
21
390.861
0
LINE
5
1DD
100
AcDbEntity
8
0
6
ByLayer
62
256
370
-1
100
AcDbLine
10
-67.9
20
390.861
11
-65
21
390.861
0
LINE
5
1DE
100
AcDbEntity
8
0
6
ByLayer
62
256
370
-1
100
AcDbLine
10
-65
20
390.861
11
-65
21
430.372
0
LINE
5
1DF
100
AcDbEntity
8
0
6
ByLayer
62
256
370
-1
100
AcDbLine
10
-65
20
430.372
11
-67.9
21
430.372
0
LINE
5
1E0
100
AcDbEntity
8
0
6
ByLayer
62
256
370
-1
100
AcDbLine
10
-67.9
20
430.372
11
-67.9
21
445.372
0
LINE
5
1E1
100
AcDbEntity
8
0
6
ByLayer
62
256
370
-1
100
AcDbLine
10
-67.9
20
445.372
11
-65
21
445.372
0
LINE
5
1E2
100
AcDbEntity
8
0
6
ByLayer
62
256
370
-1
100
AcDbLine
10
-65
20
445.372
11
-65
21
484.883
0
LINE
5
1E3
100
AcDbEntity
8
0
6
ByLayer
62
256
370
-1
100
AcDbLine
10
-65
20
484.883
11
-67.9
21
484.883
0
LINE
5
1E4
100
AcDbEntity
8
0
6
ByLayer
62
256
370
-1
100
AcDbLine
10
-67.9
20
484.883
11
-67.9
21
499.883
0
LINE
5
1E5
100
AcDbEntity
8
0
6
ByLayer
62
256
370
-1
100
AcDbLine
10
-67.9
20
499.883
11
-65
21
499.883
0
LINE
5
1E6
100
AcDbEntity
8
0
6
ByLayer
62
256
370
-1
100
AcDbLine
10
-65
20
499.883
11
-65
21
518.163
0
LINE
5
1E7
100
AcDbEntity
8
0
6
ByLayer
62
256
370
-1
100
AcDbLine
10
-65
20
518.163
11
-59.034
21
518.163
0
LINE
5
1E8
100
AcDbEntity
8
0
6
ByLayer
62
256
370
-1
100
AcDbLine
10
-59.034
20
518.163
11
-59.034
21
516.888
0
LINE
5
1E9
100
AcDbEntity
8
0
6
ByLayer
62
256
370
-1
100
AcDbLine
10
-59.034
20
516.888
11
-56.634
21
516.888
0
LINE
5
1EA
100
AcDbEntity
8
0
6
ByLayer
62
256
370
-1
100
AcDbLine
10
-56.634
20
516.888
11
-56.634
21
518.163
0
LINE
5
1EB
100
AcDbEntity
8
0
6
ByLayer
62
256
370
-1
100
AcDbLine
10
-56.634
20
518.163
11
-55.4
21
518.163
0
LINE
5
1EC
100
AcDbEntity
8
0
6
ByLayer
62
256
370
-1
100
AcDbLine
10
-55.4
20
518.163
11
-55.4
21
521.113
0
LINE
5
1ED
100
AcDbEntity
8
0
6
ByLayer
62
256
370
-1
100
AcDbLine
10
-55.4
20
521.113
11
-56.634
21
521.113
0
LINE
5
1EE
100
AcDbEntity
8
0
6
ByLayer
62
256
370
-1
100
AcDbLine
10
-56.634
20
521.113
11
-56.634
21
522.388
0
LINE
5
1EF
100
AcDbEntity
8
0
6
ByLayer
62
256
370
-1
100
AcDbLine
10
-56.634
20
522.388
11
-59.034
21
522.388
0
LINE
5
1F0
100
AcDbEntity
8
0
6
ByLayer
62
256
370
-1
100
AcDbLine
10
-59.034
20
522.388
11
-59.034
21
521.113
0
LINE
5
1F1
100
AcDbEntity
8
0
6
ByLayer
62
256
370
-1
100
AcDbLine
10
-59.034
20
521.113
11
-65
21
521.113
0
LINE
5
1F2
100
AcDbEntity
8
0
6
ByLayer
62
256
370
-1
100
AcDbLine
10
-65
20
521.113
11
-65
21
539.394
0
LINE
5
1F3
100
AcDbEntity
8
0
6
ByLayer
62
256
370
-1
100
AcDbLine
10
-65
20
539.394
11
-67.9
21
539.394
0
LINE
5
1F4
100
AcDbEntity
8
0
6
ByLayer
62
256
370
-1
100
AcDbLine
10
-67.9
20
539.394
11
-67.9
21
554.394
0
LINE
5
1F5
100
AcDbEntity
8
0
6
ByLayer
62
256
370
-1
100
AcDbLine
10
-67.9
20
554.394
11
-65
21
554.394
0
LINE
5
1F6
100
AcDbEntity
8
0
6
ByLayer
62
256
370
-1
100
AcDbLine
10
-65
20
554.394
11
-65
21
577.05
0
LINE
5
1F7
100
AcDbEntity
8
0
6
ByLayer
62
256
370
-1
100
AcDbLine
10
-65
20
577.05
11
-50.834
21
577.05
0
LINE
5
1F8
100
AcDbEntity
8
0
6
ByLayer
62
256
370
-1
100
AcDbLine
10
-50.834
20
577.05
11
-50.834
21
574.15
0
LINE
5
1F9
100
AcDbEntity
8
0
6
ByLayer
62
256
370
-1
100
AcDbLine
10
-50.834
20
574.15
11
-35.834
21
574.15
0
LINE
5
1FA
100
AcDbEntity
8
0
6
ByLayer
62
256
370
-1
100
AcDbLine
10
-35.834
20
574.15
11
-35.834
21
577.05
0
LINE
5
1FB
100
AcDbEntity
8
0
6
ByLayer
62
256
370
-1
100
AcDbLine
10
-35.834
20
577.05
11
-7.5
21
577.05
0
LINE
5
1FC
100
AcDbEntity
8
0
6
ByLayer
62
256
370
-1
100
AcDbLine
10
-7.5
20
577.05
11
-7.5
21
574.15
0
LINE
5
1FD
100
AcDbEntity
8
0
6
ByLayer
62
256
370
-1
100
AcDbLine
10
-7.5
20
574.15
11
7.5
21
574.15
0
LINE
5
1FE
100
AcDbEntity
8
0
6
ByLayer
62
256
370
-1
100
AcDbLine
10
7.5
20
574.15
11
7.5
21
577.05
0
LINE
5
1FF
100
AcDbEntity
8
0
6
ByLayer
62
256
370
-1
100
AcDbLine
10
7.5
20
577.05
11
35.833
21
577.05
0
LINE
5
200
100
AcDbEntity
8
0
6
ByLayer
62
256
370
-1
100
AcDbLine
10
35.833
20
577.05
11
35.833
21
574.15
0
LINE
5
201
100
AcDbEntity
8
0
6
ByLayer
62
256
370
-1
100
AcDbLine
10
35.833
20
574.15
11
50.833
21
574.15
0
LINE
5
202
100
AcDbEntity
8
0
6
ByLayer
62
256
370
-1
100
AcDbLine
10
50.833
20
574.15
11
50.833
21
577.05
0
LINE
5
203
100
AcDbEntity
8
0
6
ByLayer
62
256
370
-1
100
AcDbLine
10
50.833
20
577.05
11
65
21
577.05
0
LINE
5
204
100
AcDbEntity
8
0
6
ByLayer
62
256
370
-1
100
AcDbLine
10
65
20
577.05
11
65
21
554.394
0
LINE
5
205
100
AcDbEntity
8
0
6
ByLayer
62
256
370
-1
100
AcDbLine
10
65
20
554.394
11
67.9
21
554.394
0
LINE
5
206
100
AcDbEntity
8
0
6
ByLayer
62
256
370
-1
100
AcDbLine
10
67.9
20
554.394
11
67.9
21
539.394
0
LINE
5
207
100
AcDbEntity
8
0
6
ByLayer
62
256
370
-1
100
AcDbLine
10
67.9
20
539.394
11
65
21
539.394
0
LINE
5
208
100
AcDbEntity
8
0
6
ByLayer
62
256
370
-1
100
AcDbLine
10
65
20
539.394
11
65
21
521.113
0
LINE
5
209
100
AcDbEntity
8
0
6
ByLayer
62
256
370
-1
100
AcDbLine
10
65
20
521.113
11
59.033
21
521.113
0
LINE
5
20A
100
AcDbEntity
8
0
6
ByLayer
62
256
370
-1
100
AcDbLine
10
59.033
20
521.113
11
59.033
21
522.388
0
LINE
5
20B
100
AcDbEntity
8
0
6
ByLayer
62
256
370
-1
100
AcDbLine
10
59.033
20
522.388
11
56.633
21
522.388
0
LINE
5
20C
100
AcDbEntity
8
0
6
ByLayer
62
256
370
-1
100
AcDbLine
10
56.633
20
522.388
11
56.633
21
521.113
0
LINE
5
20D
100
AcDbEntity
8
0
6
ByLayer
62
256
370
-1
100
AcDbLine
10
56.633
20
521.113
11
55.4
21
521.113
0
LINE
5
20E
100
AcDbEntity
8
0
6
ByLayer
62
256
370
-1
100
AcDbLine
10
55.4
20
521.113
11
55.4
21
518.163
0
LINE
5
20F
100
AcDbEntity
8
0
6
ByLayer
62
256
370
-1
100
AcDbLine
10
55.4
20
518.163
11
56.633
21
518.163
0
LINE
5
210
100
AcDbEntity
8
0
6
ByLayer
62
256
370
-1
100
AcDbLine
10
56.633
20
518.163
11
56.633
21
516.888
0
LINE
5
211
100
AcDbEntity
8
0
6
ByLayer
62
256
370
-1
100
AcDbLine
10
56.633
20
516.888
11
59.033
21
516.888
0
LINE
5
212
100
AcDbEntity
8
0
6
ByLayer
62
256
370
-1
100
AcDbLine
10
59.033
20
516.888
11
59.033
21
518.163
0
LINE
5
213
100
AcDbEntity
8
0
6
ByLayer
62
256
370
-1
100
AcDbLine
10
59.033
20
518.163
11
65
21
518.163
0
LINE
5
214
100
AcDbEntity
8
0
6
ByLayer
62
256
370
-1
100
AcDbLine
10
65
20
518.163
11
65
21
499.883
0
LINE
5
215
100
AcDbEntity
8
0
6
ByLayer
62
256
370
-1
100
AcDbLine
10
65
20
499.883
11
67.9
21
499.883
0
LINE
5
216
100
AcDbEntity
8
0
6
ByLayer
62
256
370
-1
100
AcDbLine
10
67.9
20
499.883
11
67.9
21
484.883
0
LINE
5
217
100
AcDbEntity
8
0
6
ByLayer
62
256
370
-1
100
AcDbLine
10
67.9
20
484.883
11
65
21
484.883
0
LINE
5
218
100
AcDbEntity
8
0
6
ByLayer
62
256
370
-1
100
AcDbLine
10
65
20
484.883
11
65
21
445.372
0
LINE
5
219
100
AcDbEntity
8
0
6
ByLayer
62
256
370
-1
100
AcDbLine
10
65
20
445.372
11
67.9
21
445.372
0
LINE
5
21A
100
AcDbEntity
8
0
6
ByLayer
62
256
370
-1
100
AcDbLine
10
67.9
20
445.372
11
67.9
21
430.372
0
LINE
5
21B
100
AcDbEntity
8
0
6
ByLayer
62
256
370
-1
100
AcDbLine
10
67.9
20
430.372
11
65
21
430.372
0
LINE
5
21C
100
AcDbEntity
8
0
6
ByLayer
62
256
370
-1
100
AcDbLine
10
65
20
430.372
11
65
21
390.861
0
LINE
5
21D
100
AcDbEntity
8
0
6
ByLayer
62
256
370
-1
100
AcDbLine
10
65
20
390.861
11
67.9
21
390.861
0
LINE
5
21E
100
AcDbEntity
8
0
6
ByLayer
62
256
370
-1
100
AcDbLine
10
67.9
20
390.861
11
67.9
21
375.861
0
LINE
5
21F
100
AcDbEntity
8
0
6
ByLayer
62
256
370
-1
100
AcDbLine
10
67.9
20
375.861
11
65
21
375.861
0
LINE
5
220
100
AcDbEntity
8
0
6
ByLayer
62
256
370
-1
100
AcDbLine
10
65
20
375.861
11
65
21
336.35
0
LINE
5
221
100
AcDbEntity
8
0
6
ByLayer
62
256
370
-1
100
AcDbLine
10
65
20
336.35
11
67.9
21
336.35
0
LINE
5
222
100
AcDbEntity
8
0
6
ByLayer
62
256
370
-1
100
AcDbLine
10
67.9
20
336.35
11
67.9
21
321.35
0
LINE
5
223
100
AcDbEntity
8
0
6
ByLayer
62
256
370
-1
100
AcDbLine
10
67.9
20
321.35
11
65
21
321.35
0
LINE
5
224
100
AcDbEntity
8
0
6
ByLayer
62
256
370
-1
100
AcDbLine
10
65
20
321.35
11
65
21
303.069
0
LINE
5
225
100
AcDbEntity
8
0
6
ByLayer
62
256
370
-1
100
AcDbLine
10
65
20
303.069
11
59.033
21
303.069
0
LINE
5
226
100
AcDbEntity
8
0
6
ByLayer
62
256
370
-1
100
AcDbLine
10
59.033
20
303.069
11
59.033
21
304.344
0
LINE
5
227
100
AcDbEntity
8
0
6
ByLayer
62
256
370
-1
100
AcDbLine
10
59.033
20
304.344
11
56.633
21
304.344
0
LINE
5
228
100
AcDbEntity
8
0
6
ByLayer
62
256
370
-1
100
AcDbLine
10
56.633
20
304.344
11
56.633
21
303.069
0
LINE
5
229
100
AcDbEntity
8
0
6
ByLayer
62
256
370
-1
100
AcDbLine
10
56.633
20
303.069
11
55.4
21
303.069
0
LINE
5
22A
100
AcDbEntity
8
0
6
ByLayer
62
256
370
-1
100
AcDbLine
10
55.4
20
303.069
11
55.4
21
300.119
0
LINE
5
22B
100
AcDbEntity
8
0
6
ByLayer
62
256
370
-1
100
AcDbLine
10
55.4
20
300.119
11
56.633
21
300.119
0
LINE
5
22C
100
AcDbEntity
8
0
6
ByLayer
62
256
370
-1
100
AcDbLine
10
56.633
20
300.119
11
56.633
21
298.844
0
LINE
5
22D
100
AcDbEntity
8
0
6
ByLayer
62
256
370
-1
100
AcDbLine
10
56.633
20
298.844
11
59.033
21
298.844
0
LINE
5
22E
100
AcDbEntity
8
0
6
ByLayer
62
256
370
-1
100
AcDbLine
10
59.033
20
298.844
11
59.033
21
300.119
0
LINE
5
22F
100
AcDbEntity
8
0
6
ByLayer
62
256
370
-1
100
AcDbLine
10
59.033
20
300.119
11
65
21
300.119
0
LINE
5
230
100
AcDbEntity
8
0
6
ByLayer
62
256
370
-1
100
AcDbLine
10
65
20
300.119
11
65
21
281.838
0
LINE
5
231
100
AcDbEntity
8
0
6
ByLayer
62
256
370
-1
100
AcDbLine
10
65
20
281.838
11
67.9
21
281.838
0
LINE
5
232
100
AcDbEntity
8
0
6
ByLayer
62
256
370
-1
100
AcDbLine
10
67.9
20
281.838
11
67.9
21
266.838
0
LINE
5
233
100
AcDbEntity
8
0
6
ByLayer
62
256
370
-1
100
AcDbLine
10
67.9
20
266.838
11
65
21
266.838
0
LINE
5
234
100
AcDbEntity
8
0
6
ByLayer
62
256
370
-1
100
AcDbLine
10
65
20
266.838
11
65
21
227.327
0
LINE
5
235
100
AcDbEntity
8
0
6
ByLayer
62
256
370
-1
100
AcDbLine
10
65
20
227.327
11
67.9
21
227.327
0
LINE
5
236
100
AcDbEntity
8
0
6
ByLayer
62
256
370
-1
100
AcDbLine
10
67.9
20
227.327
11
67.9
21
212.327
0
LINE
5
237
100
AcDbEntity
8
0
6
ByLayer
62
256
370
-1
100
AcDbLine
10
67.9
20
212.327
11
65
21
212.327
0
LINE
5
238
100
AcDbEntity
8
0
6
ByLayer
62
256
370
-1
100
AcDbLine
10
65
20
212.327
11
65
21
172.816
0
LINE
5
239
100
AcDbEntity
8
0
6
ByLayer
62
256
370
-1
100
AcDbLine
10
65
20
172.816
11
67.9
21
172.816
0
LINE
5
23A
100
AcDbEntity
8
0
6
ByLayer
62
256
370
-1
100
AcDbLine
10
67.9
20
172.816
11
67.9
21
157.816
0
LINE
5
23B
100
AcDbEntity
8
0
6
ByLayer
62
256
370
-1
100
AcDbLine
10
67.9
20
157.816
11
65
21
157.816
0
LINE
5
23C
100
AcDbEntity
8
0
6
ByLayer
62
256
370
-1
100
AcDbLine
10
65
20
157.816
11
65
21
139.536
0
LINE
5
23D
100
AcDbEntity
8
0
6
ByLayer
62
256
370
-1
100
AcDbLine
10
65
20
139.536
11
59.033
21
139.536
0
LINE
5
23E
100
AcDbEntity
8
0
6
ByLayer
62
256
370
-1
100
AcDbLine
10
59.033
20
139.536
11
59.033
21
140.811
0
LINE
5
23F
100
AcDbEntity
8
0
6
ByLayer
62
256
370
-1
100
AcDbLine
10
59.033
20
140.811
11
56.633
21
140.811
0
LINE
5
240
100
AcDbEntity
8
0
6
ByLayer
62
256
370
-1
100
AcDbLine
10
56.633
20
140.811
11
56.633
21
139.536
0
LINE
5
241
100
AcDbEntity
8
0
6
ByLayer
62
256
370
-1
100
AcDbLine
10
56.633
20
139.536
11
55.4
21
139.536
0
LINE
5
242
100
AcDbEntity
8
0
6
ByLayer
62
256
370
-1
100
AcDbLine
10
55.4
20
139.536
11
55.4
21
136.586
0
LINE
5
243
100
AcDbEntity
8
0
6
ByLayer
62
256
370
-1
100
AcDbLine
10
55.4
20
136.586
11
56.633
21
136.586
0
LINE
5
244
100
AcDbEntity
8
0
6
ByLayer
62
256
370
-1
100
AcDbLine
10
56.633
20
136.586
11
56.633
21
135.311
0
LINE
5
245
100
AcDbEntity
8
0
6
ByLayer
62
256
370
-1
100
AcDbLine
10
56.633
20
135.311
11
59.033
21
135.311
0
LINE
5
246
100
AcDbEntity
8
0
6
ByLayer
62
256
370
-1
100
AcDbLine
10
59.033
20
135.311
11
59.033
21
136.586
0
LINE
5
247
100
AcDbEntity
8
0
6
ByLayer
62
256
370
-1
100
AcDbLine
10
59.033
20
136.586
11
65
21
136.586
0
LINE
5
248
100
AcDbEntity
8
0
6
ByLayer
62
256
370
-1
100
AcDbLine
10
65
20
136.586
11
65
21
118.305
0
LINE
5
249
100
AcDbEntity
8
0
6
ByLayer
62
256
370
-1
100
AcDbLine
10
65
20
118.305
11
67.9
21
118.305
0
LINE
5
24A
100
AcDbEntity
8
0
6
ByLayer
62
256
370
-1
100
AcDbLine
10
67.9
20
118.305
11
67.9
21
103.305
0
LINE
5
24B
100
AcDbEntity
8
0
6
ByLayer
62
256
370
-1
100
AcDbLine
10
67.9
20
103.305
11
65
21
103.305
0
LINE
5
24C
100
AcDbEntity
8
0
6
ByLayer
62
256
370
-1
100
AcDbLine
10
65
20
103.305
11
65
21
80.65
0
LINE
5
24D
100
AcDbEntity
8
0
6
ByLayer
62
256
370
-1
100
AcDbLine
10
65
20
80.65
11
50.833
21
80.65
0
LINE
5
24E
100
AcDbEntity
8
0
6
ByLayer
62
256
370
-1
100
AcDbLine
10
50.833
20
80.65
11
50.833
21
83.55
0
LINE
5
24F
100
AcDbEntity
8
0
6
ByLayer
62
256
370
-1
100
AcDbLine
10
50.833
20
83.55
11
35.833
21
83.55
0
LINE
5
250
100
AcDbEntity
8
0
6
ByLayer
62
256
370
-1
100
AcDbLine
10
35.833
20
83.55
11
35.833
21
80.65
0
LINE
5
251
100
AcDbEntity
8
0
6
ByLayer
62
256
370
-1
100
AcDbLine
10
35.833
20
80.65
11
7.5
21
80.65
0
LINE
5
252
100
AcDbEntity
8
0
6
ByLayer
62
256
370
-1
100
AcDbLine
10
7.5
20
80.65
11
7.5
21
83.55
0
LINE
5
253
100
AcDbEntity
8
0
6
ByLayer
62
256
370
-1
100
AcDbLine
10
7.5
20
83.55
11
-7.5
21
83.55
0
LINE
5
254
100
AcDbEntity
8
0
6
ByLayer
62
256
370
-1
100
AcDbLine
10
-7.5
20
83.55
11
-7.5
21
80.65
0
LINE
5
255
100
AcDbEntity
8
0
6
ByLayer
62
256
370
-1
100
AcDbLine
10
-7.5
20
80.65
11
-35.834
21
80.65
0
LINE
5
256
100
AcDbEntity
8
0
6
ByLayer
62
256
370
-1
100
AcDbLine
10
-35.834
20
80.65
11
-35.834
21
83.55
0
LINE
5
257
100
AcDbEntity
8
0
6
ByLayer
62
256
370
-1
100
AcDbLine
10
-35.834
20
83.55
11
-50.834
21
83.55
0
LINE
5
258
100
AcDbEntity
8
0
6
ByLayer
62
256
370
-1
100
AcDbLine
10
-50.834
20
83.55
11
-50.834
21
80.65
0
LINE
5
259
100
AcDbEntity
8
0
6
ByLayer
62
256
370
-1
100
AcDbLine
10
-50.834
20
80.65
11
-65
21
80.65
0
LINE
5
25A
100
AcDbEntity
8
0
6
ByLayer
62
256
370
-1
100
AcDbLine
10
-65
20
80.65
11
-65
21
103.305
0
LINE
5
25B
100
AcDbEntity
8
0
6
ByLayer
62
256
370
-1
100
AcDbLine
10
-65
20
103.305
11
-67.9
21
103.305
0
LINE
5
25C
100
AcDbEntity
8
0
6
ByLayer
62
256
370
-1
100
AcDbLine
10
22.86
20
574.008
11
22.742
21
573.865
0
LINE
5
25D
100
AcDbEntity
8
0
6
ByLayer
62
256
370
-1
100
AcDbLine
10
22.742
20
573.865
11
22.607
21
573.738
0
LINE
5
25E
100
AcDbEntity
8
0
6
ByLayer
62
256
370
-1
100
AcDbLine
10
22.607
20
573.738
11
22.457
21
573.63
0
LINE
5
25F
100
AcDbEntity
8
0
6
ByLayer
62
256
370
-1
100
AcDbLine
10
22.295
20
573.54
11
22.123
21
573.472
0
LINE
5
260
100
AcDbEntity
8
0
6
ByLayer
62
256
370
-1
100
AcDbLine
10
21.943
20
573.426
11
21.76
21
573.403
0
LINE
5
261
100
AcDbEntity
8
0
6
ByLayer
62
256
370
-1
100
AcDbLine
10
21.574
20
573.403
11
21.391
21
573.426
0
LINE
5
262
100
AcDbEntity
8
0
6
ByLayer
62
256
370
-1
100
AcDbLine
10
69.9
20
-78.65
11
69.9
21
-58
0
LINE
5
263
100
AcDbEntity
8
0
6
ByLayer
62
256
370
-1
100
AcDbLine
10
69.9
20
-58
11
72.8
21
-58
0
LINE
5
264
100
AcDbEntity
8
0
6
ByLayer
62
256
370
-1
100
AcDbLine
10
72.8
20
-58
11
72.8
21
-43
0
LINE
5
265
100
AcDbEntity
8
0
6
ByLayer
62
256
370
-1
100
AcDbLine
10
72.8
20
-43
11
69.9
21
-43
0
LINE
5
266
100
AcDbEntity
8
0
6
ByLayer
62
256
370
-1
100
AcDbLine
10
69.9
20
-43
11
69.9
21
-7.5
0
LINE
5
267
100
AcDbEntity
8
0
6
ByLayer
62
256
370
-1
100
AcDbLine
10
69.9
20
-7.5
11
72.8
21
-7.5
0
LINE
5
268
100
AcDbEntity
8
0
6
ByLayer
62
256
370
-1
100
AcDbLine
10
72.8
20
-7.5
11
72.8
21
7.5
0
LINE
5
269
100
AcDbEntity
8
0
6
ByLayer
62
256
370
-1
100
AcDbLine
10
72.8
20
7.5
11
69.9
21
7.5
0
LINE
5
26A
100
AcDbEntity
8
0
6
ByLayer
62
256
370
-1
100
AcDbLine
10
69.9
20
7.5
11
69.9
21
43
0
LINE
5
26B
100
AcDbEntity
8
0
6
ByLayer
62
256
370
-1
100
AcDbLine
10
69.9
20
43
11
72.8
21
43
0
LINE
5
26C
100
AcDbEntity
8
0
6
ByLayer
62
256
370
-1
100
AcDbLine
10
72.8
20
43
11
72.8
21
58
0
LINE
5
26D
100
AcDbEntity
8
0
6
ByLayer
62
256
370
-1
100
AcDbLine
10
72.8
20
58
11
69.9
21
58
0
LINE
5
26E
100
AcDbEntity
8
0
6
ByLayer
62
256
370
-1
100
AcDbLine
10
69.9
20
58
11
69.9
21
78.65
0
LINE
5
26F
100
AcDbEntity
8
0
6
ByLayer
62
256
370
-1
100
AcDbLine
10
69.9
20
78.65
11
92.555
21
78.65
0
LINE
5
270
100
AcDbEntity
8
0
6
ByLayer
62
256
370
-1
100
AcDbLine
10
92.555
20
78.65
11
92.555
21
75.75
0
LINE
5
271
100
AcDbEntity
8
0
6
ByLayer
62
256
370
-1
100
AcDbLine
10
92.555
20
75.75
11
107.555
21
75.75
0
LINE
5
272
100
AcDbEntity
8
0
6
ByLayer
62
256
370
-1
100
AcDbLine
10
107.555
20
75.75
11
107.555
21
78.65
0
LINE
5
273
100
AcDbEntity
8
0
6
ByLayer
62
256
370
-1
100
AcDbLine
10
107.555
20
78.65
11
147.066
21
78.65
0
LINE
5
274
100
AcDbEntity
8
0
6
ByLayer
62
256
370
-1
100
AcDbLine
10
147.066
20
78.65
11
147.066
21
75.75
0
LINE
5
275
100
AcDbEntity
8
0
6
ByLayer
62
256
370
-1
100
AcDbLine
10
147.066
20
75.75
11
162.066
21
75.75
0
LINE
5
276
100
AcDbEntity
8
0
6
ByLayer
62
256
370
-1
100
AcDbLine
10
162.066
20
75.75
11
162.066
21
78.65
0
LINE
5
277
100
AcDbEntity
8
0
6
ByLayer
62
256
370
-1
100
AcDbLine
10
162.066
20
78.65
11
201.577
21
78.65
0
LINE
5
278
100
AcDbEntity
8
0
6
ByLayer
62
256
370
-1
100
AcDbLine
10
201.577
20
78.65
11
201.577
21
75.75
0
LINE
5
279
100
AcDbEntity
8
0
6
ByLayer
62
256
370
-1
100
AcDbLine
10
201.577
20
75.75
11
216.577
21
75.75
0
LINE
5
27A
100
AcDbEntity
8
0
6
ByLayer
62
256
370
-1
100
AcDbLine
10
216.577
20
75.75
11
216.577
21
78.65
0
LINE
5
27B
100
AcDbEntity
8
0
6
ByLayer
62
256
370
-1
100
AcDbLine
10
216.577
20
78.65
11
256.088
21
78.65
0
LINE
5
27C
100
AcDbEntity
8
0
6
ByLayer
62
256
370
-1
100
AcDbLine
10
256.088
20
78.65
11
256.088
21
75.75
0
LINE
5
27D
100
AcDbEntity
8
0
6
ByLayer
62
256
370
-1
100
AcDbLine
10
256.088
20
75.75
11
271.088
21
75.75
0
LINE
5
27E
100
AcDbEntity
8
0
6
ByLayer
62
256
370
-1
100
AcDbLine
10
271.088
20
75.75
11
271.088
21
78.65
0
LINE
5
27F
100
AcDbEntity
8
0
6
ByLayer
62
256
370
-1
100
AcDbLine
10
271.088
20
78.65
11
310.6
21
78.65
0
LINE
5
280
100
AcDbEntity
8
0
6
ByLayer
62
256
370
-1
100
AcDbLine
10
310.6
20
78.65
11
310.6
21
75.75
0
LINE
5
281
100
AcDbEntity
8
0
6
ByLayer
62
256
370
-1
100
AcDbLine
10
310.6
20
75.75
11
325.6
21
75.75
0
LINE
5
282
100
AcDbEntity
8
0
6
ByLayer
62
256
370
-1
100
AcDbLine
10
325.6
20
75.75
11
325.6
21
78.65
0
LINE
5
283
100
AcDbEntity
8
0
6
ByLayer
62
256
370
-1
100
AcDbLine
10
325.6
20
78.65
11
365.111
21
78.65
0
LINE
5
284
100
AcDbEntity
8
0
6
ByLayer
62
256
370
-1
100
AcDbLine
10
365.111
20
78.65
11
365.111
21
75.75
0
LINE
5
285
100
AcDbEntity
8
0
6
ByLayer
62
256
370
-1
100
AcDbLine
10
365.111
20
75.75
11
380.111
21
75.75
0
LINE
5
286
100
AcDbEntity
8
0
6
ByLayer
62
256
370
-1
100
AcDbLine
10
380.111
20
75.75
11
380.111
21
78.65
0
LINE
5
287
100
AcDbEntity
8
0
6
ByLayer
62
256
370
-1
100
AcDbLine
10
380.111
20
78.65
11
419.622
21
78.65
0
LINE
5
288
100
AcDbEntity
8
0
6
ByLayer
62
256
370
-1
100
AcDbLine
10
419.622
20
78.65
11
419.622
21
75.75
0
LINE
5
289
100
AcDbEntity
8
0
6
ByLayer
62
256
370
-1
100
AcDbLine
10
419.622
20
75.75
11
434.622
21
75.75
0
LINE
5
28A
100
AcDbEntity
8
0
6
ByLayer
62
256
370
-1
100
AcDbLine
10
434.622
20
75.75
11
434.622
21
78.65
0
LINE
5
28B
100
AcDbEntity
8
0
6
ByLayer
62
256
370
-1
100
AcDbLine
10
434.622
20
78.65
11
474.133
21
78.65
0
LINE
5
28C
100
AcDbEntity
8
0
6
ByLayer
62
256
370
-1
100
AcDbLine
10
474.133
20
78.65
11
474.133
21
75.75
0
LINE
5
28D
100
AcDbEntity
8
0
6
ByLayer
62
256
370
-1
100
AcDbLine
10
474.133
20
75.75
11
489.133
21
75.75
0
LINE
5
28E
100
AcDbEntity
8
0
6
ByLayer
62
256
370
-1
100
AcDbLine
10
489.133
20
75.75
11
489.133
21
78.65
0
LINE
5
28F
100
AcDbEntity
8
0
6
ByLayer
62
256
370
-1
100
AcDbLine
10
489.133
20
78.65
11
528.644
21
78.65
0
LINE
5
290
100
AcDbEntity
8
0
6
ByLayer
62
256
370
-1
100
AcDbLine
10
528.644
20
78.65
11
528.644
21
75.75
0
LINE
5
291
100
AcDbEntity
8
0
6
ByLayer
62
256
370
-1
100
AcDbLine
10
528.644
20
75.75
11
543.644
21
75.75
0
LINE
5
292
100
AcDbEntity
8
0
6
ByLayer
62
256
370
-1
100
AcDbLine
10
543.644
20
75.75
11
543.644
21
78.65
0
LINE
5
293
100
AcDbEntity
8
0
6
ByLayer
62
256
370
-1
100
AcDbLine
10
543.644
20
78.65
11
566.3
21
78.65
0
LINE
5
294
100
AcDbEntity
8
0
6
ByLayer
62
256
370
-1
100
AcDbLine
10
566.3
20
78.65
11
566.3
21
58
0
LINE
5
295
100
AcDbEntity
8
0
6
ByLayer
62
256
370
-1
100
AcDbLine
10
566.3
20
58
11
563.4
21
58
0
LINE
5
296
100
AcDbEntity
8
0
6
ByLayer
62
256
370
-1
100
AcDbLine
10
563.4
20
58
11
563.4
21
43
0
LINE
5
297
100
AcDbEntity
8
0
6
ByLayer
62
256
370
-1
100
AcDbLine
10
563.4
20
43
11
566.3
21
43
0
LINE
5
298
100
AcDbEntity
8
0
6
ByLayer
62
256
370
-1
100
AcDbLine
10
566.3
20
43
11
566.3
21
7.5
0
LINE
5
299
100
AcDbEntity
8
0
6
ByLayer
62
256
370
-1
100
AcDbLine
10
566.3
20
7.5
11
563.4
21
7.5
0
LINE
5
29A
100
AcDbEntity
8
0
6
ByLayer
62
256
370
-1
100
AcDbLine
10
563.4
20
7.5
11
563.4
21
-7.5
0
LINE
5
29B
100
AcDbEntity
8
0
6
ByLayer
62
256
370
-1
100
AcDbLine
10
563.4
20
-7.5
11
566.3
21
-7.5
0
LINE
5
29C
100
AcDbEntity
8
0
6
ByLayer
62
256
370
-1
100
AcDbLine
10
566.3
20
-7.5
11
566.3
21
-43
0
LINE
5
29D
100
AcDbEntity
8
0
6
ByLayer
62
256
370
-1
100
AcDbLine
10
566.3
20
-43
11
563.4
21
-43
0
LINE
5
29E
100
AcDbEntity
8
0
6
ByLayer
62
256
370
-1
100
AcDbLine
10
563.4
20
-43
11
563.4
21
-58
0
LINE
5
29F
100
AcDbEntity
8
0
6
ByLayer
62
256
370
-1
100
AcDbLine
10
563.4
20
-58
11
566.3
21
-58
0
LINE
5
2A0
100
AcDbEntity
8
0
6
ByLayer
62
256
370
-1
100
AcDbLine
10
566.3
20
-58
11
566.3
21
-78.65
0
LINE
5
2A1
100
AcDbEntity
8
0
6
ByLayer
62
256
370
-1
100
AcDbLine
10
566.3
20
-78.65
11
543.644
21
-78.65
0
LINE
5
2A2
100
AcDbEntity
8
0
6
ByLayer
62
256
370
-1
100
AcDbLine
10
543.644
20
-78.65
11
543.644
21
-75.75
0
LINE
5
2A3
100
AcDbEntity
8
0
6
ByLayer
62
256
370
-1
100
AcDbLine
10
543.644
20
-75.75
11
528.644
21
-75.75
0
LINE
5
2A4
100
AcDbEntity
8
0
6
ByLayer
62
256
370
-1
100
AcDbLine
10
528.644
20
-75.75
11
528.644
21
-78.65
0
LINE
5
2A5
100
AcDbEntity
8
0
6
ByLayer
62
256
370
-1
100
AcDbLine
10
528.644
20
-78.65
11
489.133
21
-78.65
0
LINE
5
2A6
100
AcDbEntity
8
0
6
ByLayer
62
256
370
-1
100
AcDbLine
10
489.133
20
-78.65
11
489.133
21
-75.75
0
LINE
5
2A7
100
AcDbEntity
8
0
6
ByLayer
62
256
370
-1
100
AcDbLine
10
489.133
20
-75.75
11
474.133
21
-75.75
0
LINE
5
2A8
100
AcDbEntity
8
0
6
ByLayer
62
256
370
-1
100
AcDbLine
10
474.133
20
-75.75
11
474.133
21
-78.65
0
LINE
5
2A9
100
AcDbEntity
8
0
6
ByLayer
62
256
370
-1
100
AcDbLine
10
474.133
20
-78.65
11
434.622
21
-78.65
0
LINE
5
2AA
100
AcDbEntity
8
0
6
ByLayer
62
256
370
-1
100
AcDbLine
10
434.622
20
-78.65
11
434.622
21
-75.75
0
LINE
5
2AB
100
AcDbEntity
8
0
6
ByLayer
62
256
370
-1
100
AcDbLine
10
434.622
20
-75.75
11
419.622
21
-75.75
0
LINE
5
2AC
100
AcDbEntity
8
0
6
ByLayer
62
256
370
-1
100
AcDbLine
10
419.622
20
-75.75
11
419.622
21
-78.65
0
LINE
5
2AD
100
AcDbEntity
8
0
6
ByLayer
62
256
370
-1
100
AcDbLine
10
419.622
20
-78.65
11
380.111
21
-78.65
0
LINE
5
2AE
100
AcDbEntity
8
0
6
ByLayer
62
256
370
-1
100
AcDbLine
10
380.111
20
-78.65
11
380.111
21
-75.75
0
LINE
5
2AF
100
AcDbEntity
8
0
6
ByLayer
62
256
370
-1
100
AcDbLine
10
380.111
20
-75.75
11
365.111
21
-75.75
0
LINE
5
2B0
100
AcDbEntity
8
0
6
ByLayer
62
256
370
-1
100
AcDbLine
10
365.111
20
-75.75
11
365.111
21
-78.65
0
LINE
5
2B1
100
AcDbEntity
8
0
6
ByLayer
62
256
370
-1
100
AcDbLine
10
365.111
20
-78.65
11
325.6
21
-78.65
0
LINE
5
2B2
100
AcDbEntity
8
0
6
ByLayer
62
256
370
-1
100
AcDbLine
10
325.6
20
-78.65
11
325.6
21
-75.75
0
LINE
5
2B3
100
AcDbEntity
8
0
6
ByLayer
62
256
370
-1
100
AcDbLine
10
325.6
20
-75.75
11
310.6
21
-75.75
0
LINE
5
2B4
100
AcDbEntity
8
0
6
ByLayer
62
256
370
-1
100
AcDbLine
10
310.6
20
-75.75
11
310.6
21
-78.65
0
LINE
5
2B5
100
AcDbEntity
8
0
6
ByLayer
62
256
370
-1
100
AcDbLine
10
310.6
20
-78.65
11
271.088
21
-78.65
0
LINE
5
2B6
100
AcDbEntity
8
0
6
ByLayer
62
256
370
-1
100
AcDbLine
10
271.088
20
-78.65
11
271.088
21
-75.75
0
LINE
5
2B7
100
AcDbEntity
8
0
6
ByLayer
62
256
370
-1
100
AcDbLine
10
271.088
20
-75.75
11
256.088
21
-75.75
0
LINE
5
2B8
100
AcDbEntity
8
0
6
ByLayer
62
256
370
-1
100
AcDbLine
10
256.088
20
-75.75
11
256.088
21
-78.65
0
LINE
5
2B9
100
AcDbEntity
8
0
6
ByLayer
62
256
370
-1
100
AcDbLine
10
256.088
20
-78.65
11
216.577
21
-78.65
0
LINE
5
2BA
100
AcDbEntity
8
0
6
ByLayer
62
256
370
-1
100
AcDbLine
10
216.577
20
-78.65
11
216.577
21
-75.75
0
LINE
5
2BB
100
AcDbEntity
8
0
6
ByLayer
62
256
370
-1
100
AcDbLine
10
216.577
20
-75.75
11
201.577
21
-75.75
0
LINE
5
2BC
100
AcDbEntity
8
0
6
ByLayer
62
256
370
-1
100
AcDbLine
10
201.577
20
-75.75
11
201.577
21
-78.65
0
LINE
5
2BD
100
AcDbEntity
8
0
6
ByLayer
62
256
370
-1
100
AcDbLine
10
201.577
20
-78.65
11
162.066
21
-78.65
0
LINE
5
2BE
100
AcDbEntity
8
0
6
ByLayer
62
256
370
-1
100
AcDbLine
10
162.066
20
-78.65
11
162.066
21
-75.75
0
LINE
5
2BF
100
AcDbEntity
8
0
6
ByLayer
62
256
370
-1
100
AcDbLine
10
162.066
20
-75.75
11
147.066
21
-75.75
0
LINE
5
2C0
100
AcDbEntity
8
0
6
ByLayer
62
256
370
-1
100
AcDbLine
10
147.066
20
-75.75
11
147.066
21
-78.65
0
LINE
5
2C1
100
AcDbEntity
8
0
6
ByLayer
62
256
370
-1
100
AcDbLine
10
147.066
20
-78.65
11
107.555
21
-78.65
0
LINE
5
2C2
100
AcDbEntity
8
0
6
ByLayer
62
256
370
-1
100
AcDbLine
10
107.555
20
-78.65
11
107.555
21
-75.75
0
LINE
5
2C3
100
AcDbEntity
8
0
6
ByLayer
62
256
370
-1
100
AcDbLine
10
107.555
20
-75.75
11
92.555
21
-75.75
0
LINE
5
2C4
100
AcDbEntity
8
0
6
ByLayer
62
256
370
-1
100
AcDbLine
10
92.555
20
-75.75
11
92.555
21
-78.65
0
LINE
5
2C5
100
AcDbEntity
8
0
6
ByLayer
62
256
370
-1
100
AcDbLine
10
92.555
20
-78.65
11
69.9
21
-78.65
0
LINE
5
2C6
100
AcDbEntity
8
0
6
ByLayer
62
256
370
-1
100
AcDbLine
10
125.837
20
76.475
11
125.849
21
76.66
0
LINE
5
2C7
100
AcDbEntity
8
0
6
ByLayer
62
256
370
-1
100
AcDbLine
10
125.849
20
76.66
11
125.883
21
76.842
0
LINE
5
2C8
100
AcDbEntity
8
0
6
ByLayer
62
256
370
-1
100
AcDbLine
10
125.883
20
76.842
11
125.941
21
77.018
0
LINE
5
2C9
100
AcDbEntity
8
0
6
ByLayer
62
256
370
-1
100
AcDbLine
10
125.941
20
77.018
11
126.019
21
77.186
0
LINE
5
2CA
100
AcDbEntity
8
0
6
ByLayer
62
256
370
-1
100
AcDbLine
10
126.019
20
77.186
11
126.119
21
77.342
0
LINE
5
2CB
100
AcDbEntity
8
0
6
ByLayer
62
256
370
-1
100
AcDbLine
10
126.119
20
77.342
11
126.237
21
77.485
0
LINE
5
2CC
100
AcDbEntity
8
0
6
ByLayer
62
256
370
-1
100
AcDbLine
10
126.237
20
77.485
11
126.372
21
77.612
0
LINE
5
2CD
100
AcDbEntity
8
0
6
ByLayer
62
256
370
-1
100
AcDbLine
10
126.372
20
77.612
11
126.522
21
77.72
0
LINE
5
2CE
100
AcDbEntity
8
0
6
ByLayer
62
256
370
-1
100
AcDbLine
10
126.522
20
77.72
11
126.684
21
77.81
0
LINE
5
2CF
100
AcDbEntity
8
0
6
ByLayer
62
256
370
-1
100
AcDbLine
10
126.684
20
77.81
11
126.856
21
77.878
0
LINE
5
2D0
100
AcDbEntity
8
0
6
ByLayer
62
256
370
-1
100
AcDbLine
10
126.856
20
77.878
11
127.036
21
77.924
0
LINE
5
2D1
100
AcDbEntity
8
0
6
ByLayer
62
256
370
-1
100
AcDbLine
10
127.036
20
77.924
11
127.219
21
77.947
0
LINE
5
2D2
100
AcDbEntity
8
0
6
ByLayer
62
256
370
-1
100
AcDbLine
10
127.219
20
77.947
11
127.405
21
77.947
0
LINE
5
2D3
100
AcDbEntity
8
0
6
ByLayer
62
256
370
-1
100
AcDbLine
10
127.405
20
77.947
11
127.588
21
77.924
0
LINE
5
2D4
100
AcDbEntity
8
0
6
ByLayer
62
256
370
-1
100
AcDbLine
10
127.588
20
77.924
11
127.768
21
77.878
0
LINE
5
2D5
100
AcDbEntity
8
0
6
ByLayer
62
256
370
-1
100
AcDbLine
10
127.768
20
77.878
11
127.94
21
77.81
0
LINE
5
2D6
100
AcDbEntity
8
0
6
ByLayer
62
256
370
-1
100
AcDbLine
10
127.94
20
77.81
11
128.102
21
77.72
0
LINE
5
2D7
100
AcDbEntity
8
0
6
ByLayer
62
256
370
-1
100
AcDbLine
10
128.102
20
77.72
11
128.252
21
77.612
0
LINE
5
2D8
100
AcDbEntity
8
0
6
ByLayer
62
256
370
-1
100
AcDbLine
10
128.252
20
77.612
11
128.387
21
77.485
0
LINE
5
2D9
100
AcDbEntity
8
0
6
ByLayer
62
256
370
-1
100
AcDbLine
10
128.387
20
77.485
11
128.505
21
77.342
0
LINE
5
2DA
100
AcDbEntity
8
0
6
ByLayer
62
256
370
-1
100
AcDbLine
10
128.505
20
77.342
11
128.605
21
77.186
0
LINE
5
2DB
100
AcDbEntity
8
0
6
ByLayer
62
256
370
-1
100
AcDbLine
10
128.605
20
77.186
11
128.683
21
77.018
0
LINE
5
2DC
100
AcDbEntity
8
0
6
ByLayer
62
256
370
-1
100
AcDbLine
10
128.683
20
77.018
11
128.741
21
76.842
0
LINE
5
2DD
100
AcDbEntity
8
0
6
ByLayer
62
256
370
-1
100
AcDbLine
10
128.741
20
76.842
11
128.775
21
76.66
0
LINE
5
2DE
100
AcDbEntity
8
0
6
ByLayer
62
256
370
-1
100
AcDbLine
10
128.775
20
76.66
11
128.787
21
76.475
0
LINE
5
2DF
100
AcDbEntity
8
0
6
ByLayer
62
256
370
-1
100
AcDbLine
10
128.787
20
76.475
11
128.775
21
76.29
0
LINE
5
2E0
100
AcDbEntity
8
0
6
ByLayer
62
256
370
-1
100
AcDbLine
10
128.775
20
76.29
11
128.741
21
76.108
0
LINE
5
2E1
100
AcDbEntity
8
0
6
ByLayer
62
256
370
-1
100
AcDbLine
10
128.741
20
76.108
11
128.683
21
75.932
0
LINE
5
2E2
100
AcDbEntity
8
0
6
ByLayer
62
256
370
-1
100
AcDbLine
10
128.683
20
75.932
11
128.605
21
75.764
0
LINE
5
2E3
100
AcDbEntity
8
0
6
ByLayer
62
256
370
-1
100
AcDbLine
10
128.605
20
75.764
11
128.505
21
75.608
0
LINE
5
2E4
100
AcDbEntity
8
0
6
ByLayer
62
256
370
-1
100
AcDbLine
10
128.505
20
75.608
11
128.387
21
75.465
0
LINE
5
2E5
100
AcDbEntity
8
0
6
ByLayer
62
256
370
-1
100
AcDbLine
10
128.387
20
75.465
11
128.252
21
75.338
0
LINE
5
2E6
100
AcDbEntity
8
0
6
ByLayer
62
256
370
-1
100
AcDbLine
10
128.252
20
75.338
11
128.102
21
75.23
0
LINE
5
2E7
100
AcDbEntity
8
0
6
ByLayer
62
256
370
-1
100
AcDbLine
10
128.102
20
75.23
11
127.94
21
75.14
0
LINE
5
2E8
100
AcDbEntity
8
0
6
ByLayer
62
256
370
-1
100
AcDbLine
10
127.94
20
75.14
11
127.768
21
75.072
0
LINE
5
2E9
100
AcDbEntity
8
0
6
ByLayer
62
256
370
-1
100
AcDbLine
10
127.768
20
75.072
11
127.588
21
75.026
0
LINE
5
2EA
100
AcDbEntity
8
0
6
ByLayer
62
256
370
-1
100
AcDbLine
10
127.588
20
75.026
11
127.405
21
75.003
0
LINE
5
2EB
100
AcDbEntity
8
0
6
ByLayer
62
256
370
-1
100
AcDbLine
10
127.405
20
75.003
11
127.219
21
75.003
0
LINE
5
2EC
100
AcDbEntity
8
0
6
ByLayer
62
256
370
-1
100
AcDbLine
10
127.219
20
75.003
11
127.036
21
75.026
0
LINE
5
2ED
100
AcDbEntity
8
0
6
ByLayer
62
256
370
-1
100
AcDbLine
10
127.036
20
75.026
11
126.856
21
75.072
0
LINE
5
2EE
100
AcDbEntity
8
0
6
ByLayer
62
256
370
-1
100
AcDbLine
10
126.856
20
75.072
11
126.684
21
75.14
0
LINE
5
2EF
100
AcDbEntity
8
0
6
ByLayer
62
256
370
-1
100
AcDbLine
10
126.684
20
75.14
11
126.522
21
75.23
0
LINE
5
2F0
100
AcDbEntity
8
0
6
ByLayer
62
256
370
-1
100
AcDbLine
10
126.522
20
75.23
11
126.372
21
75.338
0
LINE
5
2F1
100
AcDbEntity
8
0
6
ByLayer
62
256
370
-1
100
AcDbLine
10
126.372
20
75.338
11
126.237
21
75.465
0
LINE
5
2F2
100
AcDbEntity
8
0
6
ByLayer
62
256
370
-1
100
AcDbLine
10
126.237
20
75.465
11
126.119
21
75.608
0
LINE
5
2F3
100
AcDbEntity
8
0
6
ByLayer
62
256
370
-1
100
AcDbLine
10
126.119
20
75.608
11
126.019
21
75.764
0
LINE
5
2F4
100
AcDbEntity
8
0
6
ByLayer
62
256
370
-1
100
AcDbLine
10
126.019
20
75.764
11
125.941
21
75.932
0
LINE
5
2F5
100
AcDbEntity
8
0
6
ByLayer
62
256
370
-1
100
AcDbLine
10
125.941
20
75.932
11
125.883
21
76.108
0
LINE
5
2F6
100
AcDbEntity
8
0
6
ByLayer
62
256
370
-1
100
AcDbLine
10
125.883
20
76.108
11
125.849
21
76.29
0
LINE
5
2F7
100
AcDbEntity
8
0
6
ByLayer
62
256
370
-1
100
AcDbLine
10
125.849
20
76.29
11
125.837
21
76.475
0
LINE
5
2F8
100
AcDbEntity
8
0
6
ByLayer
62
256
370
-1
100
AcDbLine
10
289.37
20
76.475
11
289.382
21
76.66
0
LINE
5
2F9
100
AcDbEntity
8
0
6
ByLayer
62
256
370
-1
100
AcDbLine
10
289.382
20
76.66
11
289.416
21
76.842
0
LINE
5
2FA
100
AcDbEntity
8
0
6
ByLayer
62
256
370
-1
100
AcDbLine
10
289.416
20
76.842
11
289.474
21
77.018
0
LINE
5
2FB
100
AcDbEntity
8
0
6
ByLayer
62
256
370
-1
100
AcDbLine
10
289.474
20
77.018
11
289.552
21
77.186
0
LINE
5
2FC
100
AcDbEntity
8
0
6
ByLayer
62
256
370
-1
100
AcDbLine
10
289.552
20
77.186
11
289.652
21
77.342
0
LINE
5
2FD
100
AcDbEntity
8
0
6
ByLayer
62
256
370
-1
100
AcDbLine
10
289.652
20
77.342
11
289.77
21
77.485
0
LINE
5
2FE
100
AcDbEntity
8
0
6
ByLayer
62
256
370
-1
100
AcDbLine
10
289.77
20
77.485
11
289.905
21
77.612
0
LINE
5
2FF
100
AcDbEntity
8
0
6
ByLayer
62
256
370
-1
100
AcDbLine
10
289.905
20
77.612
11
290.055
21
77.72
0
LINE
5
300
100
AcDbEntity
8
0
6
ByLayer
62
256
370
-1
100
AcDbLine
10
290.055
20
77.72
11
290.217
21
77.81
0
LINE
5
301
100
AcDbEntity
8
0
6
ByLayer
62
256
370
-1
100
AcDbLine
10
290.217
20
77.81
11
290.389
21
77.878
0
LINE
5
302
100
AcDbEntity
8
0
6
ByLayer
62
256
370
-1
100
AcDbLine
10
290.389
20
77.878
11
290.569
21
77.924
0
LINE
5
303
100
AcDbEntity
8
0
6
ByLayer
62
256
370
-1
100
AcDbLine
10
290.569
20
77.924
11
290.752
21
77.947
0
LINE
5
304
100
AcDbEntity
8
0
6
ByLayer
62
256
370
-1
100
AcDbLine
10
290.752
20
77.947
11
290.938
21
77.947
0
LINE
5
305
100
AcDbEntity
8
0
6
ByLayer
62
256
370
-1
100
AcDbLine
10
290.938
20
77.947
11
291.121
21
77.924
0
LINE
5
306
100
AcDbEntity
8
0
6
ByLayer
62
256
370
-1
100
AcDbLine
10
291.121
20
77.924
11
291.301
21
77.878
0
LINE
5
307
100
AcDbEntity
8
0
6
ByLayer
62
256
370
-1
100
AcDbLine
10
291.301
20
77.878
11
291.473
21
77.81
0
LINE
5
308
100
AcDbEntity
8
0
6
ByLayer
62
256
370
-1
100
AcDbLine
10
291.473
20
77.81
11
291.635
21
77.72
0
LINE
5
309
100
AcDbEntity
8
0
6
ByLayer
62
256
370
-1
100
AcDbLine
10
291.635
20
77.72
11
291.785
21
77.612
0
LINE
5
30A
100
AcDbEntity
8
0
6
ByLayer
62
256
370
-1
100
AcDbLine
10
291.785
20
77.612
11
291.92
21
77.485
0
LINE
5
30B
100
AcDbEntity
8
0
6
ByLayer
62
256
370
-1
100
AcDbLine
10
291.92
20
77.485
11
292.038
21
77.342
0
LINE
5
30C
100
AcDbEntity
8
0
6
ByLayer
62
256
370
-1
100
AcDbLine
10
292.038
20
77.342
11
292.138
21
77.186
0
LINE
5
30D
100
AcDbEntity
8
0
6
ByLayer
62
256
370
-1
100
AcDbLine
10
292.138
20
77.186
11
292.216
21
77.018
0
LINE
5
30E
100
AcDbEntity
8
0
6
ByLayer
62
256
370
-1
100
AcDbLine
10
292.216
20
77.018
11
292.274
21
76.842
0
LINE
5
30F
100
AcDbEntity
8
0
6
ByLayer
62
256
370
-1
100
AcDbLine
10
292.274
20
76.842
11
292.308
21
76.66
0
LINE
5
310
100
AcDbEntity
8
0
6
ByLayer
62
256
370
-1
100
AcDbLine
10
292.308
20
76.66
11
292.32
21
76.475
0
LINE
5
311
100
AcDbEntity
8
0
6
ByLayer
62
256
370
-1
100
AcDbLine
10
292.32
20
76.475
11
292.308
21
76.29
0
LINE
5
312
100
AcDbEntity
8
0
6
ByLayer
62
256
370
-1
100
AcDbLine
10
292.308
20
76.29
11
292.274
21
76.108
0
LINE
5
313
100
AcDbEntity
8
0
6
ByLayer
62
256
370
-1
100
AcDbLine
10
292.274
20
76.108
11
292.216
21
75.932
0
LINE
5
314
100
AcDbEntity
8
0
6
ByLayer
62
256
370
-1
100
AcDbLine
10
292.216
20
75.932
11
292.138
21
75.764
0
LINE
5
315
100
AcDbEntity
8
0
6
ByLayer
62
256
370
-1
100
AcDbLine
10
292.138
20
75.764
11
292.038
21
75.608
0
LINE
5
316
100
AcDbEntity
8
0
6
ByLayer
62
256
370
-1
100
AcDbLine
10
292.038
20
75.608
11
291.92
21
75.465
0
LINE
5
317
100
AcDbEntity
8
0
6
ByLayer
62
256
370
-1
100
AcDbLine
10
291.92
20
75.465
11
291.785
21
75.338
0
LINE
5
318
100
AcDbEntity
8
0
6
ByLayer
62
256
370
-1
100
AcDbLine
10
291.785
20
75.338
11
291.635
21
75.23
0
LINE
5
319
100
AcDbEntity
8
0
6
ByLayer
62
256
370
-1
100
AcDbLine
10
291.635
20
75.23
11
291.473
21
75.14
0
LINE
5
31A
100
AcDbEntity
8
0
6
ByLayer
62
256
370
-1
100
AcDbLine
10
291.473
20
75.14
11
291.301
21
75.072
0
LINE
5
31B
100
AcDbEntity
8
0
6
ByLayer
62
256
370
-1
100
AcDbLine
10
291.301
20
75.072
11
291.121
21
75.026
0
LINE
5
31C
100
AcDbEntity
8
0
6
ByLayer
62
256
370
-1
100
AcDbLine
10
291.121
20
75.026
11
290.938
21
75.003
0
LINE
5
31D
100
AcDbEntity
8
0
6
ByLayer
62
256
370
-1
100
AcDbLine
10
290.938
20
75.003
11
290.752
21
75.003
0
LINE
5
31E
100
AcDbEntity
8
0
6
ByLayer
62
256
370
-1
100
AcDbLine
10
290.752
20
75.003
11
290.569
21
75.026
0
LINE
5
31F
100
AcDbEntity
8
0
6
ByLayer
62
256
370
-1
100
AcDbLine
10
290.569
20
75.026
11
290.389
21
75.072
0
LINE
5
320
100
AcDbEntity
8
0
6
ByLayer
62
256
370
-1
100
AcDbLine
10
290.389
20
75.072
11
290.217
21
75.14
0
LINE
5
321
100
AcDbEntity
8
0
6
ByLayer
62
256
370
-1
100
AcDbLine
10
290.217
20
75.14
11
290.055
21
75.23
0
LINE
5
322
100
AcDbEntity
8
0
6
ByLayer
62
256
370
-1
100
AcDbLine
10
290.055
20
75.23
11
289.905
21
75.338
0
LINE
5
323
100
AcDbEntity
8
0
6
ByLayer
62
256
370
-1
100
AcDbLine
10
289.905
20
75.338
11
289.77
21
75.465
0
LINE
5
324
100
AcDbEntity
8
0
6
ByLayer
62
256
370
-1
100
AcDbLine
10
289.77
20
75.465
11
289.652
21
75.608
0
LINE
5
325
100
AcDbEntity
8
0
6
ByLayer
62
256
370
-1
100
AcDbLine
10
289.652
20
75.608
11
289.552
21
75.764
0
LINE
5
326
100
AcDbEntity
8
0
6
ByLayer
62
256
370
-1
100
AcDbLine
10
289.552
20
75.764
11
289.474
21
75.932
0
LINE
5
327
100
AcDbEntity
8
0
6
ByLayer
62
256
370
-1
100
AcDbLine
10
289.474
20
75.932
11
289.416
21
76.108
0
LINE
5
328
100
AcDbEntity
8
0
6
ByLayer
62
256
370
-1
100
AcDbLine
10
289.416
20
76.108
11
289.382
21
76.29
0
LINE
5
329
100
AcDbEntity
8
0
6
ByLayer
62
256
370
-1
100
AcDbLine
10
289.382
20
76.29
11
289.37
21
76.475
0
LINE
5
32A
100
AcDbEntity
8
0
6
ByLayer
62
256
370
-1
100
AcDbLine
10
507.414
20
76.475
11
507.426
21
76.66
0
LINE
5
32B
100
AcDbEntity
8
0
6
ByLayer
62
256
370
-1
100
AcDbLine
10
507.426
20
76.66
11
507.46
21
76.842
0
LINE
5
32C
100
AcDbEntity
8
0
6
ByLayer
62
256
370
-1
100
AcDbLine
10
507.46
20
76.842
11
507.518
21
77.018
0
LINE
5
32D
100
AcDbEntity
8
0
6
ByLayer
62
256
370
-1
100
AcDbLine
10
507.518
20
77.018
11
507.596
21
77.186
0
LINE
5
32E
100
AcDbEntity
8
0
6
ByLayer
62
256
370
-1
100
AcDbLine
10
507.596
20
77.186
11
507.696
21
77.342
0
LINE
5
32F
100
AcDbEntity
8
0
6
ByLayer
62
256
370
-1
100
AcDbLine
10
507.696
20
77.342
11
507.814
21
77.485
0
LINE
5
330
100
AcDbEntity
8
0
6
ByLayer
62
256
370
-1
100
AcDbLine
10
507.814
20
77.485
11
507.949
21
77.612
0
LINE
5
331
100
AcDbEntity
8
0
6
ByLayer
62
256
370
-1
100
AcDbLine
10
507.949
20
77.612
11
508.099
21
77.72
0
LINE
5
332
100
AcDbEntity
8
0
6
ByLayer
62
256
370
-1
100
AcDbLine
10
508.099
20
77.72
11
508.261
21
77.81
0
LINE
5
333
100
AcDbEntity
8
0
6
ByLayer
62
256
370
-1
100
AcDbLine
10
508.261
20
77.81
11
508.433
21
77.878
0
LINE
5
334
100
AcDbEntity
8
0
6
ByLayer
62
256
370
-1
100
AcDbLine
10
508.433
20
77.878
11
508.613
21
77.924
0
LINE
5
335
100
AcDbEntity
8
0
6
ByLayer
62
256
370
-1
100
AcDbLine
10
508.613
20
77.924
11
508.796
21
77.947
0
LINE
5
336
100
AcDbEntity
8
0
6
ByLayer
62
256
370
-1
100
AcDbLine
10
508.796
20
77.947
11
508.982
21
77.947
0
LINE
5
337
100
AcDbEntity
8
0
6
ByLayer
62
256
370
-1
100
AcDbLine
10
508.982
20
77.947
11
509.165
21
77.924
0
LINE
5
338
100
AcDbEntity
8
0
6
ByLayer
62
256
370
-1
100
AcDbLine
10
509.165
20
77.924
11
509.345
21
77.878
0
LINE
5
339
100
AcDbEntity
8
0
6
ByLayer
62
256
370
-1
100
AcDbLine
10
509.345
20
77.878
11
509.517
21
77.81
0
LINE
5
33A
100
AcDbEntity
8
0
6
ByLayer
62
256
370
-1
100
AcDbLine
10
509.517
20
77.81
11
509.679
21
77.72
0
LINE
5
33B
100
AcDbEntity
8
0
6
ByLayer
62
256
370
-1
100
AcDbLine
10
509.679
20
77.72
11
509.829
21
77.612
0
LINE
5
33C
100
AcDbEntity
8
0
6
ByLayer
62
256
370
-1
100
AcDbLine
10
509.829
20
77.612
11
509.964
21
77.485
0
LINE
5
33D
100
AcDbEntity
8
0
6
ByLayer
62
256
370
-1
100
AcDbLine
10
509.964
20
77.485
11
510.082
21
77.342
0
LINE
5
33E
100
AcDbEntity
8
0
6
ByLayer
62
256
370
-1
100
AcDbLine
10
510.082
20
77.342
11
510.182
21
77.186
0
LINE
5
33F
100
AcDbEntity
8
0
6
ByLayer
62
256
370
-1
100
AcDbLine
10
510.182
20
77.186
11
510.26
21
77.018
0
LINE
5
340
100
AcDbEntity
8
0
6
ByLayer
62
256
370
-1
100
AcDbLine
10
510.26
20
77.018
11
510.318
21
76.842
0
LINE
5
341
100
AcDbEntity
8
0
6
ByLayer
62
256
370
-1
100
AcDbLine
10
510.318
20
76.842
11
510.352
21
76.66
0
LINE
5
342
100
AcDbEntity
8
0
6
ByLayer
62
256
370
-1
100
AcDbLine
10
510.352
20
76.66
11
510.364
21
76.475
0
LINE
5
343
100
AcDbEntity
8
0
6
ByLayer
62
256
370
-1
100
AcDbLine
10
510.364
20
76.475
11
510.352
21
76.29
0
LINE
5
344
100
AcDbEntity
8
0
6
ByLayer
62
256
370
-1
100
AcDbLine
10
510.352
20
76.29
11
510.318
21
76.108
0
LINE
5
345
100
AcDbEntity
8
0
6
ByLayer
62
256
370
-1
100
AcDbLine
10
510.318
20
76.108
11
510.26
21
75.932
0
LINE
5
346
100
AcDbEntity
8
0
6
ByLayer
62
256
370
-1
100
AcDbLine
10
510.26
20
75.932
11
510.182
21
75.764
0
LINE
5
347
100
AcDbEntity
8
0
6
ByLayer
62
256
370
-1
100
AcDbLine
10
510.182
20
75.764
11
510.082
21
75.608
0
LINE
5
348
100
AcDbEntity
8
0
6
ByLayer
62
256
370
-1
100
AcDbLine
10
510.082
20
75.608
11
509.964
21
75.465
0
LINE
5
349
100
AcDbEntity
8
0
6
ByLayer
62
256
370
-1
100
AcDbLine
10
509.964
20
75.465
11
509.829
21
75.338
0
LINE
5
34A
100
AcDbEntity
8
0
6
ByLayer
62
256
370
-1
100
AcDbLine
10
509.829
20
75.338
11
509.679
21
75.23
0
LINE
5
34B
100
AcDbEntity
8
0
6
ByLayer
62
256
370
-1
100
AcDbLine
10
509.679
20
75.23
11
509.517
21
75.14
0
LINE
5
34C
100
AcDbEntity
8
0
6
ByLayer
62
256
370
-1
100
AcDbLine
10
509.517
20
75.14
11
509.345
21
75.072
0
LINE
5
34D
100
AcDbEntity
8
0
6
ByLayer
62
256
370
-1
100
AcDbLine
10
509.345
20
75.072
11
509.165
21
75.026
0
LINE
5
34E
100
AcDbEntity
8
0
6
ByLayer
62
256
370
-1
100
AcDbLine
10
509.165
20
75.026
11
508.982
21
75.003
0
LINE
5
34F
100
AcDbEntity
8
0
6
ByLayer
62
256
370
-1
100
AcDbLine
10
508.982
20
75.003
11
508.796
21
75.003
0
LINE
5
350
100
AcDbEntity
8
0
6
ByLayer
62
256
370
-1
100
AcDbLine
10
508.796
20
75.003
11
508.613
21
75.026
0
LINE
5
351
100
AcDbEntity
8
0
6
ByLayer
62
256
370
-1
100
AcDbLine
10
508.613
20
75.026
11
508.433
21
75.072
0
LINE
5
352
100
AcDbEntity
8
0
6
ByLayer
62
256
370
-1
100
AcDbLine
10
508.433
20
75.072
11
508.261
21
75.14
0
LINE
5
353
100
AcDbEntity
8
0
6
ByLayer
62
256
370
-1
100
AcDbLine
10
508.261
20
75.14
11
508.099
21
75.23
0
LINE
5
354
100
AcDbEntity
8
0
6
ByLayer
62
256
370
-1
100
AcDbLine
10
508.099
20
75.23
11
507.949
21
75.338
0
LINE
5
355
100
AcDbEntity
8
0
6
ByLayer
62
256
370
-1
100
AcDbLine
10
507.949
20
75.338
11
507.814
21
75.465
0
LINE
5
356
100
AcDbEntity
8
0
6
ByLayer
62
256
370
-1
100
AcDbLine
10
507.814
20
75.465
11
507.696
21
75.608
0
LINE
5
357
100
AcDbEntity
8
0
6
ByLayer
62
256
370
-1
100
AcDbLine
10
507.696
20
75.608
11
507.596
21
75.764
0
LINE
5
358
100
AcDbEntity
8
0
6
ByLayer
62
256
370
-1
100
AcDbLine
10
507.596
20
75.764
11
507.518
21
75.932
0
LINE
5
359
100
AcDbEntity
8
0
6
ByLayer
62
256
370
-1
100
AcDbLine
10
507.518
20
75.932
11
507.46
21
76.108
0
LINE
5
35A
100
AcDbEntity
8
0
6
ByLayer
62
256
370
-1
100
AcDbLine
10
507.46
20
76.108
11
507.426
21
76.29
0
LINE
5
35B
100
AcDbEntity
8
0
6
ByLayer
62
256
370
-1
100
AcDbLine
10
507.426
20
76.29
11
507.414
21
76.475
0
LINE
5
35C
100
AcDbEntity
8
0
6
ByLayer
62
256
370
-1
100
AcDbLine
10
568.3
20
-58
11
568.3
21
-43
0
LINE
5
35D
100
AcDbEntity
8
0
6
ByLayer
62
256
370
-1
100
AcDbLine
10
568.3
20
-43
11
571.2
21
-43
0
LINE
5
35E
100
AcDbEntity
8
0
6
ByLayer
62
256
370
-1
100
AcDbLine
10
571.2
20
-43
11
571.2
21
-26.725
0
LINE
5
35F
100
AcDbEntity
8
0
6
ByLayer
62
256
370
-1
100
AcDbLine
10
571.2
20
-23.775
11
571.2
21
-7.5
0
LINE
5
360
100
AcDbEntity
8
0
6
ByLayer
62
256
370
-1
100
AcDbLine
10
571.2
20
-7.5
11
568.3
21
-7.5
0
LINE
5
361
100
AcDbEntity
8
0
6
ByLayer
62
256
370
-1
100
AcDbLine
10
568.3
20
-7.5
11
568.3
21
7.5
0
LINE
5
362
100
AcDbEntity
8
0
6
ByLayer
62
256
370
-1
100
AcDbLine
10
568.3
20
7.5
11
571.2
21
7.5
0
LINE
5
363
100
AcDbEntity
8
0
6
ByLayer
62
256
370
-1
100
AcDbLine
10
571.2
20
7.5
11
571.2
21
23.775
0
LINE
5
364
100
AcDbEntity
8
0
6
ByLayer
62
256
370
-1
100
AcDbLine
10
571.2
20
26.725
11
571.2
21
43
0
LINE
5
365
100
AcDbEntity
8
0
6
ByLayer
62
256
370
-1
100
AcDbLine
10
571.2
20
43
11
568.3
21
43
0
LINE
5
366
100
AcDbEntity
8
0
6
ByLayer
62
256
370
-1
100
AcDbLine
10
568.3
20
43
11
568.3
21
58
0
LINE
5
367
100
AcDbEntity
8
0
6
ByLayer
62
256
370
-1
100
AcDbLine
10
568.3
20
58
11
571.2
21
58
0
LINE
5
368
100
AcDbEntity
8
0
6
ByLayer
62
256
370
-1
100
AcDbLine
10
571.2
20
58
11
571.2
21
75.75
0
LINE
5
369
100
AcDbEntity
8
0
6
ByLayer
62
256
370
-1
100
AcDbLine
10
571.2
20
75.75
11
585.366
21
75.75
0
LINE
5
36A
100
AcDbEntity
8
0
6
ByLayer
62
256
370
-1
100
AcDbLine
10
585.366
20
75.75
11
585.366
21
78.65
0
LINE
5
36B
100
AcDbEntity
8
0
6
ByLayer
62
256
370
-1
100
AcDbLine
10
585.366
20
78.65
11
600.366
21
78.65
0
LINE
5
36C
100
AcDbEntity
8
0
6
ByLayer
62
256
370
-1
100
AcDbLine
10
600.366
20
78.65
11
600.366
21
75.75
0
LINE
5
36D
100
AcDbEntity
8
0
6
ByLayer
62
256
370
-1
100
AcDbLine
10
600.366
20
75.75
11
628.7
21
75.75
0
LINE
5
36E
100
AcDbEntity
8
0
6
ByLayer
62
256
370
-1
100
AcDbLine
10
628.7
20
75.75
11
628.7
21
78.65
0
LINE
5
36F
100
AcDbEntity
8
0
6
ByLayer
62
256
370
-1
100
AcDbLine
10
628.7
20
78.65
11
643.7
21
78.65
0
LINE
5
370
100
AcDbEntity
8
0
6
ByLayer
62
256
370
-1
100
AcDbLine
10
643.7
20
78.65
11
643.7
21
75.75
0
LINE
5
371
100
AcDbEntity
8
0
6
ByLayer
62
256
370
-1
100
AcDbLine
10
643.7
20
75.75
11
672.033
21
75.75
0
LINE
5
372
100
AcDbEntity
8
0
6
ByLayer
62
256
370
-1
100
AcDbLine
10
672.033
20
75.75
11
672.033
21
78.65
0
LINE
5
373
100
AcDbEntity
8
0
6
ByLayer
62
256
370
-1
100
AcDbLine
10
672.033
20
78.65
11
687.033
21
78.65
0
LINE
5
374
100
AcDbEntity
8
0
6
ByLayer
62
256
370
-1
100
AcDbLine
10
687.033
20
78.65
11
687.033
21
75.75
0
LINE
5
375
100
AcDbEntity
8
0
6
ByLayer
62
256
370
-1
100
AcDbLine
10
687.033
20
75.75
11
701.2
21
75.75
0
LINE
5
376
100
AcDbEntity
8
0
6
ByLayer
62
256
370
-1
100
AcDbLine
10
701.2
20
75.75
11
701.2
21
58
0
LINE
5
377
100
AcDbEntity
8
0
6
ByLayer
62
256
370
-1
100
AcDbLine
10
701.2
20
58
11
704.1
21
58
0
LINE
5
378
100
AcDbEntity
8
0
6
ByLayer
62
256
370
-1
100
AcDbLine
10
704.1
20
58
11
704.1
21
43
0
LINE
5
379
100
AcDbEntity
8
0
6
ByLayer
62
256
370
-1
100
AcDbLine
10
704.1
20
43
11
701.2
21
43
0
LINE
5
37A
100
AcDbEntity
8
0
6
ByLayer
62
256
370
-1
100
AcDbLine
10
701.2
20
43
11
701.2
21
26.725
0
LINE
5
37B
100
AcDbEntity
8
0
6
ByLayer
62
256
370
-1
100
AcDbLine
10
701.2
20
23.775
11
701.2
21
7.5
0
LINE
5
37C
100
AcDbEntity
8
0
6
ByLayer
62
256
370
-1
100
AcDbLine
10
701.2
20
7.5
11
704.1
21
7.5
0
LINE
5
37D
100
AcDbEntity
8
0
6
ByLayer
62
256
370
-1
100
AcDbLine
10
704.1
20
7.5
11
704.1
21
-7.5
0
LINE
5
37E
100
AcDbEntity
8
0
6
ByLayer
62
256
370
-1
100
AcDbLine
10
704.1
20
-7.5
11
701.2
21
-7.5
0
LINE
5
37F
100
AcDbEntity
8
0
6
ByLayer
62
256
370
-1
100
AcDbLine
10
701.2
20
-7.5
11
701.2
21
-23.775
0
LINE
5
380
100
AcDbEntity
8
0
6
ByLayer
62
256
370
-1
100
AcDbLine
10
701.2
20
-26.725
11
701.2
21
-43
0
LINE
5
381
100
AcDbEntity
8
0
6
ByLayer
62
256
370
-1
100
AcDbLine
10
701.2
20
-43
11
704.1
21
-43
0
LINE
5
382
100
AcDbEntity
8
0
6
ByLayer
62
256
370
-1
100
AcDbLine
10
704.1
20
-43
11
704.1
21
-58
0
LINE
5
383
100
AcDbEntity
8
0
6
ByLayer
62
256
370
-1
100
AcDbLine
10
704.1
20
-58
11
701.2
21
-58
0
LINE
5
384
100
AcDbEntity
8
0
6
ByLayer
62
256
370
-1
100
AcDbLine
10
701.2
20
-58
11
701.2
21
-75.75
0
LINE
5
385
100
AcDbEntity
8
0
6
ByLayer
62
256
370
-1
100
AcDbLine
10
701.2
20
-75.75
11
687.033
21
-75.75
0
LINE
5
386
100
AcDbEntity
8
0
6
ByLayer
62
256
370
-1
100
AcDbLine
10
687.033
20
-75.75
11
687.033
21
-78.65
0
LINE
5
387
100
AcDbEntity
8
0
6
ByLayer
62
256
370
-1
100
AcDbLine
10
687.033
20
-78.65
11
672.033
21
-78.65
0
LINE
5
388
100
AcDbEntity
8
0
6
ByLayer
62
256
370
-1
100
AcDbLine
10
672.033
20
-78.65
11
672.033
21
-75.75
0
LINE
5
389
100
AcDbEntity
8
0
6
ByLayer
62
256
370
-1
100
AcDbLine
10
672.033
20
-75.75
11
643.7
21
-75.75
0
LINE
5
38A
100
AcDbEntity
8
0
6
ByLayer
62
256
370
-1
100
AcDbLine
10
643.7
20
-75.75
11
643.7
21
-78.65
0
LINE
5
38B
100
AcDbEntity
8
0
6
ByLayer
62
256
370
-1
100
AcDbLine
10
643.7
20
-78.65
11
628.7
21
-78.65
0
LINE
5
38C
100
AcDbEntity
8
0
6
ByLayer
62
256
370
-1
100
AcDbLine
10
628.7
20
-78.65
11
628.7
21
-75.75
0
LINE
5
38D
100
AcDbEntity
8
0
6
ByLayer
62
256
370
-1
100
AcDbLine
10
628.7
20
-75.75
11
600.366
21
-75.75
0
LINE
5
38E
100
AcDbEntity
8
0
6
ByLayer
62
256
370
-1
100
AcDbLine
10
600.366
20
-75.75
11
600.366
21
-78.65
0
LINE
5
38F
100
AcDbEntity
8
0
6
ByLayer
62
256
370
-1
100
AcDbLine
10
600.366
20
-78.65
11
585.366
21
-78.65
0
LINE
5
390
100
AcDbEntity
8
0
6
ByLayer
62
256
370
-1
100
AcDbLine
10
585.366
20
-78.65
11
585.366
21
-75.75
0
LINE
5
391
100
AcDbEntity
8
0
6
ByLayer
62
256
370
-1
100
AcDbLine
10
585.366
20
-75.75
11
571.2
21
-75.75
0
LINE
5
392
100
AcDbEntity
8
0
6
ByLayer
62
256
370
-1
100
AcDbLine
10
571.2
20
-75.75
11
571.2
21
-58
0
LINE
5
393
100
AcDbEntity
8
0
6
ByLayer
62
256
370
-1
100
AcDbLine
10
571.2
20
-58
11
568.3
21
-58
0
LINE
5
394
100
AcDbEntity
8
0
6
ByLayer
62
256
370
-1
100
AcDbLine
10
-65
20
26.725
11
-65
21
23.775
0
LINE
5
395
100
AcDbEntity
8
0
6
ByLayer
62
256
370
-1
100
AcDbLine
10
-65
20
-23.775
11
-65
21
-26.725
0
LINE
5
396
100
AcDbEntity
8
0
6
ByLayer
62
256
370
-1
100
AcDbLine
10
65
20
26.725
11
65
21
23.775
0
LINE
5
397
100
AcDbEntity
8
0
6
ByLayer
62
256
370
-1
100
AcDbLine
10
65
20
-23.775
11
65
21
-26.725
0
LINE
5
398
100
AcDbEntity
8
0
6
ByLayer
62
256
370
-1
100
AcDbLine
10
-65
20
-136.587
11
-65
21
-139.537
0
LINE
5
399
100
AcDbEntity
8
0
6
ByLayer
62
256
370
-1
100
AcDbLine
10
65
20
-136.587
11
65
21
-139.537
0
LINE
5
39A
100
AcDbEntity
8
0
6
ByLayer
62
256
370
-1
100
AcDbLine
10
-65
20
-354.631
11
-65
21
-357.581
0
LINE
5
39B
100
AcDbEntity
8
0
6
ByLayer
62
256
370
-1
100
AcDbLine
10
65
20
-354.631
11
65
21
-357.581
0
LINE
5
39C
100
AcDbEntity
8
0
6
ByLayer
62
256
370
-1
100
AcDbLine
10
-65
20
-518.164
11
-65
21
-521.114
0
LINE
5
39D
100
AcDbEntity
8
0
6
ByLayer
62
256
370
-1
100
AcDbLine
10
65
20
-518.164
11
65
21
-521.114
0
LINE
5
39E
100
AcDbEntity
8
0
6
ByLayer
62
256
370
-1
100
AcDbLine
10
571.2
20
26.725
11
571.2
21
23.775
0
LINE
5
39F
100
AcDbEntity
8
0
6
ByLayer
62
256
370
-1
100
AcDbLine
10
701.2
20
26.725
11
701.2
21
23.775
0
LINE
5
3A0
100
AcDbEntity
8
0
6
ByLayer
62
256
370
-1
100
AcDbLine
10
571.2
20
-23.775
11
571.2
21
-26.725
0
LINE
5
3A1
100
AcDbEntity
8
0
6
ByLayer
62
256
370
-1
100
AcDbLine
10
701.2
20
-23.775
11
701.2
21
-26.725
0
LINE
5
3A2
100
AcDbEntity
8
0
6
ByLayer
62
256
370
-1
100
AcDbLine
10
-292.318
20
76.475
11
-292.306
21
76.66
0
LINE
5
3A3
100
AcDbEntity
8
0
6
ByLayer
62
256
370
-1
100
AcDbLine
10
-292.306
20
76.66
11
-292.272
21
76.842
0
LINE
5
3A4
100
AcDbEntity
8
0
6
ByLayer
62
256
370
-1
100
AcDbLine
10
-292.272
20
76.842
11
-292.214
21
77.018
0
LINE
5
3A5
100
AcDbEntity
8
0
6
ByLayer
62
256
370
-1
100
AcDbLine
10
-292.214
20
77.018
11
-292.136
21
77.186
0
LINE
5
3A6
100
AcDbEntity
8
0
6
ByLayer
62
256
370
-1
100
AcDbLine
10
-292.136
20
77.186
11
-292.036
21
77.342
0
LINE
5
3A7
100
AcDbEntity
8
0
6
ByLayer
62
256
370
-1
100
AcDbLine
10
-292.036
20
77.342
11
-291.918
21
77.485
0
LINE
5
3A8
100
AcDbEntity
8
0
6
ByLayer
62
256
370
-1
100
AcDbLine
10
-291.918
20
77.485
11
-291.783
21
77.612
0
LINE
5
3A9
100
AcDbEntity
8
0
6
ByLayer
62
256
370
-1
100
AcDbLine
10
-291.783
20
77.612
11
-291.633
21
77.72
0
LINE
5
3AA
100
AcDbEntity
8
0
6
ByLayer
62
256
370
-1
100
AcDbLine
10
-291.633
20
77.72
11
-291.471
21
77.81
0
LINE
5
3AB
100
AcDbEntity
8
0
6
ByLayer
62
256
370
-1
100
AcDbLine
10
-291.471
20
77.81
11
-291.299
21
77.878
0
LINE
5
3AC
100
AcDbEntity
8
0
6
ByLayer
62
256
370
-1
100
AcDbLine
10
-291.299
20
77.878
11
-291.119
21
77.924
0
LINE
5
3AD
100
AcDbEntity
8
0
6
ByLayer
62
256
370
-1
100
AcDbLine
10
-291.119
20
77.924
11
-290.936
21
77.947
0
LINE
5
3AE
100
AcDbEntity
8
0
6
ByLayer
62
256
370
-1
100
AcDbLine
10
-290.936
20
77.947
11
-290.75
21
77.947
0
LINE
5
3AF
100
AcDbEntity
8
0
6
ByLayer
62
256
370
-1
100
AcDbLine
10
-290.75
20
77.947
11
-290.567
21
77.924
0
LINE
5
3B0
100
AcDbEntity
8
0
6
ByLayer
62
256
370
-1
100
AcDbLine
10
-290.567
20
77.924
11
-290.387
21
77.878
0
LINE
5
3B1
100
AcDbEntity
8
0
6
ByLayer
62
256
370
-1
100
AcDbLine
10
-290.387
20
77.878
11
-290.215
21
77.81
0
LINE
5
3B2
100
AcDbEntity
8
0
6
ByLayer
62
256
370
-1
100
AcDbLine
10
-290.215
20
77.81
11
-290.053
21
77.72
0
LINE
5
3B3
100
AcDbEntity
8
0
6
ByLayer
62
256
370
-1
100
AcDbLine
10
-290.053
20
77.72
11
-289.903
21
77.612
0
LINE
5
3B4
100
AcDbEntity
8
0
6
ByLayer
62
256
370
-1
100
AcDbLine
10
-289.903
20
77.612
11
-289.768
21
77.485
0
LINE
5
3B5
100
AcDbEntity
8
0
6
ByLayer
62
256
370
-1
100
AcDbLine
10
-289.768
20
77.485
11
-289.65
21
77.342
0
LINE
5
3B6
100
AcDbEntity
8
0
6
ByLayer
62
256
370
-1
100
AcDbLine
10
-289.65
20
77.342
11
-289.55
21
77.186
0
LINE
5
3B7
100
AcDbEntity
8
0
6
ByLayer
62
256
370
-1
100
AcDbLine
10
-289.55
20
77.186
11
-289.472
21
77.018
0
LINE
5
3B8
100
AcDbEntity
8
0
6
ByLayer
62
256
370
-1
100
AcDbLine
10
-289.472
20
77.018
11
-289.414
21
76.842
0
LINE
5
3B9
100
AcDbEntity
8
0
6
ByLayer
62
256
370
-1
100
AcDbLine
10
-289.414
20
76.842
11
-289.38
21
76.66
0
LINE
5
3BA
100
AcDbEntity
8
0
6
ByLayer
62
256
370
-1
100
AcDbLine
10
-289.38
20
76.66
11
-289.368
21
76.475
0
LINE
5
3BB
100
AcDbEntity
8
0
6
ByLayer
62
256
370
-1
100
AcDbLine
10
-289.368
20
76.475
11
-289.38
21
76.29
0
LINE
5
3BC
100
AcDbEntity
8
0
6
ByLayer
62
256
370
-1
100
AcDbLine
10
-289.38
20
76.29
11
-289.414
21
76.108
0
LINE
5
3BD
100
AcDbEntity
8
0
6
ByLayer
62
256
370
-1
100
AcDbLine
10
-289.414
20
76.108
11
-289.472
21
75.932
0
LINE
5
3BE
100
AcDbEntity
8
0
6
ByLayer
62
256
370
-1
100
AcDbLine
10
-289.472
20
75.932
11
-289.55
21
75.764
0
LINE
5
3BF
100
AcDbEntity
8
0
6
ByLayer
62
256
370
-1
100
AcDbLine
10
-289.55
20
75.764
11
-289.65
21
75.608
0
LINE
5
3C0
100
AcDbEntity
8
0
6
ByLayer
62
256
370
-1
100
AcDbLine
10
-289.65
20
75.608
11
-289.768
21
75.465
0
LINE
5
3C1
100
AcDbEntity
8
0
6
ByLayer
62
256
370
-1
100
AcDbLine
10
-289.768
20
75.465
11
-289.903
21
75.338
0
LINE
5
3C2
100
AcDbEntity
8
0
6
ByLayer
62
256
370
-1
100
AcDbLine
10
-289.903
20
75.338
11
-290.053
21
75.23
0
LINE
5
3C3
100
AcDbEntity
8
0
6
ByLayer
62
256
370
-1
100
AcDbLine
10
-290.053
20
75.23
11
-290.215
21
75.14
0
LINE
5
3C4
100
AcDbEntity
8
0
6
ByLayer
62
256
370
-1
100
AcDbLine
10
-290.215
20
75.14
11
-290.387
21
75.072
0
LINE
5
3C5
100
AcDbEntity
8
0
6
ByLayer
62
256
370
-1
100
AcDbLine
10
-290.387
20
75.072
11
-290.567
21
75.026
0
LINE
5
3C6
100
AcDbEntity
8
0
6
ByLayer
62
256
370
-1
100
AcDbLine
10
-290.567
20
75.026
11
-290.75
21
75.003
0
LINE
5
3C7
100
AcDbEntity
8
0
6
ByLayer
62
256
370
-1
100
AcDbLine
10
-290.75
20
75.003
11
-290.936
21
75.003
0
LINE
5
3C8
100
AcDbEntity
8
0
6
ByLayer
62
256
370
-1
100
AcDbLine
10
-290.936
20
75.003
11
-291.119
21
75.026
0
LINE
5
3C9
100
AcDbEntity
8
0
6
ByLayer
62
256
370
-1
100
AcDbLine
10
-291.119
20
75.026
11
-291.299
21
75.072
0
LINE
5
3CA
100
AcDbEntity
8
0
6
ByLayer
62
256
370
-1
100
AcDbLine
10
-291.299
20
75.072
11
-291.471
21
75.14
0
LINE
5
3CB
100
AcDbEntity
8
0
6
ByLayer
62
256
370
-1
100
AcDbLine
10
-291.471
20
75.14
11
-291.633
21
75.23
0
LINE
5
3CC
100
AcDbEntity
8
0
6
ByLayer
62
256
370
-1
100
AcDbLine
10
-291.633
20
75.23
11
-291.783
21
75.338
0
LINE
5
3CD
100
AcDbEntity
8
0
6
ByLayer
62
256
370
-1
100
AcDbLine
10
-291.783
20
75.338
11
-291.918
21
75.465
0
LINE
5
3CE
100
AcDbEntity
8
0
6
ByLayer
62
256
370
-1
100
AcDbLine
10
-291.918
20
75.465
11
-292.036
21
75.608
0
LINE
5
3CF
100
AcDbEntity
8
0
6
ByLayer
62
256
370
-1
100
AcDbLine
10
-292.036
20
75.608
11
-292.136
21
75.764
0
LINE
5
3D0
100
AcDbEntity
8
0
6
ByLayer
62
256
370
-1
100
AcDbLine
10
-292.136
20
75.764
11
-292.214
21
75.932
0
LINE
5
3D1
100
AcDbEntity
8
0
6
ByLayer
62
256
370
-1
100
AcDbLine
10
-292.214
20
75.932
11
-292.272
21
76.108
0
LINE
5
3D2
100
AcDbEntity
8
0
6
ByLayer
62
256
370
-1
100
AcDbLine
10
-292.272
20
76.108
11
-292.306
21
76.29
0
LINE
5
3D3
100
AcDbEntity
8
0
6
ByLayer
62
256
370
-1
100
AcDbLine
10
-292.306
20
76.29
11
-292.318
21
76.475
0
ENDSEC
0
SECTION
2
OBJECTS
0
DICTIONARY
5
C
330
0
100
AcDbDictionary
281
1
3
ACAD_GROUP
350
D
0
DICTIONARY
5
D
330
C
100
AcDbDictionary
281
1
0
ENDSEC
0
EOF
