999
dxfrw 0.5.11
0
SECTION
2
HEADER
9
$ACADVER
1
AC1021
9
$HANDSEED
5
20000
9
$DWGCODEPAGE
3
ANSI_1252
9
$INSBASE
10
0
20
0
30
0
9
$EXTMIN
10
-566.3
20
-218.811865234
30
0
9
$EXTMAX
10
566.3
20
574.008
30
0
9
$LIMMIN
10
0
20
0
9
$LIMMAX
10
420
20
297
9
$ORTHOMODE
70
0
9
$LTSCALE
40
1
9
$TEXTSTYLE
7
STANDARD
9
$CLAYER
8
0
9
$DIMASZ
40
2.5
9
$DIMLFAC
40
1
9
$DIMSCALE
40
1
9
$DIMEXO
40
0.625
9
$DIMEXE
40
1.25
9
$DIMTXT
40
2.5
9
$DIMTSZ
40
0
9
$DIMAUNIT
70
0
9
$DIMADEC
70
0
9
$DIMLUNIT
70
2
9
$DIMSTYLE
2
Standard
9
$DIMGAP
40
0.625
9
$DIMTIH
70
0
9
$LUNITS
70
2
9
$LUPREC
70
4
9
$AUNITS
70
0
9
$AUPREC
70
2
9
$SPLINESEGS
70
8
9
$GRIDMODE
70
1
9
$SNAPSTYLE
70
0
9
$PINSBASE
10
0
20
0
30
0
9
$PLIMMIN
10
0
20
0
9
$PLIMMAX
10
210
20
297
9
$INSUNITS
70
4
9
$PSVPSCALE
40
1
0
ENDSEC
0
SECTION
2
CLASSES
0
ENDSEC
0
SECTION
2
TABLES
0
TABLE
2
VPORT
5
8
330
0
100
AcDbSymbolTable
70
1
0
VPORT
5
31
330
2
100
AcDbSymbolTableRecord
100
AcDbViewportTableRecord
2
*ACTIVE
70
0
10
0
20
0
11
1
21
1
12
77.880859375
22
64.453125
13
0
23
0
14
10
24
10
15
10
25
10
16
0
26
0
36
1
17
0
27
0
37
0
40
392.578125
41
1.95024875622
42
50
43
0
44
0
50
0
51
0
71
0
72
100
73
1
74
3
75
0
76
1
77
0
78
0
281
0
65
1
110
0
120
0
130
0
111
1
121
0
131
0
112
0
122
1
132
0
79
0
146
0
348
10020
60
7
61
5
292
1
282
1
141
0
142
0
63
250
421
3358443
0
ENDTAB
0
TABLE
2
LTYPE
5
5
330
0
100
AcDbSymbolTable
70
4
0
LTYPE
5
14
330
5
100
AcDbSymbolTableRecord
100
AcDbLinetypeTableRecord
2
ByBlock
70
0
3

72
65
73
0
40
0
0
LTYPE
5
15
330
5
100
AcDbSymbolTableRecord
100
AcDbLinetypeTableRecord
2
ByLayer
70
0
3

72
65
73
0
40
0
0
LTYPE
5
16
330
5
100
AcDbSymbolTableRecord
100
AcDbLinetypeTableRecord
2
Continuous
70
0
3
Solid line
72
65
73
0
40
0
0
LTYPE
5
32
330
5
100
AcDbSymbolTableRecord
100
AcDbLinetypeTableRecord
2
DOT
70
0
3
Dot . . . . . . . . . . . . . . . . . . . . . .
72
65
73
2
40
6.35
49
0
74
0
49
-6.35
74
0
0
LTYPE
5
33
330
5
100
AcDbSymbolTableRecord
100
AcDbLinetypeTableRecord
2
DOT2
70
0
3
Dot (.5x) .....................................
72
65
73
2
40
3.175
49
0
74
0
49
-3.175
74
0
0
LTYPE
5
34
330
5
100
AcDbSymbolTableRecord
100
AcDbLinetypeTableRecord
2
DOTX2
70
0
3
Dot (2x) .  .  .  .  .  .  .  .  .  .  .  .  .
72
65
73
2
40
12.7
49
0
74
0
49
-12.7
74
0
0
LTYPE
5
35
330
5
100
AcDbSymbolTableRecord
100
AcDbLinetypeTableRecord
2
DASHED
70
0
3
Dot . . . . . . . . . . . . . . . . . . . . . .
72
65
73
2
40
19.05
49
12.7
74
0
49
-6.35
74
0
0
LTYPE
5
36
330
5
100
AcDbSymbolTableRecord
100
AcDbLinetypeTableRecord
2
DASHED2
70
0
3
Dashed (.5x) _ _ _ _ _ _ _ _ _ _ _ _ _ _ _ _ _
72
65
73
2
40
9.525
49
6.35
74
0
49
-3.175
74
0
0
LTYPE
5
37
330
5
100
AcDbSymbolTableRecord
100
AcDbLinetypeTableRecord
2
DASHEDX2
70
0
3
Dashed (2x) ____  ____  ____  ____  ____  ___
72
65
73
2
40
38.1
49
25.4
74
0
49
-12.7
74
0
0
LTYPE
5
38
330
5
100
AcDbSymbolTableRecord
100
AcDbLinetypeTableRecord
2
DASHDOT
70
0
3
Dash dot __ . __ . __ . __ . __ . __ . __ . __
72
65
73
4
40
25.4
49
12.7
74
0
49
-6.35
74
0
49
0
74
0
49
-6.35
74
0
0
LTYPE
5
39
330
5
100
AcDbSymbolTableRecord
100
AcDbLinetypeTableRecord
2
DASHDOT2
70
0
3
Dash dot (.5x) _._._._._._._._._._._._._._._.
72
65
73
4
40
12.7
49
6.35
74
0
49
-3.175
74
0
49
0
74
0
49
-3.175
74
0
0
LTYPE
5
3A
330
5
100
AcDbSymbolTableRecord
100
AcDbLinetypeTableRecord
2
DASHDOTX2
70
0
3
Dash dot (2x) ____  .  ____  .  ____  .  ___
72
65
73
4
40
50.8
49
25.4
74
0
49
-12.7
74
0
49
0
74
0
49
-12.7
74
0
0
LTYPE
5
3B
330
5
100
AcDbSymbolTableRecord
100
AcDbLinetypeTableRecord
2
DIVIDE
70
0
3
Divide ____ . . ____ . . ____ . . ____ . . ____
72
65
73
6
40
31.75
49
12.7
74
0
49
-6.35
74
0
49
0
74
0
49
-6.35
74
0
49
0
74
0
49
-6.35
74
0
0
LTYPE
5
3C
330
5
100
AcDbSymbolTableRecord
100
AcDbLinetypeTableRecord
2
DIVIDE2
70
0
3
Divide (.5x) __..__..__..__..__..__..__..__.._
72
65
73
6
40
15.875
49
6.35
74
0
49
-3.175
74
0
49
0
74
0
49
-3.175
74
0
49
0
74
0
49
-3.175
74
0
0
LTYPE
5
3D
330
5
100
AcDbSymbolTableRecord
100
AcDbLinetypeTableRecord
2
DIVIDEX2
70
0
3
Divide (2x) ________  .  .  ________  .  .  _
72
65
73
6
40
63.5
49
25.4
74
0
49
-12.7
74
0
49
0
74
0
49
-12.7
74
0
49
0
74
0
49
-12.7
74
0
0
LTYPE
5
3E
330
5
100
AcDbSymbolTableRecord
100
AcDbLinetypeTableRecord
2
BORDER
70
0
3
Border __ __ . __ __ . __ __ . __ __ . __ __ .
72
65
73
6
40
44.45
49
12.7
74
0
49
-6.35
74
0
49
12.7
74
0
49
-6.35
74
0
49
0
74
0
49
-6.35
74
0
0
LTYPE
5
3F
330
5
100
AcDbSymbolTableRecord
100
AcDbLinetypeTableRecord
2
BORDER2
70
0
3
Border (.5x) __.__.__.__.__.__.__.__.__.__.__.
72
65
73
6
40
22.225
49
6.35
74
0
49
-3.175
74
0
49
6.35
74
0
49
-3.175
74
0
49
0
74
0
49
-3.175
74
0
0
LTYPE
5
40
330
5
100
AcDbSymbolTableRecord
100
AcDbLinetypeTableRecord
2
BORDERX2
70
0
3
Border (2x) ____  ____  .  ____  ____  .  ___
72
65
73
6
40
88.9
49
25.4
74
0
49
-12.7
74
0
49
25.4
74
0
49
-12.7
74
0
49
0
74
0
49
-12.7
74
0
0
LTYPE
5
41
330
5
100
AcDbSymbolTableRecord
100
AcDbLinetypeTableRecord
2
CENTER
70
0
3
Center ____ _ ____ _ ____ _ ____ _ ____ _ ____
72
65
73
4
40
50.8
49
31.75
74
0
49
-6.35
74
0
49
6.35
74
0
49
-6.35
74
0
0
LTYPE
5
42
330
5
100
AcDbSymbolTableRecord
100
AcDbLinetypeTableRecord
2
CENTER2
70
0
3
Center (.5x) ___ _ ___ _ ___ _ ___ _ ___ _ ___
72
65
73
4
40
28.575
49
19.05
74
0
49
-3.175
74
0
49
3.175
74
0
49
-3.175
74
0
0
LTYPE
5
43
330
5
100
AcDbSymbolTableRecord
100
AcDbLinetypeTableRecord
2
CENTERX2
70
0
3
Center (2x) ________  __  ________  __  _____
72
65
73
4
40
101.6
49
63.5
74
0
49
-12.7
74
0
49
12.7
74
0
49
-12.7
74
0
0
ENDTAB
0
TABLE
2
LAYER
5
2
330
0
100
AcDbSymbolTable
70
1
0
LAYER
5
10
330
2
100
AcDbSymbolTableRecord
100
AcDbLayerTableRecord
2
0
70
0
62
7
6
CONTINUOUS
370
0
390
F
0
LAYER
5
44
330
2
100
AcDbSymbolTableRecord
100
AcDbLayerTableRecord
2
loecher
70
0
62
2
6
CONTINUOUS
370
13
390
F
0
ENDTAB
0
TABLE
2
STYLE
5
3
330
0
100
AcDbSymbolTable
70
3
0
STYLE
5
45
330
2
100
AcDbSymbolTableRecord
100
AcDbTextStyleTableRecord
2
Standard
70
0
40
0
41
1
50
0
71
0
42
1
3
txt
4

0
ENDTAB
0
TABLE
2
VIEW
5
6
330
0
100
AcDbSymbolTable
70
0
0
ENDTAB
0
TABLE
2
UCS
5
7
330
0
100
AcDbSymbolTable
70
0
0
ENDTAB
0
TABLE
2
APPID
5
9
330
0
100
AcDbSymbolTable
70
1
0
APPID
5
12
330
9
100
AcDbSymbolTableRecord
100
AcDbRegAppTableRecord
2
ACAD
70
0
0
ENDTAB
0
TABLE
2
DIMSTYLE
5
A
330
0
100
AcDbSymbolTable
70
1
100
AcDbDimStyleTable
71
1
0
DIMSTYLE
105
46
330
A
100
AcDbSymbolTableRecord
100
AcDbDimStyleTableRecord
2
Standard
70
0
40
1
41
2.5
42
0.625
43
0.38
44
1.25
45
0
46
0
47
0
48
0
140
2.5
141
0.09
142
0
143
25.4
144
1
145
0
146
1
147
0.625
148
0
71
0
72
0
73
0
74
1
75
0
76
0
77
0
78
0
79
0
170
0
171
2
172
0
173
0
174
0
175
0
176
0
177
0
178
0
179
0
271
4
272
4
273
2
274
2
275
0
276
0
277
2
278
46
279
0
280
0
281
0
282
0
283
1
284
0
285
0
286
0
288
0
289
3
340
Standard
341

371
-2
372
-2
0
ENDTAB
0
TABLE
2
BLOCK_RECORD
5
1
330
0
100
AcDbSymbolTable
70
2
0
BLOCK_RECORD
5
1F
330
1
100
AcDbSymbolTableRecord
100
AcDbBlockTableRecord
2
*Model_Space
70
0
280
1
281
0
0
BLOCK_RECORD
5
1E
330
1
100
AcDbSymbolTableRecord
100
AcDbBlockTableRecord
2
*Paper_Space
70
0
280
1
281
0
0
BLOCK_RECORD
5
47
330
1
100
AcDbSymbolTableRecord
100
AcDbBlockTableRecord
2
7-Segment-Big
70
0
280
1
281
0
0
BLOCK_RECORD
5
4A
330
1
100
AcDbSymbolTableRecord
100
AcDbBlockTableRecord
2
7-Segment-Medium
70
0
280
1
281
0
0
ENDTAB
0
ENDSEC
0
SECTION
2
BLOCKS
0
BLOCK
5
20
330
1F
100
AcDbEntity
8
0
100
AcDbBlockBegin
2
*Model_Space
70
0
10
0
20
0
30
0
3
*Model_Space
1

0
ENDBLK
5
21
330
1F
100
AcDbEntity
8
0
100
AcDbBlockEnd
0
BLOCK
5
1C
330
1B
100
AcDbEntity
8
0
100
AcDbBlockBegin
2
*Paper_Space
70
0
10
0
20
0
30
0
3
*Paper_Space
1

0
ENDBLK
5
1D
330
1F
100
AcDbEntity
8
0
100
AcDbBlockEnd
0
BLOCK
5
48
330
47
100
AcDbEntity
8
0
100
AcDbBlockBegin
2
7-Segment-Big
70
0
10
0
20
0
3
7-Segment-Big
1

0
LINE
5
4D
100
AcDbEntity
8
0
6
ByLayer
62
256
370
-1
100
AcDbLine
10
0
20
0
11
90
21
0
0
LINE
5
4E
100
AcDbEntity
8
0
6
ByLayer
62
256
370
-1
100
AcDbLine
10
90
20
0
11
90
21
121.5
0
LINE
5
4F
100
AcDbEntity
8
0
6
ByLayer
62
256
370
-1
100
AcDbLine
10
90
20
121.5
11
0
21
121.5
0
LINE
5
50
100
AcDbEntity
8
0
6
ByLayer
62
256
370
-1
100
AcDbLine
10
0
20
121.5
11
0
21
0
0
POINT
5
51
100
AcDbEntity
8
loecher
6
ByLayer
62
256
370
-1
100
AcDbPoint
10
55
20
114.5
0
POINT
5
52
100
AcDbEntity
8
loecher
6
ByLayer
62
256
370
-1
100
AcDbPoint
10
50
20
114.5
0
POINT
5
53
100
AcDbEntity
8
loecher
6
ByLayer
62
256
370
-1
100
AcDbPoint
10
45
20
114.5
0
POINT
5
54
100
AcDbEntity
8
loecher
6
ByLayer
62
256
370
-1
100
AcDbPoint
10
40
20
114.5
0
POINT
5
55
100
AcDbEntity
8
loecher
6
ByLayer
62
256
370
-1
100
AcDbPoint
10
35
20
114.5
0
POINT
5
56
100
AcDbEntity
8
loecher
6
ByLayer
62
256
370
-1
100
AcDbPoint
10
35
20
7.5
0
POINT
5
57
100
AcDbEntity
8
loecher
6
ByLayer
62
256
370
-1
100
AcDbPoint
10
40
20
7.5
0
POINT
5
58
100
AcDbEntity
8
loecher
6
ByLayer
62
256
370
-1
100
AcDbPoint
10
45
20
7.5
0
POINT
5
59
100
AcDbEntity
8
loecher
6
ByLayer
62
256
370
-1
100
AcDbPoint
10
50
20
7.5
0
POINT
5
5A
100
AcDbEntity
8
loecher
6
ByLayer
62
256
370
-1
100
AcDbPoint
10
55
20
7.5
0
ENDBLK
5
49
330
47
100
AcDbEntity
8
0
100
AcDbBlockEnd
0
BLOCK
5
4B
330
4A
100
AcDbEntity
8
0
100
AcDbBlockBegin
2
7-Segment-Medium
70
0
10
0
20
0
3
7-Segment-Medium
1

0
LINE
5
5B
100
AcDbEntity
8
0
6
ByLayer
62
256
370
-1
100
AcDbLine
10
0
20
-34.85
11
47.8
21
-34.85
0
LINE
5
5C
100
AcDbEntity
8
0
6
ByLayer
62
256
370
-1
100
AcDbLine
10
47.8
20
-34.85
11
47.8
21
34.85
0
LINE
5
5D
100
AcDbEntity
8
0
6
ByLayer
62
256
370
-1
100
AcDbLine
10
47.8
20
34.85
11
0
21
34.85
0
LINE
5
5E
100
AcDbEntity
8
0
6
ByLayer
62
256
370
-1
100
AcDbLine
10
0
20
34.85
11
0
21
-34.85
0
POINT
5
5F
100
AcDbEntity
8
loecher
6
ByLayer
62
256
370
-1
100
AcDbPoint
10
23.9
20
30.1
0
POINT
5
60
100
AcDbEntity
8
loecher
6
ByLayer
62
256
370
-1
100
AcDbPoint
10
23.9
20
-30.1
0
POINT
5
61
100
AcDbEntity
8
loecher
6
ByLayer
62
256
370
-1
100
AcDbPoint
10
26.44
20
-30.1
0
POINT
5
62
100
AcDbEntity
8
loecher
6
ByLayer
62
256
370
-1
100
AcDbPoint
10
21.36
20
-30.1
0
POINT
5
63
100
AcDbEntity
8
loecher
6
ByLayer
62
256
370
-1
100
AcDbPoint
10
21.36
20
30.1
0
POINT
5
64
100
AcDbEntity
8
loecher
6
ByLayer
62
256
370
-1
100
AcDbPoint
10
26.44
20
30.1
0
POINT
5
65
100
AcDbEntity
8
loecher
6
ByLayer
62
256
370
-1
100
AcDbPoint
10
28.98
20
30.1
0
POINT
5
66
100
AcDbEntity
8
loecher
6
ByLayer
62
256
370
-1
100
AcDbPoint
10
18.82
20
30.1
0
POINT
5
67
100
AcDbEntity
8
loecher
6
ByLayer
62
256
370
-1
100
AcDbPoint
10
18.82
20
-30.1
0
POINT
5
68
100
AcDbEntity
8
loecher
6
ByLayer
62
256
370
-1
100
AcDbPoint
10
28.98
20
-30.1
0
ENDBLK
5
4C
330
4A
100
AcDbEntity
8
0
100
AcDbBlockEnd
0
ENDSEC
0
SECTION
2
ENTITIES
0
LINE
5
69
100
AcDbEntity
8
0
6
ByLayer
62
256
370
-1
100
AcDbLine
10
22.86
20
574.008
11
22.742
21
573.865
0
LINE
5
6A
100
AcDbEntity
8
0
6
ByLayer
62
256
370
-1
100
AcDbLine
10
22.742
20
573.865
11
22.607
21
573.738
0
LINE
5
6B
100
AcDbEntity
8
0
6
ByLayer
62
256
370
-1
100
AcDbLine
10
22.607
20
573.738
11
22.457
21
573.63
0
LINE
5
6C
100
AcDbEntity
8
0
6
ByLayer
62
256
370
-1
100
AcDbLine
10
22.295
20
573.54
11
22.123
21
573.472
0
LINE
5
6D
100
AcDbEntity
8
0
6
ByLayer
62
256
370
-1
100
AcDbLine
10
21.943
20
573.426
11
21.76
21
573.403
0
LINE
5
6E
100
AcDbEntity
8
0
6
ByLayer
62
256
370
-1
100
AcDbLine
10
21.574
20
573.403
11
21.391
21
573.426
0
LINE
5
6F
100
AcDbEntity
8
0
6
ByLayer
62
256
370
-1
100
AcDbLine
10
-92.0824902344
20
-218.811865234
11
-107.082490234
21
-218.811865234
0
LINE
5
70
100
AcDbEntity
8
0
6
ByLayer
62
256
370
-1
100
AcDbLine
10
-107.082490234
20
-218.811865234
11
-107.082490234
21
-215.911865234
0
LINE
5
71
100
AcDbEntity
8
0
6
ByLayer
62
256
370
-1
100
AcDbLine
10
-107.082490234
20
-215.911865234
11
-125.363490234
21
-215.911865234
0
LINE
5
72
100
AcDbEntity
8
0
6
ByLayer
62
256
370
-1
100
AcDbLine
10
-128.313490234
20
-215.911865234
11
-146.593490234
21
-215.911865234
0
LINE
5
73
100
AcDbEntity
8
0
6
ByLayer
62
256
370
-1
100
AcDbLine
10
-146.593490234
20
-215.911865234
11
-146.593490234
21
-218.811865234
0
LINE
5
74
100
AcDbEntity
8
0
6
ByLayer
62
256
370
-1
100
AcDbLine
10
-146.593490234
20
-218.811865234
11
-161.593490234
21
-218.811865234
0
LINE
5
75
100
AcDbEntity
8
0
6
ByLayer
62
256
370
-1
100
AcDbLine
10
-161.593490234
20
-218.811865234
11
-161.593490234
21
-215.911865234
0
LINE
5
76
100
AcDbEntity
8
0
6
ByLayer
62
256
370
-1
100
AcDbLine
10
-161.593490234
20
-215.911865234
11
-201.104490234
21
-215.911865234
0
LINE
5
77
100
AcDbEntity
8
0
6
ByLayer
62
256
370
-1
100
AcDbLine
10
-201.104490234
20
-215.911865234
11
-201.104490234
21
-218.811865234
0
LINE
5
78
100
AcDbEntity
8
0
6
ByLayer
62
256
370
-1
100
AcDbLine
10
-201.104490234
20
-218.811865234
11
-216.104490234
21
-218.811865234
0
LINE
5
79
100
AcDbEntity
8
0
6
ByLayer
62
256
370
-1
100
AcDbLine
10
-216.104490234
20
-218.811865234
11
-216.104490234
21
-215.911865234
0
LINE
5
7A
100
AcDbEntity
8
0
6
ByLayer
62
256
370
-1
100
AcDbLine
10
-216.104490234
20
-215.911865234
11
-255.615490234
21
-215.911865234
0
LINE
5
7B
100
AcDbEntity
8
0
6
ByLayer
62
256
370
-1
100
AcDbLine
10
-255.615490234
20
-215.911865234
11
-255.615490234
21
-218.811865234
0
LINE
5
7C
100
AcDbEntity
8
0
6
ByLayer
62
256
370
-1
100
AcDbLine
10
-255.615490234
20
-218.811865234
11
-270.615490234
21
-218.811865234
0
LINE
5
7D
100
AcDbEntity
8
0
6
ByLayer
62
256
370
-1
100
AcDbLine
10
-270.615490234
20
-218.811865234
11
-270.615490234
21
-215.911865234
0
LINE
5
7E
100
AcDbEntity
8
0
6
ByLayer
62
256
370
-1
100
AcDbLine
10
-270.615490234
20
-215.911865234
11
-288.896490234
21
-215.911865234
0
LINE
5
7F
100
AcDbEntity
8
0
6
ByLayer
62
256
370
-1
100
AcDbLine
10
-291.846490234
20
-215.911865234
11
-310.127490234
21
-215.911865234
0
LINE
5
80
100
AcDbEntity
8
0
6
ByLayer
62
256
370
-1
100
AcDbLine
10
-310.127490234
20
-215.911865234
11
-310.127490234
21
-218.811865234
0
LINE
5
81
100
AcDbEntity
8
0
6
ByLayer
62
256
370
-1
100
AcDbLine
10
-310.127490234
20
-218.811865234
11
-325.127490234
21
-218.811865234
0
LINE
5
82
100
AcDbEntity
8
0
6
ByLayer
62
256
370
-1
100
AcDbLine
10
-325.127490234
20
-218.811865234
11
-325.127490234
21
-215.911865234
0
LINE
5
83
100
AcDbEntity
8
0
6
ByLayer
62
256
370
-1
100
AcDbLine
10
-325.127490234
20
-215.911865234
11
-364.638490234
21
-215.911865234
0
LINE
5
84
100
AcDbEntity
8
0
6
ByLayer
62
256
370
-1
100
AcDbLine
10
-364.638490234
20
-215.911865234
11
-364.638490234
21
-218.811865234
0
LINE
5
85
100
AcDbEntity
8
0
6
ByLayer
62
256
370
-1
100
AcDbLine
10
-364.638490234
20
-218.811865234
11
-379.638490234
21
-218.811865234
0
LINE
5
86
100
AcDbEntity
8
0
6
ByLayer
62
256
370
-1
100
AcDbLine
10
-379.638490234
20
-218.811865234
11
-379.638490234
21
-215.911865234
0
LINE
5
87
100
AcDbEntity
8
0
6
ByLayer
62
256
370
-1
100
AcDbLine
10
-379.638490234
20
-215.911865234
11
-419.149490234
21
-215.911865234
0
LINE
5
88
100
AcDbEntity
8
0
6
ByLayer
62
256
370
-1
100
AcDbLine
10
-419.149490234
20
-215.911865234
11
-419.149490234
21
-218.811865234
0
LINE
5
89
100
AcDbEntity
8
0
6
ByLayer
62
256
370
-1
100
AcDbLine
10
-419.149490234
20
-218.811865234
11
-434.149490234
21
-218.811865234
0
LINE
5
8A
100
AcDbEntity
8
0
6
ByLayer
62
256
370
-1
100
AcDbLine
10
-434.149490234
20
-218.811865234
11
-434.149490234
21
-215.911865234
0
LINE
5
8B
100
AcDbEntity
8
0
6
ByLayer
62
256
370
-1
100
AcDbLine
10
-434.149490234
20
-215.911865234
11
-473.660490234
21
-215.911865234
0
LINE
5
8C
100
AcDbEntity
8
0
6
ByLayer
62
256
370
-1
100
AcDbLine
10
-473.660490234
20
-215.911865234
11
-473.660490234
21
-218.811865234
0
LINE
5
8D
100
AcDbEntity
8
0
6
ByLayer
62
256
370
-1
100
AcDbLine
10
-473.660490234
20
-218.811865234
11
-488.660490234
21
-218.811865234
0
LINE
5
8E
100
AcDbEntity
8
0
6
ByLayer
62
256
370
-1
100
AcDbLine
10
-488.660490234
20
-218.811865234
11
-488.660490234
21
-215.911865234
0
LINE
5
8F
100
AcDbEntity
8
0
6
ByLayer
62
256
370
-1
100
AcDbLine
10
-488.660490234
20
-215.911865234
11
-506.940490234
21
-215.911865234
0
LINE
5
90
100
AcDbEntity
8
0
6
ByLayer
62
256
370
-1
100
AcDbLine
10
-509.890490234
20
-215.911865234
11
-528.171490234
21
-215.911865234
0
LINE
5
91
100
AcDbEntity
8
0
6
ByLayer
62
256
370
-1
100
AcDbLine
10
-528.171490234
20
-215.911865234
11
-528.171490234
21
-218.811865234
0
LINE
5
92
100
AcDbEntity
8
0
6
ByLayer
62
256
370
-1
100
AcDbLine
10
-528.171490234
20
-218.811865234
11
-543.171490234
21
-218.811865234
0
LINE
5
93
100
AcDbEntity
8
0
6
ByLayer
62
256
370
-1
100
AcDbLine
10
-543.171490234
20
-218.811865234
11
-543.171490234
21
-215.911865234
0
LINE
5
94
100
AcDbEntity
8
0
6
ByLayer
62
256
370
-1
100
AcDbLine
10
-543.171490234
20
-215.911865234
11
-565.827490234
21
-215.911865234
0
LINE
5
95
100
AcDbEntity
8
0
6
ByLayer
62
256
370
-1
100
AcDbLine
10
-565.827490234
20
-215.911865234
11
-565.827490234
21
-201.745865234
0
LINE
5
96
100
AcDbEntity
8
0
6
ByLayer
62
256
370
-1
100
AcDbLine
10
-565.827490234
20
-201.745865234
11
-562.927490234
21
-201.745865234
0
LINE
5
97
100
AcDbEntity
8
0
6
ByLayer
62
256
370
-1
100
AcDbLine
10
-562.927490234
20
-201.745865234
11
-562.927490234
21
-186.745865234
0
LINE
5
98
100
AcDbEntity
8
0
6
ByLayer
62
256
370
-1
100
AcDbLine
10
-562.927490234
20
-186.745865234
11
-565.827490234
21
-186.745865234
0
LINE
5
99
100
AcDbEntity
8
0
6
ByLayer
62
256
370
-1
100
AcDbLine
10
-565.827490234
20
-186.745865234
11
-565.827490234
21
-158.411865234
0
LINE
5
9A
100
AcDbEntity
8
0
6
ByLayer
62
256
370
-1
100
AcDbLine
10
-565.827490234
20
-158.411865234
11
-562.927490234
21
-158.411865234
0
LINE
5
9B
100
AcDbEntity
8
0
6
ByLayer
62
256
370
-1
100
AcDbLine
10
-562.927490234
20
-158.411865234
11
-562.927490234
21
-143.411865234
0
LINE
5
9C
100
AcDbEntity
8
0
6
ByLayer
62
256
370
-1
100
AcDbLine
10
-562.927490234
20
-143.411865234
11
-565.827490234
21
-143.411865234
0
LINE
5
9D
100
AcDbEntity
8
0
6
ByLayer
62
256
370
-1
100
AcDbLine
10
-565.827490234
20
-143.411865234
11
-565.827490234
21
-115.078865234
0
LINE
5
9E
100
AcDbEntity
8
0
6
ByLayer
62
256
370
-1
100
AcDbLine
10
-565.827490234
20
-115.078865234
11
-562.927490234
21
-115.078865234
0
LINE
5
9F
100
AcDbEntity
8
0
6
ByLayer
62
256
370
-1
100
AcDbLine
10
-562.927490234
20
-115.078865234
11
-562.927490234
21
-100.078865234
0
LINE
5
A0
100
AcDbEntity
8
0
6
ByLayer
62
256
370
-1
100
AcDbLine
10
-562.927490234
20
-100.078865234
11
-565.827490234
21
-100.078865234
0
LINE
5
A1
100
AcDbEntity
8
0
6
ByLayer
62
256
370
-1
100
AcDbLine
10
-565.827490234
20
-100.078865234
11
-565.827490234
21
-85.9118652345
0
LINE
5
A2
100
AcDbEntity
8
0
6
ByLayer
62
256
370
-1
100
AcDbLine
10
-565.827490234
20
-85.9118652345
11
-543.171490234
21
-85.9118652345
0
LINE
5
A3
100
AcDbEntity
8
0
6
ByLayer
62
256
370
-1
100
AcDbLine
10
-543.171490234
20
-85.9118652345
11
-543.171490234
21
-83.0118652345
0
LINE
5
A4
100
AcDbEntity
8
0
6
ByLayer
62
256
370
-1
100
AcDbLine
10
-543.171490234
20
-83.0118652345
11
-528.171490234
21
-83.0118652345
0
LINE
5
A5
100
AcDbEntity
8
0
6
ByLayer
62
256
370
-1
100
AcDbLine
10
-528.171490234
20
-83.0118652345
11
-528.171490234
21
-85.9118652345
0
LINE
5
A6
100
AcDbEntity
8
0
6
ByLayer
62
256
370
-1
100
AcDbLine
10
-528.171490234
20
-85.9118652345
11
-509.890490234
21
-85.9118652345
0
LINE
5
A7
100
AcDbEntity
8
0
6
ByLayer
62
256
370
-1
100
AcDbLine
10
-506.940490234
20
-85.9118652345
11
-488.660490234
21
-85.9118652345
0
LINE
5
A8
100
AcDbEntity
8
0
6
ByLayer
62
256
370
-1
100
AcDbLine
10
-488.660490234
20
-85.9118652345
11
-488.660490234
21
-83.0118652345
0
LINE
5
A9
100
AcDbEntity
8
0
6
ByLayer
62
256
370
-1
100
AcDbLine
10
-488.660490234
20
-83.0118652345
11
-473.660490234
21
-83.0118652345
0
LINE
5
AA
100
AcDbEntity
8
0
6
ByLayer
62
256
370
-1
100
AcDbLine
10
-473.660490234
20
-83.0118652345
11
-473.660490234
21
-85.9118652345
0
LINE
5
AB
100
AcDbEntity
8
0
6
ByLayer
62
256
370
-1
100
AcDbLine
10
-473.660490234
20
-85.9118652345
11
-434.149490234
21
-85.9118652345
0
LINE
5
AC
100
AcDbEntity
8
0
6
ByLayer
62
256
370
-1
100
AcDbLine
10
-434.149490234
20
-85.9118652345
11
-434.149490234
21
-83.0118652345
0
LINE
5
AD
100
AcDbEntity
8
0
6
ByLayer
62
256
370
-1
100
AcDbLine
10
-434.149490234
20
-83.0118652345
11
-419.149490234
21
-83.0118652345
0
LINE
5
AE
100
AcDbEntity
8
0
6
ByLayer
62
256
370
-1
100
AcDbLine
10
-419.149490234
20
-83.0118652345
11
-419.149490234
21
-85.9118652345
0
LINE
5
AF
100
AcDbEntity
8
0
6
ByLayer
62
256
370
-1
100
AcDbLine
10
-419.149490234
20
-85.9118652345
11
-379.638490234
21
-85.9118652345
0
LINE
5
B0
100
AcDbEntity
8
0
6
ByLayer
62
256
370
-1
100
AcDbLine
10
-379.638490234
20
-85.9118652345
11
-379.638490234
21
-83.0118652345
0
LINE
5
B1
100
AcDbEntity
8
0
6
ByLayer
62
256
370
-1
100
AcDbLine
10
-379.638490234
20
-83.0118652345
11
-364.638490234
21
-83.0118652345
0
LINE
5
B2
100
AcDbEntity
8
0
6
ByLayer
62
256
370
-1
100
AcDbLine
10
-364.638490234
20
-83.0118652345
11
-364.638490234
21
-85.9118652345
0
LINE
5
B3
100
AcDbEntity
8
0
6
ByLayer
62
256
370
-1
100
AcDbLine
10
-364.638490234
20
-85.9118652345
11
-325.127490234
21
-85.9118652345
0
LINE
5
B4
100
AcDbEntity
8
0
6
ByLayer
62
256
370
-1
100
AcDbLine
10
-325.127490234
20
-85.9118652345
11
-325.127490234
21
-83.0118652345
0
LINE
5
B5
100
AcDbEntity
8
0
6
ByLayer
62
256
370
-1
100
AcDbLine
10
-325.127490234
20
-83.0118652345
11
-310.127490234
21
-83.0118652345
0
LINE
5
B6
100
AcDbEntity
8
0
6
ByLayer
62
256
370
-1
100
AcDbLine
10
-310.127490234
20
-83.0118652345
11
-310.127490234
21
-85.9118652345
0
LINE
5
B7
100
AcDbEntity
8
0
6
ByLayer
62
256
370
-1
100
AcDbLine
10
-310.127490234
20
-85.9118652345
11
-291.846490234
21
-85.9118652345
0
LINE
5
B8
100
AcDbEntity
8
0
6
ByLayer
62
256
370
-1
100
AcDbLine
10
-288.896490234
20
-85.9118652345
11
-270.615490234
21
-85.9118652345
0
LINE
5
B9
100
AcDbEntity
8
0
6
ByLayer
62
256
370
-1
100
AcDbLine
10
-270.615490234
20
-85.9118652345
11
-270.615490234
21
-83.0118652345
0
LINE
5
BA
100
AcDbEntity
8
0
6
ByLayer
62
256
370
-1
100
AcDbLine
10
-270.615490234
20
-83.0118652345
11
-255.615490234
21
-83.0118652345
0
LINE
5
BB
100
AcDbEntity
8
0
6
ByLayer
62
256
370
-1
100
AcDbLine
10
-255.615490234
20
-83.0118652345
11
-255.615490234
21
-85.9118652345
0
LINE
5
BC
100
AcDbEntity
8
0
6
ByLayer
62
256
370
-1
100
AcDbLine
10
-255.615490234
20
-85.9118652345
11
-216.104490234
21
-85.9118652345
0
LINE
5
BD
100
AcDbEntity
8
0
6
ByLayer
62
256
370
-1
100
AcDbLine
10
-216.104490234
20
-85.9118652345
11
-216.104490234
21
-83.0118652345
0
LINE
5
BE
100
AcDbEntity
8
0
6
ByLayer
62
256
370
-1
100
AcDbLine
10
-216.104490234
20
-83.0118652345
11
-201.104490234
21
-83.0118652345
0
LINE
5
BF
100
AcDbEntity
8
0
6
ByLayer
62
256
370
-1
100
AcDbLine
10
-201.104490234
20
-83.0118652345
11
-201.104490234
21
-85.9118652345
0
LINE
5
C0
100
AcDbEntity
8
0
6
ByLayer
62
256
370
-1
100
AcDbLine
10
-201.104490234
20
-85.9118652345
11
-161.593490234
21
-85.9118652345
0
LINE
5
C1
100
AcDbEntity
8
0
6
ByLayer
62
256
370
-1
100
AcDbLine
10
-161.593490234
20
-85.9118652345
11
-161.593490234
21
-83.0118652345
0
LINE
5
C2
100
AcDbEntity
8
0
6
ByLayer
62
256
370
-1
100
AcDbLine
10
-161.593490234
20
-83.0118652345
11
-146.593490234
21
-83.0118652345
0
LINE
5
C3
100
AcDbEntity
8
0
6
ByLayer
62
256
370
-1
100
AcDbLine
10
-146.593490234
20
-83.0118652345
11
-146.593490234
21
-85.9118652345
0
LINE
5
C4
100
AcDbEntity
8
0
6
ByLayer
62
256
370
-1
100
AcDbLine
10
-146.593490234
20
-85.9118652345
11
-128.313490234
21
-85.9118652345
0
LINE
5
C5
100
AcDbEntity
8
0
6
ByLayer
62
256
370
-1
100
AcDbLine
10
-125.363490234
20
-85.9118652345
11
-107.082490234
21
-85.9118652345
0
LINE
5
C6
100
AcDbEntity
8
0
6
ByLayer
62
256
370
-1
100
AcDbLine
10
-107.082490234
20
-85.9118652345
11
-107.082490234
21
-83.0118652345
0
LINE
5
C7
100
AcDbEntity
8
0
6
ByLayer
62
256
370
-1
100
AcDbLine
10
-107.082490234
20
-83.0118652345
11
-92.0824902344
21
-83.0118652345
0
LINE
5
C8
100
AcDbEntity
8
0
6
ByLayer
62
256
370
-1
100
AcDbLine
10
-92.0824902344
20
-83.0118652345
11
-92.0824902344
21
-85.9118652345
0
LINE
5
C9
100
AcDbEntity
8
0
6
ByLayer
62
256
370
-1
100
AcDbLine
10
-92.0824902344
20
-85.9118652345
11
-69.4274902344
21
-85.9118652345
0
LINE
5
CA
100
AcDbEntity
8
0
6
ByLayer
62
256
370
-1
100
AcDbLine
10
-69.4274902344
20
-85.9118652345
11
-69.4274902344
21
-100.078865234
0
LINE
5
CB
100
AcDbEntity
8
0
6
ByLayer
62
256
370
-1
100
AcDbLine
10
-69.4274902344
20
-100.078865234
11
-72.3274902344
21
-100.078865234
0
LINE
5
CC
100
AcDbEntity
8
0
6
ByLayer
62
256
370
-1
100
AcDbLine
10
-72.3274902344
20
-100.078865234
11
-72.3274902344
21
-115.078865234
0
LINE
5
CD
100
AcDbEntity
8
0
6
ByLayer
62
256
370
-1
100
AcDbLine
10
-72.3274902344
20
-115.078865234
11
-69.4274902344
21
-115.078865234
0
LINE
5
CE
100
AcDbEntity
8
0
6
ByLayer
62
256
370
-1
100
AcDbLine
10
-69.4274902344
20
-115.078865234
11
-69.4274902344
21
-143.411865234
0
LINE
5
CF
100
AcDbEntity
8
0
6
ByLayer
62
256
370
-1
100
AcDbLine
10
-69.4274902344
20
-143.411865234
11
-72.3274902344
21
-143.411865234
0
LINE
5
D0
100
AcDbEntity
8
0
6
ByLayer
62
256
370
-1
100
AcDbLine
10
-72.3274902344
20
-143.411865234
11
-72.3274902344
21
-158.411865234
0
LINE
5
D1
100
AcDbEntity
8
0
6
ByLayer
62
256
370
-1
100
AcDbLine
10
-72.3274902344
20
-158.411865234
11
-69.4274902344
21
-158.411865234
0
LINE
5
D2
100
AcDbEntity
8
0
6
ByLayer
62
256
370
-1
100
AcDbLine
10
-69.4274902344
20
-158.411865234
11
-69.4274902344
21
-186.745865234
0
LINE
5
D3
100
AcDbEntity
8
0
6
ByLayer
62
256
370
-1
100
AcDbLine
10
-69.4274902344
20
-186.745865234
11
-72.3274902344
21
-186.745865234
0
LINE
5
D4
100
AcDbEntity
8
0
6
ByLayer
62
256
370
-1
100
AcDbLine
10
-72.3274902344
20
-186.745865234
11
-72.3274902344
21
-201.745865234
0
LINE
5
D5
100
AcDbEntity
8
0
6
ByLayer
62
256
370
-1
100
AcDbLine
10
-72.3274902344
20
-201.745865234
11
-69.4274902344
21
-201.745865234
0
LINE
5
D6
100
AcDbEntity
8
0
6
ByLayer
62
256
370
-1
100
AcDbLine
10
-69.4274902344
20
-201.745865234
11
-69.4274902344
21
-215.911865234
0
LINE
5
D7
100
AcDbEntity
8
0
6
ByLayer
62
256
370
-1
100
AcDbLine
10
-69.4274902344
20
-215.911865234
11
-92.0824902344
21
-215.911865234
0
LINE
5
D8
100
AcDbEntity
8
0
6
ByLayer
62
256
370
-1
100
AcDbLine
10
-92.0824902344
20
-215.911865234
11
-92.0824902344
21
-218.811865234
0
LINE
5
D9
100
AcDbEntity
8
0
6
ByLayer
62
256
370
-1
100
AcDbLine
10
-509.890490234
20
-215.911865234
11
-506.940490234
21
-215.911865234
0
LINE
5
DA
100
AcDbEntity
8
0
6
ByLayer
62
256
370
-1
100
AcDbLine
10
-509.890490234
20
-85.9118652345
11
-506.940490234
21
-85.9118652345
0
LINE
5
DB
100
AcDbEntity
8
0
6
ByLayer
62
256
370
-1
100
AcDbLine
10
-291.846490234
20
-215.911865234
11
-288.896490234
21
-215.911865234
0
LINE
5
DC
100
AcDbEntity
8
0
6
ByLayer
62
256
370
-1
100
AcDbLine
10
-291.846490234
20
-85.9118652345
11
-288.896490234
21
-85.9118652345
0
LINE
5
DD
100
AcDbEntity
8
0
6
ByLayer
62
256
370
-1
100
AcDbLine
10
-128.313490234
20
-215.911865234
11
-125.363490234
21
-215.911865234
0
LINE
5
DE
100
AcDbEntity
8
0
6
ByLayer
62
256
370
-1
100
AcDbLine
10
-128.313490234
20
-85.9118652345
11
-125.363490234
21
-85.9118652345
0
POINT
5
DF
100
AcDbEntity
8
loecher
6
ByLayer
62
256
370
-1
100
AcDbPoint
10
-492.927490234
20
-97.1618652345
0
POINT
5
E0
100
AcDbEntity
8
loecher
6
ByLayer
62
256
370
-1
100
AcDbPoint
10
-497.927490234
20
-97.1618652345
0
POINT
5
E1
100
AcDbEntity
8
loecher
6
ByLayer
62
256
370
-1
100
AcDbPoint
10
-502.927490234
20
-97.1618652345
0
POINT
5
E2
100
AcDbEntity
8
loecher
6
ByLayer
62
256
370
-1
100
AcDbPoint
10
-507.927490234
20
-97.1618652345
0
POINT
5
E3
100
AcDbEntity
8
loecher
6
ByLayer
62
256
370
-1
100
AcDbPoint
10
-512.927490234
20
-97.1618652345
0
POINT
5
E4
100
AcDbEntity
8
loecher
6
ByLayer
62
256
370
-1
100
AcDbPoint
10
-512.927490234
20
-204.161865234
0
POINT
5
E5
100
AcDbEntity
8
loecher
6
ByLayer
62
256
370
-1
100
AcDbPoint
10
-507.927490234
20
-204.161865234
0
POINT
5
E6
100
AcDbEntity
8
loecher
6
ByLayer
62
256
370
-1
100
AcDbPoint
10
-502.927490234
20
-204.161865234
0
POINT
5
E7
100
AcDbEntity
8
loecher
6
ByLayer
62
256
370
-1
100
AcDbPoint
10
-497.927490234
20
-204.161865234
0
POINT
5
E8
100
AcDbEntity
8
loecher
6
ByLayer
62
256
370
-1
100
AcDbPoint
10
-492.927490234
20
-204.161865234
0
POINT
5
E9
100
AcDbEntity
8
loecher
6
ByLayer
62
256
370
-1
100
AcDbPoint
10
-401.927490234
20
-97.1618652345
0
POINT
5
EA
100
AcDbEntity
8
loecher
6
ByLayer
62
256
370
-1
100
AcDbPoint
10
-406.927490234
20
-97.1618652345
0
POINT
5
EB
100
AcDbEntity
8
loecher
6
ByLayer
62
256
370
-1
100
AcDbPoint
10
-411.927490234
20
-97.1618652345
0
POINT
5
EC
100
AcDbEntity
8
loecher
6
ByLayer
62
256
370
-1
100
AcDbPoint
10
-416.927490234
20
-97.1618652345
0
POINT
5
ED
100
AcDbEntity
8
loecher
6
ByLayer
62
256
370
-1
100
AcDbPoint
10
-421.927490234
20
-97.1618652345
0
POINT
5
EE
100
AcDbEntity
8
loecher
6
ByLayer
62
256
370
-1
100
AcDbPoint
10
-421.927490234
20
-204.161865234
0
POINT
5
EF
100
AcDbEntity
8
loecher
6
ByLayer
62
256
370
-1
100
AcDbPoint
10
-416.927490234
20
-204.161865234
0
POINT
5
F0
100
AcDbEntity
8
loecher
6
ByLayer
62
256
370
-1
100
AcDbPoint
10
-411.927490234
20
-204.161865234
0
POINT
5
F1
100
AcDbEntity
8
loecher
6
ByLayer
62
256
370
-1
100
AcDbPoint
10
-406.927490234
20
-204.161865234
0
POINT
5
F2
100
AcDbEntity
8
loecher
6
ByLayer
62
256
370
-1
100
AcDbPoint
10
-401.927490234
20
-204.161865234
0
POINT
5
F3
100
AcDbEntity
8
loecher
6
ByLayer
62
256
370
-1
100
AcDbPoint
10
-342.027490234
20
-120.811865234
0
POINT
5
F4
100
AcDbEntity
8
loecher
6
ByLayer
62
256
370
-1
100
AcDbPoint
10
-342.027490234
20
-181.011865234
0
POINT
5
F5
100
AcDbEntity
8
loecher
6
ByLayer
62
256
370
-1
100
AcDbPoint
10
-339.487490234
20
-181.011865234
0
POINT
5
F6
100
AcDbEntity
8
loecher
6
ByLayer
62
256
370
-1
100
AcDbPoint
10
-344.567490234
20
-181.011865234
0
POINT
5
F7
100
AcDbEntity
8
loecher
6
ByLayer
62
256
370
-1
100
AcDbPoint
10
-344.567490234
20
-120.811865234
0
POINT
5
F8
100
AcDbEntity
8
loecher
6
ByLayer
62
256
370
-1
100
AcDbPoint
10
-339.487490234
20
-120.811865234
0
POINT
5
F9
100
AcDbEntity
8
loecher
6
ByLayer
62
256
370
-1
100
AcDbPoint
10
-336.947490234
20
-120.811865234
0
POINT
5
FA
100
AcDbEntity
8
loecher
6
ByLayer
62
256
370
-1
100
AcDbPoint
10
-347.107490234
20
-120.811865234
0
POINT
5
FB
100
AcDbEntity
8
loecher
6
ByLayer
62
256
370
-1
100
AcDbPoint
10
-347.107490234
20
-181.011865234
0
POINT
5
FC
100
AcDbEntity
8
loecher
6
ByLayer
62
256
370
-1
100
AcDbPoint
10
-336.947490234
20
-181.011865234
0
POINT
5
FD
100
AcDbEntity
8
loecher
6
ByLayer
62
256
370
-1
100
AcDbPoint
10
-293.227490234
20
-120.811865234
0
POINT
5
FE
100
AcDbEntity
8
loecher
6
ByLayer
62
256
370
-1
100
AcDbPoint
10
-293.227490234
20
-181.011865234
0
POINT
5
FF
100
AcDbEntity
8
loecher
6
ByLayer
62
256
370
-1
100
AcDbPoint
10
-290.687490234
20
-181.011865234
0
POINT
5
100
100
AcDbEntity
8
loecher
6
ByLayer
62
256
370
-1
100
AcDbPoint
10
-295.767490234
20
-181.011865234
0
POINT
5
101
100
AcDbEntity
8
loecher
6
ByLayer
62
256
370
-1
100
AcDbPoint
10
-295.767490234
20
-120.811865234
0
POINT
5
102
100
AcDbEntity
8
loecher
6
ByLayer
62
256
370
-1
100
AcDbPoint
10
-290.687490234
20
-120.811865234
0
POINT
5
103
100
AcDbEntity
8
loecher
6
ByLayer
62
256
370
-1
100
AcDbPoint
10
-288.147490234
20
-120.811865234
0
POINT
5
104
100
AcDbEntity
8
loecher
6
ByLayer
62
256
370
-1
100
AcDbPoint
10
-298.307490234
20
-120.811865234
0
POINT
5
105
100
AcDbEntity
8
loecher
6
ByLayer
62
256
370
-1
100
AcDbPoint
10
-298.307490234
20
-181.011865234
0
POINT
5
106
100
AcDbEntity
8
loecher
6
ByLayer
62
256
370
-1
100
AcDbPoint
10
-288.147490234
20
-181.011865234
0
POINT
5
107
100
AcDbEntity
8
loecher
6
ByLayer
62
256
370
-1
100
AcDbPoint
10
-213.327490234
20
-97.1618652345
0
POINT
5
108
100
AcDbEntity
8
loecher
6
ByLayer
62
256
370
-1
100
AcDbPoint
10
-218.327490234
20
-97.1618652345
0
POINT
5
109
100
AcDbEntity
8
loecher
6
ByLayer
62
256
370
-1
100
AcDbPoint
10
-223.327490234
20
-97.1618652345
0
POINT
5
10A
100
AcDbEntity
8
loecher
6
ByLayer
62
256
370
-1
100
AcDbPoint
10
-228.327490234
20
-97.1618652345
0
POINT
5
10B
100
AcDbEntity
8
loecher
6
ByLayer
62
256
370
-1
100
AcDbPoint
10
-233.327490234
20
-97.1618652345
0
POINT
5
10C
100
AcDbEntity
8
loecher
6
ByLayer
62
256
370
-1
100
AcDbPoint
10
-233.327490234
20
-204.161865234
0
POINT
5
10D
100
AcDbEntity
8
loecher
6
ByLayer
62
256
370
-1
100
AcDbPoint
10
-228.327490234
20
-204.161865234
0
POINT
5
10E
100
AcDbEntity
8
loecher
6
ByLayer
62
256
370
-1
100
AcDbPoint
10
-223.327490234
20
-204.161865234
0
POINT
5
10F
100
AcDbEntity
8
loecher
6
ByLayer
62
256
370
-1
100
AcDbPoint
10
-218.327490234
20
-204.161865234
0
POINT
5
110
100
AcDbEntity
8
loecher
6
ByLayer
62
256
370
-1
100
AcDbPoint
10
-213.327490234
20
-204.161865234
0
POINT
5
111
100
AcDbEntity
8
loecher
6
ByLayer
62
256
370
-1
100
AcDbPoint
10
-122.327490234
20
-97.1618652345
0
POINT
5
112
100
AcDbEntity
8
loecher
6
ByLayer
62
256
370
-1
100
AcDbPoint
10
-127.327490234
20
-97.1618652345
0
POINT
5
113
100
AcDbEntity
8
loecher
6
ByLayer
62
256
370
-1
100
AcDbPoint
10
-132.327490234
20
-97.1618652345
0
POINT
5
114
100
AcDbEntity
8
loecher
6
ByLayer
62
256
370
-1
100
AcDbPoint
10
-137.327490234
20
-97.1618652345
0
POINT
5
115
100
AcDbEntity
8
loecher
6
ByLayer
62
256
370
-1
100
AcDbPoint
10
-142.327490234
20
-97.1618652345
0
POINT
5
116
100
AcDbEntity
8
loecher
6
ByLayer
62
256
370
-1
100
AcDbPoint
10
-142.327490234
20
-204.161865234
0
POINT
5
117
100
AcDbEntity
8
loecher
6
ByLayer
62
256
370
-1
100
AcDbPoint
10
-137.327490234
20
-204.161865234
0
POINT
5
118
100
AcDbEntity
8
loecher
6
ByLayer
62
256
370
-1
100
AcDbPoint
10
-132.327490234
20
-204.161865234
0
POINT
5
119
100
AcDbEntity
8
loecher
6
ByLayer
62
256
370
-1
100
AcDbPoint
10
-127.327490234
20
-204.161865234
0
POINT
5
11A
100
AcDbEntity
8
loecher
6
ByLayer
62
256
370
-1
100
AcDbPoint
10
-122.327490234
20
-204.161865234
0
LINE
5
11B
100
AcDbEntity
8
0
6
ByLayer
62
256
370
-1
100
AcDbLine
10
-565.85
20
-80.15
11
-565.85
21
-59.5
0
LINE
5
11C
100
AcDbEntity
8
0
6
ByLayer
62
256
370
-1
100
AcDbLine
10
-565.85
20
-59.5
11
-562.95
21
-59.5
0
LINE
5
11D
100
AcDbEntity
8
0
6
ByLayer
62
256
370
-1
100
AcDbLine
10
-562.95
20
-59.5
11
-562.95
21
-44.5
0
LINE
5
11E
100
AcDbEntity
8
0
6
ByLayer
62
256
370
-1
100
AcDbLine
10
-562.95
20
-44.5
11
-565.85
21
-44.5
0
LINE
5
11F
100
AcDbEntity
8
0
6
ByLayer
62
256
370
-1
100
AcDbLine
10
-565.85
20
-44.5
11
-565.85
21
-9
0
LINE
5
120
100
AcDbEntity
8
0
6
ByLayer
62
256
370
-1
100
AcDbLine
10
-565.85
20
-9
11
-562.95
21
-9
0
LINE
5
121
100
AcDbEntity
8
0
6
ByLayer
62
256
370
-1
100
AcDbLine
10
-562.95
20
-9
11
-562.95
21
6
0
LINE
5
122
100
AcDbEntity
8
0
6
ByLayer
62
256
370
-1
100
AcDbLine
10
-562.95
20
6
11
-565.85
21
6
0
LINE
5
123
100
AcDbEntity
8
0
6
ByLayer
62
256
370
-1
100
AcDbLine
10
-565.85
20
6
11
-565.85
21
41.5
0
LINE
5
124
100
AcDbEntity
8
0
6
ByLayer
62
256
370
-1
100
AcDbLine
10
-565.85
20
41.5
11
-562.95
21
41.5
0
LINE
5
125
100
AcDbEntity
8
0
6
ByLayer
62
256
370
-1
100
AcDbLine
10
-562.95
20
41.5
11
-562.95
21
56.5
0
LINE
5
126
100
AcDbEntity
8
0
6
ByLayer
62
256
370
-1
100
AcDbLine
10
-562.95
20
56.5
11
-565.85
21
56.5
0
LINE
5
127
100
AcDbEntity
8
0
6
ByLayer
62
256
370
-1
100
AcDbLine
10
-565.85
20
56.5
11
-565.85
21
77.15
0
LINE
5
128
100
AcDbEntity
8
0
6
ByLayer
62
256
370
-1
100
AcDbLine
10
-565.85
20
77.15
11
-543.195
21
77.15
0
LINE
5
129
100
AcDbEntity
8
0
6
ByLayer
62
256
370
-1
100
AcDbLine
10
-543.195
20
77.15
11
-543.195
21
74.25
0
LINE
5
12A
100
AcDbEntity
8
0
6
ByLayer
62
256
370
-1
100
AcDbLine
10
-543.195
20
74.25
11
-528.195
21
74.25
0
LINE
5
12B
100
AcDbEntity
8
0
6
ByLayer
62
256
370
-1
100
AcDbLine
10
-528.195
20
74.25
11
-528.195
21
77.15
0
LINE
5
12C
100
AcDbEntity
8
0
6
ByLayer
62
256
370
-1
100
AcDbLine
10
-528.195
20
77.15
11
-488.684
21
77.15
0
LINE
5
12D
100
AcDbEntity
8
0
6
ByLayer
62
256
370
-1
100
AcDbLine
10
-488.684
20
77.15
11
-488.684
21
74.25
0
LINE
5
12E
100
AcDbEntity
8
0
6
ByLayer
62
256
370
-1
100
AcDbLine
10
-488.684
20
74.25
11
-473.684
21
74.25
0
LINE
5
12F
100
AcDbEntity
8
0
6
ByLayer
62
256
370
-1
100
AcDbLine
10
-473.684
20
74.25
11
-473.684
21
77.15
0
LINE
5
130
100
AcDbEntity
8
0
6
ByLayer
62
256
370
-1
100
AcDbLine
10
-473.684
20
77.15
11
-434.173
21
77.15
0
LINE
5
131
100
AcDbEntity
8
0
6
ByLayer
62
256
370
-1
100
AcDbLine
10
-434.173
20
77.15
11
-434.173
21
74.25
0
LINE
5
132
100
AcDbEntity
8
0
6
ByLayer
62
256
370
-1
100
AcDbLine
10
-434.173
20
74.25
11
-419.173
21
74.25
0
LINE
5
133
100
AcDbEntity
8
0
6
ByLayer
62
256
370
-1
100
AcDbLine
10
-419.173
20
74.25
11
-419.173
21
77.15
0
LINE
5
134
100
AcDbEntity
8
0
6
ByLayer
62
256
370
-1
100
AcDbLine
10
-419.173
20
77.15
11
-379.662
21
77.15
0
LINE
5
135
100
AcDbEntity
8
0
6
ByLayer
62
256
370
-1
100
AcDbLine
10
-379.662
20
77.15
11
-379.662
21
74.25
0
LINE
5
136
100
AcDbEntity
8
0
6
ByLayer
62
256
370
-1
100
AcDbLine
10
-379.662
20
74.25
11
-364.662
21
74.25
0
LINE
5
137
100
AcDbEntity
8
0
6
ByLayer
62
256
370
-1
100
AcDbLine
10
-364.662
20
74.25
11
-364.662
21
77.15
0
LINE
5
138
100
AcDbEntity
8
0
6
ByLayer
62
256
370
-1
100
AcDbLine
10
-364.662
20
77.15
11
-325.15
21
77.15
0
LINE
5
139
100
AcDbEntity
8
0
6
ByLayer
62
256
370
-1
100
AcDbLine
10
-325.15
20
77.15
11
-325.15
21
74.25
0
LINE
5
13A
100
AcDbEntity
8
0
6
ByLayer
62
256
370
-1
100
AcDbLine
10
-325.15
20
74.25
11
-310.15
21
74.25
0
LINE
5
13B
100
AcDbEntity
8
0
6
ByLayer
62
256
370
-1
100
AcDbLine
10
-310.15
20
74.25
11
-310.15
21
77.15
0
LINE
5
13C
100
AcDbEntity
8
0
6
ByLayer
62
256
370
-1
100
AcDbLine
10
-310.15
20
77.15
11
-270.639
21
77.15
0
LINE
5
13D
100
AcDbEntity
8
0
6
ByLayer
62
256
370
-1
100
AcDbLine
10
-270.639
20
77.15
11
-270.639
21
74.25
0
LINE
5
13E
100
AcDbEntity
8
0
6
ByLayer
62
256
370
-1
100
AcDbLine
10
-270.639
20
74.25
11
-255.639
21
74.25
0
LINE
5
13F
100
AcDbEntity
8
0
6
ByLayer
62
256
370
-1
100
AcDbLine
10
-255.639
20
74.25
11
-255.639
21
77.15
0
LINE
5
140
100
AcDbEntity
8
0
6
ByLayer
62
256
370
-1
100
AcDbLine
10
-255.639
20
77.15
11
-216.128
21
77.15
0
LINE
5
141
100
AcDbEntity
8
0
6
ByLayer
62
256
370
-1
100
AcDbLine
10
-216.128
20
77.15
11
-216.128
21
74.25
0
LINE
5
142
100
AcDbEntity
8
0
6
ByLayer
62
256
370
-1
100
AcDbLine
10
-216.128
20
74.25
11
-201.128
21
74.25
0
LINE
5
143
100
AcDbEntity
8
0
6
ByLayer
62
256
370
-1
100
AcDbLine
10
-201.128
20
74.25
11
-201.128
21
77.15
0
LINE
5
144
100
AcDbEntity
8
0
6
ByLayer
62
256
370
-1
100
AcDbLine
10
-201.128
20
77.15
11
-161.617
21
77.15
0
LINE
5
145
100
AcDbEntity
8
0
6
ByLayer
62
256
370
-1
100
AcDbLine
10
-161.617
20
77.15
11
-161.617
21
74.25
0
LINE
5
146
100
AcDbEntity
8
0
6
ByLayer
62
256
370
-1
100
AcDbLine
10
-161.617
20
74.25
11
-146.617
21
74.25
0
LINE
5
147
100
AcDbEntity
8
0
6
ByLayer
62
256
370
-1
100
AcDbLine
10
-146.617
20
74.25
11
-146.617
21
77.15
0
LINE
5
148
100
AcDbEntity
8
0
6
ByLayer
62
256
370
-1
100
AcDbLine
10
-146.617
20
77.15
11
-107.106
21
77.15
0
LINE
5
149
100
AcDbEntity
8
0
6
ByLayer
62
256
370
-1
100
AcDbLine
10
-107.106
20
77.15
11
-107.106
21
74.25
0
LINE
5
14A
100
AcDbEntity
8
0
6
ByLayer
62
256
370
-1
100
AcDbLine
10
-107.106
20
74.25
11
-92.1060000004
21
74.25
0
LINE
5
14B
100
AcDbEntity
8
0
6
ByLayer
62
256
370
-1
100
AcDbLine
10
-92.1060000004
20
74.25
11
-92.1060000004
21
77.15
0
LINE
5
14C
100
AcDbEntity
8
0
6
ByLayer
62
256
370
-1
100
AcDbLine
10
-92.1060000004
20
77.15
11
-69.4500000004
21
77.15
0
LINE
5
14D
100
AcDbEntity
8
0
6
ByLayer
62
256
370
-1
100
AcDbLine
10
-69.4500000004
20
77.15
11
-69.4500000004
21
56.5
0
LINE
5
14E
100
AcDbEntity
8
0
6
ByLayer
62
256
370
-1
100
AcDbLine
10
-69.4500000004
20
56.5
11
-72.3500000004
21
56.5
0
LINE
5
14F
100
AcDbEntity
8
0
6
ByLayer
62
256
370
-1
100
AcDbLine
10
-72.3500000004
20
56.5
11
-72.3500000004
21
41.5
0
LINE
5
150
100
AcDbEntity
8
0
6
ByLayer
62
256
370
-1
100
AcDbLine
10
-72.3500000004
20
41.5
11
-69.4500000004
21
41.5
0
LINE
5
151
100
AcDbEntity
8
0
6
ByLayer
62
256
370
-1
100
AcDbLine
10
-69.4500000004
20
41.5
11
-69.4500000004
21
6
0
LINE
5
152
100
AcDbEntity
8
0
6
ByLayer
62
256
370
-1
100
AcDbLine
10
-69.4500000004
20
6
11
-72.3500000004
21
6
0
LINE
5
153
100
AcDbEntity
8
0
6
ByLayer
62
256
370
-1
100
AcDbLine
10
-72.3500000004
20
6
11
-72.3500000004
21
-9
0
LINE
5
154
100
AcDbEntity
8
0
6
ByLayer
62
256
370
-1
100
AcDbLine
10
-72.3500000004
20
-9
11
-69.4500000004
21
-9
0
LINE
5
155
100
AcDbEntity
8
0
6
ByLayer
62
256
370
-1
100
AcDbLine
10
-69.4500000004
20
-9
11
-69.4500000004
21
-44.5
0
LINE
5
156
100
AcDbEntity
8
0
6
ByLayer
62
256
370
-1
100
AcDbLine
10
-69.4500000004
20
-44.5
11
-72.3500000004
21
-44.5
0
LINE
5
157
100
AcDbEntity
8
0
6
ByLayer
62
256
370
-1
100
AcDbLine
10
-72.3500000004
20
-44.5
11
-72.3500000004
21
-59.5
0
LINE
5
158
100
AcDbEntity
8
0
6
ByLayer
62
256
370
-1
100
AcDbLine
10
-72.3500000004
20
-59.5
11
-69.4500000004
21
-59.5
0
LINE
5
159
100
AcDbEntity
8
0
6
ByLayer
62
256
370
-1
100
AcDbLine
10
-69.4500000004
20
-59.5
11
-69.4500000004
21
-80.15
0
LINE
5
15A
100
AcDbEntity
8
0
6
ByLayer
62
256
370
-1
100
AcDbLine
10
-69.4500000004
20
-80.15
11
-92.1060000004
21
-80.15
0
LINE
5
15B
100
AcDbEntity
8
0
6
ByLayer
62
256
370
-1
100
AcDbLine
10
-92.1060000004
20
-80.15
11
-92.1060000004
21
-77.25
0
LINE
5
15C
100
AcDbEntity
8
0
6
ByLayer
62
256
370
-1
100
AcDbLine
10
-92.1060000004
20
-77.25
11
-107.106
21
-77.25
0
LINE
5
15D
100
AcDbEntity
8
0
6
ByLayer
62
256
370
-1
100
AcDbLine
10
-107.106
20
-77.25
11
-107.106
21
-80.15
0
LINE
5
15E
100
AcDbEntity
8
0
6
ByLayer
62
256
370
-1
100
AcDbLine
10
-107.106
20
-80.15
11
-146.617
21
-80.15
0
LINE
5
15F
100
AcDbEntity
8
0
6
ByLayer
62
256
370
-1
100
AcDbLine
10
-146.617
20
-80.15
11
-146.617
21
-77.25
0
LINE
5
160
100
AcDbEntity
8
0
6
ByLayer
62
256
370
-1
100
AcDbLine
10
-146.617
20
-77.25
11
-161.617
21
-77.25
0
LINE
5
161
100
AcDbEntity
8
0
6
ByLayer
62
256
370
-1
100
AcDbLine
10
-161.617
20
-77.25
11
-161.617
21
-80.15
0
LINE
5
162
100
AcDbEntity
8
0
6
ByLayer
62
256
370
-1
100
AcDbLine
10
-161.617
20
-80.15
11
-201.128
21
-80.15
0
LINE
5
163
100
AcDbEntity
8
0
6
ByLayer
62
256
370
-1
100
AcDbLine
10
-201.128
20
-80.15
11
-201.128
21
-77.25
0
LINE
5
164
100
AcDbEntity
8
0
6
ByLayer
62
256
370
-1
100
AcDbLine
10
-201.128
20
-77.25
11
-216.128
21
-77.25
0
LINE
5
165
100
AcDbEntity
8
0
6
ByLayer
62
256
370
-1
100
AcDbLine
10
-216.128
20
-77.25
11
-216.128
21
-80.15
0
LINE
5
166
100
AcDbEntity
8
0
6
ByLayer
62
256
370
-1
100
AcDbLine
10
-216.128
20
-80.15
11
-255.639
21
-80.15
0
LINE
5
167
100
AcDbEntity
8
0
6
ByLayer
62
256
370
-1
100
AcDbLine
10
-255.639
20
-80.15
11
-255.639
21
-77.25
0
LINE
5
168
100
AcDbEntity
8
0
6
ByLayer
62
256
370
-1
100
AcDbLine
10
-255.639
20
-77.25
11
-270.639
21
-77.25
0
LINE
5
169
100
AcDbEntity
8
0
6
ByLayer
62
256
370
-1
100
AcDbLine
10
-270.639
20
-77.25
11
-270.639
21
-80.15
0
LINE
5
16A
100
AcDbEntity
8
0
6
ByLayer
62
256
370
-1
100
AcDbLine
10
-270.639
20
-80.15
11
-310.15
21
-80.15
0
LINE
5
16B
100
AcDbEntity
8
0
6
ByLayer
62
256
370
-1
100
AcDbLine
10
-310.15
20
-80.15
11
-310.15
21
-77.25
0
LINE
5
16C
100
AcDbEntity
8
0
6
ByLayer
62
256
370
-1
100
AcDbLine
10
-310.15
20
-77.25
11
-325.15
21
-77.25
0
LINE
5
16D
100
AcDbEntity
8
0
6
ByLayer
62
256
370
-1
100
AcDbLine
10
-325.15
20
-77.25
11
-325.15
21
-80.15
0
LINE
5
16E
100
AcDbEntity
8
0
6
ByLayer
62
256
370
-1
100
AcDbLine
10
-325.15
20
-80.15
11
-364.662
21
-80.15
0
LINE
5
16F
100
AcDbEntity
8
0
6
ByLayer
62
256
370
-1
100
AcDbLine
10
-364.662
20
-80.15
11
-364.662
21
-77.25
0
LINE
5
170
100
AcDbEntity
8
0
6
ByLayer
62
256
370
-1
100
AcDbLine
10
-364.662
20
-77.25
11
-379.662
21
-77.25
0
LINE
5
171
100
AcDbEntity
8
0
6
ByLayer
62
256
370
-1
100
AcDbLine
10
-379.662
20
-77.25
11
-379.662
21
-80.15
0
LINE
5
172
100
AcDbEntity
8
0
6
ByLayer
62
256
370
-1
100
AcDbLine
10
-379.662
20
-80.15
11
-419.173
21
-80.15
0
LINE
5
173
100
AcDbEntity
8
0
6
ByLayer
62
256
370
-1
100
AcDbLine
10
-419.173
20
-80.15
11
-419.173
21
-77.25
0
LINE
5
174
100
AcDbEntity
8
0
6
ByLayer
62
256
370
-1
100
AcDbLine
10
-419.173
20
-77.25
11
-434.173
21
-77.25
0
LINE
5
175
100
AcDbEntity
8
0
6
ByLayer
62
256
370
-1
100
AcDbLine
10
-434.173
20
-77.25
11
-434.173
21
-80.15
0
LINE
5
176
100
AcDbEntity
8
0
6
ByLayer
62
256
370
-1
100
AcDbLine
10
-434.173
20
-80.15
11
-473.684
21
-80.15
0
LINE
5
177
100
AcDbEntity
8
0
6
ByLayer
62
256
370
-1
100
AcDbLine
10
-473.684
20
-80.15
11
-473.684
21
-77.25
0
LINE
5
178
100
AcDbEntity
8
0
6
ByLayer
62
256
370
-1
100
AcDbLine
10
-473.684
20
-77.25
11
-488.684
21
-77.25
0
LINE
5
179
100
AcDbEntity
8
0
6
ByLayer
62
256
370
-1
100
AcDbLine
10
-488.684
20
-77.25
11
-488.684
21
-80.15
0
LINE
5
17A
100
AcDbEntity
8
0
6
ByLayer
62
256
370
-1
100
AcDbLine
10
-488.684
20
-80.15
11
-528.195
21
-80.15
0
LINE
5
17B
100
AcDbEntity
8
0
6
ByLayer
62
256
370
-1
100
AcDbLine
10
-528.195
20
-80.15
11
-528.195
21
-77.25
0
LINE
5
17C
100
AcDbEntity
8
0
6
ByLayer
62
256
370
-1
100
AcDbLine
10
-528.195
20
-77.25
11
-543.195
21
-77.25
0
LINE
5
17D
100
AcDbEntity
8
0
6
ByLayer
62
256
370
-1
100
AcDbLine
10
-543.195
20
-77.25
11
-543.195
21
-80.15
0
LINE
5
17E
100
AcDbEntity
8
0
6
ByLayer
62
256
370
-1
100
AcDbLine
10
-543.195
20
-80.15
11
-565.85
21
-80.15
0
LINE
5
17F
100
AcDbEntity
8
0
6
ByLayer
62
256
370
-1
100
AcDbLine
10
-509.913
20
74.975
11
-509.901
21
75.16
0
LINE
5
180
100
AcDbEntity
8
0
6
ByLayer
62
256
370
-1
100
AcDbLine
10
-509.901
20
75.16
11
-509.867
21
75.342
0
LINE
5
181
100
AcDbEntity
8
0
6
ByLayer
62
256
370
-1
100
AcDbLine
10
-509.867
20
75.342
11
-509.809
21
75.518
0
LINE
5
182
100
AcDbEntity
8
0
6
ByLayer
62
256
370
-1
100
AcDbLine
10
-509.809
20
75.518
11
-509.731
21
75.686
0
LINE
5
183
100
AcDbEntity
8
0
6
ByLayer
62
256
370
-1
100
AcDbLine
10
-509.731
20
75.686
11
-509.631
21
75.842
0
LINE
5
184
100
AcDbEntity
8
0
6
ByLayer
62
256
370
-1
100
AcDbLine
10
-509.631
20
75.842
11
-509.513
21
75.985
0
LINE
5
185
100
AcDbEntity
8
0
6
ByLayer
62
256
370
-1
100
AcDbLine
10
-509.513
20
75.985
11
-509.378
21
76.112
0
LINE
5
186
100
AcDbEntity
8
0
6
ByLayer
62
256
370
-1
100
AcDbLine
10
-509.378
20
76.112
11
-509.228
21
76.22
0
LINE
5
187
100
AcDbEntity
8
0
6
ByLayer
62
256
370
-1
100
AcDbLine
10
-509.228
20
76.22
11
-509.066
21
76.31
0
LINE
5
188
100
AcDbEntity
8
0
6
ByLayer
62
256
370
-1
100
AcDbLine
10
-509.066
20
76.31
11
-508.894
21
76.378
0
LINE
5
189
100
AcDbEntity
8
0
6
ByLayer
62
256
370
-1
100
AcDbLine
10
-508.894
20
76.378
11
-508.714
21
76.424
0
LINE
5
18A
100
AcDbEntity
8
0
6
ByLayer
62
256
370
-1
100
AcDbLine
10
-508.714
20
76.424
11
-508.531
21
76.447
0
LINE
5
18B
100
AcDbEntity
8
0
6
ByLayer
62
256
370
-1
100
AcDbLine
10
-508.531
20
76.447
11
-508.345
21
76.447
0
LINE
5
18C
100
AcDbEntity
8
0
6
ByLayer
62
256
370
-1
100
AcDbLine
10
-508.345
20
76.447
11
-508.162
21
76.424
0
LINE
5
18D
100
AcDbEntity
8
0
6
ByLayer
62
256
370
-1
100
AcDbLine
10
-508.162
20
76.424
11
-507.982
21
76.378
0
LINE
5
18E
100
AcDbEntity
8
0
6
ByLayer
62
256
370
-1
100
AcDbLine
10
-507.982
20
76.378
11
-507.81
21
76.31
0
LINE
5
18F
100
AcDbEntity
8
0
6
ByLayer
62
256
370
-1
100
AcDbLine
10
-507.81
20
76.31
11
-507.648
21
76.22
0
LINE
5
190
100
AcDbEntity
8
0
6
ByLayer
62
256
370
-1
100
AcDbLine
10
-507.648
20
76.22
11
-507.498
21
76.112
0
LINE
5
191
100
AcDbEntity
8
0
6
ByLayer
62
256
370
-1
100
AcDbLine
10
-507.498
20
76.112
11
-507.363
21
75.985
0
LINE
5
192
100
AcDbEntity
8
0
6
ByLayer
62
256
370
-1
100
AcDbLine
10
-507.363
20
75.985
11
-507.245
21
75.842
0
LINE
5
193
100
AcDbEntity
8
0
6
ByLayer
62
256
370
-1
100
AcDbLine
10
-507.245
20
75.842
11
-507.145
21
75.686
0
LINE
5
194
100
AcDbEntity
8
0
6
ByLayer
62
256
370
-1
100
AcDbLine
10
-507.145
20
75.686
11
-507.067
21
75.518
0
LINE
5
195
100
AcDbEntity
8
0
6
ByLayer
62
256
370
-1
100
AcDbLine
10
-507.067
20
75.518
11
-507.009
21
75.342
0
LINE
5
196
100
AcDbEntity
8
0
6
ByLayer
62
256
370
-1
100
AcDbLine
10
-507.009
20
75.342
11
-506.975
21
75.16
0
LINE
5
197
100
AcDbEntity
8
0
6
ByLayer
62
256
370
-1
100
AcDbLine
10
-506.975
20
75.16
11
-506.963
21
74.975
0
LINE
5
198
100
AcDbEntity
8
0
6
ByLayer
62
256
370
-1
100
AcDbLine
10
-506.963
20
74.975
11
-506.975
21
74.79
0
LINE
5
199
100
AcDbEntity
8
0
6
ByLayer
62
256
370
-1
100
AcDbLine
10
-506.975
20
74.79
11
-507.009
21
74.608
0
LINE
5
19A
100
AcDbEntity
8
0
6
ByLayer
62
256
370
-1
100
AcDbLine
10
-507.009
20
74.608
11
-507.067
21
74.432
0
LINE
5
19B
100
AcDbEntity
8
0
6
ByLayer
62
256
370
-1
100
AcDbLine
10
-507.067
20
74.432
11
-507.145
21
74.264
0
LINE
5
19C
100
AcDbEntity
8
0
6
ByLayer
62
256
370
-1
100
AcDbLine
10
-507.145
20
74.264
11
-507.245
21
74.108
0
LINE
5
19D
100
AcDbEntity
8
0
6
ByLayer
62
256
370
-1
100
AcDbLine
10
-507.245
20
74.108
11
-507.363
21
73.965
0
LINE
5
19E
100
AcDbEntity
8
0
6
ByLayer
62
256
370
-1
100
AcDbLine
10
-507.363
20
73.965
11
-507.498
21
73.838
0
LINE
5
19F
100
AcDbEntity
8
0
6
ByLayer
62
256
370
-1
100
AcDbLine
10
-507.498
20
73.838
11
-507.648
21
73.73
0
LINE
5
1A0
100
AcDbEntity
8
0
6
ByLayer
62
256
370
-1
100
AcDbLine
10
-507.648
20
73.73
11
-507.81
21
73.64
0
LINE
5
1A1
100
AcDbEntity
8
0
6
ByLayer
62
256
370
-1
100
AcDbLine
10
-507.81
20
73.64
11
-507.982
21
73.572
0
LINE
5
1A2
100
AcDbEntity
8
0
6
ByLayer
62
256
370
-1
100
AcDbLine
10
-507.982
20
73.572
11
-508.162
21
73.526
0
LINE
5
1A3
100
AcDbEntity
8
0
6
ByLayer
62
256
370
-1
100
AcDbLine
10
-508.162
20
73.526
11
-508.345
21
73.503
0
LINE
5
1A4
100
AcDbEntity
8
0
6
ByLayer
62
256
370
-1
100
AcDbLine
10
-508.345
20
73.503
11
-508.531
21
73.503
0
LINE
5
1A5
100
AcDbEntity
8
0
6
ByLayer
62
256
370
-1
100
AcDbLine
10
-508.531
20
73.503
11
-508.714
21
73.526
0
LINE
5
1A6
100
AcDbEntity
8
0
6
ByLayer
62
256
370
-1
100
AcDbLine
10
-508.714
20
73.526
11
-508.894
21
73.572
0
LINE
5
1A7
100
AcDbEntity
8
0
6
ByLayer
62
256
370
-1
100
AcDbLine
10
-508.894
20
73.572
11
-509.066
21
73.64
0
LINE
5
1A8
100
AcDbEntity
8
0
6
ByLayer
62
256
370
-1
100
AcDbLine
10
-509.066
20
73.64
11
-509.228
21
73.73
0
LINE
5
1A9
100
AcDbEntity
8
0
6
ByLayer
62
256
370
-1
100
AcDbLine
10
-509.228
20
73.73
11
-509.378
21
73.838
0
LINE
5
1AA
100
AcDbEntity
8
0
6
ByLayer
62
256
370
-1
100
AcDbLine
10
-509.378
20
73.838
11
-509.513
21
73.965
0
LINE
5
1AB
100
AcDbEntity
8
0
6
ByLayer
62
256
370
-1
100
AcDbLine
10
-509.513
20
73.965
11
-509.631
21
74.108
0
LINE
5
1AC
100
AcDbEntity
8
0
6
ByLayer
62
256
370
-1
100
AcDbLine
10
-509.631
20
74.108
11
-509.731
21
74.264
0
LINE
5
1AD
100
AcDbEntity
8
0
6
ByLayer
62
256
370
-1
100
AcDbLine
10
-509.731
20
74.264
11
-509.809
21
74.432
0
LINE
5
1AE
100
AcDbEntity
8
0
6
ByLayer
62
256
370
-1
100
AcDbLine
10
-509.809
20
74.432
11
-509.867
21
74.608
0
LINE
5
1AF
100
AcDbEntity
8
0
6
ByLayer
62
256
370
-1
100
AcDbLine
10
-509.867
20
74.608
11
-509.901
21
74.79
0
LINE
5
1B0
100
AcDbEntity
8
0
6
ByLayer
62
256
370
-1
100
AcDbLine
10
-509.901
20
74.79
11
-509.913
21
74.975
0
LINE
5
1B1
100
AcDbEntity
8
0
6
ByLayer
62
256
370
-1
100
AcDbLine
10
-346.38
20
74.975
11
-346.368
21
75.16
0
LINE
5
1B2
100
AcDbEntity
8
0
6
ByLayer
62
256
370
-1
100
AcDbLine
10
-346.368
20
75.16
11
-346.334
21
75.342
0
LINE
5
1B3
100
AcDbEntity
8
0
6
ByLayer
62
256
370
-1
100
AcDbLine
10
-346.334
20
75.342
11
-346.276
21
75.518
0
LINE
5
1B4
100
AcDbEntity
8
0
6
ByLayer
62
256
370
-1
100
AcDbLine
10
-346.276
20
75.518
11
-346.198
21
75.686
0
LINE
5
1B5
100
AcDbEntity
8
0
6
ByLayer
62
256
370
-1
100
AcDbLine
10
-346.198
20
75.686
11
-346.098
21
75.842
0
LINE
5
1B6
100
AcDbEntity
8
0
6
ByLayer
62
256
370
-1
100
AcDbLine
10
-346.098
20
75.842
11
-345.98
21
75.985
0
LINE
5
1B7
100
AcDbEntity
8
0
6
ByLayer
62
256
370
-1
100
AcDbLine
10
-345.98
20
75.985
11
-345.845
21
76.112
0
LINE
5
1B8
100
AcDbEntity
8
0
6
ByLayer
62
256
370
-1
100
AcDbLine
10
-345.845
20
76.112
11
-345.695
21
76.22
0
LINE
5
1B9
100
AcDbEntity
8
0
6
ByLayer
62
256
370
-1
100
AcDbLine
10
-345.695
20
76.22
11
-345.533
21
76.31
0
LINE
5
1BA
100
AcDbEntity
8
0
6
ByLayer
62
256
370
-1
100
AcDbLine
10
-345.533
20
76.31
11
-345.361
21
76.378
0
LINE
5
1BB
100
AcDbEntity
8
0
6
ByLayer
62
256
370
-1
100
AcDbLine
10
-345.361
20
76.378
11
-345.181
21
76.424
0
LINE
5
1BC
100
AcDbEntity
8
0
6
ByLayer
62
256
370
-1
100
AcDbLine
10
-345.181
20
76.424
11
-344.998
21
76.447
0
LINE
5
1BD
100
AcDbEntity
8
0
6
ByLayer
62
256
370
-1
100
AcDbLine
10
-344.998
20
76.447
11
-344.812
21
76.447
0
LINE
5
1BE
100
AcDbEntity
8
0
6
ByLayer
62
256
370
-1
100
AcDbLine
10
-344.812
20
76.447
11
-344.629
21
76.424
0
LINE
5
1BF
100
AcDbEntity
8
0
6
ByLayer
62
256
370
-1
100
AcDbLine
10
-344.629
20
76.424
11
-344.449
21
76.378
0
LINE
5
1C0
100
AcDbEntity
8
0
6
ByLayer
62
256
370
-1
100
AcDbLine
10
-344.449
20
76.378
11
-344.277
21
76.31
0
LINE
5
1C1
100
AcDbEntity
8
0
6
ByLayer
62
256
370
-1
100
AcDbLine
10
-344.277
20
76.31
11
-344.115
21
76.22
0
LINE
5
1C2
100
AcDbEntity
8
0
6
ByLayer
62
256
370
-1
100
AcDbLine
10
-344.115
20
76.22
11
-343.965
21
76.112
0
LINE
5
1C3
100
AcDbEntity
8
0
6
ByLayer
62
256
370
-1
100
AcDbLine
10
-343.965
20
76.112
11
-343.83
21
75.985
0
LINE
5
1C4
100
AcDbEntity
8
0
6
ByLayer
62
256
370
-1
100
AcDbLine
10
-343.83
20
75.985
11
-343.712
21
75.842
0
LINE
5
1C5
100
AcDbEntity
8
0
6
ByLayer
62
256
370
-1
100
AcDbLine
10
-343.712
20
75.842
11
-343.612
21
75.686
0
LINE
5
1C6
100
AcDbEntity
8
0
6
ByLayer
62
256
370
-1
100
AcDbLine
10
-343.612
20
75.686
11
-343.534
21
75.518
0
LINE
5
1C7
100
AcDbEntity
8
0
6
ByLayer
62
256
370
-1
100
AcDbLine
10
-343.534
20
75.518
11
-343.476
21
75.342
0
LINE
5
1C8
100
AcDbEntity
8
0
6
ByLayer
62
256
370
-1
100
AcDbLine
10
-343.476
20
75.342
11
-343.442
21
75.16
0
LINE
5
1C9
100
AcDbEntity
8
0
6
ByLayer
62
256
370
-1
100
AcDbLine
10
-343.442
20
75.16
11
-343.43
21
74.975
0
LINE
5
1CA
100
AcDbEntity
8
0
6
ByLayer
62
256
370
-1
100
AcDbLine
10
-343.43
20
74.975
11
-343.442
21
74.79
0
LINE
5
1CB
100
AcDbEntity
8
0
6
ByLayer
62
256
370
-1
100
AcDbLine
10
-343.442
20
74.79
11
-343.476
21
74.608
0
LINE
5
1CC
100
AcDbEntity
8
0
6
ByLayer
62
256
370
-1
100
AcDbLine
10
-343.476
20
74.608
11
-343.534
21
74.432
0
LINE
5
1CD
100
AcDbEntity
8
0
6
ByLayer
62
256
370
-1
100
AcDbLine
10
-343.534
20
74.432
11
-343.612
21
74.264
0
LINE
5
1CE
100
AcDbEntity
8
0
6
ByLayer
62
256
370
-1
100
AcDbLine
10
-343.612
20
74.264
11
-343.712
21
74.108
0
LINE
5
1CF
100
AcDbEntity
8
0
6
ByLayer
62
256
370
-1
100
AcDbLine
10
-343.712
20
74.108
11
-343.83
21
73.965
0
LINE
5
1D0
100
AcDbEntity
8
0
6
ByLayer
62
256
370
-1
100
AcDbLine
10
-343.83
20
73.965
11
-343.965
21
73.838
0
LINE
5
1D1
100
AcDbEntity
8
0
6
ByLayer
62
256
370
-1
100
AcDbLine
10
-343.965
20
73.838
11
-344.115
21
73.73
0
LINE
5
1D2
100
AcDbEntity
8
0
6
ByLayer
62
256
370
-1
100
AcDbLine
10
-344.115
20
73.73
11
-344.277
21
73.64
0
LINE
5
1D3
100
AcDbEntity
8
0
6
ByLayer
62
256
370
-1
100
AcDbLine
10
-344.277
20
73.64
11
-344.449
21
73.572
0
LINE
5
1D4
100
AcDbEntity
8
0
6
ByLayer
62
256
370
-1
100
AcDbLine
10
-344.449
20
73.572
11
-344.629
21
73.526
0
LINE
5
1D5
100
AcDbEntity
8
0
6
ByLayer
62
256
370
-1
100
AcDbLine
10
-344.629
20
73.526
11
-344.812
21
73.503
0
LINE
5
1D6
100
AcDbEntity
8
0
6
ByLayer
62
256
370
-1
100
AcDbLine
10
-344.812
20
73.503
11
-344.998
21
73.503
0
LINE
5
1D7
100
AcDbEntity
8
0
6
ByLayer
62
256
370
-1
100
AcDbLine
10
-344.998
20
73.503
11
-345.181
21
73.526
0
LINE
5
1D8
100
AcDbEntity
8
0
6
ByLayer
62
256
370
-1
100
AcDbLine
10
-345.181
20
73.526
11
-345.361
21
73.572
0
LINE
5
1D9
100
AcDbEntity
8
0
6
ByLayer
62
256
370
-1
100
AcDbLine
10
-345.361
20
73.572
11
-345.533
21
73.64
0
LINE
5
1DA
100
AcDbEntity
8
0
6
ByLayer
62
256
370
-1
100
AcDbLine
10
-345.533
20
73.64
11
-345.695
21
73.73
0
LINE
5
1DB
100
AcDbEntity
8
0
6
ByLayer
62
256
370
-1
100
AcDbLine
10
-345.695
20
73.73
11
-345.845
21
73.838
0
LINE
5
1DC
100
AcDbEntity
8
0
6
ByLayer
62
256
370
-1
100
AcDbLine
10
-345.845
20
73.838
11
-345.98
21
73.965
0
LINE
5
1DD
100
AcDbEntity
8
0
6
ByLayer
62
256
370
-1
100
AcDbLine
10
-345.98
20
73.965
11
-346.098
21
74.108
0
LINE
5
1DE
100
AcDbEntity
8
0
6
ByLayer
62
256
370
-1
100
AcDbLine
10
-346.098
20
74.108
11
-346.198
21
74.264
0
LINE
5
1DF
100
AcDbEntity
8
0
6
ByLayer
62
256
370
-1
100
AcDbLine
10
-346.198
20
74.264
11
-346.276
21
74.432
0
LINE
5
1E0
100
AcDbEntity
8
0
6
ByLayer
62
256
370
-1
100
AcDbLine
10
-346.276
20
74.432
11
-346.334
21
74.608
0
LINE
5
1E1
100
AcDbEntity
8
0
6
ByLayer
62
256
370
-1
100
AcDbLine
10
-346.334
20
74.608
11
-346.368
21
74.79
0
LINE
5
1E2
100
AcDbEntity
8
0
6
ByLayer
62
256
370
-1
100
AcDbLine
10
-346.368
20
74.79
11
-346.38
21
74.975
0
LINE
5
1E3
100
AcDbEntity
8
0
6
ByLayer
62
256
370
-1
100
AcDbLine
10
-128.336
20
74.975
11
-128.324
21
75.16
0
LINE
5
1E4
100
AcDbEntity
8
0
6
ByLayer
62
256
370
-1
100
AcDbLine
10
-128.324
20
75.16
11
-128.29
21
75.342
0
LINE
5
1E5
100
AcDbEntity
8
0
6
ByLayer
62
256
370
-1
100
AcDbLine
10
-128.29
20
75.342
11
-128.232
21
75.518
0
LINE
5
1E6
100
AcDbEntity
8
0
6
ByLayer
62
256
370
-1
100
AcDbLine
10
-128.232
20
75.518
11
-128.154
21
75.686
0
LINE
5
1E7
100
AcDbEntity
8
0
6
ByLayer
62
256
370
-1
100
AcDbLine
10
-128.154
20
75.686
11
-128.054
21
75.842
0
LINE
5
1E8
100
AcDbEntity
8
0
6
ByLayer
62
256
370
-1
100
AcDbLine
10
-128.054
20
75.842
11
-127.936
21
75.985
0
LINE
5
1E9
100
AcDbEntity
8
0
6
ByLayer
62
256
370
-1
100
AcDbLine
10
-127.936
20
75.985
11
-127.801
21
76.112
0
LINE
5
1EA
100
AcDbEntity
8
0
6
ByLayer
62
256
370
-1
100
AcDbLine
10
-127.801
20
76.112
11
-127.651
21
76.22
0
LINE
5
1EB
100
AcDbEntity
8
0
6
ByLayer
62
256
370
-1
100
AcDbLine
10
-127.651
20
76.22
11
-127.489
21
76.31
0
LINE
5
1EC
100
AcDbEntity
8
0
6
ByLayer
62
256
370
-1
100
AcDbLine
10
-127.489
20
76.31
11
-127.317
21
76.378
0
LINE
5
1ED
100
AcDbEntity
8
0
6
ByLayer
62
256
370
-1
100
AcDbLine
10
-127.317
20
76.378
11
-127.137
21
76.424
0
LINE
5
1EE
100
AcDbEntity
8
0
6
ByLayer
62
256
370
-1
100
AcDbLine
10
-127.137
20
76.424
11
-126.954
21
76.447
0
LINE
5
1EF
100
AcDbEntity
8
0
6
ByLayer
62
256
370
-1
100
AcDbLine
10
-126.954
20
76.447
11
-126.768
21
76.447
0
LINE
5
1F0
100
AcDbEntity
8
0
6
ByLayer
62
256
370
-1
100
AcDbLine
10
-126.768
20
76.447
11
-126.585
21
76.424
0
LINE
5
1F1
100
AcDbEntity
8
0
6
ByLayer
62
256
370
-1
100
AcDbLine
10
-126.585
20
76.424
11
-126.405
21
76.378
0
LINE
5
1F2
100
AcDbEntity
8
0
6
ByLayer
62
256
370
-1
100
AcDbLine
10
-126.405
20
76.378
11
-126.233
21
76.31
0
LINE
5
1F3
100
AcDbEntity
8
0
6
ByLayer
62
256
370
-1
100
AcDbLine
10
-126.233
20
76.31
11
-126.071
21
76.22
0
LINE
5
1F4
100
AcDbEntity
8
0
6
ByLayer
62
256
370
-1
100
AcDbLine
10
-126.071
20
76.22
11
-125.921
21
76.112
0
LINE
5
1F5
100
AcDbEntity
8
0
6
ByLayer
62
256
370
-1
100
AcDbLine
10
-125.921
20
76.112
11
-125.786
21
75.985
0
LINE
5
1F6
100
AcDbEntity
8
0
6
ByLayer
62
256
370
-1
100
AcDbLine
10
-125.786
20
75.985
11
-125.668
21
75.842
0
LINE
5
1F7
100
AcDbEntity
8
0
6
ByLayer
62
256
370
-1
100
AcDbLine
10
-125.668
20
75.842
11
-125.568
21
75.686
0
LINE
5
1F8
100
AcDbEntity
8
0
6
ByLayer
62
256
370
-1
100
AcDbLine
10
-125.568
20
75.686
11
-125.49
21
75.518
0
LINE
5
1F9
100
AcDbEntity
8
0
6
ByLayer
62
256
370
-1
100
AcDbLine
10
-125.49
20
75.518
11
-125.432
21
75.342
0
LINE
5
1FA
100
AcDbEntity
8
0
6
ByLayer
62
256
370
-1
100
AcDbLine
10
-125.432
20
75.342
11
-125.398
21
75.16
0
LINE
5
1FB
100
AcDbEntity
8
0
6
ByLayer
62
256
370
-1
100
AcDbLine
10
-125.398
20
75.16
11
-125.386
21
74.975
0
LINE
5
1FC
100
AcDbEntity
8
0
6
ByLayer
62
256
370
-1
100
AcDbLine
10
-125.386
20
74.975
11
-125.398
21
74.79
0
LINE
5
1FD
100
AcDbEntity
8
0
6
ByLayer
62
256
370
-1
100
AcDbLine
10
-125.398
20
74.79
11
-125.432
21
74.608
0
LINE
5
1FE
100
AcDbEntity
8
0
6
ByLayer
62
256
370
-1
100
AcDbLine
10
-125.432
20
74.608
11
-125.49
21
74.432
0
LINE
5
1FF
100
AcDbEntity
8
0
6
ByLayer
62
256
370
-1
100
AcDbLine
10
-125.49
20
74.432
11
-125.568
21
74.264
0
LINE
5
200
100
AcDbEntity
8
0
6
ByLayer
62
256
370
-1
100
AcDbLine
10
-125.568
20
74.264
11
-125.668
21
74.108
0
LINE
5
201
100
AcDbEntity
8
0
6
ByLayer
62
256
370
-1
100
AcDbLine
10
-125.668
20
74.108
11
-125.786
21
73.965
0
LINE
5
202
100
AcDbEntity
8
0
6
ByLayer
62
256
370
-1
100
AcDbLine
10
-125.786
20
73.965
11
-125.921
21
73.838
0
LINE
5
203
100
AcDbEntity
8
0
6
ByLayer
62
256
370
-1
100
AcDbLine
10
-125.921
20
73.838
11
-126.071
21
73.73
0
LINE
5
204
100
AcDbEntity
8
0
6
ByLayer
62
256
370
-1
100
AcDbLine
10
-126.071
20
73.73
11
-126.233
21
73.64
0
LINE
5
205
100
AcDbEntity
8
0
6
ByLayer
62
256
370
-1
100
AcDbLine
10
-126.233
20
73.64
11
-126.405
21
73.572
0
LINE
5
206
100
AcDbEntity
8
0
6
ByLayer
62
256
370
-1
100
AcDbLine
10
-126.405
20
73.572
11
-126.585
21
73.526
0
LINE
5
207
100
AcDbEntity
8
0
6
ByLayer
62
256
370
-1
100
AcDbLine
10
-126.585
20
73.526
11
-126.768
21
73.503
0
LINE
5
208
100
AcDbEntity
8
0
6
ByLayer
62
256
370
-1
100
AcDbLine
10
-126.768
20
73.503
11
-126.954
21
73.503
0
LINE
5
209
100
AcDbEntity
8
0
6
ByLayer
62
256
370
-1
100
AcDbLine
10
-126.954
20
73.503
11
-127.137
21
73.526
0
LINE
5
20A
100
AcDbEntity
8
0
6
ByLayer
62
256
370
-1
100
AcDbLine
10
-127.137
20
73.526
11
-127.317
21
73.572
0
LINE
5
20B
100
AcDbEntity
8
0
6
ByLayer
62
256
370
-1
100
AcDbLine
10
-127.317
20
73.572
11
-127.489
21
73.64
0
LINE
5
20C
100
AcDbEntity
8
0
6
ByLayer
62
256
370
-1
100
AcDbLine
10
-127.489
20
73.64
11
-127.651
21
73.73
0
LINE
5
20D
100
AcDbEntity
8
0
6
ByLayer
62
256
370
-1
100
AcDbLine
10
-127.651
20
73.73
11
-127.801
21
73.838
0
LINE
5
20E
100
AcDbEntity
8
0
6
ByLayer
62
256
370
-1
100
AcDbLine
10
-127.801
20
73.838
11
-127.936
21
73.965
0
LINE
5
20F
100
AcDbEntity
8
0
6
ByLayer
62
256
370
-1
100
AcDbLine
10
-127.936
20
73.965
11
-128.054
21
74.108
0
LINE
5
210
100
AcDbEntity
8
0
6
ByLayer
62
256
370
-1
100
AcDbLine
10
-128.054
20
74.108
11
-128.154
21
74.264
0
LINE
5
211
100
AcDbEntity
8
0
6
ByLayer
62
256
370
-1
100
AcDbLine
10
-128.154
20
74.264
11
-128.232
21
74.432
0
LINE
5
212
100
AcDbEntity
8
0
6
ByLayer
62
256
370
-1
100
AcDbLine
10
-128.232
20
74.432
11
-128.29
21
74.608
0
LINE
5
213
100
AcDbEntity
8
0
6
ByLayer
62
256
370
-1
100
AcDbLine
10
-128.29
20
74.608
11
-128.324
21
74.79
0
LINE
5
214
100
AcDbEntity
8
0
6
ByLayer
62
256
370
-1
100
AcDbLine
10
-128.324
20
74.79
11
-128.336
21
74.975
0
LINE
5
215
100
AcDbEntity
8
0
6
ByLayer
62
256
370
-1
100
AcDbLine
10
-63.0255000004
20
-62.4095000001
11
-63.0255000004
21
-47.4095000001
0
LINE
5
216
100
AcDbEntity
8
0
6
ByLayer
62
256
370
-1
100
AcDbLine
10
-63.0255000004
20
-47.4095000001
11
-60.1255000004
21
-47.4095000001
0
LINE
5
217
100
AcDbEntity
8
0
6
ByLayer
62
256
370
-1
100
AcDbLine
10
-60.1255000004
20
-47.4095000001
11
-60.1255000004
21
-31.1345000001
0
LINE
5
218
100
AcDbEntity
8
0
6
ByLayer
62
256
370
-1
100
AcDbLine
10
-60.1255000004
20
-28.1845000001
11
-60.1255000004
21
-11.9095000001
0
LINE
5
219
100
AcDbEntity
8
0
6
ByLayer
62
256
370
-1
100
AcDbLine
10
-60.1255000004
20
-11.9095000001
11
-63.0255000004
21
-11.9095000001
0
LINE
5
21A
100
AcDbEntity
8
0
6
ByLayer
62
256
370
-1
100
AcDbLine
10
-63.0255000004
20
-11.9095000001
11
-63.0255000004
21
3.09049999991
0
LINE
5
21B
100
AcDbEntity
8
0
6
ByLayer
62
256
370
-1
100
AcDbLine
10
-63.0255000004
20
3.09049999991
11
-60.1255000004
21
3.09049999991
0
LINE
5
21C
100
AcDbEntity
8
0
6
ByLayer
62
256
370
-1
100
AcDbLine
10
-60.1255000004
20
3.09049999991
11
-60.1255000004
21
19.3654999999
0
LINE
5
21D
100
AcDbEntity
8
0
6
ByLayer
62
256
370
-1
100
AcDbLine
10
-60.1255000004
20
22.3154999999
11
-60.1255000004
21
38.5904999999
0
LINE
5
21E
100
AcDbEntity
8
0
6
ByLayer
62
256
370
-1
100
AcDbLine
10
-60.1255000004
20
38.5904999999
11
-63.0255000004
21
38.5904999999
0
LINE
5
21F
100
AcDbEntity
8
0
6
ByLayer
62
256
370
-1
100
AcDbLine
10
-63.0255000004
20
38.5904999999
11
-63.0255000004
21
53.5904999999
0
LINE
5
220
100
AcDbEntity
8
0
6
ByLayer
62
256
370
-1
100
AcDbLine
10
-63.0255000004
20
53.5904999999
11
-60.1255000004
21
53.5904999999
0
LINE
5
221
100
AcDbEntity
8
0
6
ByLayer
62
256
370
-1
100
AcDbLine
10
-60.1255000004
20
53.5904999999
11
-60.1255000004
21
71.3404999999
0
LINE
5
222
100
AcDbEntity
8
0
6
ByLayer
62
256
370
-1
100
AcDbLine
10
-60.1255000004
20
71.3404999999
11
-45.9595000004
21
71.3404999999
0
LINE
5
223
100
AcDbEntity
8
0
6
ByLayer
62
256
370
-1
100
AcDbLine
10
-45.9595000004
20
71.3404999999
11
-45.9595000004
21
74.2404999999
0
LINE
5
224
100
AcDbEntity
8
0
6
ByLayer
62
256
370
-1
100
AcDbLine
10
-45.9595000004
20
74.2404999999
11
-30.9595000004
21
74.2404999999
0
LINE
5
225
100
AcDbEntity
8
0
6
ByLayer
62
256
370
-1
100
AcDbLine
10
-30.9595000004
20
74.2404999999
11
-30.9595000004
21
71.3404999999
0
LINE
5
226
100
AcDbEntity
8
0
6
ByLayer
62
256
370
-1
100
AcDbLine
10
-30.9595000004
20
71.3404999999
11
-2.62550000036
21
71.3404999999
0
LINE
5
227
100
AcDbEntity
8
0
6
ByLayer
62
256
370
-1
100
AcDbLine
10
-2.62550000036
20
71.3404999999
11
-2.62550000036
21
74.2404999999
0
LINE
5
228
100
AcDbEntity
8
0
6
ByLayer
62
256
370
-1
100
AcDbLine
10
-2.62550000036
20
74.2404999999
11
12.3744999996
21
74.2404999999
0
LINE
5
229
100
AcDbEntity
8
0
6
ByLayer
62
256
370
-1
100
AcDbLine
10
12.3744999996
20
74.2404999999
11
12.3744999996
21
71.3404999999
0
LINE
5
22A
100
AcDbEntity
8
0
6
ByLayer
62
256
370
-1
100
AcDbLine
10
12.3744999996
20
71.3404999999
11
40.7074999996
21
71.3404999999
0
LINE
5
22B
100
AcDbEntity
8
0
6
ByLayer
62
256
370
-1
100
AcDbLine
10
40.7074999996
20
71.3404999999
11
40.7074999996
21
74.2404999999
0
LINE
5
22C
100
AcDbEntity
8
0
6
ByLayer
62
256
370
-1
100
AcDbLine
10
40.7074999996
20
74.2404999999
11
55.7074999996
21
74.2404999999
0
LINE
5
22D
100
AcDbEntity
8
0
6
ByLayer
62
256
370
-1
100
AcDbLine
10
55.7074999996
20
74.2404999999
11
55.7074999996
21
71.3404999999
0
LINE
5
22E
100
AcDbEntity
8
0
6
ByLayer
62
256
370
-1
100
AcDbLine
10
55.7074999996
20
71.3404999999
11
69.8744999996
21
71.3404999999
0
LINE
5
22F
100
AcDbEntity
8
0
6
ByLayer
62
256
370
-1
100
AcDbLine
10
69.8744999996
20
71.3404999999
11
69.8744999996
21
53.5904999999
0
LINE
5
230
100
AcDbEntity
8
0
6
ByLayer
62
256
370
-1
100
AcDbLine
10
69.8744999996
20
53.5904999999
11
72.7744999996
21
53.5904999999
0
LINE
5
231
100
AcDbEntity
8
0
6
ByLayer
62
256
370
-1
100
AcDbLine
10
72.7744999996
20
53.5904999999
11
72.7744999996
21
38.5904999999
0
LINE
5
232
100
AcDbEntity
8
0
6
ByLayer
62
256
370
-1
100
AcDbLine
10
72.7744999996
20
38.5904999999
11
69.8744999996
21
38.5904999999
0
LINE
5
233
100
AcDbEntity
8
0
6
ByLayer
62
256
370
-1
100
AcDbLine
10
69.8744999996
20
38.5904999999
11
69.8744999996
21
22.3154999999
0
LINE
5
234
100
AcDbEntity
8
0
6
ByLayer
62
256
370
-1
100
AcDbLine
10
69.8744999996
20
19.3654999999
11
69.8744999996
21
3.09049999991
0
LINE
5
235
100
AcDbEntity
8
0
6
ByLayer
62
256
370
-1
100
AcDbLine
10
69.8744999996
20
3.09049999991
11
72.7744999996
21
3.09049999991
0
LINE
5
236
100
AcDbEntity
8
0
6
ByLayer
62
256
370
-1
100
AcDbLine
10
72.7744999996
20
3.09049999991
11
72.7744999996
21
-11.9095000001
0
LINE
5
237
100
AcDbEntity
8
0
6
ByLayer
62
256
370
-1
100
AcDbLine
10
72.7744999996
20
-11.9095000001
11
69.8744999996
21
-11.9095000001
0
LINE
5
238
100
AcDbEntity
8
0
6
ByLayer
62
256
370
-1
100
AcDbLine
10
69.8744999996
20
-11.9095000001
11
69.8744999996
21
-28.1845000001
0
LINE
5
239
100
AcDbEntity
8
0
6
ByLayer
62
256
370
-1
100
AcDbLine
10
69.8744999996
20
-31.1345000001
11
69.8744999996
21
-47.4095000001
0
LINE
5
23A
100
AcDbEntity
8
0
6
ByLayer
62
256
370
-1
100
AcDbLine
10
69.8744999996
20
-47.4095000001
11
72.7744999996
21
-47.4095000001
0
LINE
5
23B
100
AcDbEntity
8
0
6
ByLayer
62
256
370
-1
100
AcDbLine
10
72.7744999996
20
-47.4095000001
11
72.7744999996
21
-62.4095000001
0
LINE
5
23C
100
AcDbEntity
8
0
6
ByLayer
62
256
370
-1
100
AcDbLine
10
72.7744999996
20
-62.4095000001
11
69.8744999996
21
-62.4095000001
0
LINE
5
23D
100
AcDbEntity
8
0
6
ByLayer
62
256
370
-1
100
AcDbLine
10
69.8744999996
20
-62.4095000001
11
69.8744999996
21
-80.1595
0
LINE
5
23E
100
AcDbEntity
8
0
6
ByLayer
62
256
370
-1
100
AcDbLine
10
69.8744999996
20
-80.1595
11
55.7074999996
21
-80.1595
0
LINE
5
23F
100
AcDbEntity
8
0
6
ByLayer
62
256
370
-1
100
AcDbLine
10
55.7074999996
20
-80.1595
11
55.7074999996
21
-83.0595
0
LINE
5
240
100
AcDbEntity
8
0
6
ByLayer
62
256
370
-1
100
AcDbLine
10
55.7074999996
20
-83.0595
11
40.7074999996
21
-83.0595
0
LINE
5
241
100
AcDbEntity
8
0
6
ByLayer
62
256
370
-1
100
AcDbLine
10
40.7074999996
20
-83.0595
11
40.7074999996
21
-80.1595
0
LINE
5
242
100
AcDbEntity
8
0
6
ByLayer
62
256
370
-1
100
AcDbLine
10
40.7074999996
20
-80.1595
11
12.3744999996
21
-80.1595
0
LINE
5
243
100
AcDbEntity
8
0
6
ByLayer
62
256
370
-1
100
AcDbLine
10
12.3744999996
20
-80.1595
11
12.3744999996
21
-83.0595
0
LINE
5
244
100
AcDbEntity
8
0
6
ByLayer
62
256
370
-1
100
AcDbLine
10
12.3744999996
20
-83.0595
11
-2.62550000036
21
-83.0595
0
LINE
5
245
100
AcDbEntity
8
0
6
ByLayer
62
256
370
-1
100
AcDbLine
10
-2.62550000036
20
-83.0595
11
-2.62550000036
21
-80.1595
0
LINE
5
246
100
AcDbEntity
8
0
6
ByLayer
62
256
370
-1
100
AcDbLine
10
-2.62550000036
20
-80.1595
11
-30.9595000004
21
-80.1595
0
LINE
5
247
100
AcDbEntity
8
0
6
ByLayer
62
256
370
-1
100
AcDbLine
10
-30.9595000004
20
-80.1595
11
-30.9595000004
21
-83.0595
0
LINE
5
248
100
AcDbEntity
8
0
6
ByLayer
62
256
370
-1
100
AcDbLine
10
-30.9595000004
20
-83.0595
11
-45.9595000004
21
-83.0595
0
LINE
5
249
100
AcDbEntity
8
0
6
ByLayer
62
256
370
-1
100
AcDbLine
10
-45.9595000004
20
-83.0595
11
-45.9595000004
21
-80.1595
0
LINE
5
24A
100
AcDbEntity
8
0
6
ByLayer
62
256
370
-1
100
AcDbLine
10
-45.9595000004
20
-80.1595
11
-60.1255000004
21
-80.1595
0
LINE
5
24B
100
AcDbEntity
8
0
6
ByLayer
62
256
370
-1
100
AcDbLine
10
-60.1255000004
20
-80.1595
11
-60.1255000004
21
-62.4095000001
0
LINE
5
24C
100
AcDbEntity
8
0
6
ByLayer
62
256
370
-1
100
AcDbLine
10
-60.1255000004
20
-62.4095000001
11
-63.0255000004
21
-62.4095000001
0
LINE
5
24D
100
AcDbEntity
8
0
6
ByLayer
62
256
370
-1
100
AcDbLine
10
-60.1255000004
20
22.3154999999
11
-60.1255000004
21
19.3654999999
0
LINE
5
24E
100
AcDbEntity
8
0
6
ByLayer
62
256
370
-1
100
AcDbLine
10
69.8744999996
20
22.3154999999
11
69.8744999996
21
19.3654999999
0
LINE
5
24F
100
AcDbEntity
8
0
6
ByLayer
62
256
370
-1
100
AcDbLine
10
-60.1255000004
20
-28.1845000001
11
-60.1255000004
21
-31.1345000001
0
LINE
5
250
100
AcDbEntity
8
0
6
ByLayer
62
256
370
-1
100
AcDbLine
10
69.8744999996
20
-28.1845000001
11
69.8744999996
21
-31.1345000001
0
ENDSEC
0
SECTION
2
OBJECTS
0
DICTIONARY
5
C
330
0
100
AcDbDictionary
281
1
3
ACAD_GROUP
350
D
0
DICTIONARY
5
D
330
C
100
AcDbDictionary
281
1
0
ENDSEC
0
EOF
