999
dxflib 2.0.4.8
  0
SECTION
  2
HEADER
  9
$ACADVER
  1
AC1015
  9
$HANDSEED
  5
FFFF
  9
$REALWORLDSCALE
290
1
  9
$LOFTMAG1
 40
0.0
  9
$DIMASSOC
280
2
  9
$USERR4
 40
0.0
  9
$DIMTDEC
 70
2
  9
$DIMTAD
 70
1
  9
$LOFTMAG2
 40
0.0
  9
$CAMERAHEIGHT
 40
0.0
  9
$XCLIPFRAME
290
0
  9
$CMLSTYLE
  2
Standard
  9
$VISRETAIN
 70
1
  9
$TILEMODE
 70
1
  9
$SHADEDIF
 70
70
  9
$USERR5
 40
0.0
  9
$UCSYDIR
 10
0.0
 20
1.0
 30
0.0
  9
$CHAMFERA
 40
0.0
  9
$MENU
  1
.
  9
$DIMALTZ
 70
0
  9
$CLAYER
  8
0
  9
$DWFFRAME
280
2
  9
$SHOWHIST
280
1
  9
$OLESTARTUP
290
0
  9
$UCSXDIR
 10
1.0
 20
0.0
 30
0.0
  9
$CHAMFERB
 40
0.0
  9
$DIMADEC
 70
0
  9
$DIMUPT
 70
0
  9
$DIMASZ
 40
2.5
  9
$TRACEWID
 40
1.0
  9
$REGENMODE
 70
1
  9
$ORTHOMODE
 70
0
  9
$EXTMIN
 10
-202.9693268759764919
 20
-277.8045976901316862
 30
0.0
  9
$CAMERADISPLAY
290
0
  9
$ENDCAPS
280
0
  9
$MEASUREMENT
 70
1
  9
$CMLJUST
 70
0
  9
$PUCSYDIR
 10
0.0
 20
1.0
 30
0.0
  9
$ANGBASE
 50
0.0
  9
$USRTIMER
 70
1
  9
$CHAMFERC
 40
0.0
  9
$SKETCHINC
 40
1.0
  9
$DIMGAP
 40
0.625
  9
$DIMTFAC
 40
1.0
  9
$DIMSAH
 70
0
  9
$DIMALT
 70
0
  9
$DIMSHO
 70
1
  9
$LONGITUDE
 40
-122.3940000000000055
  9
$LOFTNORMALS
280
1
  9
$STEPSIZE
 40
6.0
  9
$VERSIONGUID
  2
{BE706871-7E6A-4907-9454-ADB906C1BEE6}
  9
$LWDISPLAY
290
0
  9
$PUCSXDIR
 10
1.0
 20
0.0
 30
0.0
  9
$SURFTYPE
 70
6
  9
$SPLFRAME
 70
0
  9
$CHAMFERD
 40
0.0
  9
$DIMFXLON
 70
0
  9
$DIMALTRND
 40
0.0
  9
$DIMALTTD
 70
3
  9
$DIMTSZ
 40
0.0
  9
$LIMMIN
 10
0.0
 20
0.0
  9
$SHADOWPLANELOCATION
 40
0.0
  9
$CMATERIAL
347
EC
  9
$STEPSPERSEC
 40
2.0
  9
$SORTENTS
280
127
  9
$CELWEIGHT
370
-1
  9
$SURFTAB1
 70
6
  9
$SPLINESEGS
 70
8
  9
$AUPREC
 70
0
  9
$LUNITS
 70
2
  9
$DIMTFILL
 70
0
  9
$DIMFXL
 40
1.0
  9
$DWGCODEPAGE
  3
ANSI_1252
  9
$TILEMODELIGHTSYNCH
280
1
  9
$PSTYLEMODE
290
1
  9
$UNITMODE
 70
0
  9
$USERI1
 70
0
  9
$UCSORTHOVIEW
 70
0
  9
$SURFTAB2
 70
6
  9
$TDUUPDATE
 40
2455529.3064630208536983
  9
$TDUCREATE
 40
2455529.1850609369575977
  9
$SKPOLY
 70
0
  9
$ELEVATION
 40
0.0
  9
$DIMDSEP
 70
44
  9
$DIMCEN
 40
2.5
  9
$DIMRND
 40
0.0
  9
$INSBASE
 10
0.0
 20
0.0
 30
0.0
  9
$SOLIDHIST
280
1
  9
$LIGHTGLYPHDISPLAY
280
1
  9
$LOFTPARAM
 70
7
  9
$INSUNITS
 70
4
  9
$USERI2
 70
0
  9
$UCSORGRIGHT
 10
0.0
 20
0.0
 30
0.0
  9
$UCSORG
 10
0.0
 20
0.0
 30
0.0
  9
$PELEVATION
 40
0.0
  9
$DIMEXO
 40
0.625
  9
$TEXTSIZE
 40
2.5
  9
$FILLMODE
 70
1
  9
$EXTMAX
 10
3431.8137426000898813
 20
1410.5043080554480639
 30
0.0
  9
$3DDWFPREC
 40
2.0
  9
$LENSLENGTH
 40
50.0
  9
$JOINSTYLE
280
0
  9
$USERI3
 70
0
  9
$PUCSORGBOTTOM
 10
0.0
 20
0.0
 30
0.0
  9
$SURFU
 70
6
  9
$ANGDIR
 70
0
  9
$TDUSRTIMER
 40
0.1214022685
  9
$DIMLWD
 70
-2
  9
$DIMTZIN
 70
8
  9
$DIMTOLJ
 70
0
  9
$DIMZIN
 70
8
  9
$DIMDLE
 40
0.0
  9
$DIMSCALE
 40
1.0
  9
$WORLDVIEW
 70
1
  9
$USERI4
 70
0
  9
$SURFV
 70
6
  9
$DIMARCSYM
 70
0
  9
$DIMLWE
 70
-2
  9
$DIMLUNIT
 70
2
  9
$DIMATFIT
 70
3
  9
$DIMALTTZ
 70
0
  9
$DIMJUST
 70
0
  9
$QTEXTMODE
 70
0
  9
$LIMMAX
 10
420.0
 20
297.0
  9
$ACADMAINTVER
 70
1
  9
$DGNFRAME
280
0
  9
$LOFTANG1
 40
1.5707963267948959
  9
$PSOLHEIGHT
 40
80.0
  9
$INTERSECTIONDISPLAY
280
0
  9
$HIDETEXT
280
1
  9
$EXTNAMES
290
1
  9
$PROXYGRAPHICS
 70
1
  9
$USERI5
 70
0
  9
$UCSORGTOP
 10
0.0
 20
0.0
 30
0.0
  9
$PDMODE
 70
0
  9
$LIMCHECK
 70
0
  9
$THICKNESS
 40
0.0
  9
$DIMJOGANG
 40
0.7853981633974483
  9
$DIMAZIN
 70
0
  9
$DIMSE1
 70
0
  9
$DIMLIM
 70
0
  9
$DIMTXT
 40
2.5
  9
$ATTMODE
 70
1
  9
$INTERFEREOBJVS
345
F9
  9
$LOFTANG2
 40
1.5707963267948959
  9
$PSOLWIDTH
 40
5.0
  9
$INTERSECTIONCOLOR
 70
257
  9
$OBSLTYPE
280
0
  9
$OBSCOLOR
 70
257
  9
$XEDIT
290
1
  9
$PEXTMAX
 10
0.0
 20
0.0
 30
0.0
  9
$PEXTMIN
 10
0.0
 20
0.0
 30
0.0
  9
$PUCSORG
 10
0.0
 20
0.0
 30
0.0
  9
$SPLINETYPE
 70
6
  9
$TDINDWG
 40
0.1214069792
  9
$LUPREC
 70
4
  9
$DIMSOXD
 70
0
  9
$DIMLFAC
 40
1.0
  9
$DIMSE2
 70
0
  9
$DIMTOH
 70
0
  9
$CELTYPE
  6
ByLayer
  9
$INTERFEREVPVS
346
F6
  9
$NORTHDIRECTION
 40
0.0
  9
$PSVPSCALE
 40
0.0
  9
$FINGERPRINTGUID
  2
{69599FCD-5708-42C7-9BD0-A03143713E3F}
  9
$PLIMCHECK
 70
0
  9
$PUCSORGRIGHT
 10
0.0
 20
0.0
 30
0.0
  9
$PLINEWID
 40
0.0
  9
$DIMFRAC
 70
0
  9
$DIMSTYLE
  2
ISO-25
  9
$DIMTVP
 40
0.0
  9
$DIMASO
 70
1
  9
$DIMTM
 40
0.0
  9
$DIMDLI
 40
3.75
  9
$DISPSILH
 70
0
  9
$CECOLOR
 62
256
  9
$INDEXCTL
280
0
  9
$TREEDEPTH
 70
3020
  9
$PLIMMAX
 10
12.0
 20
9.0
  9
$PLIMMIN
 10
0.0
 20
0.0
  9
$MAXACTVP
 70
64
  9
$UCSORGBACK
 10
0.0
 20
0.0
 30
0.0
  9
$UCSORGLEFT
 10
0.0
 20
0.0
 30
0.0
  9
$TDUPDATE
 40
2455529.7647963538765907
  9
$FILLETRAD
 40
20.0
  9
$DIMTFILLCLR
 70
0
  9
$DIMALTU
 70
2
  9
$DIMDEC
 70
2
  9
$DIMCLRT
 70
0
  9
$DIMALTD
 70
3
  9
$DIMTIH
 70
0
  9
$LTSCALE
 40
1.0
  9
$CSHADOW
280
0
  9
$CEPSNTYPE
380
0
  9
$CMLSCALE
 40
20.0
  9
$PINSBASE
 10
0.0
 20
0.0
 30
0.0
  9
$USERR1
 40
0.0
  9
$PUCSORTHOVIEW
 70
0
  9
$PDSIZE
 40
0.0
  9
$DIMTXSTY
  7
Standard
  9
$DIMCLRD
 70
0
  9
$DIMEXE
 40
1.25
  9
$CELTSCALE
 40
1.0
  9
$LASTSAVEDBY
  1
rward
  9
$INTERFERECOLOR
 62
1
  9
$LATITUDE
 40
37.7950000000000017
  9
$PSLTSCALE
 70
1
  9
$PLINEGEN
 70
0
  9
$SHADEDGE
 70
3
  9
$USERR2
 40
0.0
  9
$PUCSORGTOP
 10
0.0
 20
0.0
 30
0.0
  9
$UCSORGFRONT
 10
0.0
 20
0.0
 30
0.0
  9
$TDCREATE
 40
2455529.6433942709118128
  9
$DIMTMOVE
 70
0
  9
$DIMAUNIT
 70
0
  9
$DIMSD1
 70
0
  9
$DIMCLRE
 70
0
  9
$DIMTOFL
 70
1
  9
$DIMALTF
 40
0.03937007874016
  9
$DIMTOL
 70
0
  9
$DIMTP
 40
0.0
  9
$TEXTSTYLE
  7
Standard
  9
$TIMEZONE
 70
-8000
  9
$HALOGAP
280
0
  9
$USERR3
 40
0.0
  9
$PUCSORGBACK
 10
0.0
 20
0.0
 30
0.0
  9
$PUCSORGFRONT
 10
0.0
 20
0.0
 30
0.0
  9
$PUCSORGLEFT
 10
0.0
 20
0.0
 30
0.0
  9
$UCSORGBOTTOM
 10
0.0
 20
0.0
 30
0.0
  9
$AUNITS
 70
0
  9
$DIMSD2
 70
0
  9
$DIMTIX
 70
0
  9
$MIRRTEXT
 70
0
  0
ENDSEC
  0
SECTION
  2
TABLES
  0
TABLE
  2
VPORT
  5
8
100
AcDbSymbolTable
 70
1
  0
VPORT
  5
30
100
AcDbSymbolTableRecord
100
AcDbViewportTableRecord
  2
*Active
 70
0
 10
0.0
 20
0.0
 11
1.0
 21
1.0
 12
286.3055555555554861
 22
148.5
 13
0.0
 23
0.0
 14
10.0
 24
10.0
 15
10.0
 25
10.0
 16
0.0
 26
0.0
 36
1.0
 17
0.0
 27
0.0
 37
0.0
 40
297.0
 41
1.92798353909465
 42
50.0
 43
0.0
 44
0.0
 50
0.0
 51
0.0
 71
0
 72
100
 73
1
 74
3
 75
1
 76
1
 77
0
 78
0
281
0
 65
1
110
0.0
120
0.0
130
0.0
111
1.0
121
0.0
131
0.0
112
0.0
122
1.0
132
0.0
 79
0
146
0.0
  0
ENDTAB
  0
TABLE
  2
LTYPE
  5
5
100
AcDbSymbolTable
 70
21
  0
LTYPE
  5
14
100
AcDbSymbolTableRecord
100
AcDbLinetypeTableRecord
  2
ByBlock
 70
0
  3

 72
65
 73
0
 40
0.0
  0
LTYPE
  5
15
100
AcDbSymbolTableRecord
100
AcDbLinetypeTableRecord
  2
ByLayer
 70
0
  3

 72
65
 73
0
 40
0.0
  0
LTYPE
  5
16
100
AcDbSymbolTableRecord
100
AcDbLinetypeTableRecord
  2
CONTINUOUS
 70
0
  3
Solid line
 72
65
 73
0
 40
0.0
  0
LTYPE
  5
31
100
AcDbSymbolTableRecord
100
AcDbLinetypeTableRecord
  2
DOT
 70
0
  3
Dot . . . . . . . . . . . . . . . . . . . . . .
 72
65
 73
2
 40
6.3499999999999996
 49
0.0
 74
0
 49
-6.3499999999999996
 74
0
  0
LTYPE
  5
32
100
AcDbSymbolTableRecord
100
AcDbLinetypeTableRecord
  2
DOT2
 70
0
  3
Dot (.5x) .....................................
 72
65
 73
2
 40
3.1749999999999998
 49
0.0
 74
0
 49
-3.1749999999999998
 74
0
  0
LTYPE
  5
33
100
AcDbSymbolTableRecord
100
AcDbLinetypeTableRecord
  2
DOTX2
 70
0
  3
Dot (2x) .  .  .  .  .  .  .  .  .  .  .  .  .
 72
65
 73
2
 40
12.6999999999999993
 49
0.0
 74
0
 49
-12.6999999999999993
 74
0
  0
LTYPE
  5
34
100
AcDbSymbolTableRecord
100
AcDbLinetypeTableRecord
  2
DASHED
 70
0
  3
Dashed __ __ __ __ __ __ __ __ __ __ __ __ __ _
 72
65
 73
2
 40
19.0500000000000007
 49
12.6999999999999993
 74
0
 49
-6.3499999999999996
 74
0
  0
LTYPE
  5
35
100
AcDbSymbolTableRecord
100
AcDbLinetypeTableRecord
  2
DASHED2
 70
0
  3
Dashed (.5x) _ _ _ _ _ _ _ _ _ _ _ _ _ _ _ _ _
 72
65
 73
2
 40
9.5250000000000004
 49
6.3499999999999996
 74
0
 49
-3.1749999999999998
 74
0
  0
LTYPE
  5
36
100
AcDbSymbolTableRecord
100
AcDbLinetypeTableRecord
  2
DASHEDX2
 70
0
  3
Dashed (2x) ____  ____  ____  ____  ____  ___
 72
65
 73
2
 40
38.1000000000000014
 49
25.3999999999999986
 74
0
 49
-12.6999999999999993
 74
0
  0
LTYPE
  5
37
100
AcDbSymbolTableRecord
100
AcDbLinetypeTableRecord
  2
DASHDOT
 70
0
  3
Dash dot __ . __ . __ . __ . __ . __ . __ . __
 72
65
 73
4
 40
25.3999999999999986
 49
12.6999999999999993
 74
0
 49
-6.3499999999999996
 74
0
 49
0.0
 74
0
 49
-6.3499999999999996
 74
0
  0
LTYPE
  5
38
100
AcDbSymbolTableRecord
100
AcDbLinetypeTableRecord
  2
DASHDOT2
 70
0
  3
Dash dot (.5x) _._._._._._._._._._._._._._._.
 72
65
 73
4
 40
12.6999999999999993
 49
6.3499999999999996
 74
0
 49
-3.1749999999999998
 74
0
 49
0.0
 74
0
 49
-3.1749999999999998
 74
0
  0
LTYPE
  5
39
100
AcDbSymbolTableRecord
100
AcDbLinetypeTableRecord
  2
DASHDOTX2
 70
0
  3
Dash dot (2x) ____  .  ____  .  ____  .  ___
 72
65
 73
4
 40
50.7999999999999972
 49
25.3999999999999986
 74
0
 49
-12.6999999999999993
 74
0
 49
0.0
 74
0
 49
-12.6999999999999993
 74
0
  0
LTYPE
  5
3A
100
AcDbSymbolTableRecord
100
AcDbLinetypeTableRecord
  2
DIVIDE
 70
0
  3
Divide ____ . . ____ . . ____ . . ____ . . ____
 72
65
 73
6
 40
31.75
 49
12.6999999999999993
 74
0
 49
-6.3499999999999996
 74
0
 49
0.0
 74
0
 49
-6.3499999999999996
 74
0
 49
0.0
 74
0
 49
-6.3499999999999996
 74
0
  0
LTYPE
  5
3B
100
AcDbSymbolTableRecord
100
AcDbLinetypeTableRecord
  2
DIVIDE2
 70
0
  3
Divide (.5x) __..__..__..__..__..__..__..__.._
 72
65
 73
6
 40
15.875
 49
6.3499999999999996
 74
0
 49
-3.1749999999999998
 74
0
 49
0.0
 74
0
 49
-3.1749999999999998
 74
0
 49
0.0
 74
0
 49
-3.1749999999999998
 74
0
  0
LTYPE
  5
3C
100
AcDbSymbolTableRecord
100
AcDbLinetypeTableRecord
  2
DIVIDEX2
 70
0
  3
Divide (2x) ________  .  .  ________  .  .  _
 72
65
 73
6
 40
63.5
 49
25.3999999999999986
 74
0
 49
-12.6999999999999993
 74
0
 49
0.0
 74
0
 49
-12.6999999999999993
 74
0
 49
0.0
 74
0
 49
-12.6999999999999993
 74
0
  0
LTYPE
  5
3D
100
AcDbSymbolTableRecord
100
AcDbLinetypeTableRecord
  2
CENTER
 70
0
  3
Center ____ _ ____ _ ____ _ ____ _ ____ _ ____
 72
65
 73
4
 40
50.7999999999999972
 49
31.75
 74
0
 49
-6.3499999999999996
 74
0
 49
6.3499999999999996
 74
0
 49
-6.3499999999999996
 74
0
  0
LTYPE
  5
3E
100
AcDbSymbolTableRecord
100
AcDbLinetypeTableRecord
  2
CENTER2
 70
0
  3
Center (.5x) ___ _ ___ _ ___ _ ___ _ ___ _ ___
 72
65
 73
4
 40
28.5749999999999993
 49
19.0500000000000007
 74
0
 49
-3.1749999999999998
 74
0
 49
3.1749999999999998
 74
0
 49
-3.1749999999999998
 74
0
  0
LTYPE
  5
3F
100
AcDbSymbolTableRecord
100
AcDbLinetypeTableRecord
  2
CENTERX2
 70
0
  3
Center (2x) ________  __  ________  __  _____
 72
65
 73
4
 40
101.5999999999999943
 49
63.5
 74
0
 49
-12.6999999999999993
 74
0
 49
12.6999999999999993
 74
0
 49
-12.6999999999999993
 74
0
  0
LTYPE
  5
40
100
AcDbSymbolTableRecord
100
AcDbLinetypeTableRecord
  2
BORDER
 70
0
  3
Border __ __ . __ __ . __ __ . __ __ . __ __ .
 72
65
 73
6
 40
44.4500000000000028
 49
12.6999999999999993
 74
0
 49
-6.3499999999999996
 74
0
 49
12.6999999999999993
 74
0
 49
-6.3499999999999996
 74
0
 49
0.0
 74
0
 49
-6.3499999999999996
 74
0
  0
LTYPE
  5
41
100
AcDbSymbolTableRecord
100
AcDbLinetypeTableRecord
  2
BORDER2
 70
0
  3
Border (.5x) __.__.__.__.__.__.__.__.__.__.__.
 72
65
 73
6
 40
22.2250000000000014
 49
6.3499999999999996
 74
0
 49
-3.1749999999999998
 74
0
 49
6.3499999999999996
 74
0
 49
-3.1749999999999998
 74
0
 49
0.0
 74
0
 49
-3.1749999999999998
 74
0
  0
LTYPE
  5
42
100
AcDbSymbolTableRecord
100
AcDbLinetypeTableRecord
  2
BORDERX2
 70
0
  3
Border (2x) ____  ____  .  ____  ____  .  ___
 72
65
 73
6
 40
88.9000000000000057
 49
25.3999999999999986
 74
0
 49
-12.6999999999999993
 74
0
 49
25.3999999999999986
 74
0
 49
-12.6999999999999993
 74
0
 49
0.0
 74
0
 49
-12.6999999999999993
 74
0
  0
ENDTAB
  0
TABLE
  2
LAYER
  5
2
100
AcDbSymbolTable
 70
5
  0
LAYER
  5
10
100
AcDbSymbolTableRecord
100
AcDbLayerTableRecord
  2
0
 70
0
 62
7
  6
CONTINUOUS
370
-3
390
F
  0
LAYER
  5
43
100
AcDbSymbolTableRecord
100
AcDbLayerTableRecord
  2
Defpoints
 70
1
 62
7
  6
CONTINUOUS
290
0
370
-3
390
F
  0
LAYER
  5
44
100
AcDbSymbolTableRecord
100
AcDbLayerTableRecord
  2
Quer
 70
0
 62
7
  6
CONTINUOUS
370
0
390
F
  0
LAYER
  5
45
100
AcDbSymbolTableRecord
100
AcDbLayerTableRecord
  2
Flaschen
 70
0
 62
7
  6
CONTINUOUS
370
0
390
F
  0
LAYER
  5
46
100
AcDbSymbolTableRecord
100
AcDbLayerTableRecord
  2
mittel
 70
0
 62
7
  6
CONTINUOUS
370
0
390
F
  0
ENDTAB
  0
TABLE
  2
STYLE
  5
3
100
AcDbSymbolTable
 70
1
  0
STYLE
  5
11
100
AcDbSymbolTableRecord
100
AcDbTextStyleTableRecord
  2
Standard
 70
0
 40
0.0
 41
0.75
 50
0.0
 71
0
 42
2.5
  3
txt
  4

  0
ENDTAB
  0
TABLE
  2
VIEW
  5
6
100
AcDbSymbolTable
 70
0
  0
ENDTAB
  0
TABLE
  2
UCS
  5
7
100
AcDbSymbolTable
 70
0
  0
ENDTAB
  0
TABLE
  2
APPID
  5
9
100
AcDbSymbolTable
 70
1
  0
APPID
  5
12
100
AcDbSymbolTableRecord
100
AcDbRegAppTableRecord
  2
ACAD
 70
0
  0
ENDTAB
  0
TABLE
  2
DIMSTYLE
  5
A
100
AcDbSymbolTable
 70
1
100
AcDbDimStyleTable
 71
0
  0
DIMSTYLE
105
27
100
AcDbSymbolTableRecord
100
AcDbDimStyleTableRecord
  2
Standard
 41
2.5
 42
0.625
 43
3.75
 44
1.25
 70
0
 73
0
 74
0
 77
1
 78
8
140
2.5
141
2.5
143
0.03937007874016
147
0.625
171
3
172
1
271
2
272
2
274
3
278
44
283
0
284
8
340
11
  0
ENDTAB
  0
TABLE
  2
BLOCK_RECORD
  5
1
100
AcDbSymbolTable
 70
1
  0
BLOCK_RECORD
  5
1F
100
AcDbSymbolTableRecord
100
AcDbBlockTableRecord
  2
*Model_Space
340
22
  0
BLOCK_RECORD
  5
1B
100
AcDbSymbolTableRecord
100
AcDbBlockTableRecord
  2
*Paper_Space
340
1E
  0
BLOCK_RECORD
  5
23
100
AcDbSymbolTableRecord
100
AcDbBlockTableRecord
  2
*Paper_Space0
340
26
  0
BLOCK_RECORD
  5
47
100
AcDbSymbolTableRecord
100
AcDbBlockTableRecord
  2
*D2
340
0
  0
BLOCK_RECORD
  5
48
100
AcDbSymbolTableRecord
100
AcDbBlockTableRecord
  2
*D3
340
0
  0
BLOCK_RECORD
  5
49
100
AcDbSymbolTableRecord
100
AcDbBlockTableRecord
  2
*D4
340
0
  0
BLOCK_RECORD
  5
4A
100
AcDbSymbolTableRecord
100
AcDbBlockTableRecord
  2
*D5
340
0
  0
ENDTAB
  0
ENDSEC
  0
SECTION
  2
BLOCKS
  0
BLOCK
  5
20
100
AcDbEntity
  8
0
100
AcDbBlockBegin
  2
*Model_Space
 70
0
 10
0.0
 20
0.0
 30
0.0
  3
*Model_Space
  1

  0
ENDBLK
  5
21
100
AcDbEntity
  8
0
100
AcDbBlockEnd
  0
BLOCK
  5
1C
100
AcDbEntity
 67
1
  8
0
100
AcDbBlockBegin
  2
*Paper_Space
 70
0
 10
0.0
 20
0.0
 30
0.0
  3
*Paper_Space
  1

  0
ENDBLK
  5
1D
100
AcDbEntity
 67
1
  8
0
100
AcDbBlockEnd
  0
BLOCK
  5
24
100
AcDbEntity
  8
0
100
AcDbBlockBegin
  2
*Paper_Space0
 70
0
 10
0.0
 20
0.0
 30
0.0
  3
*Paper_Space0
  1

  0
ENDBLK
  5
25
100
AcDbEntity
  8
0
100
AcDbBlockEnd
  0
BLOCK
  5
4B
100
AcDbEntity
  8
0
100
AcDbBlockBegin
  2
*D2
 70
0
 10
0.0
 20
0.0
 30
0.0
  3
*D2
  1

  0
LINE
  5
4C
100
AcDbEntity
100
AcDbLine
  8
0
 62
0
370
-2
  6
ByLayer
 10
2148.1219126979049179
 20
580.2559298901436478
 30
0.0
 11
2148.1219126979049179
 21
514.7446661547382973
 31
0.0
  0
LINE
  5
4D
100
AcDbEntity
100
AcDbLine
  8
0
 62
0
370
-2
  6
ByLayer
 10
2680.1636143184459797
 20
580.2559298901436478
 30
0.0
 11
2680.1636143184459797
 21
514.7446661547382973
 31
0.0
  0
LINE
  5
4E
100
AcDbEntity
100
AcDbLine
  8
0
 62
0
370
-2
  6
ByLayer
 10
2150.6219126979049179
 20
515.9946661547381836
 30
0.0
 11
2677.6636143184459797
 21
515.9946661547381836
 31
0.0
  0
MTEXT
  5
4F
100
AcDbEntity
100
AcDbMText
  8
0
 62
0
370
-1
  6
ByLayer
 10
2414.1427635081759036
 20
518.0779994880715549
 30
0.0
 40
2.5
 41
0.0
 71
5
 72
2
  1
532,04
  7
Standard
 50
0.0
 73
0
 44
1.0
  0
POINT
  5
50
100
AcDbEntity
100
AcDbPoint
  8
Defpoints
 62
0
370
-1
  6
ByLayer
 10
2148.1219126979049179
 20
580.8809298901436478
 30
0.0
  0
POINT
  5
51
100
AcDbEntity
100
AcDbPoint
  8
Defpoints
 62
0
370
-1
  6
ByLayer
 10
2680.1636143184459797
 20
580.8809298901436478
 30
0.0
  0
POINT
  5
52
100
AcDbEntity
100
AcDbPoint
  8
Defpoints
 62
0
370
-1
  6
ByLayer
 10
2680.1636143184459797
 20
515.9946661547381836
 30
0.0
  0
ENDBLK
  5
53
100
AcDbEntity
  8
0
100
AcDbBlockEnd
  0
BLOCK
  5
54
100
AcDbEntity
  8
0
100
AcDbBlockBegin
  2
*D3
 70
0
 10
0.0
 20
0.0
 30
0.0
  3
*D3
  1

  0
LINE
  5
55
100
AcDbEntity
100
AcDbLine
  8
0
 62
0
370
-2
  6
ByLayer
 10
2680.7886143184459797
 20
915.5574571292262362
 30
0.0
 11
2747.4915998741180374
 21
915.5574571292262362
 31
0.0
  0
LINE
  5
56
100
AcDbEntity
100
AcDbLine
  8
0
 62
0
370
-2
  6
ByLayer
 10
2680.7886143184459797
 20
580.2559298901436478
 30
0.0
 11
2747.4915998741180374
 21
580.2559298901436478
 31
0.0
  0
LINE
  5
57
100
AcDbEntity
100
AcDbLine
  8
0
 62
0
370
-2
  6
ByLayer
 10
2746.2415998741180374
 20
913.0574571292263499
 30
0.0
 11
2746.2415998741180374
 21
582.7559298901436478
 31
0.0
  0
MTEXT
  5
58
100
AcDbEntity
100
AcDbMText
  8
0
 62
0
370
-1
  6
ByLayer
 10
2744.1582665407850072
 20
747.9066935096855104
 30
0.0
 40
2.5
 41
0.0
 71
5
 72
2
  1
335,3
  7
Standard
 50
90.0
 73
0
 44
1.0
  0
POINT
  5
59
100
AcDbEntity
100
AcDbPoint
  8
Defpoints
 62
0
370
-1
  6
ByLayer
 10
2680.1636143184459797
 20
915.5574571292262362
 30
0.0
  0
POINT
  5
5A
100
AcDbEntity
100
AcDbPoint
  8
Defpoints
 62
0
370
-1
  6
ByLayer
 10
2680.1636143184459797
 20
580.2559298901436478
 30
0.0
  0
POINT
  5
5B
100
AcDbEntity
100
AcDbPoint
  8
Defpoints
 62
0
370
-1
  6
ByLayer
 10
2746.2415998741180374
 20
580.2559298901436478
 30
0.0
  0
ENDBLK
  5
5C
100
AcDbEntity
  8
0
100
AcDbBlockEnd
  0
BLOCK
  5
5D
100
AcDbEntity
  8
0
100
AcDbBlockBegin
  2
*D4
 70
0
 10
0.0
 20
0.0
 30
0.0
  3
*D4
  1

  0
LINE
  5
5E
100
AcDbEntity
100
AcDbLine
  8
0
 62
0
370
-2
  6
ByLayer
 10
1415.7922986663108986
 20
614.6271540277240319
 30
0.0
 11
1415.7922986663108986
 21
559.357438163583879
 31
0.0
  0
LINE
  5
5F
100
AcDbEntity
100
AcDbLine
  8
0
 62
0
370
-2
  6
ByLayer
 10
1875.7922986663108986
 20
614.6271540277240319
 30
0.0
 11
1875.7922986663108986
 21
559.357438163583879
 31
0.0
  0
LINE
  5
60
100
AcDbEntity
100
AcDbLine
  8
0
 62
0
370
-2
  6
ByLayer
 10
1418.2922986663099891
 20
560.607438163583879
 30
0.0
 11
1873.2922986663108986
 21
560.607438163583879
 31
0.0
  0
MTEXT
  5
61
100
AcDbEntity
100
AcDbMText
  8
0
 62
0
370
-1
  6
ByLayer
 10
1645.7922986663099891
 20
562.482438163583879
 30
0.0
 40
2.5
 41
0.0
 71
5
 72
2
  1
460
  7
Standard
 50
0.0
 73
0
 44
1.0
  0
POINT
  5
62
100
AcDbEntity
100
AcDbPoint
  8
Defpoints
 62
0
370
-1
  6
ByLayer
 10
1415.7922986663108986
 20
615.2521540277240319
 30
0.0
  0
POINT
  5
63
100
AcDbEntity
100
AcDbPoint
  8
Defpoints
 62
0
370
-1
  6
ByLayer
 10
1875.7922986663108986
 20
615.2521540277240319
 30
0.0
  0
POINT
  5
64
100
AcDbEntity
100
AcDbPoint
  8
Defpoints
 62
0
370
-1
  6
ByLayer
 10
1875.7922986663108986
 20
560.607438163583879
 30
0.0
  0
ENDBLK
  5
65
100
AcDbEntity
  8
0
100
AcDbBlockEnd
  0
BLOCK
  5
66
100
AcDbEntity
  8
0
100
AcDbBlockBegin
  2
*D5
 70
0
 10
0.0
 20
0.0
 30
0.0
  3
*D5
  1

  0
LINE
  5
67
100
AcDbEntity
100
AcDbLine
  8
0
 62
0
370
-2
  6
ByLayer
 10
1590.1672986663099891
 20
905.2521540277238046
 30
0.0
 11
1334.12869585941894
 21
905.2521540277238046
 31
0.0
  0
LINE
  5
68
100
AcDbEntity
100
AcDbLine
  8
0
 62
0
370
-2
  6
ByLayer
 10
1590.1672986663099891
 20
595.2521540277240319
 30
0.0
 11
1334.12869585941894
 21
595.2521540277240319
 31
0.0
  0
LINE
  5
69
100
AcDbEntity
100
AcDbLine
  8
0
 62
0
370
-2
  6
ByLayer
 10
1335.37869585941894
 20
902.7521540277239183
 30
0.0
 11
1335.37869585941894
 21
597.7521540277240319
 31
0.0
  0
MTEXT
  5
6A
100
AcDbEntity
100
AcDbMText
  8
0
 62
0
370
-1
  6
ByLayer
 10
1333.50369585941894
 20
750.2521540277242593
 30
0.0
 40
2.5
 41
0.0
 71
5
 72
2
  1
310
  7
Standard
 50
90.0
 73
0
 44
1.0
  0
POINT
  5
6B
100
AcDbEntity
100
AcDbPoint
  8
Defpoints
 62
0
370
-1
  6
ByLayer
 10
1590.7922986663099891
 20
905.2521540277238046
 30
0.0
  0
POINT
  5
6C
100
AcDbEntity
100
AcDbPoint
  8
Defpoints
 62
0
370
-1
  6
ByLayer
 10
1590.7922986663099891
 20
595.2521540277240319
 30
0.0
  0
POINT
  5
6D
100
AcDbEntity
100
AcDbPoint
  8
Defpoints
 62
0
370
-1
  6
ByLayer
 10
1335.37869585941894
 20
595.2521540277240319
 30
0.0
  0
ENDBLK
  5
6E
100
AcDbEntity
  8
0
100
AcDbBlockEnd
  0
ENDSEC
  0
SECTION
  2
ENTITIES
  0
LINE
  5
6F
100
AcDbEntity
100
AcDbLine
  8
Defpoints
 62
256
370
-1
  6
ByLayer
 10
1062.4071871845389978
 20
14.4327968143321321
 30
0.0
 11
1062.4071871845389978
 21
-20.0
 31
0.0
  0
LINE
  5
70
100
AcDbEntity
100
AcDbLine
  8
Defpoints
 62
256
370
-1
  6
ByLayer
 10
1062.4071871845389978
 20
-20.0
 30
0.0
 11
1062.4071871845389978
 21
14.4327968143320504
 31
0.0
  0
LINE
  5
71
100
AcDbEntity
100
AcDbLine
  8
Defpoints
 62
256
370
-1
  6
ByLayer
 10
1242.4071871845389978
 20
14.4327968143320504
 30
0.0
 11
1242.4071871845389978
 21
-20.0
 31
0.0
  0
LINE
  5
72
100
AcDbEntity
100
AcDbLine
  8
Defpoints
 62
256
370
-1
  6
ByLayer
 10
1065.4071871845389978
 20
9.4327968143321641
 30
0.0
 11
1239.4071871845389978
 21
9.4327968143320504
 31
0.0
  0
LINE
  5
73
100
AcDbEntity
100
AcDbLine
  8
Defpoints
 62
256
370
-1
  6
ByLayer
 10
1062.4071871845389978
 20
19.4327968143321002
 30
0.0
 11
1062.4071871845389978
 21
9.4327968143321641
 31
0.0
  0
LINE
  5
74
100
AcDbEntity
100
AcDbLine
  8
Quer
 62
256
370
-1
  6
ByLayer
 10
1062.4071871845389978
 20
19.4327968143321002
 30
0.0
 11
1062.4071871845389978
 21
9.4327968143321073
 31
0.0
  0
LINE
  5
75
100
AcDbEntity
100
AcDbLine
  8
Quer
 62
256
370
-1
  6
ByLayer
 10
1062.4071871845389978
 20
9.4327968143321073
 30
0.0
 11
1068.3071871845390888
 21
9.4327968143321073
 31
0.0
  0
LINE
  5
76
100
AcDbEntity
100
AcDbLine
  8
Quer
 62
256
370
-1
  6
ByLayer
 10
1068.3071871845390888
 20
9.4327968143321073
 30
0.0
 11
1068.3071871845390888
 21
19.4327968143321002
 31
0.0
  0
LINE
  5
77
100
AcDbEntity
100
AcDbLine
  8
Quer
 62
256
370
-1
  6
ByLayer
 10
1236.5071871845389069
 20
19.4327968143320433
 30
0.0
 11
1236.5071871845389069
 21
9.4327968143320504
 31
0.0
  0
LINE
  5
78
100
AcDbEntity
100
AcDbLine
  8
Quer
 62
256
370
-1
  6
ByLayer
 10
1236.5071871845389069
 20
9.4327968143320504
 30
0.0
 11
1242.4071871845389978
 21
9.4327968143320504
 31
0.0
  0
LINE
  5
79
100
AcDbEntity
100
AcDbLine
  8
Quer
 62
256
370
-1
  6
ByLayer
 10
1242.4071871845389978
 20
9.4327968143320504
 30
0.0
 11
1242.4071871845389978
 21
19.4327968143320433
 31
0.0
  0
LINE
  5
7A
100
AcDbEntity
100
AcDbLine
  8
Quer
 62
256
370
-1
  6
ByLayer
 10
1120.4404871845390517
 20
19.4327968143321002
 30
0.0
 11
1120.4404871845390517
 21
9.4327968143321073
 31
0.0
  0
LINE
  5
7B
100
AcDbEntity
100
AcDbLine
  8
Quer
 62
256
370
-1
  6
ByLayer
 10
1120.4404871845390517
 20
9.4327968143321073
 30
0.0
 11
1126.3404871845391426
 21
9.4327968143321073
 31
0.0
  0
LINE
  5
7C
100
AcDbEntity
100
AcDbLine
  8
Quer
 62
256
370
-1
  6
ByLayer
 10
1126.3404871845391426
 20
9.4327968143321073
 30
0.0
 11
1126.3404871845391426
 21
19.4327968143321002
 31
0.0
  0
LINE
  5
7D
100
AcDbEntity
100
AcDbLine
  8
Quer
 62
256
370
-1
  6
ByLayer
 10
1178.4737871845391055
 20
19.4327968143321002
 30
0.0
 11
1178.4737871845391055
 21
9.4327968143321073
 31
0.0
  0
LINE
  5
7E
100
AcDbEntity
100
AcDbLine
  8
Quer
 62
256
370
-1
  6
ByLayer
 10
1178.4737871845391055
 20
9.4327968143321073
 30
0.0
 11
1184.3737871845391965
 21
9.4327968143321073
 31
0.0
  0
LINE
  5
7F
100
AcDbEntity
100
AcDbLine
  8
Quer
 62
256
370
-1
  6
ByLayer
 10
1184.3737871845391965
 20
9.4327968143321073
 30
0.0
 11
1184.3737871845391965
 21
19.4327968143321002
 31
0.0
  0
LINE
  5
80
100
AcDbEntity
100
AcDbLine
  8
Quer
 62
256
370
-1
  6
ByLayer
 10
1068.3071871845390888
 20
19.4327968143321002
 30
0.0
 11
1120.4404871845390517
 21
19.4327968143321002
 31
0.0
  0
LINE
  5
81
100
AcDbEntity
100
AcDbLine
  8
Quer
 62
256
370
-1
  6
ByLayer
 10
1126.3404871845391426
 20
19.4327968143321002
 30
0.0
 11
1178.4737871845391055
 21
19.4327968143321002
 31
0.0
  0
LINE
  5
82
100
AcDbEntity
100
AcDbLine
  8
Quer
 62
256
370
-1
  6
ByLayer
 10
1184.3737871845391965
 20
19.4327968143321002
 30
0.0
 11
1236.5071871845389069
 21
19.4327968143320433
 31
0.0
  0
LINE
  5
83
100
AcDbEntity
100
AcDbLine
  8
Quer
 62
256
370
-1
  6
ByLayer
 10
1052.4071871845389978
 20
-0.5672031856679496
 30
0.0
 11
1252.4071871845389978
 21
-0.5672031856679496
 31
0.0
  0
LINE
  5
84
100
AcDbEntity
100
AcDbLine
  8
Quer
 62
256
370
-1
  6
ByLayer
 10
1252.4071871845389978
 20
-0.5672031856679496
 30
0.0
 11
1252.4071871845389978
 21
19.4327968143320504
 31
0.0
  0
LINE
  5
85
100
AcDbEntity
100
AcDbLine
  8
Quer
 62
256
370
-1
  6
ByLayer
 10
1252.4071871845389978
 20
19.4327968143320504
 30
0.0
 11
1242.4071871845389978
 21
19.4327968143320504
 31
0.0
  0
LINE
  5
86
100
AcDbEntity
100
AcDbLine
  8
Quer
 62
256
370
-1
  6
ByLayer
 10
1052.4071871845389978
 20
19.4327968143321002
 30
0.0
 11
1052.4071871845389978
 21
-0.5672031856679496
 31
0.0
  0
LINE
  5
87
100
AcDbEntity
100
AcDbLine
  8
Quer
 62
256
370
-1
  6
ByLayer
 10
1062.4071871845389978
 20
19.4327968143321002
 30
0.0
 11
1052.4071871845389978
 21
19.4327968143321002
 31
0.0
  0
LINE
  5
88
100
AcDbEntity
100
AcDbLine
  8
Quer
 62
256
370
-1
  6
ByLayer
 10
1062.4071871845389978
 20
44.4327968143321002
 30
0.0
 11
1062.4071871845389978
 21
34.4327968143321073
 31
0.0
  0
LINE
  5
89
100
AcDbEntity
100
AcDbLine
  8
Quer
 62
256
370
-1
  6
ByLayer
 10
1062.4071871845389978
 20
34.4327968143321073
 30
0.0
 11
1068.3071871845390888
 21
34.4327968143321073
 31
0.0
  0
LINE
  5
8A
100
AcDbEntity
100
AcDbLine
  8
Quer
 62
256
370
-1
  6
ByLayer
 10
1068.3071871845390888
 20
34.4327968143321073
 30
0.0
 11
1068.3071871845390888
 21
44.4327968143321002
 31
0.0
  0
LINE
  5
8B
100
AcDbEntity
100
AcDbLine
  8
Quer
 62
256
370
-1
  6
ByLayer
 10
1236.5071871845389069
 20
44.4327968143320433
 30
0.0
 11
1236.5071871845389069
 21
34.4327968143320504
 31
0.0
  0
LINE
  5
8C
100
AcDbEntity
100
AcDbLine
  8
Quer
 62
256
370
-1
  6
ByLayer
 10
1236.5071871845389069
 20
34.4327968143320504
 30
0.0
 11
1242.4071871845389978
 21
34.4327968143320504
 31
0.0
  0
LINE
  5
8D
100
AcDbEntity
100
AcDbLine
  8
Quer
 62
256
370
-1
  6
ByLayer
 10
1242.4071871845389978
 20
34.4327968143320504
 30
0.0
 11
1242.4071871845389978
 21
44.4327968143320433
 31
0.0
  0
LINE
  5
8E
100
AcDbEntity
100
AcDbLine
  8
Quer
 62
256
370
-1
  6
ByLayer
 10
1120.4404871845390517
 20
44.4327968143321002
 30
0.0
 11
1120.4404871845390517
 21
34.4327968143321073
 31
0.0
  0
LINE
  5
8F
100
AcDbEntity
100
AcDbLine
  8
Quer
 62
256
370
-1
  6
ByLayer
 10
1120.4404871845390517
 20
34.4327968143321073
 30
0.0
 11
1126.3404871845391426
 21
34.4327968143321073
 31
0.0
  0
LINE
  5
90
100
AcDbEntity
100
AcDbLine
  8
Quer
 62
256
370
-1
  6
ByLayer
 10
1126.3404871845391426
 20
34.4327968143321073
 30
0.0
 11
1126.3404871845391426
 21
44.4327968143321002
 31
0.0
  0
LINE
  5
91
100
AcDbEntity
100
AcDbLine
  8
Quer
 62
256
370
-1
  6
ByLayer
 10
1178.4737871845391055
 20
44.4327968143321002
 30
0.0
 11
1178.4737871845391055
 21
34.4327968143321073
 31
0.0
  0
LINE
  5
92
100
AcDbEntity
100
AcDbLine
  8
Quer
 62
256
370
-1
  6
ByLayer
 10
1178.4737871845391055
 20
34.4327968143321073
 30
0.0
 11
1184.3737871845391965
 21
34.4327968143321073
 31
0.0
  0
LINE
  5
93
100
AcDbEntity
100
AcDbLine
  8
Quer
 62
256
370
-1
  6
ByLayer
 10
1184.3737871845391965
 20
34.4327968143321073
 30
0.0
 11
1184.3737871845391965
 21
44.4327968143321002
 31
0.0
  0
LINE
  5
94
100
AcDbEntity
100
AcDbLine
  8
Quer
 62
256
370
-1
  6
ByLayer
 10
1068.3071871845390888
 20
44.4327968143321002
 30
0.0
 11
1120.4404871845390517
 21
44.4327968143321002
 31
0.0
  0
LINE
  5
95
100
AcDbEntity
100
AcDbLine
  8
Quer
 62
256
370
-1
  6
ByLayer
 10
1126.3404871845391426
 20
44.4327968143321002
 30
0.0
 11
1178.4737871845391055
 21
44.4327968143321002
 31
0.0
  0
LINE
  5
96
100
AcDbEntity
100
AcDbLine
  8
Quer
 62
256
370
-1
  6
ByLayer
 10
1184.3737871845391965
 20
44.4327968143321002
 30
0.0
 11
1236.5071871845389069
 21
44.4327968143320433
 31
0.0
  0
LINE
  5
97
100
AcDbEntity
100
AcDbLine
  8
Quer
 62
256
370
-1
  6
ByLayer
 10
1052.4071871845389978
 20
24.4327968143320504
 30
0.0
 11
1252.4071871845389978
 21
24.4327968143320504
 31
0.0
  0
LINE
  5
98
100
AcDbEntity
100
AcDbLine
  8
Quer
 62
256
370
-1
  6
ByLayer
 10
1252.4071871845389978
 20
24.4327968143320504
 30
0.0
 11
1252.4071871845389978
 21
44.4327968143320504
 31
0.0
  0
LINE
  5
99
100
AcDbEntity
100
AcDbLine
  8
Quer
 62
256
370
-1
  6
ByLayer
 10
1252.4071871845389978
 20
44.4327968143320504
 30
0.0
 11
1242.4071871845389978
 21
44.4327968143320504
 31
0.0
  0
LINE
  5
9A
100
AcDbEntity
100
AcDbLine
  8
Quer
 62
256
370
-1
  6
ByLayer
 10
1052.4071871845389978
 20
44.4327968143321002
 30
0.0
 11
1052.4071871845389978
 21
24.4327968143320504
 31
0.0
  0
LINE
  5
9B
100
AcDbEntity
100
AcDbLine
  8
Quer
 62
256
370
-1
  6
ByLayer
 10
1062.4071871845389978
 20
44.4327968143321002
 30
0.0
 11
1052.4071871845389978
 21
44.4327968143321002
 31
0.0
  0
LINE
  5
9C
100
AcDbEntity
100
AcDbLine
  8
Quer
 62
256
370
-1
  6
ByLayer
 10
1062.4071871845389978
 20
69.4327968143321073
 30
0.0
 11
1062.4071871845389978
 21
59.4327968143321073
 31
0.0
  0
LINE
  5
9D
100
AcDbEntity
100
AcDbLine
  8
Quer
 62
256
370
-1
  6
ByLayer
 10
1062.4071871845389978
 20
59.4327968143321073
 30
0.0
 11
1068.3071871845390888
 21
59.4327968143321073
 31
0.0
  0
LINE
  5
9E
100
AcDbEntity
100
AcDbLine
  8
Quer
 62
256
370
-1
  6
ByLayer
 10
1068.3071871845390888
 20
59.4327968143321073
 30
0.0
 11
1068.3071871845390888
 21
69.4327968143321073
 31
0.0
  0
LINE
  5
9F
100
AcDbEntity
100
AcDbLine
  8
Quer
 62
256
370
-1
  6
ByLayer
 10
1236.5071871845389069
 20
69.4327968143320504
 30
0.0
 11
1236.5071871845389069
 21
59.4327968143320504
 31
0.0
  0
LINE
  5
A0
100
AcDbEntity
100
AcDbLine
  8
Quer
 62
256
370
-1
  6
ByLayer
 10
1236.5071871845389069
 20
59.4327968143320504
 30
0.0
 11
1242.4071871845389978
 21
59.4327968143320504
 31
0.0
  0
LINE
  5
A1
100
AcDbEntity
100
AcDbLine
  8
Quer
 62
256
370
-1
  6
ByLayer
 10
1242.4071871845389978
 20
59.4327968143320504
 30
0.0
 11
1242.4071871845389978
 21
69.4327968143320504
 31
0.0
  0
LINE
  5
A2
100
AcDbEntity
100
AcDbLine
  8
Quer
 62
256
370
-1
  6
ByLayer
 10
1120.4404871845390517
 20
69.4327968143321073
 30
0.0
 11
1120.4404871845390517
 21
59.4327968143321073
 31
0.0
  0
LINE
  5
A3
100
AcDbEntity
100
AcDbLine
  8
Quer
 62
256
370
-1
  6
ByLayer
 10
1120.4404871845390517
 20
59.4327968143321073
 30
0.0
 11
1126.3404871845391426
 21
59.4327968143321073
 31
0.0
  0
LINE
  5
A4
100
AcDbEntity
100
AcDbLine
  8
Quer
 62
256
370
-1
  6
ByLayer
 10
1126.3404871845391426
 20
59.4327968143321073
 30
0.0
 11
1126.3404871845391426
 21
69.4327968143321073
 31
0.0
  0
LINE
  5
A5
100
AcDbEntity
100
AcDbLine
  8
Quer
 62
256
370
-1
  6
ByLayer
 10
1178.4737871845391055
 20
69.4327968143321073
 30
0.0
 11
1178.4737871845391055
 21
59.4327968143321073
 31
0.0
  0
LINE
  5
A6
100
AcDbEntity
100
AcDbLine
  8
Quer
 62
256
370
-1
  6
ByLayer
 10
1178.4737871845391055
 20
59.4327968143321073
 30
0.0
 11
1184.3737871845391965
 21
59.4327968143321073
 31
0.0
  0
LINE
  5
A7
100
AcDbEntity
100
AcDbLine
  8
Quer
 62
256
370
-1
  6
ByLayer
 10
1184.3737871845391965
 20
59.4327968143321073
 30
0.0
 11
1184.3737871845391965
 21
69.4327968143321073
 31
0.0
  0
LINE
  5
A8
100
AcDbEntity
100
AcDbLine
  8
Quer
 62
256
370
-1
  6
ByLayer
 10
1068.3071871845390888
 20
69.4327968143321073
 30
0.0
 11
1120.4404871845390517
 21
69.4327968143321073
 31
0.0
  0
LINE
  5
A9
100
AcDbEntity
100
AcDbLine
  8
Quer
 62
256
370
-1
  6
ByLayer
 10
1126.3404871845391426
 20
69.4327968143321073
 30
0.0
 11
1178.4737871845391055
 21
69.4327968143321073
 31
0.0
  0
LINE
  5
AA
100
AcDbEntity
100
AcDbLine
  8
Quer
 62
256
370
-1
  6
ByLayer
 10
1184.3737871845391965
 20
69.4327968143321073
 30
0.0
 11
1236.5071871845389069
 21
69.4327968143320504
 31
0.0
  0
LINE
  5
AB
100
AcDbEntity
100
AcDbLine
  8
Quer
 62
256
370
-1
  6
ByLayer
 10
1052.4071871845389978
 20
49.4327968143320504
 30
0.0
 11
1252.4071871845389978
 21
49.4327968143320504
 31
0.0
  0
LINE
  5
AC
100
AcDbEntity
100
AcDbLine
  8
Quer
 62
256
370
-1
  6
ByLayer
 10
1252.4071871845389978
 20
49.4327968143320504
 30
0.0
 11
1252.4071871845389978
 21
69.4327968143320504
 31
0.0
  0
LINE
  5
AD
100
AcDbEntity
100
AcDbLine
  8
Quer
 62
256
370
-1
  6
ByLayer
 10
1252.4071871845389978
 20
69.4327968143320504
 30
0.0
 11
1242.4071871845389978
 21
69.4327968143320504
 31
0.0
  0
LINE
  5
AE
100
AcDbEntity
100
AcDbLine
  8
Quer
 62
256
370
-1
  6
ByLayer
 10
1052.4071871845389978
 20
69.4327968143321073
 30
0.0
 11
1052.4071871845389978
 21
49.4327968143320504
 31
0.0
  0
LINE
  5
AF
100
AcDbEntity
100
AcDbLine
  8
Quer
 62
256
370
-1
  6
ByLayer
 10
1062.4071871845389978
 20
69.4327968143321073
 30
0.0
 11
1052.4071871845389978
 21
69.4327968143321073
 31
0.0
  0
LINE
  5
B0
100
AcDbEntity
100
AcDbLine
  8
Quer
 62
256
370
-1
  6
ByLayer
 10
1062.4071871845389978
 20
94.4327968143321073
 30
0.0
 11
1062.4071871845389978
 21
84.4327968143321073
 31
0.0
  0
LINE
  5
B1
100
AcDbEntity
100
AcDbLine
  8
Quer
 62
256
370
-1
  6
ByLayer
 10
1062.4071871845389978
 20
84.4327968143321073
 30
0.0
 11
1068.3071871845390888
 21
84.4327968143321073
 31
0.0
  0
LINE
  5
B2
100
AcDbEntity
100
AcDbLine
  8
Quer
 62
256
370
-1
  6
ByLayer
 10
1068.3071871845390888
 20
84.4327968143321073
 30
0.0
 11
1068.3071871845390888
 21
94.4327968143321073
 31
0.0
  0
LINE
  5
B3
100
AcDbEntity
100
AcDbLine
  8
Quer
 62
256
370
-1
  6
ByLayer
 10
1236.5071871845389069
 20
94.4327968143320504
 30
0.0
 11
1236.5071871845389069
 21
84.4327968143320504
 31
0.0
  0
LINE
  5
B4
100
AcDbEntity
100
AcDbLine
  8
Quer
 62
256
370
-1
  6
ByLayer
 10
1236.5071871845389069
 20
84.4327968143320504
 30
0.0
 11
1242.4071871845389978
 21
84.4327968143320504
 31
0.0
  0
LINE
  5
B5
100
AcDbEntity
100
AcDbLine
  8
Quer
 62
256
370
-1
  6
ByLayer
 10
1242.4071871845389978
 20
84.4327968143320504
 30
0.0
 11
1242.4071871845389978
 21
94.4327968143320504
 31
0.0
  0
LINE
  5
B6
100
AcDbEntity
100
AcDbLine
  8
Quer
 62
256
370
-1
  6
ByLayer
 10
1120.4404871845390517
 20
94.4327968143321073
 30
0.0
 11
1120.4404871845390517
 21
84.4327968143321073
 31
0.0
  0
LINE
  5
B7
100
AcDbEntity
100
AcDbLine
  8
Quer
 62
256
370
-1
  6
ByLayer
 10
1120.4404871845390517
 20
84.4327968143321073
 30
0.0
 11
1126.3404871845391426
 21
84.4327968143321073
 31
0.0
  0
LINE
  5
B8
100
AcDbEntity
100
AcDbLine
  8
Quer
 62
256
370
-1
  6
ByLayer
 10
1126.3404871845391426
 20
84.4327968143321073
 30
0.0
 11
1126.3404871845391426
 21
94.4327968143321073
 31
0.0
  0
LINE
  5
B9
100
AcDbEntity
100
AcDbLine
  8
Quer
 62
256
370
-1
  6
ByLayer
 10
1178.4737871845391055
 20
94.4327968143321073
 30
0.0
 11
1178.4737871845391055
 21
84.4327968143321073
 31
0.0
  0
LINE
  5
BA
100
AcDbEntity
100
AcDbLine
  8
Quer
 62
256
370
-1
  6
ByLayer
 10
1178.4737871845391055
 20
84.4327968143321073
 30
0.0
 11
1184.3737871845391965
 21
84.4327968143321073
 31
0.0
  0
LINE
  5
BB
100
AcDbEntity
100
AcDbLine
  8
Quer
 62
256
370
-1
  6
ByLayer
 10
1184.3737871845391965
 20
84.4327968143321073
 30
0.0
 11
1184.3737871845391965
 21
94.4327968143321073
 31
0.0
  0
LINE
  5
BC
100
AcDbEntity
100
AcDbLine
  8
Quer
 62
256
370
-1
  6
ByLayer
 10
1068.3071871845390888
 20
94.4327968143321073
 30
0.0
 11
1120.4404871845390517
 21
94.4327968143321073
 31
0.0
  0
LINE
  5
BD
100
AcDbEntity
100
AcDbLine
  8
Quer
 62
256
370
-1
  6
ByLayer
 10
1126.3404871845391426
 20
94.4327968143321073
 30
0.0
 11
1178.4737871845391055
 21
94.4327968143321073
 31
0.0
  0
LINE
  5
BE
100
AcDbEntity
100
AcDbLine
  8
Quer
 62
256
370
-1
  6
ByLayer
 10
1184.3737871845391965
 20
94.4327968143321073
 30
0.0
 11
1236.5071871845389069
 21
94.4327968143320504
 31
0.0
  0
LINE
  5
BF
100
AcDbEntity
100
AcDbLine
  8
Quer
 62
256
370
-1
  6
ByLayer
 10
1052.4071871845389978
 20
74.4327968143320504
 30
0.0
 11
1252.4071871845389978
 21
74.4327968143320504
 31
0.0
  0
LINE
  5
C0
100
AcDbEntity
100
AcDbLine
  8
Quer
 62
256
370
-1
  6
ByLayer
 10
1252.4071871845389978
 20
74.4327968143320504
 30
0.0
 11
1252.4071871845389978
 21
94.4327968143320504
 31
0.0
  0
LINE
  5
C1
100
AcDbEntity
100
AcDbLine
  8
Quer
 62
256
370
-1
  6
ByLayer
 10
1252.4071871845389978
 20
94.4327968143320504
 30
0.0
 11
1242.4071871845389978
 21
94.4327968143320504
 31
0.0
  0
LINE
  5
C2
100
AcDbEntity
100
AcDbLine
  8
Quer
 62
256
370
-1
  6
ByLayer
 10
1052.4071871845389978
 20
94.4327968143321073
 30
0.0
 11
1052.4071871845389978
 21
74.4327968143320504
 31
0.0
  0
LINE
  5
C3
100
AcDbEntity
100
AcDbLine
  8
Quer
 62
256
370
-1
  6
ByLayer
 10
1062.4071871845389978
 20
94.4327968143321073
 30
0.0
 11
1052.4071871845389978
 21
94.4327968143321073
 31
0.0
  0
LINE
  5
C4
100
AcDbEntity
100
AcDbLine
  8
Quer
 62
256
370
-1
  6
ByLayer
 10
1062.4071871845389978
 20
119.4327968143321073
 30
0.0
 11
1062.4071871845389978
 21
109.4327968143321073
 31
0.0
  0
LINE
  5
C5
100
AcDbEntity
100
AcDbLine
  8
Quer
 62
256
370
-1
  6
ByLayer
 10
1062.4071871845389978
 20
109.4327968143321073
 30
0.0
 11
1068.3071871845390888
 21
109.4327968143321073
 31
0.0
  0
LINE
  5
C6
100
AcDbEntity
100
AcDbLine
  8
Quer
 62
256
370
-1
  6
ByLayer
 10
1068.3071871845390888
 20
109.4327968143321073
 30
0.0
 11
1068.3071871845390888
 21
119.4327968143321073
 31
0.0
  0
LINE
  5
C7
100
AcDbEntity
100
AcDbLine
  8
Quer
 62
256
370
-1
  6
ByLayer
 10
1236.5071871845389069
 20
119.4327968143320504
 30
0.0
 11
1236.5071871845389069
 21
109.4327968143320504
 31
0.0
  0
LINE
  5
C8
100
AcDbEntity
100
AcDbLine
  8
Quer
 62
256
370
-1
  6
ByLayer
 10
1236.5071871845389069
 20
109.4327968143320504
 30
0.0
 11
1242.4071871845389978
 21
109.4327968143320504
 31
0.0
  0
LINE
  5
C9
100
AcDbEntity
100
AcDbLine
  8
Quer
 62
256
370
-1
  6
ByLayer
 10
1242.4071871845389978
 20
109.4327968143320504
 30
0.0
 11
1242.4071871845389978
 21
119.4327968143320504
 31
0.0
  0
LINE
  5
CA
100
AcDbEntity
100
AcDbLine
  8
Quer
 62
256
370
-1
  6
ByLayer
 10
1120.4404871845390517
 20
119.4327968143321073
 30
0.0
 11
1120.4404871845390517
 21
109.4327968143321073
 31
0.0
  0
LINE
  5
CB
100
AcDbEntity
100
AcDbLine
  8
Quer
 62
256
370
-1
  6
ByLayer
 10
1120.4404871845390517
 20
109.4327968143321073
 30
0.0
 11
1126.3404871845391426
 21
109.4327968143321073
 31
0.0
  0
LINE
  5
CC
100
AcDbEntity
100
AcDbLine
  8
Quer
 62
256
370
-1
  6
ByLayer
 10
1126.3404871845391426
 20
109.4327968143321073
 30
0.0
 11
1126.3404871845391426
 21
119.4327968143321073
 31
0.0
  0
LINE
  5
CD
100
AcDbEntity
100
AcDbLine
  8
Quer
 62
256
370
-1
  6
ByLayer
 10
1178.4737871845391055
 20
119.4327968143321073
 30
0.0
 11
1178.4737871845391055
 21
109.4327968143321073
 31
0.0
  0
LINE
  5
CE
100
AcDbEntity
100
AcDbLine
  8
Quer
 62
256
370
-1
  6
ByLayer
 10
1178.4737871845391055
 20
109.4327968143321073
 30
0.0
 11
1184.3737871845391965
 21
109.4327968143321073
 31
0.0
  0
LINE
  5
CF
100
AcDbEntity
100
AcDbLine
  8
Quer
 62
256
370
-1
  6
ByLayer
 10
1184.3737871845391965
 20
109.4327968143321073
 30
0.0
 11
1184.3737871845391965
 21
119.4327968143321073
 31
0.0
  0
LINE
  5
D0
100
AcDbEntity
100
AcDbLine
  8
Quer
 62
256
370
-1
  6
ByLayer
 10
1068.3071871845390888
 20
119.4327968143321073
 30
0.0
 11
1120.4404871845390517
 21
119.4327968143321073
 31
0.0
  0
LINE
  5
D1
100
AcDbEntity
100
AcDbLine
  8
Quer
 62
256
370
-1
  6
ByLayer
 10
1126.3404871845391426
 20
119.4327968143321073
 30
0.0
 11
1178.4737871845391055
 21
119.4327968143321073
 31
0.0
  0
LINE
  5
D2
100
AcDbEntity
100
AcDbLine
  8
Quer
 62
256
370
-1
  6
ByLayer
 10
1184.3737871845391965
 20
119.4327968143321073
 30
0.0
 11
1236.5071871845389069
 21
119.4327968143320504
 31
0.0
  0
LINE
  5
D3
100
AcDbEntity
100
AcDbLine
  8
Quer
 62
256
370
-1
  6
ByLayer
 10
1052.4071871845389978
 20
99.4327968143320504
 30
0.0
 11
1252.4071871845389978
 21
99.4327968143320504
 31
0.0
  0
LINE
  5
D4
100
AcDbEntity
100
AcDbLine
  8
Quer
 62
256
370
-1
  6
ByLayer
 10
1252.4071871845389978
 20
99.4327968143320504
 30
0.0
 11
1252.4071871845389978
 21
119.4327968143320504
 31
0.0
  0
LINE
  5
D5
100
AcDbEntity
100
AcDbLine
  8
Quer
 62
256
370
-1
  6
ByLayer
 10
1252.4071871845389978
 20
119.4327968143320504
 30
0.0
 11
1242.4071871845389978
 21
119.4327968143320504
 31
0.0
  0
LINE
  5
D6
100
AcDbEntity
100
AcDbLine
  8
Quer
 62
256
370
-1
  6
ByLayer
 10
1052.4071871845389978
 20
119.4327968143321073
 30
0.0
 11
1052.4071871845389978
 21
99.4327968143320504
 31
0.0
  0
LINE
  5
D7
100
AcDbEntity
100
AcDbLine
  8
Quer
 62
256
370
-1
  6
ByLayer
 10
1062.4071871845389978
 20
119.4327968143321073
 30
0.0
 11
1052.4071871845389978
 21
119.4327968143321073
 31
0.0
  0
LINE
  5
D8
100
AcDbEntity
100
AcDbLine
  8
Quer
 62
256
370
-1
  6
ByLayer
 10
1062.4071871845389978
 20
144.4327968143321073
 30
0.0
 11
1062.4071871845389978
 21
134.4327968143321073
 31
0.0
  0
LINE
  5
D9
100
AcDbEntity
100
AcDbLine
  8
Quer
 62
256
370
-1
  6
ByLayer
 10
1062.4071871845389978
 20
134.4327968143321073
 30
0.0
 11
1068.3071871845390888
 21
134.4327968143321073
 31
0.0
  0
LINE
  5
DA
100
AcDbEntity
100
AcDbLine
  8
Quer
 62
256
370
-1
  6
ByLayer
 10
1068.3071871845390888
 20
134.4327968143321073
 30
0.0
 11
1068.3071871845390888
 21
144.4327968143321073
 31
0.0
  0
LINE
  5
DB
100
AcDbEntity
100
AcDbLine
  8
Quer
 62
256
370
-1
  6
ByLayer
 10
1236.5071871845389069
 20
144.4327968143320504
 30
0.0
 11
1236.5071871845389069
 21
134.4327968143320504
 31
0.0
  0
LINE
  5
DC
100
AcDbEntity
100
AcDbLine
  8
Quer
 62
256
370
-1
  6
ByLayer
 10
1236.5071871845389069
 20
134.4327968143320504
 30
0.0
 11
1242.4071871845389978
 21
134.4327968143320504
 31
0.0
  0
LINE
  5
DD
100
AcDbEntity
100
AcDbLine
  8
Quer
 62
256
370
-1
  6
ByLayer
 10
1242.4071871845389978
 20
134.4327968143320504
 30
0.0
 11
1242.4071871845389978
 21
144.4327968143320504
 31
0.0
  0
LINE
  5
DE
100
AcDbEntity
100
AcDbLine
  8
Quer
 62
256
370
-1
  6
ByLayer
 10
1120.4404871845390517
 20
144.4327968143321073
 30
0.0
 11
1120.4404871845390517
 21
134.4327968143321073
 31
0.0
  0
LINE
  5
DF
100
AcDbEntity
100
AcDbLine
  8
Quer
 62
256
370
-1
  6
ByLayer
 10
1120.4404871845390517
 20
134.4327968143321073
 30
0.0
 11
1126.3404871845391426
 21
134.4327968143321073
 31
0.0
  0
LINE
  5
E0
100
AcDbEntity
100
AcDbLine
  8
Quer
 62
256
370
-1
  6
ByLayer
 10
1126.3404871845391426
 20
134.4327968143321073
 30
0.0
 11
1126.3404871845391426
 21
144.4327968143321073
 31
0.0
  0
LINE
  5
E1
100
AcDbEntity
100
AcDbLine
  8
Quer
 62
256
370
-1
  6
ByLayer
 10
1178.4737871845391055
 20
144.4327968143321073
 30
0.0
 11
1178.4737871845391055
 21
134.4327968143321073
 31
0.0
  0
LINE
  5
E2
100
AcDbEntity
100
AcDbLine
  8
Quer
 62
256
370
-1
  6
ByLayer
 10
1178.4737871845391055
 20
134.4327968143321073
 30
0.0
 11
1184.3737871845391965
 21
134.4327968143321073
 31
0.0
  0
LINE
  5
E3
100
AcDbEntity
100
AcDbLine
  8
Quer
 62
256
370
-1
  6
ByLayer
 10
1184.3737871845391965
 20
134.4327968143321073
 30
0.0
 11
1184.3737871845391965
 21
144.4327968143321073
 31
0.0
  0
LINE
  5
E4
100
AcDbEntity
100
AcDbLine
  8
Quer
 62
256
370
-1
  6
ByLayer
 10
1068.3071871845390888
 20
144.4327968143321073
 30
0.0
 11
1120.4404871845390517
 21
144.4327968143321073
 31
0.0
  0
LINE
  5
E5
100
AcDbEntity
100
AcDbLine
  8
Quer
 62
256
370
-1
  6
ByLayer
 10
1126.3404871845391426
 20
144.4327968143321073
 30
0.0
 11
1178.4737871845391055
 21
144.4327968143321073
 31
0.0
  0
LINE
  5
E6
100
AcDbEntity
100
AcDbLine
  8
Quer
 62
256
370
-1
  6
ByLayer
 10
1184.3737871845391965
 20
144.4327968143321073
 30
0.0
 11
1236.5071871845389069
 21
144.4327968143320504
 31
0.0
  0
LINE
  5
E7
100
AcDbEntity
100
AcDbLine
  8
Quer
 62
256
370
-1
  6
ByLayer
 10
1052.4071871845389978
 20
124.4327968143320504
 30
0.0
 11
1252.4071871845389978
 21
124.4327968143320504
 31
0.0
  0
LINE
  5
E8
100
AcDbEntity
100
AcDbLine
  8
Quer
 62
256
370
-1
  6
ByLayer
 10
1252.4071871845389978
 20
124.4327968143320504
 30
0.0
 11
1252.4071871845389978
 21
144.4327968143320504
 31
0.0
  0
LINE
  5
E9
100
AcDbEntity
100
AcDbLine
  8
Quer
 62
256
370
-1
  6
ByLayer
 10
1252.4071871845389978
 20
144.4327968143320504
 30
0.0
 11
1242.4071871845389978
 21
144.4327968143320504
 31
0.0
  0
LINE
  5
EA
100
AcDbEntity
100
AcDbLine
  8
Quer
 62
256
370
-1
  6
ByLayer
 10
1052.4071871845389978
 20
144.4327968143321073
 30
0.0
 11
1052.4071871845389978
 21
124.4327968143320504
 31
0.0
  0
LINE
  5
EB
100
AcDbEntity
100
AcDbLine
  8
Quer
 62
256
370
-1
  6
ByLayer
 10
1062.4071871845389978
 20
144.4327968143321073
 30
0.0
 11
1052.4071871845389978
 21
144.4327968143321073
 31
0.0
  0
LINE
  5
EC
100
AcDbEntity
100
AcDbLine
  8
Quer
 62
256
370
-1
  6
ByLayer
 10
1062.4071871845389978
 20
169.4327968143321073
 30
0.0
 11
1062.4071871845389978
 21
159.4327968143321073
 31
0.0
  0
LINE
  5
ED
100
AcDbEntity
100
AcDbLine
  8
Quer
 62
256
370
-1
  6
ByLayer
 10
1062.4071871845389978
 20
159.4327968143321073
 30
0.0
 11
1068.3071871845390888
 21
159.4327968143321073
 31
0.0
  0
LINE
  5
EE
100
AcDbEntity
100
AcDbLine
  8
Quer
 62
256
370
-1
  6
ByLayer
 10
1068.3071871845390888
 20
159.4327968143321073
 30
0.0
 11
1068.3071871845390888
 21
169.4327968143321073
 31
0.0
  0
LINE
  5
EF
100
AcDbEntity
100
AcDbLine
  8
Quer
 62
256
370
-1
  6
ByLayer
 10
1236.5071871845389069
 20
169.4327968143320504
 30
0.0
 11
1236.5071871845389069
 21
159.4327968143320504
 31
0.0
  0
LINE
  5
F0
100
AcDbEntity
100
AcDbLine
  8
Quer
 62
256
370
-1
  6
ByLayer
 10
1236.5071871845389069
 20
159.4327968143320504
 30
0.0
 11
1242.4071871845389978
 21
159.4327968143320504
 31
0.0
  0
LINE
  5
F1
100
AcDbEntity
100
AcDbLine
  8
Quer
 62
256
370
-1
  6
ByLayer
 10
1242.4071871845389978
 20
159.4327968143320504
 30
0.0
 11
1242.4071871845389978
 21
169.4327968143320504
 31
0.0
  0
LINE
  5
F2
100
AcDbEntity
100
AcDbLine
  8
Quer
 62
256
370
-1
  6
ByLayer
 10
1120.4404871845390517
 20
169.4327968143321073
 30
0.0
 11
1120.4404871845390517
 21
159.4327968143321073
 31
0.0
  0
LINE
  5
F3
100
AcDbEntity
100
AcDbLine
  8
Quer
 62
256
370
-1
  6
ByLayer
 10
1120.4404871845390517
 20
159.4327968143321073
 30
0.0
 11
1126.3404871845391426
 21
159.4327968143321073
 31
0.0
  0
LINE
  5
F4
100
AcDbEntity
100
AcDbLine
  8
Quer
 62
256
370
-1
  6
ByLayer
 10
1126.3404871845391426
 20
159.4327968143321073
 30
0.0
 11
1126.3404871845391426
 21
169.4327968143321073
 31
0.0
  0
LINE
  5
F5
100
AcDbEntity
100
AcDbLine
  8
Quer
 62
256
370
-1
  6
ByLayer
 10
1178.4737871845391055
 20
169.4327968143321073
 30
0.0
 11
1178.4737871845391055
 21
159.4327968143321073
 31
0.0
  0
LINE
  5
F6
100
AcDbEntity
100
AcDbLine
  8
Quer
 62
256
370
-1
  6
ByLayer
 10
1178.4737871845391055
 20
159.4327968143321073
 30
0.0
 11
1184.3737871845391965
 21
159.4327968143321073
 31
0.0
  0
LINE
  5
F7
100
AcDbEntity
100
AcDbLine
  8
Quer
 62
256
370
-1
  6
ByLayer
 10
1184.3737871845391965
 20
159.4327968143321073
 30
0.0
 11
1184.3737871845391965
 21
169.4327968143321073
 31
0.0
  0
LINE
  5
F8
100
AcDbEntity
100
AcDbLine
  8
Quer
 62
256
370
-1
  6
ByLayer
 10
1068.3071871845390888
 20
169.4327968143321073
 30
0.0
 11
1120.4404871845390517
 21
169.4327968143321073
 31
0.0
  0
LINE
  5
F9
100
AcDbEntity
100
AcDbLine
  8
Quer
 62
256
370
-1
  6
ByLayer
 10
1126.3404871845391426
 20
169.4327968143321073
 30
0.0
 11
1178.4737871845391055
 21
169.4327968143321073
 31
0.0
  0
LINE
  5
FA
100
AcDbEntity
100
AcDbLine
  8
Quer
 62
256
370
-1
  6
ByLayer
 10
1184.3737871845391965
 20
169.4327968143321073
 30
0.0
 11
1236.5071871845389069
 21
169.4327968143320504
 31
0.0
  0
LINE
  5
FB
100
AcDbEntity
100
AcDbLine
  8
Quer
 62
256
370
-1
  6
ByLayer
 10
1052.4071871845389978
 20
149.4327968143320504
 30
0.0
 11
1252.4071871845389978
 21
149.4327968143320504
 31
0.0
  0
LINE
  5
FC
100
AcDbEntity
100
AcDbLine
  8
Quer
 62
256
370
-1
  6
ByLayer
 10
1252.4071871845389978
 20
149.4327968143320504
 30
0.0
 11
1252.4071871845389978
 21
169.4327968143320504
 31
0.0
  0
LINE
  5
FD
100
AcDbEntity
100
AcDbLine
  8
Quer
 62
256
370
-1
  6
ByLayer
 10
1252.4071871845389978
 20
169.4327968143320504
 30
0.0
 11
1242.4071871845389978
 21
169.4327968143320504
 31
0.0
  0
LINE
  5
FE
100
AcDbEntity
100
AcDbLine
  8
Quer
 62
256
370
-1
  6
ByLayer
 10
1052.4071871845389978
 20
169.4327968143321073
 30
0.0
 11
1052.4071871845389978
 21
149.4327968143320504
 31
0.0
  0
LINE
  5
FF
100
AcDbEntity
100
AcDbLine
  8
Quer
 62
256
370
-1
  6
ByLayer
 10
1062.4071871845389978
 20
169.4327968143321073
 30
0.0
 11
1052.4071871845389978
 21
169.4327968143321073
 31
0.0
  0
LINE
  5
100
100
AcDbEntity
100
AcDbLine
  8
Quer
 62
256
370
-1
  6
ByLayer
 10
1062.4071871845389978
 20
194.4327968143321073
 30
0.0
 11
1062.4071871845389978
 21
184.4327968143321073
 31
0.0
  0
LINE
  5
101
100
AcDbEntity
100
AcDbLine
  8
Quer
 62
256
370
-1
  6
ByLayer
 10
1062.4071871845389978
 20
184.4327968143321073
 30
0.0
 11
1068.3071871845390888
 21
184.4327968143321073
 31
0.0
  0
LINE
  5
102
100
AcDbEntity
100
AcDbLine
  8
Quer
 62
256
370
-1
  6
ByLayer
 10
1068.3071871845390888
 20
184.4327968143321073
 30
0.0
 11
1068.3071871845390888
 21
194.4327968143321073
 31
0.0
  0
LINE
  5
103
100
AcDbEntity
100
AcDbLine
  8
Quer
 62
256
370
-1
  6
ByLayer
 10
1236.5071871845389069
 20
194.4327968143320504
 30
0.0
 11
1236.5071871845389069
 21
184.4327968143320504
 31
0.0
  0
LINE
  5
104
100
AcDbEntity
100
AcDbLine
  8
Quer
 62
256
370
-1
  6
ByLayer
 10
1236.5071871845389069
 20
184.4327968143320504
 30
0.0
 11
1242.4071871845389978
 21
184.4327968143320504
 31
0.0
  0
LINE
  5
105
100
AcDbEntity
100
AcDbLine
  8
Quer
 62
256
370
-1
  6
ByLayer
 10
1242.4071871845389978
 20
184.4327968143320504
 30
0.0
 11
1242.4071871845389978
 21
194.4327968143320504
 31
0.0
  0
LINE
  5
106
100
AcDbEntity
100
AcDbLine
  8
Quer
 62
256
370
-1
  6
ByLayer
 10
1120.4404871845390517
 20
194.4327968143321073
 30
0.0
 11
1120.4404871845390517
 21
184.4327968143321073
 31
0.0
  0
LINE
  5
107
100
AcDbEntity
100
AcDbLine
  8
Quer
 62
256
370
-1
  6
ByLayer
 10
1120.4404871845390517
 20
184.4327968143321073
 30
0.0
 11
1126.3404871845391426
 21
184.4327968143321073
 31
0.0
  0
LINE
  5
108
100
AcDbEntity
100
AcDbLine
  8
Quer
 62
256
370
-1
  6
ByLayer
 10
1126.3404871845391426
 20
184.4327968143321073
 30
0.0
 11
1126.3404871845391426
 21
194.4327968143321073
 31
0.0
  0
LINE
  5
109
100
AcDbEntity
100
AcDbLine
  8
Quer
 62
256
370
-1
  6
ByLayer
 10
1178.4737871845391055
 20
194.4327968143321073
 30
0.0
 11
1178.4737871845391055
 21
184.4327968143321073
 31
0.0
  0
LINE
  5
10A
100
AcDbEntity
100
AcDbLine
  8
Quer
 62
256
370
-1
  6
ByLayer
 10
1178.4737871845391055
 20
184.4327968143321073
 30
0.0
 11
1184.3737871845391965
 21
184.4327968143321073
 31
0.0
  0
LINE
  5
10B
100
AcDbEntity
100
AcDbLine
  8
Quer
 62
256
370
-1
  6
ByLayer
 10
1184.3737871845391965
 20
184.4327968143321073
 30
0.0
 11
1184.3737871845391965
 21
194.4327968143321073
 31
0.0
  0
LINE
  5
10C
100
AcDbEntity
100
AcDbLine
  8
Quer
 62
256
370
-1
  6
ByLayer
 10
1068.3071871845390888
 20
194.4327968143321073
 30
0.0
 11
1120.4404871845390517
 21
194.4327968143321073
 31
0.0
  0
LINE
  5
10D
100
AcDbEntity
100
AcDbLine
  8
Quer
 62
256
370
-1
  6
ByLayer
 10
1126.3404871845391426
 20
194.4327968143321073
 30
0.0
 11
1178.4737871845391055
 21
194.4327968143321073
 31
0.0
  0
LINE
  5
10E
100
AcDbEntity
100
AcDbLine
  8
Quer
 62
256
370
-1
  6
ByLayer
 10
1184.3737871845391965
 20
194.4327968143321073
 30
0.0
 11
1236.5071871845389069
 21
194.4327968143320504
 31
0.0
  0
LINE
  5
10F
100
AcDbEntity
100
AcDbLine
  8
Quer
 62
256
370
-1
  6
ByLayer
 10
1052.4071871845389978
 20
174.4327968143320504
 30
0.0
 11
1252.4071871845389978
 21
174.4327968143320504
 31
0.0
  0
LINE
  5
110
100
AcDbEntity
100
AcDbLine
  8
Quer
 62
256
370
-1
  6
ByLayer
 10
1252.4071871845389978
 20
174.4327968143320504
 30
0.0
 11
1252.4071871845389978
 21
194.4327968143320504
 31
0.0
  0
LINE
  5
111
100
AcDbEntity
100
AcDbLine
  8
Quer
 62
256
370
-1
  6
ByLayer
 10
1252.4071871845389978
 20
194.4327968143320504
 30
0.0
 11
1242.4071871845389978
 21
194.4327968143320504
 31
0.0
  0
LINE
  5
112
100
AcDbEntity
100
AcDbLine
  8
Quer
 62
256
370
-1
  6
ByLayer
 10
1052.4071871845389978
 20
194.4327968143321073
 30
0.0
 11
1052.4071871845389978
 21
174.4327968143320504
 31
0.0
  0
LINE
  5
113
100
AcDbEntity
100
AcDbLine
  8
Quer
 62
256
370
-1
  6
ByLayer
 10
1062.4071871845389978
 20
194.4327968143321073
 30
0.0
 11
1052.4071871845389978
 21
194.4327968143321073
 31
0.0
  0
LINE
  5
114
100
AcDbEntity
100
AcDbLine
  8
Quer
 62
256
370
-1
  6
ByLayer
 10
1062.4071871845389978
 20
219.4327968143321073
 30
0.0
 11
1062.4071871845389978
 21
209.4327968143321073
 31
0.0
  0
LINE
  5
115
100
AcDbEntity
100
AcDbLine
  8
Quer
 62
256
370
-1
  6
ByLayer
 10
1062.4071871845389978
 20
209.4327968143321073
 30
0.0
 11
1068.3071871845390888
 21
209.4327968143321073
 31
0.0
  0
LINE
  5
116
100
AcDbEntity
100
AcDbLine
  8
Quer
 62
256
370
-1
  6
ByLayer
 10
1068.3071871845390888
 20
209.4327968143321073
 30
0.0
 11
1068.3071871845390888
 21
219.4327968143321073
 31
0.0
  0
LINE
  5
117
100
AcDbEntity
100
AcDbLine
  8
Quer
 62
256
370
-1
  6
ByLayer
 10
1236.5071871845389069
 20
219.4327968143320504
 30
0.0
 11
1236.5071871845389069
 21
209.4327968143320504
 31
0.0
  0
LINE
  5
118
100
AcDbEntity
100
AcDbLine
  8
Quer
 62
256
370
-1
  6
ByLayer
 10
1236.5071871845389069
 20
209.4327968143320504
 30
0.0
 11
1242.4071871845389978
 21
209.4327968143320504
 31
0.0
  0
LINE
  5
119
100
AcDbEntity
100
AcDbLine
  8
Quer
 62
256
370
-1
  6
ByLayer
 10
1242.4071871845389978
 20
209.4327968143320504
 30
0.0
 11
1242.4071871845389978
 21
219.4327968143320504
 31
0.0
  0
LINE
  5
11A
100
AcDbEntity
100
AcDbLine
  8
Quer
 62
256
370
-1
  6
ByLayer
 10
1120.4404871845390517
 20
219.4327968143321073
 30
0.0
 11
1120.4404871845390517
 21
209.4327968143321073
 31
0.0
  0
LINE
  5
11B
100
AcDbEntity
100
AcDbLine
  8
Quer
 62
256
370
-1
  6
ByLayer
 10
1120.4404871845390517
 20
209.4327968143321073
 30
0.0
 11
1126.3404871845391426
 21
209.4327968143321073
 31
0.0
  0
LINE
  5
11C
100
AcDbEntity
100
AcDbLine
  8
Quer
 62
256
370
-1
  6
ByLayer
 10
1126.3404871845391426
 20
209.4327968143321073
 30
0.0
 11
1126.3404871845391426
 21
219.4327968143321073
 31
0.0
  0
LINE
  5
11D
100
AcDbEntity
100
AcDbLine
  8
Quer
 62
256
370
-1
  6
ByLayer
 10
1178.4737871845391055
 20
219.4327968143321073
 30
0.0
 11
1178.4737871845391055
 21
209.4327968143321073
 31
0.0
  0
LINE
  5
11E
100
AcDbEntity
100
AcDbLine
  8
Quer
 62
256
370
-1
  6
ByLayer
 10
1178.4737871845391055
 20
209.4327968143321073
 30
0.0
 11
1184.3737871845391965
 21
209.4327968143321073
 31
0.0
  0
LINE
  5
11F
100
AcDbEntity
100
AcDbLine
  8
Quer
 62
256
370
-1
  6
ByLayer
 10
1184.3737871845391965
 20
209.4327968143321073
 30
0.0
 11
1184.3737871845391965
 21
219.4327968143321073
 31
0.0
  0
LINE
  5
120
100
AcDbEntity
100
AcDbLine
  8
Quer
 62
256
370
-1
  6
ByLayer
 10
1068.3071871845390888
 20
219.4327968143321073
 30
0.0
 11
1120.4404871845390517
 21
219.4327968143321073
 31
0.0
  0
LINE
  5
121
100
AcDbEntity
100
AcDbLine
  8
Quer
 62
256
370
-1
  6
ByLayer
 10
1126.3404871845391426
 20
219.4327968143321073
 30
0.0
 11
1178.4737871845391055
 21
219.4327968143321073
 31
0.0
  0
LINE
  5
122
100
AcDbEntity
100
AcDbLine
  8
Quer
 62
256
370
-1
  6
ByLayer
 10
1184.3737871845391965
 20
219.4327968143321073
 30
0.0
 11
1236.5071871845389069
 21
219.4327968143320504
 31
0.0
  0
LINE
  5
123
100
AcDbEntity
100
AcDbLine
  8
Quer
 62
256
370
-1
  6
ByLayer
 10
1052.4071871845389978
 20
199.4327968143320504
 30
0.0
 11
1252.4071871845389978
 21
199.4327968143320504
 31
0.0
  0
LINE
  5
124
100
AcDbEntity
100
AcDbLine
  8
Quer
 62
256
370
-1
  6
ByLayer
 10
1252.4071871845389978
 20
199.4327968143320504
 30
0.0
 11
1252.4071871845389978
 21
219.4327968143320504
 31
0.0
  0
LINE
  5
125
100
AcDbEntity
100
AcDbLine
  8
Quer
 62
256
370
-1
  6
ByLayer
 10
1252.4071871845389978
 20
219.4327968143320504
 30
0.0
 11
1242.4071871845389978
 21
219.4327968143320504
 31
0.0
  0
LINE
  5
126
100
AcDbEntity
100
AcDbLine
  8
Quer
 62
256
370
-1
  6
ByLayer
 10
1052.4071871845389978
 20
219.4327968143321073
 30
0.0
 11
1052.4071871845389978
 21
199.4327968143320504
 31
0.0
  0
LINE
  5
127
100
AcDbEntity
100
AcDbLine
  8
Quer
 62
256
370
-1
  6
ByLayer
 10
1062.4071871845389978
 20
219.4327968143321073
 30
0.0
 11
1052.4071871845389978
 21
219.4327968143321073
 31
0.0
  0
LINE
  5
128
100
AcDbEntity
100
AcDbLine
  8
Quer
 62
256
370
-1
  6
ByLayer
 10
1062.4071871845389978
 20
244.4327968143321073
 30
0.0
 11
1062.4071871845389978
 21
234.4327968143321073
 31
0.0
  0
LINE
  5
129
100
AcDbEntity
100
AcDbLine
  8
Quer
 62
256
370
-1
  6
ByLayer
 10
1062.4071871845389978
 20
234.4327968143321073
 30
0.0
 11
1068.3071871845390888
 21
234.4327968143321073
 31
0.0
  0
LINE
  5
12A
100
AcDbEntity
100
AcDbLine
  8
Quer
 62
256
370
-1
  6
ByLayer
 10
1068.3071871845390888
 20
234.4327968143321073
 30
0.0
 11
1068.3071871845390888
 21
244.4327968143321073
 31
0.0
  0
LINE
  5
12B
100
AcDbEntity
100
AcDbLine
  8
Quer
 62
256
370
-1
  6
ByLayer
 10
1236.5071871845389069
 20
244.4327968143320504
 30
0.0
 11
1236.5071871845389069
 21
234.4327968143320504
 31
0.0
  0
LINE
  5
12C
100
AcDbEntity
100
AcDbLine
  8
Quer
 62
256
370
-1
  6
ByLayer
 10
1236.5071871845389069
 20
234.4327968143320504
 30
0.0
 11
1242.4071871845389978
 21
234.4327968143320504
 31
0.0
  0
LINE
  5
12D
100
AcDbEntity
100
AcDbLine
  8
Quer
 62
256
370
-1
  6
ByLayer
 10
1242.4071871845389978
 20
234.4327968143320504
 30
0.0
 11
1242.4071871845389978
 21
244.4327968143320504
 31
0.0
  0
LINE
  5
12E
100
AcDbEntity
100
AcDbLine
  8
Quer
 62
256
370
-1
  6
ByLayer
 10
1120.4404871845390517
 20
244.4327968143321073
 30
0.0
 11
1120.4404871845390517
 21
234.4327968143321073
 31
0.0
  0
LINE
  5
12F
100
AcDbEntity
100
AcDbLine
  8
Quer
 62
256
370
-1
  6
ByLayer
 10
1120.4404871845390517
 20
234.4327968143321073
 30
0.0
 11
1126.3404871845391426
 21
234.4327968143321073
 31
0.0
  0
LINE
  5
130
100
AcDbEntity
100
AcDbLine
  8
Quer
 62
256
370
-1
  6
ByLayer
 10
1126.3404871845391426
 20
234.4327968143321073
 30
0.0
 11
1126.3404871845391426
 21
244.4327968143321073
 31
0.0
  0
LINE
  5
131
100
AcDbEntity
100
AcDbLine
  8
Quer
 62
256
370
-1
  6
ByLayer
 10
1178.4737871845391055
 20
244.4327968143321073
 30
0.0
 11
1178.4737871845391055
 21
234.4327968143321073
 31
0.0
  0
LINE
  5
132
100
AcDbEntity
100
AcDbLine
  8
Quer
 62
256
370
-1
  6
ByLayer
 10
1178.4737871845391055
 20
234.4327968143321073
 30
0.0
 11
1184.3737871845391965
 21
234.4327968143321073
 31
0.0
  0
LINE
  5
133
100
AcDbEntity
100
AcDbLine
  8
Quer
 62
256
370
-1
  6
ByLayer
 10
1184.3737871845391965
 20
234.4327968143321073
 30
0.0
 11
1184.3737871845391965
 21
244.4327968143321073
 31
0.0
  0
LINE
  5
134
100
AcDbEntity
100
AcDbLine
  8
Quer
 62
256
370
-1
  6
ByLayer
 10
1068.3071871845390888
 20
244.4327968143321073
 30
0.0
 11
1120.4404871845390517
 21
244.4327968143321073
 31
0.0
  0
LINE
  5
135
100
AcDbEntity
100
AcDbLine
  8
Quer
 62
256
370
-1
  6
ByLayer
 10
1126.3404871845391426
 20
244.4327968143321073
 30
0.0
 11
1178.4737871845391055
 21
244.4327968143321073
 31
0.0
  0
LINE
  5
136
100
AcDbEntity
100
AcDbLine
  8
Quer
 62
256
370
-1
  6
ByLayer
 10
1184.3737871845391965
 20
244.4327968143321073
 30
0.0
 11
1236.5071871845389069
 21
244.4327968143320504
 31
0.0
  0
LINE
  5
137
100
AcDbEntity
100
AcDbLine
  8
Quer
 62
256
370
-1
  6
ByLayer
 10
1052.4071871845389978
 20
224.4327968143320504
 30
0.0
 11
1252.4071871845389978
 21
224.4327968143320504
 31
0.0
  0
LINE
  5
138
100
AcDbEntity
100
AcDbLine
  8
Quer
 62
256
370
-1
  6
ByLayer
 10
1252.4071871845389978
 20
224.4327968143320504
 30
0.0
 11
1252.4071871845389978
 21
244.4327968143320504
 31
0.0
  0
LINE
  5
139
100
AcDbEntity
100
AcDbLine
  8
Quer
 62
256
370
-1
  6
ByLayer
 10
1252.4071871845389978
 20
244.4327968143320504
 30
0.0
 11
1242.4071871845389978
 21
244.4327968143320504
 31
0.0
  0
LINE
  5
13A
100
AcDbEntity
100
AcDbLine
  8
Quer
 62
256
370
-1
  6
ByLayer
 10
1052.4071871845389978
 20
244.4327968143321073
 30
0.0
 11
1052.4071871845389978
 21
224.4327968143320504
 31
0.0
  0
LINE
  5
13B
100
AcDbEntity
100
AcDbLine
  8
Quer
 62
256
370
-1
  6
ByLayer
 10
1062.4071871845389978
 20
244.4327968143321073
 30
0.0
 11
1052.4071871845389978
 21
244.4327968143321073
 31
0.0
  0
LINE
  5
13C
100
AcDbEntity
100
AcDbLine
  8
0
 62
256
370
-1
  6
ByLayer
 10
477.0
 20
20.0
 30
0.0
 11
477.0
 21
64.9999999999998863
 31
0.0
  0
ARC
  5
13D
100
AcDbEntity
  8
0
 62
256
370
-1
  6
ByLayer
100
AcDbCircle
 10
542.0
 20
64.9999999999998863
 30
0.0
 40
64.9999999999998863
100
AcDbArc
 50
110.2220260494713955
 51
180.0
  0
ARC
  5
13E
100
AcDbEntity
  8
0
 62
256
370
-1
  6
ByLayer
100
AcDbCircle
 10
596.9999999999996589
 20
154.9999999999998863
 30
0.0
 40
65.0
100
AcDbArc
 50
110.2220260494713955
 51
186.9188427208545988
  0
LINE
  5
13F
100
AcDbEntity
100
AcDbLine
  8
0
 62
256
370
-1
  6
ByLayer
 10
936.9999999999996589
 20
64.9999999999998863
 30
0.0
 11
936.9999999999996589
 21
20.0
 31
0.0
  0
LINE
  5
140
100
AcDbEntity
100
AcDbLine
  8
0
 62
256
370
-1
  6
ByLayer
 10
936.9999999999996589
 20
64.9999999999998863
 30
0.0
 11
936.9999999999996589
 21
75.4701313970653018
 31
0.0
  0
ARC
  5
141
100
AcDbEntity
  8
0
 62
256
370
-1
  6
ByLayer
100
AcDbCircle
 10
926.9999999999996589
 20
154.9999999999998863
 30
0.0
 40
65.0
100
AcDbArc
 50
290.6673164935143063
 51
69.3326835064856652
  0
LINE
  5
142
100
AcDbEntity
100
AcDbLine
  8
0
 62
256
370
-1
  6
ByLayer
 10
936.9999999999996589
 20
244.9999999999998295
 30
0.0
 11
936.9999999999996589
 21
234.5298686029341297
 31
0.0
  0
ARC
  5
143
100
AcDbEntity
  8
0
 62
256
370
-1
  6
ByLayer
100
AcDbCircle
 10
651.9999999999996589
 20
244.9999999999998295
 30
0.0
 40
65.0
100
AcDbArc
 50
0.0
 51
186.9188427208513872
  0
ARC
  5
144
100
AcDbEntity
  8
0
 62
256
370
-1
  6
ByLayer
100
AcDbCircle
 10
871.9999999999996589
 20
244.9999999999998295
 30
0.0
 40
65.0
100
AcDbArc
 50
0.0
 51
180.0
  0
ARC
  5
145
100
AcDbEntity
  8
0
 62
256
370
-1
  6
ByLayer
100
AcDbCircle
 10
761.9999999999996589
 20
244.9999999999998295
 30
0.0
 40
45.0
100
AcDbArc
 50
180.0
 51
266.2412478320500213
  0
ARC
  5
146
100
AcDbEntity
  8
0
 62
256
370
-1
  6
ByLayer
100
AcDbCircle
 10
761.9999999999996589
 20
244.9999999999998295
 30
0.0
 40
45.0
100
AcDbArc
 50
273.7587521679499218
 51
0.0
  0
ARC
  5
147
100
AcDbEntity
  8
0
 62
256
370
-1
  6
ByLayer
100
AcDbCircle
 10
567.6189887730338341
 20
234.7606179720348223
 30
0.0
 40
20.0
100
AcDbArc
 50
290.2220260494714807
 51
319.6685946951873802
  0
ARC
  5
148
100
AcDbEntity
  8
0
 62
256
370
-1
  6
ByLayer
100
AcDbCircle
 10
567.6189887730338341
 20
234.7606179720348223
 30
0.0
 40
20.0
100
AcDbArc
 50
336.6346194651316068
 51
6.9188427208546353
  0
ARC
  5
149
100
AcDbEntity
  8
0
 62
256
370
-1
  6
ByLayer
100
AcDbCircle
 10
512.6189887730339478
 20
144.7606179720345949
 30
0.0
 40
20.0
100
AcDbArc
 50
337.3481846506635975
 51
6.9188427208546353
  0
ARC
  5
14A
100
AcDbEntity
  8
0
 62
256
370
-1
  6
ByLayer
100
AcDbCircle
 10
512.6189887730339478
 20
144.7606179720345949
 30
0.0
 40
20.0
100
AcDbArc
 50
290.2220260494714807
 51
320.3820851969086902
  0
LINE
  5
14B
100
AcDbEntity
100
AcDbLine
  8
0
 62
256
370
-1
  6
ByLayer
 10
938.4393393141037905
 20
227.0799105558682811
 30
0.0
 11
929.6824024125211281
 21
221.8182120283979941
 31
0.0
  0
ARC
  5
14C
100
AcDbEntity
  8
0
 62
256
370
-1
  6
ByLayer
100
AcDbCircle
 10
956.9999999999996589
 20
234.5298686029341297
 30
0.0
 40
20.0
100
AcDbArc
 50
180.0
 51
201.8697521062029239
  0
ARC
  5
14D
100
AcDbEntity
  8
0
 62
256
370
-1
  6
ByLayer
100
AcDbCircle
 10
956.9999999999996589
 20
234.5298686029341297
 30
0.0
 40
20.0
100
AcDbArc
 50
218.8349950001383775
 51
249.3326835064856937
  0
LINE
  5
14E
100
AcDbEntity
100
AcDbLine
  8
0
 62
256
370
-1
  6
ByLayer
 10
941.5586954343007164
 20
88.1809973514104541
 30
0.0
 11
932.8004704459394816
 21
93.4434698394998406
 31
0.0
  0
ARC
  5
14F
100
AcDbEntity
  8
0
 62
256
370
-1
  6
ByLayer
100
AcDbCircle
 10
956.9999999999996589
 20
75.4701313970655292
 30
0.0
 40
20.0
100
AcDbArc
 50
110.6673164935143063
 51
140.539708500536193
  0
ARC
  5
150
100
AcDbEntity
  8
0
 62
256
370
-1
  6
ByLayer
100
AcDbCircle
 10
956.9999999999996589
 20
75.4701313970655292
 30
0.0
 40
20.0
100
AcDbArc
 50
157.5038608917057843
 51
180.0
  0
LINE
  5
151
100
AcDbEntity
100
AcDbLine
  8
0
 62
256
370
-1
  6
ByLayer
 10
704.0499999999996135
 20
10.0000000000001137
 30
0.0
 11
704.0499999999996135
 21
0.0
 31
0.0
  0
LINE
  5
152
100
AcDbEntity
100
AcDbLine
  8
0
 62
256
370
-1
  6
ByLayer
 10
709.9499999999997044
 20
10.0000000000001137
 30
0.0
 11
709.9499999999997044
 21
0.0
 31
0.0
  0
LINE
  5
153
100
AcDbEntity
100
AcDbLine
  8
0
 62
256
370
-1
  6
ByLayer
 10
814.0499999999996135
 20
10.0
 30
0.0
 11
814.0499999999996135
 21
0.0
 31
0.0
  0
LINE
  5
154
100
AcDbEntity
100
AcDbLine
  8
0
 62
256
370
-1
  6
ByLayer
 10
709.9499999999997044
 20
0.0
 30
0.0
 11
814.0499999999996135
 21
0.0
 31
0.0
  0
LINE
  5
155
100
AcDbEntity
100
AcDbLine
  8
0
 62
256
370
-1
  6
ByLayer
 10
819.9499999999997044
 20
10.0
 30
0.0
 11
819.9499999999997044
 21
0.0
 31
0.0
  0
LINE
  5
156
100
AcDbEntity
100
AcDbLine
  8
0
 62
256
370
-1
  6
ByLayer
 10
912.5499999999996135
 20
10.0
 30
0.0
 11
912.5499999999996135
 21
0.0
 31
0.0
  0
LINE
  5
157
100
AcDbEntity
100
AcDbLine
  8
0
 62
256
370
-1
  6
ByLayer
 10
819.9499999999997044
 20
0.0
 30
0.0
 11
912.5499999999996135
 21
0.0
 31
0.0
  0
LINE
  5
158
100
AcDbEntity
100
AcDbLine
  8
0
 62
256
370
-1
  6
ByLayer
 10
918.4499999999997044
 20
10.0
 30
0.0
 11
918.4499999999997044
 21
0.0526317525343742
 31
0.0
  0
ARC
  5
159
100
AcDbEntity
  8
0
 62
256
370
-1
  6
ByLayer
100
AcDbCircle
 10
916.9999999999996589
 20
20.0
 30
0.0
 40
20.0
100
AcDbArc
 50
274.1575916772019923
 51
0.0
  0
LINE
  5
15A
100
AcDbEntity
100
AcDbLine
  8
0
 62
256
370
-1
  6
ByLayer
 10
599.9500000000002728
 20
10.0000000000001137
 30
0.0
 11
599.9500000000002728
 21
0.0
 31
0.0
  0
LINE
  5
15B
100
AcDbEntity
100
AcDbLine
  8
0
 62
256
370
-1
  6
ByLayer
 10
599.9500000000002728
 20
0.0
 30
0.0
 11
704.0499999999996135
 21
0.0
 31
0.0
  0
LINE
  5
15C
100
AcDbEntity
100
AcDbLine
  8
0
 62
256
370
-1
  6
ByLayer
 10
594.0500000000001819
 20
10.0000000000001137
 30
0.0
 11
594.0500000000001819
 21
0.0
 31
0.0
  0
LINE
  5
15D
100
AcDbEntity
100
AcDbLine
  8
0
 62
256
370
-1
  6
ByLayer
 10
495.5500000000000114
 20
10.0
 30
0.0
 11
495.5500000000000114
 21
0.0526317525343778
 31
0.0
  0
ARC
  5
15E
100
AcDbEntity
  8
0
 62
256
370
-1
  6
ByLayer
100
AcDbCircle
 10
497.0000000000001137
 20
20.0
 30
0.0
 40
20.0
100
AcDbArc
 50
180.0
 51
265.8424083227978372
  0
LINE
  5
15F
100
AcDbEntity
100
AcDbLine
  8
0
 62
256
370
-1
  6
ByLayer
 10
501.4500000000001023
 20
10.0
 30
0.0
 11
501.4500000000001023
 21
0.0
 31
0.0
  0
LINE
  5
160
100
AcDbEntity
100
AcDbLine
  8
0
 62
256
370
-1
  6
ByLayer
 10
501.4500000000001023
 20
0.0
 30
0.0
 11
594.0500000000001819
 21
0.0
 31
0.0
  0
CIRCLE
  5
161
100
AcDbEntity
100
AcDbCircle
  8
Flaschen
 62
256
370
-1
  6
ByLayer
 10
542.0
 20
64.9999999999998863
 30
0.0
 40
45.0
  0
CIRCLE
  5
162
100
AcDbEntity
100
AcDbCircle
  8
Flaschen
 62
256
370
-1
  6
ByLayer
 10
651.9999999999996589
 20
64.9999999999998863
 30
0.0
 40
45.0
  0
CIRCLE
  5
163
100
AcDbEntity
100
AcDbCircle
  8
Flaschen
 62
256
370
-1
  6
ByLayer
 10
761.9999999999996589
 20
64.9999999999998863
 30
0.0
 40
45.0
  0
CIRCLE
  5
164
100
AcDbEntity
100
AcDbCircle
  8
Flaschen
 62
256
370
-1
  6
ByLayer
 10
871.9999999999996589
 20
64.9999999999998863
 30
0.0
 40
45.0
  0
CIRCLE
  5
165
100
AcDbEntity
100
AcDbCircle
  8
Flaschen
 62
256
370
-1
  6
ByLayer
 10
596.9999999999996589
 20
154.9999999999998863
 30
0.0
 40
45.0
  0
CIRCLE
  5
166
100
AcDbEntity
100
AcDbCircle
  8
Flaschen
 62
256
370
-1
  6
ByLayer
 10
706.9999999999996589
 20
154.9999999999998863
 30
0.0
 40
45.0
  0
CIRCLE
  5
167
100
AcDbEntity
100
AcDbCircle
  8
Flaschen
 62
256
370
-1
  6
ByLayer
 10
816.9999999999996589
 20
154.9999999999998863
 30
0.0
 40
45.0
  0
CIRCLE
  5
168
100
AcDbEntity
100
AcDbCircle
  8
Flaschen
 62
256
370
-1
  6
ByLayer
 10
926.9999999999996589
 20
154.9999999999998863
 30
0.0
 40
45.0
  0
CIRCLE
  5
169
100
AcDbEntity
100
AcDbCircle
  8
Flaschen
 62
256
370
-1
  6
ByLayer
 10
651.9999999999996589
 20
244.9999999999998295
 30
0.0
 40
45.0
  0
CIRCLE
  5
16A
100
AcDbEntity
100
AcDbCircle
  8
Flaschen
 62
256
370
-1
  6
ByLayer
 10
871.9999999999996589
 20
244.9999999999998295
 30
0.0
 40
45.0
  0
LINE
  5
16B
100
AcDbEntity
100
AcDbLine
  8
0
 62
256
370
-1
  6
ByLayer
 10
704.0499999999996135
 20
10.0000000000001137
 30
0.0
 11
709.9499999999997044
 21
10.0000000000001137
 31
0.0
  0
LINE
  5
16C
100
AcDbEntity
100
AcDbLine
  8
0
 62
256
370
-1
  6
ByLayer
 10
495.5500000000000114
 20
10.0
 30
0.0
 11
501.4500000000001023
 21
10.0
 31
0.0
  0
LINE
  5
16D
100
AcDbEntity
100
AcDbLine
  8
0
 62
256
370
-1
  6
ByLayer
 10
594.0500000000001819
 20
10.0000000000001137
 30
0.0
 11
599.9500000000002728
 21
10.0000000000001137
 31
0.0
  0
LINE
  5
16E
100
AcDbEntity
100
AcDbLine
  8
0
 62
256
370
-1
  6
ByLayer
 10
814.0499999999996135
 20
10.0
 30
0.0
 11
819.9499999999997044
 21
10.0
 31
0.0
  0
LINE
  5
16F
100
AcDbEntity
100
AcDbLine
  8
0
 62
256
370
-1
  6
ByLayer
 10
912.5499999999996135
 20
10.0
 30
0.0
 11
918.4499999999997044
 21
10.0
 31
0.0
  0
LINE
  5
170
100
AcDbEntity
100
AcDbLine
  8
0
 62
256
370
-1
  6
ByLayer
 10
929.7617458039701432
 20
88.3861827653572902
 30
0.0
 11
932.8004704459394816
 21
93.4434698394998406
 31
0.0
  0
LINE
  5
171
100
AcDbEntity
100
AcDbLine
  8
0
 62
256
370
-1
  6
ByLayer
 10
929.6824024125211281
 20
221.8182120283979941
 30
0.0
 11
932.7211270544904664
 21
216.7609249542554437
 31
0.0
  0
LINE
  5
172
100
AcDbEntity
100
AcDbLine
  8
0
 62
256
370
-1
  6
ByLayer
 10
759.0499999999996135
 20
189.9999999999998295
 30
0.0
 11
764.9499999999997044
 21
189.9999999999998295
 31
0.0
  0
LINE
  5
173
100
AcDbEntity
100
AcDbLine
  8
0
 62
256
370
-1
  6
ByLayer
 10
591.6643246058985142
 20
216.5294537336290261
 30
0.0
 11
594.7030492478678525
 21
221.5867408077715766
 31
0.0
  0
LINE
  5
174
100
AcDbEntity
100
AcDbLine
  8
0
 62
256
370
-1
  6
ByLayer
 10
536.654181953104171
 20
126.6153758047542652
 30
0.0
 11
539.7807056120800553
 21
131.6188595720772696
 31
0.0
  0
LINE
  5
175
100
AcDbEntity
100
AcDbLine
  8
0
 62
256
370
-1
  6
ByLayer
 10
759.0499999999996135
 20
200.0967985551139634
 30
0.0
 11
759.0499999999996135
 21
189.9999999999998295
 31
0.0
  0
LINE
  5
176
100
AcDbEntity
100
AcDbLine
  8
0
 62
256
370
-1
  6
ByLayer
 10
764.9499999999997044
 20
200.0967985551139634
 30
0.0
 11
764.9499999999997044
 21
189.9999999999998295
 31
0.0
  0
LINE
  5
177
100
AcDbEntity
100
AcDbLine
  8
0
 62
256
370
-1
  6
ByLayer
 10
929.7617458039701432
 20
88.3861827653572902
 30
0.0
 11
938.5218936471794677
 21
83.122554909513525
 31
0.0
  0
LINE
  5
178
100
AcDbEntity
100
AcDbLine
  8
0
 62
256
370
-1
  6
ByLayer
 10
932.7211270544904664
 20
216.7609249542554437
 30
0.0
 11
941.4208979243423983
 21
221.9882746645126304
 31
0.0
  0
LINE
  5
179
100
AcDbEntity
100
AcDbLine
  8
0
 62
256
370
-1
  6
ByLayer
 10
582.8652626304001387
 20
221.8164635590888736
 30
0.0
 11
591.6643246058985142
 21
216.5294537336290261
 31
0.0
  0
LINE
  5
17A
100
AcDbEntity
100
AcDbLine
  8
0
 62
256
370
-1
  6
ByLayer
 10
585.9788772588017309
 20
226.8287521896247654
 30
0.0
 11
594.7030492478678525
 21
221.5867408077715766
 31
0.0
  0
LINE
  5
17B
100
AcDbEntity
100
AcDbLine
  8
0
 62
256
370
-1
  6
ByLayer
 10
528.0252667788467988
 20
132.0073204373729538
 30
0.0
 11
536.654181953104171
 21
126.6153758047542652
 31
0.0
  0
LINE
  5
17C
100
AcDbEntity
100
AcDbLine
  8
0
 62
256
370
-1
  6
ByLayer
 10
531.0762348282225958
 20
137.0580165894999709
 30
0.0
 11
539.7807056120800553
 21
131.6188595720772696
 31
0.0
  0
CIRCLE
  5
17D
100
AcDbEntity
100
AcDbCircle
  8
mittel
 62
256
370
-1
  6
ByLayer
 10
871.9999999999996589
 20
244.9999999999998295
 30
0.0
 40
5.0
  0
CIRCLE
  5
17E
100
AcDbEntity
100
AcDbCircle
  8
mittel
 62
256
370
-1
  6
ByLayer
 10
651.9999999999996589
 20
244.9999999999998295
 30
0.0
 40
5.0
  0
CIRCLE
  5
17F
100
AcDbEntity
100
AcDbCircle
  8
mittel
 62
256
370
-1
  6
ByLayer
 10
596.9999999999996589
 20
154.9999999999998863
 30
0.0
 40
5.0
  0
CIRCLE
  5
180
100
AcDbEntity
100
AcDbCircle
  8
mittel
 62
256
370
-1
  6
ByLayer
 10
706.9999999999996589
 20
154.9999999999998863
 30
0.0
 40
5.0
  0
CIRCLE
  5
181
100
AcDbEntity
100
AcDbCircle
  8
mittel
 62
256
370
-1
  6
ByLayer
 10
816.9999999999996589
 20
154.9999999999998863
 30
0.0
 40
5.0
  0
CIRCLE
  5
182
100
AcDbEntity
100
AcDbCircle
  8
mittel
 62
256
370
-1
  6
ByLayer
 10
926.9999999999996589
 20
154.9999999999998863
 30
0.0
 40
5.0
  0
CIRCLE
  5
183
100
AcDbEntity
100
AcDbCircle
  8
mittel
 62
256
370
-1
  6
ByLayer
 10
871.9999999999996589
 20
64.9999999999998863
 30
0.0
 40
5.0
  0
CIRCLE
  5
184
100
AcDbEntity
100
AcDbCircle
  8
mittel
 62
256
370
-1
  6
ByLayer
 10
761.9999999999996589
 20
64.9999999999998863
 30
0.0
 40
5.0
  0
CIRCLE
  5
185
100
AcDbEntity
100
AcDbCircle
  8
mittel
 62
256
370
-1
  6
ByLayer
 10
651.9999999999996589
 20
64.9999999999998863
 30
0.0
 40
5.0
  0
CIRCLE
  5
186
100
AcDbEntity
100
AcDbCircle
  8
mittel
 62
256
370
-1
  6
ByLayer
 10
542.0
 20
64.9999999999998863
 30
0.0
 40
5.0
  0
ENDSEC
  0
SECTION
  2
OBJECTS
  0
DICTIONARY
  5
C
100
AcDbDictionary
280
0
281
1
  3
ACAD_GROUP
350
D
  3
ACAD_LAYOUT
350
1A
  3
ACAD_MLINESTYLE
350
17
  3
ACAD_PLOTSETTINGS
350
19
  3
ACAD_PLOTSTYLENAME
350
E
  3
AcDbVariableDictionary
350
187
  0
DICTIONARY
  5
D
100
AcDbDictionary
280
0
281
1
  0
ACDBDICTIONARYWDFLT
  5
E
100
AcDbDictionary
281
1
  3
Normal
350
F
100
AcDbDictionaryWithDefault
340
F
  0
ACDBPLACEHOLDER
  5
F
  0
DICTIONARY
  5
17
100
AcDbDictionary
280
0
281
1
  3
Standard
350
18
  0
MLINESTYLE
  5
18
100
AcDbMlineStyle
  2
STANDARD
 70
0
  3

 62
256
 51
90.0
 52
90.0
 71
2
 49
0.5
 62
256
  6
BYLAYER
 49
-0.5
 62
256
  6
BYLAYER
  0
DICTIONARY
  5
19
100
AcDbDictionary
280
0
281
1
  0
DICTIONARY
  5
1A
100
AcDbDictionary
281
1
  3
Layout1
350
1E
  3
Layout2
350
26
  3
Model
350
22
  0
LAYOUT
  5
1E
100
AcDbPlotSettings
  1

  2
C:\Program Files\AutoCAD 2002\plotters\DWF ePlot (optimized for plotting).pc3
  4

  6

 40
0.0
 41
0.0
 42
0.0
 43
0.0
 44
0.0
 45
0.0
 46
0.0
 47
0.0
 48
0.0
 49
0.0
140
0.0
141
0.0
142
1.0
143
1.0
 70
688
 72
0
 73
0
 74
5
  7

 75
16
147
1.0
148
0.0
149
0.0
100
AcDbLayout
  1
Layout1
 70
1
 71
1
 10
0.0
 20
0.0
 11
420.0
 21
297.0
 12
0.0
 22
0.0
 32
0.0
 14
100000000000000000000.0
 24
100000000000000000000.0
 34
100000000000000000000.0
 15
-100000000000000000000.0
 25
-100000000000000000000.0
 35
-100000000000000000000.0
146
0.0
 13
0.0
 23
0.0
 33
0.0
 16
1.0
 26
0.0
 36
0.0
 17
0.0
 27
1.0
 37
0.0
 76
0
330
1B
  0
LAYOUT
  5
22
100
AcDbPlotSettings
  1

  2
C:\Program Files\AutoCAD 2002\plotters\DWF ePlot (optimized for plotting).pc3
  4

  6

 40
0.0
 41
0.0
 42
0.0
 43
0.0
 44
0.0
 45
0.0
 46
0.0
 47
0.0
 48
0.0
 49
0.0
140
0.0
141
0.0
142
1.0
143
1.0
 70
1712
 72
0
 73
0
 74
0
  7

 75
0
147
1.0
148
0.0
149
0.0
100
AcDbLayout
  1
Model
 70
1
 71
0
 10
0.0
 20
0.0
 11
12.0
 21
9.0
 12
0.0
 22
0.0
 32
0.0
 14
0.0
 24
0.0
 34
0.0
 15
0.0
 25
0.0
 35
0.0
146
0.0
 13
0.0
 23
0.0
 33
0.0
 16
1.0
 26
0.0
 36
0.0
 17
0.0
 27
1.0
 37
0.0
 76
0
330
1F
  0
LAYOUT
  5
26
100
AcDbPlotSettings
  1

  2
C:\Program Files\AutoCAD 2002\plotters\DWF ePlot (optimized for plotting).pc3
  4

  6

 40
0.0
 41
0.0
 42
0.0
 43
0.0
 44
0.0
 45
0.0
 46
0.0
 47
0.0
 48
0.0
 49
0.0
140
0.0
141
0.0
142
1.0
143
1.0
 70
688
 72
0
 73
0
 74
5
  7

 75
16
147
1.0
148
0.0
149
0.0
100
AcDbLayout
  1
Layout2
 70
1
 71
2
 10
0.0
 20
0.0
 11
12.0
 21
9.0
 12
0.0
 22
0.0
 32
0.0
 14
0.0
 24
0.0
 34
0.0
 15
0.0
 25
0.0
 35
0.0
146
0.0
 13
0.0
 23
0.0
 33
0.0
 16
1.0
 26
0.0
 36
0.0
 17
0.0
 27
1.0
 37
0.0
 76
0
330
23
  0
DICTIONARY
  5
187
100
AcDbDictionary
281
1
  3
DIMASSOC
350
189
  3
HIDETEXT
350
188
  0
DICTIONARYVAR
  5
188
100
DictionaryVariables
280
0
  1
2
  0
DICTIONARYVAR
  5
189
100
DictionaryVariables
280
0
  1
1
  0
ENDSEC
  0
EOF
