<?xml version="1.0" encoding="UTF-8" standalone="no"?>
<!-- Created with Inkscape (http://www.inkscape.org/) -->

<svg
   xmlns:dc="http://purl.org/dc/elements/1.1/"
   xmlns:cc="http://creativecommons.org/ns#"
   xmlns:rdf="http://www.w3.org/1999/02/22-rdf-syntax-ns#"
   xmlns:svg="http://www.w3.org/2000/svg"
   xmlns="http://www.w3.org/2000/svg"
   xmlns:sodipodi="http://sodipodi.sourceforge.net/DTD/sodipodi-0.dtd"
   xmlns:inkscape="http://www.inkscape.org/namespaces/inkscape"
   width="170.27649mm"
   height="169.59798mm"
   viewBox="0 0 603.34189 600.93771"
   id="svg2"
   version="1.1"
   inkscape:version="0.91 r13725"
   sodipodi:docname="wc.svg">
  <defs
     id="defs4" />
  <sodipodi:namedview
     id="base"
     pagecolor="#ffffff"
     bordercolor="#666666"
     borderopacity="1.0"
     inkscape:pageopacity="0.0"
     inkscape:pageshadow="2"
     inkscape:zoom="0.79915451"
     inkscape:cx="310.83469"
     inkscape:cy="289.88251"
     inkscape:document-units="mm"
     inkscape:current-layer="layer1"
     showgrid="false"
     inkscape:window-width="1920"
     inkscape:window-height="1021"
     inkscape:window-x="0"
     inkscape:window-y="0"
     inkscape:window-maximized="1"
     inkscape:snap-object-midpoints="true"
     inkscape:snap-intersection-paths="true"
     fit-margin-top="0"
     fit-margin-left="0"
     fit-margin-right="0"
     fit-margin-bottom="0" />
  <metadata
     id="metadata7">
    <rdf:RDF>
      <cc:Work
         rdf:about="">
        <dc:format>image/svg+xml</dc:format>
        <dc:type
           rdf:resource="http://purl.org/dc/dcmitype/StillImage" />
        <dc:title></dc:title>
      </cc:Work>
    </rdf:RDF>
  </metadata>
  <g
     inkscape:label="Ebene 1"
     inkscape:groupmode="layer"
     id="layer1"
     transform="translate(-61.21255,-215.12587)">
    <g
       id="g4143"
       transform="translate(-5.7104087,-7.5300922)">
      <g
         transform="matrix(0.95574321,0,0,0.95574321,29.039972,14.182254)"
         id="g4220">
        <path
           sodipodi:nodetypes="csssssssscssssscssssssssscsssssssssssssscssscc"
           inkscape:connector-curvature="0"
           style="fill:none;stroke:#000000;stroke-width:0.35433072;stroke-miterlimit:4;stroke-dasharray:none;stroke-opacity:1"
           d="m 442.14818,743.47919 c -4.10777,-1.1945 -10.86096,-7.20132 -13.1579,-11.70371 -2.57194,-5.04143 -2.4768,-11.58693 0.53215,-36.61046 1.34674,-11.19989 5.30159,-44.47024 8.78856,-73.93413 3.48698,-29.46387 7.46714,-62.7932 8.8448,-74.06516 1.37767,-11.27195 2.30086,-21.60842 2.05153,-22.96991 -0.24932,-1.3615 -11.69348,-29.4216 -25.43147,-62.35577 -27.76196,-66.55392 -27.3497,-65.19112 -22.18455,-73.33572 4.53038,-7.14365 7.5385,-8.10339 26.6005,-8.48684 l 16.23107,-0.32651 -0.98426,-3.5647 c -0.54134,-1.96059 -0.79873,-7.09977 -0.57194,-11.42041 0.53542,-10.20123 4.4031,-18.83022 11.71168,-26.12935 23.17809,-23.14812 62.22135,-11.34654 69.13654,20.89787 1.02109,4.76117 0.60985,15.41163 -0.72987,18.9029 -0.487,1.2691 1.18267,1.47557 11.97013,1.48025 15.26775,0.007 18.92268,0.93402 24.33776,6.17546 4.04338,3.91371 4.69952,5.48643 18.57432,44.52116 16.38838,46.10633 16.89121,48.5118 11.52628,55.14036 -4.54272,5.61267 -8.6249,7.44239 -15.70293,7.03834 -4.7791,-0.27282 -6.73318,-0.91297 -9.75039,-3.19418 -11.77227,-8.90064 -81.77164,-71.66334 -83.30565,-74.17892 -2.19861,-3.60548 -3.01827,-9.52808 -1.03496,-13.36339 3.3734,-6.52343 8.83748,-8.06925 15.26544,-6.33838 2.3357,0.62893 10.96927,6.12216 26.54735,19.23847 18.11772,15.2546 21.47464,18.21994 24.67981,19.09783 0,0 4.0429,-1.90928 1.88434,-5.6687 -1.04106,-1.81315 -43.72623,-36.12277 -48.00152,-38.47933 -10.26676,-5.6591 -24.52262,1.2981 -27.98268,13.6562 -2.4846,8.87415 -1.19322,15.24887 10.87983,25.69427 8.78909,7.6042 54.26154,47.65273 56.41017,49.28529 0.88207,0.67021 4.6822,6.96494 7.36741,21.38583 7.52118,40.39239 7.6303,41.21202 6.28589,47.21948 -1.33111,5.94799 -1.1698,5.72342 -24.72155,34.4168 -8.50164,10.35766 -15.32066,19.22196 -15.15338,19.69844 0.16728,0.47649 14.12534,13.72104 31.0179,29.43236 22.42968,20.86124 31.30547,29.73944 32.90759,32.91654 4.64734,9.21596 1.51585,22.33552 -6.76262,28.3324 -7.81837,5.66361 -19.19278,5.67324 -26.82687,0.0227 -2.03818,-1.50859 -16.43005,-14.59277 -31.98193,-29.07594 -15.55188,-14.48318 -28.39954,-26.22036 -28.55036,-26.08263 -0.30206,0.27587 -3.40506,25.33384 -7.97228,64.37964 -1.63093,13.94306 -3.65696,27.20774 -4.50227,29.47705 -1.86419,5.00458 -8.57348,11.17673 -13.87649,12.76554 -4.38835,1.31479 -10.07017,1.35787 -14.36518,0.10894 z"
           id="path4212" />
        <path
           inkscape:connector-curvature="0"
           style="fill:none;stroke:#000000;stroke-width:0.35433072;stroke-miterlimit:4;stroke-dasharray:none;stroke-opacity:1"
           d="m 460.33217,624.07242 c -5.16011,-5.87705 -7.21351,-10.97335 -7.69963,-19.10963 -0.59835,-10.0146 1.29456,-15.4189 8.37629,-23.91454 3.06059,-3.67166 10.78192,-13.03788 17.15851,-20.81382 6.3766,-7.77594 12.2104,-14.85565 12.96401,-15.7327 1.2051,-1.40248 -1.58143,-8.68695 -23.12494,-60.45246 -13.47234,-32.3718 -24.73806,-60.06334 -25.03494,-61.53677 -0.98088,-4.86805 3.56755,-7.46908 6.80517,-3.89155 1.16509,1.28741 33.53707,77.83668 47.20772,111.63101 0.81351,2.01102 1.80169,3.6564 2.19597,3.6564 0.39426,0 2.82838,-2.6326 5.40915,-5.85023 3.72791,-4.64785 5.25516,-5.85024 7.43081,-5.85024 1.79224,0 3.12075,0.71424 3.84474,2.06703 1.38967,2.59662 2.77402,0.70766 -27.59464,37.65321 -13.3287,16.21527 -24.87214,31.00959 -25.65209,32.87626 -2.97522,7.12072 -1.46245,15.61148 4.07531,22.87363 3.68508,4.83257 3.95212,6.09958 1.74976,8.30194 -2.39729,2.39729 -4.83481,1.82406 -8.1112,-1.90754 z"
           id="path4208" />
      </g>
      <path
         sodipodi:nodetypes="sssscccssscsssscsssssssssscssssssscsssssscscsssssssscsssssssssssssss"
         inkscape:connector-curvature="0"
         id="path4204"
         d="m 175.12468,718.84565 c -4.45643,-1.65855 -9.43498,-6.33159 -12.00491,-11.26821 -3.84227,-7.38071 -3.23004,-10.30342 13.27405,-63.36835 16.46726,-52.94657 15.79264,-49.53751 12.58609,-63.60132 l -1.54041,-6.75619 -20.82513,0 -20.82514,0 -1.93142,-2.45539 c -1.06227,-1.35046 -1.9314,-3.03543 -1.9314,-3.74437 0,-0.70894 8.64643,-22.89858 19.21428,-49.31029 l 19.21429,-48.02132 -16.81466,-37.92849 c -9.24807,-20.86066 -17.08712,-39.02537 -17.42013,-40.36603 -0.7554,-3.04119 0.9944,-9.75501 3.43615,-13.18412 3.85564,-5.41476 7.35162,-6.27769 25.43271,-6.27769 l 16.3629,0 -0.71667,-2.56268 c -0.39417,-1.40948 -0.71667,-6.54652 -0.71667,-11.41563 0,-8.03167 0.27738,-9.43852 2.99007,-15.16538 14.44044,-30.4858 56.4394,-30.37089 70.97557,0.19419 3.14257,6.60786 3.34912,7.60552 3.29243,15.90308 -0.0698,10.21321 -1.8131,15.73193 -7.35402,23.28018 -6.31293,8.59993 -19.60007,15.85909 -29.02841,15.85909 -2.06774,0 -3.39441,0.52567 -3.76518,1.49188 -0.83703,2.18125 2.05776,4.62729 6.97319,4.08244 14.60155,-1.61844 31.45245,-12.53861 35.95811,-26.68719 l 1.6811,-5.27897 12.16279,0.29899 c 9.64801,0.23717 14.70989,0.38623 16.80592,1.28307 3.62643,1.55164 7.64786,5.69137 8.99669,9.26134 2.3512,6.22295 1.41289,9.42588 -10.97038,37.4478 -46.8908,106.1085 -52.03677,113.51638 -54.71088,116.25152 -9.72021,9.94206 -26.616,7.07611 -24.49901,-6.16281 0.33684,-2.10644 9.41032,-29.34081 23.26405,-60.52081 13.85373,-31.18001 26.28554,-56.69185 26.00464,-57.42385 -0.28089,-0.73199 -2.2943,-1.92887 -2.85264,-1.92887 -1.18474,0 -4.89292,5.6945 -22.97208,46.6806 -7.34768,16.65749 -13.41827,30.97543 -13.84546,31.46233 -0.48926,0.55766 -0.93179,0.12241 -1.51058,-0.45637 -0.50536,-0.50536 -7.54447,-18.37732 -16.99904,-40.91055 -13.7081,-32.67076 -18.59667,-40.87607 -19.94724,-40.87607 -0.9315,0 -3.46179,1.52598 -3.40745,2.29479 0.0543,0.76881 10.31637,20.23919 20.45207,44.47798 l 18.42856,44.07055 -6.32441,14.17243 c -7.41207,16.60978 -8.42182,22.112 -5.21244,28.40292 5.96767,11.69759 25.53103,11.00194 34.55162,1.43733 1.96484,-2.08334 6.90809,-8.20636 16.30347,-29.47138 9.97859,-22.58501 12.58302,-29.66574 13.56851,-29.46967 1.76593,0.35134 35.39742,81.19915 35.39742,85.254 0,5.72257 -1.1353,6.01142 -23.62661,6.01142 -23.39336,0 -20.58135,-1.4828 -23.44119,12.36079 l -1.68723,8.1673 3.37646,10.93639 c 28.91484,93.65554 27.84144,89.91831 27.33403,95.16893 -0.64889,6.71471 -4.45712,12.75602 -10.3296,16.38668 -3.95286,2.44389 -5.4421,2.8203 -11.15801,2.8203 -5.54931,0 -7.30219,-0.41492 -11.04361,-2.6142 -2.44605,-1.4378 -5.47375,-4.1652 -6.72825,-6.06088 -2.17006,-3.27917 -24.78832,-77.3832 -24.78832,-80.93797 0,-0.88802 1.01447,-7.39431 3.28796,-14.71681 5.24269,-16.88572 5.92125,-22.37168 3.8993,-33.35805 -1.70287,-9.25262 -3.43306,-12.14981 -5.26295,-10.34717 -0.82238,0.81012 -1.35958,3.11378 -0.23103,8.57081 1.98371,9.59225 1.23913,16.95937 -0.99824,25.03319 -1.01764,3.67225 -7.33,28.40543 -15.57787,54.96263 -10.22791,32.93273 -15.7239,49.24219 -17.28502,51.29366 -5.29538,6.95864 -16.8287,10.34753 -24.94074,7.32847 z"
         style="fill:none;stroke:#000000;stroke-width:0.33864918;stroke-miterlimit:4;stroke-dasharray:none;stroke-opacity:1" />
    </g>
    <g
       id="g4139"
       transform="matrix(0.84565902,0,0,0.84228928,45.425875,70.81706)">
      <path
         id="path4198"
         d="M 731.94839,528.05811 A 356.55167,356.55167 0 0 1 375.39673,884.60977 356.55167,356.55167 0 0 1 18.845062,528.05811 356.55167,356.55167 0 0 1 375.39673,171.50644 356.55167,356.55167 0 0 1 731.94839,528.05811 Z"
         style="opacity:1;fill:none;fill-opacity:1;stroke:#000000;stroke-width:0.35433072;stroke-miterlimit:4;stroke-dasharray:none;stroke-dashoffset:0;stroke-opacity:1"
         inkscape:connector-curvature="0" />
      <path
         inkscape:connector-curvature="0"
         id="path4227"
         d="m 375.39673,171.50644 0,713.10333"
         style="fill:none;fill-rule:evenodd;stroke:#000000;stroke-width:0.35433072;stroke-linecap:butt;stroke-linejoin:miter;stroke-miterlimit:4;stroke-dasharray:none;stroke-opacity:1" />
    </g>
  </g>
</svg>
