  0
SECTION
  2
ENTITIES
  0
LINE
 10
-22.000000
 11
-22.000000
 20
-13.000000
 21
13.000000
  0
LINE
 10
-22.000000
 11
-21.956000
 20
13.000000
 21
13.416000
  0
LINE
 10
-21.956000
 11
-21.827000
 20
13.416000
 21
13.813000
  0
LINE
 10
-21.827000
 11
-21.618000
 20
13.813000
 21
14.176000
  0
LINE
 10
-21.618000
 11
-21.338000
 20
14.176000
 21
14.486000
  0
LINE
 10
-21.338000
 11
-21.000000
 20
14.486000
 21
14.732000
  0
LINE
 10
-21.000000
 11
-20.618000
 20
14.732000
 21
14.902000
  0
LINE
 10
-20.618000
 11
-20.209000
 20
14.902000
 21
14.989000
  0
LINE
 10
-20.209000
 11
-20.000000
 20
14.989000
 21
14.989000
  0
LINE
 10
-20.000000
 11
-20.000000
 20
14.989000
 21
15.000000
  0
LINE
 10
-20.000000
 11
20.000000
 20
15.000000
 21
15.000000
  0
LINE
 10
20.000000
 11
20.000000
 20
15.000000
 21
14.989000
  0
LINE
 10
20.000000
 11
20.209000
 20
14.989000
 21
14.989000
  0
LINE
 10
20.209000
 11
20.618000
 20
14.989000
 21
14.902000
  0
LINE
 10
20.618000
 11
21.000000
 20
14.902000
 21
14.732000
  0
LINE
 10
21.000000
 11
21.338000
 20
14.732000
 21
14.486000
  0
LINE
 10
21.338000
 11
21.618000
 20
14.486000
 21
14.176000
  0
LINE
 10
21.618000
 11
21.827000
 20
14.176000
 21
13.813000
  0
LINE
 10
21.827000
 11
21.956000
 20
13.813000
 21
13.416000
  0
LINE
 10
21.956000
 11
22.000000
 20
13.416000
 21
13.000000
  0
LINE
 10
22.000000
 11
22.000000
 20
13.000000
 21
-13.000000
  0
LINE
 10
22.000000
 11
21.956000
 20
-13.000000
 21
-13.416000
  0
LINE
 10
21.956000
 11
21.827000
 20
-13.416000
 21
-13.813000
  0
LINE
 10
21.827000
 11
21.618000
 20
-13.813000
 21
-14.176000
  0
LINE
 10
21.618000
 11
21.338000
 20
-14.176000
 21
-14.486000
  0
LINE
 10
21.338000
 11
21.000000
 20
-14.486000
 21
-14.732000
  0
LINE
 10
21.000000
 11
20.618000
 20
-14.732000
 21
-14.902000
  0
LINE
 10
20.618000
 11
20.209000
 20
-14.902000
 21
-14.989000
  0
LINE
 10
20.209000
 11
20.000000
 20
-14.989000
 21
-14.989000
  0
LINE
 10
20.000000
 11
20.000000
 20
-14.989000
 21
-15.000000
  0
LINE
 10
20.000000
 11
-20.000000
 20
-15.000000
 21
-15.000000
  0
LINE
 10
-20.000000
 11
-20.000000
 20
-15.000000
 21
-14.989000
  0
LINE
 10
-20.000000
 11
-20.209000
 20
-14.989000
 21
-14.989000
  0
LINE
 10
-20.209000
 11
-20.618000
 20
-14.989000
 21
-14.902000
  0
LINE
 10
-20.618000
 11
-21.000000
 20
-14.902000
 21
-14.732000
  0
LINE
 10
-21.000000
 11
-21.338000
 20
-14.732000
 21
-14.486000
  0
LINE
 10
-21.338000
 11
-21.618000
 20
-14.486000
 21
-14.176000
  0
LINE
 10
-21.618000
 11
-21.827000
 20
-14.176000
 21
-13.813000
  0
LINE
 10
-21.827000
 11
-21.956000
 20
-13.813000
 21
-13.416000
  0
LINE
 10
-21.956000
 11
-22.000000
 20
-13.416000
 21
-13.000000
  0
LINE
 10
-17.750000
 11
-17.706000
 20
0.000000
 21
0.389000
  0
LINE
 10
-17.706000
 11
-17.577000
 20
0.389000
 21
0.759000
  0
LINE
 10
-17.577000
 11
-17.368000
 20
0.759000
 21
1.091000
  0
LINE
 10
-17.368000
 11
-17.091000
 20
1.091000
 21
1.368000
  0
LINE
 10
-17.091000
 11
-16.759000
 20
1.368000
 21
1.577000
  0
LINE
 10
-16.759000
 11
-16.389000
 20
1.577000
 21
1.706000
  0
LINE
 10
-16.389000
 11
-16.000000
 20
1.706000
 21
1.750000
  0
LINE
 10
-16.000000
 11
-15.611000
 20
1.750000
 21
1.706000
  0
LINE
 10
-15.611000
 11
-15.241000
 20
1.706000
 21
1.577000
  0
LINE
 10
-15.241000
 11
-14.909000
 20
1.577000
 21
1.368000
  0
LINE
 10
-14.909000
 11
-14.632000
 20
1.368000
 21
1.091000
  0
LINE
 10
-14.632000
 11
-14.423000
 20
1.091000
 21
0.759000
  0
LINE
 10
-14.423000
 11
-14.294000
 20
0.759000
 21
0.389000
  0
LINE
 10
-14.294000
 11
-14.250000
 20
0.389000
 21
0.000000
  0
LINE
 10
-14.250000
 11
-14.294000
 20
0.000000
 21
-0.389000
  0
LINE
 10
-14.294000
 11
-14.423000
 20
-0.389000
 21
-0.759000
  0
LINE
 10
-14.423000
 11
-14.632000
 20
-0.759000
 21
-1.091000
  0
LINE
 10
-14.632000
 11
-14.909000
 20
-1.091000
 21
-1.368000
  0
LINE
 10
-14.909000
 11
-15.241000
 20
-1.368000
 21
-1.577000
  0
LINE
 10
-15.241000
 11
-15.611000
 20
-1.577000
 21
-1.706000
  0
LINE
 10
-15.611000
 11
-16.000000
 20
-1.706000
 21
-1.750000
  0
LINE
 10
-16.000000
 11
-16.389000
 20
-1.750000
 21
-1.706000
  0
LINE
 10
-16.389000
 11
-16.759000
 20
-1.706000
 21
-1.577000
  0
LINE
 10
-16.759000
 11
-17.091000
 20
-1.577000
 21
-1.368000
  0
LINE
 10
-17.091000
 11
-17.368000
 20
-1.368000
 21
-1.091000
  0
LINE
 10
-17.368000
 11
-17.577000
 20
-1.091000
 21
-0.759000
  0
LINE
 10
-17.577000
 11
-17.706000
 20
-0.759000
 21
-0.389000
  0
LINE
 10
-17.706000
 11
-17.750000
 20
-0.389000
 21
0.000000
  0
LINE
 10
14.250000
 11
14.294000
 20
0.000000
 21
0.389000
  0
LINE
 10
14.294000
 11
14.423000
 20
0.389000
 21
0.759000
  0
LINE
 10
14.423000
 11
14.632000
 20
0.759000
 21
1.091000
  0
LINE
 10
14.632000
 11
14.909000
 20
1.091000
 21
1.368000
  0
LINE
 10
14.909000
 11
15.241000
 20
1.368000
 21
1.577000
  0
LINE
 10
15.241000
 11
15.611000
 20
1.577000
 21
1.706000
  0
LINE
 10
15.611000
 11
16.000000
 20
1.706000
 21
1.750000
  0
LINE
 10
16.000000
 11
16.389000
 20
1.750000
 21
1.706000
  0
LINE
 10
16.389000
 11
16.759000
 20
1.706000
 21
1.577000
  0
LINE
 10
16.759000
 11
17.091000
 20
1.577000
 21
1.368000
  0
LINE
 10
17.091000
 11
17.368000
 20
1.368000
 21
1.091000
  0
LINE
 10
17.368000
 11
17.577000
 20
1.091000
 21
0.759000
  0
LINE
 10
17.577000
 11
17.706000
 20
0.759000
 21
0.389000
  0
LINE
 10
17.706000
 11
17.750000
 20
0.389000
 21
0.000000
  0
LINE
 10
17.750000
 11
17.706000
 20
0.000000
 21
-0.389000
  0
LINE
 10
17.706000
 11
17.577000
 20
-0.389000
 21
-0.759000
  0
LINE
 10
17.577000
 11
17.368000
 20
-0.759000
 21
-1.091000
  0
LINE
 10
17.368000
 11
17.091000
 20
-1.091000
 21
-1.368000
  0
LINE
 10
17.091000
 11
16.759000
 20
-1.368000
 21
-1.577000
  0
LINE
 10
16.759000
 11
16.389000
 20
-1.577000
 21
-1.706000
  0
LINE
 10
16.389000
 11
16.000000
 20
-1.706000
 21
-1.750000
  0
LINE
 10
16.000000
 11
15.611000
 20
-1.750000
 21
-1.706000
  0
LINE
 10
15.611000
 11
15.241000
 20
-1.706000
 21
-1.577000
  0
LINE
 10
15.241000
 11
14.909000
 20
-1.577000
 21
-1.368000
  0
LINE
 10
14.909000
 11
14.632000
 20
-1.368000
 21
-1.091000
  0
LINE
 10
14.632000
 11
14.423000
 20
-1.091000
 21
-0.759000
  0
LINE
 10
14.423000
 11
14.294000
 20
-0.759000
 21
-0.389000
  0
LINE
 10
14.294000
 11
14.250000
 20
-0.389000
 21
0.000000
  0
ENDSEC
  0
EOF
