<?xml version="1.0" encoding="UTF-8" standalone="no"?>
<!-- Created with Inkscape (http://www.inkscape.org/) -->

<svg
   xmlns:dc="http://purl.org/dc/elements/1.1/"
   xmlns:cc="http://creativecommons.org/ns#"
   xmlns:rdf="http://www.w3.org/1999/02/22-rdf-syntax-ns#"
   xmlns:svg="http://www.w3.org/2000/svg"
   xmlns="http://www.w3.org/2000/svg"
   xmlns:sodipodi="http://sodipodi.sourceforge.net/DTD/sodipodi-0.dtd"
   xmlns:inkscape="http://www.inkscape.org/namespaces/inkscape"
   sodipodi:docname="ScheibeKoenig.svg"
   inkscape:version="0.48.1 r9760"
   version="1.1"
   id="svg2"
   height="1346.4567"
   width="1346.4567">
  <defs
     id="defs4" />
  <sodipodi:namedview
     id="base"
     pagecolor="#ffffff"
     bordercolor="#666666"
     borderopacity="1.0"
     inkscape:pageopacity="0.0"
     inkscape:pageshadow="2"
     inkscape:zoom="0.64168422"
     inkscape:cx="673.22833"
     inkscape:cy="673.22833"
     inkscape:document-units="mm"
     inkscape:current-layer="layer4"
     showgrid="false"
     units="mm"
     inkscape:snap-center="false"
     inkscape:snap-nodes="true"
     inkscape:snap-global="true"
     inkscape:snap-grids="true"
     inkscape:snap-to-guides="true"
     showguides="true"
     inkscape:guide-bbox="true"
     inkscape:window-width="1920"
     inkscape:window-height="1056"
     inkscape:window-x="0"
     inkscape:window-y="24"
     inkscape:window-maximized="1"
     inkscape:snap-object-midpoints="false">
    <sodipodi:guide
       orientation="1,0"
       position="673.22833,1093.996"
       id="guide2991" />
    <sodipodi:guide
       orientation="0,1"
       position="-146.4895,673.22833"
       id="guide2993" />
    <sodipodi:guide
       orientation="0,1"
       position="2086.6962,271.16141"
       id="guide3012" />
  </sodipodi:namedview>
  <metadata
     id="metadata7">
    <rdf:RDF>
      <cc:Work
         rdf:about="">
        <dc:format>image/svg+xml</dc:format>
        <dc:type
           rdf:resource="http://purl.org/dc/dcmitype/StillImage" />
        <dc:title />
      </cc:Work>
    </rdf:RDF>
  </metadata>
  <g
     inkscape:groupmode="layer"
     id="layer2"
     inkscape:label="Hilf"
     style="display:inline" />
  <g
     inkscape:groupmode="layer"
     id="layer4"
     inkscape:label="Rundtext"
     style="display:inline">
    <path
       inkscape:connector-curvature="0"
       id="path3810"
       style="font-size:144px;font-style:normal;font-variant:normal;font-weight:normal;font-stretch:normal;text-align:center;line-height:125%;letter-spacing:0px;word-spacing:0px;writing-mode:lr-tb;text-anchor:middle;fill:none;stroke:#000000;stroke-opacity:1;font-family:Arial Black;-inkscape-font-specification:'Arial Black,'"
       d="m 217.00548,1072.5742 -32.07739,-42.1218 c -6.98618,-9.1739 -10.0301,-17.6971 -9.13177,-25.5696 0.87019,-7.90967 5.3328,-14.93169 13.38784,-21.06604 8.27903,-6.30468 16.65204,-8.73342 25.11905,-7.28623 8.43879,1.40999 16.54888,7.22401 24.33031,17.44211 l 10.56466,13.87276 30.43064,-23.17407 19.38275,25.45207 -82.00609,62.4508 m 15.57892,-52.0767 -4.72854,-6.2092 c -3.72027,-4.8853 -7.17212,-7.6772 -10.35554,-8.3758 -3.22054,-0.6701 -6.15474,0 -8.8026,2.0194 -2.57308,1.9596 -4.10149,4.4787 -4.58525,7.5573 -0.48355,3.0787 1.078,6.9861 4.68465,11.7222 l 5.49533,7.2161 18.29195,-13.93" />
    <path
       inkscape:connector-curvature="0"
       id="path3812"
       style="font-size:144px;font-style:normal;font-variant:normal;font-weight:normal;font-stretch:normal;text-align:center;line-height:125%;letter-spacing:0px;word-spacing:0px;writing-mode:lr-tb;text-anchor:middle;fill:none;stroke:#000000;stroke-opacity:1;font-family:Arial Black;-inkscape-font-specification:'Arial Black,'"
       d="m 148.86004,975.26263 -13.74103,-25.18247 90.48407,-49.37341 13.74103,25.18246 -90.48407,49.37342" />
    <path
       inkscape:connector-curvature="0"
       id="path3814"
       style="font-size:144px;font-style:normal;font-variant:normal;font-weight:normal;font-stretch:normal;text-align:center;line-height:125%;letter-spacing:0px;word-spacing:0px;writing-mode:lr-tb;text-anchor:middle;fill:none;stroke:#000000;stroke-opacity:1;font-family:Arial Black;-inkscape-font-specification:'Arial Black,'"
       d="m 159.11066,817.40874 19.94562,53.79649 c 4.12802,-2.08039 6.90464,-4.43467 8.32987,-7.06284 2.07124,-3.71748 2.33281,-7.66393 0.78472,-11.83934 -0.9777,-2.63704 -2.56581,-4.89784 -4.76434,-6.78239 -1.37279,-1.14074 -3.42364,-2.15511 -6.15258,-3.04313 l -7.3624,-27.34116 c 8.53144,1.43633 15.39464,4.44096 20.58961,9.01388 5.15107,4.58936 9.70649,12.22409 13.66627,22.90422 3.43835,9.27378 4.84682,17.05042 4.22543,23.32994 -0.66532,6.29586 -3.18103,12.25289 -7.54714,17.8711 -4.42632,5.59057 -10.48523,9.8117 -18.17675,12.6634 -10.94385,4.05756 -21.09553,3.84696 -30.45507,-0.6318 -9.37571,-4.52273 -16.35311,-12.95925 -20.93221,-25.3096 -3.71527,-10.02088 -5.13213,-18.49432 -4.25057,-25.42032 0.88174,-6.92592 3.63918,-12.97257 8.27234,-18.13998 4.63332,-5.16728 11.56483,-9.46197 20.79455,-12.88409 l 3.03265,-1.12438 m -2.73631,32.06023 c -4.99065,2.45032 -8.18309,5.23372 -9.57732,8.35022 -1.41037,3.07262 -1.43119,6.45487 -0.0625,10.14676 1.58073,4.2633 4.53575,7.04216 8.86508,8.33657 2.71266,0.84404 6.23812,0.71177 10.5764,-0.3968 l -9.80171,-26.43675" />
    <path
       inkscape:connector-curvature="0"
       id="path3816"
       style="font-size:144px;font-style:normal;font-variant:normal;font-weight:normal;font-stretch:normal;text-align:center;line-height:125%;letter-spacing:0px;word-spacing:0px;writing-mode:lr-tb;text-anchor:middle;fill:none;stroke:#000000;stroke-opacity:1;font-family:Arial Black;-inkscape-font-specification:'Arial Black,'"
       d="m 77.571188,779.59179 27.870752,-5.48964 -3.04376,-15.45309 20.48914,-4.03571 3.04376,15.45309 26.00811,-5.12276 c 3.12744,-0.61596 5.13817,-1.32255 6.03218,-2.11977 1.38256,-1.22778 1.84735,-2.99148 1.39438,-5.29109 -0.40761,-2.06956 -1.57621,-4.84925 -3.50577,-8.33907 l 18.9777,-5.8879 c 2.8856,6.64581 4.92175,12.98111 6.10845,19.00593 1.37694,6.99072 1.4947,12.31839 0.35327,15.98303 -1.14142,3.66469 -3.37026,6.65969 -6.68653,8.98502 -3.37129,2.28842 -9.15017,4.23886 -17.33665,5.85132 l -25.80114,5.082 2.03823,10.34805 -20.48914,4.0357 -2.03823,-10.34805 -13.452472,2.6497 -19.96228,-25.30676" />
    <path
       inkscape:connector-curvature="0"
       id="path3818"
       style="font-size:144px;font-style:normal;font-variant:normal;font-weight:normal;font-stretch:normal;text-align:center;line-height:125%;letter-spacing:0px;word-spacing:0px;writing-mode:lr-tb;text-anchor:middle;fill:none;stroke:#000000;stroke-opacity:1;font-family:Arial Black;-inkscape-font-specification:'Arial Black,'"
       d="m 99.285835,737.75202 -3.545627,-69.167 16.712432,-0.85671 40.26968,35.67269 -2.04819,-39.95535 19.52125,-1.0007 3.8084,74.29308 -18.53816,0.9503 -38.34317,-33.80011 1.68463,32.8631 -19.521245,1.0007" />
    <path
       inkscape:connector-curvature="0"
       id="path3820"
       style="font-size:144px;font-style:normal;font-variant:normal;font-weight:normal;font-stretch:normal;text-align:center;line-height:125%;letter-spacing:0px;word-spacing:0px;writing-mode:lr-tb;text-anchor:middle;fill:none;stroke:#000000;stroke-opacity:1;font-family:Arial Black;-inkscape-font-specification:'Arial Black,'"
       d="m 123.47423,618.38592 -6.2076,26.79337 c -4.6191,-1.60847 -8.16027,-3.53275 -10.62351,-5.77284 -2.50391,-2.29231 -4.53247,-5.37617 -6.08567,-9.25159 -1.120975,-2.78303 -1.795918,-6.50293 -2.024834,-11.1597 -0.228775,-4.65669 -0.0163,-9.63685 0.637437,-14.94051 1.049597,-8.51361 2.381147,-15.29224 3.994657,-20.33591 1.56712,-5.04925 4.07484,-9.10887 7.52316,-12.17886 2.39181,-2.16101 5.60441,-3.7014 9.63781,-4.62116 3.98697,-0.92531 7.72503,-1.17295 11.2142,-0.74291 l 32.72882,4.03466 c 3.48921,0.43023 6.25986,0.55925 8.31196,0.38706 2.01131,-0.22426 4.64397,-0.89154 7.89801,-2.00185 l -3.28622,26.65759 c -2.03935,0.83495 -3.56759,1.355 -4.58471,1.56016 -1.06365,0.19955 -2.68557,0.33021 -4.86576,0.392 3.12344,4.16348 5.22625,8.17748 6.30844,12.04199 1.4276,5.27685 1.73134,11.24164 0.91123,17.89436 -1.08968,8.83936 -3.96541,15.30956 -8.62719,19.41061 -4.65605,4.05456 -9.98479,5.71191 -15.98625,4.97208 -5.62924,-0.69395 -10.05466,-2.91615 -13.27627,-6.66662 -3.22155,-3.75044 -5.16858,-10.17757 -5.84107,-19.28139 -0.82667,-10.9175 -1.46373,-18.00965 -1.9112,-21.27649 -0.4939,-3.27246 -1.22078,-6.76261 -2.18064,-10.47046 -3.48916,-0.43007 -6.0205,-0.0101 -7.59403,1.26003 -1.57342,1.27021 -2.58382,3.71968 -3.03122,7.3484 -0.57346,4.65233 -0.25922,8.23331 0.9427,10.74292 0.93945,1.95782 2.94536,3.69283 6.01775,5.20506 m 17.97057,-22.79286 c 0.91397,4.08003 1.645,8.30275 2.1931,12.66818 0.82412,5.95814 1.88591,9.79657 3.18535,11.51531 1.34028,1.77107 2.98739,2.77702 4.94133,3.01786 2.23311,0.27532 4.16539,-0.26576 5.79685,-1.62327 1.59068,-1.40968 2.57242,-3.62653 2.94519,-6.65056 0.39,-3.1635 -0.0163,-6.18907 -1.21894,-9.0767 -1.19687,-2.93405 -2.81978,-5.09415 -4.86872,-6.48031 -2.0897,-1.43829 -4.90242,-2.37541 -8.43818,-2.81134 l -4.53598,-0.55917" />
    <path
       inkscape:connector-curvature="0"
       id="path3822"
       style="font-size:144px;font-style:normal;font-variant:normal;font-weight:normal;font-stretch:normal;text-align:center;line-height:125%;letter-spacing:0px;word-spacing:0px;writing-mode:lr-tb;text-anchor:middle;fill:none;stroke:#000000;stroke-opacity:1;font-family:Arial Black;-inkscape-font-specification:'Arial Black,'"
       d="m 173.26799,493.12312 11.31033,-24.94159 c 4.93592,3.17134 8.86271,7.02638 11.7804,11.56512 2.87305,4.52449 4.58088,9.68224 5.12348,15.47328 0.55699,5.74656 -0.4256,12.52268 -2.94777,20.32838 -2.43572,7.53817 -5.15925,13.60398 -8.17058,18.19745 -3.04154,4.53451 -6.70716,8.10379 -10.99687,10.70785 -4.33432,2.58968 -8.95166,4.22581 -13.85206,4.90841 -4.90036,0.68263 -10.85199,-0.10744 -17.8549,-2.37022 -7.31507,-2.36363 -13,-5.57985 -17.05482,-9.64867 -2.97738,-2.98175 -5.35949,-6.51008 -7.14633,-10.58501 -1.83133,-4.08926 -2.89793,-8.02997 -3.19979,-11.82212 -0.47046,-6.01407 0.63464,-13.16933 3.3153,-21.4658 3.7473,-11.59704 8.67506,-19.75851 14.78331,-24.48443 6.12275,-4.77033 13.57253,-7.09225 22.34936,-6.96575 l -4.86774,26.72774 c -3.29249,-0.1771 -6.04292,0.55981 -8.25129,2.21072 -2.2385,1.59203 -3.93427,4.17219 -5.08731,7.74047 -1.45562,4.50509 -1.00938,8.6887 1.33871,12.55083 2.31797,3.80321 6.75535,6.76411 13.31216,8.8827 5.84318,1.88808 10.72809,1.93938 14.65475,0.15392 3.92667,-1.78537 6.5818,-4.81909 7.9654,-9.10115 1.153,-3.56829 1.20424,-6.85223 0.15374,-9.85184 -1.03609,-3.04408 -3.25525,-5.78084 -6.65748,-8.21029" />
    <path
       inkscape:connector-curvature="0"
       id="path3824"
       style="font-size:144px;font-style:normal;font-variant:normal;font-weight:normal;font-stretch:normal;text-align:center;line-height:125%;letter-spacing:0px;word-spacing:0px;writing-mode:lr-tb;text-anchor:middle;fill:none;stroke:#000000;stroke-opacity:1;font-family:Arial Black;-inkscape-font-specification:'Arial Black,'"
       d="m 123.90679,416.64418 13.78882,-25.07612 33.27053,18.29474 c -1.65774,-5.35153 -2.32048,-10.12924 -1.98823,-14.33313 0.33234,-4.20373 1.7633,-8.60582 4.29291,-13.20627 3.74932,-6.81831 8.77108,-11.03796 15.06528,-12.65897 6.31683,-1.66187 13.76754,-0.13261 22.35215,4.58778 l 41.58816,22.86843 -13.85657,25.19935 -35.98146,-19.78543 c -4.10747,-2.25854 -7.42107,-3.09097 -9.94084,-2.49731 -2.5608,0.57122 -4.59785,2.2328 -6.11114,4.98473 -1.67135,3.0396 -1.87642,6.13649 -0.61522,9.29069 1.26125,3.15431 4.86977,6.36893 10.82559,9.64386 l 31.42217,17.27837 -13.78882,25.07612 -90.32333,-49.66684" />
    <path
       inkscape:connector-curvature="0"
       id="path3826"
       style="font-size:144px;font-style:normal;font-variant:normal;font-weight:normal;font-stretch:normal;text-align:center;line-height:125%;letter-spacing:0px;word-spacing:0px;writing-mode:lr-tb;text-anchor:middle;fill:none;stroke:#000000;stroke-opacity:1;font-family:Arial Black;-inkscape-font-specification:'Arial Black,'"
       d="m 221.97941,266.31141 30.88953,-28.3191 54.30406,35.30213 -30.51498,-57.11163 30.78587,-28.22406 69.65736,75.97995 -19.17638,17.58064 -53.12205,-57.94378 38.24739,71.58066 -17.3624,15.91761 -67.94488,-44.35442 53.12206,57.94378 -19.22822,17.62816 -69.65736,-75.97994" />
    <path
       inkscape:connector-curvature="0"
       id="path3828"
       style="font-size:144px;font-style:normal;font-variant:normal;font-weight:normal;font-stretch:normal;text-align:center;line-height:125%;letter-spacing:0px;word-spacing:0px;writing-mode:lr-tb;text-anchor:middle;fill:none;stroke:#000000;stroke-opacity:1;font-family:Arial Black;-inkscape-font-specification:'Arial Black,'"
       d="m 391.57001,197.8844 -25.26179,10.87478 c -1.44115,-4.674 -1.98921,-8.66679 -1.64418,-11.97836 0.36301,-3.37528 1.6453,-6.83662 3.84689,-10.38406 1.57772,-2.55199 4.17442,-5.29979 7.7901,-8.24338 3.6157,-2.94344 7.75342,-5.72308 12.41319,-8.33894 7.48014,-4.1989 13.7297,-7.14267 18.74871,-8.83132 4.99602,-1.72933 9.75215,-2.11458 14.26838,-1.15575 3.15801,0.64632 6.30239,2.32157 9.43315,5.02575 3.10772,2.66349 5.52206,5.52801 7.24301,8.59356 l 16.14204,28.75566 c 1.72083,3.06569 3.25854,5.37406 4.61314,6.92514 1.37238,1.48735 3.46981,3.21275 6.29228,5.17621 l -23.42146,13.14768 c -1.88094,-1.14811 -3.20537,-2.07105 -3.9733,-2.76885 -0.79097,-0.7386 -1.85724,-1.96774 -3.1988,-3.68741 -1.50327,4.98305 -3.49084,9.05533 -5.96274,12.21686 -3.40496,4.27662 -8.02999,8.05551 -13.8751,11.33668 -7.7663,4.35962 -14.68234,5.87671 -20.74816,4.55128 -6.02495,-1.34836 -10.5174,-4.65898 -13.47735,-9.93189 -2.77638,-4.94587 -3.60837,-9.8275 -2.49598,-14.64491 1.11241,-4.81734 5.13622,-10.19393 12.07144,-16.12979 8.30491,-7.13468 13.64062,-11.85006 16.00713,-14.14616 2.34352,-2.33685 4.72437,-4.99035 7.14255,-7.96052 -1.72093,-3.06556 -3.55912,-4.85585 -5.51459,-5.37087 -1.95551,-0.51487 -4.52738,0.12252 -7.71562,1.91218 -4.08753,2.2946 -6.78604,4.6695 -8.09553,7.1247 -1.02051,1.91682 -1.22964,4.56072 -0.62741,7.93173 m 29.00884,0.97137 c -2.74519,3.15372 -5.71371,6.24462 -8.90557,9.27272 -4.31135,4.19415 -6.77432,7.3238 -7.38893,9.38896 -0.63258,2.12906 -0.467,4.05194 0.49672,5.76866 1.10135,1.96204 2.68213,3.19801 4.74234,3.70791 2.07809,0.44615 4.44559,-0.0765 7.1025,-1.568 2.77948,-1.56025 4.97601,-3.68024 6.58961,-6.35999 1.6544,-2.70261 2.4329,-5.28984 2.33551,-7.76171 -0.0795,-2.53559 -0.99121,-5.35666 -2.73501,-8.46322 l -2.23717,-3.98533 m -63.50731,-40.30665 15.94131,-8.94868 8.6045,15.32818 -15.94131,8.94868 -8.6045,-15.32818 m 25.99659,-14.59323 16.12525,-9.05194 8.6045,15.32818 -16.12525,9.05194 -8.6045,-15.32818" />
    <path
       inkscape:connector-curvature="0"
       id="path3830"
       style="font-size:144px;font-style:normal;font-variant:normal;font-weight:normal;font-stretch:normal;text-align:center;line-height:125%;letter-spacing:0px;word-spacing:0px;writing-mode:lr-tb;text-anchor:middle;fill:none;stroke:#000000;stroke-opacity:1;font-family:Arial Black;-inkscape-font-specification:'Arial Black,'"
       d="m 454.93458,138.07423 25.30466,-8.35544 3.81397,11.55067 c 2.22552,-5.96739 4.94384,-10.59196 8.15496,-13.87372 3.19637,-3.3261 7.57652,-5.90777 13.14046,-7.74503 7.52237,-2.48376 14.14006,-2.17599 19.85312,0.92331 5.74275,3.04027 10.15738,9.23404 13.24389,18.58132 l 14.88106,45.06767 -27.30766,9.01682 -12.87488,-38.99188 c -1.46978,-4.45106 -3.3294,-7.3172 -5.57887,-8.59843 -2.26424,-1.3256 -4.88747,-1.49608 -7.86969,-0.51142 -3.29386,1.08767 -5.55301,3.21582 -6.77745,6.38447 -1.22449,3.16876 -0.77117,7.98018 1.35997,14.43426 l 11.24347,34.05113 -27.17413,8.97273 -23.41288,-70.90646" />
    <path
       inkscape:connector-curvature="0"
       id="path3832"
       style="font-size:144px;font-style:normal;font-variant:normal;font-weight:normal;font-stretch:normal;text-align:center;line-height:125%;letter-spacing:0px;word-spacing:0px;writing-mode:lr-tb;text-anchor:middle;fill:none;stroke:#000000;stroke-opacity:1;font-family:Arial Black;-inkscape-font-specification:'Arial Black,'"
       d="m 560.94146,106.31859 26.43627,-3.35599 1.5319,12.06722 c 3.32687,-5.4309 6.88033,-9.44946 10.66038,-12.0557 3.77406,-2.65258 8.56747,-4.347867 14.38024,-5.085855 7.85875,-0.997564 14.29509,0.571548 19.30906,4.707335 5.05442,4.08355 8.2015,11.00796 9.44127,20.77327 l 5.97703,47.08307 -28.52885,3.62164 -5.17125,-40.73557 c -0.59037,-4.65013 -1.86683,-7.81929 -3.82938,-9.5075 -1.96855,-1.7346 -4.51061,-2.40417 -7.62619,-2.00871 -3.44117,0.4369 -6.06598,2.09314 -7.87445,4.96874 -1.80853,2.8757 -2.2848,7.6849 -1.42879,14.42761 l 4.51598,35.57388 -28.38935,3.60393 -9.40387,-74.07737" />
    <path
       inkscape:connector-curvature="0"
       id="path3834"
       style="font-size:144px;font-style:normal;font-variant:normal;font-weight:normal;font-stretch:normal;text-align:center;line-height:125%;letter-spacing:0px;word-spacing:0px;writing-mode:lr-tb;text-anchor:middle;fill:none;stroke:#000000;stroke-opacity:1;font-family:Arial Black;-inkscape-font-specification:'Arial Black,'"
       d="m 750.76434,145.0404 -57.25871,-3.65115 c 0.22221,4.61728 1.24412,8.11126 3.06574,10.48197 2.55415,3.40383 6.05329,5.24742 10.49744,5.53079 2.80675,0.17899 5.51795,-0.35268 8.13361,-1.59501 1.60036,-0.79037 3.36097,-2.2516 5.28186,-4.38371 l 27.97261,4.39054 c -4.78112,7.21037 -10.31673,12.25896 -16.60686,15.14577 -6.28729,2.84003 -15.11466,3.89762 -26.48214,3.17277 -9.87062,-0.62941 -17.54809,-2.50459 -23.03245,-5.62555 -5.48142,-3.16773 -9.90091,-7.88822 -13.25849,-14.16149 -3.30785,-6.31703 -4.70075,-13.56879 -4.17873,-21.75532 0.74275,-11.64817 5.06282,-20.83719 12.96023,-27.56707 7.94414,-6.726775 18.48881,-9.671089 31.63402,-8.832952 10.66578,0.680187 18.98326,2.831027 24.95246,6.452522 5.96906,3.62164 10.37214,8.59942 13.20928,14.93336 2.83696,6.33405 3.94228,14.41295 3.31595,24.23671 l -0.20582,3.22782 m -28.17786,-15.53557 c -0.20944,-5.55579 -1.45434,-9.60415 -3.7347,-12.14509 -2.23371,-2.53786 -5.31529,-3.9321 -9.24476,-4.18272 -4.5377,-0.28929 -8.27799,1.28056 -11.22087,4.70955 -1.87409,2.13512 -3.1867,5.40979 -3.93784,9.82401 l 28.13817,1.79425" />
    <path
       inkscape:connector-curvature="0"
       id="path3836"
       style="font-size:144px;font-style:normal;font-variant:normal;font-weight:normal;font-stretch:normal;text-align:center;line-height:125%;letter-spacing:0px;word-spacing:0px;writing-mode:lr-tb;text-anchor:middle;fill:none;stroke:#000000;stroke-opacity:1;font-family:Arial Black;-inkscape-font-specification:'Arial Black,'"
       d="m 779.04201,105.89022 26.09826,6.04442 -2.76044,11.91888 c 3.70672,-4.57852 7.10653,-7.52008 10.19944,-8.8247 3.14903,-1.33957 6.68722,-1.55461 10.61458,-0.6451 4.10989,0.95194 8.31187,3.27237 12.60596,6.96129 l -13.23166,17.86587 c -2.97074,-2.13144 -5.41507,-3.41929 -7.33298,-3.86354 -3.65336,-0.84607 -6.83369,0.005 -9.54099,2.55375 -3.86063,3.58068 -7.1394,11.19344 -9.83634,22.8383 l -5.6478,24.38577 -28.01624,-6.48862 16.84821,-72.74632" />
    <path
       inkscape:connector-curvature="0"
       id="path3838"
       style="font-size:144px;font-style:normal;font-variant:normal;font-weight:normal;font-stretch:normal;text-align:center;line-height:125%;letter-spacing:0px;word-spacing:0px;writing-mode:lr-tb;text-anchor:middle;fill:none;stroke:#000000;stroke-opacity:1;font-family:Arial Black;-inkscape-font-specification:'Arial Black,'"
       d="m 867.81016,99.150491 27.07387,11.071029 -20.11946,49.20157 29.15255,-14.8183 32.60579,13.33314 -34.69608,14.07072 7.86481,55.63125 -29.87237,-12.21539 -2.65535,-33.4465 -13.94942,5.69042 -7.3452,17.96247 -27.07388,-11.07103 39.01474,-95.409379" />
    <path
       inkscape:connector-curvature="0"
       id="path3840"
       style="font-size:144px;font-style:normal;font-variant:normal;font-weight:normal;font-stretch:normal;text-align:center;line-height:125%;letter-spacing:0px;word-spacing:0px;writing-mode:lr-tb;text-anchor:middle;fill:none;stroke:#000000;stroke-opacity:1;font-family:Arial Black;-inkscape-font-specification:'Arial Black,'"
       d="m 930.25219,197.47983 c 6.2011,-9.55466 14.52912,-15.32605 24.98409,-17.31417 10.48039,-2.02735 21.20571,0.51885 32.176,7.63862 12.54291,8.1406 19.65842,17.92776 21.34662,29.3615 1.3485,9.20164 -0.7588,18.08831 -6.3219,26.66003 -6.25222,9.63331 -14.5861,15.45678 -25.00163,17.47041 -10.35083,1.99976 -21.1686,-0.66232 -32.45332,-7.98625 -10.06589,-6.5329 -16.54634,-14.37112 -19.44136,-23.51468 -3.51948,-11.28117 -1.94899,-22.05298 4.7115,-32.31546 m 24.10198,15.55868 c -3.62375,5.58341 -5.18264,10.43928 -4.67666,14.5676 0.54521,4.15385 2.52824,7.34084 5.94911,9.56101 3.46008,2.24566 7.14599,2.76582 11.05773,1.56048 3.95094,-1.17985 7.81484,-4.67943 11.59173,-10.49875 3.52155,-5.42612 5.01664,-10.18369 4.48527,-14.2727 -0.50601,-4.12832 -2.4104,-7.26428 -5.71319,-9.4079 -3.49953,-2.27117 -7.26993,-2.79029 -11.31123,-1.55735 -4.0159,1.19366 -7.81015,4.54286 -11.38276,10.04761" />
    <path
       inkscape:connector-curvature="0"
       id="path3842"
       style="font-size:144px;font-style:normal;font-variant:normal;font-weight:normal;font-stretch:normal;text-align:center;line-height:125%;letter-spacing:0px;word-spacing:0px;writing-mode:lr-tb;text-anchor:middle;fill:none;stroke:#000000;stroke-opacity:1;font-family:Arial Black;-inkscape-font-specification:'Arial Black,'"
       d="m 1044.6717,230.60091 19.1933,18.48665 -8.4385,8.76106 c 6.3166,-0.81462 11.6752,-0.56703 16.0758,0.74279 4.433,1.27608 8.7596,3.94651 12.9799,8.01128 5.7056,5.4956 8.5199,11.49296 8.443,17.99209 -0.011,6.49787 -3.4307,13.29174 -10.2594,20.38164 l -32.9248,34.18333 -20.7126,-19.94998 28.4861,-29.5749 c 3.2517,-3.37614 4.9197,-6.3579 5.0038,-8.94529 0.1166,-2.62115 -0.9561,-5.02109 -3.2181,-7.19981 -2.4984,-2.40635 -5.4346,-3.41213 -8.8086,-3.01735 -3.3741,0.3948 -7.4187,3.03989 -12.1337,7.93528 l -24.8765,25.8274 -20.61132,-19.85242 51.80162,-53.78177" />
    <path
       inkscape:connector-curvature="0"
       id="path3844"
       style="font-size:144px;font-style:normal;font-variant:normal;font-weight:normal;font-stretch:normal;text-align:center;line-height:125%;letter-spacing:0px;word-spacing:0px;writing-mode:lr-tb;text-anchor:middle;fill:none;stroke:#000000;stroke-opacity:1;font-family:Arial Black;-inkscape-font-specification:'Arial Black,'"
       d="m 1163.3825,318.5506 -22.6898,17.09066 9.476,12.58045 -16.6803,12.56418 -9.476,-12.58045 -21.1734,15.94847 c -2.546,1.91774 -4.0476,3.43022 -4.5047,4.53744 -0.709,1.70769 -0.3584,3.49759 1.0518,5.36971 1.269,1.68485 3.5325,3.67705 6.7905,5.97661 l -14.5127,13.5722 c -5.4941,-4.72308 -10.0885,-9.53703 -13.7829,-14.44187 -4.2868,-5.69118 -6.7154,-10.43461 -7.2857,-14.23029 -0.5704,-3.79572 0.1299,-7.4628 2.1007,-11.00124 2.0364,-3.52922 6.387,-7.80384 13.0517,-12.82387 l 21.0048,-15.82155 -6.3455,-8.42441 16.6803,-12.56417 6.3455,8.4244 10.9518,-8.2492 28.9979,14.07293" />
    <path
       inkscape:connector-curvature="0"
       id="path3846"
       style="font-size:144px;font-style:normal;font-variant:normal;font-weight:normal;font-stretch:normal;text-align:center;line-height:125%;letter-spacing:0px;word-spacing:0px;writing-mode:lr-tb;text-anchor:middle;fill:none;stroke:#000000;stroke-opacity:1;font-family:Arial Black;-inkscape-font-specification:'Arial Black,'"
       d="m 1164.1821,463.33381 -26.812,-50.72478 c -3.8204,2.60256 -6.2652,5.29985 -7.3343,8.09188 -1.5671,3.9565 -1.3102,7.90325 0.7709,11.84026 1.3143,2.48647 3.1845,4.52007 5.6107,6.10081 1.5102,0.95134 3.6761,1.68869 6.4978,2.21207 l 10.876,26.143 c -8.646,-0.30787 -15.8433,-2.38881 -21.5919,-6.2428 -5.7072,-3.87604 -11.2223,-10.84919 -16.5452,-20.9195 -4.6221,-8.74426 -7.0358,-16.2698 -7.2413,-22.57664 -0.164,-6.32879 1.5508,-12.56374 5.1443,-18.70486 3.6569,-6.12159 9.1115,-11.09909 16.3639,-14.93252 10.319,-5.4544 20.4109,-6.57369 30.276,-3.35788 9.8868,3.25729 17.9079,10.7085 24.0634,22.35364 4.9943,9.44872 7.5075,17.66397 7.5396,24.64578 0.032,6.98175 -1.9108,13.33717 -5.8281,19.06629 -3.9175,5.72903 -10.2276,10.89361 -18.9303,15.49379 l -2.8595,1.51146 m -1.4814,-32.14266 c 4.6272,-3.08216 7.428,-6.25929 8.4026,-9.53141 0.9963,-3.23072 0.5744,-6.58663 -1.2655,-10.06772 -2.1249,-4.01987 -5.4181,-6.38825 -9.8796,-7.10516 -2.7997,-0.4819 -6.2776,0.11044 -10.4335,1.77704 l 13.176,24.92725" />
    <path
       inkscape:connector-curvature="0"
       id="path3848"
       style="font-size:144px;font-style:normal;font-variant:normal;font-weight:normal;font-stretch:normal;text-align:center;line-height:125%;letter-spacing:0px;word-spacing:0px;writing-mode:lr-tb;text-anchor:middle;fill:none;stroke:#000000;stroke-opacity:1;font-family:Arial Black;-inkscape-font-specification:'Arial Black,'"
       d="m 1160.1885,479.22773 10.9919,26.32928 c -2.8743,2.12179 -4.6919,4.40563 -5.4525,6.85155 -0.7608,2.44585 -0.6188,5.34721 0.4259,8.70408 1.1421,3.67009 2.8098,6.26846 5.0032,7.7951 1.6511,1.20433 3.3495,1.53491 5.0951,0.99174 1.9693,-0.6129 3.1707,-2.11591 3.6042,-4.509 0.3012,-1.71384 0.022,-5.92264 -0.8365,-12.62643 -1.2969,-10.00402 -1.8296,-17.07936 -1.5981,-21.22603 0.29,-4.11586 1.7165,-7.97171 4.2795,-11.56755 2.5768,-3.55107 6.0135,-5.99519 10.3103,-7.33234 4.6995,-1.4625 9.1749,-1.35793 13.4262,0.31371 4.2512,1.67166 7.95,4.64434 11.0965,8.91806 3.1911,4.25979 6.0402,10.41788 8.5475,18.47429 2.6463,8.50395 3.9473,14.972 3.903,19.40416 -0.031,4.47685 -0.993,8.48285 -2.8874,12.018 -1.8807,3.57982 -4.8698,6.9892 -8.9674,10.22814 l -10.6159,-25.12082 c 2.0737,-1.38176 3.4039,-3.02302 3.9906,-4.9238 0.7636,-2.59412 0.6719,-5.41293 -0.2752,-8.45643 -0.9611,-3.08831 -2.224,-5.17446 -3.7886,-6.25848 -1.506,-1.05322 -3.0423,-1.33607 -4.6087,-0.84855 -1.7456,0.5432 -2.7874,1.84925 -3.1254,3.91815 -0.338,2.06886 0.068,6.2135 1.2185,12.43392 1.798,9.40615 2.469,16.61029 2.0129,21.61243 -0.4562,5.00203 -2.0229,9.19607 -4.7001,12.58211 -2.6635,3.43067 -6.0316,5.77979 -10.1045,7.04736 -4.1178,1.28137 -8.5136,1.27476 -13.1875,-0.0198 -4.66,-1.24996 -8.9895,-4.19822 -12.9883,-8.8448 -3.9401,-4.61587 -7.3449,-11.53382 -10.2142,-20.75388 -4.0532,-13.02454 -5.0859,-22.88981 -3.0982,-29.59583 2.0017,-6.66129 6.1827,-11.84073 12.5432,-15.53833" />
    <path
       inkscape:connector-curvature="0"
       id="path3850"
       style="font-size:144px;font-style:normal;font-variant:normal;font-weight:normal;font-stretch:normal;text-align:center;line-height:125%;letter-spacing:0px;word-spacing:0px;writing-mode:lr-tb;text-anchor:middle;fill:none;stroke:#000000;stroke-opacity:1;font-family:Arial Black;-inkscape-font-specification:'Arial Black,'"
       d="m 1273.0299,593.69274 -28.0895,4.22993 2.3453,15.5744 -20.65,3.10963 -2.3453,-15.57441 -26.2123,3.94724 c -3.152,0.4746 -5.1925,1.09 -6.1215,1.84618 -1.4364,1.16433 -1.98,2.90532 -1.631,5.22298 0.3141,2.08581 1.3564,4.91527 3.127,8.48838 l -19.2235,5.02796 c -2.5836,-6.76892 -4.3326,-13.18943 -5.247,-19.26155 -1.061,-7.04559 -0.9389,-12.37317 0.3663,-15.98273 1.3052,-3.60962 3.6665,-6.50129 7.0841,-8.67504 3.4708,-2.1344 9.3316,-3.82282 17.5824,-5.06526 l 26.0037,-3.91582 -1.5705,-10.42929 20.6499,-3.10962 1.5706,10.42928 13.558,-2.04167 18.8033,26.17941" />
    <path
       inkscape:connector-curvature="0"
       id="path3853"
       style="font-size:144px;font-style:normal;font-variant:normal;font-weight:normal;font-stretch:normal;text-align:center;line-height:125%;letter-spacing:0px;word-spacing:0px;writing-mode:lr-tb;text-anchor:middle;fill:none;stroke:#000000;stroke-opacity:1;font-family:Arial Black;-inkscape-font-specification:'Arial Black,'"
       d="m 1168.0118,767.05668 8.894,-85.46032 c 8.3369,1.85733 15.9547,5.64276 22.8535,11.35632 6.9405,5.76501 14.7585,16.00427 23.4541,30.71782 5.3323,8.99083 9.4857,14.81925 12.4601,17.48527 2.9744,2.66589 5.9069,4.14929 8.7976,4.45019 3.1237,0.32503 5.9025,-0.56398 8.3364,-2.66702 2.4756,-2.0517 3.8954,-4.82588 4.2594,-8.32256 0.3784,-3.63666 -0.4533,-6.73942 -2.4952,-9.30829 -2.0468,-2.52233 -5.9196,-4.48061 -11.6183,-5.87483 l 5.2773,-28.29321 c 7.9027,1.95351 13.9367,4.65512 18.1021,8.10483 4.2118,3.45452 7.2252,8.00966 9.0402,13.66544 1.8567,5.70719 2.2852,13.36298 1.2858,22.96741 -1.0433,10.02392 -2.9959,17.6911 -5.8578,23.00158 -2.8668,5.35694 -6.843,9.37318 -11.9284,12.04873 -5.0438,2.72684 -10.503,3.78461 -16.3774,3.17334 -6.2476,-0.65029 -12.0237,-3.11298 -17.3283,-7.38808 -5.3096,-4.22866 -10.8657,-11.52264 -16.6683,-21.88198 -3.3661,-6.14715 -5.7399,-10.28226 -7.1213,-12.40535 -1.3863,-2.07658 -3.2257,-4.55372 -5.5182,-7.43144 l -4.629,44.47852 -23.2183,-2.41637" />
    <path
       inkscape:connector-curvature="0"
       id="path3855"
       style="font-size:144px;font-style:normal;font-variant:normal;font-weight:normal;font-stretch:normal;text-align:center;line-height:125%;letter-spacing:0px;word-spacing:0px;writing-mode:lr-tb;text-anchor:middle;fill:none;stroke:#000000;stroke-opacity:1;font-family:Arial Black;-inkscape-font-specification:'Arial Black,'"
       d="m 1215.2936,794.58663 c 18.7422,5.7132 30.8322,13.07393 36.2701,22.08223 5.424,9.05305 6.0311,20.48465 1.8215,34.29483 -2.023,6.63595 -4.5131,11.83092 -7.4705,15.5849 -2.9127,3.76748 -6.1018,6.59319 -9.5672,8.47716 -3.4208,1.89744 -6.8207,3.16425 -10.1998,3.80043 -3.3481,0.69447 -7.0937,0.92484 -11.2367,0.6911 -7.9139,-0.4033 -15.8614,-1.82134 -23.8425,-4.25414 -17.8904,-5.45363 -30.0605,-12.47124 -36.5104,-21.05287 -6.4498,-8.58179 -7.4196,-20.27091 -2.9091,-35.06741 2.5286,-8.29508 5.8946,-14.59516 10.0982,-18.90025 4.2036,-4.30515 9.3601,-7.31523 15.4694,-9.03024 4.3562,-1.26932 9.8781,-1.61979 16.5655,-1.0514 6.7185,0.62687 13.889,2.10209 21.5115,4.42566 m -8.3501,27.15137 c -12.5547,-3.82708 -21.476,-5.34597 -26.7641,-4.55667 -5.2568,0.84773 -8.5277,3.379 -9.8125,7.59382 -0.8474,2.77991 -0.6146,5.4726 0.6984,8.0781 1.3441,2.66388 3.9801,5.10904 7.9078,7.3355 3.9141,2.27116 10.3325,4.76673 19.2553,7.48673 13.0927,3.99098 22.2226,5.54895 27.3899,4.67393 5.1983,-0.81668 8.474,-3.44446 9.8272,-7.88335 1.3804,-4.52871 0.069,-8.50579 -3.9341,-11.93124 -3.9585,-3.41191 -12.1478,-7.01084 -24.5679,-10.79682" />
    <path
       inkscape:connector-curvature="0"
       id="path3857"
       style="font-size:144px;font-style:normal;font-variant:normal;font-weight:normal;font-stretch:normal;text-align:center;line-height:125%;letter-spacing:0px;word-spacing:0px;writing-mode:lr-tb;text-anchor:middle;fill:none;stroke:#000000;stroke-opacity:1;font-family:Arial Black;-inkscape-font-specification:'Arial Black,'"
       d="m 1198.4651,977.79993 -92.564,-49.21882 13.6004,-25.57769 60.6539,32.25136 c -0.9448,-5.81138 -1.3555,-11.17944 -1.232,-16.10417 0.1014,-4.88345 0.8138,-10.71614 2.1371,-17.49809 l 20.7353,11.02554 c -1.8045,10.08309 -2.0269,18.53879 -0.6672,25.36713 1.3596,6.82819 4.1799,13.10591 8.461,18.83318 l -11.1245,20.92156" />
    <path
       inkscape:connector-curvature="0"
       id="path3859"
       style="font-size:144px;font-style:normal;font-variant:normal;font-weight:normal;font-stretch:normal;text-align:center;line-height:125%;letter-spacing:0px;word-spacing:0px;writing-mode:lr-tb;text-anchor:middle;fill:none;stroke:#000000;stroke-opacity:1;font-family:Arial Black;-inkscape-font-specification:'Arial Black,'"
       d="m 1130.7767,1072.2124 -81.5029,-65.9383 18.2204,-22.52128 53.406,43.20708 c 0.1786,-5.885 0.7972,-11.2331 1.8559,-16.0443 1.0291,-4.7748 2.8387,-10.3653 5.4288,-16.77133 l 18.2575,14.77093 c -3.6909,9.5552 -5.5188,17.814 -5.4837,24.7763 0.035,6.9621 1.6088,13.6619 4.7215,20.0994 l -14.9035,18.4215" />
    <path
       style="font-size:144px;font-style:normal;font-variant:normal;font-weight:normal;font-stretch:normal;text-align:center;line-height:125%;letter-spacing:0px;word-spacing:0px;writing-mode:lr-tb;text-anchor:middle;fill:none;stroke:#000000;stroke-opacity:1;font-family:Arial Black;-inkscape-font-specification:'Arial Black,'"
       d="M 861.25 83.4375 L 860.5 85.3125 C 855.99539 96.365811 851.47501 107.41603 846.96875 118.46875 C 845.60851 113.03151 841.262 108.26303 835.875 106.40625 C 828.36911 101.87087 819.17402 102.03052 810.8125 101.96875 C 801.52834 96.509107 789.98947 97.958627 780.3125 93.5 C 778.80575 93.14998 777.26214 93.055501 775.71875 93.15625 C 767.49438 94.094039 767.04643 103.80647 765.90625 110.125 C 764.70008 115.10011 763.51908 120.1009 762.34375 125.09375 C 759.20635 109.27092 749.48077 94.651442 734 89.0625 C 724.65411 85.258061 714.50307 84.142923 704.4375 84.09375 C 702.99956 84.08675 701.55653 84.092838 700.125 84.125 C 678.79165 84.50083 660.21327 100.77014 654.25 120.71875 C 652.76951 113.82408 650.71037 107.07718 647.5625 100.625 C 640.92673 90.980714 629.31485 85.065947 617.5625 85.4375 C 608.73112 85.36712 600.44171 88.747743 592.78125 92.84375 C 581.44642 87.47155 569.61123 95.62029 557.84375 94.375 C 552.49041 93.745575 546.35574 98.259195 548.71875 104.1875 C 549.83101 113.62299 551.01547 123.03173 552.21875 132.4375 C 552.08639 132.44278 551.86288 132.43389 551.6875 132.4375 C 551.64587 132.21143 551.08302 132.29198 550.90625 132.46875 C 550.84132 132.46875 550.84538 132.47971 550.90625 132.5 C 550.774 132.69376 551.08199 133.07426 550.90625 133.25 C 550.53893 133.61731 549.71107 132.88268 549.34375 133.25 C 549.16009 133.43366 549.52741 133.84759 549.34375 134.03125 C 549.30953 134.06547 549.26306 134.07906 549.21875 134.09375 C 546.3515 127.49643 542.88604 121.19416 538.3125 115.4375 C 532.20442 109.6824 523.99066 106.0134 515.53125 105.9375 C 514.96729 105.9325 514.40941 105.94155 513.84375 105.96875 C 502.58472 106.02915 491.92593 111.66684 483.75 118.59375 C 473.51211 115.79795 464.56644 123.5124 454.96875 125.5625 C 450.04105 127.40182 443.51769 127.33601 440.375 132.21875 C 443.90081 142.96115 447.4335 153.69955 450.96875 164.4375 C 450.77138 164.42661 450.54923 164.31913 450.375 164.40625 C 449.54446 164.82151 449.09184 165.98233 448.34375 166.5625 C 443.47259 159.39698 437.51582 153.25003 429.125 149.625 C 425.57953 146.96519 418.85858 149.6647 418 144.03125 C 413.67938 135.33981 408.30391 127.18848 403.6875 118.625 L 401.9375 119.625 C 381.57347 131.08399 361.0058 142.35285 340.75 154.0625 C 346.0728 163.6703 351.70622 173.21965 356.8125 182.875 C 353.106 189.74037 351.31836 198.63931 353 206.5 C 352.99607 206.5014 352.97172 206.49851 352.96875 206.5 C 352.64021 206.66427 352.51603 207.11698 352.1875 207.28125 C 351.95518 207.3974 351.63856 207.16509 351.40625 207.28125 C 350.47121 207.74877 350.02879 209.12623 349.09375 209.59375 C 348.86144 209.70991 348.54481 209.4776 348.3125 209.59375 C 347.65542 209.92229 347.36125 210.74875 346.75 211.15625 C 346.43497 211.36627 346.09065 211.54389 345.75 211.71875 C 345.64671 211.65849 345.54042 211.65511 345.40625 211.6875 C 345.4015 211.68231 345.37975 211.69269 345.375 211.6875 C 332.97869 198.15668 320.5852 184.62329 308.1875 171.09375 L 307.4375 171.78125 L 306.71875 172.4375 C 291.68742 186.14065 276.7261 200.01759 261.65625 213.5625 C 266.02718 221.63676 270.37621 229.72292 274.71875 237.8125 C 267.00476 232.80517 259.28795 227.80213 251.5625 222.8125 C 236.19656 237.17962 220.62022 251.35119 205.09375 265.5625 C 233.68436 296.76329 262.28439 327.95546 290.875 359.15625 C 303.19267 347.90153 315.47331 336.60598 327.8125 325.375 C 327.12006 324.18995 331.50047 323.484 332.21875 321.65625 C 340.22119 313.11934 349.57826 305.85136 358.09375 297.75 C 356.19947 295.53073 361.38828 296.20487 362.3125 294.09375 C 372.26418 283.83257 383.54874 274.64534 393.96875 264.6875 C 392.71852 263.32313 391.46902 261.95809 390.21875 260.59375 C 392.86867 261.29964 395.63335 261.65803 398.46875 261.5625 C 415.01073 261.5955 429.83703 251.12664 439.8125 238.84375 C 450.64429 240.43948 458.38682 230.21839 467.875 226.71875 C 470.25227 225.3881 472.62295 224.0482 475 222.71875 C 489.9814 217.8063 504.96648 212.91288 519.90625 207.875 C 518.77095 204.43817 519.00593 203.52458 522.03125 205.15625 C 531.12186 206.76167 539.07833 200.39897 547.8125 198.71875 C 553.08308 196.96414 558.35861 195.20606 563.625 193.4375 C 579.5382 191.09728 595.57365 189.45251 611.5 187.25 C 611.87328 185.45214 610.45731 180.64647 612.9375 183.625 C 621.59005 189.24192 632.11129 183.2879 641.5 183.4375 C 648.59195 182.56633 655.65793 181.57203 662.78125 180.75 C 661.16168 174.42755 660.15845 167.95166 659.375 161.40625 C 667.0755 174.51777 680.59312 184.20094 696.09375 185.1875 C 715.23555 188.95828 737.80197 185.66812 751.59375 171.3125 C 750.32219 176.7546 749.05376 182.19702 747.75 187.625 C 764.61227 191.40713 781.44701 195.31038 798.25 199.34375 C 806.01462 182.9194 803.75491 163.32536 813.71875 147.84375 C 819.1008 150.73979 826.88261 152.66969 831.28125 147.0625 C 834.3727 143.93564 837.01075 140.33976 839.5625 136.6875 C 830.78675 158.18346 821.98363 179.66325 813.125 201.125 C 829.07091 207.58884 845.0293 214.02448 860.90625 220.65625 C 863.83393 217.58325 865.829 213.78724 867.28125 209.84375 C 867.76686 214.4441 868.17784 219.05843 868.21875 223.6875 C 885.34195 230.58103 902.44816 237.53047 919.5 244.59375 C 933.83738 267.34516 964.36291 280.62041 990.0625 270 C 990.1054 269.9815 990.1446 269.9561 990.1875 269.9375 C 985.44974 274.8637 980.71553 279.80246 976 284.75 C 988.43217 296.70226 1000.8379 308.68204 1013.2188 320.6875 C 1016.0308 318.20252 1017.4118 316.64487 1016.875 321 C 1018.5992 329.95248 1028.5549 333.43533 1033.5938 340.1875 C 1039.1964 345.63013 1044.8487 351.01383 1050.5 356.40625 C 1052.4406 353.89948 1054.484 351.48916 1056.5938 349.125 L 1056.5938 350.625 L 1056.5938 351.40625 C 1056.5938 351.66598 1056.4099 352.00385 1056.5938 352.1875 C 1056.7773 352.37116 1057.1913 352.00385 1057.375 352.1875 C 1057.5586 352.37116 1057.1913 352.7851 1057.375 352.96875 C 1057.5586 353.15241 1057.9726 352.7851 1058.1562 352.96875 C 1058.34 353.15241 1057.9726 353.56634 1058.1562 353.75 C 1058.4162 354.00981 1059.4589 353.49019 1059.7188 353.75 C 1059.9023 353.93366 1059.5349 354.34759 1059.7188 354.53125 C 1059.2225 356.15218 1058.8485 357.83063 1058.625 359.59375 C 1057.394 377.39668 1071.2771 391.14122 1083.1875 402.1875 C 1086.0384 406.76512 1093.7369 410.1849 1097.4688 404.71875 C 1097.7427 404.46209 1098.0074 404.19415 1098.2812 403.9375 C 1096.645 409.54044 1096.0759 415.49657 1096.875 421.5625 C 1101.0173 444.62088 1114.7075 468.48247 1137.75 476.5 C 1139.5384 477.04382 1141.3383 477.48212 1143.1562 477.84375 C 1134.1447 489.18885 1132.6455 505.95818 1136.9375 519.6875 C 1140.9694 538.36388 1150.5948 558.9708 1169.9375 565.4375 C 1173.4755 566.59015 1177.1786 567.0904 1180.875 567 C 1173.2398 569.30454 1166.304 573.07195 1161.4688 579.78125 C 1151.586 594.84609 1157.6336 613.8853 1162.7812 629.5625 C 1163.0462 635.39271 1168.5907 641.3076 1174.625 638.375 C 1184.9173 634.47676 1195.9829 632.62798 1206.5625 629.46875 C 1207.9531 624.93649 1206.7958 620.10993 1204.6875 616 C 1207.3983 616.24538 1212.6203 613.24616 1213.8125 615.875 C 1215.2643 624.29923 1224.0249 631.0355 1232.5312 627.8125 C 1240.7772 626.52847 1249.0321 625.26189 1257.3125 624.21875 C 1260.3828 619.35432 1259.9692 613.28817 1258.6562 607.9375 C 1270.5703 606.16587 1282.4769 604.34744 1294.4062 602.6875 C 1281.9284 587.46645 1272.7012 569.26473 1258.5625 555.5625 C 1256.144 554.07891 1252.3383 556.5895 1250.7188 555.125 C 1249.2628 550.32343 1244.9585 546.26446 1239.6875 546.6875 C 1235.9272 547.42229 1232.1318 548.05943 1228.3438 548.65625 C 1240.0407 536.98871 1244.6075 518.32654 1238.2188 502.6875 C 1234.285 484.5437 1223.7772 464.24119 1204.0938 460.125 C 1201.7361 459.66365 1199.3391 459.53756 1196.9375 459.65625 C 1194.3565 459.57755 1191.8348 459.94189 1189.4062 460.65625 C 1199.4909 450.38056 1205.8302 436.47012 1203.2188 421.8125 C 1199.7508 394.17964 1177.8363 365.51666 1147.75 366.5 C 1147.063 366.508 1146.3724 366.5242 1145.6875 366.5625 C 1151.8893 361.93766 1158.0457 357.24421 1164.2812 352.65625 C 1164.3946 346.98369 1161.1726 341.96538 1157.5 337.9375 C 1167.1155 330.77822 1176.7197 323.6299 1186.2188 316.3125 C 1169.0686 307.89146 1151.8942 299.52075 1134.6562 291.28125 L 1133.9062 291.53125 C 1130.8621 291.8585 1128.0697 294.04001 1125.7812 295.53125 C 1120.336 289.9263 1110.8888 291.38532 1106.3438 297.34375 C 1103.7914 299.29135 1101.2473 301.24979 1098.6875 303.1875 C 1100.2818 300.73293 1101.7752 298.18313 1103.125 295.53125 C 1110.2097 275.33856 1095.0557 252.46378 1075.5312 247.5 C 1073.6447 237.01956 1062.1767 232.71418 1056 225.09375 C 1051.7844 222.27459 1049.5557 215.50337 1043.9062 215.15625 C 1038.2372 217.79157 1034.9599 224.52951 1030.0625 228.5 C 1025.6614 233.10551 1021.2617 237.69184 1016.8438 242.28125 C 1022.4715 229.13757 1022.9937 213.93592 1015.9688 201.03125 C 1004.9438 180.3181 981.62087 166.54455 958.09375 167.625 C 955.73306 167.74282 953.41602 168.06759 951.15625 168.5625 C 951.27511 168.44449 951.38327 168.35846 951.40625 168.3125 C 951.52241 168.08019 951.22259 167.71491 951.40625 167.53125 C 951.58991 167.34759 952.00384 167.71491 952.1875 167.53125 C 952.37116 167.34759 952.1875 167.00974 952.1875 166.75 C 952.1875 166.48055 952.21803 165.33208 952.21875 164.5 C 957.68629 162.29908 963.15453 160.09987 968.625 157.90625 C 946.63312 149.62194 925.21795 139.73916 903.0625 131.8125 C 900.68718 132.06004 896.23648 135.91328 899.21875 131.125 C 902.95477 121.96724 906.70506 112.81546 910.4375 103.65625 C 894.01297 96.986052 877.59095 90.301391 861.25 83.4375 z M 552.25 132.625 C 552.26721 132.75953 552.26403 132.89673 552.28125 133.03125 C 552.1763 132.86242 552.18492 132.72111 552.25 132.625 z "
       id="path3553" />
    <path
       style="font-size:144px;font-style:normal;font-variant:normal;font-weight:normal;font-stretch:normal;text-align:center;line-height:125%;letter-spacing:0px;word-spacing:0px;writing-mode:lr-tb;text-anchor:middle;fill:none;stroke:#000000;stroke-opacity:1;font-family:Arial Black;-inkscape-font-specification:'Arial Black,'"
       d="m 193.59375,357 c -0.42719,-3.5e-4 -0.85459,0.003 -1.28125,0.0312 -17.30688,0.5802 -31.17181,15.63009 -34.46875,31.90625 C 149.5632,384.37372 141.27705,379.82011 133,375.25 c -8.55822,15.31519 -16.90109,30.74918 -25.40625,46.09375 17.38041,9.582 34.76907,19.14903 52.15625,28.71875 -0.58334,0.004 -1.16564,-0.006 -1.75,0 -23.13013,-0.3175 -41.56465,19.80038 -46.5625,41.125 -7.53033,21.12266 -2.00382,48.36827 18.03125,60.40625 1.3034,0.93364 2.66387,1.78835 4.0625,2.59375 -9.71521,-0.64758 -19.24807,0.35152 -27.71875,6 -15.142737,10.19689 -17.13035,30.41844 -19.1875,47.03125 -2.109336,17.49638 2.949778,38.43362 20,46.5625 1.40321,0.75266 2.84276,1.44075 4.3125,2.03125 -9.24973,0.45349 -18.49987,0.89864 -27.75,1.34375 1.494229,31.05494 3.115762,62.10361 4.65625,93.15625 1.124887,-0.0544 2.250124,-0.10165 3.375,-0.15625 -1.864174,4.55512 -1.488793,9.84673 0.03125,14.46875 -11.784292,2.38744 -23.614773,4.55226 -35.375,7.0625 12.954531,14.66658 23.237289,31.89105 37.4375,45.21875 2.58343,0.96396 5.450921,0.0734 7.9375,-0.375 3.52535,8.21535 14.27808,10.1107 21.625,6.125 1.57499,-0.18358 3.2971,-0.36599 5.03125,-0.59375 -7.71671,7.88801 -12.87812,17.90747 -12.90625,29.375 -0.62204,24.57651 11.74687,51.17876 35.15625,61.09375 7.43848,2.9347 15.44434,3.79495 23.3125,2.9375 -18.22954,9.96254 -36.43377,19.96321 -54.65625,29.9375 8.52318,15.34974 16.85906,30.80254 25.375,46.15625 37.13012,-20.38098 74.33444,-40.62669 111.46875,-61 -8.44987,-15.30939 -16.84799,-30.64722 -25.21875,-46 l -0.875,0.46875 -0.875,0.46875 c -6.00276,3.22978 -12.00584,6.47212 -18,9.71875 4.94303,-6.27681 8.35089,-13.7387 9.375,-22.0625 2.00961,-18.48322 -5.33228,-36.90946 -15.9375,-51.65625 -8.39049,-10.79626 -21.48928,-17.37333 -34.9375,-18.84375 9.19126,-2.95126 17.47743,-7.81776 21.8125,-16.875 6.84563,-14.96481 0.82731,-32.02177 -4.6875,-46.5 -0.0603,-0.11721 -0.12415,-0.2275 -0.1875,-0.34375 -1.43752,-29.69227 -3.11849,-59.36744 -4.5,-89.0625 -0.66667,0.0312 -1.33333,0.0625 -2,0.0937 -0.11482,0.006 -0.22893,0.0257 -0.34375,0.0312 0.22315,-0.34858 0.44721,-0.70066 0.65625,-1.0625 8.87165,-13.10779 8.69509,-30.50583 5.40625,-45.15625 7.38902,-8.4773 4.09657,-20.8125 6.78125,-31 0.97134,-8.38233 1.92167,-16.77152 2.875,-25.15625 l -1.5,0.84375 c 0.75399,-0.77916 1.49052,-1.58412 2.1875,-2.4375 14.72618,-17.2477 22.21604,-42.53954 14.8125,-64.53125 -0.62032,-1.57442 -1.3395,-3.1193 -2.125,-4.65625 3.50835,1.93083 7.02304,3.85016 10.53125,5.78125 8.34325,-15.13103 16.64746,-30.2837 25.0625,-45.375 -0.78496,-1.22678 -6.60241,-3.35825 -2.375,-3.46875 9.75269,-3.16609 10.90909,-14.97352 16.46875,-22.28125 3.62676,-6.50092 7.19657,-13.02434 10.8125,-19.53125 -25.23877,-10.39775 -46.49539,-30.34583 -74,-34.96875 -0.42709,0.005 -0.85406,3.5e-4 -1.28125,0 z"
       id="path3549" />
    <path
       style="font-size:144px;font-style:normal;font-variant:normal;font-weight:normal;font-stretch:normal;text-align:center;line-height:125%;letter-spacing:0px;word-spacing:0px;writing-mode:lr-tb;text-anchor:middle;fill:none;stroke:#000000;stroke-opacity:1;font-family:Arial Black;-inkscape-font-specification:'Arial Black,'"
       d="M 1166.4062 667.8125 L 1166.2812 668.8125 L 1166.1562 669.75 C 1162.1234 705.59404 1158.4847 741.75602 1154.875 777.75 C 1160.9866 778.44846 1167.1003 779.1156 1173.2188 779.75 C 1154.6095 785.41343 1140.7804 803.63764 1138.0625 822.78125 C 1133.2668 842.22786 1141.2491 865.18357 1159.6875 874.28125 C 1180.7291 887.48929 1206.7123 894.3422 1231.4688 890 C 1250.4389 884.99604 1263.3273 867.03795 1266.7812 848.375 C 1271.3899 829.06394 1265.1574 806.2382 1247.1875 796.03125 C 1244.3935 794.14168 1241.4991 792.44118 1238.5312 790.875 C 1238.6377 790.67918 1238.7626 790.44359 1238.9375 790.09375 C 1239.0275 789.91396 1238.9537 787.03533 1238.9375 785.96875 C 1243.8102 786.81493 1248.8725 786.74116 1253.9688 785.46875 C 1272.3447 781.42498 1285.9498 764.19476 1287.4062 745.65625 C 1291.5696 726.42991 1289.9952 702.57125 1273.3438 689.71875 C 1264.9398 683.24252 1253.9452 677.54266 1243.0938 680.125 C 1233.876 685.04789 1236.0408 696.97803 1233.1562 705.40625 C 1232.5387 708.4628 1232.3657 711.59404 1231.7812 714.65625 C 1220.73 695.04453 1204.7271 676.02555 1182.0312 670.40625 C 1176.9325 668.96683 1171.6665 668.28448 1166.4062 667.8125 z M 1237.9688 790.5 C 1238.0352 790.50691 1238.0674 790.55798 1238.0938 790.625 C 1238.0234 790.58836 1237.9454 790.56771 1237.875 790.53125 C 1237.9143 790.51802 1237.9395 790.49696 1237.9688 790.5 z "
       id="path3535" />
    <path
       style="font-size:144px;font-style:normal;font-variant:normal;font-weight:normal;font-stretch:normal;text-align:center;line-height:125%;letter-spacing:0px;word-spacing:0px;writing-mode:lr-tb;text-anchor:middle;fill:none;stroke:#000000;stroke-opacity:1;font-family:Arial Black;-inkscape-font-specification:'Arial Black,'"
       d="m 1172.25,883.46875 c -0.1667,0.88542 -0.3333,1.77083 -0.5,2.65625 -1.7034,9.51127 -3.9151,18.96913 -4.5938,28.59375 -17.4989,-9.38982 -35.1186,-18.41788 -52.5312,-28.03125 -8.42,15.58151 -16.5016,31.23347 -25.0312,46.78125 37.9607,20.27918 75.9069,40.29476 113.8437,60.65625 6.7863,-13.07553 13.7153,-25.90401 20.5937,-38.90625 -13.7726,-11.87322 -13.9349,-32.60492 -8.375,-48.71875 -14.4602,-7.72845 -28.8643,-15.45615 -43.4062,-23.03125 z"
       id="path3525" />
    <path
       style="font-size:144px;font-style:normal;font-variant:normal;font-weight:normal;font-stretch:normal;text-align:center;line-height:125%;letter-spacing:0px;word-spacing:0px;writing-mode:lr-tb;text-anchor:middle;fill:none;stroke:#000000;stroke-opacity:1;font-family:Arial Black;-inkscape-font-specification:'Arial Black,'"
       d="m 211.0625,964.0625 c -0.55962,-0.007 -1.11976,0.0101 -1.6875,0.0312 -24.36376,0.53499 -47.95106,22.44473 -45.40625,47.68745 3.82313,24.3781 24.91142,40.37 37.5,60.2188 4.42624,5.8079 8.84981,11.6335 13.28125,17.4375 33.7034,-25.694 67.4216,-51.3685 101.125,-77.0625 -11.34671,-14.85438 -22.66841,-29.72785 -34,-44.59375 -10.09946,7.70408 -20.20916,15.39475 -30.3125,23.09375 -9.69496,-13.06902 -23.15165,-26.59581 -40.5,-26.8125 z"
       id="path3523" />
    <path
       style="font-size:144px;font-style:normal;font-variant:normal;font-weight:normal;font-stretch:normal;text-align:center;line-height:125%;letter-spacing:0px;word-spacing:0px;writing-mode:lr-tb;text-anchor:middle;fill:none;stroke:#000000;stroke-opacity:1;font-family:Arial Black;-inkscape-font-specification:'Arial Black,'"
       d="m 1065.625,966.875 -0.625,0.78125 -0.625,0.78125 c -10.6404,13.2523 -21.3637,26.43797 -31.9688,39.7187 33.4508,26.9372 66.7996,54.0004 100.25,80.9376 9.2085,-11.5146 18.5148,-22.9506 27.7188,-34.4688 -11.8467,-14.0774 -7.3947,-34.6454 0.8125,-49.2812 -12.6206,-10.09163 -25.1045,-20.35378 -37.7813,-30.37505 -4.2893,9.59184 -8.7101,19.2199 -11.3437,29.40625 -15.4713,-12.50971 -30.9405,-25.02209 -46.4375,-37.5 z"
       id="path3053" />
  </g>
  <g
     inkscape:groupmode="layer"
     id="layer5"
     inkscape:label="Text"
     style="display:inline">
    <path
       style="fill:none;stroke:#000000;stroke-width:1px;stroke-linecap:butt;stroke-linejoin:miter;stroke-opacity:1"
       d="m 615.56757,673.22834 140.25591,0"
       id="path3893"
       inkscape:connector-curvature="0" />
    <path
       style="fill:none;stroke:#000000;stroke-width:1px;stroke-linecap:butt;stroke-linejoin:miter;stroke-opacity:1"
       d="m 673.22833,604.65878 0,140.2559"
       id="path3895"
       inkscape:connector-curvature="0" />
    <path
       inkscape:connector-curvature="0"
       id="path3798"
       style="font-size:105.8868103px;font-style:normal;font-variant:normal;font-weight:normal;font-stretch:normal;text-align:center;line-height:125%;letter-spacing:0px;word-spacing:0px;writing-mode:lr-tb;text-anchor:middle;fill:none;stroke:#000000;stroke-width:0.7353251;stroke-opacity:1;font-family:Arial Black;-inkscape-font-specification:'Arial Black,'"
       d="m 272.16548,1179.9951 21.18174,-1.4686 c 0.45868,3.8075 1.39244,6.7085 2.80131,8.7028 2.29342,3.2273 5.5698,4.841 9.82912,4.841 3.17804,0 5.61893,-0.8159 7.32269,-2.4477 1.73642,-1.668 2.60466,-3.5899 2.60471,-5.7656 -5e-5,-2.0669 -0.81914,-3.9163 -2.45727,-5.5481 -1.63824,-1.6317 -5.43882,-3.1728 -11.40179,-4.6233 -9.7636,-2.4295 -16.72589,-5.6568 -20.88687,-9.6819 -4.19376,-4.025 -6.29064,-9.156 -6.29063,-15.3931 -1e-5,-4.0974 1.06481,-7.9593 3.19446,-11.5856 2.16239,-3.6623 5.38962,-6.527 9.68168,-8.594 4.32479,-2.1031 10.23864,-3.1547 17.74156,-3.1548 9.20655,10e-5 16.21799,1.9038 21.03431,5.7112 4.84896,3.7714 7.73217,9.7907 8.64962,18.0584 l -20.98517,1.3598 c -0.55703,-3.5899 -1.73652,-6.2007 -3.53848,-7.8326 -1.76927,-1.6317 -4.22656,-2.4475 -7.37183,-2.4476 -2.58837,1e-4 -4.53781,0.6166 -5.84832,1.8493 -1.31059,1.1967 -1.96585,2.6653 -1.96583,4.4058 -2e-5,1.2693 0.54057,2.4115 1.62181,3.4268 1.0484,1.0516 3.53845,2.0307 7.47012,2.9371 9.73078,2.3208 16.69307,4.6779 20.88688,7.0711 4.22645,2.357 7.28986,5.2943 9.19022,8.8116 1.93299,3.5174 2.89952,7.4518 2.89959,11.8031 -7e-5,5.113 -1.27786,9.827 -3.83336,14.1422 -2.55563,4.3151 -6.12687,7.5968 -10.71373,9.8449 -4.58697,2.212 -10.36976,3.318 -17.3484,3.318 -12.25365,0 -20.73945,-2.6108 -25.45741,-7.8325 -4.71798,-5.2217 -7.38822,-11.8575 -8.01073,-19.9077" />
    <path
       inkscape:connector-curvature="0"
       id="path3800"
       style="font-size:105.8868103px;font-style:normal;font-variant:normal;font-weight:normal;font-stretch:normal;text-align:center;line-height:125%;letter-spacing:0px;word-spacing:0px;writing-mode:lr-tb;text-anchor:middle;fill:none;stroke:#000000;stroke-width:0.7353251;stroke-opacity:1;font-family:Arial Black;-inkscape-font-specification:'Arial Black,'"
       d="m 386.37982,1183.8026 19.01934,2.3933 c -1.0485,4.3877 -2.76859,8.1951 -5.16029,11.4224 -2.3918,3.191 -5.45521,5.6749 -9.19022,7.4518 -3.70235,1.7768 -8.42032,2.6652 -14.15393,2.6652 -5.53709,0 -10.15678,-0.5621 -13.85906,-1.6862 -3.66955,-1.1603 -6.83124,-3.0097 -9.48509,-5.5479 -2.65387,-2.5747 -4.73436,-5.5844 -6.24149,-9.0293 -1.50713,-3.4447 -2.2607,-8.0138 -2.2607,-13.7069 0,-5.9469 0.91738,-10.8966 2.75216,-14.8491 1.3433,-2.9009 3.17807,-5.4936 5.5043,-7.7782 2.32621,-2.3207 4.71796,-4.043 7.17526,-5.1672 3.89885,-1.7768 8.89532,-2.6653 14.9894,-2.6653 8.51853,0 15.00574,1.6862 19.46166,5.0585 4.48856,3.3724 7.63388,8.304 9.43594,14.7948 l -18.82275,2.774 c -0.5898,-2.4658 -1.671,-4.3151 -3.24361,-5.548 -1.53993,-1.2692 -3.62043,-1.9037 -6.24149,-1.9037 -3.30917,0 -5.99579,1.3235 -8.05988,3.9706 -2.03137,2.6108 -3.04705,6.5815 -3.04703,11.9119 -2e-5,4.7504 1.01566,8.3584 3.04703,10.8241 2.03132,2.4659 4.61966,3.6988 7.765,3.6988 2.62106,0 4.81623,-0.7434 6.58551,-2.2301 1.80197,-1.4868 3.14528,-3.7712 4.02994,-6.8535" />
    <path
       inkscape:connector-curvature="0"
       id="path3802"
       style="font-size:105.8868103px;font-style:normal;font-variant:normal;font-weight:normal;font-stretch:normal;text-align:center;line-height:125%;letter-spacing:0px;word-spacing:0px;writing-mode:lr-tb;text-anchor:middle;fill:none;stroke:#000000;stroke-width:0.7353251;stroke-opacity:1;font-family:Arial Black;-inkscape-font-specification:'Arial Black,'"
       d="m 412.91844,1126.636 20.00225,0 0,29.372 c 2.71936,-3.1185 5.42236,-5.3486 8.10902,-6.6902 2.68659,-1.3417 5.86467,-2.0126 9.53425,-2.0126 5.43872,0 9.71438,1.8313 12.82699,5.4936 3.14526,3.6626 4.71792,9.2831 4.71798,16.8617 l 0,36.715 -20.10055,0 0,-31.7653 c -4e-5,-3.6261 -0.60616,-6.1825 -1.81838,-7.6693 -1.2123,-1.5229 -2.91601,-2.2844 -5.11114,-2.2844 -2.42455,0 -4.39038,1.0153 -5.89747,3.0459 -1.50716,2.0307 -2.26072,5.6751 -2.2607,10.9329 l 0,27.7402 -20.00225,0 0,-79.7395" />
    <path
       inkscape:connector-curvature="0"
       id="path3804"
       style="font-size:105.8868103px;font-style:normal;font-variant:normal;font-weight:normal;font-stretch:normal;text-align:center;line-height:125%;letter-spacing:0px;word-spacing:0px;writing-mode:lr-tb;text-anchor:middle;fill:none;stroke:#000000;stroke-width:0.7353251;stroke-opacity:1;font-family:Arial Black;-inkscape-font-specification:'Arial Black,'"
       d="m 535.14351,1206.3755 -18.67533,0 0,-9.3555 c -2.78495,3.8437 -5.60263,6.5815 -8.45304,8.2133 -2.81771,1.6318 -6.29066,2.4476 -10.41886,2.4476 -5.50432,0 -9.82913,-1.813 -12.97444,-5.4393 -3.11256,-3.6624 -4.66884,-9.2829 -4.66883,-16.8617 l 0,-36.7693 20.10055,0 0,31.7653 c -3e-5,3.6262 0.6061,6.2007 1.81838,7.7237 1.21223,1.5231 2.91595,2.2845 5.11115,2.2845 2.39171,0 4.34115,-1.0153 5.84832,-3.046 1.53985,-2.0306 2.3098,-5.6749 2.30984,-10.9329 l 0,-27.7946 20.00226,0 0,57.7649 m -44.32932,-78.6516 12.77785,0 0,13.5981 -12.77785,0 0,-13.5981 m 20.83772,0 12.92529,0 0,13.5981 -12.92529,0 0,-13.5981" />
    <path
       inkscape:connector-curvature="0"
       id="path3806"
       style="font-size:105.8868103px;font-style:normal;font-variant:normal;font-weight:normal;font-stretch:normal;text-align:center;line-height:125%;letter-spacing:0px;word-spacing:0px;writing-mode:lr-tb;text-anchor:middle;fill:none;stroke:#000000;stroke-width:0.7353251;stroke-opacity:1;font-family:Arial Black;-inkscape-font-specification:'Arial Black,'"
       d="m 571.51122,1126.636 0,21.9746 11.00861,0 0,16.1546 -11.00861,0 0,20.506 c -3e-5,2.4658 0.21294,4.0976 0.6389,4.8954 0.65524,1.2328 1.80196,1.8493 3.44018,1.8493 1.47433,0 3.53845,-0.4714 6.19234,-1.4142 l 1.47437,15.2843 c -4.94735,1.1967 -9.56704,1.7949 -13.85905,1.7949 -4.98011,0 -8.64964,-0.707 -11.00861,-2.1213 -2.359,-1.4142 -4.11186,-3.5536 -5.25858,-6.4183 -1.11397,-2.901 -1.67096,-7.5787 -1.67095,-14.0333 l 0,-20.3428 -7.37184,0 0,-16.1546 7.37184,0 0,-10.6065 20.0514,-11.3681" />
    <path
       inkscape:connector-curvature="0"
       id="path3808"
       style="font-size:105.8868103px;font-style:normal;font-variant:normal;font-weight:normal;font-stretch:normal;text-align:center;line-height:125%;letter-spacing:0px;word-spacing:0px;writing-mode:lr-tb;text-anchor:middle;fill:none;stroke:#000000;stroke-width:0.7353251;stroke-opacity:1;font-family:Arial Black;-inkscape-font-specification:'Arial Black,'"
       d="m 589.74424,1148.6106 48.40841,0 0,12.9454 -26.34204,29.6984 27.96384,0 0,15.1211 -51.99603,0 0,-14.3596 24.96596,-28.2842 -23.00014,0 0,-15.1211" />
    <path
       inkscape:connector-curvature="0"
       id="path3811"
       style="font-size:105.8868103px;font-style:normal;font-variant:normal;font-weight:normal;font-stretch:normal;text-align:center;line-height:125%;letter-spacing:0px;word-spacing:0px;writing-mode:lr-tb;text-anchor:middle;fill:none;stroke:#000000;stroke-width:0.7353251;stroke-opacity:1;font-family:Arial Black;-inkscape-font-specification:'Arial Black,'"
       d="m 704.99065,1182.9867 -40.1028,0 c 0.36038,3.5537 1.22862,6.2007 2.60472,7.9413 1.93303,2.5021 4.45583,3.7531 7.56842,3.7531 1.96578,0 3.83332,-0.5439 5.6026,-1.6318 1.08116,-0.6889 2.24427,-1.9037 3.48933,-3.6443 l 19.70738,2.0125 c -3.01432,5.802 -6.65109,9.972 -10.91032,12.5103 -4.25933,2.5021 -10.36976,3.7531 -18.33131,3.7531 -6.91317,0 -12.35194,-1.0697 -16.31633,-3.2092 -3.96442,-2.1757 -7.25717,-5.6023 -9.87826,-10.2801 -2.58834,-4.714 -3.88251,-10.2439 -3.8825,-16.5897 -10e-6,-9.0292 2.60471,-16.3359 7.81415,-21.9202 5.24217,-5.5843 12.46657,-8.3765 21.6732,-8.3765 7.47009,0 13.36756,1.2511 17.69241,3.7531 4.32476,2.5021 7.6175,6.1282 9.87826,10.8786 2.26063,4.7502 3.39098,10.9328 3.39105,18.5477 l 0,2.5021 m -20.34628,-10.6066 c -0.3932,-4.2788 -1.44164,-7.3429 -3.14531,-9.1923 -1.67099,-1.8492 -3.88254,-2.774 -6.63465,-2.774 -3.17812,0 -5.7173,1.3962 -7.61757,4.1883 -1.21228,1.7405 -1.98223,4.3333 -2.30985,7.778 l 19.70738,0" />
    <path
       inkscape:connector-curvature="0"
       id="path3813"
       style="font-size:105.8868103px;font-style:normal;font-variant:normal;font-weight:normal;font-stretch:normal;text-align:center;line-height:125%;letter-spacing:0px;word-spacing:0px;writing-mode:lr-tb;text-anchor:middle;fill:none;stroke:#000000;stroke-width:0.7353251;stroke-opacity:1;font-family:Arial Black;-inkscape-font-specification:'Arial Black,'"
       d="m 714.27915,1148.6106 18.62618,0 0,9.41 c 2.78488,-3.8437 5.60256,-6.5815 8.45303,-8.2133 2.85041,-1.668 6.32337,-2.5021 10.41887,-2.5021 5.53701,0 9.86182,1.8313 12.97443,5.4936 3.14526,3.6263 4.71791,9.2468 4.71798,16.8617 l 0,36.715 -20.10054,0 0,-31.7653 c -5e-5,-3.6261 -0.60618,-6.1825 -1.8184,-7.6693 -1.21229,-1.5229 -2.916,-2.2844 -5.11113,-2.2844 -2.42455,0 -4.39037,1.0153 -5.89748,3.0459 -1.50715,2.0307 -2.26072,5.6751 -2.26069,10.9329 l 0,27.7402 -20.00225,0 0,-57.7649" />
    <path
       inkscape:connector-curvature="0"
       id="path3815"
       style="font-size:105.8868103px;font-style:normal;font-variant:normal;font-weight:normal;font-stretch:normal;text-align:center;line-height:125%;letter-spacing:0px;word-spacing:0px;writing-mode:lr-tb;text-anchor:middle;fill:none;stroke:#000000;stroke-width:0.7353251;stroke-opacity:1;font-family:Arial Black;-inkscape-font-specification:'Arial Black,'"
       d="m 781.51029,1126.636 20.44456,0 0,41.1208 14.94026,-19.1462 24.62194,0 -18.72447,20.2341 19.80567,37.5308 -22.55782,0 -10.56631,-23.1713 -7.51927,8.1589 0,15.0124 -20.44456,0 0,-79.7395" />
    <path
       inkscape:connector-curvature="0"
       id="path3817"
       style="font-size:105.8868103px;font-style:normal;font-variant:normal;font-weight:normal;font-stretch:normal;text-align:center;line-height:125%;letter-spacing:0px;word-spacing:0px;writing-mode:lr-tb;text-anchor:middle;fill:none;stroke:#000000;stroke-width:0.7353251;stroke-opacity:1;font-family:Arial Black;-inkscape-font-specification:'Arial Black,'"
       d="m 842.94228,1177.6563 c -10e-6,-8.8116 2.68662,-16.064 8.05987,-21.757 5.37324,-5.7294 12.63039,-8.5941 21.7715,-8.5941 10.45158,0 18.34763,3.3542 23.68817,10.0626 4.29199,5.4031 6.438,12.0571 6.43807,19.9621 -7e-5,8.8841 -2.6703,16.1727 -8.01072,21.8658 -5.30778,5.6569 -12.66323,8.4852 -22.06638,8.4852 -8.38753,0 -15.16962,-2.3569 -20.34627,-7.071 -6.35617,-5.8381 -9.53425,-13.4894 -9.53424,-22.9536 m 20.0514,-0.055 c -3e-5,5.1491 0.93374,8.9566 2.8013,11.4224 1.90027,2.4658 4.27563,3.6987 7.12611,3.6987 2.88317,0 5.24216,-1.2148 7.07696,-3.6444 1.86749,-2.4294 2.80125,-6.3276 2.8013,-11.6943 -5e-5,-5.0041 -0.93381,-8.7209 -2.8013,-11.1505 -1.86757,-2.4658 -4.17741,-3.6987 -6.92952,-3.6987 -2.91601,0 -5.32414,1.2511 -7.22441,3.7531 -1.90032,2.4658 -2.85047,6.237 -2.85044,11.3137 m -6.92953,-49.878 12.77785,0 0,13.5981 -12.77785,0 0,-13.5981 m 20.83773,0 12.92528,0 0,13.5981 -12.92528,0 0,-13.5981" />
    <path
       inkscape:connector-curvature="0"
       id="path3819"
       style="font-size:105.8868103px;font-style:normal;font-variant:normal;font-weight:normal;font-stretch:normal;text-align:center;line-height:125%;letter-spacing:0px;word-spacing:0px;writing-mode:lr-tb;text-anchor:middle;fill:none;stroke:#000000;stroke-width:0.7353251;stroke-opacity:1;font-family:Arial Black;-inkscape-font-specification:'Arial Black,'"
       d="m 912.6307,1148.6106 18.62618,0 0,9.41 c 2.78489,-3.8437 5.60256,-6.5815 8.45304,-8.2133 2.85041,-1.668 6.32336,-2.5021 10.41882,-2.5021 5.53702,0 9.86191,1.8313 12.97447,5.4936 3.14525,3.6263 4.71793,9.2468 4.71802,16.8617 l 0,36.715 -20.10058,0 0,-31.7653 c -4e-5,-3.6261 -0.60617,-6.1825 -1.81839,-7.6693 -1.21229,-1.5229 -2.916,-2.2844 -5.11113,-2.2844 -2.42456,0 -4.39037,1.0153 -5.89748,3.0459 -1.50715,2.0307 -2.26072,5.6751 -2.2607,10.9329 l 0,27.7402 -20.00225,0 0,-57.7649" />
    <path
       inkscape:connector-curvature="0"
       id="path3821"
       style="font-size:105.8868103px;font-style:normal;font-variant:normal;font-weight:normal;font-stretch:normal;text-align:center;line-height:125%;letter-spacing:0px;word-spacing:0px;writing-mode:lr-tb;text-anchor:middle;fill:none;stroke:#000000;stroke-width:0.7353251;stroke-opacity:1;font-family:Arial Black;-inkscape-font-specification:'Arial Black,'"
       d="m 980.59912,1126.636 20.00218,0 0,15.0668 -20.00218,0 0,-15.0668 m 0,21.9746 20.00218,0 0,57.7649 -20.00218,0 0,-57.7649" />
    <path
       inkscape:connector-curvature="0"
       id="path3823"
       style="font-size:105.8868103px;font-style:normal;font-variant:normal;font-weight:normal;font-stretch:normal;text-align:center;line-height:125%;letter-spacing:0px;word-spacing:0px;writing-mode:lr-tb;text-anchor:middle;fill:none;stroke:#000000;stroke-width:0.7353251;stroke-opacity:1;font-family:Arial Black;-inkscape-font-specification:'Arial Black,'"
       d="m 1049.796,1148.6106 18.7245,0 0,54.5558 0.05,2.5564 c -10e-5,3.6261 -0.7046,7.071 -2.1133,10.3346 -1.3762,3.2998 -3.2273,5.965 -5.5535,7.9957 -2.2935,2.0307 -5.2259,3.4992 -8.7971,4.4058 -3.5385,0.9066 -7.6012,1.3598 -12.188,1.3598 -10.4845,0 -17.6924,-1.7406 -21.6241,-5.2217 -3.8989,-3.4811 -5.8483,-8.1408 -5.8483,-13.9789 0,-0.7252 0.032,-1.7043 0.098,-2.9372 l 19.4125,2.4477 c 0.4914,1.9944 1.245,3.3724 2.2607,4.1338 1.4743,1.1241 3.3254,1.6862 5.5534,1.6862 2.8832,0 5.0292,-0.8521 6.4381,-2.5564 1.4416,-1.7044 2.1624,-4.6779 2.1624,-8.9205 l 0,-8.7572 c -1.9659,2.5747 -3.9317,4.4421 -5.8975,5.6025 -3.0798,1.8131 -6.4053,2.7196 -9.9765,2.7196 -6.9787,0 -12.6141,-3.3723 -16.9061,-10.117 -3.047,-4.7866 -4.5705,-11.1142 -4.5705,-18.9829 0,-8.993 1.9658,-15.8464 5.8974,-20.5605 3.9317,-4.7139 9.0755,-7.071 15.4317,-7.071 4.0628,0 7.4046,0.7616 10.0257,2.2845 2.6538,1.523 5.1275,4.0432 7.421,7.5605 l 0,-8.5396 m -18.8228,28.0121 c 0,4.1702 0.8028,7.2706 2.4082,9.3012 1.6054,1.9945 3.7187,2.9916 6.3398,2.9916 2.4899,0 4.5705,-1.0334 6.2415,-3.1003 1.7036,-2.1033 2.5555,-5.258 2.5555,-9.4644 0,-4.2063 -0.8846,-7.4154 -2.6538,-9.6274 -1.7693,-2.2482 -3.9317,-3.3723 -6.4872,-3.3724 -2.5556,10e-5 -4.6034,1.0335 -6.1432,3.1004 -1.5072,2.0306 -2.2608,5.4211 -2.2608,10.1713" />
    <path
       style="font-size:105.8868103px;font-style:normal;font-variant:normal;font-weight:normal;font-stretch:normal;text-align:center;line-height:125%;letter-spacing:0px;word-spacing:0px;writing-mode:lr-tb;text-anchor:middle;fill:none;stroke:#000000;stroke-width:0.7353251;stroke-opacity:1;font-family:Arial Black;-inkscape-font-specification:'Arial Black,'"
       d="m 308.6916,1113.0958 c -0.96774,0.021 -1.93898,0.089 -2.90625,0.1876 -1.9376,7e-4 -3.87519,-0.012 -5.8125,0.031 -21.38163,-0.6688 -42.21399,20.7396 -36.46875,42.4062 0.87889,4.4762 3.14731,8.6923 5.46875,12.375 -7.07886,1.8591 -11.14423,9.867 -8.65625,16.6876 2.3823,18.4529 18.50958,34.7708 37.5625,34.875 15.59754,1.9688 33.58235,-2.7793 43.59375,-15 5.9333,7.7696 14.50152,13.3737 24.53125,14.4062 11.7166,2.5513 24.86859,0.389 34.90625,-6.0625 l 0,5.375 80.125,0 c -0.23746,-1.3024 -0.43277,-2.622 -0.59375,-3.9375 9.04172,6.145 21.54816,6.6792 31.6875,2.75 7.35878,2.6871 15.52027,0.7379 23.03125,1.5 4.93429,-0.9527 8.63123,-4.3005 10.78125,-8.5625 2.35257,3.0208 5.42615,5.452 9.375,6.9375 9.3678,3.9063 20.01262,3.4362 29.65625,0.5 0.76945,0.1202 1.59896,0.1333 2.46875,0.062 20.1116,1.6347 40.514,0.7944 60.53125,0.1875 1.78299,-0.9605 2.81623,-2.2474 3.40625,-3.7188 5.96864,3.811 12.94396,5.9961 20.3125,5.7813 10.65239,0.9463 21.88144,-1.9367 30.59375,-8.0937 0.0349,2.1991 0.0833,4.3949 0.15625,6.5937 l 79.78125,0 c -0.002,-0.01 0.002,-0.021 0,-0.031 9.72809,0.098 19.49089,0.3168 28.9375,-0.4062 1.50726,-1.0849 1.2711,-3.8897 3.25,-1.5625 8.21678,5.3725 18.03421,-0.053 27,2.2187 4.02997,0.8164 8.99067,-0.1636 12.03125,-2.9062 14.92572,7.6975 34.33131,4.7313 47.1875,-5.6562 0.0335,2.7841 0.064,5.5601 0.15625,8.3437 l 79.9375,0 20.56255,0 c 0.753,2.5101 1.7207,4.9284 2.7812,7.0937 5.9556,11.0897 18.7134,16.6187 30.9062,16.3438 16.5691,1.8672 36.6761,-4.5218 42.625,-21.5625 6.4645,-18.7766 1.1866,-38.9322 2.9376,-58.3125 l 0,-25.25 c -16.5073,-0.2293 -33.0653,0.4383 -49.4376,-1.3438 -7.0509,0 -13.3619,2.5913 -18.5,6.7813 0,-9.1667 10e-5,-18.3333 0,-27.5 l -43.99995,0 0,1 0,1 c 0.0232,8.3127 0.0259,16.625 0.0312,24.9375 -6.00001,-4.7481 -13.88275,-6.9578 -21.625,-6.5312 -5.01512,0.5586 -9.83023,4.6405 -14.84375,1.8124 -6.77871,-0.93 -13.85832,-0.4187 -20.59375,-0.3437 -4.61868,1.2663 -7.90821,4.5423 -9.84375,8.5937 -0.17528,-0.1775 -0.35289,-0.3567 -0.53125,-0.5312 1.79239,-6.9424 1.23677,-14.7643 -0.5625,-21.5625 -2.38033,-5.0289 -8.01945,-8.238 -13.53125,-7.7813 -6.64704,0.386 -13.58057,1.2862 -20.1875,0 -7.64818,0.6221 -18.55454,-1.1193 -22.03125,7.8126 -0.29175,4.4375 -1.11391,9.0454 -1.15625,13.5624 -9.93945,-0.038 -19.88018,-0.1477 -29.8125,0.25 0.0657,-7.4059 0.0157,-14.8125 0.0312,-22.2187 l -44.4375,0 0,1 0,1 0,24.375 c -5.94172,-4.4046 -13.57662,-6.5016 -21.03125,-5.9063 -4.80371,0.1252 -9.45939,4.8161 -14.0625,1.8126 -7.49275,-0.4668 -15.42199,-1.4696 -22.75,0.1562 -3.83028,1.4955 -6.51694,4.3434 -8.1875,7.7812 -4.50627,-4.1626 -10.05736,-7.1371 -16.53125,-8.2812 -5.32219,-1.2163 -10.85277,-1.3495 -16.3125,-1.2188 -8.18443,0.036 -15.6891,3.013 -21.875,7.8126 -0.78678,-1.6174 -1.99139,-3.0563 -3.8125,-4.2188 -2.33685,-1.7794 -5.43073,-2.6548 -8.40625,-2.4375 -17.17658,0.155 -34.35407,0.095 -51.53125,0.094 -0.40386,-0.1002 -0.81852,-0.1906 -1.25,-0.25 -1.19354,-1.3139 0.79934,-5.6932 0.15625,-8.1874 0.4427,-7.3133 -4.18681,-15.9565 -12.53125,-14.5626 -11.1126,4.7671 -21.60849,11.4942 -31.78125,17.8126 -1.21069,1.5879 -0.0794,3.8406 -0.65625,5.125 -0.74771,-0.023 -1.49544,-0.033 -2.21875,-0.094 1.09906,-8.183 -1.06781,-19.1128 -10.53125,-20.9688 -1.32146,-0.3619 -2.69547,-0.4426 -4.0625,-0.3437 -5.16272,1.0239 -10.85569,0.5261 -16,0.7187 -5.8498,-1.0045 -11.97911,0.022 -17.8125,-0.094 -8.18042,2.0286 -10.78885,11.4684 -9.65625,18.9063 0.87104,3.6348 -4.36815,1.4373 -5.90625,3.875 -1.44688,0.9081 -2.55132,2.0689 -3.375,3.375 -6.82902,-5.4219 -16.33817,-7.4994 -24.46875,-6.6876 0.94112,-7.4247 0.50761,-18.2005 -8.125,-20.6874 -1.25914,-0.363 -2.56683,-0.5273 -3.875,-0.4063 -10.62683,1.2876 -21.34433,-0.086 -32,0.6875 l 0,27.25 c -7.8461,-5.2041 -17.5525,-7.3243 -26.9375,-7.0625 -9.96605,-0.4627 -19.4298,3.385 -26.78125,9.75 -0.65655,-3.7206 -2.04289,-7.4194 -3.375,-10.4687 -6.3019,-13.2196 -20.60883,-21.5003 -35.125,-21.1876 z"
       id="path3740"
       inkscape:connector-curvature="0" />
  </g>
</svg>
