<?xml version="1.0" encoding="UTF-8" standalone="no"?>
<!-- Created with Inkscape (http://www.inkscape.org/) -->

<svg
   xmlns:dc="http://purl.org/dc/elements/1.1/"
   xmlns:cc="http://creativecommons.org/ns#"
   xmlns:rdf="http://www.w3.org/1999/02/22-rdf-syntax-ns#"
   xmlns:svg="http://www.w3.org/2000/svg"
   xmlns="http://www.w3.org/2000/svg"
   xmlns:sodipodi="http://sodipodi.sourceforge.net/DTD/sodipodi-0.dtd"
   xmlns:inkscape="http://www.inkscape.org/namespaces/inkscape"
   width="1346.4567"
   height="1346.4567"
   id="svg2"
   version="1.1"
   inkscape:version="0.48.1 r9760"
   sodipodi:docname="Scheibe1.svg">
  <defs
     id="defs4" />
  <sodipodi:namedview
     id="base"
     pagecolor="#ffffff"
     bordercolor="#666666"
     borderopacity="1.0"
     inkscape:pageopacity="0.0"
     inkscape:pageshadow="2"
     inkscape:zoom="0.73913124"
     inkscape:cx="677.3773"
     inkscape:cy="666.43602"
     inkscape:document-units="mm"
     inkscape:current-layer="layer3"
     showgrid="false"
     units="mm"
     inkscape:snap-center="false"
     inkscape:snap-nodes="true"
     inkscape:snap-global="true"
     inkscape:snap-grids="true"
     inkscape:snap-to-guides="true"
     showguides="true"
     inkscape:guide-bbox="true"
     inkscape:window-width="1920"
     inkscape:window-height="1056"
     inkscape:window-x="0"
     inkscape:window-y="24"
     inkscape:window-maximized="1"
     inkscape:snap-object-midpoints="false">
    <sodipodi:guide
       orientation="1,0"
       position="673.22833,1093.996"
       id="guide2991" />
    <sodipodi:guide
       orientation="0,1"
       position="-146.4895,673.22833"
       id="guide2993" />
    <sodipodi:guide
       orientation="0,1"
       position="2086.6962,271.16141"
       id="guide3012" />
  </sodipodi:namedview>
  <metadata
     id="metadata7">
    <rdf:RDF>
      <cc:Work
         rdf:about="">
        <dc:format>image/svg+xml</dc:format>
        <dc:type
           rdf:resource="http://purl.org/dc/dcmitype/StillImage" />
        <dc:title></dc:title>
      </cc:Work>
    </rdf:RDF>
  </metadata>
  <g
     inkscape:label="Innenkreis"
     inkscape:groupmode="layer"
     id="layer1"
     transform="translate(0,294.09447)" />
  <g
     inkscape:groupmode="layer"
     id="layer2"
     inkscape:label="Hilf"
     style="display:inline" />
  <g
     inkscape:groupmode="layer"
     id="layer3"
     inkscape:label="Aussen"
     style="display:inline" />
  <g
     inkscape:groupmode="layer"
     id="layer4"
     inkscape:label="Rundtext"
     style="display:inline">
    <g
       style="font-size:144px;font-style:normal;font-variant:normal;font-weight:normal;font-stretch:normal;text-align:center;line-height:125%;letter-spacing:0px;word-spacing:0px;writing-mode:lr-tb;text-anchor:middle;fill:none;stroke:#000000;stroke-opacity:1;font-family:Arial Black;-inkscape-font-specification:'Arial Black,'"
       id="text3034">
      <path
         d="m 217.00548,1072.5742 -32.07739,-42.1218 c -6.98618,-9.1739 -10.0301,-17.6971 -9.13177,-25.5696 0.87019,-7.90967 5.3328,-14.93169 13.38784,-21.06604 8.27903,-6.30468 16.65204,-8.73342 25.11905,-7.28623 8.43879,1.40999 16.54888,7.22401 24.33031,17.44211 l 10.56466,13.87276 30.43064,-23.17407 19.38275,25.45207 -82.00609,62.4508 m 15.57892,-52.0767 -4.72854,-6.2092 c -3.72027,-4.8853 -7.17212,-7.6772 -10.35554,-8.3758 -3.22054,-0.6701 -6.15474,0 -8.8026,2.0194 -2.57308,1.9596 -4.10149,4.4787 -4.58525,7.5573 -0.48355,3.0787 1.078,6.9861 4.68465,11.7222 l 5.49533,7.2161 18.29195,-13.93"
         style="fill:none;stroke:#000000;stroke-opacity:1"
         id="path3810"
         inkscape:connector-curvature="0" />
      <path
         d="m 148.86004,975.26263 -13.74103,-25.18247 90.48407,-49.37341 13.74103,25.18246 -90.48407,49.37342"
         style="fill:none;stroke:#000000;stroke-opacity:1"
         id="path3812"
         inkscape:connector-curvature="0" />
      <path
         d="m 159.11066,817.40874 19.94562,53.79649 c 4.12802,-2.08039 6.90464,-4.43467 8.32987,-7.06284 2.07124,-3.71748 2.33281,-7.66393 0.78472,-11.83934 -0.9777,-2.63704 -2.56581,-4.89784 -4.76434,-6.78239 -1.37279,-1.14074 -3.42364,-2.15511 -6.15258,-3.04313 l -7.3624,-27.34116 c 8.53144,1.43633 15.39464,4.44096 20.58961,9.01388 5.15107,4.58936 9.70649,12.22409 13.66627,22.90422 3.43835,9.27378 4.84682,17.05042 4.22543,23.32994 -0.66532,6.29586 -3.18103,12.25289 -7.54714,17.8711 -4.42632,5.59057 -10.48523,9.8117 -18.17675,12.6634 -10.94385,4.05756 -21.09553,3.84696 -30.45507,-0.6318 -9.37571,-4.52273 -16.35311,-12.95925 -20.93221,-25.3096 -3.71527,-10.02088 -5.13213,-18.49432 -4.25057,-25.42032 0.88174,-6.92592 3.63918,-12.97257 8.27234,-18.13998 4.63332,-5.16728 11.56483,-9.46197 20.79455,-12.88409 l 3.03265,-1.12438 m -2.73631,32.06023 c -4.99065,2.45032 -8.18309,5.23372 -9.57732,8.35022 -1.41037,3.07262 -1.43119,6.45487 -0.0625,10.14676 1.58073,4.2633 4.53575,7.04216 8.86508,8.33657 2.71266,0.84404 6.23812,0.71177 10.5764,-0.3968 l -9.80171,-26.43675"
         style="fill:none;stroke:#000000;stroke-opacity:1"
         id="path3814"
         inkscape:connector-curvature="0" />
      <path
         d="m 77.571188,779.59179 27.870752,-5.48964 -3.04376,-15.45309 20.48914,-4.03571 3.04376,15.45309 26.00811,-5.12276 c 3.12744,-0.61596 5.13817,-1.32255 6.03218,-2.11977 1.38256,-1.22778 1.84735,-2.99148 1.39438,-5.29109 -0.40761,-2.06956 -1.57621,-4.84925 -3.50577,-8.33907 l 18.9777,-5.8879 c 2.8856,6.64581 4.92175,12.98111 6.10845,19.00593 1.37694,6.99072 1.4947,12.31839 0.35327,15.98303 -1.14142,3.66469 -3.37026,6.65969 -6.68653,8.98502 -3.37129,2.28842 -9.15017,4.23886 -17.33665,5.85132 l -25.80114,5.082 2.03823,10.34805 -20.48914,4.0357 -2.03823,-10.34805 -13.452472,2.6497 -19.96228,-25.30676"
         style="fill:none;stroke:#000000;stroke-opacity:1"
         id="path3816"
         inkscape:connector-curvature="0" />
      <path
         d="m 99.285835,737.75202 -3.545627,-69.167 16.712432,-0.85671 40.26968,35.67269 -2.04819,-39.95535 19.52125,-1.0007 3.8084,74.29308 -18.53816,0.9503 -38.34317,-33.80011 1.68463,32.8631 -19.521245,1.0007"
         style="fill:none;stroke:#000000;stroke-opacity:1"
         id="path3818"
         inkscape:connector-curvature="0" />
      <path
         d="m 123.47423,618.38592 -6.2076,26.79337 c -4.6191,-1.60847 -8.16027,-3.53275 -10.62351,-5.77284 -2.50391,-2.29231 -4.53247,-5.37617 -6.08567,-9.25159 -1.120975,-2.78303 -1.795918,-6.50293 -2.024834,-11.1597 -0.228775,-4.65669 -0.0163,-9.63685 0.637437,-14.94051 1.049597,-8.51361 2.381147,-15.29224 3.994657,-20.33591 1.56712,-5.04925 4.07484,-9.10887 7.52316,-12.17886 2.39181,-2.16101 5.60441,-3.7014 9.63781,-4.62116 3.98697,-0.92531 7.72503,-1.17295 11.2142,-0.74291 l 32.72882,4.03466 c 3.48921,0.43023 6.25986,0.55925 8.31196,0.38706 2.01131,-0.22426 4.64397,-0.89154 7.89801,-2.00185 l -3.28622,26.65759 c -2.03935,0.83495 -3.56759,1.355 -4.58471,1.56016 -1.06365,0.19955 -2.68557,0.33021 -4.86576,0.392 3.12344,4.16348 5.22625,8.17748 6.30844,12.04199 1.4276,5.27685 1.73134,11.24164 0.91123,17.89436 -1.08968,8.83936 -3.96541,15.30956 -8.62719,19.41061 -4.65605,4.05456 -9.98479,5.71191 -15.98625,4.97208 -5.62924,-0.69395 -10.05466,-2.91615 -13.27627,-6.66662 -3.22155,-3.75044 -5.16858,-10.17757 -5.84107,-19.28139 -0.82667,-10.9175 -1.46373,-18.00965 -1.9112,-21.27649 -0.4939,-3.27246 -1.22078,-6.76261 -2.18064,-10.47046 -3.48916,-0.43007 -6.0205,-0.0101 -7.59403,1.26003 -1.57342,1.27021 -2.58382,3.71968 -3.03122,7.3484 -0.57346,4.65233 -0.25922,8.23331 0.9427,10.74292 0.93945,1.95782 2.94536,3.69283 6.01775,5.20506 m 17.97057,-22.79286 c 0.91397,4.08003 1.645,8.30275 2.1931,12.66818 0.82412,5.95814 1.88591,9.79657 3.18535,11.51531 1.34028,1.77107 2.98739,2.77702 4.94133,3.01786 2.23311,0.27532 4.16539,-0.26576 5.79685,-1.62327 1.59068,-1.40968 2.57242,-3.62653 2.94519,-6.65056 0.39,-3.1635 -0.0163,-6.18907 -1.21894,-9.0767 -1.19687,-2.93405 -2.81978,-5.09415 -4.86872,-6.48031 -2.0897,-1.43829 -4.90242,-2.37541 -8.43818,-2.81134 l -4.53598,-0.55917"
         style="fill:none;stroke:#000000;stroke-opacity:1"
         id="path3820"
         inkscape:connector-curvature="0" />
      <path
         d="m 173.26799,493.12312 11.31033,-24.94159 c 4.93592,3.17134 8.86271,7.02638 11.7804,11.56512 2.87305,4.52449 4.58088,9.68224 5.12348,15.47328 0.55699,5.74656 -0.4256,12.52268 -2.94777,20.32838 -2.43572,7.53817 -5.15925,13.60398 -8.17058,18.19745 -3.04154,4.53451 -6.70716,8.10379 -10.99687,10.70785 -4.33432,2.58968 -8.95166,4.22581 -13.85206,4.90841 -4.90036,0.68263 -10.85199,-0.10744 -17.8549,-2.37022 -7.31507,-2.36363 -13,-5.57985 -17.05482,-9.64867 -2.97738,-2.98175 -5.35949,-6.51008 -7.14633,-10.58501 -1.83133,-4.08926 -2.89793,-8.02997 -3.19979,-11.82212 -0.47046,-6.01407 0.63464,-13.16933 3.3153,-21.4658 3.7473,-11.59704 8.67506,-19.75851 14.78331,-24.48443 6.12275,-4.77033 13.57253,-7.09225 22.34936,-6.96575 l -4.86774,26.72774 c -3.29249,-0.1771 -6.04292,0.55981 -8.25129,2.21072 -2.2385,1.59203 -3.93427,4.17219 -5.08731,7.74047 -1.45562,4.50509 -1.00938,8.6887 1.33871,12.55083 2.31797,3.80321 6.75535,6.76411 13.31216,8.8827 5.84318,1.88808 10.72809,1.93938 14.65475,0.15392 3.92667,-1.78537 6.5818,-4.81909 7.9654,-9.10115 1.153,-3.56829 1.20424,-6.85223 0.15374,-9.85184 -1.03609,-3.04408 -3.25525,-5.78084 -6.65748,-8.21029"
         style="fill:none;stroke:#000000;stroke-opacity:1"
         id="path3822"
         inkscape:connector-curvature="0" />
      <path
         d="m 123.90679,416.64418 13.78882,-25.07612 33.27053,18.29474 c -1.65774,-5.35153 -2.32048,-10.12924 -1.98823,-14.33313 0.33234,-4.20373 1.7633,-8.60582 4.29291,-13.20627 3.74932,-6.81831 8.77108,-11.03796 15.06528,-12.65897 6.31683,-1.66187 13.76754,-0.13261 22.35215,4.58778 l 41.58816,22.86843 -13.85657,25.19935 -35.98146,-19.78543 c -4.10747,-2.25854 -7.42107,-3.09097 -9.94084,-2.49731 -2.5608,0.57122 -4.59785,2.2328 -6.11114,4.98473 -1.67135,3.0396 -1.87642,6.13649 -0.61522,9.29069 1.26125,3.15431 4.86977,6.36893 10.82559,9.64386 l 31.42217,17.27837 -13.78882,25.07612 -90.32333,-49.66684"
         style="fill:none;stroke:#000000;stroke-opacity:1"
         id="path3824"
         inkscape:connector-curvature="0" />
      <path
         d="m 221.97941,266.31141 30.88953,-28.3191 54.30406,35.30213 -30.51498,-57.11163 30.78587,-28.22406 69.65736,75.97995 -19.17638,17.58064 -53.12205,-57.94378 38.24739,71.58066 -17.3624,15.91761 -67.94488,-44.35442 53.12206,57.94378 -19.22822,17.62816 -69.65736,-75.97994"
         style="fill:none;stroke:#000000;stroke-opacity:1"
         id="path3826"
         inkscape:connector-curvature="0" />
      <path
         d="m 391.57001,197.8844 -25.26179,10.87478 c -1.44115,-4.674 -1.98921,-8.66679 -1.64418,-11.97836 0.36301,-3.37528 1.6453,-6.83662 3.84689,-10.38406 1.57772,-2.55199 4.17442,-5.29979 7.7901,-8.24338 3.6157,-2.94344 7.75342,-5.72308 12.41319,-8.33894 7.48014,-4.1989 13.7297,-7.14267 18.74871,-8.83132 4.99602,-1.72933 9.75215,-2.11458 14.26838,-1.15575 3.15801,0.64632 6.30239,2.32157 9.43315,5.02575 3.10772,2.66349 5.52206,5.52801 7.24301,8.59356 l 16.14204,28.75566 c 1.72083,3.06569 3.25854,5.37406 4.61314,6.92514 1.37238,1.48735 3.46981,3.21275 6.29228,5.17621 l -23.42146,13.14768 c -1.88094,-1.14811 -3.20537,-2.07105 -3.9733,-2.76885 -0.79097,-0.7386 -1.85724,-1.96774 -3.1988,-3.68741 -1.50327,4.98305 -3.49084,9.05533 -5.96274,12.21686 -3.40496,4.27662 -8.02999,8.05551 -13.8751,11.33668 -7.7663,4.35962 -14.68234,5.87671 -20.74816,4.55128 -6.02495,-1.34836 -10.5174,-4.65898 -13.47735,-9.93189 -2.77638,-4.94587 -3.60837,-9.8275 -2.49598,-14.64491 1.11241,-4.81734 5.13622,-10.19393 12.07144,-16.12979 8.30491,-7.13468 13.64062,-11.85006 16.00713,-14.14616 2.34352,-2.33685 4.72437,-4.99035 7.14255,-7.96052 -1.72093,-3.06556 -3.55912,-4.85585 -5.51459,-5.37087 -1.95551,-0.51487 -4.52738,0.12252 -7.71562,1.91218 -4.08753,2.2946 -6.78604,4.6695 -8.09553,7.1247 -1.02051,1.91682 -1.22964,4.56072 -0.62741,7.93173 m 29.00884,0.97137 c -2.74519,3.15372 -5.71371,6.24462 -8.90557,9.27272 -4.31135,4.19415 -6.77432,7.3238 -7.38893,9.38896 -0.63258,2.12906 -0.467,4.05194 0.49672,5.76866 1.10135,1.96204 2.68213,3.19801 4.74234,3.70791 2.07809,0.44615 4.44559,-0.0765 7.1025,-1.568 2.77948,-1.56025 4.97601,-3.68024 6.58961,-6.35999 1.6544,-2.70261 2.4329,-5.28984 2.33551,-7.76171 -0.0795,-2.53559 -0.99121,-5.35666 -2.73501,-8.46322 l -2.23717,-3.98533 m -63.50731,-40.30665 15.94131,-8.94868 8.6045,15.32818 -15.94131,8.94868 -8.6045,-15.32818 m 25.99659,-14.59323 16.12525,-9.05194 8.6045,15.32818 -16.12525,9.05194 -8.6045,-15.32818"
         style="fill:none;stroke:#000000;stroke-opacity:1"
         id="path3828"
         inkscape:connector-curvature="0" />
      <path
         d="m 454.93458,138.07423 25.30466,-8.35544 3.81397,11.55067 c 2.22552,-5.96739 4.94384,-10.59196 8.15496,-13.87372 3.19637,-3.3261 7.57652,-5.90777 13.14046,-7.74503 7.52237,-2.48376 14.14006,-2.17599 19.85312,0.92331 5.74275,3.04027 10.15738,9.23404 13.24389,18.58132 l 14.88106,45.06767 -27.30766,9.01682 -12.87488,-38.99188 c -1.46978,-4.45106 -3.3294,-7.3172 -5.57887,-8.59843 -2.26424,-1.3256 -4.88747,-1.49608 -7.86969,-0.51142 -3.29386,1.08767 -5.55301,3.21582 -6.77745,6.38447 -1.22449,3.16876 -0.77117,7.98018 1.35997,14.43426 l 11.24347,34.05113 -27.17413,8.97273 -23.41288,-70.90646"
         style="fill:none;stroke:#000000;stroke-opacity:1"
         id="path3830"
         inkscape:connector-curvature="0" />
      <path
         d="m 560.94146,106.31859 26.43627,-3.35599 1.5319,12.06722 c 3.32687,-5.4309 6.88033,-9.44946 10.66038,-12.0557 3.77406,-2.65258 8.56747,-4.347867 14.38024,-5.085855 7.85875,-0.997564 14.29509,0.571548 19.30906,4.707335 5.05442,4.08355 8.2015,11.00796 9.44127,20.77327 l 5.97703,47.08307 -28.52885,3.62164 -5.17125,-40.73557 c -0.59037,-4.65013 -1.86683,-7.81929 -3.82938,-9.5075 -1.96855,-1.7346 -4.51061,-2.40417 -7.62619,-2.00871 -3.44117,0.4369 -6.06598,2.09314 -7.87445,4.96874 -1.80853,2.8757 -2.2848,7.6849 -1.42879,14.42761 l 4.51598,35.57388 -28.38935,3.60393 -9.40387,-74.07737"
         style="fill:none;stroke:#000000;stroke-opacity:1"
         id="path3832"
         inkscape:connector-curvature="0" />
      <path
         d="m 750.76434,145.0404 -57.25871,-3.65115 c 0.22221,4.61728 1.24412,8.11126 3.06574,10.48197 2.55415,3.40383 6.05329,5.24742 10.49744,5.53079 2.80675,0.17899 5.51795,-0.35268 8.13361,-1.59501 1.60036,-0.79037 3.36097,-2.2516 5.28186,-4.38371 l 27.97261,4.39054 c -4.78112,7.21037 -10.31673,12.25896 -16.60686,15.14577 -6.28729,2.84003 -15.11466,3.89762 -26.48214,3.17277 -9.87062,-0.62941 -17.54809,-2.50459 -23.03245,-5.62555 -5.48142,-3.16773 -9.90091,-7.88822 -13.25849,-14.16149 -3.30785,-6.31703 -4.70075,-13.56879 -4.17873,-21.75532 0.74275,-11.64817 5.06282,-20.83719 12.96023,-27.56707 7.94414,-6.726775 18.48881,-9.671089 31.63402,-8.832952 10.66578,0.680187 18.98326,2.831027 24.95246,6.452522 5.96906,3.62164 10.37214,8.59942 13.20928,14.93336 2.83696,6.33405 3.94228,14.41295 3.31595,24.23671 l -0.20582,3.22782 m -28.17786,-15.53557 c -0.20944,-5.55579 -1.45434,-9.60415 -3.7347,-12.14509 -2.23371,-2.53786 -5.31529,-3.9321 -9.24476,-4.18272 -4.5377,-0.28929 -8.27799,1.28056 -11.22087,4.70955 -1.87409,2.13512 -3.1867,5.40979 -3.93784,9.82401 l 28.13817,1.79425"
         style="fill:none;stroke:#000000;stroke-opacity:1"
         id="path3834"
         inkscape:connector-curvature="0" />
      <path
         d="m 779.04201,105.89022 26.09826,6.04442 -2.76044,11.91888 c 3.70672,-4.57852 7.10653,-7.52008 10.19944,-8.8247 3.14903,-1.33957 6.68722,-1.55461 10.61458,-0.6451 4.10989,0.95194 8.31187,3.27237 12.60596,6.96129 l -13.23166,17.86587 c -2.97074,-2.13144 -5.41507,-3.41929 -7.33298,-3.86354 -3.65336,-0.84607 -6.83369,0.005 -9.54099,2.55375 -3.86063,3.58068 -7.1394,11.19344 -9.83634,22.8383 l -5.6478,24.38577 -28.01624,-6.48862 16.84821,-72.74632"
         style="fill:none;stroke:#000000;stroke-opacity:1"
         id="path3836"
         inkscape:connector-curvature="0" />
      <path
         d="m 867.81016,99.150491 27.07387,11.071029 -20.11946,49.20157 29.15255,-14.8183 32.60579,13.33314 -34.69608,14.07072 7.86481,55.63125 -29.87237,-12.21539 -2.65535,-33.4465 -13.94942,5.69042 -7.3452,17.96247 -27.07388,-11.07103 39.01474,-95.409379"
         style="fill:none;stroke:#000000;stroke-opacity:1"
         id="path3838"
         inkscape:connector-curvature="0" />
      <path
         d="m 930.25219,197.47983 c 6.2011,-9.55466 14.52912,-15.32605 24.98409,-17.31417 10.48039,-2.02735 21.20571,0.51885 32.176,7.63862 12.54291,8.1406 19.65842,17.92776 21.34662,29.3615 1.3485,9.20164 -0.7588,18.08831 -6.3219,26.66003 -6.25222,9.63331 -14.5861,15.45678 -25.00163,17.47041 -10.35083,1.99976 -21.1686,-0.66232 -32.45332,-7.98625 -10.06589,-6.5329 -16.54634,-14.37112 -19.44136,-23.51468 -3.51948,-11.28117 -1.94899,-22.05298 4.7115,-32.31546 m 24.10198,15.55868 c -3.62375,5.58341 -5.18264,10.43928 -4.67666,14.5676 0.54521,4.15385 2.52824,7.34084 5.94911,9.56101 3.46008,2.24566 7.14599,2.76582 11.05773,1.56048 3.95094,-1.17985 7.81484,-4.67943 11.59173,-10.49875 3.52155,-5.42612 5.01664,-10.18369 4.48527,-14.2727 -0.50601,-4.12832 -2.4104,-7.26428 -5.71319,-9.4079 -3.49953,-2.27117 -7.26993,-2.79029 -11.31123,-1.55735 -4.0159,1.19366 -7.81015,4.54286 -11.38276,10.04761"
         style="fill:none;stroke:#000000;stroke-opacity:1"
         id="path3840"
         inkscape:connector-curvature="0" />
      <path
         d="m 1044.6717,230.60091 19.1933,18.48665 -8.4385,8.76106 c 6.3166,-0.81462 11.6752,-0.56703 16.0758,0.74279 4.433,1.27608 8.7596,3.94651 12.9799,8.01128 5.7056,5.4956 8.5199,11.49296 8.443,17.99209 -0.011,6.49787 -3.4307,13.29174 -10.2594,20.38164 l -32.9248,34.18333 -20.7126,-19.94998 28.4861,-29.5749 c 3.2517,-3.37614 4.9197,-6.3579 5.0038,-8.94529 0.1166,-2.62115 -0.9561,-5.02109 -3.2181,-7.19981 -2.4984,-2.40635 -5.4346,-3.41213 -8.8086,-3.01735 -3.3741,0.3948 -7.4187,3.03989 -12.1337,7.93528 l -24.8765,25.8274 -20.61132,-19.85242 51.80162,-53.78177"
         style="fill:none;stroke:#000000;stroke-opacity:1"
         id="path3842"
         inkscape:connector-curvature="0" />
      <path
         d="m 1163.3825,318.5506 -22.6898,17.09066 9.476,12.58045 -16.6803,12.56418 -9.476,-12.58045 -21.1734,15.94847 c -2.546,1.91774 -4.0476,3.43022 -4.5047,4.53744 -0.709,1.70769 -0.3584,3.49759 1.0518,5.36971 1.269,1.68485 3.5325,3.67705 6.7905,5.97661 l -14.5127,13.5722 c -5.4941,-4.72308 -10.0885,-9.53703 -13.7829,-14.44187 -4.2868,-5.69118 -6.7154,-10.43461 -7.2857,-14.23029 -0.5704,-3.79572 0.1299,-7.4628 2.1007,-11.00124 2.0364,-3.52922 6.387,-7.80384 13.0517,-12.82387 l 21.0048,-15.82155 -6.3455,-8.42441 16.6803,-12.56417 6.3455,8.4244 10.9518,-8.2492 28.9979,14.07293"
         style="fill:none;stroke:#000000;stroke-opacity:1"
         id="path3844"
         inkscape:connector-curvature="0" />
      <path
         d="m 1164.1821,463.33381 -26.812,-50.72478 c -3.8204,2.60256 -6.2652,5.29985 -7.3343,8.09188 -1.5671,3.9565 -1.3102,7.90325 0.7709,11.84026 1.3143,2.48647 3.1845,4.52007 5.6107,6.10081 1.5102,0.95134 3.6761,1.68869 6.4978,2.21207 l 10.876,26.143 c -8.646,-0.30787 -15.8433,-2.38881 -21.5919,-6.2428 -5.7072,-3.87604 -11.2223,-10.84919 -16.5452,-20.9195 -4.6221,-8.74426 -7.0358,-16.2698 -7.2413,-22.57664 -0.164,-6.32879 1.5508,-12.56374 5.1443,-18.70486 3.6569,-6.12159 9.1115,-11.09909 16.3639,-14.93252 10.319,-5.4544 20.4109,-6.57369 30.276,-3.35788 9.8868,3.25729 17.9079,10.7085 24.0634,22.35364 4.9943,9.44872 7.5075,17.66397 7.5396,24.64578 0.032,6.98175 -1.9108,13.33717 -5.8281,19.06629 -3.9175,5.72903 -10.2276,10.89361 -18.9303,15.49379 l -2.8595,1.51146 m -1.4814,-32.14266 c 4.6272,-3.08216 7.428,-6.25929 8.4026,-9.53141 0.9963,-3.23072 0.5744,-6.58663 -1.2655,-10.06772 -2.1249,-4.01987 -5.4181,-6.38825 -9.8796,-7.10516 -2.7997,-0.4819 -6.2776,0.11044 -10.4335,1.77704 l 13.176,24.92725"
         style="fill:none;stroke:#000000;stroke-opacity:1"
         id="path3846"
         inkscape:connector-curvature="0" />
      <path
         d="m 1160.1885,479.22773 10.9919,26.32928 c -2.8743,2.12179 -4.6919,4.40563 -5.4525,6.85155 -0.7608,2.44585 -0.6188,5.34721 0.4259,8.70408 1.1421,3.67009 2.8098,6.26846 5.0032,7.7951 1.6511,1.20433 3.3495,1.53491 5.0951,0.99174 1.9693,-0.6129 3.1707,-2.11591 3.6042,-4.509 0.3012,-1.71384 0.022,-5.92264 -0.8365,-12.62643 -1.2969,-10.00402 -1.8296,-17.07936 -1.5981,-21.22603 0.29,-4.11586 1.7165,-7.97171 4.2795,-11.56755 2.5768,-3.55107 6.0135,-5.99519 10.3103,-7.33234 4.6995,-1.4625 9.1749,-1.35793 13.4262,0.31371 4.2512,1.67166 7.95,4.64434 11.0965,8.91806 3.1911,4.25979 6.0402,10.41788 8.5475,18.47429 2.6463,8.50395 3.9473,14.972 3.903,19.40416 -0.031,4.47685 -0.993,8.48285 -2.8874,12.018 -1.8807,3.57982 -4.8698,6.9892 -8.9674,10.22814 l -10.6159,-25.12082 c 2.0737,-1.38176 3.4039,-3.02302 3.9906,-4.9238 0.7636,-2.59412 0.6719,-5.41293 -0.2752,-8.45643 -0.9611,-3.08831 -2.224,-5.17446 -3.7886,-6.25848 -1.506,-1.05322 -3.0423,-1.33607 -4.6087,-0.84855 -1.7456,0.5432 -2.7874,1.84925 -3.1254,3.91815 -0.338,2.06886 0.068,6.2135 1.2185,12.43392 1.798,9.40615 2.469,16.61029 2.0129,21.61243 -0.4562,5.00203 -2.0229,9.19607 -4.7001,12.58211 -2.6635,3.43067 -6.0316,5.77979 -10.1045,7.04736 -4.1178,1.28137 -8.5136,1.27476 -13.1875,-0.0198 -4.66,-1.24996 -8.9895,-4.19822 -12.9883,-8.8448 -3.9401,-4.61587 -7.3449,-11.53382 -10.2142,-20.75388 -4.0532,-13.02454 -5.0859,-22.88981 -3.0982,-29.59583 2.0017,-6.66129 6.1827,-11.84073 12.5432,-15.53833"
         style="fill:none;stroke:#000000;stroke-opacity:1"
         id="path3848"
         inkscape:connector-curvature="0" />
      <path
         d="m 1273.0299,593.69274 -28.0895,4.22993 2.3453,15.5744 -20.65,3.10963 -2.3453,-15.57441 -26.2123,3.94724 c -3.152,0.4746 -5.1925,1.09 -6.1215,1.84618 -1.4364,1.16433 -1.98,2.90532 -1.631,5.22298 0.3141,2.08581 1.3564,4.91527 3.127,8.48838 l -19.2235,5.02796 c -2.5836,-6.76892 -4.3326,-13.18943 -5.247,-19.26155 -1.061,-7.04559 -0.9389,-12.37317 0.3663,-15.98273 1.3052,-3.60962 3.6665,-6.50129 7.0841,-8.67504 3.4708,-2.1344 9.3316,-3.82282 17.5824,-5.06526 l 26.0037,-3.91582 -1.5705,-10.42929 20.6499,-3.10962 1.5706,10.42928 13.558,-2.04167 18.8033,26.17941"
         style="fill:none;stroke:#000000;stroke-opacity:1"
         id="path3850"
         inkscape:connector-curvature="0" />
      <path
         d="m 1168.0118,767.05668 8.894,-85.46032 c 8.3369,1.85733 15.9547,5.64276 22.8535,11.35632 6.9405,5.76501 14.7585,16.00427 23.4541,30.71782 5.3323,8.99083 9.4857,14.81925 12.4601,17.48527 2.9744,2.66589 5.9069,4.14929 8.7976,4.45019 3.1237,0.32503 5.9025,-0.56398 8.3364,-2.66702 2.4756,-2.0517 3.8954,-4.82588 4.2594,-8.32256 0.3784,-3.63666 -0.4533,-6.73942 -2.4952,-9.30829 -2.0468,-2.52233 -5.9196,-4.48061 -11.6183,-5.87483 l 5.2773,-28.29321 c 7.9027,1.95351 13.9367,4.65512 18.1021,8.10483 4.2118,3.45452 7.2252,8.00966 9.0402,13.66544 1.8567,5.70719 2.2852,13.36298 1.2858,22.96741 -1.0433,10.02392 -2.9959,17.6911 -5.8578,23.00158 -2.8668,5.35694 -6.843,9.37318 -11.9284,12.04873 -5.0438,2.72684 -10.503,3.78461 -16.3774,3.17334 -6.2476,-0.65029 -12.0237,-3.11298 -17.3283,-7.38808 -5.3096,-4.22866 -10.8657,-11.52264 -16.6683,-21.88198 -3.3661,-6.14715 -5.7399,-10.28226 -7.1213,-12.40535 -1.3863,-2.07658 -3.2257,-4.55372 -5.5182,-7.43144 l -4.629,44.47852 -23.2183,-2.41637"
         style="fill:none;stroke:#000000;stroke-opacity:1"
         id="path3853"
         inkscape:connector-curvature="0" />
      <path
         d="m 1215.2936,794.58663 c 18.7422,5.7132 30.8322,13.07393 36.2701,22.08223 5.424,9.05305 6.0311,20.48465 1.8215,34.29483 -2.023,6.63595 -4.5131,11.83092 -7.4705,15.5849 -2.9127,3.76748 -6.1018,6.59319 -9.5672,8.47716 -3.4208,1.89744 -6.8207,3.16425 -10.1998,3.80043 -3.3481,0.69447 -7.0937,0.92484 -11.2367,0.6911 -7.9139,-0.4033 -15.8614,-1.82134 -23.8425,-4.25414 -17.8904,-5.45363 -30.0605,-12.47124 -36.5104,-21.05287 -6.4498,-8.58179 -7.4196,-20.27091 -2.9091,-35.06741 2.5286,-8.29508 5.8946,-14.59516 10.0982,-18.90025 4.2036,-4.30515 9.3601,-7.31523 15.4694,-9.03024 4.3562,-1.26932 9.8781,-1.61979 16.5655,-1.0514 6.7185,0.62687 13.889,2.10209 21.5115,4.42566 m -8.3501,27.15137 c -12.5547,-3.82708 -21.476,-5.34597 -26.7641,-4.55667 -5.2568,0.84773 -8.5277,3.379 -9.8125,7.59382 -0.8474,2.77991 -0.6146,5.4726 0.6984,8.0781 1.3441,2.66388 3.9801,5.10904 7.9078,7.3355 3.9141,2.27116 10.3325,4.76673 19.2553,7.48673 13.0927,3.99098 22.2226,5.54895 27.3899,4.67393 5.1983,-0.81668 8.474,-3.44446 9.8272,-7.88335 1.3804,-4.52871 0.069,-8.50579 -3.9341,-11.93124 -3.9585,-3.41191 -12.1478,-7.01084 -24.5679,-10.79682"
         style="fill:none;stroke:#000000;stroke-opacity:1"
         id="path3855"
         inkscape:connector-curvature="0" />
      <path
         d="m 1198.4651,977.79993 -92.564,-49.21882 13.6004,-25.57769 60.6539,32.25136 c -0.9448,-5.81138 -1.3555,-11.17944 -1.232,-16.10417 0.1014,-4.88345 0.8138,-10.71614 2.1371,-17.49809 l 20.7353,11.02554 c -1.8045,10.08309 -2.0269,18.53879 -0.6672,25.36713 1.3596,6.82819 4.1799,13.10591 8.461,18.83318 l -11.1245,20.92156"
         style="fill:none;stroke:#000000;stroke-opacity:1"
         id="path3857"
         inkscape:connector-curvature="0" />
      <path
         d="m 1130.7767,1072.2124 -81.5029,-65.9383 18.2204,-22.52128 53.406,43.20708 c 0.1786,-5.885 0.7972,-11.2331 1.8559,-16.0443 1.0291,-4.7748 2.8387,-10.3653 5.4288,-16.77133 l 18.2575,14.77093 c -3.6909,9.5552 -5.5188,17.814 -5.4837,24.7763 0.035,6.9621 1.6088,13.6619 4.7215,20.0994 l -14.9035,18.4215"
         style="fill:none;stroke:#000000;stroke-opacity:1"
         id="path3859"
         inkscape:connector-curvature="0" />
    </g>
  </g>
  <g
     inkscape:groupmode="layer"
     id="layer5"
     inkscape:label="Text"
     style="display:inline">
    <g
       style="font-size:144px;font-style:normal;font-variant:normal;font-weight:normal;font-stretch:normal;text-align:center;line-height:125%;letter-spacing:0px;word-spacing:0px;writing-mode:lr-tb;text-anchor:middle;fill:none;stroke:#000000;stroke-opacity:1;font-family:Arial Black;-inkscape-font-specification:'Arial Black,'"
       id="text3855"
       transform="translate(0.84375,0)">
      <path
         d="m 452.93927,1157.4672 0,104.8359 -28.96875,0 0,-68.6953 c -4.68754,3.5626 -9.23441,6.4454 -13.64062,8.6484 -4.3594,2.2032 -9.84377,4.3126 -16.45313,6.3282 l 0,-23.4844 c 9.74998,-3.1406 17.32028,-6.914 22.71094,-11.3203 5.39058,-4.4062 9.60933,-9.8437 12.65625,-16.3125 l 23.69531,0"
         id="path3860"
         inkscape:connector-curvature="0" />
      <path
         d="m 487.04083,1233.6156 30.58594,0 0,28.6875 -30.58594,0 0,-28.6875"
         id="path3862"
         inkscape:connector-curvature="0" />
      <path
         d="m 584.91583,1159.225 52.94532,0 c 11.53117,1e-4 20.15616,2.7423 25.875,8.2265 5.76553,5.4845 8.64833,13.2892 8.64843,23.4141 -10e-5,10.4063 -3.14072,18.5391 -9.42187,24.3984 -6.23446,5.8595 -15.77351,8.7891 -28.61719,8.7891 l -17.4375,0 0,38.25 -31.99219,0 0,-103.0781 m 31.99219,43.9453 7.80469,0 c 6.14057,0 10.45306,-1.0546 12.9375,-3.1641 2.48431,-2.1562 3.72649,-4.8983 3.72656,-8.2265 -7e-5,-3.2343 -1.07819,-5.9765 -3.23437,-8.2266 -2.15632,-2.2499 -6.211,-3.3749 -12.16407,-3.375 l -9.07031,0 0,22.9922"
         id="path3864"
         inkscape:connector-curvature="0" />
      <path
         d="m 688.2049,1159.225 28.6875,0 0,103.0781 -28.6875,0 0,-103.0781"
         id="path3866"
         inkscape:connector-curvature="0" />
      <path
         d="m 761.40021,1211.8187 -27.35156,-2.8828 c 1.03124,-4.7812 2.5078,-8.5312 4.42968,-11.25 1.96874,-2.7655 4.78124,-5.1562 8.4375,-7.1719 2.62498,-1.453 6.23435,-2.578 10.82813,-3.375 4.59371,-0.7968 9.56246,-1.1952 14.90625,-1.1953 8.57807,10e-5 15.46869,0.4923 20.67187,1.4766 5.20306,0.9376 9.53899,2.9297 13.00782,5.9766 2.43741,2.1094 4.35929,5.1094 5.76562,9 1.40616,3.8438 2.10929,7.5234 2.10938,11.039 l 0,32.9766 c -9e-5,3.5156 0.21084,6.2812 0.63281,8.2969 0.46866,1.9687 1.45303,4.5 2.95312,7.5937 l -26.85937,0 c -1.07819,-1.9219 -1.78131,-3.375 -2.10938,-4.3594 -0.32818,-1.0312 -0.65631,-2.625 -0.98437,-4.7812 -3.75006,3.6094 -7.47662,6.1875 -11.17969,7.7344 -5.06254,2.0624 -10.94535,3.0937 -17.64844,3.0937 -8.90627,0 -15.6797,-2.0625 -20.32031,-6.1875 -4.59376,-4.125 -6.89063,-9.2109 -6.89062,-15.2578 -10e-6,-5.6719 1.66405,-10.3359 4.99218,-13.9922 3.32811,-3.6562 9.46873,-6.375 18.42188,-8.1562 10.73433,-2.1563 17.69526,-3.6563 20.88281,-4.5 3.18745,-0.8906 6.56244,-2.0391 10.125,-3.4454 -6e-5,-3.5155 -0.72662,-5.9765 -2.17969,-7.3828 -1.45318,-1.4062 -4.00786,-2.1093 -7.66406,-2.1093 -4.68755,0 -8.20317,0.75 -10.54687,2.25 -1.82817,1.1719 -3.30473,3.375 -4.42969,6.6093 m 24.82031,15.0469 c -3.93756,1.4063 -8.03911,2.6485 -12.30469,3.7266 -5.81254,1.5469 -9.49222,3.0703 -11.03906,4.5703 -1.59378,1.5469 -2.39066,3.3047 -2.39062,5.2734 -4e-5,2.25 0.7734,4.1016 2.32031,5.5547 1.59371,1.4063 3.91402,2.1094 6.96094,2.1094 3.18745,0 6.14057,-0.7734 8.85937,-2.3203 2.76557,-1.5469 4.71088,-3.4219 5.83594,-5.625 1.17181,-2.25 1.75775,-5.1563 1.75781,-8.7188 l 0,-4.5703"
         id="path3868"
         inkscape:connector-curvature="0" />
      <path
         d="m 863.49396,1159.225 0,28.4062 15.75,0 0,20.8828 -15.75,0 0,26.5079 c -5e-5,3.1875 0.30464,5.2968 0.91406,6.3281 0.93745,1.5937 2.57808,2.3906 4.92188,2.3906 2.10932,0 5.06244,-0.6094 8.85937,-1.8281 l 2.10938,19.7578 c -7.07818,1.5469 -13.68755,2.3203 -19.82813,2.3203 -7.12503,0 -12.37503,-0.9141 -15.75,-2.7422 -3.37502,-1.8281 -5.88283,-4.5937 -7.52344,-8.2969 -1.59376,-3.7499 -2.39064,-9.7968 -2.39062,-18.1406 l 0,-26.2969 -10.54688,0 0,-20.8828 10.54688,0 0,-13.7109 28.6875,-14.6953"
         id="path3870"
         inkscape:connector-curvature="0" />
      <path
         d="m 889.5799,1187.6312 69.25781,0 0,16.7344 -37.6875,38.3906 40.00781,0 0,19.5469 -74.39062,0 0,-18.5625 35.71875,-36.5625 -32.90625,0 0,-19.5469"
         id="path3872"
         inkscape:connector-curvature="0" />
    </g>
    <path
       style="fill:none;stroke:#000000;stroke-width:1px;stroke-linecap:butt;stroke-linejoin:miter;stroke-opacity:1"
       d="m 615.56757,673.22834 140.25591,0"
       id="path3893"
       inkscape:connector-curvature="0" />
    <path
       style="fill:none;stroke:#000000;stroke-width:1px;stroke-linecap:butt;stroke-linejoin:miter;stroke-opacity:1"
       d="m 673.22833,604.65878 0,140.2559"
       id="path3895"
       inkscape:connector-curvature="0" />
  </g>
</svg>
