999
dxflib 2.0.4.8
  0
SECTION
  2
HEADER
  9
$ACADVER
  1
AC1015
  9
$HANDSEED
  5
FFFF
  9
$EXTMIN
 10
0.0
 20
0.0
 30
0.0
  9
$DIMASZ
 40
2.5
  9
$DIMGAP
 40
0.625
  9
$SPLFRAME
 70
1
  9
$FILLMODE
 70
0
  9
$EXTMAX
 10
1000.0
 20
1000.0
 30
0.0
  9
$DIMEXO
 40
0.625
  9
$INSUNITS
 70
4
  9
$DIMTXT
 40
2.5
  9
$DIMSTYLE
  2
Standard
  9
$PLIMMAX
 10
210.0
 20
297.0
  9
$PLIMMIN
 10
0.0
 20
0.0
  9
$DIMEXE
 40
1.25
  0
ENDSEC
  0
SECTION
  2
TABLES
  0
TABLE
  2
VPORT
  5
8
100
AcDbSymbolTable
 70
1
  0
VPORT
  5
30
100
AcDbSymbolTableRecord
100
AcDbViewportTableRecord
  2
*Active
 70
0
 10
0.0
 20
0.0
 11
1.0
 21
1.0
 12
286.3055555555554861
 22
148.5
 13
0.0
 23
0.0
 14
10.0
 24
10.0
 15
10.0
 25
10.0
 16
0.0
 26
0.0
 36
1.0
 17
0.0
 27
0.0
 37
0.0
 40
297.0
 41
1.92798353909465
 42
50.0
 43
0.0
 44
0.0
 50
0.0
 51
0.0
 71
0
 72
100
 73
1
 74
3
 75
1
 76
1
 77
0
 78
0
281
0
 65
1
110
0.0
120
0.0
130
0.0
111
1.0
121
0.0
131
0.0
112
0.0
122
1.0
132
0.0
 79
0
146
0.0
  0
ENDTAB
  0
TABLE
  2
LTYPE
  5
5
100
AcDbSymbolTable
 70
21
  0
LTYPE
  5
14
100
AcDbSymbolTableRecord
100
AcDbLinetypeTableRecord
  2
ByBlock
 70
0
  3

 72
65
 73
0
 40
0.0
  0
LTYPE
  5
15
100
AcDbSymbolTableRecord
100
AcDbLinetypeTableRecord
  2
ByLayer
 70
0
  3

 72
65
 73
0
 40
0.0
  0
LTYPE
  5
16
100
AcDbSymbolTableRecord
100
AcDbLinetypeTableRecord
  2
CONTINUOUS
 70
0
  3
Solid line
 72
65
 73
0
 40
0.0
  0
LTYPE
  5
31
100
AcDbSymbolTableRecord
100
AcDbLinetypeTableRecord
  2
DOT
 70
0
  3
Dot . . . . . . . . . . . . . . . . . . . . . .
 72
65
 73
2
 40
6.3499999999999996
 49
0.0
 74
0
 49
-6.3499999999999996
 74
0
  0
LTYPE
  5
32
100
AcDbSymbolTableRecord
100
AcDbLinetypeTableRecord
  2
DOT2
 70
0
  3
Dot (.5x) .....................................
 72
65
 73
2
 40
3.1749999999999998
 49
0.0
 74
0
 49
-3.1749999999999998
 74
0
  0
LTYPE
  5
33
100
AcDbSymbolTableRecord
100
AcDbLinetypeTableRecord
  2
DOTX2
 70
0
  3
Dot (2x) .  .  .  .  .  .  .  .  .  .  .  .  .
 72
65
 73
2
 40
12.6999999999999993
 49
0.0
 74
0
 49
-12.6999999999999993
 74
0
  0
LTYPE
  5
34
100
AcDbSymbolTableRecord
100
AcDbLinetypeTableRecord
  2
DASHED
 70
0
  3
Dashed __ __ __ __ __ __ __ __ __ __ __ __ __ _
 72
65
 73
2
 40
19.0500000000000007
 49
12.6999999999999993
 74
0
 49
-6.3499999999999996
 74
0
  0
LTYPE
  5
35
100
AcDbSymbolTableRecord
100
AcDbLinetypeTableRecord
  2
DASHED2
 70
0
  3
Dashed (.5x) _ _ _ _ _ _ _ _ _ _ _ _ _ _ _ _ _
 72
65
 73
2
 40
9.5250000000000004
 49
6.3499999999999996
 74
0
 49
-3.1749999999999998
 74
0
  0
LTYPE
  5
36
100
AcDbSymbolTableRecord
100
AcDbLinetypeTableRecord
  2
DASHEDX2
 70
0
  3
Dashed (2x) ____  ____  ____  ____  ____  ___
 72
65
 73
2
 40
38.1000000000000014
 49
25.3999999999999986
 74
0
 49
-12.6999999999999993
 74
0
  0
LTYPE
  5
37
100
AcDbSymbolTableRecord
100
AcDbLinetypeTableRecord
  2
DASHDOT
 70
0
  3
Dash dot __ . __ . __ . __ . __ . __ . __ . __
 72
65
 73
4
 40
25.3999999999999986
 49
12.6999999999999993
 74
0
 49
-6.3499999999999996
 74
0
 49
0.0
 74
0
 49
-6.3499999999999996
 74
0
  0
LTYPE
  5
38
100
AcDbSymbolTableRecord
100
AcDbLinetypeTableRecord
  2
DASHDOT2
 70
0
  3
Dash dot (.5x) _._._._._._._._._._._._._._._.
 72
65
 73
4
 40
12.6999999999999993
 49
6.3499999999999996
 74
0
 49
-3.1749999999999998
 74
0
 49
0.0
 74
0
 49
-3.1749999999999998
 74
0
  0
LTYPE
  5
39
100
AcDbSymbolTableRecord
100
AcDbLinetypeTableRecord
  2
DASHDOTX2
 70
0
  3
Dash dot (2x) ____  .  ____  .  ____  .  ___
 72
65
 73
4
 40
50.7999999999999972
 49
25.3999999999999986
 74
0
 49
-12.6999999999999993
 74
0
 49
0.0
 74
0
 49
-12.6999999999999993
 74
0
  0
LTYPE
  5
3A
100
AcDbSymbolTableRecord
100
AcDbLinetypeTableRecord
  2
DIVIDE
 70
0
  3
Divide ____ . . ____ . . ____ . . ____ . . ____
 72
65
 73
6
 40
31.75
 49
12.6999999999999993
 74
0
 49
-6.3499999999999996
 74
0
 49
0.0
 74
0
 49
-6.3499999999999996
 74
0
 49
0.0
 74
0
 49
-6.3499999999999996
 74
0
  0
LTYPE
  5
3B
100
AcDbSymbolTableRecord
100
AcDbLinetypeTableRecord
  2
DIVIDE2
 70
0
  3
Divide (.5x) __..__..__..__..__..__..__..__.._
 72
65
 73
6
 40
15.875
 49
6.3499999999999996
 74
0
 49
-3.1749999999999998
 74
0
 49
0.0
 74
0
 49
-3.1749999999999998
 74
0
 49
0.0
 74
0
 49
-3.1749999999999998
 74
0
  0
LTYPE
  5
3C
100
AcDbSymbolTableRecord
100
AcDbLinetypeTableRecord
  2
DIVIDEX2
 70
0
  3
Divide (2x) ________  .  .  ________  .  .  _
 72
65
 73
6
 40
63.5
 49
25.3999999999999986
 74
0
 49
-12.6999999999999993
 74
0
 49
0.0
 74
0
 49
-12.6999999999999993
 74
0
 49
0.0
 74
0
 49
-12.6999999999999993
 74
0
  0
LTYPE
  5
3D
100
AcDbSymbolTableRecord
100
AcDbLinetypeTableRecord
  2
CENTER
 70
0
  3
Center ____ _ ____ _ ____ _ ____ _ ____ _ ____
 72
65
 73
4
 40
50.7999999999999972
 49
31.75
 74
0
 49
-6.3499999999999996
 74
0
 49
6.3499999999999996
 74
0
 49
-6.3499999999999996
 74
0
  0
LTYPE
  5
3E
100
AcDbSymbolTableRecord
100
AcDbLinetypeTableRecord
  2
CENTER2
 70
0
  3
Center (.5x) ___ _ ___ _ ___ _ ___ _ ___ _ ___
 72
65
 73
4
 40
28.5749999999999993
 49
19.0500000000000007
 74
0
 49
-3.1749999999999998
 74
0
 49
3.1749999999999998
 74
0
 49
-3.1749999999999998
 74
0
  0
LTYPE
  5
3F
100
AcDbSymbolTableRecord
100
AcDbLinetypeTableRecord
  2
CENTERX2
 70
0
  3
Center (2x) ________  __  ________  __  _____
 72
65
 73
4
 40
101.5999999999999943
 49
63.5
 74
0
 49
-12.6999999999999993
 74
0
 49
12.6999999999999993
 74
0
 49
-12.6999999999999993
 74
0
  0
LTYPE
  5
40
100
AcDbSymbolTableRecord
100
AcDbLinetypeTableRecord
  2
BORDER
 70
0
  3
Border __ __ . __ __ . __ __ . __ __ . __ __ .
 72
65
 73
6
 40
44.4500000000000028
 49
12.6999999999999993
 74
0
 49
-6.3499999999999996
 74
0
 49
12.6999999999999993
 74
0
 49
-6.3499999999999996
 74
0
 49
0.0
 74
0
 49
-6.3499999999999996
 74
0
  0
LTYPE
  5
41
100
AcDbSymbolTableRecord
100
AcDbLinetypeTableRecord
  2
BORDER2
 70
0
  3
Border (.5x) __.__.__.__.__.__.__.__.__.__.__.
 72
65
 73
6
 40
22.2250000000000014
 49
6.3499999999999996
 74
0
 49
-3.1749999999999998
 74
0
 49
6.3499999999999996
 74
0
 49
-3.1749999999999998
 74
0
 49
0.0
 74
0
 49
-3.1749999999999998
 74
0
  0
LTYPE
  5
42
100
AcDbSymbolTableRecord
100
AcDbLinetypeTableRecord
  2
BORDERX2
 70
0
  3
Border (2x) ____  ____  .  ____  ____  .  ___
 72
65
 73
6
 40
88.9000000000000057
 49
25.3999999999999986
 74
0
 49
-12.6999999999999993
 74
0
 49
25.3999999999999986
 74
0
 49
-12.6999999999999993
 74
0
 49
0.0
 74
0
 49
-12.6999999999999993
 74
0
  0
ENDTAB
  0
TABLE
  2
LAYER
  5
2
100
AcDbSymbolTable
 70
3
  0
LAYER
  5
10
100
AcDbSymbolTableRecord
100
AcDbLayerTableRecord
  2
0
 70
0
 62
7
  6
CONTINUOUS
390
F
  0
LAYER
  5
43
100
AcDbSymbolTableRecord
100
AcDbLayerTableRecord
  2
Hilf
 70
0
 62
4
  6
CONTINUOUS
370
0
390
F
  0
LAYER
  5
44
100
AcDbSymbolTableRecord
100
AcDbLayerTableRecord
  2
Aussen
 70
0
 62
7
  6
CONTINUOUS
370
0
390
F
  0
ENDTAB
  0
TABLE
  2
STYLE
  5
3
100
AcDbSymbolTable
 70
1
  0
STYLE
  5
11
100
AcDbSymbolTableRecord
100
AcDbTextStyleTableRecord
  2
Standard
 70
0
 40
0.0
 41
0.75
 50
0.0
 71
0
 42
2.5
  3
txt
  4

  0
ENDTAB
  0
TABLE
  2
VIEW
  5
6
100
AcDbSymbolTable
 70
0
  0
ENDTAB
  0
TABLE
  2
UCS
  5
7
100
AcDbSymbolTable
 70
0
  0
ENDTAB
  0
TABLE
  2
APPID
  5
9
100
AcDbSymbolTable
 70
1
  0
APPID
  5
12
100
AcDbSymbolTableRecord
100
AcDbRegAppTableRecord
  2
ACAD
 70
0
  0
ENDTAB
  0
TABLE
  2
DIMSTYLE
  5
A
100
AcDbSymbolTable
 70
1
100
AcDbDimStyleTable
 71
0
  0
DIMSTYLE
105
27
100
AcDbSymbolTableRecord
100
AcDbDimStyleTableRecord
  2
Standard
 41
2.5
 42
0.625
 43
3.75
 44
1.25
 70
0
 73
0
 74
0
 77
1
 78
8
140
2.5
141
2.5
143
0.03937007874016
147
0.625
171
3
172
1
271
2
272
2
274
3
278
44
283
0
284
8
340
11
  0
ENDTAB
  0
TABLE
  2
BLOCK_RECORD
  5
1
100
AcDbSymbolTable
 70
1
  0
BLOCK_RECORD
  5
1F
100
AcDbSymbolTableRecord
100
AcDbBlockTableRecord
  2
*Model_Space
340
22
  0
BLOCK_RECORD
  5
1B
100
AcDbSymbolTableRecord
100
AcDbBlockTableRecord
  2
*Paper_Space
340
1E
  0
BLOCK_RECORD
  5
23
100
AcDbSymbolTableRecord
100
AcDbBlockTableRecord
  2
*Paper_Space0
340
26
  0
ENDTAB
  0
ENDSEC
  0
SECTION
  2
BLOCKS
  0
BLOCK
  5
20
100
AcDbEntity
  8
0
100
AcDbBlockBegin
  2
*Model_Space
 70
0
 10
0.0
 20
0.0
 30
0.0
  3
*Model_Space
  1

  0
ENDBLK
  5
21
100
AcDbEntity
  8
0
100
AcDbBlockEnd
  0
BLOCK
  5
1C
100
AcDbEntity
 67
1
  8
0
100
AcDbBlockBegin
  2
*Paper_Space
 70
0
 10
0.0
 20
0.0
 30
0.0
  3
*Paper_Space
  1

  0
ENDBLK
  5
1D
100
AcDbEntity
 67
1
  8
0
100
AcDbBlockEnd
  0
BLOCK
  5
24
100
AcDbEntity
  8
0
100
AcDbBlockBegin
  2
*Paper_Space0
 70
0
 10
0.0
 20
0.0
 30
0.0
  3
*Paper_Space0
  1

  0
ENDBLK
  5
25
100
AcDbEntity
  8
0
100
AcDbBlockEnd
  0
ENDSEC
  0
SECTION
  2
ENTITIES
  0
LWPOLYLINE
  5
45
  8
0
 62
0
370
-1
  6
ByLayer
100
AcDbEntity
100
AcDbPolyline
 90
16
 70
0
 10
43.4894999999999925
 20
98.5065000000000026
 10
36.9372499999999988
 20
110.7490000000000094
 10
35.541249999999998
 20
114.4992500000000035
 10
35.637750000000004
 20
117.7489999999999952
 10
36.2194999999999965
 20
119.1867500000000035
 10
37.1377499999999969
 20
120.4832499999999982
 10
38.3909999999999982
 20
121.6360000000000099
 10
39.9810000000000016
 20
122.6467499999999973
 10
43.4867500000000007
 20
123.8224999999999909
 10
46.7882499999999979
 20
123.4877500000000055
 10
49.7749999999999986
 20
121.568499999999986
 10
52.3615000000000066
 20
117.9579999999999984
 10
54.5195000000000007
 20
113.9267499999999984
 10
63.3624999999999972
 20
118.660499999999999
 10
67.3217499999999944
 20
111.2632499999999993
 10
43.4894999999999925
 20
98.5065000000000026
  0
LWPOLYLINE
  5
46
  8
0
 62
0
370
-1
  6
ByLayer
100
AcDbEntity
100
AcDbPolyline
 90
12
 70
0
 10
49.6905000000000001
 20
111.3417499999999905
 10
48.7250000000000085
 20
113.1470000000000056
 10
47.5707500000000039
 20
114.8614999999999782
 10
46.3919999999999959
 20
115.7457499999999868
 10
45.1957499999999968
 20
115.9382499999999823
 10
44.0294999999999987
 20
115.5894999999999868
 10
43.0920000000000059
 20
114.8492499999999836
 10
42.5277499999999975
 20
113.8235000000000099
 10
42.5185000000000031
 20
112.4337500000000034
 10
43.2520000000000095
 20
110.5944999999999965
 10
44.3752500000000012
 20
108.4962500000000034
 10
49.6905000000000001
 20
111.3417499999999905
  0
LWPOLYLINE
  5
47
  8
0
 62
0
370
-1
  6
ByLayer
100
AcDbEntity
100
AcDbPolyline
 90
5
 70
0
 10
29.9492499999999993
 20
126.0930000000000177
 10
27.327499999999997
 20
133.1447499999999877
 10
52.6652500000000003
 20
142.5659999999999741
 10
55.2872500000000002
 20
135.5142499999999757
 10
29.9492499999999993
 20
126.0930000000000177
  0
LWPOLYLINE
  5
48
  8
0
 62
0
370
-1
  6
ByLayer
100
AcDbEntity
100
AcDbPolyline
 90
31
 70
0
 10
38.2607500000000016
 20
166.4957500000000152
 10
41.6340000000000003
 20
151.8322499999999877
 10
43.0920000000000059
 20
152.5230000000000246
 10
44.0390000000000015
 20
153.3882499999999993
 10
44.6872499999999988
 20
154.8247499999999945
 10
44.6422499999999971
 20
156.4412499999999966
 10
44.2652499999999947
 20
157.4625000000000057
 10
43.6319999999999979
 20
158.3660000000000139
 10
42.1347499999999968
 20
159.3642499999999984
 10
41.1417499999999947
 20
166.7235000000000014
 10
44.0310000000000059
 20
165.4677499999999952
 10
46.1927500000000038
 20
163.6840000000000259
 10
47.7757499999999951
 20
161.055499999999995
 10
48.9747500000000002
 20
157.26724999999999
 10
49.487249999999996
 20
153.819500000000005
 10
49.2865000000000038
 20
151.0564999999999998
 10
48.3547500000000099
 20
148.748250000000013
 10
46.7204999999999941
 20
146.6634999999999991
 10
44.4267499999999984
 20
145.0155000000000314
 10
41.5662499999999966
 20
143.9832499999999982
 10
37.3534999999999968
 20
143.7677499999999782
 10
33.6670000000000016
 20
145.1752500000000055
 10
30.8052500000000009
 20
148.1172499999999843
 10
29.0772499999999994
 20
152.4632500000000164
 10
28.5440000000000005
 20
156.2009999999999934
 10
28.8289999999999971
 20
159.2177499999999952
 10
29.866500000000002
 20
161.65625
 10
31.5917500000000047
 20
163.6554999999999893
 10
34.0859999999999985
 20
165.210000000000008
 10
37.4347500000000011
 20
166.3060000000000116
 10
38.2607500000000016
 20
166.4957500000000152
  0
LWPOLYLINE
  5
49
  8
0
 62
0
370
-1
  6
ByLayer
100
AcDbEntity
100
AcDbPolyline
 90
10
 70
0
 10
36.4677499999999952
 20
158.2507500000000107
 10
34.7385000000000019
 20
157.4367499999999893
 10
33.6955000000000027
 20
156.4019999999999868
 10
33.2519999999999953
 20
155.1797500000000127
 10
33.3374999999999986
 20
153.7652500000000089
 10
34.044000000000004
 20
152.2775000000000034
 10
35.3625000000000043
 20
151.2980000000000018
 10
36.5599999999999952
 20
151.0010000000000048
 10
38.1252500000000012
 20
151.0444999999999993
 10
36.4677499999999952
 20
158.2507500000000107
  0
LWPOLYLINE
  5
4A
  8
0
 62
0
370
-1
  6
ByLayer
100
AcDbEntity
100
AcDbPolyline
 90
27
 70
0
 10
18.1477749999999993
 20
178.6252500000000225
 10
25.5722500000000039
 20
179.2319999999999709
 10
25.2359999999999971
 20
183.3482499999999789
 10
30.6939999999999991
 20
183.7944999999999709
 10
31.0302499999999952
 20
179.6782499999999914
 10
37.9582499999999996
 20
180.2437499999999773
 10
38.9919999999999973
 20
180.3889999999999816
 10
39.5927499999999952
 20
180.617999999999995
 10
40.0202499999999972
 20
181.1617500000000121
 10
40.1135000000000019
 20
181.9552500000000066
 10
39.9115000000000038
 20
182.9384999999999764
 10
39.4462499999999991
 20
184.2312499999999886
 10
44.5652499999999989
 20
185.2052499999999782
 10
45.2392499999999984
 20
182.5589999999999975
 10
45.5944999999999965
 20
180.071249999999992
 10
45.6135000000000019
 20
177.6312499999999943
 10
45.2149999999999963
 20
175.8965000000000032
 10
44.4079999999999941
 20
174.6705000000000041
 10
43.2077500000000043
 20
173.7535000000000025
 10
41.3235000000000099
 20
173.1282500000000084
 10
38.5159999999999982
 20
172.7402499999999748
 10
31.6432499999999983
 20
172.1787499999999795
 10
31.8684999999999974
 20
169.4230000000000018
 10
26.410499999999999
 20
168.9764999999999873
 10
26.1840000000000046
 20
171.7340000000000089
 10
22.6006250000000009
 20
171.4410000000000309
 10
18.1477749999999993
 20
178.6252500000000225
  0
LWPOLYLINE
  5
4B
  8
0
 62
0
370
-1
  6
ByLayer
100
AcDbEntity
100
AcDbPolyline
 90
11
 70
0
 10
25.0177499999999995
 20
188.6297500000000014
 10
25.9060000000000024
 20
206.7707500000000209
 10
30.289749999999998
 20
206.5564999999999714
 10
39.8614999999999995
 20
196.192750000000018
 10
40.3752500000000083
 20
206.6720000000000255
 10
45.4954999999999998
 20
206.4207500000000266
 10
44.5404999999999944
 20
186.9357499999999845
 10
39.6782499999999985
 20
187.1732499999999959
 10
30.5594999999999999
 20
196.998250000000013
 10
30.137750000000004
 20
188.3787499999999966
 10
25.0177499999999995
 20
188.6297500000000014
  0
LWPOLYLINE
  5
4C
  8
0
 62
0
370
-1
  6
ByLayer
100
AcDbEntity
100
AcDbPolyline
 90
52
 70
0
 10
34.3179999999999978
 20
218.9875000000000114
 10
32.0854999999999961
 20
212.1285000000000025
 10
30.5460000000000029
 20
212.9609999999999843
 10
29.4407499999999978
 20
213.8795000000000073
 10
28.6445000000000007
 20
215.0104999999999791
 10
28.0625000000000036
 20
216.4347499999999798
 10
27.8212499999999991
 20
217.7410000000000139
 10
27.7872500000000002
 20
219.3967499999999688
 10
28.2944999999999993
 20
223.2855000000000132
 10
29.0229999999999997
 20
226.2409999999999854
 10
29.8027499999999961
 20
228.5077499999999873
 10
30.7562500000000014
 20
230.2232500000000073
 10
32.0447500000000005
 20
231.51724999999999
 10
33.2057499999999948
 20
232.1480000000000246
 10
34.6692500000000052
 20
232.5044999999999789
 10
36.2019999999999982
 20
232.602499999999992
 10
37.6152499999999961
 20
232.4437500000000227
 10
46.0732499999999945
 20
230.64224999999999
 10
47.2899999999999991
 20
230.4267499999999984
 10
48.2367500000000007
 20
230.3519999999999754
 10
49.160499999999999
 20
230.44825000000003
 10
50.3457500000000024
 20
230.6952499999999873
 10
48.8795000000000002
 20
223.8052500000000009
 10
47.6454999999999984
 20
223.5027500000000487
 10
46.3662499999999937
 20
223.5107499999999732
 10
47.2492499999999964
 20
221.819500000000005
 10
47.7389999999999901
 20
220.2214999999999634
 10
47.8855000000000004
 20
217.98924999999997
 10
47.5694999999999979
 20
215.5247500000000116
 10
47.1260000000000048
 20
213.9365000000000236
 10
46.5305000000000035
 20
212.59375
 10
45.7792499999999976
 20
211.4990000000000236
 10
44.8730000000000047
 20
210.6514999999999986
 10
42.8180000000000049
 20
209.7032500000000255
 10
40.5829999999999984
 20
209.7167499999999905
 10
38.6625000000000014
 20
210.4599999999999795
 10
37.2667499999999947
 20
211.7607500000000016
 10
36.7729999999999961
 20
212.6777500000000032
 10
36.4269999999999925
 20
213.8439999999999941
 10
36.2292500000000075
 20
215.2627499999999827
 10
36.1802500000000009
 20
216.9312500000000341
 10
36.2007499999999993
 20
220.48599999999999
 10
36.1667500000000004
 20
222.5339999999999918
 10
35.8357499999999973
 20
225.3187499999999943
 10
34.6557500000000047
 20
225.4247499999999889
 10
33.8230000000000004
 20
225.1627500000000168
 10
33.2519999999999953
 20
224.4792499999999791
 10
32.8627500000000055
 20
223.3115000000000236
 10
32.6715000000000018
 20
221.7042499999999734
 10
32.8639999999999972
 20
220.4832500000000266
 10
33.3767500000000013
 20
219.7105000000000246
 10
34.3179999999999978
 20
218.9875000000000114
  0
LWPOLYLINE
  5
4D
  8
0
 62
0
370
-1
  6
ByLayer
100
AcDbEntity
100
AcDbPolyline
 90
16
 70
0
 10
39.5319999999999965
 20
224.5319999999999823
 10
39.816749999999999
 20
221.1724999999999852
 10
40.0172499999999971
 20
219.220499999999987
 10
40.3859999999999957
 20
218.0910000000000082
 10
40.9232499999999959
 20
217.49675000000002
 10
41.6082499999999982
 20
217.1902499999999918
 10
42.4287499999999937
 20
217.1712499999999864
 10
43.1599999999999966
 20
217.4819999999999993
 10
43.725750000000005
 20
218.1492500000000234
 10
44.0810000000000031
 20
219.1527499999999691
 10
43.9697500000000048
 20
221.5507500000000505
 10
43.5032499999999942
 20
222.5979999999999848
 10
42.8454999999999941
 20
223.3547499999999957
 10
41.9242500000000007
 20
223.9055000000000177
 10
40.7047500000000042
 20
224.2827500000000214
 10
39.5319999999999965
 20
224.5319999999999823
  0
LWPOLYLINE
  5
4E
  8
0
 62
0
370
-1
  6
ByLayer
100
AcDbEntity
100
AcDbPolyline
 90
45
 70
0
 10
49.9052499999999952
 20
250.5575000000000045
 10
53.3364999999999938
 20
256.86749999999995
 10
54.9749999999999943
 20
255.3650000000000375
 10
56.1984999999999957
 20
253.6200000000000045
 10
56.9579999999999984
 20
251.6574999999999989
 10
57.2439999999999927
 20
249.4749999999999659
 10
56.9822500000000005
 20
247.0257500000000164
 10
56.0872499999999974
 20
244.2140000000000271
 10
54.8815000000000097
 20
241.6189999999999998
 10
53.6052500000000123
 20
239.6090000000000373
 10
52.1730000000000018
 20
238.1157500000000198
 10
50.5250000000000057
 20
237.0169999999999959
 10
48.7072500000000019
 20
236.3172500000000298
 10
46.8087500000000034
 20
235.9972500000000082
 10
44.680499999999995
 20
236.17349999999999
 10
42.183250000000001
 20
236.9562500000000114
 10
39.7122499999999974
 20
238.2365000000000066
 10
37.9054999999999964
 20
239.8032499999999629
 10
36.9465000000000003
 20
241.1580000000000155
 10
36.237249999999996
 20
242.7082500000000209
 10
35.7829999999999941
 20
244.3249999999999886
 10
35.6257499999999965
 20
245.8605000000000018
 10
35.9375
 20
248.4360000000000355
 10
36.9002499999999998
 20
251.4124999999999943
 10
38.8819999999999979
 20
255.1650000000000205
 10
41.2312500000000028
 20
257.5349999999999682
 10
43.9939999999999998
 20
258.7350000000000136
 10
47.2100000000000009
 20
258.9325000000000045
 10
45.4292500000000032
 20
252.035000000000025
 10
44.2354999999999947
 20
252.0125000000000171
 10
43.2292500000000075
 20
251.6125000000000114
 10
42.3975000000000009
 20
250.8525000000000205
 10
41.7507499999999965
 20
249.6854999999999905
 10
41.4292499999999961
 20
247.9964999999999975
 10
41.8632500000000007
 20
246.3769999999999811
 10
43.0910000000000011
 20
244.9545000000000243
 10
45.1752499999999984
 20
243.8002500000000055
 10
47.2520000000000024
 20
243.2685000000000173
 10
49.0060000000000002
 20
243.48275000000001
 10
50.3662500000000009
 20
244.3347499999999854
 10
51.2627499999999969
 20
245.7110000000000127
 10
51.5952500000000072
 20
247.0392499999999814
 10
51.4892499999999984
 20
248.2855000000000132
 10
50.933250000000001
 20
249.4657500000000141
 10
49.9052499999999952
 20
250.5575000000000045
  0
LWPOLYLINE
  5
4F
  8
0
 62
0
370
-1
  6
ByLayer
100
AcDbEntity
100
AcDbPolyline
 90
27
 70
0
 10
38.2392499999999984
 20
271.2450000000000045
 10
42.247249999999994
 20
277.5900000000000318
 10
50.6644999999999968
 20
272.2699999999999818
 10
50.329500000000003
 20
274.2875000000000227
 10
50.3730000000000047
 20
276.0550000000000068
 10
50.8205000000000098
 20
277.7224999999999682
 10
51.7062499999999972
 20
279.4424999999999955
 10
52.5784999999999911
 20
280.6074999999999591
 10
53.5604999999999976
 20
281.5049999999999955
 10
54.6510000000000034
 20
282.1424999999999841
 10
55.8525000000000063
 20
282.5175000000000409
 10
58.5559999999999974
 20
282.3774999999999977
 10
61.6304999999999978
 20
280.9599999999999795
 10
72.1517500000000069
 20
274.3100000000000023
 10
68.1232499999999987
 20
267.9350000000000023
 10
59.0197500000000019
 20
273.6875
 10
57.5997500000000073
 20
274.3849999999999909
 10
56.4577499999999972
 20
274.5
 10
55.5270000000000081
 20
274.1175000000000068
 10
54.7785000000000011
 20
273.2924999999999613
 10
54.3359999999999914
 20
272.1100000000000136
 10
54.4690000000000012
 20
270.8700000000000045
 10
55.3492500000000049
 20
269.5625
 10
57.149249999999995
 20
268.1725000000000136
 10
65.0999999999999943
 20
263.1499999999999773
 10
61.0904999999999987
 20
256.8050000000000068
 10
38.2392499999999984
 20
271.2450000000000045
  0
LWPOLYLINE
  5
50
  8
0
 62
0
370
-1
  6
ByLayer
100
AcDbEntity
100
AcDbPolyline
 90
14
 70
0
 10
65.9492500000000064
 20
308.8625000000000114
 10
74.3952500000000043
 20
315.8924999999999841
 10
88.1782500000000056
 20
305.9674999999999727
 10
80.9000000000000057
 20
321.3100000000000023
 10
89.3172500000000014
 20
328.3174999999999955
 10
106.6135000000000019
 20
307.5425000000000182
 10
101.3697499999999962
 20
303.1775000000000091
 10
88.1794999999999902
 20
319.0199999999999818
 10
97.3019999999999925
 20
299.7899999999999636
 10
92.5552500000000009
 20
295.8400000000000318
 10
75.3117500000000035
 20
308.3075000000000045
 10
88.5024999999999977
 20
292.4650000000000318
 10
83.2437500000000057
 20
288.0874999999999773
 10
65.9492500000000064
 20
308.8625000000000114
  0
LWPOLYLINE
  5
51
  8
0
 62
0
370
-1
  6
ByLayer
100
AcDbEntity
100
AcDbPolyline
 90
51
 70
0
 10
111.0349999999999966
 20
324.6999999999999886
 10
104.3104999999999905
 20
322.0924999999999727
 10
103.9809999999999945
 20
323.8125
 10
103.9944999999999879
 20
325.2474999999999454
 10
104.3672499999999843
 20
326.5800000000000409
 10
105.1025000000000063
 20
327.9325000000000045
 10
105.9609999999999985
 20
328.9449999999999932
 10
107.2240000000000038
 20
330.0175000000000409
 10
110.5577499999999986
 20
332.0824999999999818
 10
113.3070000000000022
 20
333.3899999999999864
 10
115.5559999999999832
 20
334.2175000000000296
 10
117.4872500000000031
 20
334.5625
 10
119.3062499999999915
 20
334.3824999999999363
 10
120.5282499999999999
 20
333.8824999999999932
 10
121.7297499999999957
 20
332.9750000000000227
 10
123.5457499999999982
 20
330.652499999999975
 10
127.4982499999999987
 20
322.9624999999999773
 10
128.100750000000005
 20
321.8824999999999363
 10
128.6417500000000018
 20
321.1025000000000205
 10
129.2997500000000173
 20
320.4474999999999909
 10
130.2410000000000139
 20
319.6850000000000023
 10
123.9759999999999991
 20
316.464999999999975
 10
122.9614999999999867
 20
317.2274999999999636
 10
122.1582500000000095
 20
318.2275000000000205
 10
121.4055000000000177
 20
316.4724999999999682
 10
120.4779999999999802
 20
315.0825000000000387
 10
118.8410000000000082
 20
313.5574999999999477
 10
116.7329999999999899
 20
312.2450000000000045
 10
115.2207500000000095
 20
311.5825000000000387
 10
113.8034999999999997
 20
311.19500000000005
 10
112.4795000000000016
 20
311.0849999999999795
 10
111.2507499999999823
 20
311.25
 10
109.2177499999999952
 20
312.2450000000000045
 10
107.815250000000006
 20
313.9825000000000159
 10
107.1749999999999972
 20
315.9424999999999955
 10
107.3010000000000019
 20
317.8450000000000273
 10
108.384750000000011
 20
319.8125
 10
110.6202499999999986
 20
321.9574999999999818
 10
112.1542500000000189
 20
323.1875
 10
113.3872499999999945
 20
324.1874999999999432
 10
114.3187499999999943
 20
324.9625000000000341
 10
114.9519999999999982
 20
325.5099999999999909
 10
116.9000000000000057
 20
327.527499999999975
 10
116.2355000000000018
 20
328.5074999999999932
 10
115.507000000000005
 20
328.9875000000000114
 10
114.6160000000000139
 20
328.9974999999999454
 10
113.4669999999999987
 20
328.5625
 10
112.0985000000000014
 20
327.6949999999999932
 10
111.2767499999999927
 20
326.7725000000000364
 10
111.001499999999993
 20
325.8849999999999909
 10
111.0349999999999966
 20
324.6999999999999886
  0
LWPOLYLINE
  5
52
  8
0
 62
0
370
-1
  6
ByLayer
100
AcDbEntity
100
AcDbPolyline
 90
17
 70
0
 10
118.627750000000006
 20
324.1649999999999636
 10
116.2055000000000149
 20
321.82000000000005
 10
114.8207500000000039
 20
320.4325000000000045
 10
114.1792499999999961
 20
319.4325000000000045
 10
114.0570000000000164
 20
318.6399999999999864
 10
114.2537499999999966
 20
317.9149999999999636
 10
114.757000000000005
 20
317.2674999999999841
 10
115.4607500000000044
 20
316.8974999999999795
 10
116.3344999999999914
 20
316.8799999999999955
 10
117.3367499999999808
 20
317.2400000000000091
 10
118.3402499999999833
 20
317.9275000000000091
 10
119.1242499999999893
 20
318.8449999999999704
 10
119.6410000000000053
 20
319.8675000000000068
 10
119.8122500000000059
 20
320.8549999999999613
 10
119.654500000000013
 20
321.9149999999999636
 10
119.1760000000000019
 20
323.1000000000000227
 10
118.627750000000006
 20
324.1649999999999636
  0
LWPOLYLINE
  5
53
  8
0
 62
0
370
-1
  6
ByLayer
100
AcDbEntity
100
AcDbPolyline
 90
5
 70
0
 10
102.373500000000007
 20
335.339999999999975
 10
106.6365000000000123
 20
337.5325000000000273
 10
108.7444999999999879
 20
333.4325000000000614
 10
104.4797499999999957
 20
331.2399999999999523
 10
102.373500000000007
 20
335.339999999999975
  0
LWPOLYLINE
  5
54
  8
0
 62
0
370
-1
  6
ByLayer
100
AcDbEntity
100
AcDbPolyline
 90
5
 70
0
 10
109.3259999999999934
 20
338.9150000000000205
 10
113.6392499999999757
 20
341.1299999999999955
 10
115.747249999999994
 20
337.0324999999999704
 10
111.4340000000000117
 20
334.8149999999999409
 10
109.3259999999999934
 20
338.9150000000000205
  0
LWPOLYLINE
  5
55
  8
0
 62
0
370
-1
  6
ByLayer
100
AcDbEntity
100
AcDbPolyline
 90
29
 70
0
 10
128.038250000000005
 20
339.7325000000000159
 10
134.7329999999999757
 20
341.7374999999999545
 10
135.6485000000000127
 20
338.6800000000000068
 10
136.6780000000000257
 20
340.7350000000000136
 10
137.8877499999999827
 20
342.25750000000005
 10
139.4097500000000025
 20
343.3774999999999977
 10
141.3885000000000218
 20
344.1924999999999955
 10
142.8329999999999984
 20
344.5050000000000523
 10
144.1797500000000127
 20
344.5425000000000182
 10
145.4320000000000164
 20
344.3125000000000568
 10
146.5860000000000127
 20
343.80499999999995
 10
147.6292499999999848
 20
343.0250000000000341
 10
148.5322500000000332
 20
341.9350000000000023
 10
149.2974999999999852
 20
340.5400000000000205
 10
149.9225000000000136
 20
338.8374999999999773
 10
153.4937500000000057
 20
326.9149999999999636
 10
146.2702500000000043
 20
324.75
 10
143.1802500000000009
 20
335.0674999999999955
 10
142.5659999999999741
 20
336.5225000000000364
 10
141.7804999999999893
 20
337.3624999999999545
 10
140.8269999999999982
 20
337.6825000000000045
 10
139.720499999999987
 20
337.5525000000000091
 10
138.6107499999999959
 20
336.9499999999999886
 10
137.897500000000008
 20
335.9274999999999523
 10
137.7007499999999709
 20
334.3649999999999523
 10
138.1482499999999902
 20
332.1349999999999909
 10
140.8474999999999966
 20
323.125
 10
133.6589999999999918
 20
320.972500000000025
 10
128.038250000000005
 20
339.7325000000000159
  0
LWPOLYLINE
  5
56
  8
0
 62
0
370
-1
  6
ByLayer
100
AcDbEntity
100
AcDbPolyline
 90
29
 70
0
 10
155.8622500000000173
 20
347.2775000000000318
 10
162.8092499999999916
 20
348.0349999999999682
 10
163.1537500000000023
 20
344.8624999999999545
 10
164.5400000000000205
 20
346.6949999999999932
 10
166.0062500000000227
 20
347.9725000000000819
 10
167.7055000000000007
 20
348.7975000000000136
 10
169.8009999999999877
 20
349.2350000000000136
 10
171.2767499999999927
 20
349.2824999999999704
 10
172.6099999999999852
 20
349.0774999999999864
 10
173.7982499999999959
 20
348.6175000000000068
 10
174.8412500000000023
 20
347.9099999999999682
 10
175.7242499999999836
 20
346.9524999999999864
 10
176.4144999999999754
 20
345.7175000000000296
 10
176.9124999999999943
 20
344.2074999999999818
 10
177.2177500000000236
 20
342.4199999999999591
 10
178.5617500000000177
 20
330.0450000000000159
 10
171.0640000000000214
 20
329.2324999999999591
 10
169.9014999999999986
 20
339.9375
 10
169.5625
 20
341.4824999999999591
 10
168.9427499999999895
 20
342.4500000000000455
 10
168.0635000000000332
 20
342.9399999999999409
 10
166.9527500000000373
 20
343.0124999999999318
 10
165.7509999999999764
 20
342.6225000000000023
 10
164.8642499999999984
 20
341.7475000000000591
 10
164.3882499999999709
 20
340.2425000000000068
 10
164.4204999999999757
 20
337.9700000000000273
 10
165.4350000000000023
 20
328.6225000000000591
 10
157.9752499999999884
 20
327.8125
 10
155.8622500000000173
 20
347.2775000000000318
  0
LWPOLYLINE
  5
57
  8
0
 62
0
370
-1
  6
ByLayer
100
AcDbEntity
100
AcDbPolyline
 90
30
 70
0
 10
205.3805000000000121
 20
336.4650000000000318
 10
190.3725000000000023
 20
337.5450000000000159
 10
190.6045000000000016
 20
335.9475000000000477
 10
191.1552499999999668
 20
334.7875000000000227
 10
192.336749999999995
 20
333.7475000000000023
 10
193.8952499999999759
 20
333.3149999999999977
 10
196.03125
 20
333.7174999999999727
 10
197.4269999999999925
 20
334.8550000000000182
 10
204.7527500000000487
 20
333.6449999999999818
 10
202.7029999999999745
 20
331.25
 10
200.3650000000000091
 20
329.7075000000000387
 10
197.3850000000000193
 20
328.9650000000000318
 10
193.4134999999999991
 20
328.9324999999999477
 10
189.9660000000000082
 20
329.4550000000000409
 10
187.3860000000000241
 20
330.4574999999999818
 10
185.4507499999999993
 20
332.0249999999999773
 10
183.9395000000000095
 20
334.1974999999999909
 10
183.036500000000018
 20
336.875
 10
182.8900000000000148
 20
339.9125000000000227
 10
183.9180000000000064
 20
344.0024999999999977
 10
186.3472500000000025
 20
347.1150000000000091
 10
189.9982499999999845
 20
348.9850000000000136
 10
194.6614999999999895
 20
349.3600000000000136
 10
198.3899999999999864
 20
348.777499999999975
 10
201.1922500000000014
 20
347.6175000000000068
 10
203.217250000000007
 20
345.910000000000025
 10
204.6234999999999786
 20
343.6750000000000114
 10
205.376499999999993
 20
340.8324999999999818
 10
205.4417499999999848
 20
337.3100000000000023
 10
205.3805000000000121
 20
336.4650000000000318
  0
LWPOLYLINE
  5
58
  8
0
 62
0
370
-1
  6
ByLayer
100
AcDbEntity
100
AcDbPolyline
 90
10
 70
0
 10
198.0250000000000341
 20
340.6000000000000227
 10
197.7537499999999966
 20
342.4925000000000637
 10
197.0714999999999861
 20
343.7925000000000182
 10
196.03125
 20
344.5749999999999318
 10
194.6560000000000059
 20
344.9074999999999704
 10
193.024249999999995
 20
344.6699999999999591
 10
191.703000000000003
 20
343.6974999999999909
 10
191.0670000000000073
 20
342.6400000000000432
 10
190.649249999999995
 20
341.1299999999999955
 10
198.0250000000000341
 20
340.6000000000000227
  0
LWPOLYLINE
  5
59
  8
0
 62
0
370
-1
  6
ByLayer
100
AcDbEntity
100
AcDbPolyline
 90
19
 70
0
 10
212.649249999999995
 20
346.7624999999999318
 10
219.5
 20
345.2049999999999841
 10
218.7892499999999814
 20
342.0774999999999864
 10
220.1810000000000116
 20
343.5625
 10
221.4545000000000528
 20
344.402499999999975
 10
222.7672500000000184
 20
344.714999999999975
 10
224.2377500000000055
 20
344.5824999999999818
 10
225.873500000000007
 20
343.9474999999999909
 10
227.5500000000000114
 20
342.7699999999999818
 10
224.0992500000000121
 20
338.07000000000005
 10
223.0304999999999893
 20
338.7400000000000091
 10
222.171750000000003
 20
339.0749999999999886
 10
220.8277499999999804
 20
339.0699999999999363
 10
219.67349999999999
 20
338.3975000000000364
 10
218.27800000000002
 20
336.1899999999999977
 10
217.1184999999999832
 20
332.3949999999999818
 10
215.66274999999996
 20
325.9950000000000045
 10
208.3089999999999975
 20
327.6675000000000182
 10
212.649249999999995
 20
346.7624999999999318
  0
LWPOLYLINE
  5
5A
  8
0
 62
0
370
-1
  6
ByLayer
100
AcDbEntity
100
AcDbPolyline
 90
13
 70
0
 10
235.5412499999999909
 20
348.785000000000025
 10
242.6962500000000205
 20
346.0175000000000409
 10
237.6654999999999802
 20
333.0150000000000432
 10
245.2365000000000066
 20
337.0449999999999591
 10
253.852499999999992
 20
333.7124999999999773
 10
244.8242500000000064
 20
329.8500000000000227
 10
247.1639999999999873
 20
315.3025000000000091
 10
239.2702500000000043
 20
318.3574999999999591
 10
238.4072499999999764
 20
327.1125000000000114
 10
234.7777499999999691
 20
325.5525000000000091
 10
232.941250000000025
 20
320.8050000000000068
 10
225.788250000000005
 20
323.5724999999999909
 10
235.5412499999999909
 20
348.785000000000025
  0
LWPOLYLINE
  5
5B
  8
0
 62
0
370
-1
  6
ByLayer
100
AcDbEntity
100
AcDbPolyline
 90
19
 70
0
 10
252.2574999999999932
 20
323.4274999999999523
 10
255.0024999999999977
 20
326.5449999999999591
 10
258.6374999999999886
 20
328.2049999999999272
 10
262.8100000000000023
 20
328.2574999999999932
 10
267.1449999999999818
 20
326.5124999999999886
 10
269.4049999999999727
 20
324.9125000000000227
 10
271.1349999999999909
 20
323.1299999999999955
 10
272.3425000000000296
 20
321.1675000000000182
 10
273.0199999999999818
 20
319.0224999999999795
 10
273.0
 20
315.4624999999999773
 10
271.6200000000000045
 20
311.9749999999999659
 10
268.8650000000000091
 20
308.8325000000000387
 10
265.2350000000000136
 20
307.1549999999999727
 10
261.0699999999999932
 20
307.1349999999999909
 10
256.6549999999999727
 20
308.9375
 10
253.2975000000000136
 20
311.6424999999999841
 10
251.3325000000000102
 20
314.9125000000000227
 10
250.7899999999999636
 20
319.2349999999999568
 10
252.2574999999999932
 20
323.4274999999999523
  0
LWPOLYLINE
  5
5C
  8
0
 62
0
370
-1
  6
ByLayer
100
AcDbEntity
100
AcDbPolyline
 90
17
 70
0
 10
258.722500000000025
 20
319.5824999999999818
 10
257.777499999999975
 20
317.4925000000000068
 10
257.6375000000000455
 20
315.7199999999999704
 10
258.1875
 20
314.2949999999999591
 10
259.2874999999999659
 20
313.2699999999999818
 10
260.7124999999999773
 20
312.7775000000000318
 10
262.2024999999999864
 20
312.9675000000000296
 10
263.7024999999999864
 20
313.9449999999999932
 10
265.1374999999999886
 20
315.8300000000000409
 10
266.0499999999999545
 20
317.8675000000000068
 10
266.1775000000000091
 20
319.6149999999999523
 10
265.6499999999999773
 20
321.0249999999999773
 10
264.5900000000000318
 20
322.0249999999999773
 10
263.1399999999999864
 20
322.5200000000000387
 10
261.6099999999999568
 20
322.3250000000000455
 10
260.1050000000000182
 20
321.375
 10
258.722500000000025
 20
319.5824999999999818
  0
LWPOLYLINE
  5
5D
  8
0
 62
0
370
-1
  6
ByLayer
100
AcDbEntity
100
AcDbPolyline
 90
27
 70
0
 10
282.3224999999999909
 20
316.1099999999999568
 10
287.6100000000000136
 20
311.5425000000000182
 10
285.5249999999999773
 20
309.1274999999999977
 10
287.8100000000000023
 20
309.3650000000000091
 10
289.7425000000000068
 20
309.1625000000000227
 10
291.5049999999999955
 20
308.4825000000000159
 10
293.2574999999999932
 20
307.2475000000000023
 10
295.0500000000000114
 20
305.0824999999999818
 10
295.722500000000025
 20
302.6574999999999704
 10
295.6225000000000023
 20
301.3574999999999591
 10
295.1899999999999977
 20
300.0099999999999909
 10
294.4250000000000114
 20
298.6150000000000091
 10
293.3250000000000455
 20
297.1725000000000136
 10
285.1899999999999977
 20
287.7549999999999955
 10
279.4824999999999591
 20
292.6850000000000023
 10
286.5199999999999818
 20
300.8350000000000364
 10
287.4200000000000159
 20
302.1349999999999909
 10
287.7050000000000409
 20
303.2475000000000023
 10
287.4624999999999773
 20
304.2250000000000227
 10
286.7599999999999909
 20
305.0874999999999773
 10
285.6549999999999727
 20
305.6999999999999886
 10
284.410000000000025
 20
305.7524999999999977
 10
282.9850000000000136
 20
305.0774999999999864
 10
281.3449999999999704
 20
303.5025000000000546
 10
275.1974999999999909
 20
296.3874999999999886
 10
269.5199999999999818
 20
301.2925000000000182
 10
282.3224999999999909
 20
316.1099999999999568
  0
LWPOLYLINE
  5
5E
  8
0
 62
0
370
-1
  6
ByLayer
100
AcDbEntity
100
AcDbPolyline
 90
27
 70
0
 10
314.5325000000000273
 20
295.214999999999975
 10
308.9074999999999704
 20
290.3300000000000409
 10
311.6150000000000091
 20
287.2125000000000341
 10
307.4800000000000182
 20
283.6225000000000591
 10
304.7724999999999795
 20
286.7400000000000091
 10
299.5249999999999773
 20
282.1825000000000045
 10
298.7750000000000341
 20
281.4550000000000409
 10
298.4275000000000091
 20
280.9124999999999659
 10
298.4049999999999727
 20
280.2224999999999682
 10
298.8000000000000114
 20
279.5300000000000296
 10
299.5425000000000182
 20
278.8550000000000182
 10
300.6850000000000023
 20
278.0874999999999773
 10
297.1350000000000477
 20
274.2725000000000364
 10
295.0250000000000341
 20
276.0074999999999932
 10
293.2674999999999841
 20
277.8000000000000114
 10
291.8050000000000068
 20
279.7574999999999932
 10
291.1025000000000205
 20
281.3899999999999864
 10
291.0249999999999773
 20
282.8575000000000159
 10
291.4524999999999864
 20
284.3074999999999477
 10
292.597500000000025
 20
285.9275000000000091
 10
294.6324999999999932
 20
287.8999999999999773
 10
299.8400000000000318
 20
292.4199999999999591
 10
298.027499999999975
 20
294.5099999999999909
 10
302.1624999999999659
 20
298.0999999999999659
 10
303.9750000000000227
 20
296.0124999999999886
 10
306.6899999999999977
 20
298.3699999999999477
 10
314.5325000000000273
 20
295.214999999999975
  0
LWPOLYLINE
  5
5F
  8
0
 62
0
370
-1
  6
ByLayer
100
AcDbEntity
100
AcDbPolyline
 90
32
 70
0
 10
317.6274999999999977
 20
257.6949999999999932
 10
309.4549999999999841
 20
270.3300000000000409
 10
308.3175000000000523
 20
269.1825000000000045
 10
307.7249999999999659
 20
268.0450000000000159
 10
307.6024999999999636
 20
266.4750000000000227
 10
308.1999999999999886
 20
264.9700000000000273
 10
308.8999999999999773
 20
264.1424999999999841
 10
309.8050000000000068
 20
263.5074999999999932
 10
310.5550000000000068
 20
263.2400000000000091
 10
311.5525000000000091
 20
263.0774999999999864
 10
314.9975000000000023
 20
256.4975000000000023
 10
311.8500000000000227
 20
256.6924999999999955
 10
309.2124999999999773
 20
257.63250000000005
 10
306.8274999999999864
 20
259.5649999999999977
 10
304.4074999999999704
 20
262.714999999999975
 10
302.75
 20
265.7824999999999704
 10
301.9975000000000023
 20
268.4474999999999909
 10
302.0824999999999818
 20
270.9375
 10
302.910000000000025
 20
273.4524999999999864
 10
304.5024999999999409
 20
275.7849999999999682
 10
306.8424999999999727
 20
277.7300000000000182
 10
310.7250000000000227
 20
279.3700000000000045
 10
314.6725000000000136
 20
279.3050000000000068
 10
318.3675000000000068
 20
277.5149999999999864
 10
321.4724999999999682
 20
274.0174999999999841
 10
323.25
 20
270.6875
 10
324.0099999999999909
 20
267.7524999999999977
 10
323.8650000000000091
 20
265.1075000000000159
 10
322.9275000000000091
 20
262.6374999999999886
 10
321.1124999999999545
 20
260.3274999999999864
 10
318.339999999999975
 20
258.1549999999999727
 10
317.6274999999999977
 20
257.6949999999999932
  0
LWPOLYLINE
  5
60
  8
0
 62
0
370
-1
  6
ByLayer
100
AcDbEntity
100
AcDbPolyline
 90
10
 70
0
 10
316.5
 20
266.0575000000000045
 10
317.847500000000025
 20
267.4125000000000227
 10
318.4750000000000227
 20
268.7400000000000091
 10
318.4724999999999682
 20
270.0425000000000182
 10
317.9124999999999659
 20
271.3425000000000296
 10
316.7425000000000068
 20
272.5
 10
315.1700000000000159
 20
272.9699999999999704
 10
313.9399999999999977
 20
272.8400000000000318
 10
312.4824999999999591
 20
272.2649999999999864
 10
316.5
 20
266.0575000000000045
  0
LWPOLYLINE
  5
61
  8
0
 62
0
370
-1
  6
ByLayer
100
AcDbEntity
100
AcDbPolyline
 90
64
 70
0
 10
316.9325000000000045
 20
253.589999999999975
 10
320.5550000000000068
 20
247.0417499999999791
 10
319.7325000000000159
 20
246.0802499999999782
 10
319.3299999999999841
 20
245.0997500000000002
 10
319.3224999999999909
 20
244.0417500000000359
 10
319.6899999999999977
 20
242.8427500000000236
 10
320.375
 20
241.6787499999999795
 10
321.2174999999999727
 20
240.9544999999999959
 10
321.9075000000000273
 20
240.7267500000000098
 10
322.5749999999999886
 20
240.8419999999999845
 10
323.1475000000000364
 20
241.3249999999999886
 10
323.3849999999999909
 20
242.1212500000000034
 10
323.2599999999999909
 20
243.2805000000000177
 10
322.8050000000000637
 20
245.3884999999999934
 10
322.3875000000000455
 20
247.1775000000000091
 10
322.0775000000000432
 20
248.6885000000000332
 10
321.875
 20
249.9212500000000148
 10
321.7799999999999727
 20
250.875
 10
321.9425000000000523
 20
252.4699999999999989
 10
322.5625
 20
254.0125000000000171
 10
323.6075000000000159
 20
255.3149999999999977
 10
325.0399999999999636
 20
256.222500000000025
 10
326.8025000000000091
 20
256.6850000000000023
 10
328.5474999999999568
 20
256.5249999999999773
 10
330.2024999999999864
 20
255.7874999999999943
 10
331.6949999999999932
 20
254.5175000000000125
 10
333.1024999999999636
 20
252.6125000000000114
 10
334.4549999999999272
 20
249.9484999999999957
 10
335.5500000000000114
 20
247.1070000000000277
 10
336.0300000000000296
 20
245.001749999999987
 10
336.0174999999999272
 20
243.3230000000000075
 10
335.6225000000000023
 20
241.7860000000000298
 10
334.8199999999999932
 20
240.31574999999998
 10
333.5799999999999841
 20
238.8632499999999936
 10
330.0900000000000318
 20
245.1062499999999886
 10
330.6900000000000546
 20
245.7707500000000209
 10
330.9874999999999545
 20
246.5047500000000014
 10
331.0025000000000546
 20
247.5775000000000148
 10
330.6725000000000136
 20
248.7007499999999993
 10
330.1274999999999409
 20
249.6649999999999636
 10
329.5074999999999932
 20
250.2250000000000227
 10
328.2800000000000296
 20
250.3125
 10
327.7750000000000341
 20
249.8917500000000302
 10
327.5774999999999864
 20
249.2010000000000218
 10
327.7250000000000227
 20
247.9884999999999877
 10
328.2549999999999955
 20
245.9947500000000105
 10
329.0924999999999727
 20
242.8020000000000209
 10
329.3975000000000364
 20
240.4187499999999886
 10
329.2000000000000455
 20
238.578000000000003
 10
328.535000000000025
 20
237.0047500000000014
 10
327.4799999999999613
 20
235.7447500000000105
 10
326.1025000000000205
 20
234.8767500000000155
 10
324.4650000000000318
 20
234.4454999999999814
 10
322.6650000000000205
 20
234.503750000000025
 10
320.8149999999999977
 20
235.1319999999999766
 10
319.0249999999999773
 20
236.4367500000000177
 10
317.3400000000000318
 20
238.5337499999999977
 10
315.7674999999999841
 20
241.5527500000000032
 10
314.2799999999999727
 20
245.92025000000001
 10
314.1099999999999568
 20
249.1795000000000186
 10
314.4699999999999704
 20
250.464999999999975
 10
315.0625
 20
251.6274999999999977
 10
315.88250000000005
 20
252.6699999999999875
 10
316.9325000000000045
 20
253.589999999999975
  0
LWPOLYLINE
  5
62
  8
0
 62
0
370
-1
  6
ByLayer
100
AcDbEntity
100
AcDbPolyline
 90
27
 70
0
 10
349.7224999999999682
 20
227.472500000000025
 10
342.5524999999999523
 20
225.4474999999999625
 10
343.6750000000000114
 20
221.4735000000000298
 10
338.4049999999999727
 20
219.9857499999999959
 10
337.2825000000000273
 20
223.9597499999999854
 10
330.5924999999999727
 20
222.0715000000000146
 10
329.6050000000000182
 20
221.7312499999999886
 10
329.0600000000000023
 20
221.3894999999999982
 10
328.7450000000000614
 20
220.7750000000000057
 10
328.8075000000000045
 20
219.9774999999999636
 10
329.1924999999999955
 20
219.0525000000000091
 10
329.9000000000000341
 20
217.8712500000000034
 10
325.0649999999999409
 20
215.9314999999999714
 10
323.8925000000000409
 20
218.3984999999999843
 10
323.0649999999999977
 20
220.7695000000000505
 10
322.5774999999999864
 20
223.1622500000000002
 10
322.6349999999999909
 20
224.9402499999999918
 10
323.1900000000000546
 20
226.2992500000000007
 10
324.1925000000000523
 20
227.430499999999995
 10
325.9174999999999613
 20
228.4069999999999823
 10
328.6000000000000227
 20
229.3267499999999472
 10
335.2375000000000114
 20
231.1997499999999945
 10
334.4850000000000136
 20
233.8622499999999889
 10
339.7574999999999932
 20
235.35024999999996
 10
340.5074999999999932
 20
232.6877500000000225
 10
343.9674999999999727
 20
233.6655000000000086
 10
349.7224999999999682
 20
227.472500000000025
  0
LWPOLYLINE
  5
63
  8
0
 62
0
370
-1
  6
ByLayer
100
AcDbEntity
100
AcDbPolyline
 90
44
 70
0
 10
328.7074999999999818
 20
178.9660000000000082
 10
327.7224999999999682
 20
201.4770000000000039
 10
330.9899999999999523
 20
200.8410000000000082
 10
334.089999999999975
 20
199.4114999999999895
 10
337.4200000000000728
 20
196.7242500000000121
 10
341.3550000000000182
 20
192.3462499999999977
 10
342.5724999999999909
 20
190.8975000000000364
 10
343.6299999999999955
 20
189.7377500000000055
 10
344.5249999999999773
 20
188.8684999999999832
 10
345.2599999999999909
 20
188.2892500000000098
 10
346.5299999999999727
 20
187.6544999999999845
 10
347.7150000000000318
 20
187.4742499999999836
 10
348.847500000000025
 20
187.7547500000000014
 10
349.7749999999999773
 20
188.4875000000000114
 10
350.3925000000000409
 20
189.5400000000000205
 10
350.5599999999999454
 20
190.810750000000013
 10
350.2749999999999773
 20
192.1087500000000148
 10
349.5525000000000091
 20
193.128750000000025
 10
348.2699999999999818
 20
193.8297500000000184
 10
346.3124999999999432
 20
194.2055000000000291
 10
346.5924999999999727
 20
201.7482499999999845
 10
349.4374999999999432
 20
201.2452500000000271
 10
351.5999999999999659
 20
200.3429999999999893
 10
353.2350000000000136
 20
198.9937499999999773
 10
354.472500000000025
 20
197.1462499999999807
 10
355.3024999999999523
 20
194.6125000000000114
 10
355.6900000000000546
 20
191.2382499999999936
 10
355.6175000000000637
 20
187.710000000000008
 10
355.05499999999995
 20
185.04525000000001
 10
353.9925000000000068
 20
183.0240000000000293
 10
352.4225000000000136
 20
181.460000000000008
 10
350.4900000000000091
 20
180.4212499999999864
 10
348.2975000000000136
 20
180.0062499999999943
 10
345.8699999999999477
 20
180.2652499999999804
 10
343.5200000000000387
 20
181.2555000000000121
 10
342.3299999999999841
 20
182.0732500000000016
 10
341.0724999999999909
 20
183.1839999999999975
 10
339.7450000000000045
 20
184.5892499999999927
 10
338.3525000000000205
 20
186.2902499999999861
 10
336.9374999999999432
 20
188.1252499999999941
 10
336.0275000000000318
 20
189.2332499999999982
 10
334.3100000000000591
 20
190.9492500000000064
 10
334.8224999999999909
 20
179.2330000000000041
 10
328.7074999999999818
 20
178.9660000000000082
  0
LWPOLYLINE
  5
64
  8
0
 62
0
370
-1
  6
ByLayer
100
AcDbEntity
100
AcDbPolyline
 90
31
 70
0
 10
342.0900000000000318
 20
173.8919999999999959
 10
345.6000000000000227
 20
173.2560000000000286
 10
348.49249999999995
 20
172.3510000000000275
 10
350.7674999999999841
 20
171.1792499999999961
 10
352.4225000000000136
 20
169.7402499999999748
 10
353.5525000000000091
 20
168.0052499999999895
 10
354.2524999999999977
 20
165.9615000000000009
 10
354.5275000000000318
 20
163.6095000000000255
 10
354.3725000000000023
 20
160.9470000000000027
 10
353.8749999999999432
 20
158.5055000000000121
 10
353.1074999999999591
 20
156.5929999999999893
 10
352.1399999999999864
 20
155.1172500000000127
 10
350.9999999999999432
 20
153.9890000000000043
 10
348.5249999999999773
 20
152.5662499999999966
 10
345.6475000000000364
 20
151.9042500000000189
 10
339.2949999999999591
 20
151.9775000000000205
 10
335.9125000000000227
 20
152.5812500000000114
 10
333.0599999999999454
 20
153.4275000000000091
 10
330.7374999999999545
 20
154.5180000000000007
 10
328.9449999999999932
 20
155.852499999999992
 10
327.6549999999999727
 20
157.5045000000000073
 10
326.8500000000000227
 20
159.5472499999999911
 10
326.5250000000000341
 20
161.9777500000000146
 10
326.6825000000000045
 20
164.7990000000000066
 10
327.3525000000000205
 20
167.8207499999999754
 10
328.4825000000000159
 20
170.1225000000000023
 10
330.0600000000000023
 20
171.8452500000000214
 10
332.0924999999999727
 20
173.1242500000000177
 10
333.9574999999999818
 20
173.7590000000000146
 10
336.3325000000000387
 20
174.1105000000000018
 10
342.0900000000000318
 20
173.8919999999999959
  0
LWPOLYLINE
  5
65
  8
0
 62
0
370
-1
  6
ByLayer
100
AcDbEntity
100
AcDbPolyline
 90
25
 70
0
 10
341.0974999999999682
 20
166.5080000000000098
 10
336.7574999999999932
 20
166.852499999999992
 10
333.9799999999999613
 20
166.535000000000025
 10
333.0950000000000273
 20
166.1350000000000193
 10
332.4325000000000045
 20
165.6045000000000016
 10
331.9900000000000091
 20
164.9412499999999966
 10
331.7674999999999841
 20
164.1479999999999961
 10
331.8224999999999909
 20
163.0670000000000073
 10
332.2950000000000159
 20
162.0875000000000341
 10
333.2325000000000159
 20
161.2264999999999873
 10
334.6575000000000273
 20
160.5304999999999893
 10
336.8149999999999977
 20
159.9407500000000084
 10
339.9600000000000364
 20
159.4224999999999852
 10
344.4524999999999864
 20
159.064249999999987
 10
347.2475000000000023
 20
159.3927499999999782
 10
348.1225000000000023
 20
159.7927499999999839
 10
348.777499999999975
 20
160.3355000000000246
 10
349.2224999999999682
 20
161.0229999999999961
 10
349.4474999999999909
 20
161.8559999999999945
 10
349.4449999999999932
 20
162.7305000000000064
 10
349.1874999999999432
 20
163.5077499999999873
 10
348.6800000000000068
 20
164.1899999999999977
 10
347.9175000000000182
 20
164.7732500000000186
 10
345.3349999999999795
 20
165.7417499999999961
 10
341.0974999999999682
 20
166.5080000000000098
  0
LWPOLYLINE
  5
66
  8
0
 62
0
370
-1
  6
ByLayer
100
AcDbEntity
100
AcDbPolyline
 90
14
 70
0
 10
346.0675000000000523
 20
126.1149999999999949
 10
319.8624999999999545
 20
134.4332499999999868
 10
322.160000000000025
 20
141.6747499999999889
 10
339.3324999999999818
 20
136.2235000000000014
 10
338.6725000000000136
 20
138.3394999999999868
 10
338.2524999999999409
 20
140.3197499999999991
 10
338.0299999999999727
 20
142.4222499999999911
 10
337.9750000000000227
 20
144.9340000000000259
 10
343.8450000000000273
 20
143.0704999999999814
 10
344.1100000000000136
 20
139.4124999999999943
 10
344.8725000000000591
 20
136.494749999999982
 10
346.1475000000000364
 20
134.1089999999999804
 10
347.9474999999999909
 20
132.038250000000005
 10
346.0675000000000523
 20
126.1149999999999949
  0
LWPOLYLINE
  5
67
  8
0
 62
0
370
-1
  6
ByLayer
100
AcDbEntity
100
AcDbPolyline
 90
14
 70
0
 10
333.4424999999999955
 20
98.7492499999999893
 10
309.1449999999999818
 20
111.6114999999999924
 10
312.6999999999999318
 20
118.3267499999999757
 10
328.6225000000000591
 20
109.8985000000000127
 10
328.3500000000000227
 20
112.0972499999999883
 10
328.2900000000000205
 20
114.120750000000001
 10
328.4474999999999909
 20
116.2284999999999968
 10
328.8425000000000296
 20
118.7107499999999902
 10
334.2849999999999682
 20
115.82974999999999
 10
333.8925000000000409
 20
112.1827499999999986
 10
334.1225000000000023
 20
109.1769999999999925
 10
334.9474999999999909
 20
106.6015000000000015
 10
336.3500000000000227
 20
104.241250000000008
 10
333.4424999999999955
 20
98.7492499999999893
  0
LWPOLYLINE
  5
68
  8
0
 62
0
370
-1
  6
ByLayer
100
AcDbEntity
100
AcDbPolyline
 90
13
 70
0
 10
125.4177499999999981
 20
52.1009999999999991
 10
125.4177499999999981
 20
22.9804249999999968
 10
117.3704999999999927
 20
22.9804249999999968
 10
117.3704999999999927
 20
42.0627499999999941
 10
113.5810000000000031
 20
39.6595000000000013
 10
111.5302500000000094
 20
38.7614999999999981
 10
109.0114999999999981
 20
37.9014999999999986
 10
109.0114999999999981
 20
44.4252499999999984
 10
112.6195000000000022
 20
45.8659999999999997
 10
115.3197500000000133
 20
47.5694999999999979
 10
117.3217499999999944
 20
49.6215000000000046
 10
118.8354999999999961
 20
52.1009999999999991
 10
125.4177499999999981
 20
52.1009999999999991
  0
LWPOLYLINE
  5
69
  8
0
 62
0
370
-1
  6
ByLayer
100
AcDbEntity
100
AcDbPolyline
 90
5
 70
1
 10
134.8902499999999804
 20
30.9489999999999981
 10
143.3864999999999839
 20
30.9489999999999981
 10
143.3864999999999839
 20
22.9804249999999968
 10
134.8902499999999804
 20
22.9804249999999968
 10
134.8902499999999804
 20
30.9489999999999981
  0
LWPOLYLINE
  5
6A
  8
0
 62
0
370
-1
  6
ByLayer
100
AcDbEntity
100
AcDbPolyline
 90
14
 70
0
 10
162.0767499999999757
 20
51.6127499999999984
 10
176.7849999999999966
 20
51.6127499999999984
 10
180.98275000000001
 20
51.0417499999999933
 10
183.9722499999999741
 20
49.3269999999999982
 10
185.7732500000000186
 20
46.5604999999999976
 10
186.3742500000000177
 20
42.8235000000000028
 10
185.7189999999999941
 20
38.9622499999999974
 10
183.7565000000000168
 20
36.0457499999999982
 10
180.4702500000000214
 20
34.2150000000000034
 10
175.8082500000000152
 20
33.6044999999999945
 10
170.9635000000000105
 20
33.6044999999999945
 10
170.9635000000000105
 20
22.9804249999999968
 10
162.0767499999999757
 20
22.9804249999999968
 10
162.0767499999999757
 20
51.6127499999999984
  0
LWPOLYLINE
  5
6B
  8
0
 62
0
370
-1
  6
ByLayer
100
AcDbEntity
100
AcDbPolyline
 90
12
 70
0
 10
170.9635000000000105
 20
39.4055000000000035
 10
173.1322500000000275
 20
39.4055000000000035
 10
175.3092499999999916
 20
39.6252500000000012
 10
176.7252500000000168
 20
40.2847500000000025
 10
177.5010000000000048
 20
41.3059999999999974
 10
177.7615000000000123
 20
42.5702499999999944
 10
177.5364999999999895
 20
43.8152499999999989
 10
176.8622500000000173
 20
44.8554999999999993
 10
175.5685000000000002
 20
45.5592500000000058
 10
173.4837500000000148
 20
45.7927499999999981
 10
170.9635000000000105
 20
45.7927499999999981
 10
170.9635000000000105
 20
39.4055000000000035
  0
LWPOLYLINE
  5
6C
  8
0
 62
0
370
-1
  6
ByLayer
100
AcDbEntity
100
AcDbPolyline
 90
5
 70
1
 10
190.7687500000000114
 20
51.6127499999999984
 10
198.7372500000000173
 20
51.6127499999999984
 10
198.7372500000000173
 20
22.9804249999999968
 10
190.7687500000000114
 20
22.9804249999999968
 10
190.7687500000000114
 20
51.6127499999999984
  0
LWPOLYLINE
  5
6D
  8
0
 62
0
370
-1
  6
ByLayer
100
AcDbEntity
100
AcDbPolyline
 90
51
 70
0
 10
211.1002500000000168
 20
37.0035000000000025
 10
203.5035000000000309
 20
37.8037500000000009
 10
204.024249999999995
 20
39.5820000000000007
 10
204.7337499999999864
 20
40.9287500000000009
 10
205.7292499999999791
 20
42.0045000000000002
 10
207.0774999999999864
 20
42.9212500000000006
 10
208.3752499999999941
 20
43.4597499999999997
 10
210.0857500000000186
 20
43.8582499999999982
 10
214.2252500000000168
 20
44.1910000000000025
 10
217.4479999999999791
 20
44.0892499999999998
 10
219.9680000000000177
 20
43.78125
 10
221.9547500000000184
 20
43.1707499999999982
 10
223.5812500000000114
 20
42.1212500000000034
 10
224.4884999999999877
 20
41.0562499999999986
 10
225.1829999999999927
 20
39.6212500000000034
 10
225.6225000000000307
 20
38.0534999999999997
 10
225.7690000000000055
 20
36.5545000000000044
 10
225.7690000000000055
 20
27.3940000000000019
 10
225.8125
 20
26.0865000000000009
 10
225.9440000000000168
 20
25.0894999999999939
 10
226.2465000000000259
 20
24.1522999999999968
 10
226.7644999999999982
 20
22.9804249999999968
 10
219.3035000000000139
 20
22.9804249999999968
 10
218.9329999999999927
 20
23.684350000000002
 10
218.7172499999999786
 20
24.1916250000000019
 10
218.4447500000000275
 20
25.5195000000000007
 10
216.8864999999999839
 20
24.2309750000000008
 10
215.3389999999999986
 20
23.3710499999999968
 10
213.0587500000000034
 20
22.7267749999999999
 10
210.4372500000000059
 20
22.5111000000000026
 10
207.1694999999999993
 20
22.9410749999999979
 10
204.7919999999999732
 20
24.229574999999997
 10
203.3554999999999779
 20
26.1502499999999998
 10
202.8782500000000084
 20
28.4682499999999976
 10
203.2239999999999895
 20
30.6219999999999999
 10
204.2642499999999757
 20
32.3554999999999993
 10
205.1037499999999909
 20
33.0687500000000014
 10
206.2364999999999782
 20
33.6832499999999939
 10
207.663250000000005
 20
34.2015000000000029
 10
209.382000000000005
 20
34.6204999999999927
 10
213.0685000000000002
 20
35.3827500000000015
 10
215.1829999999999927
 20
35.8712499999999963
 10
217.9957500000000152
 20
36.8269999999999982
 10
217.8440000000000225
 20
38.0722500000000039
 10
217.3894999999999982
 20
38.8782500000000013
 10
216.5542500000000246
 20
39.3172499999999943
 10
215.2615000000000123
 20
39.4639999999999986
 10
213.5524999999999807
 20
39.3092500000000058
 10
212.3319999999999936
 20
38.8400000000000034
 10
211.6427500000000066
 20
38.1375000000000028
 10
211.1002500000000168
 20
37.0035000000000025
  0
LWPOLYLINE
  5
6E
  8
0
 62
0
370
-1
  6
ByLayer
100
AcDbEntity
100
AcDbPolyline
 90
17
 70
0
 10
217.9957500000000152
 20
32.8232499999999945
 10
214.5777499999999804
 20
31.7884999999999991
 10
212.5989999999999895
 20
31.1495000000000033
 10
211.5109999999999957
 20
30.5190000000000019
 10
211.0122499999999945
 20
29.8312499999999972
 10
210.8464999999999634
 20
29.054000000000002
 10
211.0079999999999814
 20
28.1995000000000005
 10
211.4910000000000139
 20
27.5120000000000005
 10
212.30600000000004
 20
27.0725000000000016
 10
213.4250000000000114
 20
26.9260000000000019
 10
214.7042500000000018
 20
27.0874999999999986
 10
215.8854999999999791
 20
27.5702500000000015
 10
216.8672499999999843
 20
28.2837500000000048
 10
217.5077500000000157
 20
29.1327500000000015
 10
217.8739999999999668
 20
30.2070000000000007
 10
217.9957500000000152
 20
31.5537500000000009
 10
217.9957500000000152
 20
32.8232499999999945
  0
LWPOLYLINE
  5
6F
  8
0
 62
0
370
-1
  6
ByLayer
100
AcDbEntity
100
AcDbPolyline
 90
27
 70
0
 10
239.460000000000008
 20
51.6127499999999984
 10
239.460000000000008
 20
43.722999999999999
 10
243.8354999999999961
 20
43.722999999999999
 10
243.8354999999999961
 20
37.9217499999999959
 10
239.460000000000008
 20
37.9217499999999959
 10
239.460000000000008
 20
30.5582499999999939
 10
239.5234999999999843
 20
29.4555000000000007
 10
239.7135000000000105
 20
28.8005000000000031
 10
240.2507500000000107
 20
28.3027499999999996
 10
241.0804999999999723
 20
28.135749999999998
 10
242.1347499999999968
 20
28.2632500000000029
 10
243.5422499999999957
 20
28.6445000000000007
 10
244.1285000000000309
 20
23.1553749999999994
 10
241.2760000000000105
 20
22.6725249999999967
 10
238.6204999999999927
 20
22.5111000000000026
 10
236.0419999999999732
 20
22.7023499999999991
 10
234.2447500000000105
 20
23.2733750000000015
 10
233.0187500000000114
 20
24.2309750000000008
 10
232.1559999999999775
 20
25.5777499999999982
 10
231.6570000000000107
 20
27.6189999999999998
 10
231.491250000000008
 20
30.616500000000002
 10
231.491250000000008
 20
37.9217499999999959
 10
228.5617500000000177
 20
37.9217499999999959
 10
228.5617500000000177
 20
43.722999999999999
 10
231.491250000000008
 20
43.722999999999999
 10
231.491250000000008
 20
47.5314999999999941
 10
239.460000000000008
 20
51.6127499999999984
  0
LWPOLYLINE
  5
70
  8
0
 62
0
370
-1
  6
ByLayer
100
AcDbEntity
100
AcDbPolyline
 90
11
 70
0
 10
246.7069999999999936
 20
43.722999999999999
 10
265.9449999999999932
 20
43.722999999999999
 10
265.9449999999999932
 20
39.0732499999999945
 10
255.4749999999999943
 20
28.4097500000000025
 10
266.5900000000000318
 20
28.4097500000000025
 10
266.5900000000000318
 20
22.9804249999999968
 10
245.9257499999999936
 20
22.9804249999999968
 10
245.9257499999999936
 20
28.135749999999998
 10
255.8474999999999966
 20
38.2919999999999945
 10
246.7069999999999936
 20
38.2919999999999945
 10
246.7069999999999936
 20
43.722999999999999
  0
CIRCLE
  5
71
100
AcDbEntity
100
AcDbCircle
  8
0
 62
256
370
-1
  6
ByLayer
 10
186.6090000000000089
 20
186.6114999999999782
 30
0.0
 40
126.6956920124271164
  0
LWPOLYLINE
  5
72
  8
Hilf
 62
0
370
-1
  6
ByLayer
100
AcDbEntity
100
AcDbPolyline
 90
2
 70
0
 10
170.592000000000013
 20
186.6114999999999782
 10
209.5514999999999759
 20
186.6114999999999782
  0
LWPOLYLINE
  5
73
  8
Hilf
 62
0
370
-1
  6
ByLayer
100
AcDbEntity
100
AcDbPolyline
 90
2
 70
0
 10
186.6090000000000089
 20
205.6587499999999977
 10
186.6090000000000089
 20
166.6992500000000064
  0
CIRCLE
  5
74
100
AcDbEntity
100
AcDbCircle
  8
0
 62
256
370
-1
  6
ByLayer
 10
186.6090000000000089
 20
186.6114999999999782
 30
0.0
 40
186.5414918487939815
  0
CIRCLE
  5
75
100
AcDbEntity
100
AcDbCircle
  8
Aussen
 62
256
370
-1
  6
ByLayer
 10
186.6090000000000089
 20
186.6114999999999782
 30
0.0
 40
186.5414918487939815
  0
ENDSEC
  0
SECTION
  2
OBJECTS
  0
DICTIONARY
  5
C
100
AcDbDictionary
280
0
281
1
  3
ACAD_GROUP
350
D
  3
ACAD_LAYOUT
350
1A
  3
ACAD_MLINESTYLE
350
17
  3
ACAD_PLOTSETTINGS
350
19
  3
ACAD_PLOTSTYLENAME
350
E
  3
AcDbVariableDictionary
350
76
  0
DICTIONARY
  5
D
100
AcDbDictionary
280
0
281
1
  0
ACDBDICTIONARYWDFLT
  5
E
100
AcDbDictionary
281
1
  3
Normal
350
F
100
AcDbDictionaryWithDefault
340
F
  0
ACDBPLACEHOLDER
  5
F
  0
DICTIONARY
  5
17
100
AcDbDictionary
280
0
281
1
  3
Standard
350
18
  0
MLINESTYLE
  5
18
100
AcDbMlineStyle
  2
STANDARD
 70
0
  3

 62
256
 51
90.0
 52
90.0
 71
2
 49
0.5
 62
256
  6
BYLAYER
 49
-0.5
 62
256
  6
BYLAYER
  0
DICTIONARY
  5
19
100
AcDbDictionary
280
0
281
1
  0
DICTIONARY
  5
1A
100
AcDbDictionary
281
1
  3
Layout1
350
1E
  3
Layout2
350
26
  3
Model
350
22
  0
LAYOUT
  5
1E
100
AcDbPlotSettings
  1

  2
C:\Program Files\AutoCAD 2002\plotters\DWF ePlot (optimized for plotting).pc3
  4

  6

 40
0.0
 41
0.0
 42
0.0
 43
0.0
 44
0.0
 45
0.0
 46
0.0
 47
0.0
 48
0.0
 49
0.0
140
0.0
141
0.0
142
1.0
143
1.0
 70
688
 72
0
 73
0
 74
5
  7

 75
16
147
1.0
148
0.0
149
0.0
100
AcDbLayout
  1
Layout1
 70
1
 71
1
 10
0.0
 20
0.0
 11
420.0
 21
297.0
 12
0.0
 22
0.0
 32
0.0
 14
100000000000000000000.0
 24
100000000000000000000.0
 34
100000000000000000000.0
 15
-100000000000000000000.0
 25
-100000000000000000000.0
 35
-100000000000000000000.0
146
0.0
 13
0.0
 23
0.0
 33
0.0
 16
1.0
 26
0.0
 36
0.0
 17
0.0
 27
1.0
 37
0.0
 76
0
330
1B
  0
LAYOUT
  5
22
100
AcDbPlotSettings
  1

  2
C:\Program Files\AutoCAD 2002\plotters\DWF ePlot (optimized for plotting).pc3
  4

  6

 40
0.0
 41
0.0
 42
0.0
 43
0.0
 44
0.0
 45
0.0
 46
0.0
 47
0.0
 48
0.0
 49
0.0
140
0.0
141
0.0
142
1.0
143
1.0
 70
1712
 72
0
 73
0
 74
0
  7

 75
0
147
1.0
148
0.0
149
0.0
100
AcDbLayout
  1
Model
 70
1
 71
0
 10
0.0
 20
0.0
 11
12.0
 21
9.0
 12
0.0
 22
0.0
 32
0.0
 14
0.0
 24
0.0
 34
0.0
 15
0.0
 25
0.0
 35
0.0
146
0.0
 13
0.0
 23
0.0
 33
0.0
 16
1.0
 26
0.0
 36
0.0
 17
0.0
 27
1.0
 37
0.0
 76
0
330
1F
  0
LAYOUT
  5
26
100
AcDbPlotSettings
  1

  2
C:\Program Files\AutoCAD 2002\plotters\DWF ePlot (optimized for plotting).pc3
  4

  6

 40
0.0
 41
0.0
 42
0.0
 43
0.0
 44
0.0
 45
0.0
 46
0.0
 47
0.0
 48
0.0
 49
0.0
140
0.0
141
0.0
142
1.0
143
1.0
 70
688
 72
0
 73
0
 74
5
  7

 75
16
147
1.0
148
0.0
149
0.0
100
AcDbLayout
  1
Layout2
 70
1
 71
2
 10
0.0
 20
0.0
 11
12.0
 21
9.0
 12
0.0
 22
0.0
 32
0.0
 14
0.0
 24
0.0
 34
0.0
 15
0.0
 25
0.0
 35
0.0
146
0.0
 13
0.0
 23
0.0
 33
0.0
 16
1.0
 26
0.0
 36
0.0
 17
0.0
 27
1.0
 37
0.0
 76
0
330
23
  0
DICTIONARY
  5
76
100
AcDbDictionary
281
1
  3
DIMASSOC
350
78
  3
HIDETEXT
350
77
  0
DICTIONARYVAR
  5
77
100
DictionaryVariables
280
0
  1
2
  0
DICTIONARYVAR
  5
78
100
DictionaryVariables
280
0
  1
1
  0
ENDSEC
  0
EOF
