<?xml version="1.0" encoding="UTF-8" standalone="no"?>
<!-- Created with Inkscape (http://www.inkscape.org/) -->

<svg
   xmlns:dc="http://purl.org/dc/elements/1.1/"
   xmlns:cc="http://creativecommons.org/ns#"
   xmlns:rdf="http://www.w3.org/1999/02/22-rdf-syntax-ns#"
   xmlns:svg="http://www.w3.org/2000/svg"
   xmlns="http://www.w3.org/2000/svg"
   xmlns:sodipodi="http://sodipodi.sourceforge.net/DTD/sodipodi-0.dtd"
   xmlns:inkscape="http://www.inkscape.org/namespaces/inkscape"
   width="1346.4567"
   height="1346.4567"
   id="svg2"
   version="1.1"
   inkscape:version="0.48.1 r9760"
   sodipodi:docname="Scheibe1.svg">
  <defs
     id="defs4" />
  <sodipodi:namedview
     id="base"
     pagecolor="#ffffff"
     bordercolor="#666666"
     borderopacity="1.0"
     inkscape:pageopacity="0.0"
     inkscape:pageshadow="2"
     inkscape:zoom="0.64168422"
     inkscape:cx="738.28866"
     inkscape:cy="667.50733"
     inkscape:document-units="mm"
     inkscape:current-layer="layer5"
     showgrid="false"
     units="mm"
     inkscape:snap-center="false"
     inkscape:snap-nodes="true"
     inkscape:snap-global="true"
     inkscape:snap-grids="true"
     inkscape:snap-to-guides="true"
     showguides="true"
     inkscape:guide-bbox="true"
     inkscape:window-width="1920"
     inkscape:window-height="1056"
     inkscape:window-x="0"
     inkscape:window-y="24"
     inkscape:window-maximized="1">
    <sodipodi:guide
       orientation="1,0"
       position="673.22833,1093.996"
       id="guide2991" />
    <sodipodi:guide
       orientation="0,1"
       position="-146.4895,673.22833"
       id="guide2993" />
    <sodipodi:guide
       orientation="0,1"
       position="269.60301,356.87335"
       id="guide3012" />
  </sodipodi:namedview>
  <metadata
     id="metadata7">
    <rdf:RDF>
      <cc:Work
         rdf:about="">
        <dc:format>image/svg+xml</dc:format>
        <dc:type
           rdf:resource="http://purl.org/dc/dcmitype/StillImage" />
        <dc:title></dc:title>
      </cc:Work>
    </rdf:RDF>
  </metadata>
  <g
     inkscape:label="Innenkreis"
     inkscape:groupmode="layer"
     id="layer1"
     transform="translate(0,294.09447)" />
  <g
     inkscape:groupmode="layer"
     id="layer2"
     inkscape:label="Hilf"
     style="display:inline" />
  <g
     inkscape:groupmode="layer"
     id="layer3"
     inkscape:label="Aussen">
    <path
       sodipodi:type="arc"
       style="fill:none;stroke:#000000;stroke-width:0.25157481;stroke-miterlimit:1;stroke-opacity:1;stroke-dasharray:none"
       id="path2995"
       sodipodi:cx="673.22833"
       sodipodi:cy="673.22833"
       sodipodi:rx="671.66992"
       sodipodi:ry="671.66992"
       d="m 1344.8983,673.22833 a 671.66992,671.66992 0 1 1 -1343.3398894,0 671.66992,671.66992 0 1 1 1343.3398894,0 z" />
  </g>
  <g
     inkscape:groupmode="layer"
     id="layer4"
     inkscape:label="Rundtext">
    <path
       sodipodi:type="arc"
       style="fill:none;stroke:#000000;stroke-width:0.25157481;stroke-miterlimit:1;stroke-opacity:1;stroke-dasharray:none"
       id="path3000"
       sodipodi:cx="673.22833"
       sodipodi:cy="673.22833"
       sodipodi:rx="492.45407"
       sodipodi:ry="492.45407"
       d="m 1165.6824,673.22833 a 492.45407,492.45407 0 1 1 -984.90814,0 492.45407,492.45407 0 1 1 984.90814,0 z"
       transform="matrix(-0.85863253,0.56612874,-0.58006439,-0.87976835,1641.7999,884.37942)" />
    <g
       style="font-size:135.94902039px;font-style:normal;font-variant:normal;font-weight:normal;font-stretch:normal;text-align:start;line-height:125%;letter-spacing:0px;word-spacing:0px;writing-mode:lr-tb;text-anchor:start;fill:none;stroke:#000000;stroke-opacity:1;font-family:Arial Black;-inkscape-font-specification:'Arial Black,'"
       id="text3002">
      <path
         d="m 157.99928,990.40692 -23.58772,-44.06967 c -5.13718,-9.59816 -6.69722,-17.99895 -4.68012,-25.2024 1.99645,-7.2424 7.20845,-13.11901 15.636,-17.62985 8.66186,-4.63605 16.83048,-5.64517 24.50588,-3.02736 7.65468,2.57889 14.34299,9.21363 20.06496,19.90423 l 7.7686,14.51432 31.83785,-17.0408 14.25287,26.62908 -85.79832,45.92245 m 22.32554,-46.20721 -3.47708,-6.49633 c -2.73564,-5.1112 -5.53478,-8.23088 -8.39744,-9.35906 -2.90152,-1.10724 -5.73741,-0.91951 -8.50771,0.56318 -2.69208,1.44097 -4.49425,3.56004 -5.40652,6.3572 -0.91209,2.79719 -0.0421,6.67336 2.61,11.6285 l 4.04092,7.54978 19.13783,-10.24327"
         style="fill:none;stroke:#000000;stroke-opacity:1"
         id="path3802" />
      <path
         d="m 109.25567,891.09374 -9.439047,-25.38553 91.213717,-33.91579 9.43905,25.38554 -91.21372,33.91578"
         style="fill:none;stroke:#000000;stroke-opacity:1"
         id="path3804" />
      <path
         d="m 139.17763,745.64644 12.1427,52.78863 c 4.11745,-1.44659 7.00289,-3.31368 8.65634,-5.60127 2.39055,-3.22903 3.11458,-6.89213 2.17211,-10.98933 -0.5952,-2.58763 -1.80759,-4.89712 -3.63716,-6.92846 -1.14678,-1.23468 -2.94375,-2.43338 -5.3909,-3.59611 l -3.57358,-26.49206 c 7.81319,2.38057 13.87407,6.02691 18.18267,10.93903 4.26551,4.92219 7.6036,12.62329 10.01427,23.10333 2.09324,9.10003 2.46777,16.55192 1.12359,22.35569 -1.38729,5.81373 -4.46586,11.08557 -9.23574,15.81554 -4.8229,4.69678 -11.00804,7.91321 -18.55546,9.6493 -10.73882,2.4702 -20.21778,1.04051 -28.4369,-4.28907 -8.22891,-5.37271 -13.73723,-14.11854 -16.52498,-26.23751 -2.26179,-9.83314 -2.55957,-17.93842 -0.89333,-24.31587 1.66641,-6.37735 4.98219,-11.70376 9.94736,-15.97924 4.96531,-4.27534 11.97637,-7.4547 21.03318,-9.53808 l 2.97583,-0.68452 m -6.45429,29.68422 c -4.97,1.6882 -8.29685,3.90657 -9.98057,6.65513 -1.69352,2.70551 -2.12365,5.86962 -1.29039,9.49233 0.96235,4.18344 3.39162,7.14392 7.2878,8.88143 2.43725,1.11958 5.75403,1.42377 9.95034,0.91258 l -5.96718,-25.94147"
         style="fill:none;stroke:#000000;stroke-opacity:1"
         id="path3806" />
      <path
         d="m 66.768208,701.9807 26.729019,-2.18364 -1.210735,-14.82006 19.649798,-1.6053 1.21074,14.82005 24.94267,-2.03771 c 2.99932,-0.24499 4.96073,-0.69384 5.88422,-1.34655 1.4276,-1.00462 2.05131,-2.60963 1.87112,-4.81504 -0.16213,-1.98478 -0.96254,-4.71669 -2.40123,-8.19575 l 18.42907,-3.50365 c 1.99966,6.54134 3.2355,12.70101 3.70755,18.47902 0.54771,6.70434 0.0912,11.71462 -1.36955,15.03085 -1.46073,3.31627 -3.87028,5.88861 -7.22864,7.71702 -3.40606,1.78793 -9.03464,3.00259 -16.88575,3.64398 l -24.7442,2.02149 0.81077,9.92414 -19.649804,1.60531 -0.81076,-9.92414 -12.901383,1.05399 -16.032905,-25.86401"
         style="fill:none;stroke:#000000;stroke-opacity:1"
         id="path3808" />
      <path
         d="m 91.501391,665.96214 3.199818,-65.3073 15.779831,0.77316 34.45958,37.31148 1.84842,-37.72574 18.43191,0.9031 -3.43697,70.14733 -17.50368,-0.85762 -32.82668,-35.37057 -1.52032,31.02925 -18.431909,-0.90309"
         style="fill:none;stroke:#000000;stroke-opacity:1"
         id="path3810" />
      <path
         d="m 124.98135,556.6788 -8.03776,24.68999 c -4.21229,-1.89196 -7.38485,-3.99246 -9.51769,-6.3015 -2.16679,-2.3615 -3.82152,-5.42843 -4.96422,-9.20082 -0.82583,-2.7095 -1.15527,-6.26353 -0.9883,-10.66208 0.16709,-4.39846 0.77574,-9.06494 1.82596,-13.99944 1.68602,-7.92102 3.49481,-14.18712 5.42637,-18.79832 1.88838,-4.62025 4.58017,-8.23253 8.07538,-10.83683 2.42693,-1.83613 5.57487,-3.02117 9.44384,-3.55513 3.82576,-0.54299 7.3618,-0.46904 10.60811,0.22184 l 30.45074,6.4813 c 3.24634,0.69106 5.84159,1.03984 7.78576,1.04635 1.91007,-0.0458 4.44091,-0.4573 7.59252,-1.23444 l -5.27901,24.8021 c -1.98658,0.61787 -3.4666,0.98154 -4.44005,1.091 -1.01676,0.10037 -2.55293,0.0901 -4.60851,-0.0307 2.59588,4.17222 4.2441,8.12006 4.94468,11.84352 0.90952,5.08015 0.70555,10.71505 -0.61189,16.90472 -1.75046,8.2241 -4.98625,14.07335 -9.70738,17.54778 -4.71191,3.43116 -9.85972,4.5525 -15.44345,3.36403 -5.23741,-1.11476 -9.21717,-3.56805 -11.93928,-7.35988 -2.72205,-3.7918 -4.02566,-9.99643 -3.91084,-18.61391 0.1187,-10.33593 0.10171,-17.05851 -0.051,-20.16774 -0.1959,-3.11835 -0.59304,-6.46055 -1.19143,-10.02664 -3.24631,-0.6909 -5.66155,-0.50367 -7.24573,0.5617 -1.5841,1.0655 -2.73547,3.28632 -3.45412,6.66246 -0.92125,4.32851 -0.91967,7.72226 0.005,10.18126 0.72285,1.91847 2.46702,3.71494 5.23251,5.38942 m 18.77262,-19.96186 c 0.52467,3.91236 0.86558,7.9439 1.02273,12.09465 0.28601,5.67136 0.96954,9.36862 2.0506,11.09179 1.11517,1.77574 2.58172,2.85706 4.39966,3.24397 2.07768,0.44226 3.93943,0.092 5.58527,-1.05086 1.61179,-1.19525 2.7171,-3.19964 3.31593,-6.01318 0.62649,-2.94331 0.49271,-5.82225 -0.40134,-8.63684 -0.88482,-2.85776 -2.23387,-5.02259 -4.04715,-6.49449 -1.84732,-1.52427 -4.41581,-2.63653 -7.70545,-3.33678 l -4.22025,-0.89826"
         style="fill:none;stroke:#000000;stroke-opacity:1"
         id="path3812" />
      <path
         d="m 181.09378,443.01787 12.35538,-22.7119 c 4.43086,3.32367 7.86478,7.22212 10.30175,11.69535 2.39593,4.45676 3.65136,9.43014 3.76631,14.92014 0.13152,5.44911 -1.25703,11.7624 -4.16566,18.93987 -2.80895,6.93148 -5.78821,12.45688 -8.93781,16.57623 -3.17401,4.06177 -6.86966,7.172 -11.08695,9.33069 -4.25832,2.1421 -8.71794,3.36698 -13.37888,3.67464 -4.66091,0.3077 -10.211,-0.8432 -16.65029,-3.4527 -6.72633,-2.7258 -11.85941,-6.14295 -15.39926,-10.25146 -2.59965,-3.01123 -4.60141,-6.49643 -6.00529,-10.45561 -1.44478,-3.97572 -2.17964,-7.75926 -2.20458,-11.35063 -0.0318,-5.69509 1.49806,-12.357 4.5895,-19.98574 4.32147,-10.66367 9.51958,-18.01165 15.59432,-22.04396 6.09143,-4.07314 13.26499,-5.75008 21.5207,-5.03084 l -6.41109,24.83429 c -3.08814,-0.39188 -5.72836,0.11393 -7.92068,1.51744 -2.21666,1.34601 -3.98983,3.65956 -5.31954,6.94065 -1.67867,4.14252 -1.54456,8.11236 0.40235,11.90954 1.92257,3.73964 5.8984,6.83108 11.92749,9.2743 5.37291,2.17738 9.96909,2.55971 13.78855,1.14699 3.81948,-1.41263 6.52702,-4.08766 8.12263,-8.02509 1.32966,-3.2811 1.60247,-6.36979 0.81841,-9.26608 -0.76745,-2.93719 -2.6699,-5.6659 -5.70736,-8.18612"
         style="fill:none;stroke:#000000;stroke-opacity:1"
         id="path3814" />
      <path
         d="m 139.09626,368.5482 14.43167,-22.8398 30.30343,19.14768 c -1.25532,-5.13806 -1.60591,-9.67833 -1.05177,-13.6208 0.55421,-3.94232 2.15509,-8.00857 4.80263,-12.19875 3.92412,-6.21024 8.89831,-9.89868 14.92258,-11.06533 6.04793,-1.20387 12.98141,0.66443 20.80044,5.60491 l 37.87927,23.93459 -14.50259,22.95204 -32.77259,-20.70786 c -3.74115,-2.36384 -6.81599,-3.33828 -9.22453,-2.92332 -2.44592,0.39145 -4.46079,1.84044 -6.04463,4.34695 -1.74928,2.76852 -2.1201,5.67511 -1.11246,8.71978 1.00767,3.04478 4.22383,6.28097 9.6485,9.70859 l 28.6199,18.08392 -14.43167,22.8398 -82.26818,-51.9824"
         style="fill:none;stroke:#000000;stroke-opacity:1"
         id="path3816" />
      <path
         d="m 238.85501,233.1259 30.40597,-25.31266 49.6179,35.73861 -26.20122,-55.23276 30.30393,-25.22772 62.26236,74.79052 -18.87619,15.71424 -47.48248,-57.0367 32.84068,69.22585 -17.09061,14.22776 -62.07326,-44.89002 47.48248,57.0367 -18.9272,15.7567 -62.26236,-74.79052"
         style="fill:none;stroke:#000000;stroke-opacity:1"
         id="path3818" />
      <path
         d="m 401.16528,176.11338 -24.21031,9.38413 c -1.19763,-4.45967 -1.57628,-8.24568 -1.13596,-11.35804 0.45948,-3.17183 1.78926,-6.393 3.98933,-9.66352 1.57698,-2.35299 4.12209,-4.85539 7.63536,-7.5072 3.51328,-2.65165 7.5134,-5.13068 12.00035,-7.43708 7.20273,-3.70216 13.20095,-6.26283 17.99469,-7.682 4.77347,-1.45835 9.274,-1.65694 13.50163,-0.59577 2.95703,0.71925 5.86553,2.40877 8.72551,5.06857 2.83966,2.62062 5.01817,5.40685 6.53554,8.35871 l 14.23243,27.68922 c 1.51725,2.95199 2.88798,5.18314 4.11221,6.69346 1.24322,1.45083 3.16223,3.15137 5.75704,5.10165 l -22.55284,11.5923 c -1.73478,-1.14839 -2.95232,-2.06506 -3.65264,-2.75002 -0.72064,-0.72425 -1.684,-1.92085 -2.89009,-3.58979 -1.59101,4.64916 -3.60737,8.42227 -6.04908,11.31934 -3.36068,3.91676 -7.85518,7.32163 -13.48351,10.21464 -7.47828,3.84387 -14.05584,5.03543 -19.73271,3.57467 -5.63752,-1.48098 -9.76117,-4.76014 -12.37095,-9.83749 -2.44794,-4.76245 -3.06366,-9.39688 -1.84717,-13.90332 1.2165,-4.50638 5.19917,-9.43945 11.94801,-14.79925 8.08263,-6.44334 13.28008,-10.70712 15.59237,-12.79134 2.29202,-2.12346 4.63022,-4.54439 7.01462,-7.26277 -1.51734,-2.95188 -3.18953,-4.70466 -5.01657,-5.25835 -1.82708,-0.55354 -4.27562,-0.0413 -7.34562,1.53659 -3.93594,2.02315 -6.56418,4.17022 -7.88474,6.44119 -1.02925,1.77305 -1.31821,4.2602 -0.8669,7.46147 m 27.33483,1.92206 c -2.69928,2.88022 -5.60709,5.69344 -8.72344,8.43966 -4.21295,3.80753 -6.64514,6.67483 -7.29659,8.6019 -0.67061,1.98674 -0.58106,3.80664 0.26865,5.45969 0.97107,1.88927 2.41961,3.11015 4.34565,3.66264 1.94511,0.49296 4.19685,0.0819 6.75523,-1.23312 2.6764,-1.37567 4.82222,-3.29964 6.43747,-5.77192 1.65453,-2.49244 2.4787,-4.90639 2.47251,-7.24185 0.0129,-2.39497 -0.74946,-5.08813 -2.28697,-8.07948 l -1.97251,-3.83752 m -58.51893,-40.22901 15.35009,-7.89004 7.58659,14.75971 -15.3501,7.89005 -7.58658,-14.75972 m 25.03247,-12.86684 15.52721,-7.98108 7.58658,14.75971 -15.52721,7.98108 -7.58658,-14.75971"
         style="fill:none;stroke:#000000;stroke-opacity:1"
         id="path3820" />
      <path
         d="m 462.37669,121.99836 24.10038,-7.21967 3.29552,11.00097 c 2.25724,-5.57304 4.94421,-9.86586 8.06094,-12.87848 3.10398,-3.05485 7.30554,-5.37603 12.60468,-6.96355 7.16436,-2.14613 13.40155,-1.68163 18.71158,1.39352 5.33961,3.02022 9.34289,8.98154 12.00985,17.88398 l 12.85826,42.92283 -26.00806,7.79115 -11.12477,-37.1362 c -1.27,-4.23923 -2.94958,-6.99299 -5.03876,-8.26128 -2.10195,-1.31056 -4.57307,-1.54043 -7.41336,-0.68963 -3.13711,0.93983 -5.32509,2.8888 -6.56397,5.84692 -1.23893,2.95823 -0.93766,7.51081 0.90379,13.65773 l 9.71513,32.43059 -25.88088,7.75305 -20.23033,-67.53193"
         style="fill:none;stroke:#000000;stroke-opacity:1"
         id="path3822" />
      <path
         d="m 562.5404,94.823781 25.01168,-2.714349 1.239,11.416938 c 3.23352,-5.069336 6.65668,-8.801638 10.2695,-11.196914 3.60798,-2.439125 8.16173,-3.957135 13.66126,-4.554034 7.43525,-0.806826 13.48383,0.784722 18.14573,4.774648 4.701,3.941302 7.55286,10.53148 8.5556,19.77056 l 4.83426,44.54587 -26.9915,2.92921 -4.18253,-38.54043 c -0.47751,-4.39954 -1.62804,-7.41292 -3.4516,-9.04015 -1.82842,-1.67111 -4.21648,-2.34675 -7.16416,-2.02691 -3.25574,0.35338 -5.7618,1.87174 -7.5182,4.55509 -1.75647,2.68345 -2.28853,7.21485 -1.59618,13.59421 l 3.65255,33.65688 -26.85951,2.91488 -7.6059,-70.085499"
         style="fill:none;stroke:#000000;stroke-opacity:1"
         id="path3824" />
      <path
         d="m 740.80813,133.75879 -54.02754,-3.8871 c 0.17429,4.36069 1.11217,7.66708 2.81366,9.91917 2.3851,3.23305 5.67432,5.00041 9.86768,5.3021 2.64836,0.19055 5.21198,-0.29053 7.69087,-1.44326 1.51691,-0.73385 3.19027,-2.09981 5.02009,-4.09787 l 26.37404,4.35998 c -4.56909,6.77026 -9.83385,11.49387 -15.79429,14.17083 -5.95741,2.63282 -14.2991,3.56338 -25.0251,2.79169 -9.31361,-0.67009 -16.54718,-2.49939 -21.70074,-5.48792 -5.15043,-3.03267 -9.28641,-7.52307 -12.40793,-13.47122 -3.07424,-5.98908 -4.33347,-12.84589 -3.77771,-20.57044 0.79075,-10.99085 4.93979,-19.63261 12.44715,-25.925303 7.55146,-6.289398 17.52888,-8.987937 29.9323,-8.095625 10.0639,0.724135 17.89955,2.8186 23.50699,6.283401 5.6073,3.464925 9.7258,8.198097 12.35554,14.199527 2.62956,6.00153 3.61093,13.63698 2.94411,22.90637 l -0.21912,3.04567 M 714.326,118.87567 c -0.15501,-5.2466 -1.29914,-9.07807 -3.43241,-11.4944 -2.08924,-2.41306 -4.98771,-3.75299 -8.69543,-4.0198 -4.28164,-0.308 -7.82476,1.14528 -10.62938,4.35982 -1.78566,2.00127 -3.05002,5.08266 -3.79308,9.24418 l 26.5503,1.9102"
         style="fill:none;stroke:#000000;stroke-opacity:1"
         id="path3826" />
      <path
         d="m 766.97531,96.685626 24.66223,5.605704 -2.56009,11.26307 c 3.48179,-4.33681 6.68014,-7.12701 9.59506,-8.37061 2.96778,-1.27683 6.30729,-1.49349 10.01856,-0.65 3.88374,0.88285 7.85971,3.05731 11.92792,6.52339 l -12.42282,16.91792 c -2.81285,-2.0008 -5.12547,-3.2072 -6.93786,-3.61921 -3.45233,-0.78466 -6.45154,0.0313 -8.99762,2.44777 -3.63093,3.39536 -6.69699,10.59509 -9.19818,21.59921 l -5.23787,23.04398 -26.47468,-6.01767 15.62535,-68.743554"
         style="fill:none;stroke:#000000;stroke-opacity:1"
         id="path3828" />
      <path
         d="m 849.38897,89.408238 25.75423,9.964357 -18.1083,46.803355 27.25177,-14.51039 31.01651,12.00034 -32.49784,13.90421 8.42199,52.37032 -28.41632,-10.99433 -3.1066,-31.52316 -13.06502,5.6216 -6.61097,17.08694 -25.75423,-9.96436 35.11478,-90.758882"
         style="fill:none;stroke:#000000;stroke-opacity:1"
         id="path3830" />
      <path
         d="m 909.56245,180.69435 c 5.51972,-9.22906 13.17705,-14.96239 22.97203,-17.20001 9.8176,-2.2755 20.02461,-0.24454 30.62105,6.09289 12.11547,7.24612 19.16746,16.23355 21.156,26.96234 1.59072,8.63466 -0.0898,17.09178 -5.04157,25.37139 -5.56526,9.30503 -13.22632,15.0877 -22.9832,17.34802 -9.69633,2.24499 -19.99456,0.1079 -30.89472,-6.41127 -9.72286,-5.81505 -16.1082,-12.98574 -19.15605,-21.51207 -3.71098,-10.52145 -2.60217,-20.73854 3.32646,-30.65129 m 23.27773,13.8446 c -3.22557,5.39315 -4.52822,10.0284 -3.90795,13.90578 0.65817,3.90009 2.63939,6.83824 5.94368,8.81445 3.34218,1.99891 6.83767,2.36206 10.4865,1.08947 3.68669,-1.24991 7.21098,-4.68536 10.57286,-10.30637 3.1346,-5.24121 4.38046,-9.78151 3.73758,-13.62092 -0.6203,-3.87737 -2.52557,-6.77009 -5.7158,-8.67817 -3.38027,-2.0216 -6.95545,-2.38085 -10.72555,-1.07774 -3.7475,1.26518 -7.21127,4.55635 -10.39132,9.8735"
         style="fill:none;stroke:#000000;stroke-opacity:1"
         id="path3832" />
      <path
         d="m 1017.7932,207.0316 19.0377,16.44751 -7.5078,8.69 c 5.9131,-1.09048 10.9774,-1.13068 15.1928,-0.12061 4.2442,0.97663 8.4592,3.27315 12.6453,6.88956 5.6593,4.88942 8.6186,10.39948 8.8779,16.53019 0.3215,6.12616 -2.5554,12.70541 -8.6309,19.7378 l -29.2931,33.90606 -20.5445,-17.74942 25.3439,-29.33503 c 2.8931,-3.34875 4.3132,-6.24484 4.2604,-8.68829 -0.024,-2.47693 -1.1578,-4.6846 -3.4013,-6.62301 -2.4782,-2.14092 -5.2975,-2.93915 -8.458,-2.39471 -3.1607,0.54446 -6.8385,3.24453 -11.0335,8.1002 l -22.13252,25.61792 -20.4441,-17.66263 46.08772,-53.34554"
         style="fill:none;stroke:#000000;stroke-opacity:1"
         id="path3834" />
      <path
         d="m 1133.7559,282.2571 -20.2502,17.58235 9.7486,11.22782 -14.8868,12.92565 -9.7487,-11.22782 -18.8968,16.40729 c -2.2723,1.97293 -3.5875,3.49575 -3.9454,4.56848 -0.5559,1.65477 -0.1085,3.31757 1.3422,4.9884 1.3056,1.5037 3.5679,3.23173 6.7869,5.18411 l -12.7793,13.73304 c -5.4839,-4.08842 -10.1262,-8.32137 -13.9269,-12.69884 -4.4102,-5.07928 -7.0081,-9.38765 -7.7938,-12.92513 -0.7858,-3.53751 -0.3665,-7.03709 1.2579,-10.49873 1.6868,-3.45725 5.5043,-7.7681 11.4523,-12.93256 l 18.7465,-16.27673 -6.5281,-7.51863 14.8869,-12.92565 6.5281,7.51863 9.7742,-8.48653 28.2324,11.35485"
         style="fill:none;stroke:#000000;stroke-opacity:1"
         id="path3836" />
      <path
         d="m 1144.8943,417.33048 -29.4193,-45.48171 c -3.3772,2.7642 -5.4528,5.50348 -6.2269,8.21784 -1.1458,3.85076 -0.5771,7.54116 1.7063,11.07122 1.4421,2.22947 3.3695,3.98695 5.7822,5.27247 1.4991,0.76952 3.5972,1.28345 6.2942,1.5418 l 12.395,23.68466 c -8.1566,0.42704 -15.0977,-0.93345 -20.8234,-4.08148 -5.6885,-3.17219 -11.4531,-9.27298 -17.2937,-18.30239 -5.0715,-7.84042 -7.9652,-14.71773 -8.6811,-20.63194 -0.6788,-5.93829 0.4171,-11.94404 3.2877,-18.01726 2.9317,-6.0601 7.649,-11.19325 14.1517,-15.39946 9.2524,-5.9848 18.6505,-7.87385 28.1946,-5.66716 9.568,2.24388 17.729,8.58655 24.483,19.028 5.48,8.47208 8.5244,15.98978 9.1332,22.55313 0.6087,6.56331 -0.6916,12.70125 -3.9008,18.41384 -3.2093,5.71252 -8.7156,11.09251 -16.5187,16.14 l -2.564,1.65844 m -4.0572,-30.10564 c 4.0962,-3.2821 6.4669,-6.50215 7.1122,-9.66017 0.6692,-3.12089 -0.01,-6.24197 -2.0245,-9.36326 -2.3315,-3.60435 -5.6249,-5.55875 -9.88,-5.8632 -2.673,-0.22116 -5.8946,0.62415 -9.665,2.53594 l 14.4573,22.35069"
         style="fill:none;stroke:#000000;stroke-opacity:1"
         id="path3838" />
      <path
         d="m 1142.396,432.10946 13.0367,23.57151 c -2.478,2.28824 -3.9475,4.61931 -4.4085,6.99323 -0.461,2.37386 -0.028,5.08186 1.2995,8.124 1.4511,3.326 3.2848,5.59195 5.5008,6.79784 1.674,0.95948 3.302,1.09413 4.8839,0.40397 1.7847,-0.77873 2.7567,-2.31336 2.9161,-4.60389 0.1055,-1.63942 -0.5912,-5.5602 -2.0902,-11.76234 -2.2511,-9.25386 -3.4824,-15.83839 -3.6939,-19.75361 -0.1532,-3.89236 0.7868,-7.6582 2.8202,-11.29752 2.051,-3.59875 5.0235,-6.24761 8.9174,-7.94659 4.2589,-1.85823 8.4695,-2.22273 12.6318,-1.09351 4.1622,1.12926 7.9405,3.53651 11.335,7.22177 3.4349,3.66757 6.7451,9.15189 9.9308,16.45296 3.3624,7.70667 5.2519,13.64188 5.6685,17.80567 0.4341,4.20429 -0.055,8.06307 -1.4673,11.57634 -1.3948,3.55376 -3.8474,7.06216 -7.3578,10.52521 l -12.5589,-22.47634 c 1.8031,-1.51102 2.8817,-3.18872 3.2359,-5.03309 0.4484,-2.51329 0.071,-5.14901 -1.1325,-7.90718 -1.2212,-2.79875 -2.6219,-4.62589 -4.2022,-5.48141 -1.5221,-0.83267 -2.993,-0.93929 -4.4126,-0.31987 -1.582,0.69019 -2.4246,2.0235 -2.5279,3.99992 -0.1033,1.9764 0.7062,5.8238 2.4288,11.54222 2.6596,8.64099 4.034,15.33209 4.1231,20.07332 0.089,4.74113 -0.9477,8.83883 -3.1101,12.29309 -2.1447,3.49472 -5.0626,6.04734 -8.7537,7.65787 -3.7317,1.62811 -7.8575,2.07632 -12.3773,1.34463 -4.5023,-0.69126 -8.8698,-3.01041 -13.1027,-6.95745 -4.1747,-3.9243 -8.0848,-10.06425 -11.7305,-18.41987 -5.15,-11.80342 -7.1389,-20.95437 -5.9668,-27.45287 1.1898,-6.45797 4.5779,-11.75063 10.1644,-15.87801"
         style="fill:none;stroke:#000000;stroke-opacity:1"
         id="path3840" />
      <path
         d="m 1260.4352,526.13147 -25.8091,7.28662 4.0401,14.31004 -18.9736,5.35675 -4.0401,-14.31005 -24.0843,6.79964 c -2.8962,0.81761 -4.7345,1.63552 -5.5151,2.45375 -1.2076,1.26057 -1.5108,2.95561 -0.9096,5.08512 0.5411,1.91648 1.8523,4.4433 3.9336,7.58046 l -17.4104,6.98469 c -3.2211,-6.03426 -5.6192,-11.84096 -7.1944,-17.42013 -1.8276,-6.47362 -2.3438,-11.4781 -1.5486,-15.01346 0.7953,-3.53539 2.6647,-6.52335 5.6085,-8.96387 2.9983,-2.40998 8.2879,-4.6851 15.8689,-6.82539 l 23.8926,-6.74553 -2.7054,-9.58262 18.9736,-5.35674 2.7054,9.58262 12.4574,-3.51706 20.7105,22.29516"
         style="fill:none;stroke:#000000;stroke-opacity:1"
         id="path3842" />
      <path
         d="m 1184.7824,700.756 -3.5431,-81.04061 c 8.043,0.57859 15.6818,3.05745 22.9164,7.4366 7.2807,4.4214 16.0012,12.89944 26.1616,25.43414 6.2261,7.65682 10.9129,12.52387 14.0602,14.60115 3.1472,2.07717 6.0914,3.05587 8.8326,2.93608 2.9622,-0.12956 5.4339,-1.34504 7.4153,-3.64643 2.0274,-2.25922 2.9686,-5.04675 2.8238,-8.3626 -0.1509,-3.44858 -1.3578,-6.23079 -3.6207,-8.34664 -2.2612,-2.07171 -6.1493,-3.3635 -11.6644,-3.8754 l 1.0055,-27.15342 c 7.6508,0.72862 13.6603,2.41494 18.0284,5.05895 4.4122,2.64206 7.8578,6.4781 10.337,11.50813 2.525,5.07227 3.9867,12.16225 4.385,21.26995 0.4155,9.50553 -0.3449,16.93629 -2.2812,22.29229 -1.9345,5.40008 -5.0908,9.70194 -9.4689,12.90559 -4.3322,3.24577 -9.2835,4.99047 -14.8542,5.2341 -5.9244,0.25893 -11.6599,-1.24003 -17.2064,-4.49688 -5.5447,-3.2128 -11.7446,-9.25399 -18.5996,-18.1236 -3.9958,-5.27384 -6.7859,-8.80631 -8.3702,-10.59745 -1.5825,-1.74702 -3.6437,-3.80528 -6.1836,-6.1748 l 1.844,42.17825 -22.0175,0.9626"
         style="fill:none;stroke:#000000;stroke-opacity:1"
         id="path3844" />
      <path
         d="m 1232.9594,719.02285 c 18.3398,2.41569 30.7399,7.39675 37.2002,14.94318 6.4545,7.59026 8.7917,18.14219 7.0118,31.65581 -0.8554,6.49347 -2.3693,11.7174 -4.5416,15.67179 -2.1286,3.96002 -4.6606,7.08583 -7.5959,9.37746 -2.8916,2.29723 -5.8615,4.00395 -8.9098,5.12015 -3.0104,1.16567 -6.4628,1.96074 -10.3574,2.3852 -7.4326,0.851 -15.0537,0.7622 -22.8634,-0.26641 -17.5063,-2.30599 -29.9278,-6.95509 -37.2645,-13.94732 -7.3367,-6.99238 -10.0515,-17.72795 -8.1444,-32.20672 1.0692,-8.11696 3.2275,-14.50582 6.475,-19.1666 3.2474,-4.66082 7.583,-8.26326 13.0067,-10.8073 3.8601,-1.85729 8.9482,-3.03951 15.2641,-3.54667 6.354,-0.45752 13.2604,-0.19505 20.7192,0.78743 m -3.568,26.57974 c -12.2851,-1.61822 -20.8288,-1.64999 -25.6311,-0.0953 -4.7642,1.60424 -7.418,4.46852 -7.9612,8.59283 -0.3583,2.72022 0.2758,5.1918 1.9024,7.41474 1.6646,2.27249 4.4984,4.14108 8.5013,5.60576 3.9972,1.50844 10.3613,2.83772 19.0925,3.98784 12.8115,1.68747 21.5556,1.72331 26.2321,0.10753 4.7145,-1.56625 7.3579,-4.52117 7.9301,-8.86476 0.5836,-4.43145 -1.2541,-7.93197 -5.5131,-10.50157 -4.2153,-2.5639 -12.3996,-4.64625 -24.553,-6.24705"
         style="fill:none;stroke:#000000;stroke-opacity:1"
         id="path3846" />
      <path
         d="m 1247.2768,891.01774 -94.3348,-29.94886 8.2756,-26.067 61.8143,19.62443 c -1.8666,-5.23572 -3.1618,-10.15069 -3.8854,-14.7449 -0.7371,-4.55211 -1.0685,-10.08972 -0.994,-16.61282 l 21.132,6.70887 c 0.041,9.67051 1.2734,17.56048 3.6984,23.66993 2.4249,6.10935 6.1125,11.45886 11.063,16.04855 l -6.7691,21.3218"
         style="fill:none;stroke:#000000;stroke-opacity:1"
         id="path3848" />
      <path
         d="m 1201.8337,989.53225 -87.4749,-46.30439 12.795,-24.1715 57.3193,30.34165 c -0.9022,-5.48481 -1.2993,-10.552 -1.1914,-15.2016 0.087,-4.61059 0.7494,-10.11842 1.9869,-16.52351 l 19.5953,10.37268 c -1.6859,9.52251 -1.881,17.50583 -0.5854,23.94999 1.2956,6.44403 3.9693,12.3658 8.0211,17.76534 l -10.4659,19.77134"
         style="fill:none;stroke:#000000;stroke-opacity:1"
         id="path3850" />
    </g>
    <path
       sodipodi:type="arc"
       style="fill:none;stroke:#000000;stroke-width:0.25157481;stroke-miterlimit:1;stroke-opacity:1;stroke-dasharray:none"
       id="path3852"
       sodipodi:cx="673.22833"
       sodipodi:cy="673.22833"
       sodipodi:rx="302.32941"
       sodipodi:ry="302.32941"
       d="m 975.55774,673.22833 a 302.32941,302.32941 0 1 1 -604.65881,0 302.32941,302.32941 0 1 1 604.65881,0 z"
       transform="matrix(1.510097,0,0,1.510097,-343.41177,-343.41177)" />
  </g>
  <g
     inkscape:groupmode="layer"
     id="layer5"
     inkscape:label="Text">
    <g
       style="font-size:144px;font-style:normal;font-variant:normal;font-weight:normal;font-stretch:normal;text-align:center;line-height:125%;letter-spacing:0px;word-spacing:0px;writing-mode:lr-tb;text-anchor:middle;fill:none;stroke:#000000;stroke-opacity:1;font-family:Arial Black;-inkscape-font-specification:'Arial Black,'"
       id="text3855">
      <path
         d="m 452.93927,1157.4672 0,104.8359 -28.96875,0 0,-68.6953 c -4.68754,3.5626 -9.23441,6.4454 -13.64062,8.6484 -4.3594,2.2032 -9.84377,4.3126 -16.45313,6.3282 l 0,-23.4844 c 9.74998,-3.1406 17.32028,-6.914 22.71094,-11.3203 5.39058,-4.4062 9.60933,-9.8437 12.65625,-16.3125 l 23.69531,0"
         style=""
         id="path3860" />
      <path
         d="m 487.04083,1233.6156 30.58594,0 0,28.6875 -30.58594,0 0,-28.6875"
         style=""
         id="path3862" />
      <path
         d="m 584.91583,1159.225 52.94532,0 c 11.53117,1e-4 20.15616,2.7423 25.875,8.2265 5.76553,5.4845 8.64833,13.2892 8.64843,23.4141 -10e-5,10.4063 -3.14072,18.5391 -9.42187,24.3984 -6.23446,5.8595 -15.77351,8.7891 -28.61719,8.7891 l -17.4375,0 0,38.25 -31.99219,0 0,-103.0781 m 31.99219,43.9453 7.80469,0 c 6.14057,0 10.45306,-1.0546 12.9375,-3.1641 2.48431,-2.1562 3.72649,-4.8983 3.72656,-8.2265 -7e-5,-3.2343 -1.07819,-5.9765 -3.23437,-8.2266 -2.15632,-2.2499 -6.211,-3.3749 -12.16407,-3.375 l -9.07031,0 0,22.9922"
         style=""
         id="path3864" />
      <path
         d="m 688.2049,1159.225 28.6875,0 0,103.0781 -28.6875,0 0,-103.0781"
         style=""
         id="path3866" />
      <path
         d="m 761.40021,1211.8187 -27.35156,-2.8828 c 1.03124,-4.7812 2.5078,-8.5312 4.42968,-11.25 1.96874,-2.7655 4.78124,-5.1562 8.4375,-7.1719 2.62498,-1.453 6.23435,-2.578 10.82813,-3.375 4.59371,-0.7968 9.56246,-1.1952 14.90625,-1.1953 8.57807,10e-5 15.46869,0.4923 20.67187,1.4766 5.20306,0.9376 9.53899,2.9297 13.00782,5.9766 2.43741,2.1094 4.35929,5.1094 5.76562,9 1.40616,3.8438 2.10929,7.5234 2.10938,11.039 l 0,32.9766 c -9e-5,3.5156 0.21084,6.2812 0.63281,8.2969 0.46866,1.9687 1.45303,4.5 2.95312,7.5937 l -26.85937,0 c -1.07819,-1.9219 -1.78131,-3.375 -2.10938,-4.3594 -0.32818,-1.0312 -0.65631,-2.625 -0.98437,-4.7812 -3.75006,3.6094 -7.47662,6.1875 -11.17969,7.7344 -5.06254,2.0624 -10.94535,3.0937 -17.64844,3.0937 -8.90627,0 -15.6797,-2.0625 -20.32031,-6.1875 -4.59376,-4.125 -6.89063,-9.2109 -6.89062,-15.2578 -10e-6,-5.6719 1.66405,-10.3359 4.99218,-13.9922 3.32811,-3.6562 9.46873,-6.375 18.42188,-8.1562 10.73433,-2.1563 17.69526,-3.6563 20.88281,-4.5 3.18745,-0.8906 6.56244,-2.0391 10.125,-3.4454 -6e-5,-3.5155 -0.72662,-5.9765 -2.17969,-7.3828 -1.45318,-1.4062 -4.00786,-2.1093 -7.66406,-2.1093 -4.68755,0 -8.20317,0.75 -10.54687,2.25 -1.82817,1.1719 -3.30473,3.375 -4.42969,6.6093 m 24.82031,15.0469 c -3.93756,1.4063 -8.03911,2.6485 -12.30469,3.7266 -5.81254,1.5469 -9.49222,3.0703 -11.03906,4.5703 -1.59378,1.5469 -2.39066,3.3047 -2.39062,5.2734 -4e-5,2.25 0.7734,4.1016 2.32031,5.5547 1.59371,1.4063 3.91402,2.1094 6.96094,2.1094 3.18745,0 6.14057,-0.7734 8.85937,-2.3203 2.76557,-1.5469 4.71088,-3.4219 5.83594,-5.625 1.17181,-2.25 1.75775,-5.1563 1.75781,-8.7188 l 0,-4.5703"
         style=""
         id="path3868" />
      <path
         d="m 863.49396,1159.225 0,28.4062 15.75,0 0,20.8828 -15.75,0 0,26.5079 c -5e-5,3.1875 0.30464,5.2968 0.91406,6.3281 0.93745,1.5937 2.57808,2.3906 4.92188,2.3906 2.10932,0 5.06244,-0.6094 8.85937,-1.8281 l 2.10938,19.7578 c -7.07818,1.5469 -13.68755,2.3203 -19.82813,2.3203 -7.12503,0 -12.37503,-0.9141 -15.75,-2.7422 -3.37502,-1.8281 -5.88283,-4.5937 -7.52344,-8.2969 -1.59376,-3.7499 -2.39064,-9.7968 -2.39062,-18.1406 l 0,-26.2969 -10.54688,0 0,-20.8828 10.54688,0 0,-13.7109 28.6875,-14.6953"
         style=""
         id="path3870" />
      <path
         d="m 889.5799,1187.6312 69.25781,0 0,16.7344 -37.6875,38.3906 40.00781,0 0,19.5469 -74.39062,0 0,-18.5625 35.71875,-36.5625 -32.90625,0 0,-19.5469"
         style=""
         id="path3872" />
    </g>
    <path
       style="fill:none;stroke:#000000;stroke-width:1px;stroke-linecap:butt;stroke-linejoin:miter;stroke-opacity:1"
       d="m 615.56757,673.22834 140.25591,0"
       id="path3893"
       inkscape:connector-curvature="0" />
    <path
       style="fill:none;stroke:#000000;stroke-width:1px;stroke-linecap:butt;stroke-linejoin:miter;stroke-opacity:1"
       d="m 673.22833,604.65878 0,140.2559"
       id="path3895"
       inkscape:connector-curvature="0" />
  </g>
</svg>
