999
dxflib 2.0.4.8
  0
SECTION
  2
HEADER
  9
$ACADVER
  1
AC1015
  9
$HANDSEED
  5
FFFF
  9
$DIMASZ
 40
2.5
  9
$MEASUREMENT
 70
1
  9
$DIMGAP
 40
0.625
  9
$DIMEXO
 40
0.625
  9
$INSUNITS
 70
4
  9
$DIMTXT
 40
2.5
  9
$DIMSTYLE
  2
Standard
  9
$PLIMMAX
 10
210.0
 20
297.0
  9
$PLIMMIN
 10
0.0
 20
0.0
  9
$DIMEXE
 40
1.25
  0
ENDSEC
  0
SECTION
  2
TABLES
  0
TABLE
  2
VPORT
  5
8
100
AcDbSymbolTable
 70
1
  0
VPORT
  5
30
100
AcDbSymbolTableRecord
100
AcDbViewportTableRecord
  2
*Active
 70
0
 10
0.0
 20
0.0
 11
1.0
 21
1.0
 12
286.3055555555554861
 22
148.5
 13
0.0
 23
0.0
 14
10.0
 24
10.0
 15
10.0
 25
10.0
 16
0.0
 26
0.0
 36
1.0
 17
0.0
 27
0.0
 37
0.0
 40
297.0
 41
1.92798353909465
 42
50.0
 43
0.0
 44
0.0
 50
0.0
 51
0.0
 71
0
 72
100
 73
1
 74
3
 75
1
 76
1
 77
0
 78
0
281
0
 65
1
110
0.0
120
0.0
130
0.0
111
1.0
121
0.0
131
0.0
112
0.0
122
1.0
132
0.0
 79
0
146
0.0
  0
ENDTAB
  0
TABLE
  2
LTYPE
  5
5
100
AcDbSymbolTable
 70
21
  0
LTYPE
  5
14
100
AcDbSymbolTableRecord
100
AcDbLinetypeTableRecord
  2
ByBlock
 70
0
  3

 72
65
 73
0
 40
0.0
  0
LTYPE
  5
15
100
AcDbSymbolTableRecord
100
AcDbLinetypeTableRecord
  2
ByLayer
 70
0
  3

 72
65
 73
0
 40
0.0
  0
LTYPE
  5
16
100
AcDbSymbolTableRecord
100
AcDbLinetypeTableRecord
  2
CONTINUOUS
 70
0
  3
Solid line
 72
65
 73
0
 40
0.0
  0
LTYPE
  5
31
100
AcDbSymbolTableRecord
100
AcDbLinetypeTableRecord
  2
DOT
 70
0
  3
Dot . . . . . . . . . . . . . . . . . . . . . .
 72
65
 73
2
 40
6.3499999999999996
 49
0.0
 74
0
 49
-6.3499999999999996
 74
0
  0
LTYPE
  5
32
100
AcDbSymbolTableRecord
100
AcDbLinetypeTableRecord
  2
DOT2
 70
0
  3
Dot (.5x) .....................................
 72
65
 73
2
 40
3.1749999999999998
 49
0.0
 74
0
 49
-3.1749999999999998
 74
0
  0
LTYPE
  5
33
100
AcDbSymbolTableRecord
100
AcDbLinetypeTableRecord
  2
DOTX2
 70
0
  3
Dot (2x) .  .  .  .  .  .  .  .  .  .  .  .  .
 72
65
 73
2
 40
12.6999999999999993
 49
0.0
 74
0
 49
-12.6999999999999993
 74
0
  0
LTYPE
  5
34
100
AcDbSymbolTableRecord
100
AcDbLinetypeTableRecord
  2
DASHED
 70
0
  3
Dashed __ __ __ __ __ __ __ __ __ __ __ __ __ _
 72
65
 73
2
 40
19.0500000000000007
 49
12.6999999999999993
 74
0
 49
-6.3499999999999996
 74
0
  0
LTYPE
  5
35
100
AcDbSymbolTableRecord
100
AcDbLinetypeTableRecord
  2
DASHED2
 70
0
  3
Dashed (.5x) _ _ _ _ _ _ _ _ _ _ _ _ _ _ _ _ _
 72
65
 73
2
 40
9.5250000000000004
 49
6.3499999999999996
 74
0
 49
-3.1749999999999998
 74
0
  0
LTYPE
  5
36
100
AcDbSymbolTableRecord
100
AcDbLinetypeTableRecord
  2
DASHEDX2
 70
0
  3
Dashed (2x) ____  ____  ____  ____  ____  ___
 72
65
 73
2
 40
38.1000000000000014
 49
25.3999999999999986
 74
0
 49
-12.6999999999999993
 74
0
  0
LTYPE
  5
37
100
AcDbSymbolTableRecord
100
AcDbLinetypeTableRecord
  2
DASHDOT
 70
0
  3
Dash dot __ . __ . __ . __ . __ . __ . __ . __
 72
65
 73
4
 40
25.3999999999999986
 49
12.6999999999999993
 74
0
 49
-6.3499999999999996
 74
0
 49
0.0
 74
0
 49
-6.3499999999999996
 74
0
  0
LTYPE
  5
38
100
AcDbSymbolTableRecord
100
AcDbLinetypeTableRecord
  2
DASHDOT2
 70
0
  3
Dash dot (.5x) _._._._._._._._._._._._._._._.
 72
65
 73
4
 40
12.6999999999999993
 49
6.3499999999999996
 74
0
 49
-3.1749999999999998
 74
0
 49
0.0
 74
0
 49
-3.1749999999999998
 74
0
  0
LTYPE
  5
39
100
AcDbSymbolTableRecord
100
AcDbLinetypeTableRecord
  2
DASHDOTX2
 70
0
  3
Dash dot (2x) ____  .  ____  .  ____  .  ___
 72
65
 73
4
 40
50.7999999999999972
 49
25.3999999999999986
 74
0
 49
-12.6999999999999993
 74
0
 49
0.0
 74
0
 49
-12.6999999999999993
 74
0
  0
LTYPE
  5
3A
100
AcDbSymbolTableRecord
100
AcDbLinetypeTableRecord
  2
DIVIDE
 70
0
  3
Divide ____ . . ____ . . ____ . . ____ . . ____
 72
65
 73
6
 40
31.75
 49
12.6999999999999993
 74
0
 49
-6.3499999999999996
 74
0
 49
0.0
 74
0
 49
-6.3499999999999996
 74
0
 49
0.0
 74
0
 49
-6.3499999999999996
 74
0
  0
LTYPE
  5
3B
100
AcDbSymbolTableRecord
100
AcDbLinetypeTableRecord
  2
DIVIDE2
 70
0
  3
Divide (.5x) __..__..__..__..__..__..__..__.._
 72
65
 73
6
 40
15.875
 49
6.3499999999999996
 74
0
 49
-3.1749999999999998
 74
0
 49
0.0
 74
0
 49
-3.1749999999999998
 74
0
 49
0.0
 74
0
 49
-3.1749999999999998
 74
0
  0
LTYPE
  5
3C
100
AcDbSymbolTableRecord
100
AcDbLinetypeTableRecord
  2
DIVIDEX2
 70
0
  3
Divide (2x) ________  .  .  ________  .  .  _
 72
65
 73
6
 40
63.5
 49
25.3999999999999986
 74
0
 49
-12.6999999999999993
 74
0
 49
0.0
 74
0
 49
-12.6999999999999993
 74
0
 49
0.0
 74
0
 49
-12.6999999999999993
 74
0
  0
LTYPE
  5
3D
100
AcDbSymbolTableRecord
100
AcDbLinetypeTableRecord
  2
CENTER
 70
0
  3
Center ____ _ ____ _ ____ _ ____ _ ____ _ ____
 72
65
 73
4
 40
50.7999999999999972
 49
31.75
 74
0
 49
-6.3499999999999996
 74
0
 49
6.3499999999999996
 74
0
 49
-6.3499999999999996
 74
0
  0
LTYPE
  5
3E
100
AcDbSymbolTableRecord
100
AcDbLinetypeTableRecord
  2
CENTER2
 70
0
  3
Center (.5x) ___ _ ___ _ ___ _ ___ _ ___ _ ___
 72
65
 73
4
 40
28.5749999999999993
 49
19.0500000000000007
 74
0
 49
-3.1749999999999998
 74
0
 49
3.1749999999999998
 74
0
 49
-3.1749999999999998
 74
0
  0
LTYPE
  5
3F
100
AcDbSymbolTableRecord
100
AcDbLinetypeTableRecord
  2
CENTERX2
 70
0
  3
Center (2x) ________  __  ________  __  _____
 72
65
 73
4
 40
101.5999999999999943
 49
63.5
 74
0
 49
-12.6999999999999993
 74
0
 49
12.6999999999999993
 74
0
 49
-12.6999999999999993
 74
0
  0
LTYPE
  5
40
100
AcDbSymbolTableRecord
100
AcDbLinetypeTableRecord
  2
BORDER
 70
0
  3
Border __ __ . __ __ . __ __ . __ __ . __ __ .
 72
65
 73
6
 40
44.4500000000000028
 49
12.6999999999999993
 74
0
 49
-6.3499999999999996
 74
0
 49
12.6999999999999993
 74
0
 49
-6.3499999999999996
 74
0
 49
0.0
 74
0
 49
-6.3499999999999996
 74
0
  0
LTYPE
  5
41
100
AcDbSymbolTableRecord
100
AcDbLinetypeTableRecord
  2
BORDER2
 70
0
  3
Border (.5x) __.__.__.__.__.__.__.__.__.__.__.
 72
65
 73
6
 40
22.2250000000000014
 49
6.3499999999999996
 74
0
 49
-3.1749999999999998
 74
0
 49
6.3499999999999996
 74
0
 49
-3.1749999999999998
 74
0
 49
0.0
 74
0
 49
-3.1749999999999998
 74
0
  0
LTYPE
  5
42
100
AcDbSymbolTableRecord
100
AcDbLinetypeTableRecord
  2
BORDERX2
 70
0
  3
Border (2x) ____  ____  .  ____  ____  .  ___
 72
65
 73
6
 40
88.9000000000000057
 49
25.3999999999999986
 74
0
 49
-12.6999999999999993
 74
0
 49
25.3999999999999986
 74
0
 49
-12.6999999999999993
 74
0
 49
0.0
 74
0
 49
-12.6999999999999993
 74
0
  0
ENDTAB
  0
TABLE
  2
LAYER
  5
2
100
AcDbSymbolTable
 70
11
  0
LAYER
  5
10
100
AcDbSymbolTableRecord
100
AcDbLayerTableRecord
  2
0
 70
1
 62
7
  6
CONTINUOUS
390
F
  0
LAYER
  5
43
100
AcDbSymbolTableRecord
100
AcDbLayerTableRecord
  2
Schwert
 70
0
 62
7
  6
CONTINUOUS
390
F
  0
LAYER
  5
44
100
AcDbSymbolTableRecord
100
AcDbLayerTableRecord
  2
Hilf
 70
1
 62
4
  6
CONTINUOUS
370
0
390
F
  0
LAYER
  5
45
100
AcDbSymbolTableRecord
100
AcDbLayerTableRecord
  2
Schneidende
 70
0
 62
7
  6
CONTINUOUS
370
0
390
F
  0
LAYER
  5
46
100
AcDbSymbolTableRecord
100
AcDbLayerTableRecord
  2
HandSchutz
 70
1
 62
3
  6
CONTINUOUS
370
0
390
F
  0
LAYER
  5
47
100
AcDbSymbolTableRecord
100
AcDbLayerTableRecord
  2
Loch
 70
1
 62
7
  6
CONTINUOUS
370
0
390
F
  0
LAYER
  5
48
100
AcDbSymbolTableRecord
100
AcDbLayerTableRecord
  2
Fixierung
 70
0
 62
7
  6
CONTINUOUS
370
0
390
F
  0
LAYER
  5
49
100
AcDbSymbolTableRecord
100
AcDbLayerTableRecord
  2
Spitze7mm
 70
1
 62
7
  6
CONTINUOUS
370
0
390
F
  0
LAYER
  5
4A
100
AcDbSymbolTableRecord
100
AcDbLayerTableRecord
  2
HandschutPocket
 70
1
 62
7
  6
CONTINUOUS
370
0
390
F
  0
LAYER
  5
4B
100
AcDbSymbolTableRecord
100
AcDbLayerTableRecord
  2
Schneide
 70
0
 62
3
  6
CONTINUOUS
370
0
390
F
  0
LAYER
  5
4C
100
AcDbSymbolTableRecord
100
AcDbLayerTableRecord
  2
Obsolete
 70
1
 62
7
  6
CONTINUOUS
370
0
390
F
  0
ENDTAB
  0
TABLE
  2
STYLE
  5
3
100
AcDbSymbolTable
 70
1
  0
STYLE
  5
11
100
AcDbSymbolTableRecord
100
AcDbTextStyleTableRecord
  2
Standard
 70
0
 40
0.0
 41
0.75
 50
0.0
 71
0
 42
2.5
  3
txt
  4

  0
ENDTAB
  0
TABLE
  2
VIEW
  5
6
100
AcDbSymbolTable
 70
0
  0
ENDTAB
  0
TABLE
  2
UCS
  5
7
100
AcDbSymbolTable
 70
0
  0
ENDTAB
  0
TABLE
  2
APPID
  5
9
100
AcDbSymbolTable
 70
1
  0
APPID
  5
12
100
AcDbSymbolTableRecord
100
AcDbRegAppTableRecord
  2
ACAD
 70
0
  0
ENDTAB
  0
TABLE
  2
DIMSTYLE
  5
A
100
AcDbSymbolTable
 70
1
100
AcDbDimStyleTable
 71
0
  0
DIMSTYLE
105
27
100
AcDbSymbolTableRecord
100
AcDbDimStyleTableRecord
  2
Standard
 41
2.5
 42
0.625
 43
3.75
 44
1.25
 70
0
 73
0
 74
0
 77
1
 78
8
140
2.5
141
2.5
143
0.03937007874016
147
0.625
171
3
172
1
271
2
272
2
274
3
278
44
283
0
284
8
340
11
  0
ENDTAB
  0
TABLE
  2
BLOCK_RECORD
  5
1
100
AcDbSymbolTable
 70
1
  0
BLOCK_RECORD
  5
1F
100
AcDbSymbolTableRecord
100
AcDbBlockTableRecord
  2
*Model_Space
340
22
  0
BLOCK_RECORD
  5
1B
100
AcDbSymbolTableRecord
100
AcDbBlockTableRecord
  2
*Paper_Space
340
1E
  0
BLOCK_RECORD
  5
23
100
AcDbSymbolTableRecord
100
AcDbBlockTableRecord
  2
*Paper_Space0
340
26
  0
ENDTAB
  0
ENDSEC
  0
SECTION
  2
BLOCKS
  0
BLOCK
  5
20
100
AcDbEntity
  8
0
100
AcDbBlockBegin
  2
*Model_Space
 70
0
 10
0.0
 20
0.0
 30
0.0
  3
*Model_Space
  1

  0
ENDBLK
  5
21
100
AcDbEntity
  8
0
100
AcDbBlockEnd
  0
BLOCK
  5
1C
100
AcDbEntity
 67
1
  8
0
100
AcDbBlockBegin
  2
*Paper_Space
 70
0
 10
0.0
 20
0.0
 30
0.0
  3
*Paper_Space
  1

  0
ENDBLK
  5
1D
100
AcDbEntity
 67
1
  8
0
100
AcDbBlockEnd
  0
BLOCK
  5
24
100
AcDbEntity
  8
0
100
AcDbBlockBegin
  2
*Paper_Space0
 70
0
 10
0.0
 20
0.0
 30
0.0
  3
*Paper_Space0
  1

  0
ENDBLK
  5
25
100
AcDbEntity
  8
0
100
AcDbBlockEnd
  0
ENDSEC
  0
SECTION
  2
ENTITIES
  0
CIRCLE
  5
4D
100
AcDbEntity
100
AcDbCircle
  8
Loch
 62
256
370
-1
  6
ByLayer
 10
29.8538511064537744
 20
0.0
 30
0.0
 40
10.4000000000000004
  0
LINE
  5
4E
100
AcDbEntity
100
AcDbLine
  8
Spitze7mm
 62
256
370
-1
  6
ByLayer
 10
803.125034549381553
 20
7.0619522863892676
 30
0.0
 11
812.6376000000000204
 21
0.0
 31
0.0
  0
LINE
  5
4F
100
AcDbEntity
100
AcDbLine
  8
Spitze7mm
 62
256
370
-1
  6
ByLayer
 10
812.6376000000000204
 20
0.0
 30
0.0
 11
803.2324522227426087
 21
-6.9822073965456362
 31
0.0
  0
SPLINE
  5
50
  8
Schneidende
 62
7
370
-1
  6
ByLayer
100
AcDbEntity
100
AcDbSpline
 70
8
 71
3
 72
8
 73
4
 74
0
 40
0.0
 40
0.0
 40
0.0
 40
0.0
 40
1.0
 40
1.0
 40
1.0
 40
1.0
 10
301.708943999999974
 20
39.5908080000001519
 30
0.0
 10
301.708943999999974
 20
39.5908080000001519
 30
0.0
 10
319.7666960000000245
 20
11.9730640000000221
 30
0.0
 10
355.8822159999999712
 20
-0.7735839999998008
 30
0.0
  0
SPLINE
  5
51
  8
Schneidende
 62
7
370
-1
  6
ByLayer
100
AcDbEntity
100
AcDbSpline
 70
8
 71
3
 72
8
 73
4
 74
0
 40
0.0
 40
0.0
 40
0.0
 40
0.0
 40
1.0
 40
1.0
 40
1.0
 40
1.0
 10
301.708943999999974
 20
-39.5908080000003579
 30
0.0
 10
301.708943999999974
 20
-39.5908080000003579
 30
0.0
 10
319.7666960000000245
 20
-11.9730640000002104
 30
0.0
 10
355.8822159999999712
 20
0.7735840000163671
 30
0.0
  0
LINE
  5
52
100
AcDbEntity
100
AcDbLine
  8
Hilf
 62
256
370
-1
  6
ByLayer
 10
812.6376000000000204
 20
0.0
 30
0.0
 11
812.6376000000000204
 21
0.0
 31
0.0
  0
LINE
  5
53
100
AcDbEntity
100
AcDbLine
  8
Hilf
 62
256
370
-1
  6
ByLayer
 10
812.6376000000000204
 20
0.0
 30
0.0
 11
0.0
 21
0.0
 31
0.0
  0
LINE
  5
54
100
AcDbEntity
100
AcDbLine
  8
Schwert
 62
256
370
-1
  6
ByLayer
 10
803.125034549381553
 20
7.0619522863892676
 30
0.0
 11
820.0
 21
7.0
 31
0.0
  0
LINE
  5
55
100
AcDbEntity
100
AcDbLine
  8
Schwert
 62
256
370
-1
  6
ByLayer
 10
820.0
 20
7.0
 30
0.0
 11
820.0
 21
-7.0
 31
0.0
  0
LINE
  5
56
100
AcDbEntity
100
AcDbLine
  8
Schwert
 62
256
370
-1
  6
ByLayer
 10
820.0
 20
-7.0
 30
0.0
 11
803.2324522227426087
 21
-6.9822073965456362
 31
0.0
  0
LINE
  5
57
100
AcDbEntity
100
AcDbLine
  8
Schwert
 62
256
370
-1
  6
ByLayer
 10
780.7705760000000055
 20
23.6574880000000576
 30
0.0
 11
803.125034549381553
 21
7.0619522863892676
 31
0.0
  0
LINE
  5
58
100
AcDbEntity
100
AcDbLine
  8
Schwert
 62
256
370
-1
  6
ByLayer
 10
780.7705760000000055
 20
-23.6574880000004732
 30
0.0
 11
803.2324522227426087
 21
-6.9822073965456362
 31
0.0
  0
LINE
  5
59
100
AcDbEntity
100
AcDbLine
  8
HandschutPocket
 62
256
370
-1
  6
ByLayer
 10
162.2232886085601251
 20
-41.6940258531388253
 30
0.0
 11
200.6748323613277591
 21
-40.5727975516888435
 31
0.0
  0
ARC
  5
5A
100
AcDbEntity
  8
HandschutPocket
 62
256
370
-1
  6
ByLayer
100
AcDbCircle
 10
503.4497468260047413
 20
5.3023298247125545
 30
0.0
 40
304.8223330446311934
100
AcDbArc
 50
173.3555207962840825
 51
180.9967000786127755
  0
ARC
  5
5B
100
AcDbEntity
  8
HandschutPocket
 62
256
370
-1
  6
ByLayer
100
AcDbCircle
 10
490.7942914975013764
 20
11.9582734480568913
 30
0.0
 40
329.9138052742578679
100
AcDbArc
 50
174.8288057501335118
 51
182.0772356472155025
  0
ARC
  5
5C
100
AcDbEntity
  8
HandschutPocket
 62
256
370
-1
  6
ByLayer
100
AcDbCircle
 10
490.7942914975013764
 20
-11.9582734480573212
 30
0.0
 40
329.9138052742578679
100
AcDbArc
 50
177.9227643527844975
 51
185.1711942498664314
  0
ARC
  5
5D
100
AcDbEntity
  8
HandschutPocket
 62
256
370
-1
  6
ByLayer
100
AcDbCircle
 10
503.4497468260047413
 20
-5.3023298247134427
 30
0.0
 40
304.8223330446311934
100
AcDbArc
 50
179.0032999213872245
 51
186.644479203715747
  0
LINE
  5
5E
100
AcDbEntity
100
AcDbLine
  8
Schneide
 62
256
370
-1
  6
ByLayer
 10
372.1533168706087054
 20
34.5589547867091369
 30
0.0
 11
372.1533168706087054
 21
0.0
 31
0.0
  0
LINE
  5
5F
100
AcDbEntity
100
AcDbLine
  8
HandschutPocket
 62
256
370
-1
  6
ByLayer
 10
162.2232886085602104
 20
41.6940258531389318
 30
0.0
 11
200.6748323613278444
 21
40.5727975516889146
 31
0.0
  0
LINE
  5
60
100
AcDbEntity
100
AcDbLine
  8
Schwert
 62
7
370
-1
  6
ByLayer
 10
162.2232886085602104
 20
41.6940258531389318
 30
0.0
 11
780.7705760000000055
 21
23.6574880000000576
 31
0.0
  0
LINE
  5
61
100
AcDbEntity
100
AcDbLine
  8
Schwert
 62
7
370
-1
  6
ByLayer
 10
162.2232886085597841
 20
-41.6940258531388395
 30
0.0
 11
780.7705760000000055
 21
-23.6574880000004732
 31
0.0
  0
ARC
  5
62
100
AcDbEntity
  8
Schwert
 62
256
370
-1
  6
ByLayer
100
AcDbCircle
 10
122.6328158950476421
 20
-75.7546576997172281
 30
0.0
 40
52.2257807166873746
100
AcDbArc
 50
40.7061989893535738
 51
91.1640048523176034
  0
ARC
  5
63
100
AcDbEntity
  8
Schwert
 62
256
370
-1
  6
ByLayer
100
AcDbCircle
 10
20.0032493635927509
 20
-4.4370598799828613
 30
0.0
 40
20.4894481497337253
100
AcDbArc
 50
167.4933215358633163
 51
291.2015922792560332
  0
LINE
  5
64
100
AcDbEntity
100
AcDbLine
  8
Schwert
 62
256
370
-1
  6
ByLayer
 10
27.4132681157653089
 20
-23.5396541428854249
 30
0.0
 11
121.5718846873059675
 21
-23.5396541428854533
 31
0.0
  0
ARC
  5
65
100
AcDbEntity
  8
Schwert
 62
256
370
-1
  6
ByLayer
100
AcDbCircle
 10
122.6328158950476137
 20
75.7546576997172565
 30
0.0
 40
52.2257807166873746
100
AcDbArc
 50
268.8359951476824108
 51
319.2938010106464617
  0
ARC
  5
66
100
AcDbEntity
  8
Schwert
 62
256
370
-1
  6
ByLayer
100
AcDbCircle
 10
20.0032493635927473
 20
4.4370598799828658
 30
0.0
 40
20.4894481497337253
100
AcDbArc
 50
68.7984077207439668
 51
192.5066784641366837
  0
LINE
  5
67
100
AcDbEntity
100
AcDbLine
  8
Schwert
 62
256
370
-1
  6
ByLayer
 10
27.4132681157653018
 20
23.5396541428854285
 30
0.0
 11
121.5718846873059675
 21
23.5396541428854391
 31
0.0
  0
SPLINE
  5
68
  8
Obsolete
 62
7
370
-1
  6
ByLayer
100
AcDbEntity
100
AcDbSpline
 70
8
 71
3
 72
8
 73
4
 74
0
 40
0.0
 40
0.0
 40
0.0
 40
0.0
 40
1.0
 40
1.0
 40
1.0
 40
1.0
 10
-0.0114308279515569
 20
0.7724533049234594
 30
0.0
 10
-0.1207108279515126
 20
13.7304213049236239
 30
0.0
 10
2.9990651720484891
 20
28.7968453049234938
 30
0.0
 10
14.7553851720484488
 20
36.1834853049236642
 30
0.0
  0
SPLINE
  5
69
  8
Obsolete
 62
7
370
-1
  6
ByLayer
100
AcDbEntity
100
AcDbSpline
 70
8
 71
3
 72
8
 73
4
 74
0
 40
0.0
 40
0.0
 40
0.0
 40
0.0
 40
1.0
 40
1.0
 40
1.0
 40
1.0
 10
14.7553851720484488
 20
36.1834853049236642
 30
0.0
 10
23.141065172048485
 20
40.7052053049236235
 30
0.0
 10
33.0625291720484427
 20
39.6023253049234825
 30
0.0
 10
42.2434171720484812
 20
39.6383093049235811
 30
0.0
  0
SPLINE
  5
6A
  8
Obsolete
 62
7
370
-1
  6
ByLayer
100
AcDbEntity
100
AcDbSpline
 70
8
 71
3
 72
8
 73
4
 74
0
 40
0.0
 40
0.0
 40
0.0
 40
0.0
 40
1.0
 40
1.0
 40
1.0
 40
1.0
 10
42.2434171720484812
 20
39.6383093049235811
 30
0.0
 10
58.1354411720484734
 20
38.6258533049236519
 30
0.0
 10
73.7361931720484733
 20
34.9976773049234851
 30
0.0
 10
89.6549451720484569
 20
34.196341304923493
 30
0.0
  0
SPLINE
  5
6B
  8
Obsolete
 62
7
370
-1
  6
ByLayer
100
AcDbEntity
100
AcDbSpline
 70
8
 71
3
 72
8
 73
4
 74
0
 40
0.0
 40
0.0
 40
0.0
 40
0.0
 40
1.0
 40
1.0
 40
1.0
 40
1.0
 10
89.6549451720484569
 20
34.196341304923493
 30
0.0
 10
107.3873531720484635
 20
32.57862130492353
 30
0.0
 10
125.6171051720484826
 20
31.3888693049235314
 30
0.0
 10
142.9375531720484673
 20
36.4919893049235213
 30
0.0
  0
SPLINE
  5
6C
  8
Obsolete
 62
7
370
-1
  6
ByLayer
100
AcDbEntity
100
AcDbSpline
 70
8
 71
3
 72
8
 73
4
 74
0
 40
0.0
 40
0.0
 40
0.0
 40
0.0
 40
1.0
 40
1.0
 40
1.0
 40
1.0
 10
142.9375531720484673
 20
36.4919893049235213
 30
0.0
 10
149.195417172048451
 20
38.0823413049234603
 30
0.0
 10
155.3660571720484427
 20
39.9992373049236392
 30
0.0
 10
161.475849172048413
 20
42.0831493049234666
 30
0.0
  0
LINE
  5
6D
100
AcDbEntity
100
AcDbLine
  8
Obsolete
 62
256
370
-1
  6
ByLayer
 10
-0.0114308279515569
 20
0.7724533049234594
 30
0.0
 11
-0.0000000000000426
 21
0.0
 31
0.0
  0
SPLINE
  5
6E
  8
Obsolete
 62
7
370
-1
  6
ByLayer
100
AcDbEntity
100
AcDbSpline
 70
8
 71
3
 72
8
 73
4
 74
0
 40
0.0
 40
0.0
 40
0.0
 40
0.0
 40
1.0
 40
1.0
 40
1.0
 40
1.0
 10
-0.0105980765196918
 20
-0.7724651790797736
 30
0.0
 10
-0.1059086503848903
 20
-13.7305434587452453
 30
0.0
 10
3.030107924447428
 20
-28.7935954230825075
 30
0.0
 10
14.794384274505596
 20
-36.1675572070534486
 30
0.0
  0
SPLINE
  5
6F
  8
Obsolete
 62
7
370
-1
  6
ByLayer
100
AcDbEntity
100
AcDbSpline
 70
8
 71
3
 72
8
 73
4
 74
0
 40
0.0
 40
0.0
 40
0.0
 40
0.0
 40
1.0
 40
1.0
 40
1.0
 40
1.0
 10
14.794384274505596
 20
-36.1675572070534486
 30
0.0
 10
23.1849340506523944
 20
-40.6802343808387548
 30
0.0
 10
33.1052033233764149
 20
-39.5666591681372495
 30
0.0
 10
42.2861247810005096
 20
-39.5927456730429981
 30
0.0
  0
SPLINE
  5
70
  8
Obsolete
 62
7
370
-1
  6
ByLayer
100
AcDbEntity
100
AcDbSpline
 70
8
 71
3
 72
8
 73
4
 74
0
 40
0.0
 40
0.0
 40
0.0
 40
0.0
 40
1.0
 40
1.0
 40
1.0
 40
1.0
 10
42.2861247810005096
 20
-39.5927456730429981
 30
0.0
 10
58.1770480660123326
 20
-38.5631578339634302
 30
0.0
 10
73.7738796382428319
 20
-34.9181655212204873
 30
0.0
 10
89.6917585060501352
 20
-34.0996687452870333
 30
0.0
  0
SPLINE
  5
71
  8
Obsolete
 62
7
370
-1
  6
ByLayer
100
AcDbEntity
100
AcDbSpline
 70
8
 71
3
 72
8
 73
4
 74
0
 40
0.0
 40
0.0
 40
0.0
 40
0.0
 40
1.0
 40
1.0
 40
1.0
 40
1.0
 10
89.6917585060501352
 20
-34.0996687452870333
 30
0.0
 10
107.4224122155845293
 20
-32.4628332283707266
 30
0.0
 10
125.6508710078489059
 20
-31.2534293000954051
 30
0.0
 10
142.9768103714203562
 20
-36.3378739919913869
 30
0.0
  0
SPLINE
  5
72
  8
Obsolete
 62
7
370
-1
  6
ByLayer
100
AcDbEntity
100
AcDbSpline
 70
8
 71
3
 72
8
 73
4
 74
0
 40
0.0
 40
0.0
 40
0.0
 40
0.0
 40
1.0
 40
1.0
 40
1.0
 40
1.0
 10
142.9768103714203562
 20
-36.3378739919913869
 30
0.0
 10
149.2363852170571477
 20
-37.9214787653709777
 30
0.0
 10
155.4090881447746426
 20
-39.831721380999852
 30
0.0
 10
161.5211231597747599
 20
-41.9090454968804806
 30
0.0
  0
LINE
  5
73
100
AcDbEntity
100
AcDbLine
  8
Obsolete
 62
256
370
-1
  6
ByLayer
 10
-0.0105980765196918
 20
-0.7724651790797736
 30
0.0
 11
0.0
 21
-0.0000000000005969
 31
0.0
  0
CIRCLE
  5
74
100
AcDbEntity
100
AcDbCircle
  8
Fixierung
 62
256
370
-1
  6
ByLayer
 10
29.8538511064537744
 20
0.0
 30
0.0
 40
1.75
  0
CIRCLE
  5
75
100
AcDbEntity
100
AcDbCircle
  8
Fixierung
 62
256
370
-1
  6
ByLayer
 10
814.0
 20
0.0
 30
0.0
 40
1.75
  0
LINE
  5
76
100
AcDbEntity
100
AcDbLine
  8
Hilf
 62
256
370
-1
  6
ByLayer
 10
748.7522993955805077
 20
24.5911253624777224
 30
0.0
 11
808.7268073344420145
 21
22.842297900595991
 31
0.0
  0
LINE
  5
77
100
AcDbEntity
100
AcDbLine
  8
Hilf
 62
256
370
-1
  6
ByLayer
 10
747.7618656584971859
 20
-24.6200059282070001
 30
0.0
 11
807.7363735973586927
 21
-22.8711784663252971
 31
0.0
  0
LINE
  5
78
100
AcDbEntity
100
AcDbLine
  8
Hilf
 62
256
370
-1
  6
ByLayer
 10
372.1533168706087054
 20
2.0732334794744247
 30
0.0
 11
789.90195567975411
 21
2.0732334794744247
 31
0.0
  0
LINE
  5
79
100
AcDbEntity
100
AcDbLine
  8
Hilf
 62
256
370
-1
  6
ByLayer
 10
789.90195567975411
 20
-2.0732334794744212
 30
0.0
 11
372.1533168706087054
 21
-2.0732334794744212
 31
0.0
  0
LINE
  5
7A
100
AcDbEntity
100
AcDbLine
  8
Schneide
 62
256
370
-1
  6
ByLayer
 10
372.1533168706087054
 20
35.572568402040659
 30
0.0
 11
372.1533168706087054
 21
2.0732334794744247
 31
0.0
  0
LINE
  5
7B
100
AcDbEntity
100
AcDbLine
  8
Schneide
 62
256
370
-1
  6
ByLayer
 10
385.7919329897051739
 20
2.0732334794744247
 30
0.0
 11
385.7919329897051739
 21
35.1721296312707494
 31
0.0
  0
LINE
  5
7C
100
AcDbEntity
100
AcDbLine
  8
Schneide
 62
256
370
-1
  6
ByLayer
 10
400.3086048032054123
 20
34.7515739091152795
 30
0.0
 11
400.3086048032054123
 21
2.0732334794744247
 31
0.0
  0
LINE
  5
7D
100
AcDbEntity
100
AcDbLine
  8
Schneide
 62
256
370
-1
  6
ByLayer
 10
415.7051045328065015
 20
2.0732334794744247
 30
0.0
 11
415.7051045328065015
 21
34.3184952323993215
 31
0.0
  0
LINE
  5
7E
100
AcDbEntity
100
AcDbLine
  8
Schneide
 62
256
370
-1
  6
ByLayer
 10
430.2476289070368125
 20
33.8785665375817544
 30
0.0
 11
430.2476289070368125
 21
2.0732334794744247
 31
0.0
  0
LINE
  5
7F
100
AcDbEntity
100
AcDbLine
  8
Schneide
 62
256
370
-1
  6
ByLayer
 10
445.6182760759079997
 20
2.0732334794744247
 30
0.0
 11
445.6182760759079997
 21
33.4266685522455731
 31
0.0
  0
LINE
  5
80
100
AcDbEntity
100
AcDbLine
  8
Schneide
 62
256
370
-1
  6
ByLayer
 10
459.2563358445350445
 20
33.0326867618327995
 30
0.0
 11
459.2563358445350445
 21
2.0732334794744247
 31
0.0
  0
LINE
  5
81
100
AcDbEntity
100
AcDbLine
  8
Schneide
 62
256
370
-1
  6
ByLayer
 10
474.6516484559769538
 20
2.0732334794744247
 30
0.0
 11
474.6516484559769538
 21
32.5874744362385869
 31
0.0
  0
LINE
  5
82
100
AcDbEntity
100
AcDbLine
  8
Schneide
 62
256
370
-1
  6
ByLayer
 10
490.9534633991239048
 20
32.1084139493447935
 30
0.0
 11
490.9534633991239048
 21
2.0732334794744247
 31
0.0
  0
LINE
  5
83
100
AcDbEntity
100
AcDbLine
  8
Schneide
 62
256
370
-1
  6
ByLayer
 10
504.5648199990783951
 20
2.0732334794744247
 30
0.0
 11
504.5648199990783951
 21
31.710968701737162
 31
0.0
  0
LINE
  5
84
100
AcDbEntity
100
AcDbLine
  8
Schneide
 62
256
370
-1
  6
ByLayer
 10
519.5098281136940841
 20
31.2757242526612842
 30
0.0
 11
519.5098281136940841
 21
2.0732334794744247
 31
0.0
  0
LINE
  5
85
100
AcDbEntity
100
AcDbLine
  8
Schneide
 62
256
370
-1
  6
ByLayer
 10
534.9178911236961085
 20
2.0732334794744247
 30
0.0
 11
534.9178911236961085
 21
30.8204630157652417
 31
0.0
  0
LINE
  5
86
100
AcDbEntity
100
AcDbLine
  8
Schneide
 62
256
370
-1
  6
ByLayer
 10
550.2894548621884496
 20
30.3782053171310125
 30
0.0
 11
550.2894548621884496
 21
2.0732334794744247
 31
0.0
  0
LINE
  5
87
100
AcDbEntity
100
AcDbLine
  8
Schneide
 62
256
370
-1
  6
ByLayer
 10
564.8310626667973793
 20
2.0732334794744247
 30
0.0
 11
564.8310626667973793
 21
29.9284161699145201
 31
0.0
  0
LINE
  5
88
100
AcDbEntity
100
AcDbLine
  8
Schneide
 62
256
370
-1
  6
ByLayer
 10
579.7761367430919108
 20
29.5183880246629329
 30
0.0
 11
579.7761367430919108
 21
2.0732334794744247
 31
0.0
  0
LINE
  5
89
100
AcDbEntity
100
AcDbLine
  8
Schneide
 62
256
370
-1
  6
ByLayer
 10
595.6240333729313079
 20
2.0732334794744247
 30
0.0
 11
595.6240333729313079
 21
29.0450205425263306
 31
0.0
  0
LINE
  5
8A
100
AcDbEntity
100
AcDbLine
  8
Schneide
 62
256
370
-1
  6
ByLayer
 10
609.6638954059687876
 20
28.6468755284367376
 30
0.0
 11
609.6638954059687876
 21
2.0732334794744247
 31
0.0
  0
LINE
  5
8B
100
AcDbEntity
100
AcDbLine
  8
Schneide
 62
256
370
-1
  6
ByLayer
 10
625.5372049160326924
 20
2.0732334794744247
 30
0.0
 11
625.5372049160326924
 21
28.2064869236102567
 31
0.0
  0
LINE
  5
8C
100
AcDbEntity
100
AcDbLine
  8
Schneide
 62
256
370
-1
  6
ByLayer
 10
640.4819712351788894
 20
27.748235436425972
 30
0.0
 11
640.4819712351788894
 21
2.0732334794744247
 31
0.0
  0
LINE
  5
8D
100
AcDbEntity
100
AcDbLine
  8
Schneide
 62
256
370
-1
  6
ByLayer
 10
655.0104768776179753
 20
2.0732334794744247
 30
0.0
 11
655.0104768776179753
 21
27.3148804091534778
 31
0.0
  0
LINE
  5
8E
100
AcDbEntity
100
AcDbLine
  8
Schneide
 62
256
370
-1
  6
ByLayer
 10
669.917387675127884
 20
26.8899130192652187
 30
0.0
 11
669.917387675127884
 21
2.0732334794744247
 31
0.0
  0
LINE
  5
8F
100
AcDbEntity
100
AcDbLine
  8
Schneide
 62
256
370
-1
  6
ByLayer
 10
685.363548002235575
 20
2.0732334794744247
 30
0.0
 11
685.363548002235575
 21
26.4379343432581102
 31
0.0
  0
LINE
  5
90
100
AcDbEntity
100
AcDbLine
  8
Schneide
 62
256
370
-1
  6
ByLayer
 10
700.2959376416486066
 20
26.0040892874930769
 30
0.0
 11
700.2959376416486066
 21
2.0732334794744247
 31
0.0
  0
LINE
  5
91
100
AcDbEntity
100
AcDbLine
  8
Schneide
 62
256
370
-1
  6
ByLayer
 10
714.836819963820858
 20
2.0732334794744247
 30
0.0
 11
714.836819963820858
 21
25.5831991159018308
 31
0.0
  0
LINE
  5
92
100
AcDbEntity
100
AcDbLine
  8
Schneide
 62
256
370
-1
  6
ByLayer
 10
730.7001203286466762
 20
25.1175181180672702
 30
0.0
 11
730.7001203286466762
 21
2.0732334794744247
 31
0.0
  0
LINE
  5
93
100
AcDbEntity
100
AcDbLine
  8
Schneide
 62
256
370
-1
  6
ByLayer
 10
744.3100919254060273
 20
2.0732334794744247
 30
0.0
 11
744.3100919254060273
 21
24.7066933814004024
 31
0.0
  0
LINE
  5
94
100
AcDbEntity
100
AcDbLine
  8
Schneide
 62
256
370
-1
  6
ByLayer
 10
760.173985849311407
 20
24.2580745444260266
 30
0.0
 11
760.173985849311407
 21
2.0732334794744247
 31
0.0
  0
LINE
  5
95
100
AcDbEntity
100
AcDbLine
  8
Schneide
 62
256
370
-1
  6
ByLayer
 10
775.1030626315398422
 20
2.0732334794744247
 30
0.0
 11
775.1030626315398422
 21
23.8146465355496808
 31
0.0
  0
LINE
  5
96
100
AcDbEntity
100
AcDbLine
  8
Schneide
 62
256
370
-1
  6
ByLayer
 10
789.90195567975411
 20
2.0732334794744247
 30
0.0
 11
789.90195567975411
 21
23.3929255252846566
 31
0.0
  0
LINE
  5
97
100
AcDbEntity
100
AcDbLine
  8
Schneide
 62
256
370
-1
  6
ByLayer
 10
789.90195567975411
 20
-2.0732334794744212
 30
0.0
 11
789.90195567975411
 21
-23.4075859738464871
 31
0.0
  0
LINE
  5
98
100
AcDbEntity
100
AcDbLine
  8
Schneide
 62
256
370
-1
  6
ByLayer
 10
775.1030626315398422
 20
-2.0732334794744212
 30
0.0
 11
775.1030626315398422
 21
-23.8238131716206638
 31
0.0
  0
LINE
  5
99
100
AcDbEntity
100
AcDbLine
  8
Schneide
 62
256
370
-1
  6
ByLayer
 10
760.173985849311407
 20
-2.0732334794744212
 30
0.0
 11
760.173985849311407
 21
-24.2525691542553368
 31
0.0
  0
LINE
  5
9A
100
AcDbEntity
100
AcDbLine
  8
Schneide
 62
256
370
-1
  6
ByLayer
 10
744.3100919254060273
 20
-2.0732334794744212
 30
0.0
 11
744.3100919254060273
 21
-24.7073945904317931
 31
0.0
  0
LINE
  5
9B
100
AcDbEntity
100
AcDbLine
  8
Schneide
 62
256
370
-1
  6
ByLayer
 10
730.7001203286466762
 20
-2.0732334794744212
 30
0.0
 11
730.7001203286466762
 21
-25.1051027246418776
 31
0.0
  0
LINE
  5
9C
100
AcDbEntity
100
AcDbLine
  8
Schneide
 62
256
370
-1
  6
ByLayer
 10
714.836819963820858
 20
-2.0732334794744212
 30
0.0
 11
714.836819963820858
 21
-25.593592041030746
 31
0.0
  0
LINE
  5
9D
100
AcDbEntity
100
AcDbLine
  8
Schneide
 62
256
370
-1
  6
ByLayer
 10
700.2959376416486066
 20
-2.0732334794744212
 30
0.0
 11
700.2959376416486066
 21
-25.9615992775739031
 31
0.0
  0
LINE
  5
9E
100
AcDbEntity
100
AcDbLine
  8
Schneide
 62
256
370
-1
  6
ByLayer
 10
685.363548002235575
 20
-2.0732334794744212
 30
0.0
 11
685.363548002235575
 21
-26.4398455356065121
 31
0.0
  0
LINE
  5
9F
100
AcDbEntity
100
AcDbLine
  8
Schneide
 62
256
370
-1
  6
ByLayer
 10
669.917387675127884
 20
-2.0732334794744212
 30
0.0
 11
669.917387675127884
 21
-26.8907375762220724
 31
0.0
  0
LINE
  5
A0
100
AcDbEntity
100
AcDbLine
  8
Schneide
 62
256
370
-1
  6
ByLayer
 10
655.0104768776179753
 20
-2.0732334794744212
 30
0.0
 11
655.0104768776179753
 21
-27.3252955485518001
 31
0.0
  0
LINE
  5
A1
100
AcDbEntity
100
AcDbLine
  8
Schneide
 62
256
370
-1
  6
ByLayer
 10
640.4819712351788894
 20
-2.0732334794744212
 30
0.0
 11
640.4819712351788894
 21
-27.729491360835091
 31
0.0
  0
LINE
  5
A2
100
AcDbEntity
100
AcDbLine
  8
Schneide
 62
256
370
-1
  6
ByLayer
 10
625.5372049160326924
 20
-2.0732334794744212
 30
0.0
 11
625.5372049160326924
 21
-28.1719227619543986
 31
0.0
  0
LINE
  5
A3
100
AcDbEntity
100
AcDbLine
  8
Schneide
 62
256
370
-1
  6
ByLayer
 10
609.6638954059687876
 20
-2.0732334794744212
 30
0.0
 11
609.6638954059687876
 21
-28.5915568124720494
 31
0.0
  0
LINE
  5
A4
100
AcDbEntity
100
AcDbLine
  8
Schneide
 62
256
370
-1
  6
ByLayer
 10
595.6240333729313079
 20
-2.0732334794744212
 30
0.0
 11
595.6240333729313079
 21
-28.9921698172260918
 31
0.0
  0
LINE
  5
A5
100
AcDbEntity
100
AcDbLine
  8
Schneide
 62
256
370
-1
  6
ByLayer
 10
579.7761367430919108
 20
-2.0732334794744212
 30
0.0
 11
579.7761367430919108
 21
-29.5502361739400108
 31
0.0
  0
LINE
  5
A6
100
AcDbEntity
100
AcDbLine
  8
Schneide
 62
256
370
-1
  6
ByLayer
 10
564.8310626667973793
 20
-2.0732334794744212
 30
0.0
 11
564.8310626667973793
 21
-29.9417016313644808
 31
0.0
  0
LINE
  5
A7
100
AcDbEntity
100
AcDbLine
  8
Schneide
 62
256
370
-1
  6
ByLayer
 10
550.2894548621884496
 20
-2.0732334794744212
 30
0.0
 11
550.2894548621884496
 21
-30.3585682329453483
 31
0.0
  0
LINE
  5
A8
100
AcDbEntity
100
AcDbLine
  8
Schneide
 62
256
370
-1
  6
ByLayer
 10
534.9178911236961085
 20
-2.0732334794744212
 30
0.0
 11
534.9178911236961085
 21
-30.8264042066561075
 31
0.0
  0
LINE
  5
A9
100
AcDbEntity
100
AcDbLine
  8
Schneide
 62
256
370
-1
  6
ByLayer
 10
519.5098281136940841
 20
-2.0732334794744212
 30
0.0
 11
519.5098281136940841
 21
-31.2583856344706916
 31
0.0
  0
LINE
  5
AA
100
AcDbEntity
100
AcDbLine
  8
Schneide
 62
256
370
-1
  6
ByLayer
 10
504.5648199990783951
 20
-2.0732334794744212
 30
0.0
 11
504.5648199990783951
 21
-31.6986641405359464
 31
0.0
  0
LINE
  5
AB
100
AcDbEntity
100
AcDbLine
  8
Schneide
 62
256
370
-1
  6
ByLayer
 10
490.9534633991239048
 20
-2.0732334794744212
 30
0.0
 11
490.9534633991239048
 21
-32.0815983077344171
 31
0.0
  0
LINE
  5
AC
100
AcDbEntity
100
AcDbLine
  8
Schneide
 62
256
370
-1
  6
ByLayer
 10
474.6516484559769538
 20
-2.0732334794744212
 30
0.0
 11
474.6516484559769538
 21
-32.5969305137198546
 31
0.0
  0
LINE
  5
AD
100
AcDbEntity
100
AcDbLine
  8
Schneide
 62
256
370
-1
  6
ByLayer
 10
459.2563358445350445
 20
-2.0732334794744212
 30
0.0
 11
459.2563358445350445
 21
-33.0109567720795525
 31
0.0
  0
LINE
  5
AE
100
AcDbEntity
100
AcDbLine
  8
Schneide
 62
256
370
-1
  6
ByLayer
 10
445.6182760759079997
 20
-2.0732334794744212
 30
0.0
 11
445.6182760759079997
 21
-33.4179250066452056
 31
0.0
  0
LINE
  5
AF
100
AcDbEntity
100
AcDbLine
  8
Schneide
 62
256
370
-1
  6
ByLayer
 10
430.2476289070368125
 20
-2.0732334794744212
 30
0.0
 11
430.2476289070368125
 21
-33.8807927793911574
 31
0.0
  0
LINE
  5
B0
100
AcDbEntity
100
AcDbLine
  8
Schneide
 62
256
370
-1
  6
ByLayer
 10
415.7051045328065015
 20
-2.0732334794744212
 30
0.0
 11
415.7051045328065015
 21
-34.2898112216982156
 31
0.0
  0
LINE
  5
B1
100
AcDbEntity
100
AcDbLine
  8
Schneide
 62
256
370
-1
  6
ByLayer
 10
400.3086048032054123
 20
-2.0732334794744212
 30
0.0
 11
400.3086048032054123
 21
-34.7493077925209377
 31
0.0
  0
LINE
  5
B2
100
AcDbEntity
100
AcDbLine
  8
Schneide
 62
256
370
-1
  6
ByLayer
 10
385.7919329897051739
 20
-2.0732334794744212
 30
0.0
 11
385.7919329897051739
 21
-35.1492547953394308
 31
0.0
  0
LINE
  5
B3
100
AcDbEntity
100
AcDbLine
  8
Schneide
 62
256
370
-1
  6
ByLayer
 10
372.1533168706087054
 20
-2.0732334794744212
 30
0.0
 11
372.1533168706087054
 21
-35.5889422399218418
 31
0.0
  0
ENDSEC
  0
SECTION
  2
OBJECTS
  0
DICTIONARY
  5
C
100
AcDbDictionary
280
0
281
1
  3
ACAD_GROUP
350
D
  3
ACAD_LAYOUT
350
1A
  3
ACAD_MLINESTYLE
350
17
  3
ACAD_PLOTSETTINGS
350
19
  3
ACAD_PLOTSTYLENAME
350
E
  3
AcDbVariableDictionary
350
B4
  0
DICTIONARY
  5
D
100
AcDbDictionary
280
0
281
1
  0
ACDBDICTIONARYWDFLT
  5
E
100
AcDbDictionary
281
1
  3
Normal
350
F
100
AcDbDictionaryWithDefault
340
F
  0
ACDBPLACEHOLDER
  5
F
  0
DICTIONARY
  5
17
100
AcDbDictionary
280
0
281
1
  3
Standard
350
18
  0
MLINESTYLE
  5
18
100
AcDbMlineStyle
  2
STANDARD
 70
0
  3

 62
256
 51
90.0
 52
90.0
 71
2
 49
0.5
 62
256
  6
BYLAYER
 49
-0.5
 62
256
  6
BYLAYER
  0
DICTIONARY
  5
19
100
AcDbDictionary
280
0
281
1
  0
DICTIONARY
  5
1A
100
AcDbDictionary
281
1
  3
Layout1
350
1E
  3
Layout2
350
26
  3
Model
350
22
  0
LAYOUT
  5
1E
100
AcDbPlotSettings
  1

  2
C:\Program Files\AutoCAD 2002\plotters\DWF ePlot (optimized for plotting).pc3
  4

  6

 40
0.0
 41
0.0
 42
0.0
 43
0.0
 44
0.0
 45
0.0
 46
0.0
 47
0.0
 48
0.0
 49
0.0
140
0.0
141
0.0
142
1.0
143
1.0
 70
688
 72
0
 73
0
 74
5
  7

 75
16
147
1.0
148
0.0
149
0.0
100
AcDbLayout
  1
Layout1
 70
1
 71
1
 10
0.0
 20
0.0
 11
420.0
 21
297.0
 12
0.0
 22
0.0
 32
0.0
 14
100000000000000000000.0
 24
100000000000000000000.0
 34
100000000000000000000.0
 15
-100000000000000000000.0
 25
-100000000000000000000.0
 35
-100000000000000000000.0
146
0.0
 13
0.0
 23
0.0
 33
0.0
 16
1.0
 26
0.0
 36
0.0
 17
0.0
 27
1.0
 37
0.0
 76
0
330
1B
  0
LAYOUT
  5
22
100
AcDbPlotSettings
  1

  2
C:\Program Files\AutoCAD 2002\plotters\DWF ePlot (optimized for plotting).pc3
  4

  6

 40
0.0
 41
0.0
 42
0.0
 43
0.0
 44
0.0
 45
0.0
 46
0.0
 47
0.0
 48
0.0
 49
0.0
140
0.0
141
0.0
142
1.0
143
1.0
 70
1712
 72
0
 73
0
 74
0
  7

 75
0
147
1.0
148
0.0
149
0.0
100
AcDbLayout
  1
Model
 70
1
 71
0
 10
0.0
 20
0.0
 11
12.0
 21
9.0
 12
0.0
 22
0.0
 32
0.0
 14
0.0
 24
0.0
 34
0.0
 15
0.0
 25
0.0
 35
0.0
146
0.0
 13
0.0
 23
0.0
 33
0.0
 16
1.0
 26
0.0
 36
0.0
 17
0.0
 27
1.0
 37
0.0
 76
0
330
1F
  0
LAYOUT
  5
26
100
AcDbPlotSettings
  1

  2
C:\Program Files\AutoCAD 2002\plotters\DWF ePlot (optimized for plotting).pc3
  4

  6

 40
0.0
 41
0.0
 42
0.0
 43
0.0
 44
0.0
 45
0.0
 46
0.0
 47
0.0
 48
0.0
 49
0.0
140
0.0
141
0.0
142
1.0
143
1.0
 70
688
 72
0
 73
0
 74
5
  7

 75
16
147
1.0
148
0.0
149
0.0
100
AcDbLayout
  1
Layout2
 70
1
 71
2
 10
0.0
 20
0.0
 11
12.0
 21
9.0
 12
0.0
 22
0.0
 32
0.0
 14
0.0
 24
0.0
 34
0.0
 15
0.0
 25
0.0
 35
0.0
146
0.0
 13
0.0
 23
0.0
 33
0.0
 16
1.0
 26
0.0
 36
0.0
 17
0.0
 27
1.0
 37
0.0
 76
0
330
23
  0
DICTIONARY
  5
B4
100
AcDbDictionary
281
1
  3
DIMASSOC
350
B6
  3
HIDETEXT
350
B5
  0
DICTIONARYVAR
  5
B5
100
DictionaryVariables
280
0
  1
2
  0
DICTIONARYVAR
  5
B6
100
DictionaryVariables
280
0
  1
1
  0
ENDSEC
  0
EOF
