<?xml version="1.0" encoding="UTF-8" standalone="no"?>
<!-- Created with Inkscape (http://www.inkscape.org/) -->

<svg
   xmlns:dc="http://purl.org/dc/elements/1.1/"
   xmlns:cc="http://creativecommons.org/ns#"
   xmlns:rdf="http://www.w3.org/1999/02/22-rdf-syntax-ns#"
   xmlns:svg="http://www.w3.org/2000/svg"
   xmlns="http://www.w3.org/2000/svg"
   xmlns:sodipodi="http://sodipodi.sourceforge.net/DTD/sodipodi-0.dtd"
   xmlns:inkscape="http://www.inkscape.org/namespaces/inkscape"
   sodipodi:docname="Scheibe.dxf"
   inkscape:version="0.48.3.1 r9886"
   version="1.1"
   id="svg2"
   height="1346.4567"
   width="1346.4567">
  <sodipodi:namedview
     id="base"
     pagecolor="#ffffff"
     bordercolor="#666666"
     borderopacity="1.0"
     inkscape:pageopacity="0.0"
     inkscape:pageshadow="2"
     inkscape:zoom="0.64168422"
     inkscape:cx="613.89443"
     inkscape:cy="630.00029"
     inkscape:document-units="mm"
     inkscape:current-layer="layer4"
     showgrid="false"
     units="mm"
     inkscape:snap-center="false"
     inkscape:snap-nodes="true"
     inkscape:snap-global="true"
     inkscape:snap-grids="true"
     inkscape:snap-to-guides="true"
     showguides="true"
     inkscape:guide-bbox="true"
     inkscape:window-width="1855"
     inkscape:window-height="1056"
     inkscape:window-x="65"
     inkscape:window-y="24"
     inkscape:window-maximized="1"
     inkscape:snap-object-midpoints="false">
    <sodipodi:guide
       id="guide2991"
       position="673.22833,1093.996"
       orientation="1,0" />
    <sodipodi:guide
       id="guide2993"
       position="-146.4895,673.22833"
       orientation="0,1" />
    <sodipodi:guide
       id="guide3012"
       position="-381.80774,342.84777"
       orientation="0,1" />
    <sodipodi:guide
       id="guide3037"
       position="-165.29317,1474.4151"
       orientation="1,0" />
  </sodipodi:namedview>
  <defs
     id="defs4" />
  <metadata
     id="metadata7">
    <rdf:RDF>
      <cc:Work
         rdf:about="">
        <dc:format>image/svg+xml</dc:format>
        <dc:type
           rdf:resource="http://purl.org/dc/dcmitype/StillImage" />
        <dc:title></dc:title>
      </cc:Work>
    </rdf:RDF>
  </metadata>
  <g
     style="display:none"
     inkscape:label="Hilf"
     id="layer2"
     inkscape:groupmode="layer">
    <path
       sodipodi:open="true"
       sodipodi:end="10.469176"
       sodipodi:start="4.1876521"
       d="m 421.83168,238.93877 a 501.80444,501.80444 0 1 1 -0.72118,0.41827"
       sodipodi:ry="501.80444"
       sodipodi:rx="501.80444"
       sodipodi:cy="673.22833"
       sodipodi:cx="673.22833"
       id="path3025"
       style="opacity:0.83965017;fill:none;stroke:#000000;stroke-width:0.99921262;stroke-miterlimit:4;stroke-opacity:1;stroke-dasharray:none"
       sodipodi:type="arc" />
    <path
       style="opacity:0.83965017;fill:none;stroke:#000000;stroke-width:0.88654327;stroke-miterlimit:4;stroke-opacity:1;stroke-dasharray:none"
       d="M 663.87932,85.175588 C 542.33597,86.646762 422.00695,127.73334 324.39841,199.79614 226.2096,271.5422 151.59908,375.02828 114.16763,490.92441 c -38.933267,118.60035 -38.819536,249.99644 1.116,368.387 41.54641,124.54505 125.64128,234.48979 235.84294,306.02569 114.17283,75.0156 255.12809,108.2684 390.98062,92.0392 147.0071,-16.879 286.15291,-92.0422 381.07791,-205.34 90.1041,-106.46961 139.9435,-245.89763 138.1337,-385.49547 C 1260.3954,545.56621 1220.3279,425.86356 1149.3946,328.11349 1075.9741,225.99872 968.67165,149.05635 848.48108,111.93147 788.92013,93.31371 726.33156,84.21648 663.87932,85.175588 z"
       id="path3031"
       inkscape:connector-curvature="0" />
    <path
       sodipodi:type="arc"
       style="opacity:0.83965017;fill:none;stroke:#000000;stroke-width:0.99921262;stroke-miterlimit:4;stroke-opacity:1;stroke-dasharray:none;display:inline"
       id="path4054"
       sodipodi:cx="673.22833"
       sodipodi:cy="673.22833"
       sodipodi:rx="448.81891"
       sodipodi:ry="448.81891"
       d="m 448.37666,284.79541 a 448.81891,448.81891 0 1 1 -0.64504,0.37411"
       sodipodi:start="4.1876521"
       sodipodi:end="10.469176"
       sodipodi:open="true" />
  </g>
  <g
     style="display:inline"
     inkscape:label="Rundtext"
     id="layer4"
     inkscape:groupmode="layer">
    <path
       inkscape:transform-center-y="132.35671"
       inkscape:transform-center-x="537.51287"
       d="M 94.396577,852.39663 82.163874,800.88385 c -2.664123,-11.21916 -1.988876,-20.24438 2.025735,-27.07564 4.003968,-6.87665 10.931424,-11.48468 20.782371,-13.82409 10.12477,-2.40422 18.76316,-1.2276 25.91517,3.52985 7.14131,4.712 12.19566,13.31606 15.16309,25.81224 l 4.02883,16.96567 37.21508,-8.83739 7.39161,31.12656 -100.289183,23.81558 m 35.364683,-41.27984 -1.80322,-7.59353 c -1.41869,-5.97444 -3.44122,-9.92656 -6.06757,-11.85648 -2.67183,-1.91891 -5.6256,-2.49668 -8.86499,-1.72502 -3.14678,0.74735 -5.56568,2.42987 -7.25669,5.04756 -1.69087,2.61785 -1.84861,6.82276 -0.47326,12.61474 l 2.09563,8.82491 22.3701,-5.31218"
       style="font-size:144px;font-style:normal;font-variant:normal;font-weight:normal;font-stretch:normal;text-align:center;line-height:125%;letter-spacing:0px;word-spacing:0px;writing-mode:lr-tb;text-anchor:middle;fill:none;stroke:#000000;stroke-opacity:1;font-family:Arial Black;-inkscape-font-specification:'Arial Black,'"
       id="path3810"
       inkscape:connector-curvature="0" />
    <path
       inkscape:transform-center-y="44.071976"
       inkscape:transform-center-x="553.36142"
       d="m 71.584679,735.80777 -2.344292,-28.59155 102.733373,-8.42336 2.3443,28.59154 -102.733381,8.42337"
       style="font-size:144px;font-style:normal;font-variant:normal;font-weight:normal;font-stretch:normal;text-align:center;line-height:125%;letter-spacing:0px;word-spacing:0px;writing-mode:lr-tb;text-anchor:middle;fill:none;stroke:#000000;stroke-opacity:1;font-family:Arial Black;-inkscape-font-specification:'Arial Black,'"
       id="path3812"
       inkscape:connector-curvature="0" />
    <path
       inkscape:transform-center-y="-34.737421"
       inkscape:transform-center-x="539.94725"
       d="m 144.98811,595.68332 -3.59194,57.26245 c 4.61704,-0.22698 8.10997,-1.25251 10.4788,-3.07657 3.40117,-2.55768 5.24114,-6.05873 5.51993,-10.50315 0.17608,-2.80694 -0.35839,-5.51759 -1.60343,-8.13196 -0.79202,-1.59955 -2.25508,-3.35865 -4.38917,-5.27732 l 4.36163,-27.97714 c 7.21532,4.77366 12.26961,10.30406 15.16293,16.59119 2.84652,6.28435 3.91324,15.11062 3.20014,26.47884 -0.6192,9.87126 -2.48645,17.55068 -5.60173,23.03825 -3.16206,5.4847 -7.87798,9.90907 -14.14777,13.27314 -6.31362,3.31437 -13.56394,4.71477 -21.751,4.20121 -11.64893,-0.73071 -20.84241,-5.04127 -27.58045,-12.93171 -6.734983,-7.93719 -9.690202,-18.47881 -8.86565,-31.62489 0.669156,-10.66647 2.811395,-18.98617 6.42672,-24.95911 3.61547,-5.9728 8.58869,-10.38103 14.91971,-13.22471 6.3311,-2.84351 14.40884,-3.95718 24.23325,-3.34101 l 3.22803,0.20249 m -15.50642,28.19392 c -5.55557,0.21518 -9.60264,1.46425 -12.14123,3.74724 -2.53553,2.23633 -3.92659,5.31935 -4.1732,9.24905 -0.2846,4.53799 1.28911,8.27667 4.72115,11.216 2.13705,1.87188 5.41308,3.1811 9.82808,3.92768 l 1.76515,-28.14"
       style="font-size:144px;font-style:normal;font-variant:normal;font-weight:normal;font-stretch:normal;text-align:center;line-height:125%;letter-spacing:0px;word-spacing:0px;writing-mode:lr-tb;text-anchor:middle;fill:none;stroke:#000000;stroke-opacity:1;font-family:Arial Black;-inkscape-font-specification:'Arial Black,'"
       id="path3814"
       inkscape:connector-curvature="0" />
    <path
       inkscape:transform-center-y="-125.13707"
       inkscape:transform-center-x="537.52931"
       d="m 85.799471,528.0408 27.701509,6.2882 3.48653,-15.35925 20.36472,4.62277 -3.48654,15.35925 25.85018,5.86795 c 3.10843,0.70566 5.23293,0.87548 6.37347,0.50946 1.76174,-0.56138 2.90204,-1.98491 3.42085,-4.27056 0.46696,-2.05698 0.52643,-5.07174 0.17844,-9.04426 l 19.73458,2.31668 c -0.0584,7.24501 -0.76723,13.86161 -2.12655,19.84985 -1.57726,6.94826 -3.63081,11.86566 -6.16069,14.75221 -2.52988,2.88661 -5.78203,4.71998 -9.75647,5.50014 -4.00976,0.72409 -10.08301,0.16262 -18.21977,-1.68443 l -25.64447,-5.82125 -2.33473,10.2852 -20.36472,-4.62277 2.33473,-10.2852 -13.370777,-3.03516 -7.980262,-31.22883"
       style="font-size:144px;font-style:normal;font-variant:normal;font-weight:normal;font-stretch:normal;text-align:center;line-height:125%;letter-spacing:0px;word-spacing:0px;writing-mode:lr-tb;text-anchor:middle;fill:none;stroke:#000000;stroke-opacity:1;font-family:Arial Black;-inkscape-font-specification:'Arial Black,'"
       id="path3816"
       inkscape:connector-curvature="0" />
    <path
       inkscape:transform-center-y="-192.25954"
       inkscape:transform-center-x="504.84001"
       d="m 122.61972,498.60677 24.81708,-64.65878 15.62313,5.99642 22.33679,48.94135 14.33596,-37.35112 18.24888,7.00421 -26.65633,69.45076 -17.32986,-6.65149 -21.33552,-46.44826 -11.79126,30.72112 -18.24887,-7.00421"
       style="font-size:144px;font-style:normal;font-variant:normal;font-weight:normal;font-stretch:normal;text-align:center;line-height:125%;letter-spacing:0px;word-spacing:0px;writing-mode:lr-tb;text-anchor:middle;fill:none;stroke:#000000;stroke-opacity:1;font-family:Arial Black;-inkscape-font-specification:'Arial Black,'"
       id="path3818"
       inkscape:connector-curvature="0" />
    <path
       inkscape:transform-center-y="-276.26838"
       inkscape:transform-center-x="458.712"
       d="m 193.14992,399.3151 -16.54276,21.97171 c -3.5695,-3.34394 -6.02563,-6.53927 -7.3684,-9.58599 -1.35875,-3.11096 -1.96193,-6.75258 -1.80951,-10.92488 0.10434,-2.99849 0.99642,-6.67237 2.67622,-11.02165 1.6799,-4.34914 3.89433,-8.81495 6.64332,-13.39745 4.41294,-7.35589 8.37979,-13.01158 11.90057,-16.9671 3.48064,-3.97945 7.41956,-6.67278 11.81677,-8.08001 3.0628,-1.00497 6.62407,-1.10972 10.68381,-0.31424 4.01955,0.77158 7.53669,2.06158 10.55144,3.87005 l 28.27834,16.96437 c 3.01471,1.80865 5.49482,3.0505 7.44034,3.72556 1.92936,0.61091 4.60637,1.06895 8.03105,1.37411 l -13.81746,23.03269 c -2.20271,-0.0644 -3.81054,-0.20871 -4.82343,-0.43379 -1.05315,-0.24907 -2.58864,-0.78759 -4.60645,-1.61551 1.16597,5.07257 1.4597,9.59448 0.8812,13.56574 -0.83572,5.4023 -2.97773,10.97748 -6.42603,16.72557 -4.58172,7.63738 -9.83489,12.38476 -15.75949,14.24216 -5.9005,1.81723 -11.44342,1.17046 -16.6288,-1.94028 -4.86376,-2.91782 -8.00727,-6.74415 -9.43051,-11.47904 -1.42321,-4.73484 -0.59566,-11.39923 2.48267,-19.99316 3.67314,-10.31422 5.96781,-17.05507 6.88402,-20.22256 0.87604,-3.19147 1.62745,-6.67642 2.25422,-10.45487 -3.01472,-1.80849 -5.4988,-2.45147 -7.45229,-1.92885 -1.95341,0.52274 -3.87058,2.35175 -5.75152,5.487 -2.41139,4.01974 -3.57681,7.42031 -3.49626,10.20174 0.0645,2.17059 1.19413,4.57013 3.38894,7.19868 m 25.6716,-13.54344 c -0.81969,4.10001 -1.86448,8.25623 -3.13436,12.46869 -1.66367,5.78021 -2.25024,9.71935 -1.75974,11.81745 0.50662,2.1625 1.60405,3.75012 3.2923,4.76287 1.92944,1.15753 3.91509,1.4468 5.95697,0.86781 2.02576,-0.64322 3.82238,-2.27123 5.3898,-4.88406 1.63976,-2.73332 2.49572,-5.66359 2.56786,-8.79081 0.0963,-3.16732 -0.51089,-5.80004 -1.82137,-7.8982 -1.3266,-2.16232 -3.51735,-4.15987 -6.57229,-5.99262 l -3.91917,-2.35113"
       style="font-size:144px;font-style:normal;font-variant:normal;font-weight:normal;font-stretch:normal;text-align:center;line-height:125%;letter-spacing:0px;word-spacing:0px;writing-mode:lr-tb;text-anchor:middle;fill:none;stroke:#000000;stroke-opacity:1;font-family:Arial Black;-inkscape-font-specification:'Arial Black,'"
       id="path3820"
       inkscape:connector-curvature="0" />
    <path
       inkscape:transform-center-y="-361.95852"
       inkscape:transform-center-x="401.80702"
       d="m 289.47612,305.02062 20.45561,-18.2092 c 3.22509,4.90097 5.25046,10.0175 6.07615,15.3496 0.79067,5.30097 0.25941,10.70808 -1.5938,16.22135 -1.82201,5.47845 -5.46889,11.27342 -10.94063,17.3849 -5.28421,5.90204 -10.23421,10.34153 -14.85001,13.31853 -4.61949,2.91085 -9.41785,4.68629 -14.39512,5.32634 -5.01219,0.6088 -9.89627,0.23121 -14.65226,-1.13274 -4.75598,-1.36391 -9.87543,-4.50036 -15.35837,-9.40936 -5.72734,-5.12781 -9.61885,-10.37364 -11.67453,-15.7375 -1.51185,-3.93319 -2.25788,-8.12449 -2.23809,-12.57392 -0.0151,-4.48058 0.60861,-8.51516 1.87101,-12.10374 2.00961,-5.68786 5.92227,-11.77968 11.73796,-18.27545 8.12952,-9.07989 15.94436,-14.54073 23.44455,-16.38251 7.53146,-1.87648 15.28265,-0.97675 23.2536,2.69923 l -15.29147,22.45525 c -2.93758,-1.49748 -5.75048,-1.93965 -8.43868,-1.32651 -2.69186,0.5471 -5.2885,2.21754 -7.7899,5.01131 -3.15798,3.52729 -4.4472,7.53224 -3.86768,12.01484 0.5759,4.41653 3.43069,8.92291 8.56437,13.51916 4.57492,4.09606 9.01904,6.12454 13.33239,6.08545 4.31333,-0.039 7.97083,-1.73485 10.97251,-5.0875 2.50137,-2.79379 3.88034,-5.77462 4.13696,-8.94248 0.28783,-3.20266 -0.63036,-6.60435 -2.75457,-10.20505"
       style="font-size:144px;font-style:normal;font-variant:normal;font-weight:normal;font-stretch:normal;text-align:center;line-height:125%;letter-spacing:0px;word-spacing:0px;writing-mode:lr-tb;text-anchor:middle;fill:none;stroke:#000000;stroke-opacity:1;font-family:Arial Black;-inkscape-font-specification:'Arial Black,'"
       id="path3822"
       inkscape:connector-curvature="0" />
    <path
       inkscape:transform-center-y="-425.78003"
       inkscape:transform-center-x="337.13145"
       d="m 275.38267,215.09325 22.77558,-17.32675 22.98881,30.21821 c 0.65566,-5.56391 1.988,-10.1997 3.99701,-13.90739 2.00903,-3.70751 5.10269,-7.15067 9.28101,-10.32945 6.19285,-4.71119 12.49459,-6.53097 18.90523,-5.45934 6.44789,1.04345 12.63769,5.46365 18.5694,13.2606 l 28.73601,37.77276 -22.88749,17.41191 -24.86197,-32.68045 c -2.83815,-3.73057 -5.52919,-5.83562 -8.07314,-6.31515 -2.57237,-0.51669 -5.10831,0.1757 -7.60783,2.07717 -2.76068,2.10028 -4.20439,4.84773 -4.33113,8.24237 -0.12679,3.39475 1.86751,7.79681 5.9828,13.20619 l 21.71166,28.53942 -22.77558,17.32676 -62.41037,-82.03686"
       style="font-size:144px;font-style:normal;font-variant:normal;font-weight:normal;font-stretch:normal;text-align:center;line-height:125%;letter-spacing:0px;word-spacing:0px;writing-mode:lr-tb;text-anchor:middle;fill:none;stroke:#000000;stroke-opacity:1;font-family:Arial Black;-inkscape-font-specification:'Arial Black,'"
       id="path3824"
       inkscape:connector-curvature="0" />
    <path
       inkscape:transform-center-y="-525.38112"
       inkscape:transform-center-x="177.75987"
       d="m 426.00678,117.46867 39.72161,-13.35395 35.3149,54.29577 -4.72393,-64.580088 39.58832,-13.309125 32.84709,97.704493 -24.65938,8.2902 -25.04983,-74.51134 5.92213,80.94184 -22.32673,7.50599 -44.11088,-68.10325 25.04984,74.51135 -24.72604,8.3126 -32.8471,-97.70449"
       style="font-size:144px;font-style:normal;font-variant:normal;font-weight:normal;font-stretch:normal;text-align:center;line-height:125%;letter-spacing:0px;word-spacing:0px;writing-mode:lr-tb;text-anchor:middle;fill:none;stroke:#000000;stroke-opacity:1;font-family:Arial Black;-inkscape-font-specification:'Arial Black,'"
       id="path3826"
       inkscape:connector-curvature="0" />
    <path
       inkscape:transform-center-y="-550.54625"
       inkscape:transform-center-x="49.680406"
       d="m 608.77481,123.7197 -27.50135,-0.30771 c 0.57877,-4.85677 1.69752,-8.72861 3.35624,-11.61551 1.701,-2.93784 4.27715,-5.58143 7.72851,-7.9308 2.4773,-1.69258 5.96541,-3.15078 10.46431,-4.374581 4.49887,-1.223665 9.40843,-2.085843 14.72871,-2.586553 8.54036,-0.803556 15.44677,-0.959079 20.71929,-0.466568 5.268,0.446003 9.77151,2.023218 13.51051,4.731642 2.62432,1.87181 4.81879,4.67856 6.58344,8.42026 1.76008,3.69516 2.80484,7.2928 3.13428,10.7929 l 3.0894,32.83154 c 0.32927,3.50018 0.79839,6.23386 1.40732,8.20109 0.65104,1.9162 1.86824,4.34408 3.65157,7.28369 l -26.74125,2.51631 c -1.25349,-1.81241 -2.08967,-3.19327 -2.50851,-4.14258 -0.42335,-0.99597 -0.89935,-2.55197 -1.42798,-4.668 -3.39542,3.94483 -6.86405,6.86074 -10.40592,8.74772 -4.84705,2.52771 -10.60737,4.10555 -17.28098,4.73354 -8.8671,0.83437 -15.80396,-0.58448 -20.81062,-4.25659 -4.95999,-3.67648 -7.72325,-8.52486 -8.28975,-14.54515 -0.53136,-5.64692 0.68843,-10.44635 3.65939,-14.39835 2.97094,-3.95192 8.82985,-7.234 17.57673,-9.84623 10.48512,-3.15236 17.27491,-5.29789 20.36939,-6.43661 3.08999,-1.18528 6.34256,-2.64485 9.75771,-4.37871 -0.32943,-3.50011 -1.28334,-5.88215 -2.86178,-7.14614 -1.57852,-1.26387 -4.18784,-1.72456 -7.82796,-1.38209 -4.66693,0.4392 -8.09683,1.51527 -10.2897,3.22818 -1.71033,1.33805 -2.974,3.66981 -3.791,6.9953 m 26.12081,12.65542 c -3.7885,1.76899 -7.75565,3.38995 -11.90145,4.86293 -5.64207,2.08464 -9.16284,3.94612 -10.56235,5.58441 -1.44186,1.6894 -2.07053,3.51414 -1.88607,5.4742 0.21076,2.24012 1.15425,4.01108 2.8305,5.31288 1.71845,1.25077 4.09442,1.73345 7.12794,1.44796 3.17344,-0.2986 6.04111,-1.3453 8.60304,-3.14009 2.60849,-1.79915 4.36957,-3.84814 5.28329,-6.147 0.95591,-2.34985 1.26696,-5.29822 0.93327,-8.84508 l -0.42817,-4.55021 m -41.69681,-62.603363 18.20085,-1.712672 1.6468,17.500817 -18.20085,1.712672 -1.6468,-17.500817 m 29.68138,-2.792974 18.41086,-1.732439 1.6468,17.500816 -18.41086,1.732439 -1.6468,-17.500816"
       style="font-size:144px;font-style:normal;font-variant:normal;font-weight:normal;font-stretch:normal;text-align:center;line-height:125%;letter-spacing:0px;word-spacing:0px;writing-mode:lr-tb;text-anchor:middle;fill:none;stroke:#000000;stroke-opacity:1;font-family:Arial Black;-inkscape-font-specification:'Arial Black,'"
       id="path3828"
       inkscape:connector-curvature="0" />
    <path
       inkscape:transform-center-y="-537.42543"
       inkscape:transform-center-x="-50.219637"
       d="m 690.95395,94.755718 26.51856,2.627847 -1.19951,12.104775 c 4.45488,-4.55156 8.81548,-7.67584 13.08178,-9.37286 4.27082,-1.74352 9.32166,-2.32641 15.15254,-1.748678 7.88319,0.781257 13.80709,3.747068 17.77174,8.897428 4.01572,5.10846 5.53828,12.56055 4.56767,22.35626 l -4.6802,47.22962 -28.61764,-2.83586 4.04923,-40.86236 c 0.46217,-4.66461 -0.0749,-8.03871 -1.61124,-10.12228 -1.53185,-2.13014 -3.86039,-3.35009 -6.98565,-3.65983 -3.4519,-0.34201 -6.3801,0.68674 -8.78466,3.08627 -2.40464,2.39962 -3.94206,6.98128 -4.61226,13.74498 l -3.53616,35.6846 -28.47771,-2.82198 7.36351,-74.307932"
       style="font-size:144px;font-style:normal;font-variant:normal;font-weight:normal;font-stretch:normal;text-align:center;line-height:125%;letter-spacing:0px;word-spacing:0px;writing-mode:lr-tb;text-anchor:middle;fill:none;stroke:#000000;stroke-opacity:1;font-family:Arial Black;-inkscape-font-specification:'Arial Black,'"
       id="path3830"
       inkscape:connector-curvature="0" />
    <path
       inkscape:transform-center-y="-517.39091"
       inkscape:transform-center-x="-149.80356"
       d="m 800.72887,108.73236 25.52483,7.65651 -3.49492,11.65119 c 5.24391,-3.61443 10.12202,-5.84602 14.63431,-6.69481 4.52562,-0.89356 9.59463,-0.49863 15.20703,1.18481 7.58777,2.27613 12.83424,6.32127 15.73944,12.13543 2.96337,5.78281 3.03096,13.38853 0.20281,22.8172 l -13.63628,45.45979 -27.54526,-8.26257 11.7979,-39.33114 c 1.34672,-4.48983 1.46558,-7.90432 0.35658,-10.24351 -1.09566,-2.38402 -3.14756,-4.02722 -6.1557,-4.92961 -3.32255,-0.99658 -6.39356,-0.5475 -9.21306,1.34726 -2.81958,1.89483 -5.20577,6.09737 -7.15856,12.60762 l -10.30297,34.34741 -27.41057,-8.22218 21.4544,-71.5234"
       style="font-size:144px;font-style:normal;font-variant:normal;font-weight:normal;font-stretch:normal;text-align:center;line-height:125%;letter-spacing:0px;word-spacing:0px;writing-mode:lr-tb;text-anchor:middle;fill:none;stroke:#000000;stroke-opacity:1;font-family:Arial Black;-inkscape-font-specification:'Arial Black,'"
       id="path3832"
       inkscape:connector-curvature="0" />
    <path
       inkscape:transform-center-y="-477.87866"
       inkscape:transform-center-x="-248.27607"
       d="m 958.52438,221.12757 -50.85489,-26.56449 c -1.66991,4.31046 -2.1532,7.9186 -1.44989,10.82443 0.95379,4.1473 3.40424,7.25183 7.35136,9.31362 2.49284,1.30218 5.18662,1.91602 8.08136,1.84156 1.78339,-0.0732 3.98538,-0.69463 6.60602,-1.86422 l 23.78668,15.36027 c -7.29499,4.65099 -14.40267,7.02 -21.32306,7.107 -6.89882,0.0454 -15.39629,-2.5688 -25.49243,-7.8426 -8.76669,-4.57935 -15.02342,-9.40772 -18.77024,-14.48511 -3.72517,-5.11895 -5.8498,-11.22639 -6.37395,-18.32234 -0.46093,-7.11578 1.20762,-14.30912 5.00567,-21.58006 5.40402,-10.34543 13.08025,-16.992 23.02869,-19.93967 9.9899,-2.92587 20.82238,-1.33957 32.49746,4.75893 9.47289,4.94832 16.20279,10.28827 20.18972,16.01984 3.98675,5.73165 5.99202,12.06761 6.01586,19.00789 0.0236,6.94031 -2.24333,14.77302 -6.80086,23.49813 l -1.4975,2.86682 m -19.45324,-25.63039 c 2.06229,-5.1631 2.56665,-9.36841 1.51308,-12.61593 -1.01218,-3.22579 -3.26324,-5.75022 -6.75322,-7.5733 -4.03022,-2.10516 -8.08576,-2.18754 -12.16662,-0.24714 -2.57908,1.19131 -5.10723,3.65199 -7.58444,7.382 l 24.9912,13.05436"
       style="font-size:144px;font-style:normal;font-variant:normal;font-weight:normal;font-stretch:normal;text-align:center;line-height:125%;letter-spacing:0px;word-spacing:0px;writing-mode:lr-tb;text-anchor:middle;fill:none;stroke:#000000;stroke-opacity:1;font-family:Arial Black;-inkscape-font-specification:'Arial Black,'"
       id="path3834"
       inkscape:connector-curvature="0" />
    <path
       inkscape:transform-center-y="-437.93752"
       inkscape:transform-center-x="-325.46135"
       d="m 1000.2524,196.81422 21.4025,16.11163 -7.3581,9.77439 c 5.2454,-2.68124 9.5462,-3.99076 12.9024,-3.92857 3.4217,0.0531 6.7429,1.29175 9.9637,3.71621 3.3703,2.5373 6.2698,6.36279 8.6983,11.47647 l -19.3415,10.9624 c -1.8506,-3.15328 -3.5624,-5.32196 -5.1352,-6.50603 -2.9961,-2.25534 -6.2483,-2.76755 -9.7567,-1.53615 -4.9812,1.70676 -11.0663,7.33498 -18.25513,16.88466 l -15.05443,19.99819 -22.97544,-17.29568 44.9096,-59.65752"
       style="font-size:144px;font-style:normal;font-variant:normal;font-weight:normal;font-stretch:normal;text-align:center;line-height:125%;letter-spacing:0px;word-spacing:0px;writing-mode:lr-tb;text-anchor:middle;fill:none;stroke:#000000;stroke-opacity:1;font-family:Arial Black;-inkscape-font-specification:'Arial Black,'"
       id="path3836"
       inkscape:connector-curvature="0" />
    <path
       inkscape:transform-center-y="-379.34916"
       inkscape:transform-center-x="-391.27925"
       d="m 1084.1228,226.6631 20.2552,21.10185 -38.3485,36.81 32.6573,-1.71847 24.3939,25.41352 -37.421,-1.2136 -15.3783,54.03884 -22.349,-23.28304 11.1406,-31.64815 -15.0584,-0.4574 -14.0003,13.43856 -20.2552,-21.10185 74.3637,-71.38022"
       style="font-size:144px;font-style:normal;font-variant:normal;font-weight:normal;font-stretch:normal;text-align:center;line-height:125%;letter-spacing:0px;word-spacing:0px;writing-mode:lr-tb;text-anchor:middle;fill:none;stroke:#000000;stroke-opacity:1;font-family:Arial Black;-inkscape-font-specification:'Arial Black,'"
       id="path3838"
       inkscape:connector-curvature="0" />
    <path
       inkscape:transform-center-y="-295.4872"
       inkscape:transform-center-x="-449.87312"
       d="m 1101.3088,341.86861 c 9.5438,-6.21772 19.4971,-8.11462 29.8597,-5.69072 10.4017,2.39837 19.1721,9.07643 26.311,20.03424 8.1624,12.52881 10.6959,24.36097 7.6008,35.49654 -2.5001,8.95757 -8.0311,16.22539 -16.5932,21.80347 -9.6224,6.26886 -19.6021,8.21099 -29.939,5.8264 -10.2722,-2.37102 -19.08,-9.19251 -26.4236,-20.46447 -6.5503,-10.05451 -9.2941,-19.84768 -8.2311,-29.37952 1.3594,-11.73897 7.1645,-20.94762 17.4154,-27.62594 m 15.7184,23.99812 c -5.5772,3.63339 -8.9718,7.43942 -10.1841,11.41806 -1.1866,4.0179 -0.6669,7.73531 1.5592,11.1523 2.2517,3.45619 5.4098,5.42684 9.4741,5.91194 4.0899,0.52429 9.0412,-1.107 14.8541,-4.89391 5.4199,-3.53108 8.7163,-7.27314 9.8894,-11.22616 1.2121,-3.97866 0.7436,-7.61752 -1.4057,-10.91664 -2.2774,-3.49552 -5.513,-5.49948 -9.7071,-6.01192 -4.1548,-0.53802 -8.9815,0.98408 -14.4799,4.56633"
       style="font-size:144px;font-style:normal;font-variant:normal;font-weight:normal;font-stretch:normal;text-align:center;line-height:125%;letter-spacing:0px;word-spacing:0px;writing-mode:lr-tb;text-anchor:middle;fill:none;stroke:#000000;stroke-opacity:1;font-family:Arial Black;-inkscape-font-specification:'Arial Black,'"
       id="path3840"
       inkscape:connector-curvature="0" />
    <path
       inkscape:transform-center-y="-204.0304"
       inkscape:transform-center-x="-494.79867"
       d="m 1192.4556,418.55691 10.044,24.68314 -11.267,4.58472 c 6.104,1.81778 10.9015,4.21782 14.3924,7.20015 3.5342,2.96464 6.4055,7.16058 8.6141,12.58787 2.9857,7.33763 3.1252,13.96101 0.4186,19.87019 -2.6459,5.93477 -8.5276,10.75733 -17.6453,14.46759 l -43.9608,17.88839 -10.839,-26.63696 38.0343,-15.47674 c 4.3416,-1.76682 7.0758,-3.81559 8.2022,-6.14643 1.1699,-2.3485 1.163,-4.97725 -0.021,-7.88625 -1.3074,-3.21295 -3.5831,-5.32334 -6.8272,-6.33117 -3.2442,-1.00787 -8.014,-0.23091 -14.3095,2.33096 l -33.2148,13.51568 -10.7861,-26.50671 69.1649,-28.14443"
       style="font-size:144px;font-style:normal;font-variant:normal;font-weight:normal;font-stretch:normal;text-align:center;line-height:125%;letter-spacing:0px;word-spacing:0px;writing-mode:lr-tb;text-anchor:middle;fill:none;stroke:#000000;stroke-opacity:1;font-family:Arial Black;-inkscape-font-specification:'Arial Black,'"
       id="path3842"
       inkscape:connector-curvature="0" />
    <path
       inkscape:transform-center-y="-122.27242"
       inkscape:transform-center-x="-538.03299"
       d="m 1265.2832,547.10081 -27.672,6.4171 3.558,15.34285 -20.3429,4.71756 -3.5581,-15.34285 -25.8225,5.98825 c -3.105,0.72007 -5.0912,1.49338 -5.9581,2.31999 -1.3407,1.27327 -1.7463,3.0515 -1.2169,5.33473 0.4765,2.05477 1.7372,4.79389 3.7823,8.21737 l -18.7706,6.51822 c -3.1058,-6.54573 -5.3524,-12.80955 -6.7395,-18.79135 -1.6096,-6.94084 -1.9053,-12.26164 -0.8868,-15.96234 1.0184,-3.70077 3.146,-6.7685 6.3828,-9.20326 3.293,-2.39973 9.0035,-4.54201 17.1317,-6.42689 l 25.617,-5.94063 -2.3826,-10.27421 20.343,-4.71755 2.3825,10.2742 13.3566,-3.09734 20.7961,24.62615"
       style="font-size:144px;font-style:normal;font-variant:normal;font-weight:normal;font-stretch:normal;text-align:center;line-height:125%;letter-spacing:0px;word-spacing:0px;writing-mode:lr-tb;text-anchor:middle;fill:none;stroke:#000000;stroke-opacity:1;font-family:Arial Black;-inkscape-font-specification:'Arial Black,'"
       id="path3844"
       inkscape:connector-curvature="0" />
    <path
       inkscape:transform-center-y="-36.908413"
       inkscape:transform-center-x="-536.22133"
       d="m 1207.2821,679.76088 -3.9301,-57.24021 c -4.5477,0.82905 -7.8764,2.3027 -9.9862,4.42101 -3.0374,2.98064 -4.4036,6.69229 -4.0985,11.13503 0.1927,2.80585 1.0772,5.42328 2.6536,7.85231 0.9944,1.48217 2.675,3.03473 5.0417,4.65775 l -0.6644,28.30728 c -7.7778,-3.78868 -13.5122,-8.61034 -17.2031,-14.46493 -3.6443,-5.85795 -5.8565,-14.46882 -6.6367,-25.83261 -0.6776,-9.86746 0.169,-17.72513 2.5395,-23.57311 2.4175,-5.85121 6.514,-10.8545 12.2897,-15.00993 5.8258,-4.11186 12.8306,-6.44875 21.0145,-7.01064 11.6445,-0.79952 21.3228,2.27124 29.0353,9.21239 7.7154,6.98787 12.0242,17.05227 12.9267,30.19324 0.732,10.66235 -0.3034,19.19079 -3.1063,25.58538 -2.8029,6.39448 -7.1568,11.4154 -13.0614,15.06289 -5.9046,3.64735 -13.7673,5.80819 -23.5878,6.48259 l -3.2269,0.22155 m 11.6848,-29.98019 c 5.4797,-0.94013 9.3285,-2.70795 11.5466,-5.30341 2.2213,-2.54881 3.197,-5.78735 2.9273,-9.71552 -0.3114,-4.53625 -2.3608,-8.0369 -6.1479,-10.50201 -2.3635,-1.57618 -5.7827,-2.44559 -10.2573,-2.60813 l 1.9313,28.12907"
       style="font-size:144px;font-style:normal;font-variant:normal;font-weight:normal;font-stretch:normal;text-align:center;line-height:125%;letter-spacing:0px;word-spacing:0px;writing-mode:lr-tb;text-anchor:middle;fill:none;stroke:#000000;stroke-opacity:1;font-family:Arial Black;-inkscape-font-specification:'Arial Black,'"
       id="path3846"
       inkscape:connector-curvature="0" />
    <path
       inkscape:transform-center-y="59.674488"
       inkscape:transform-center-x="-533.94786"
       d="m 1197.1844,692.66832 -0.6339,28.52457 c -3.488,0.7734 -6.0758,2.12357 -7.7631,4.05067 -1.6876,1.92694 -2.7347,4.63647 -3.1416,8.12852 -0.4449,3.81786 0.025,6.86935 1.411,9.15451 1.0206,1.77056 2.4388,2.76168 4.2547,2.97332 2.0487,0.23865 3.7564,-0.64779 5.1234,-2.65929 0.9706,-1.44431 2.4227,-5.40452 4.3574,-11.88023 2.8728,-9.67003 5.2561,-16.35316 7.1497,-20.04942 1.9347,-3.64437 4.8027,-6.59005 8.604,-8.83706 3.7958,-2.20048 7.9285,-3.04036 12.3984,-2.51953 4.8887,0.56961 8.9369,2.48065 12.1446,5.73314 3.2076,3.25245 5.3825,7.46999 6.5248,12.65267 1.1888,5.18805 1.2948,11.97246 0.3185,20.35333 -1.0309,8.84632 -2.4655,15.28604 -4.304,19.31919 -1.8443,4.07938 -4.3486,7.35073 -7.5143,9.81348 -3.1711,2.50914 -7.2863,4.41286 -12.3454,5.71113 l 0.4871,-27.26748 c 2.4559,-0.42176 4.3375,-1.38232 5.6449,-2.88168 1.7502,-2.06134 2.8098,-4.67501 3.1788,-7.84104 0.3743,-3.21267 0.066,-5.63177 -0.9241,-7.25728 -0.9493,-1.57358 -2.2387,-2.45533 -3.8683,-2.64514 -1.8159,-0.21161 -3.2979,0.55955 -4.446,2.31347 -1.1483,1.75388 -2.4585,5.70689 -3.9302,11.85922 -2.1723,9.32684 -4.4813,16.18381 -6.9274,20.57087 -2.446,4.38693 -5.5793,7.58487 -9.4,9.59377 -3.8261,2.05527 -7.8576,2.83614 -12.0945,2.34255 -4.2836,-0.4992 -8.2987,-2.28841 -12.0457,-5.36767 -3.7523,-3.03284 -6.5137,-7.48391 -8.2837,-13.35313 -1.7289,-5.81735 -2.0347,-13.52171 -0.9172,-23.11303 1.5788,-13.54898 4.6367,-22.98503 9.1738,-28.30818 4.5318,-5.2766 10.4545,-8.3147 17.768,-9.11425"
       style="font-size:144px;font-style:normal;font-variant:normal;font-weight:normal;font-stretch:normal;text-align:center;line-height:125%;letter-spacing:0px;word-spacing:0px;writing-mode:lr-tb;text-anchor:middle;fill:none;stroke:#000000;stroke-opacity:1;font-family:Arial Black;-inkscape-font-specification:'Arial Black,'"
       id="path3848"
       inkscape:connector-curvature="0" />
    <path
       inkscape:transform-center-y="148.22075"
       inkscape:transform-center-x="-527.1328"
       d="m 1253.8913,843.06698 -27.3905,-7.52836 -4.1741,15.1868 -20.1361,-5.53447 4.1741,-15.18682 -25.5599,-7.02525 c -3.0735,-0.84481 -5.1882,-1.11006 -6.3441,-0.79574 -1.7852,0.48154 -2.9883,1.85234 -3.6095,4.11231 -0.559,2.03391 -0.7541,5.04292 -0.5852,9.0271 l -19.6104,-3.20241 c 0.3844,-7.23503 1.3902,-13.81303 3.0176,-19.73404 1.8883,-6.87026 4.161,-11.69027 6.8183,-14.46005 2.6572,-2.76983 5.9885,-4.45502 9.9941,-5.05552 4.0383,-0.54296 10.0801,0.29128 18.1256,2.50259 l 25.3565,6.96935 2.7952,-10.16973 20.136,5.53444 -2.7951,10.16976 13.2206,3.63373 6.5669,31.55631"
       style="font-size:144px;font-style:normal;font-variant:normal;font-weight:normal;font-stretch:normal;text-align:center;line-height:125%;letter-spacing:0px;word-spacing:0px;writing-mode:lr-tb;text-anchor:middle;fill:none;stroke:#000000;stroke-opacity:1;font-family:Arial Black;-inkscape-font-specification:'Arial Black,'"
       id="path3850"
       inkscape:connector-curvature="0" />
    <path
       inkscape:transform-center-y="-212.8372"
       inkscape:transform-center-x="-173.82992"
       inkscape:connector-curvature="0"
       id="path3553"
       d="m 1084.5006,209.63986 -1.446,1.40955 c -8.6012,8.2757 -17.2155,16.5422 -25.8179,24.81669 0.9623,-5.52157 -1.0761,-11.64326 -5.2468,-15.52568 -5.0208,-7.19025 -13.4901,-10.77436 -21.1077,-14.2227 -6.2712,-8.75641 -17.4061,-12.11231 -24.4424,-20.11311 -1.2353,-0.93115 -2.6078,-1.64367 -4.0594,-2.17768 -7.89772,-2.47908 -12.24704,6.21663 -15.85234,11.52941 -3.12064,4.0581 -6.2287,8.14988 -9.32835,12.2367 3.55092,-15.73519 0.59194,-33.04301 -11.29072,-44.43128 -6.9991,-7.26856 -15.82506,-12.40564 -25.00532,-16.53372 -1.31147,-0.58971 -2.63291,-1.16952 -3.95441,-1.72082 -19.65171,-8.31045 -43.23255,-0.97627 -56.77538,14.83827 1.44365,-6.90248 2.29845,-13.90462 2.03856,-21.07904 -2.15302,-11.50696 -10.36724,-21.62363 -21.25993,-26.05141 -8.04356,-3.64681 -16.99167,-3.91946 -25.65509,-3.28311 -8.18108,-9.508348 -22.30433,-6.86118 -32.55496,-12.772934 -4.63778,-2.746916 -12.07599,-1.109902 -12.32098,5.267294 -2.81091,9.07548 -5.54498,18.1558 -8.26064,27.24104 -0.123,-0.0492 -0.32365,-0.14802 -0.48558,-0.2155 0.0537,-0.22351 -0.49347,-0.37822 -0.72674,-0.2884 -0.0593,-0.0263 -0.0601,-0.0146 -0.0126,0.0285 -0.19948,0.12345 -0.0723,0.59617 -0.30424,0.68552 -0.48474,0.18672 -0.94342,-0.82058 -1.42817,-0.63384 -0.24237,0.0933 -0.0745,0.62072 -0.31691,0.71408 -0.0452,0.0174 -0.0931,0.0109 -0.13961,0.006 0.0555,-7.19324 -0.55549,-14.35945 -2.40062,-21.47648 -3.24836,-7.73808 -9.26762,-14.423586 -16.96895,-17.924556 -0.51345,-0.233343 -1.02702,-0.451422 -1.55508,-0.656024 -10.31556,-4.512066 -22.34492,-3.68285 -32.62787,-0.66807 -8.22358,-6.708479 -19.52956,-3.286114 -29.13373,-5.305612 -5.25018,-0.317755 -11.18601,-3.024135 -16.03922,0.163973 -1.13501,11.2491 -2.26212,22.497339 -3.3867,33.746199 -0.17597,-0.09 -0.33544,-0.27838 -0.53004,-0.26938 -0.9276,0.0427 -1.81219,0.92006 -2.73132,1.14689 -1.54564,-8.52549 -4.49675,-16.56036 -10.69567,-23.277497 -2.1617,-3.869372 -9.39989,-4.128329 -7.89943,-9.62574 -0.42344,-9.696885 -2.03014,-19.328 -2.77584,-29.027914 l -2.0052,0.204132 c -23.26166,2.213067 -46.63232,4.169743 -69.89673,6.655825 0.96774,10.941001 2.2431,21.954581 2.99365,32.851212 -6.17282,4.771572 -11.41665,12.180282 -13.06831,20.047322 -0.004,-7.1e-4 -0.0255,-0.0124 -0.0285,-0.0126 -0.36693,0.0169 -0.66407,0.38029 -1.03099,0.39717 -0.25946,0.012 -0.45463,-0.32885 -0.71409,-0.31692 -1.0443,0.048 -2.00745,1.1276 -3.05175,1.17562 -0.25947,0.012 -0.45464,-0.32885 -0.71409,-0.31693 -0.73386,0.0337 -1.33799,0.66983 -2.06201,0.79434 -0.37313,0.0642 -0.75991,0.0868 -1.1422,0.10848 -0.0699,-0.097 -0.16576,-0.14314 -0.30154,-0.16796 -0.003,-0.007 -0.0262,-0.007 -0.0285,-0.0126 -5.84173,-17.39614 -11.67983,-34.793497 -17.52335,-52.189037 l -0.96441,0.324154 -0.92316,0.308265 c -19.29778,6.427522 -38.60207,13.042291 -57.87086,19.309552 0.7198,9.153175 1.41473,18.308336 2.10237,27.464006 -5.01956,-7.70605 -10.04342,-15.409315 -15.08063,-23.103832 -19.87295,6.89867 -39.8589,13.533252 -59.81538,20.224402 13.47584,40.11624 26.9638,80.22844 40.43964,120.3447 15.82421,-5.29041 31.63112,-10.63314 47.46536,-15.89312 -0.15218,-1.36405 4.138,-0.23238 5.53597,-1.61162 10.77747,-4.55673 22.27837,-7.40412 33.3481,-11.35465 -0.83117,-2.79689 3.63808,-0.0759 5.33923,-1.63054 13.25858,-5.34206 27.29981,-9.1618 40.86342,-14.03661 -0.58928,-1.75423 -1.17762,-3.50878 -1.76695,-5.263 2.13574,1.72015 4.51736,3.16924 7.14774,4.23211 15.10642,6.74049 32.90479,3.18602 47.00524,-3.99428 9.25323,5.85251 20.47634,-0.34906 30.56843,0.30111 2.71268,-0.25191 5.42307,-0.51493 8.13506,-0.76583 15.68616,1.58716 31.36795,3.1932 47.06694,4.64883 0.35647,-3.6019 0.94184,-4.34163 3.04518,-1.62299 7.65781,5.15504 17.51129,2.56693 26.17614,4.57422 5.52921,0.53427 11.06437,1.06738 16.59541,1.5872 15.49441,4.31623 30.81845,9.31772 46.26901,13.76516 1.0705,-1.49187 1.72571,-6.45878 2.78441,-2.73022 5.63013,8.64395 17.6621,7.46981 26.18295,11.41512 6.83562,2.08061 13.69746,4.03813 20.54182,6.17638 1.0844,-6.43587 2.7944,-12.76197 4.73347,-19.06246 1.71972,15.10802 10.14717,29.44218 23.91495,36.63181 15.96649,11.21154 37.92746,17.35841 56.35693,9.83169 -3.36985,4.45841 -6.73697,8.91838 -10.13053,13.35082 13.87834,10.29723 27.68236,20.69398 41.4046,31.19679 13.75966,-11.86254 19.64264,-30.68868 35.03004,-40.7974 3.7445,4.83031 10.0744,9.75101 16.3696,6.41021 4.094,-1.60397 7.9639,-3.82056 11.7779,-6.12369 -16.7412,16.08796 -33.5009,32.15003 -50.30398,48.1731 11.95288,12.37665 23.92868,24.73258 35.75048,37.23475 3.9224,-1.62119 7.2859,-4.28153 10.213,-7.29687 -1.4223,4.40183 -2.9184,8.78617 -4.7589,13.03386 12.8547,13.24697 25.6712,26.53815 38.3917,39.91132 3.8756,26.61141 26.3916,51.12816 54.1898,51.84596 0.047,5e-4 0.093,-0.007 0.1396,-0.006 -6.3286,2.58078 -12.6593,5.17448 -18.9764,7.78379 6.5148,15.96785 12.9944,31.95012 19.4408,47.9458 3.5782,-1.13064 5.4724,-1.99416 3.2151,1.76879 -2.0557,8.88223 5.6313,16.10422 7.4979,24.31993 2.9131,7.24743 5.8955,14.46115 8.8735,21.68244 2.7906,-1.50403 5.6361,-2.87822 8.5236,-4.18327 l -0.6085,1.37103 -0.3169,0.71408 c -0.1051,0.23741 -0.4105,0.47163 -0.3169,0.71409 0.093,0.2423 0.6206,0.0745 0.714,0.3169 0.093,0.24234 -0.4104,0.4717 -0.3169,0.71408 0.094,0.24236 0.6207,0.0746 0.714,0.3169 0.094,0.24244 -0.4102,0.47173 -0.3169,0.71409 0.1323,0.34293 1.2961,0.29096 1.4283,0.63386 0.093,0.24231 -0.4105,0.47162 -0.3169,0.71409 -1.1112,1.28025 -2.1339,2.66268 -3.0534,4.18355 -8.347,15.773 -1.233,33.9676 5.1724,48.8957 0.7489,5.34055 6.3982,11.58926 12.0267,8.10691 0.3544,-0.12349 0.7051,-0.26102 1.0595,-0.38453 -3.7684,4.4575 -6.7047,9.67071 -8.4351,15.53928 -5.5675,22.75632 -2.7338,50.11993 15.0753,66.79546 1.414,1.22253 2.8814,2.35329 4.3963,3.42127 -12.8389,6.71417 -21.0118,21.43362 -22.6581,35.72366 -3.891,18.70626 -3.4524,41.44612 11.6042,55.20331 2.7662,2.48875 5.9481,4.44817 9.3633,5.86501 -7.9136,-0.99084 -15.7814,-0.36086 -22.9226,3.81019 -15.1442,9.76066 -17.3399,29.61625 -18.9944,46.03377 -2.1228,5.43647 0.5457,13.09198 7.2507,12.85934 10.9889,0.61202 21.853,3.411 32.8047,4.81504 3.1095,-3.57851 4.0096,-8.45958 3.7498,-13.0714 2.3782,1.32393 8.3679,0.7009 8.3912,3.58735 -2.0904,8.28889 3.1845,17.9998 12.2669,18.5045 8.058,2.17139 16.117,4.36234 24.1085,6.76785 4.7797,-3.20073 6.8624,-8.91313 7.8328,-14.33641 11.6084,3.21369 23.2291,6.38156 34.8061,9.7035 -5.2305,-18.97412 -6.2808,-39.35403 -13.6456,-57.61365 -1.6087,-2.33711 -6.1057,-1.58617 -6.9919,-3.58172 0.617,-4.9794 -1.6707,-10.43546 -6.6602,-12.18699 -3.735,-0.85377 -7.4626,-1.81102 -11.167,-2.80213 15.4243,-5.91955 27.1688,-21.12472 27.6734,-38.01083 3.7645,-18.17967 2.3959,-40.99924 -13.9256,-52.74621 -1.9677,-1.37809 -4.1075,-2.4657 -6.3508,-3.33143 -2.3272,-1.11893 -4.7799,-1.80885 -7.2895,-2.14107 13.3861,-5.30136 24.8232,-15.44431 28.3822,-29.90109 8.0395,-26.66398 -0.3636,-61.75241 -28.2621,-73.05824 -0.6313,-0.27138 -1.269,-0.53671 -1.9106,-0.77955 7.5446,-1.71144 15.0758,-3.504 22.6362,-5.16807 2.4048,-5.13887 1.4956,-11.03275 -0.2274,-16.20415 11.6931,-2.6432 23.3713,-5.28097 35.022,-8.11591 -12.2597,-14.65411 -24.562,-29.27203 -36.9756,-43.79582 l -0.7869,-0.0757 c -2.9151,-0.93574 -6.3524,-0.0745 -9.0491,0.36016 -2.7034,-7.33195 -11.9302,-9.83066 -18.5015,-6.22819 -3.123,0.74476 -6.2429,1.5028 -9.3686,2.23554 2.4529,-1.59681 4.8522,-3.32159 7.1618,-5.19793 14.6669,-15.58272 10.0949,-42.63816 -5.7375,-55.09539 2.5272,-10.34466 -6.2083,-18.93194 -8.7628,-28.40282 -2.7095,-4.28686 -1.9999,-11.38002 -7.0228,-13.98903 -6.2506,0.10909 -11.9795,4.9383 -18.0665,6.58078 -5.8909,2.42423 -11.7728,4.8315 -17.6726,7.23421 10.4755,-9.73077 17.1195,-23.41366 15.9333,-38.05855 -1.6746,-23.40471 -17.4052,-45.45515 -39.3478,-54.01146 -2.2056,-0.84993 -4.4552,-1.493 -6.7215,-1.95732 0.1566,-0.0596 0.2904,-0.0944 0.33,-0.12709 0.2004,-0.16522 0.075,-0.62071 0.317,-0.71409 0.2423,-0.0933 0.4716,0.41028 0.714,0.31691 0.2424,-0.0933 0.2116,-0.47667 0.317,-0.71407 0.1092,-0.24629 0.603,-1.28365 0.9412,-2.04391 5.8902,0.20626 11.7805,0.41431 17.6705,0.62841 -16.7406,-16.49318 -32.3056,-34.21347 -49.3408,-50.44609 -2.2716,-0.73731 -7.9027,0.97921 -3.2345,-2.18764 7.1297,-6.8549 14.2701,-13.69854 21.3971,-20.55622 -12.3067,-12.7594 -24.6053,-25.53102 -36.757,-38.43357 z M 782.11334,129.25139 c -0.0388,0.12993 -0.0974,0.25405 -0.13627,0.38397 -0.0275,-0.19688 0.0378,-0.32254 0.13627,-0.38397 z"
       style="font-size:144px;font-style:normal;font-variant:normal;font-weight:normal;font-stretch:normal;text-align:center;line-height:125%;letter-spacing:0px;word-spacing:0px;writing-mode:lr-tb;text-anchor:middle;fill:none;stroke:#000000;stroke-opacity:1;font-family:Arial Black;-inkscape-font-specification:'Arial Black,'" />
    <path
       inkscape:transform-center-y="-208.34963"
       inkscape:transform-center-x="438.07614"
       inkscape:connector-curvature="0"
       id="path3549"
       d="m 363.27332,188.84569 c -0.39032,-0.17361 -0.78234,-0.34392 -1.18375,-0.49123 -16.05431,-6.49029 -34.83228,1.64134 -44.44826,15.18077 -5.71735,-7.53041 -11.44392,-15.05384 -17.15548,-22.58867 -14.03511,10.52682 -27.92158,21.24958 -41.92011,31.82477 11.99918,15.80864 24.01197,31.60695 36.02232,47.4071 -0.53481,-0.23298 -1.063,-0.47833 -1.59955,-0.70989 -21.01276,-9.67304 -46.0233,1.2372 -59.24189,18.70107 -15.45142,16.25196 -21.45234,43.39702 -8.02301,62.52737 0.81261,1.3821 1.70939,2.71521 2.66107,4.01873 -8.61727,-4.53293 -17.73585,-7.48677 -27.7696,-5.76007 -17.97728,3.17751 -27.99697,20.85427 -36.61631,35.20432 -9.02548,15.1365 -12.89459,36.32595 -0.60774,50.67245 0.97724,1.25717 2.0139,2.47006 3.11774,3.606 -8.63845,-3.33769 -17.2739,-6.68317 -25.90933,-10.02868 -11.2318,28.99118 -22.3447,58.02827 -33.53328,87.03613 1.05024,0.40659 2.0979,0.81986 3.14822,1.22626 -3.55172,3.40729 -5.35517,8.39623 -5.84075,13.2375 -11.739631,-2.59816 -23.431174,-5.41855 -35.198624,-7.89471 5.891226,18.66071 8.302762,38.57557 15.875695,56.51782 1.97029,1.92907 4.952512,2.27828 7.407207,2.87713 -0.110328,8.93911 8.949092,15.03341 17.281192,14.37068 1.51405,0.4711 3.16211,1.00296 4.83955,1.49825 -10.25308,4.07953 -19.03518,11.14384 -23.712743,21.61405 -10.538127,22.21126 -10.023928,51.54391 7.350811,70.10259 5.608492,5.69985 12.577102,9.73375 20.116632,12.14178 -20.703627,1.71113 -41.399591,3.46739 -62.101536,5.19213 1.563727,17.48753 2.914449,34.99328 4.469948,52.48151 42.205548,-3.56676 84.424038,-6.9798 126.630308,-10.53785 -1.51309,-17.42092 -2.96734,-34.84683 -4.39051,-52.27532 l -0.98993,0.0735 -0.98992,0.0735 c -6.79686,0.51706 -13.5991,1.04547 -20.39493,1.58141 7.06427,-3.73201 13.2061,-9.16996 17.51874,-16.3627 9.33464,-16.07894 10.09864,-35.89929 6.38729,-53.68029 -3.28959,-13.27172 -12.59421,-24.59691 -24.28976,-31.39624 9.59824,1.03094 19.14613,-0.0559 26.78262,-6.57587 12.32762,-10.90127 13.74594,-28.93315 14.57842,-44.40375 -0.008,-0.13158 -0.0212,-0.25829 -0.0319,-0.39025 10.73086,-27.72266 21.23226,-55.52844 32.01546,-83.23094 -0.62202,-0.24192 -1.24405,-0.48374 -1.86607,-0.72567 -0.10738,-0.0411 -0.21967,-0.0693 -0.32685,-0.11091 0.34537,-0.22809 0.69299,-0.45902 1.03083,-0.70495 13.42616,-8.38205 20.32237,-24.35594 23.25929,-39.08094 10.19262,-4.7511 12.18705,-17.36139 18.77352,-25.58399 4.28816,-7.26764 8.5599,-14.55008 12.83256,-21.82722 l -1.7133,0.16272 c 1.00523,-0.40632 2.00498,-0.84329 2.98821,-1.34057 20.45672,-9.79112 37.5624,-29.87024 39.71639,-52.97453 0.0717,-1.69069 0.0411,-3.39449 -0.0535,-5.11794 2.42347,3.188 4.85741,6.36807 7.28065,9.55626 13.76392,-10.44569 27.50093,-20.927 41.31435,-31.30726 -0.21982,-1.43972 -4.67249,-5.74782 -0.7637,-4.13395 10.19856,1.06232 16.04528,-9.26088 24.09136,-13.68504 5.95208,-4.47081 11.86124,-8.98528 17.80585,-13.46594 -18.85102,-19.74204 -30.18811,-46.59795 -53.45275,-61.98078 -0.3924,-0.16869 -0.78078,-0.34614 -1.1711,-0.51975 z"
       style="font-size:144px;font-style:normal;font-variant:normal;font-weight:normal;font-stretch:normal;text-align:center;line-height:125%;letter-spacing:0px;word-spacing:0px;writing-mode:lr-tb;text-anchor:middle;fill:none;stroke:#000000;stroke-opacity:1;font-family:Arial Black;-inkscape-font-specification:'Arial Black,'" />
    <path
       inkscape:transform-center-y="133.58224"
       inkscape:transform-center-x="536.1394"
       inkscape:connector-curvature="0"
       id="path3523"
       d="m 132.98276,750.80325 c -0.50867,-0.23341 -1.02758,-0.44501 -1.55508,-0.65603 -22.48614,-9.39427 -52.933337,1.06353 -60.84715,25.16841 -6.394636,23.83311 6.393441,47.00468 9.847989,70.25362 1.689701,7.10409 3.369783,14.22329 5.065821,21.32593 41.22869,-9.81307 82.46299,-19.60231 123.69167,-29.41539 -4.34543,-18.18019 -8.66029,-36.36763 -12.98724,-54.55217 -12.35637,2.94485 -24.71666,5.87329 -37.07451,8.81191 -3.55995,-15.87823 -10.37253,-33.70084 -26.14148,-40.93633 z"
       style="font-size:144px;font-style:normal;font-variant:normal;font-weight:normal;font-stretch:normal;text-align:center;line-height:125%;letter-spacing:0px;word-spacing:0px;writing-mode:lr-tb;text-anchor:middle;fill:none;stroke:#000000;stroke-opacity:1;font-family:Arial Black;-inkscape-font-specification:'Arial Black,'" />
    <g
       style="display:inline"
       id="g3856">
      <path
         d="m 290.05078,1003.6089 18.92874,16.6285 -24.84833,42.0466 41.62007,-27.3131 18.88471,16.5898 -21.67887,44.831 38.49464,-30.0586 18.84069,16.5511 -70.91012,52.0431 -19.54503,-17.1699 24.38004,-50.5691 -46.96246,30.7309 -19.54501,-17.1698 42.34093,-77.1405"
         style="font-size:120px;font-style:normal;font-variant:normal;font-weight:normal;font-stretch:normal;text-align:center;line-height:125%;letter-spacing:0px;word-spacing:0px;writing-mode:lr-tb;text-anchor:middle;fill:none;stroke:#000000;stroke-width:1;stroke-opacity:1;font-family:Arial Black;-inkscape-font-specification:'Arial Black,'"
         id="path3817"
         inkscape:connector-curvature="0" />
      <path
         d="m 372.11283,1129.3247 -18.1672,-13.9729 c 2.81702,-2.9459 5.50067,-4.9652 8.05097,-6.0581 2.60396,-1.1055 5.64364,-1.577 9.11907,-1.4143 2.49772,0.1127 5.55149,0.8875 9.16131,2.3244 3.60972,1.437 7.31208,3.3206 11.10709,5.6505 6.09182,3.7402 10.7707,7.0942 14.03666,10.0619 3.28623,2.9344 5.49685,6.2397 6.63184,9.9159 0.81122,2.5608 0.86803,5.5292 0.17026,8.9054 -0.67735,3.3428 -1.7824,6.2626 -3.31519,8.7593 l -14.37825,23.4188 c -1.53294,2.4966 -2.58898,4.5527 -3.16816,6.1681 -0.52558,1.6025 -0.93017,3.8293 -1.21378,6.6804 L 371.073,1178.053 c 0.0723,-1.835 0.20651,-3.1734 0.40274,-4.0156 0.21657,-0.8755 0.67845,-2.1503 1.38562,-3.8247 -4.2369,0.9282 -8.00747,1.1343 -11.31173,0.6182 -4.49452,-0.7426 -9.12193,-2.5753 -13.88223,-5.4979 -6.32494,-3.8833 -10.23592,-8.3012 -11.73296,-13.2541 -1.46378,-4.9324 -0.8774,-9.5457 1.75913,-13.84 2.47301,-4.0279 5.68836,-6.6146 9.64608,-7.7601 3.95768,-1.1454 9.50395,-0.3988 16.63884,2.24 8.5633,3.149 14.16074,5.1188 16.79233,5.9094 2.65192,0.7573 5.54946,1.4132 8.69263,1.9679 1.5328,-2.4967 2.08983,-4.5611 1.67108,-6.1934 -0.41888,-1.6322 -1.92657,-3.2455 -4.52304,-4.8397 -3.32896,-2.0438 -6.15265,-3.044 -8.47107,-3.0007 -1.80924,0.036 -3.81848,0.9559 -6.02759,2.7624 m 11.06588,21.5077 c -3.40947,-0.7181 -6.86387,-1.6243 -10.3632,-2.7185 -4.80235,-1.4358 -8.07978,-1.9583 -9.8323,-1.5675 -1.80632,0.4036 -3.13866,1.3045 -3.99702,2.7027 -0.98108,1.5979 -1.23911,3.25 -0.77412,4.9564 0.51865,1.6936 1.85988,3.2046 4.0237,4.5331 2.26361,1.3897 4.69805,2.1281 7.30332,2.215 2.63846,0.1073 4.83748,-0.3761 6.59706,-1.4501 1.8132,-1.087 3.49649,-2.8954 5.04984,-5.4253 l 1.99272,-3.2458"
         style="font-size:120px;font-style:normal;font-variant:normal;font-weight:normal;font-stretch:normal;text-align:center;line-height:125%;letter-spacing:0px;word-spacing:0px;writing-mode:lr-tb;text-anchor:middle;fill:none;stroke:#000000;stroke-width:1;stroke-opacity:1;font-family:Arial Black;-inkscape-font-specification:'Arial Black,'"
         id="path3819"
         inkscape:connector-curvature="0" />
      <path
         d="m 427.64781,1140.199 20.33335,8.9279 -4.07525,9.2814 c 4.70476,-2.4564 8.96636,-3.8061 12.78481,-4.0494 3.83403,-0.2789 7.9865,0.5631 12.4574,2.5261 6.04449,2.654 9.97261,6.5332 11.7844,11.6375 1.86309,5.0843 1.14573,11.382 -2.15208,18.8929 l -15.90057,36.2138 -21.94286,-9.6346 13.75694,-31.3316 c 1.57037,-3.5766 2.01583,-6.3887 1.3364,-8.4363 -0.66384,-2.0831 -2.19392,-3.6509 -4.59023,-4.7031 -2.64679,-1.1621 -5.2325,-1.1029 -7.75717,0.1772 -2.52475,1.2806 -4.92566,4.5139 -7.20273,9.7001 l -12.01377,27.3615 -21.83555,-9.5875 25.0169,-56.9763"
         style="font-size:120px;font-style:normal;font-variant:normal;font-weight:normal;font-stretch:normal;text-align:center;line-height:125%;letter-spacing:0px;word-spacing:0px;writing-mode:lr-tb;text-anchor:middle;fill:none;stroke:#000000;stroke-width:1;stroke-opacity:1;font-family:Arial Black;-inkscape-font-specification:'Arial Black,'"
         id="path3821"
         inkscape:connector-curvature="0" />
      <path
         d="m 564.14869,1164.4282 -23.57437,82.6002 -21.46703,-6.1267 2.52467,-8.846 c -4.0771,2.8985 -7.54281,4.6514 -10.39711,5.2586 -3.79869,0.7845 -7.72639,0.5978 -11.78312,-0.56 -8.15111,-2.3264 -13.50206,-7.2049 -16.05286,-14.6356 -2.51326,-7.4199 -2.50488,-15.5624 0.0252,-24.4271 2.83019,-9.9165 7.36217,-16.8287 13.59595,-20.7368 6.27129,-3.8972 13.0693,-4.8006 20.39405,-2.7102 3.5684,1.0185 6.62725,2.5416 9.17657,4.569 2.58677,2.0382 4.66401,4.5809 6.23171,7.6281 l 8.16902,-28.6227 23.15735,6.6092 m -37.97557,45.9516 c 1.34001,-4.6953 1.3416,-8.4727 0.005,-11.3322 -1.32621,-2.8971 -3.51057,-4.7798 -6.55308,-5.6482 -2.667,-0.7612 -5.21822,-0.2909 -7.65369,1.4106 -2.43556,1.7017 -4.39838,5.1631 -5.8885,10.3843 -1.3937,4.8832 -1.49722,8.733 -0.31056,11.5496 1.23486,2.7898 3.22334,4.576 5.96545,5.3586 2.92984,0.8362 5.69839,0.3874 8.30563,-1.3465 2.60716,-1.7338 4.65047,-5.1926 6.12996,-10.3762"
         style="font-size:120px;font-style:normal;font-variant:normal;font-weight:normal;font-stretch:normal;text-align:center;line-height:125%;letter-spacing:0px;word-spacing:0px;writing-mode:lr-tb;text-anchor:middle;fill:none;stroke:#000000;stroke-width:1;stroke-opacity:1;font-family:Arial Black;-inkscape-font-specification:'Arial Black,'"
         id="path3823"
         inkscape:connector-curvature="0" />
      <path
         d="m 629.16091,1235.6246 -47.32071,-6.84 c -0.12241,3.8503 0.49417,6.8207 1.84971,8.911 1.89536,2.9974 4.67944,4.7614 8.35225,5.2923 2.3196,0.3353 4.60708,0.074 6.86245,-0.7842 1.38192,-0.5501 2.94159,-1.6468 4.67898,-3.2902 l 22.94427,5.507 c -4.45097,5.6716 -9.38494,9.4973 -14.80194,11.4771 -5.41154,1.9411 -12.81455,2.2326 -22.20905,0.8747 -8.15744,-1.1791 -14.41026,-3.2472 -18.75848,-6.2043 -4.34267,-2.9958 -7.69999,-7.2109 -10.07196,-12.6452 -2.32773,-5.4674 -3.00263,-11.5839 -2.02469,-18.3495 1.39145,-9.6265 5.591,-16.9723 12.59864,-22.0377 7.04627,-5.0595 16.00124,-6.8042 26.86494,-5.234 8.81459,1.2742 15.58072,3.6139 20.29841,7.019 4.71756,3.4054 8.04413,7.833 9.97974,13.2831 1.93546,5.4502 2.31647,12.2346 1.14303,20.3534 l -0.38559,2.6675 m -22.37375,-14.7785 c 0.19542,-4.629 -0.56952,-8.0746 -2.29483,-10.3369 -1.68675,-2.2568 -4.15385,-3.6198 -7.40129,-4.0892 -3.75013,-0.5421 -6.96148,0.5133 -9.63406,3.166 -1.69872,1.649 -3.00679,4.282 -3.92425,7.8988 l 23.25443,3.3613"
         style="font-size:120px;font-style:normal;font-variant:normal;font-weight:normal;font-stretch:normal;text-align:center;line-height:125%;letter-spacing:0px;word-spacing:0px;writing-mode:lr-tb;text-anchor:middle;fill:none;stroke:#000000;stroke-width:1;stroke-opacity:1;font-family:Arial Black;-inkscape-font-specification:'Arial Black,'"
         id="path3825"
         inkscape:connector-curvature="0" />
      <path
         d="m 638.71628,1198.4575 22.31528,0.6316 -0.28848,10.1913 c 2.27244,-4.3516 4.56425,-7.3152 6.87542,-8.8911 2.35125,-1.6138 5.20591,-2.3732 8.56398,-2.2781 3.51416,0.1 7.32933,1.3016 11.44551,3.6065 l -7.86065,16.7765 c -2.77825,-1.251 -4.98735,-1.8997 -6.62727,-1.9462 -3.12378,-0.088 -5.58117,1.1317 -7.37214,3.6601 -2.56277,3.5617 -3.98506,10.3211 -4.26686,20.278 l -0.5902,20.851 -23.95525,-0.678 1.76066,-62.2016"
         style="font-size:120px;font-style:normal;font-variant:normal;font-weight:normal;font-stretch:normal;text-align:center;line-height:125%;letter-spacing:0px;word-spacing:0px;writing-mode:lr-tb;text-anchor:middle;fill:none;stroke:#000000;stroke-width:1;stroke-opacity:1;font-family:Arial Black;-inkscape-font-specification:'Arial Black,'"
         id="path3827"
         inkscape:connector-curvature="0" />
      <path
         d="m 689.57545,1245.1118 23.40498,-4.186 c 1.20687,2.7217 2.73649,4.6128 4.58889,5.6735 1.85232,1.0607 4.23827,1.4693 7.15786,1.2258 3.19201,-0.2661 5.6071,-1.1535 7.24526,-2.662 1.27801,-1.1257 1.85375,-2.4476 1.72721,-3.9658 -0.14287,-1.7129 -1.14857,-2.9617 -3.01709,-3.7466 -1.33982,-0.5547 -4.81413,-1.0882 -10.42294,-1.6004 -8.37273,-0.7521 -14.22488,-1.5969 -17.55646,-2.5343 -3.29593,-0.9794 -6.17504,-2.8365 -8.63734,-5.5711 -2.42339,-2.7377 -3.79089,-5.9751 -4.10249,-9.7122 -0.34084,-4.0873 0.55269,-7.7092 2.68056,-10.8657 2.12788,-3.1565 5.21438,-5.6285 9.25952,-7.4162 4.04187,-1.8265 9.56627,-3.0319 16.57323,-3.6163 7.39616,-0.6166 12.89306,-0.5066 16.4907,0.33 3.63648,0.8336 6.72157,2.3403 9.25527,4.5201 2.57251,2.1766 4.80614,5.2241 6.70088,9.1427 l -22.35394,4.0983 c -0.7495,-1.9365 -1.84441,-3.3152 -3.28473,-4.1359 -1.97243,-1.0898 -4.28215,-1.5244 -6.92918,-1.3038 -2.68602,0.2241 -4.61128,0.8746 -5.77578,1.9517 -1.12887,1.0349 -1.63648,2.2336 -1.52285,3.596 0.12658,1.5181 1.00087,2.6016 2.62291,3.2502 1.62199,0.6488 5.0671,1.0671 10.33534,1.255 7.97687,0.2364 13.95878,0.992 17.94573,2.2666 3.98683,1.2747 7.11574,3.3068 9.38672,6.0965 2.30978,2.7865 3.6124,5.9509 3.90785,9.4933 0.29855,3.5813 -0.5009,7.1562 -2.39836,10.7246 -1.85867,3.5652 -5.03922,6.5548 -9.54167,8.9685 -4.46686,2.3715 -10.70978,3.8917 -18.72878,4.5603 -11.32791,0.9446 -19.54004,0 -24.63643,-2.8259 -5.05749,-2.8316 -8.51579,-7.1686 -10.37487,-13.0109"
         style="font-size:120px;font-style:normal;font-variant:normal;font-weight:normal;font-stretch:normal;text-align:center;line-height:125%;letter-spacing:0px;word-spacing:0px;writing-mode:lr-tb;text-anchor:middle;fill:none;stroke:#000000;stroke-width:1;stroke-opacity:1;font-family:Arial Black;-inkscape-font-specification:'Arial Black,'"
         id="path3829"
         inkscape:connector-curvature="0" />
      <path
         d="m 807.45175,1221.5212 22.71009,-2.256 c -0.22644,4.8838 -1.36728,9.3253 -3.42251,13.3244 -2.06359,3.9612 -5.07037,7.3462 -9.02036,10.1552 -3.91191,2.8009 -9.20912,4.9214 -15.89165,6.3613 -6.45349,1.3905 -11.96526,1.9588 -16.53533,1.7047 -4.54015,-0.3004 -8.64474,-1.4539 -12.31376,-3.4605 -3.67726,-2.0447 -6.785,-4.6917 -9.32322,-7.9409 -2.53821,-3.2492 -4.45321,-7.8714 -5.745,-13.8666 -1.34937,-6.2625 -1.40328,-11.7053 -0.16171,-16.3284 0.90739,-3.3922 2.45752,-6.5832 4.65037,-9.5732 2.18462,-3.028 4.58138,-5.4426 7.19028,-7.2434 4.14097,-2.8502 9.76276,-5.0405 16.86539,-6.571 9.92836,-2.1392 17.8718,-1.9927 23.83036,0.4395 5.99665,2.4242 10.78151,6.8276 14.3546,13.2103 l -21.30848,7.6482 c -1.24689,-2.4485 -2.92666,-4.1244 -5.0393,-5.0279 -2.08277,-0.9497 -4.65157,-1.0955 -7.70642,-0.4373 -3.85683,0.8311 -6.68777,2.8996 -8.49283,6.2055 -1.77515,3.2596 -2.05796,7.6959 -0.84843,13.3092 1.07784,5.0025 3.08029,8.547 6.00735,10.6334 2.92701,2.0866 6.22346,2.7349 9.88936,1.945 3.05486,-0.6582 5.44465,-1.9923 7.1694,-4.0022 1.76284,-2.0182 2.81011,-4.7613 3.1418,-8.2293"
         style="font-size:120px;font-style:normal;font-variant:normal;font-weight:normal;font-stretch:normal;text-align:center;line-height:125%;letter-spacing:0px;word-spacing:0px;writing-mode:lr-tb;text-anchor:middle;fill:none;stroke:#000000;stroke-width:1;stroke-opacity:1;font-family:Arial Black;-inkscape-font-specification:'Arial Black,'"
         id="path3831"
         inkscape:connector-curvature="0" />
      <path
         d="m 815.66306,1155.8478 22.41251,-8.148 10.81063,29.7366 c 1.89927,-4.2649 4.10717,-7.6238 6.62373,-10.0766 2.51652,-2.4527 5.83065,-4.4264 9.94239,-5.9214 6.09411,-2.2154 11.55898,-2.1031 16.39462,0.3367 4.87228,2.4268 8.70314,7.4764 11.4926,15.1491 l 13.51329,37.1706 -22.52264,8.1881 -11.69151,-32.1595 c -1.33467,-3.6711 -2.95477,-6.0123 -4.86027,-7.0238 -1.91892,-1.048 -4.1082,-1.125 -6.56786,-0.2308 -2.71669,0.9877 -4.54569,2.8164 -5.487,5.4862 -0.94136,2.6699 -0.44441,6.6663 1.49084,11.9895 l 10.21004,28.0844 -22.41251,8.148 -29.34886,-80.7291"
         style="font-size:120px;font-style:normal;font-variant:normal;font-weight:normal;font-stretch:normal;text-align:center;line-height:125%;letter-spacing:0px;word-spacing:0px;writing-mode:lr-tb;text-anchor:middle;fill:none;stroke:#000000;stroke-width:1;stroke-opacity:1;font-family:Arial Black;-inkscape-font-specification:'Arial Black,'"
         id="path3833"
         inkscape:connector-curvature="0" />
      <path
         d="m 970.58869,1152.6913 -42.32451,22.2413 c 2.16111,3.1888 4.40392,5.2315 6.72845,6.1281 3.29392,1.3139 6.58339,1.1077 9.86841,-0.6185 2.07469,-1.0903 3.77312,-2.6447 5.09529,-4.6633 0.79582,-1.2567 1.41464,-3.0601 1.85647,-5.4104 l 21.80766,-9.0107 c -0.27396,7.2044 -2.02256,13.1979 -5.24579,17.9806 -3.2415,4.7482 -9.06356,9.33 -17.46617,13.7455 -7.29617,3.8341 -13.57229,5.8304 -18.8284,5.9889 -5.2743,0.1242 -10.46663,-1.3176 -15.57698,-4.3245 -5.09393,-3.0597 -9.23086,-7.6153 -12.41078,-13.6666 -4.52455,-8.6101 -5.43697,-17.0224 -2.73727,-25.2367 2.73431,-8.2325 8.95978,-14.9017 18.67642,-20.0078 7.88397,-4.1429 14.73506,-6.2207 20.55328,-6.2334 5.81817,-0.013 11.11043,1.6193 15.87679,4.8952 4.76629,3.2761 9.05739,8.5448 12.87334,15.8064 l 1.25379,2.3859 m -26.78846,1.1698 c -2.55913,-3.8622 -5.2011,-6.2026 -7.92589,-7.0213 -2.69026,-0.8367 -5.48769,-0.4919 -8.39229,1.0343 -3.35416,1.7627 -5.33444,4.5022 -5.94084,8.2186 -0.40722,2.3322 0.0794,5.2316 1.45984,8.6982 l 20.79918,-10.9298"
         style="font-size:120px;font-style:normal;font-variant:normal;font-weight:normal;font-stretch:normal;text-align:center;line-height:125%;letter-spacing:0px;word-spacing:0px;writing-mode:lr-tb;text-anchor:middle;fill:none;stroke:#000000;stroke-width:1;stroke-opacity:1;font-family:Arial Black;-inkscape-font-specification:'Arial Black,'"
         id="path3835"
         inkscape:connector-curvature="0" />
      <path
         d="m 945.70997,1095.1006 19.88851,-13.159 8.95585,13.536 -19.88851,13.1589 -8.95585,-13.5359 m 13.06195,19.7419 19.88851,-13.159 34.33617,51.8959 -19.88855,13.1589 -34.33613,-51.8958"
         style="font-size:120px;font-style:normal;font-variant:normal;font-weight:normal;font-stretch:normal;text-align:center;line-height:125%;letter-spacing:0px;word-spacing:0px;writing-mode:lr-tb;text-anchor:middle;fill:none;stroke:#000000;stroke-width:1;stroke-opacity:1;font-family:Arial Black;-inkscape-font-specification:'Arial Black,'"
         id="path3837"
         inkscape:connector-curvature="0" />
      <path
         d="m 974.45445,1075.4646 18.63542,-15.2533 18.85333,23.0335 c 0.2604,-3.4437 1.1585,-6.6018 2.6943,-9.4743 1.5661,-2.8971 3.7698,-5.5085 6.6111,-7.8343 5.8642,-4.7999 12.4477,-6.655 19.7505,-5.5654 7.278,1.0595 14.1459,5.534 20.6035,13.4233 4.3051,5.2598 7.2264,10.6172 8.7639,16.0725 1.5127,5.4252 1.5288,10.4093 0.048,14.9528 -1.475,4.4885 -4.1018,8.2791 -7.8802,11.3718 -3.2345,2.6474 -6.7658,4.3769 -10.5942,5.1884 -2.916,0.5695 -6.7927,0.3353 -11.6301,-0.7027 l 5.8267,7.1187 -17.2752,14.1399 -54.40735,-66.4709 m 53.08855,27.1165 c 3.3896,4.1412 6.6222,6.518 9.6979,7.1302 3.081,0.5574 5.8156,-0.1411 8.2036,-2.0959 2.2066,-1.8061 3.3082,-4.2222 3.3049,-7.2483 0,-3.0809 -1.7658,-6.7827 -5.3039,-11.1053 -3.1175,-3.8087 -6.1467,-5.9985 -9.0876,-6.5697 -2.9107,-0.5958 -5.4089,-0.04 -7.4947,1.667 -2.5088,2.0537 -3.7974,4.6732 -3.8654,7.8586 -0.063,3.1305 1.4524,6.585 4.5452,10.3634"
         style="font-size:120px;font-style:normal;font-variant:normal;font-weight:normal;font-stretch:normal;text-align:center;line-height:125%;letter-spacing:0px;word-spacing:0px;writing-mode:lr-tb;text-anchor:middle;fill:none;stroke:#000000;stroke-width:1;stroke-opacity:1;font-family:Arial Black;-inkscape-font-specification:'Arial Black,'"
         id="path3839"
         inkscape:connector-curvature="0" />
      <path
         d="m 1122.6461,1016.0479 -32.483,35.0839 c 3.1009,2.2856 5.8966,3.4633 8.387,3.5333 3.5435,0.14 6.5759,-1.1515 9.0971,-3.8746 1.5923,-1.7197 2.675,-3.7516 3.2483,-6.0956 0.331,-1.4501 0.313,-3.3567 -0.054,-5.7198 l 17.5537,-15.7681 c 2.1445,6.8832 2.495,13.1168 1.0515,18.7007 -1.4722,5.5573 -5.4327,11.8186 -11.8816,18.7838 -5.5996,6.048 -10.8505,10.0232 -15.7528,11.9258 -4.931,1.8759 -10.3068,2.2487 -16.1274,1.1182 -5.8228,-1.1855 -11.2422,-4.1004 -16.2584,-8.7446 -7.1371,-6.6081 -10.8029,-14.2343 -10.9975,-22.8787 -0.1646,-8.6732 3.4767,-17.0368 10.9339,-25.0913 6.0508,-6.5352 11.8166,-10.7789 17.2975,-12.7314 5.4808,-1.9523 11.0143,-2.1793 16.6004,-0.6806 5.5859,1.4989 11.3886,5.0349 17.408,10.6078 l 1.9777,1.8312 m -24.8644,10.0374 c -3.7008,-2.7874 -6.972,-4.1128 -9.8138,-3.9758 -2.8153,0.1087 -5.3376,1.3665 -7.5668,3.7742 -2.5743,2.7804 -3.5275,6.0235 -2.8596,9.7294 0.3939,2.3345 1.8197,4.9055 4.2773,7.7133 l 15.9629,-17.2411"
         style="font-size:120px;font-style:normal;font-variant:normal;font-weight:normal;font-stretch:normal;text-align:center;line-height:125%;letter-spacing:0px;word-spacing:0px;writing-mode:lr-tb;text-anchor:middle;fill:none;stroke:#000000;stroke-width:1;stroke-opacity:1;font-family:Arial Black;-inkscape-font-specification:'Arial Black,'"
         id="path3841"
         inkscape:connector-curvature="0" />
    </g>
    <path
       style="font-size:120px;font-style:normal;font-variant:normal;font-weight:normal;font-stretch:normal;text-align:center;line-height:125%;letter-spacing:0px;word-spacing:0px;writing-mode:lr-tb;text-anchor:middle;fill:none;stroke:#000000;stroke-width:1;stroke-opacity:1;display:inline;font-family:Arial Black;-inkscape-font-specification:'Arial Black,'"
       d="m 273.6875,1008.4375 c -13.65078,25.0164 -27.42375,49.9659 -41.15625,74.9375 11.34298,9.6352 22.58837,20.4208 33.96875,29.375 4.80466,-3.7943 10.68299,-6.3298 16.9375,-5.3438 -2.13063,4.5626 -8.84752,8.3774 -7.78125,13.8126 10.91701,9.7354 22.18603,19.5054 33.1875,29.25 3.2472,-3.4547 8.98565,-8.5298 13.75,-4.2813 0.4649,13.5733 9.29986,25.5099 21.53125,31.0313 7.15071,3.8148 16.05279,4.5255 21.21875,11.2812 6.21873,6.4691 16.96342,7.2283 21.625,15.0938 4.6447,2.495 10.14476,3.26 14.1875,6.9374 4.71695,2.4882 9.35585,6.4056 14.46875,7.4376 6.51512,-1.8812 11.29791,4.7736 17.45442,5.8093 12.11467,5.0663 24.41331,10.8893 36.38933,15.5344 0.79111,-4.2195 6.86317,-6.6087 9.21875,-2.2813 7.12532,10.7786 21.10672,12.0105 32.84375,13.9376 10.22516,2.6669 20.18399,7.7912 30.8125,7.9687 4.71348,-1.3272 7.94378,-5.3177 11.9375,-7.875 14.28127,17.6423 40.66974,23.4556 61.375,15.3437 4.0039,-3.0651 10.4034,1.1681 8.625,6.0938 15.62282,-0.3706 31.59769,1.2465 47.09375,1.0938 3.04462,-9.9257 1.09773,-20.4633 2.34375,-30.625 5.27081,11.7044 13.11931,23.3093 25.71875,27.875 14.70759,5.2249 31.66341,3.2613 46.03125,-2.4376 6.62257,-2.4826 11.52558,-7.5329 16.84375,-11.7812 4.8325,-0.8162 8.20134,4.1917 12.96875,4.3125 22.03927,6.0655 47.31608,-1.8707 61.28125,-20.25 0.81803,3.3619 -1.00137,8.8496 1.28125,11.5 28.13785,-10.886 56.75094,-20.5893 85,-31.2187 -2.89336,-3.2335 -3.0569,-10.352 2.53125,-10.4688 21.77413,1.8813 44.3513,-9.9015 55.125,-28.9375 0.42346,-3.024 4.7182,-7.4799 6.75,-3.1563 0.29316,1.5833 1.37017,7.3632 3.8125,4.5626 17.2064,-13.3441 37.3045,-22.8194 53.0538,-38.1663 9.7969,-8.7712 21.6492,-15.0863 31.0712,-24.24 7.99,-9.5885 9.6334,-22.9842 7.25,-34.875 21.2265,4.4827 41.8068,-9.4743 52.125,-27.125 10.3723,-15.1188 11.3067,-38.1087 -2.6875,-51.2187 -11.7757,-10.64832 -27.6858,-19.95122 -44.0625,-15.75005 -24.9145,6.38886 -44.1176,31.62095 -41.0625,57.68745 -13.5216,-3.7332 -28.3289,1.2657 -37.6562,11.4376 -4.7495,-5.7574 -9.52354,-11.4943 -14.31255,-17.2188 -20.74012,17.4649 -42.40162,34.131 -65.53125,48.0625 -0.93061,2.0773 3.61015,3.679 3.65511,5.9852 4.39943,6.5861 8.76412,13.1955 13.18864,19.7648 -23.35594,-0.7343 -47.4362,12.655 -56.53125,34.7187 -11.38461,-6.0798 -25.63338,-4.8306 -36.625,1.6563 -2.45833,-7.1705 -5.14285,-14.2566 -7.75,-21.375 -14.96875,5.4687 -29.9375,10.9375 -44.90625,16.4063 2.91524,8.0213 5.84412,16.0377 8.75,24.0624 -20.40357,-2.6219 -43.29335,2.9764 -56.46875,19.7188 -14.69306,-12.825 -36.51441,-10.106 -53.59375,-4.3125 -4.25863,2.694 -9.31153,2.0325 -13.34375,-0.5625 -10.95819,-3.868 -22.1241,1.7623 -33.23559,-0.7937 -7.17198,-0.374 -15.4843,-1.9106 -21.42066,2.8249 -5.83808,2.4551 -9.83107,-4.4437 -15.20973,-5.4026 -12.46885,-5.1492 -26.34964,-4.5744 -39.35277,-3.8474 -5.46418,-3.1297 -1.65853,-9.7975 -0.0937,-14 -0.15382,-3.6962 2.19532,-6.834 2.9375,-10.3124 -15.6836,-3.7722 -30.89397,-9.1884 -46.53125,-13.0313 -2.08974,7.1071 -4.08117,14.2883 -6.15625,21.4375 -10.71603,-5.1971 -23.25117,-3.6229 -33.875,0.7188 -5.51315,-14.2445 -20.58748,-23.3075 -35.53125,-23.4063 -7.59612,-7.3896 -18.5333,-9.3726 -27.875,-13.4687 -4.73182,1.2992 -9.48807,-1.5955 -11.03125,-6.0313 -9.42111,-12.0389 -23.83568,-18.3036 -37.0625,-25.2187 6.05352,-4.5173 12.10808,-8.8916 18.125,-13.4688 -13.7104,-11.7558 -26.99489,-24.3457 -41.09375,-35.25 -1.60302,-4.7251 -6.56897,-5.8083 -9.71875,-9.3125 -8.20155,-7.4631 -16.80849,-14.6736 -25.34375,-21.625 -8.71945,-10.1225 -20.34277,-17.391 -29.8125,-26.9375 -5.3156,-7.49445 -8.8091,-4.68458 -11.45285,2.9308 -2.73447,5.00223 -5.46893,10.0045 -8.2034,15.0067 z m 655.21875,83.625 -0.0313,0.031 0.0313,-0.031 z"
       id="path3873"
       inkscape:connector-curvature="0" />
  </g>
  <g
     style="display:inline"
     inkscape:label="Text"
     id="layer5"
     inkscape:groupmode="layer">
    <path
       inkscape:connector-curvature="0"
       id="path3893"
       d="m 615.56757,673.22834 140.25591,0"
       style="fill:none;stroke:#000000;stroke-width:1px;stroke-linecap:butt;stroke-linejoin:miter;stroke-opacity:1" />
    <path
       inkscape:connector-curvature="0"
       id="path3895"
       d="m 673.22833,604.65878 0,140.2559"
       style="fill:none;stroke:#000000;stroke-width:1px;stroke-linecap:butt;stroke-linejoin:miter;stroke-opacity:1" />
  </g>
</svg>
