<?xml version="1.0" encoding="UTF-8" standalone="no"?>
<!-- Created with Inkscape (http://www.inkscape.org/) -->

<svg
   xmlns:dc="http://purl.org/dc/elements/1.1/"
   xmlns:cc="http://creativecommons.org/ns#"
   xmlns:rdf="http://www.w3.org/1999/02/22-rdf-syntax-ns#"
   xmlns:svg="http://www.w3.org/2000/svg"
   xmlns="http://www.w3.org/2000/svg"
   xmlns:sodipodi="http://sodipodi.sourceforge.net/DTD/sodipodi-0.dtd"
   xmlns:inkscape="http://www.inkscape.org/namespaces/inkscape"
   sodipodi:docname="Scheibe.svg"
   inkscape:version="0.48.3.1 r9886"
   version="1.1"
   id="svg2"
   height="1346.4567"
   width="1346.4567">
  <sodipodi:namedview
     id="base"
     pagecolor="#ffffff"
     bordercolor="#666666"
     borderopacity="1.0"
     inkscape:pageopacity="0.0"
     inkscape:pageshadow="2"
     inkscape:zoom="0.64168422"
     inkscape:cx="545.27786"
     inkscape:cy="672.57227"
     inkscape:document-units="mm"
     inkscape:current-layer="svg2"
     showgrid="false"
     units="mm"
     inkscape:snap-center="false"
     inkscape:snap-nodes="true"
     inkscape:snap-global="true"
     inkscape:snap-grids="true"
     inkscape:snap-to-guides="true"
     showguides="true"
     inkscape:guide-bbox="true"
     inkscape:window-width="1855"
     inkscape:window-height="1056"
     inkscape:window-x="65"
     inkscape:window-y="24"
     inkscape:window-maximized="1"
     inkscape:snap-object-midpoints="false">
    <sodipodi:guide
       id="guide2991"
       position="673.22833,1093.996"
       orientation="1,0" />
    <sodipodi:guide
       id="guide2993"
       position="-146.4895,673.22833"
       orientation="0,1" />
    <sodipodi:guide
       id="guide3012"
       position="-381.80774,342.84777"
       orientation="0,1" />
    <sodipodi:guide
       id="guide3037"
       position="-165.29317,1474.4151"
       orientation="1,0" />
  </sodipodi:namedview>
  <defs
     id="defs4" />
  <metadata
     id="metadata7">
    <rdf:RDF>
      <cc:Work
         rdf:about="">
        <dc:format>image/svg+xml</dc:format>
        <dc:type
           rdf:resource="http://purl.org/dc/dcmitype/StillImage" />
        <dc:title />
      </cc:Work>
    </rdf:RDF>
  </metadata>
  <g
     style="display:none"
     inkscape:label="Hilf"
     id="layer2"
     inkscape:groupmode="layer">
    <path
       sodipodi:open="true"
       sodipodi:end="10.469176"
       sodipodi:start="4.1876521"
       d="m 421.83168,238.93877 a 501.80444,501.80444 0 1 1 -0.72118,0.41827"
       sodipodi:ry="501.80444"
       sodipodi:rx="501.80444"
       sodipodi:cy="673.22833"
       sodipodi:cx="673.22833"
       id="path3025"
       style="opacity:0.83965017;fill:none;stroke:#000000;stroke-width:0.99921262;stroke-miterlimit:4;stroke-opacity:1;stroke-dasharray:none"
       sodipodi:type="arc" />
    <path
       inkscape:connector-curvature="0"
       id="path3150"
       d="m 653.46369,-390.4316 c -189.1354,4.63018 -375.08232,77.02893 -518.70059,199.29246 -142.5955898,120.30141 -242.07868,289.868098 -278.57531,472.9976 -36.38214,177.62059 -12.73637,367.12192 66.806229,530.01963 76.18425412,158.32228 203.162471,291.63631 358.548951,374.22221 174.59986,94.0239 383.33499,123.3152 577.13144,79.9041 213.13209,-46.665 405.55939,-179.8749 523.13589,-363.61514 109.9425,-169.40399 155.4639,-379.50979 124.9185,-579.48801 -32.883,-224.3753 -161.5902,-432.3992 -347.5666,-561.70953 C 1012.6446,-341.87854 832.73607,-395.75135 653.46369,-390.4316 z"
       style="opacity:0.83965017;fill:none;stroke:#000000;stroke-width:1.37483883;stroke-miterlimit:4;stroke-opacity:1;stroke-dasharray:none"
       inkscape:transform-center-y="194.97513"
       inkscape:transform-center-x="-2.537799" />
  </g>
  <g
     style="display:inline"
     inkscape:label="Rundtext"
     id="layer4"
     inkscape:groupmode="layer">
    <path
       inkscape:transform-center-y="132.35671"
       inkscape:transform-center-x="537.51287"
       d="M 94.396577,852.39663 82.163874,800.88385 c -2.664123,-11.21916 -1.988876,-20.24438 2.025735,-27.07564 4.003968,-6.87665 10.931424,-11.48468 20.782371,-13.82409 10.12477,-2.40422 18.76316,-1.2276 25.91517,3.52985 7.14131,4.712 12.19566,13.31606 15.16309,25.81224 l 4.02883,16.96567 37.21508,-8.83739 7.39161,31.12656 -100.289183,23.81558 m 35.364683,-41.27984 -1.80322,-7.59353 c -1.41869,-5.97444 -3.44122,-9.92656 -6.06757,-11.85648 -2.67183,-1.91891 -5.6256,-2.49668 -8.86499,-1.72502 -3.14678,0.74735 -5.56568,2.42987 -7.25669,5.04756 -1.69087,2.61785 -1.84861,6.82276 -0.47326,12.61474 l 2.09563,8.82491 22.3701,-5.31218"
       style="font-size:144px;font-style:normal;font-variant:normal;font-weight:normal;font-stretch:normal;text-align:center;line-height:125%;letter-spacing:0px;word-spacing:0px;writing-mode:lr-tb;text-anchor:middle;fill:none;stroke:#000000;stroke-opacity:1;font-family:Arial Black;-inkscape-font-specification:'Arial Black,'"
       id="path3810"
       inkscape:connector-curvature="0" />
    <path
       inkscape:transform-center-y="44.071976"
       inkscape:transform-center-x="553.36142"
       d="m 71.584679,735.80777 -2.344292,-28.59155 102.733373,-8.42336 2.3443,28.59154 -102.733381,8.42337"
       style="font-size:144px;font-style:normal;font-variant:normal;font-weight:normal;font-stretch:normal;text-align:center;line-height:125%;letter-spacing:0px;word-spacing:0px;writing-mode:lr-tb;text-anchor:middle;fill:none;stroke:#000000;stroke-opacity:1;font-family:Arial Black;-inkscape-font-specification:'Arial Black,'"
       id="path3812"
       inkscape:connector-curvature="0" />
    <path
       inkscape:transform-center-y="-34.737421"
       inkscape:transform-center-x="539.94725"
       d="m 144.98811,595.68332 -3.59194,57.26245 c 4.61704,-0.22698 8.10997,-1.25251 10.4788,-3.07657 3.40117,-2.55768 5.24114,-6.05873 5.51993,-10.50315 0.17608,-2.80694 -0.35839,-5.51759 -1.60343,-8.13196 -0.79202,-1.59955 -2.25508,-3.35865 -4.38917,-5.27732 l 4.36163,-27.97714 c 7.21532,4.77366 12.26961,10.30406 15.16293,16.59119 2.84652,6.28435 3.91324,15.11062 3.20014,26.47884 -0.6192,9.87126 -2.48645,17.55068 -5.60173,23.03825 -3.16206,5.4847 -7.87798,9.90907 -14.14777,13.27314 -6.31362,3.31437 -13.56394,4.71477 -21.751,4.20121 -11.64893,-0.73071 -20.84241,-5.04127 -27.58045,-12.93171 -6.734983,-7.93719 -9.690202,-18.47881 -8.86565,-31.62489 0.669156,-10.66647 2.811395,-18.98617 6.42672,-24.95911 3.61547,-5.9728 8.58869,-10.38103 14.91971,-13.22471 6.3311,-2.84351 14.40884,-3.95718 24.23325,-3.34101 l 3.22803,0.20249 m -15.50642,28.19392 c -5.55557,0.21518 -9.60264,1.46425 -12.14123,3.74724 -2.53553,2.23633 -3.92659,5.31935 -4.1732,9.24905 -0.2846,4.53799 1.28911,8.27667 4.72115,11.216 2.13705,1.87188 5.41308,3.1811 9.82808,3.92768 l 1.76515,-28.14"
       style="font-size:144px;font-style:normal;font-variant:normal;font-weight:normal;font-stretch:normal;text-align:center;line-height:125%;letter-spacing:0px;word-spacing:0px;writing-mode:lr-tb;text-anchor:middle;fill:none;stroke:#000000;stroke-opacity:1;font-family:Arial Black;-inkscape-font-specification:'Arial Black,'"
       id="path3814"
       inkscape:connector-curvature="0" />
    <path
       inkscape:transform-center-y="-125.13707"
       inkscape:transform-center-x="537.52931"
       d="m 85.799471,528.0408 27.701509,6.2882 3.48653,-15.35925 20.36472,4.62277 -3.48654,15.35925 25.85018,5.86795 c 3.10843,0.70566 5.23293,0.87548 6.37347,0.50946 1.76174,-0.56138 2.90204,-1.98491 3.42085,-4.27056 0.46696,-2.05698 0.52643,-5.07174 0.17844,-9.04426 l 19.73458,2.31668 c -0.0584,7.24501 -0.76723,13.86161 -2.12655,19.84985 -1.57726,6.94826 -3.63081,11.86566 -6.16069,14.75221 -2.52988,2.88661 -5.78203,4.71998 -9.75647,5.50014 -4.00976,0.72409 -10.08301,0.16262 -18.21977,-1.68443 l -25.64447,-5.82125 -2.33473,10.2852 -20.36472,-4.62277 2.33473,-10.2852 -13.370777,-3.03516 -7.980262,-31.22883"
       style="font-size:144px;font-style:normal;font-variant:normal;font-weight:normal;font-stretch:normal;text-align:center;line-height:125%;letter-spacing:0px;word-spacing:0px;writing-mode:lr-tb;text-anchor:middle;fill:none;stroke:#000000;stroke-opacity:1;font-family:Arial Black;-inkscape-font-specification:'Arial Black,'"
       id="path3816"
       inkscape:connector-curvature="0" />
    <path
       inkscape:transform-center-y="-192.25954"
       inkscape:transform-center-x="504.84001"
       d="m 122.61972,498.60677 24.81708,-64.65878 15.62313,5.99642 22.33679,48.94135 14.33596,-37.35112 18.24888,7.00421 -26.65633,69.45076 -17.32986,-6.65149 -21.33552,-46.44826 -11.79126,30.72112 -18.24887,-7.00421"
       style="font-size:144px;font-style:normal;font-variant:normal;font-weight:normal;font-stretch:normal;text-align:center;line-height:125%;letter-spacing:0px;word-spacing:0px;writing-mode:lr-tb;text-anchor:middle;fill:none;stroke:#000000;stroke-opacity:1;font-family:Arial Black;-inkscape-font-specification:'Arial Black,'"
       id="path3818"
       inkscape:connector-curvature="0" />
    <path
       inkscape:transform-center-y="-276.26838"
       inkscape:transform-center-x="458.712"
       d="m 193.14992,399.3151 -16.54276,21.97171 c -3.5695,-3.34394 -6.02563,-6.53927 -7.3684,-9.58599 -1.35875,-3.11096 -1.96193,-6.75258 -1.80951,-10.92488 0.10434,-2.99849 0.99642,-6.67237 2.67622,-11.02165 1.6799,-4.34914 3.89433,-8.81495 6.64332,-13.39745 4.41294,-7.35589 8.37979,-13.01158 11.90057,-16.9671 3.48064,-3.97945 7.41956,-6.67278 11.81677,-8.08001 3.0628,-1.00497 6.62407,-1.10972 10.68381,-0.31424 4.01955,0.77158 7.53669,2.06158 10.55144,3.87005 l 28.27834,16.96437 c 3.01471,1.80865 5.49482,3.0505 7.44034,3.72556 1.92936,0.61091 4.60637,1.06895 8.03105,1.37411 l -13.81746,23.03269 c -2.20271,-0.0644 -3.81054,-0.20871 -4.82343,-0.43379 -1.05315,-0.24907 -2.58864,-0.78759 -4.60645,-1.61551 1.16597,5.07257 1.4597,9.59448 0.8812,13.56574 -0.83572,5.4023 -2.97773,10.97748 -6.42603,16.72557 -4.58172,7.63738 -9.83489,12.38476 -15.75949,14.24216 -5.9005,1.81723 -11.44342,1.17046 -16.6288,-1.94028 -4.86376,-2.91782 -8.00727,-6.74415 -9.43051,-11.47904 -1.42321,-4.73484 -0.59566,-11.39923 2.48267,-19.99316 3.67314,-10.31422 5.96781,-17.05507 6.88402,-20.22256 0.87604,-3.19147 1.62745,-6.67642 2.25422,-10.45487 -3.01472,-1.80849 -5.4988,-2.45147 -7.45229,-1.92885 -1.95341,0.52274 -3.87058,2.35175 -5.75152,5.487 -2.41139,4.01974 -3.57681,7.42031 -3.49626,10.20174 0.0645,2.17059 1.19413,4.57013 3.38894,7.19868 m 25.6716,-13.54344 c -0.81969,4.10001 -1.86448,8.25623 -3.13436,12.46869 -1.66367,5.78021 -2.25024,9.71935 -1.75974,11.81745 0.50662,2.1625 1.60405,3.75012 3.2923,4.76287 1.92944,1.15753 3.91509,1.4468 5.95697,0.86781 2.02576,-0.64322 3.82238,-2.27123 5.3898,-4.88406 1.63976,-2.73332 2.49572,-5.66359 2.56786,-8.79081 0.0963,-3.16732 -0.51089,-5.80004 -1.82137,-7.8982 -1.3266,-2.16232 -3.51735,-4.15987 -6.57229,-5.99262 l -3.91917,-2.35113"
       style="font-size:144px;font-style:normal;font-variant:normal;font-weight:normal;font-stretch:normal;text-align:center;line-height:125%;letter-spacing:0px;word-spacing:0px;writing-mode:lr-tb;text-anchor:middle;fill:none;stroke:#000000;stroke-opacity:1;font-family:Arial Black;-inkscape-font-specification:'Arial Black,'"
       id="path3820"
       inkscape:connector-curvature="0" />
    <path
       inkscape:transform-center-y="-361.95852"
       inkscape:transform-center-x="401.80702"
       d="m 289.47612,305.02062 20.45561,-18.2092 c 3.22509,4.90097 5.25046,10.0175 6.07615,15.3496 0.79067,5.30097 0.25941,10.70808 -1.5938,16.22135 -1.82201,5.47845 -5.46889,11.27342 -10.94063,17.3849 -5.28421,5.90204 -10.23421,10.34153 -14.85001,13.31853 -4.61949,2.91085 -9.41785,4.68629 -14.39512,5.32634 -5.01219,0.6088 -9.89627,0.23121 -14.65226,-1.13274 -4.75598,-1.36391 -9.87543,-4.50036 -15.35837,-9.40936 -5.72734,-5.12781 -9.61885,-10.37364 -11.67453,-15.7375 -1.51185,-3.93319 -2.25788,-8.12449 -2.23809,-12.57392 -0.0151,-4.48058 0.60861,-8.51516 1.87101,-12.10374 2.00961,-5.68786 5.92227,-11.77968 11.73796,-18.27545 8.12952,-9.07989 15.94436,-14.54073 23.44455,-16.38251 7.53146,-1.87648 15.28265,-0.97675 23.2536,2.69923 l -15.29147,22.45525 c -2.93758,-1.49748 -5.75048,-1.93965 -8.43868,-1.32651 -2.69186,0.5471 -5.2885,2.21754 -7.7899,5.01131 -3.15798,3.52729 -4.4472,7.53224 -3.86768,12.01484 0.5759,4.41653 3.43069,8.92291 8.56437,13.51916 4.57492,4.09606 9.01904,6.12454 13.33239,6.08545 4.31333,-0.039 7.97083,-1.73485 10.97251,-5.0875 2.50137,-2.79379 3.88034,-5.77462 4.13696,-8.94248 0.28783,-3.20266 -0.63036,-6.60435 -2.75457,-10.20505"
       style="font-size:144px;font-style:normal;font-variant:normal;font-weight:normal;font-stretch:normal;text-align:center;line-height:125%;letter-spacing:0px;word-spacing:0px;writing-mode:lr-tb;text-anchor:middle;fill:none;stroke:#000000;stroke-opacity:1;font-family:Arial Black;-inkscape-font-specification:'Arial Black,'"
       id="path3822"
       inkscape:connector-curvature="0" />
    <path
       inkscape:transform-center-y="-425.78003"
       inkscape:transform-center-x="337.13145"
       d="m 275.38267,215.09325 22.77558,-17.32675 22.98881,30.21821 c 0.65566,-5.56391 1.988,-10.1997 3.99701,-13.90739 2.00903,-3.70751 5.10269,-7.15067 9.28101,-10.32945 6.19285,-4.71119 12.49459,-6.53097 18.90523,-5.45934 6.44789,1.04345 12.63769,5.46365 18.5694,13.2606 l 28.73601,37.77276 -22.88749,17.41191 -24.86197,-32.68045 c -2.83815,-3.73057 -5.52919,-5.83562 -8.07314,-6.31515 -2.57237,-0.51669 -5.10831,0.1757 -7.60783,2.07717 -2.76068,2.10028 -4.20439,4.84773 -4.33113,8.24237 -0.12679,3.39475 1.86751,7.79681 5.9828,13.20619 l 21.71166,28.53942 -22.77558,17.32676 -62.41037,-82.03686"
       style="font-size:144px;font-style:normal;font-variant:normal;font-weight:normal;font-stretch:normal;text-align:center;line-height:125%;letter-spacing:0px;word-spacing:0px;writing-mode:lr-tb;text-anchor:middle;fill:none;stroke:#000000;stroke-opacity:1;font-family:Arial Black;-inkscape-font-specification:'Arial Black,'"
       id="path3824"
       inkscape:connector-curvature="0" />
    <path
       inkscape:transform-center-y="-525.38112"
       inkscape:transform-center-x="177.75987"
       d="m 426.00678,117.46867 39.72161,-13.35395 35.3149,54.29577 -4.72393,-64.580088 39.58832,-13.309125 32.84709,97.704493 -24.65938,8.2902 -25.04983,-74.51134 5.92213,80.94184 -22.32673,7.50599 -44.11088,-68.10325 25.04984,74.51135 -24.72604,8.3126 -32.8471,-97.70449"
       style="font-size:144px;font-style:normal;font-variant:normal;font-weight:normal;font-stretch:normal;text-align:center;line-height:125%;letter-spacing:0px;word-spacing:0px;writing-mode:lr-tb;text-anchor:middle;fill:none;stroke:#000000;stroke-opacity:1;font-family:Arial Black;-inkscape-font-specification:'Arial Black,'"
       id="path3826"
       inkscape:connector-curvature="0" />
    <path
       inkscape:transform-center-y="-550.54625"
       inkscape:transform-center-x="49.680406"
       d="m 608.77481,123.7197 -27.50135,-0.30771 c 0.57877,-4.85677 1.69752,-8.72861 3.35624,-11.61551 1.701,-2.93784 4.27715,-5.58143 7.72851,-7.9308 2.4773,-1.69258 5.96541,-3.15078 10.46431,-4.374581 4.49887,-1.223665 9.40843,-2.085843 14.72871,-2.586553 8.54036,-0.803556 15.44677,-0.959079 20.71929,-0.466568 5.268,0.446003 9.77151,2.023218 13.51051,4.731642 2.62432,1.87181 4.81879,4.67856 6.58344,8.42026 1.76008,3.69516 2.80484,7.2928 3.13428,10.7929 l 3.0894,32.83154 c 0.32927,3.50018 0.79839,6.23386 1.40732,8.20109 0.65104,1.9162 1.86824,4.34408 3.65157,7.28369 l -26.74125,2.51631 c -1.25349,-1.81241 -2.08967,-3.19327 -2.50851,-4.14258 -0.42335,-0.99597 -0.89935,-2.55197 -1.42798,-4.668 -3.39542,3.94483 -6.86405,6.86074 -10.40592,8.74772 -4.84705,2.52771 -10.60737,4.10555 -17.28098,4.73354 -8.8671,0.83437 -15.80396,-0.58448 -20.81062,-4.25659 -4.95999,-3.67648 -7.72325,-8.52486 -8.28975,-14.54515 -0.53136,-5.64692 0.68843,-10.44635 3.65939,-14.39835 2.97094,-3.95192 8.82985,-7.234 17.57673,-9.84623 10.48512,-3.15236 17.27491,-5.29789 20.36939,-6.43661 3.08999,-1.18528 6.34256,-2.64485 9.75771,-4.37871 -0.32943,-3.50011 -1.28334,-5.88215 -2.86178,-7.14614 -1.57852,-1.26387 -4.18784,-1.72456 -7.82796,-1.38209 -4.66693,0.4392 -8.09683,1.51527 -10.2897,3.22818 -1.71033,1.33805 -2.974,3.66981 -3.791,6.9953 m 26.12081,12.65542 c -3.7885,1.76899 -7.75565,3.38995 -11.90145,4.86293 -5.64207,2.08464 -9.16284,3.94612 -10.56235,5.58441 -1.44186,1.6894 -2.07053,3.51414 -1.88607,5.4742 0.21076,2.24012 1.15425,4.01108 2.8305,5.31288 1.71845,1.25077 4.09442,1.73345 7.12794,1.44796 3.17344,-0.2986 6.04111,-1.3453 8.60304,-3.14009 2.60849,-1.79915 4.36957,-3.84814 5.28329,-6.147 0.95591,-2.34985 1.26696,-5.29822 0.93327,-8.84508 l -0.42817,-4.55021 m -41.69681,-62.603363 18.20085,-1.712672 1.6468,17.500817 -18.20085,1.712672 -1.6468,-17.500817 m 29.68138,-2.792974 18.41086,-1.732439 1.6468,17.500816 -18.41086,1.732439 -1.6468,-17.500816"
       style="font-size:144px;font-style:normal;font-variant:normal;font-weight:normal;font-stretch:normal;text-align:center;line-height:125%;letter-spacing:0px;word-spacing:0px;writing-mode:lr-tb;text-anchor:middle;fill:none;stroke:#000000;stroke-opacity:1;font-family:Arial Black;-inkscape-font-specification:'Arial Black,'"
       id="path3828"
       inkscape:connector-curvature="0" />
    <path
       inkscape:transform-center-y="-537.42543"
       inkscape:transform-center-x="-50.219637"
       d="m 690.95395,94.755718 26.51856,2.627847 -1.19951,12.104775 c 4.45488,-4.55156 8.81548,-7.67584 13.08178,-9.37286 4.27082,-1.74352 9.32166,-2.32641 15.15254,-1.748678 7.88319,0.781257 13.80709,3.747068 17.77174,8.897428 4.01572,5.10846 5.53828,12.56055 4.56767,22.35626 l -4.6802,47.22962 -28.61764,-2.83586 4.04923,-40.86236 c 0.46217,-4.66461 -0.0749,-8.03871 -1.61124,-10.12228 -1.53185,-2.13014 -3.86039,-3.35009 -6.98565,-3.65983 -3.4519,-0.34201 -6.3801,0.68674 -8.78466,3.08627 -2.40464,2.39962 -3.94206,6.98128 -4.61226,13.74498 l -3.53616,35.6846 -28.47771,-2.82198 7.36351,-74.307932"
       style="font-size:144px;font-style:normal;font-variant:normal;font-weight:normal;font-stretch:normal;text-align:center;line-height:125%;letter-spacing:0px;word-spacing:0px;writing-mode:lr-tb;text-anchor:middle;fill:none;stroke:#000000;stroke-opacity:1;font-family:Arial Black;-inkscape-font-specification:'Arial Black,'"
       id="path3830"
       inkscape:connector-curvature="0" />
    <path
       inkscape:transform-center-y="-517.39091"
       inkscape:transform-center-x="-149.80356"
       d="m 800.72887,108.73236 25.52483,7.65651 -3.49492,11.65119 c 5.24391,-3.61443 10.12202,-5.84602 14.63431,-6.69481 4.52562,-0.89356 9.59463,-0.49863 15.20703,1.18481 7.58777,2.27613 12.83424,6.32127 15.73944,12.13543 2.96337,5.78281 3.03096,13.38853 0.20281,22.8172 l -13.63628,45.45979 -27.54526,-8.26257 11.7979,-39.33114 c 1.34672,-4.48983 1.46558,-7.90432 0.35658,-10.24351 -1.09566,-2.38402 -3.14756,-4.02722 -6.1557,-4.92961 -3.32255,-0.99658 -6.39356,-0.5475 -9.21306,1.34726 -2.81958,1.89483 -5.20577,6.09737 -7.15856,12.60762 l -10.30297,34.34741 -27.41057,-8.22218 21.4544,-71.5234"
       style="font-size:144px;font-style:normal;font-variant:normal;font-weight:normal;font-stretch:normal;text-align:center;line-height:125%;letter-spacing:0px;word-spacing:0px;writing-mode:lr-tb;text-anchor:middle;fill:none;stroke:#000000;stroke-opacity:1;font-family:Arial Black;-inkscape-font-specification:'Arial Black,'"
       id="path3832"
       inkscape:connector-curvature="0" />
    <path
       inkscape:transform-center-y="-477.87866"
       inkscape:transform-center-x="-248.27607"
       d="m 958.52438,221.12757 -50.85489,-26.56449 c -1.66991,4.31046 -2.1532,7.9186 -1.44989,10.82443 0.95379,4.1473 3.40424,7.25183 7.35136,9.31362 2.49284,1.30218 5.18662,1.91602 8.08136,1.84156 1.78339,-0.0732 3.98538,-0.69463 6.60602,-1.86422 l 23.78668,15.36027 c -7.29499,4.65099 -14.40267,7.02 -21.32306,7.107 -6.89882,0.0454 -15.39629,-2.5688 -25.49243,-7.8426 -8.76669,-4.57935 -15.02342,-9.40772 -18.77024,-14.48511 -3.72517,-5.11895 -5.8498,-11.22639 -6.37395,-18.32234 -0.46093,-7.11578 1.20762,-14.30912 5.00567,-21.58006 5.40402,-10.34543 13.08025,-16.992 23.02869,-19.93967 9.9899,-2.92587 20.82238,-1.33957 32.49746,4.75893 9.47289,4.94832 16.20279,10.28827 20.18972,16.01984 3.98675,5.73165 5.99202,12.06761 6.01586,19.00789 0.0236,6.94031 -2.24333,14.77302 -6.80086,23.49813 l -1.4975,2.86682 m -19.45324,-25.63039 c 2.06229,-5.1631 2.56665,-9.36841 1.51308,-12.61593 -1.01218,-3.22579 -3.26324,-5.75022 -6.75322,-7.5733 -4.03022,-2.10516 -8.08576,-2.18754 -12.16662,-0.24714 -2.57908,1.19131 -5.10723,3.65199 -7.58444,7.382 l 24.9912,13.05436"
       style="font-size:144px;font-style:normal;font-variant:normal;font-weight:normal;font-stretch:normal;text-align:center;line-height:125%;letter-spacing:0px;word-spacing:0px;writing-mode:lr-tb;text-anchor:middle;fill:none;stroke:#000000;stroke-opacity:1;font-family:Arial Black;-inkscape-font-specification:'Arial Black,'"
       id="path3834"
       inkscape:connector-curvature="0" />
    <path
       inkscape:transform-center-y="-437.93752"
       inkscape:transform-center-x="-325.46135"
       d="m 1000.2524,196.81422 21.4025,16.11163 -7.3581,9.77439 c 5.2454,-2.68124 9.5462,-3.99076 12.9024,-3.92857 3.4217,0.0531 6.7429,1.29175 9.9637,3.71621 3.3703,2.5373 6.2698,6.36279 8.6983,11.47647 l -19.3415,10.9624 c -1.8506,-3.15328 -3.5624,-5.32196 -5.1352,-6.50603 -2.9961,-2.25534 -6.2483,-2.76755 -9.7567,-1.53615 -4.9812,1.70676 -11.0663,7.33498 -18.25513,16.88466 l -15.05443,19.99819 -22.97544,-17.29568 44.9096,-59.65752"
       style="font-size:144px;font-style:normal;font-variant:normal;font-weight:normal;font-stretch:normal;text-align:center;line-height:125%;letter-spacing:0px;word-spacing:0px;writing-mode:lr-tb;text-anchor:middle;fill:none;stroke:#000000;stroke-opacity:1;font-family:Arial Black;-inkscape-font-specification:'Arial Black,'"
       id="path3836"
       inkscape:connector-curvature="0" />
    <path
       inkscape:transform-center-y="-379.34916"
       inkscape:transform-center-x="-391.27925"
       d="m 1084.1228,226.6631 20.2552,21.10185 -38.3485,36.81 32.6573,-1.71847 24.3939,25.41352 -37.421,-1.2136 -15.3783,54.03884 -22.349,-23.28304 11.1406,-31.64815 -15.0584,-0.4574 -14.0003,13.43856 -20.2552,-21.10185 74.3637,-71.38022"
       style="font-size:144px;font-style:normal;font-variant:normal;font-weight:normal;font-stretch:normal;text-align:center;line-height:125%;letter-spacing:0px;word-spacing:0px;writing-mode:lr-tb;text-anchor:middle;fill:none;stroke:#000000;stroke-opacity:1;font-family:Arial Black;-inkscape-font-specification:'Arial Black,'"
       id="path3838"
       inkscape:connector-curvature="0" />
    <path
       inkscape:transform-center-y="-295.4872"
       inkscape:transform-center-x="-449.87312"
       d="m 1101.3088,341.86861 c 9.5438,-6.21772 19.4971,-8.11462 29.8597,-5.69072 10.4017,2.39837 19.1721,9.07643 26.311,20.03424 8.1624,12.52881 10.6959,24.36097 7.6008,35.49654 -2.5001,8.95757 -8.0311,16.22539 -16.5932,21.80347 -9.6224,6.26886 -19.6021,8.21099 -29.939,5.8264 -10.2722,-2.37102 -19.08,-9.19251 -26.4236,-20.46447 -6.5503,-10.05451 -9.2941,-19.84768 -8.2311,-29.37952 1.3594,-11.73897 7.1645,-20.94762 17.4154,-27.62594 m 15.7184,23.99812 c -5.5772,3.63339 -8.9718,7.43942 -10.1841,11.41806 -1.1866,4.0179 -0.6669,7.73531 1.5592,11.1523 2.2517,3.45619 5.4098,5.42684 9.4741,5.91194 4.0899,0.52429 9.0412,-1.107 14.8541,-4.89391 5.4199,-3.53108 8.7163,-7.27314 9.8894,-11.22616 1.2121,-3.97866 0.7436,-7.61752 -1.4057,-10.91664 -2.2774,-3.49552 -5.513,-5.49948 -9.7071,-6.01192 -4.1548,-0.53802 -8.9815,0.98408 -14.4799,4.56633"
       style="font-size:144px;font-style:normal;font-variant:normal;font-weight:normal;font-stretch:normal;text-align:center;line-height:125%;letter-spacing:0px;word-spacing:0px;writing-mode:lr-tb;text-anchor:middle;fill:none;stroke:#000000;stroke-opacity:1;font-family:Arial Black;-inkscape-font-specification:'Arial Black,'"
       id="path3840"
       inkscape:connector-curvature="0" />
    <path
       inkscape:transform-center-y="-204.0304"
       inkscape:transform-center-x="-494.79867"
       d="m 1192.4556,418.55691 10.044,24.68314 -11.267,4.58472 c 6.104,1.81778 10.9015,4.21782 14.3924,7.20015 3.5342,2.96464 6.4055,7.16058 8.6141,12.58787 2.9857,7.33763 3.1252,13.96101 0.4186,19.87019 -2.6459,5.93477 -8.5276,10.75733 -17.6453,14.46759 l -43.9608,17.88839 -10.839,-26.63696 38.0343,-15.47674 c 4.3416,-1.76682 7.0758,-3.81559 8.2022,-6.14643 1.1699,-2.3485 1.163,-4.97725 -0.021,-7.88625 -1.3074,-3.21295 -3.5831,-5.32334 -6.8272,-6.33117 -3.2442,-1.00787 -8.014,-0.23091 -14.3095,2.33096 l -33.2148,13.51568 -10.7861,-26.50671 69.1649,-28.14443"
       style="font-size:144px;font-style:normal;font-variant:normal;font-weight:normal;font-stretch:normal;text-align:center;line-height:125%;letter-spacing:0px;word-spacing:0px;writing-mode:lr-tb;text-anchor:middle;fill:none;stroke:#000000;stroke-opacity:1;font-family:Arial Black;-inkscape-font-specification:'Arial Black,'"
       id="path3842"
       inkscape:connector-curvature="0" />
    <path
       inkscape:transform-center-y="-122.27242"
       inkscape:transform-center-x="-538.03299"
       d="m 1265.2832,547.10081 -27.672,6.4171 3.558,15.34285 -20.3429,4.71756 -3.5581,-15.34285 -25.8225,5.98825 c -3.105,0.72007 -5.0912,1.49338 -5.9581,2.31999 -1.3407,1.27327 -1.7463,3.0515 -1.2169,5.33473 0.4765,2.05477 1.7372,4.79389 3.7823,8.21737 l -18.7706,6.51822 c -3.1058,-6.54573 -5.3524,-12.80955 -6.7395,-18.79135 -1.6096,-6.94084 -1.9053,-12.26164 -0.8868,-15.96234 1.0184,-3.70077 3.146,-6.7685 6.3828,-9.20326 3.293,-2.39973 9.0035,-4.54201 17.1317,-6.42689 l 25.617,-5.94063 -2.3826,-10.27421 20.343,-4.71755 2.3825,10.2742 13.3566,-3.09734 20.7961,24.62615"
       style="font-size:144px;font-style:normal;font-variant:normal;font-weight:normal;font-stretch:normal;text-align:center;line-height:125%;letter-spacing:0px;word-spacing:0px;writing-mode:lr-tb;text-anchor:middle;fill:none;stroke:#000000;stroke-opacity:1;font-family:Arial Black;-inkscape-font-specification:'Arial Black,'"
       id="path3844"
       inkscape:connector-curvature="0" />
    <path
       inkscape:transform-center-y="-36.908413"
       inkscape:transform-center-x="-536.22133"
       d="m 1207.2821,679.76088 -3.9301,-57.24021 c -4.5477,0.82905 -7.8764,2.3027 -9.9862,4.42101 -3.0374,2.98064 -4.4036,6.69229 -4.0985,11.13503 0.1927,2.80585 1.0772,5.42328 2.6536,7.85231 0.9944,1.48217 2.675,3.03473 5.0417,4.65775 l -0.6644,28.30728 c -7.7778,-3.78868 -13.5122,-8.61034 -17.2031,-14.46493 -3.6443,-5.85795 -5.8565,-14.46882 -6.6367,-25.83261 -0.6776,-9.86746 0.169,-17.72513 2.5395,-23.57311 2.4175,-5.85121 6.514,-10.8545 12.2897,-15.00993 5.8258,-4.11186 12.8306,-6.44875 21.0145,-7.01064 11.6445,-0.79952 21.3228,2.27124 29.0353,9.21239 7.7154,6.98787 12.0242,17.05227 12.9267,30.19324 0.732,10.66235 -0.3034,19.19079 -3.1063,25.58538 -2.8029,6.39448 -7.1568,11.4154 -13.0614,15.06289 -5.9046,3.64735 -13.7673,5.80819 -23.5878,6.48259 l -3.2269,0.22155 m 11.6848,-29.98019 c 5.4797,-0.94013 9.3285,-2.70795 11.5466,-5.30341 2.2213,-2.54881 3.197,-5.78735 2.9273,-9.71552 -0.3114,-4.53625 -2.3608,-8.0369 -6.1479,-10.50201 -2.3635,-1.57618 -5.7827,-2.44559 -10.2573,-2.60813 l 1.9313,28.12907"
       style="font-size:144px;font-style:normal;font-variant:normal;font-weight:normal;font-stretch:normal;text-align:center;line-height:125%;letter-spacing:0px;word-spacing:0px;writing-mode:lr-tb;text-anchor:middle;fill:none;stroke:#000000;stroke-opacity:1;font-family:Arial Black;-inkscape-font-specification:'Arial Black,'"
       id="path3846"
       inkscape:connector-curvature="0" />
    <path
       inkscape:transform-center-y="59.674488"
       inkscape:transform-center-x="-533.94786"
       d="m 1197.1844,692.66832 -0.6339,28.52457 c -3.488,0.7734 -6.0758,2.12357 -7.7631,4.05067 -1.6876,1.92694 -2.7347,4.63647 -3.1416,8.12852 -0.4449,3.81786 0.025,6.86935 1.411,9.15451 1.0206,1.77056 2.4388,2.76168 4.2547,2.97332 2.0487,0.23865 3.7564,-0.64779 5.1234,-2.65929 0.9706,-1.44431 2.4227,-5.40452 4.3574,-11.88023 2.8728,-9.67003 5.2561,-16.35316 7.1497,-20.04942 1.9347,-3.64437 4.8027,-6.59005 8.604,-8.83706 3.7958,-2.20048 7.9285,-3.04036 12.3984,-2.51953 4.8887,0.56961 8.9369,2.48065 12.1446,5.73314 3.2076,3.25245 5.3825,7.46999 6.5248,12.65267 1.1888,5.18805 1.2948,11.97246 0.3185,20.35333 -1.0309,8.84632 -2.4655,15.28604 -4.304,19.31919 -1.8443,4.07938 -4.3486,7.35073 -7.5143,9.81348 -3.1711,2.50914 -7.2863,4.41286 -12.3454,5.71113 l 0.4871,-27.26748 c 2.4559,-0.42176 4.3375,-1.38232 5.6449,-2.88168 1.7502,-2.06134 2.8098,-4.67501 3.1788,-7.84104 0.3743,-3.21267 0.066,-5.63177 -0.9241,-7.25728 -0.9493,-1.57358 -2.2387,-2.45533 -3.8683,-2.64514 -1.8159,-0.21161 -3.2979,0.55955 -4.446,2.31347 -1.1483,1.75388 -2.4585,5.70689 -3.9302,11.85922 -2.1723,9.32684 -4.4813,16.18381 -6.9274,20.57087 -2.446,4.38693 -5.5793,7.58487 -9.4,9.59377 -3.8261,2.05527 -7.8576,2.83614 -12.0945,2.34255 -4.2836,-0.4992 -8.2987,-2.28841 -12.0457,-5.36767 -3.7523,-3.03284 -6.5137,-7.48391 -8.2837,-13.35313 -1.7289,-5.81735 -2.0347,-13.52171 -0.9172,-23.11303 1.5788,-13.54898 4.6367,-22.98503 9.1738,-28.30818 4.5318,-5.2766 10.4545,-8.3147 17.768,-9.11425"
       style="font-size:144px;font-style:normal;font-variant:normal;font-weight:normal;font-stretch:normal;text-align:center;line-height:125%;letter-spacing:0px;word-spacing:0px;writing-mode:lr-tb;text-anchor:middle;fill:none;stroke:#000000;stroke-opacity:1;font-family:Arial Black;-inkscape-font-specification:'Arial Black,'"
       id="path3848"
       inkscape:connector-curvature="0" />
    <path
       inkscape:transform-center-y="148.22075"
       inkscape:transform-center-x="-527.1328"
       d="m 1253.8913,843.06698 -27.3905,-7.52836 -4.1741,15.1868 -20.1361,-5.53447 4.1741,-15.18682 -25.5599,-7.02525 c -3.0735,-0.84481 -5.1882,-1.11006 -6.3441,-0.79574 -1.7852,0.48154 -2.9883,1.85234 -3.6095,4.11231 -0.559,2.03391 -0.7541,5.04292 -0.5852,9.0271 l -19.6104,-3.20241 c 0.3844,-7.23503 1.3902,-13.81303 3.0176,-19.73404 1.8883,-6.87026 4.161,-11.69027 6.8183,-14.46005 2.6572,-2.76983 5.9885,-4.45502 9.9941,-5.05552 4.0383,-0.54296 10.0801,0.29128 18.1256,2.50259 l 25.3565,6.96935 2.7952,-10.16973 20.136,5.53444 -2.7951,10.16976 13.2206,3.63373 6.5669,31.55631"
       style="font-size:144px;font-style:normal;font-variant:normal;font-weight:normal;font-stretch:normal;text-align:center;line-height:125%;letter-spacing:0px;word-spacing:0px;writing-mode:lr-tb;text-anchor:middle;fill:none;stroke:#000000;stroke-opacity:1;font-family:Arial Black;-inkscape-font-specification:'Arial Black,'"
       id="path3850"
       inkscape:connector-curvature="0" />
    <path
       inkscape:transform-center-y="-212.8372"
       inkscape:transform-center-x="-173.82992"
       inkscape:connector-curvature="0"
       id="path3553"
       d="m 1084.5006,209.63986 -1.446,1.40955 c -8.6012,8.2757 -17.2155,16.5422 -25.8179,24.81669 0.9623,-5.52157 -1.0761,-11.64326 -5.2468,-15.52568 -5.0208,-7.19025 -13.4901,-10.77436 -21.1077,-14.2227 -6.2712,-8.75641 -17.4061,-12.11231 -24.4424,-20.11311 -1.2353,-0.93115 -2.6078,-1.64367 -4.0594,-2.17768 -7.89772,-2.47908 -12.24704,6.21663 -15.85234,11.52941 -3.12064,4.0581 -6.2287,8.14988 -9.32835,12.2367 3.55092,-15.73519 0.59194,-33.04301 -11.29072,-44.43128 -6.9991,-7.26856 -15.82506,-12.40564 -25.00532,-16.53372 -1.31147,-0.58971 -2.63291,-1.16952 -3.95441,-1.72082 -19.65171,-8.31045 -43.23255,-0.97627 -56.77538,14.83827 1.44365,-6.90248 2.29845,-13.90462 2.03856,-21.07904 -2.15302,-11.50696 -10.36724,-21.62363 -21.25993,-26.05141 -8.04356,-3.64681 -16.99167,-3.91946 -25.65509,-3.28311 -8.18108,-9.508348 -22.30433,-6.86118 -32.55496,-12.772934 -4.63778,-2.746916 -12.07599,-1.109902 -12.32098,5.267294 -2.81091,9.07548 -5.54498,18.1558 -8.26064,27.24104 -0.123,-0.0492 -0.32365,-0.14802 -0.48558,-0.2155 0.0537,-0.22351 -0.49347,-0.37822 -0.72674,-0.2884 -0.0593,-0.0263 -0.0601,-0.0146 -0.0126,0.0285 -0.19948,0.12345 -0.0723,0.59617 -0.30424,0.68552 -0.48474,0.18672 -0.94342,-0.82058 -1.42817,-0.63384 -0.24237,0.0933 -0.0745,0.62072 -0.31691,0.71408 -0.0452,0.0174 -0.0931,0.0109 -0.13961,0.006 0.0555,-7.19324 -0.55549,-14.35945 -2.40062,-21.47648 -3.24836,-7.73808 -9.26762,-14.423586 -16.96895,-17.924556 -0.51345,-0.233343 -1.02702,-0.451422 -1.55508,-0.656024 -10.31556,-4.512066 -22.34492,-3.68285 -32.62787,-0.66807 -8.22358,-6.708479 -19.52956,-3.286114 -29.13373,-5.305612 -5.25018,-0.317755 -11.18601,-3.024135 -16.03922,0.163973 -1.13501,11.2491 -2.26212,22.497339 -3.3867,33.746199 -0.17597,-0.09 -0.33544,-0.27838 -0.53004,-0.26938 -0.9276,0.0427 -1.81219,0.92006 -2.73132,1.14689 -1.54564,-8.52549 -4.49675,-16.56036 -10.69567,-23.277497 -2.1617,-3.869372 -9.39989,-4.128329 -7.89943,-9.62574 -0.42344,-9.696885 -2.03014,-19.328 -2.77584,-29.027914 l -2.0052,0.204132 c -23.26166,2.213067 -46.63232,4.169743 -69.89673,6.655825 0.96774,10.941001 2.2431,21.954581 2.99365,32.851212 -6.17282,4.771572 -11.41665,12.180282 -13.06831,20.047322 -0.004,-7.1e-4 -0.0255,-0.0124 -0.0285,-0.0126 -0.36693,0.0169 -0.66407,0.38029 -1.03099,0.39717 -0.25946,0.012 -0.45463,-0.32885 -0.71409,-0.31692 -1.0443,0.048 -2.00745,1.1276 -3.05175,1.17562 -0.25947,0.012 -0.45464,-0.32885 -0.71409,-0.31693 -0.73386,0.0337 -1.33799,0.66983 -2.06201,0.79434 -0.37313,0.0642 -0.75991,0.0868 -1.1422,0.10848 -0.0699,-0.097 -0.16576,-0.14314 -0.30154,-0.16796 -0.003,-0.007 -0.0262,-0.007 -0.0285,-0.0126 -5.84173,-17.39614 -11.67983,-34.793497 -17.52335,-52.189037 l -0.96441,0.324154 -0.92316,0.308265 c -19.29778,6.427522 -38.60207,13.042291 -57.87086,19.309552 0.7198,9.153175 1.41473,18.308336 2.10237,27.464006 -5.01956,-7.70605 -10.04342,-15.409315 -15.08063,-23.103832 -19.87295,6.89867 -39.8589,13.533252 -59.81538,20.224402 13.47584,40.11624 26.9638,80.22844 40.43964,120.3447 15.82421,-5.29041 31.63112,-10.63314 47.46536,-15.89312 -0.15218,-1.36405 4.138,-0.23238 5.53597,-1.61162 10.77747,-4.55673 22.27837,-7.40412 33.3481,-11.35465 -0.83117,-2.79689 3.63808,-0.0759 5.33923,-1.63054 13.25858,-5.34206 27.29981,-9.1618 40.86342,-14.03661 -0.58928,-1.75423 -1.17762,-3.50878 -1.76695,-5.263 2.13574,1.72015 4.51736,3.16924 7.14774,4.23211 15.10642,6.74049 32.90479,3.18602 47.00524,-3.99428 9.25323,5.85251 20.47634,-0.34906 30.56843,0.30111 2.71268,-0.25191 5.42307,-0.51493 8.13506,-0.76583 15.68616,1.58716 31.36795,3.1932 47.06694,4.64883 0.35647,-3.6019 0.94184,-4.34163 3.04518,-1.62299 7.65781,5.15504 17.51129,2.56693 26.17614,4.57422 5.52921,0.53427 11.06437,1.06738 16.59541,1.5872 15.49441,4.31623 30.81845,9.31772 46.26901,13.76516 1.0705,-1.49187 1.72571,-6.45878 2.78441,-2.73022 5.63013,8.64395 17.6621,7.46981 26.18295,11.41512 6.83562,2.08061 13.69746,4.03813 20.54182,6.17638 1.0844,-6.43587 2.7944,-12.76197 4.73347,-19.06246 1.71972,15.10802 10.14717,29.44218 23.91495,36.63181 15.96649,11.21154 37.92746,17.35841 56.35693,9.83169 -3.36985,4.45841 -6.73697,8.91838 -10.13053,13.35082 13.87834,10.29723 27.68236,20.69398 41.4046,31.19679 13.75966,-11.86254 19.64264,-30.68868 35.03004,-40.7974 3.7445,4.83031 10.0744,9.75101 16.3696,6.41021 4.094,-1.60397 7.9639,-3.82056 11.7779,-6.12369 -16.7412,16.08796 -33.5009,32.15003 -50.30398,48.1731 11.95288,12.37665 23.92868,24.73258 35.75048,37.23475 3.9224,-1.62119 7.2859,-4.28153 10.213,-7.29687 -1.4223,4.40183 -2.9184,8.78617 -4.7589,13.03386 12.8547,13.24697 25.6712,26.53815 38.3917,39.91132 3.8756,26.61141 26.3916,51.12816 54.1898,51.84596 0.047,5e-4 0.093,-0.007 0.1396,-0.006 -6.3286,2.58078 -12.6593,5.17448 -18.9764,7.78379 6.5148,15.96785 12.9944,31.95012 19.4408,47.9458 3.5782,-1.13064 5.4724,-1.99416 3.2151,1.76879 -2.0557,8.88223 5.6313,16.10422 7.4979,24.31993 2.9131,7.24743 5.8955,14.46115 8.8735,21.68244 2.7906,-1.50403 5.6361,-2.87822 8.5236,-4.18327 l -0.6085,1.37103 -0.3169,0.71408 c -0.1051,0.23741 -0.4105,0.47163 -0.3169,0.71409 0.093,0.2423 0.6206,0.0745 0.714,0.3169 0.093,0.24234 -0.4104,0.4717 -0.3169,0.71408 0.094,0.24236 0.6207,0.0746 0.714,0.3169 0.094,0.24244 -0.4102,0.47173 -0.3169,0.71409 0.1323,0.34293 1.2961,0.29096 1.4283,0.63386 0.093,0.24231 -0.4105,0.47162 -0.3169,0.71409 -1.1112,1.28025 -2.1339,2.66268 -3.0534,4.18355 -8.347,15.773 -1.233,33.9676 5.1724,48.8957 0.7489,5.34055 6.3982,11.58926 12.0267,8.10691 0.3544,-0.12349 0.7051,-0.26102 1.0595,-0.38453 -3.7684,4.4575 -6.7047,9.67071 -8.4351,15.53928 -5.5675,22.75632 -2.7338,50.11993 15.0753,66.79546 1.414,1.22253 2.8814,2.35329 4.3963,3.42127 -12.8389,6.71417 -21.0118,21.43362 -22.6581,35.72366 -3.891,18.70626 -3.4524,41.44612 11.6042,55.20331 2.7662,2.48875 5.9481,4.44817 9.3633,5.86501 -7.9136,-0.99084 -15.7814,-0.36086 -22.9226,3.81019 -15.1442,9.76066 -17.3399,29.61625 -18.9944,46.03377 -2.1228,5.43647 0.5457,13.09198 7.2507,12.85934 10.9889,0.61202 21.853,3.411 32.8047,4.81504 3.1095,-3.57851 4.0096,-8.45958 3.7498,-13.0714 2.3782,1.32393 8.3679,0.7009 8.3912,3.58735 -2.0904,8.28889 3.1845,17.9998 12.2669,18.5045 8.058,2.17139 16.117,4.36234 24.1085,6.76785 4.7797,-3.20073 6.8624,-8.91313 7.8328,-14.33641 11.6084,3.21369 23.2291,6.38156 34.8061,9.7035 -5.2305,-18.97412 -6.2808,-39.35403 -13.6456,-57.61365 -1.6087,-2.33711 -6.1057,-1.58617 -6.9919,-3.58172 0.617,-4.9794 -1.6707,-10.43546 -6.6602,-12.18699 -3.735,-0.85377 -7.4626,-1.81102 -11.167,-2.80213 15.4243,-5.91955 27.1688,-21.12472 27.6734,-38.01083 3.7645,-18.17967 2.3959,-40.99924 -13.9256,-52.74621 -1.9677,-1.37809 -4.1075,-2.4657 -6.3508,-3.33143 -2.3272,-1.11893 -4.7799,-1.80885 -7.2895,-2.14107 13.3861,-5.30136 24.8232,-15.44431 28.3822,-29.90109 8.0395,-26.66398 -0.3636,-61.75241 -28.2621,-73.05824 -0.6313,-0.27138 -1.269,-0.53671 -1.9106,-0.77955 7.5446,-1.71144 15.0758,-3.504 22.6362,-5.16807 2.4048,-5.13887 1.4956,-11.03275 -0.2274,-16.20415 11.6931,-2.6432 23.3713,-5.28097 35.022,-8.11591 -12.2597,-14.65411 -24.562,-29.27203 -36.9756,-43.79582 l -0.7869,-0.0757 c -2.9151,-0.93574 -6.3524,-0.0745 -9.0491,0.36016 -2.7034,-7.33195 -11.9302,-9.83066 -18.5015,-6.22819 -3.123,0.74476 -6.2429,1.5028 -9.3686,2.23554 2.4529,-1.59681 4.8522,-3.32159 7.1618,-5.19793 14.6669,-15.58272 10.0949,-42.63816 -5.7375,-55.09539 2.5272,-10.34466 -6.2083,-18.93194 -8.7628,-28.40282 -2.7095,-4.28686 -1.9999,-11.38002 -7.0228,-13.98903 -6.2506,0.10909 -11.9795,4.9383 -18.0665,6.58078 -5.8909,2.42423 -11.7728,4.8315 -17.6726,7.23421 10.4755,-9.73077 17.1195,-23.41366 15.9333,-38.05855 -1.6746,-23.40471 -17.4052,-45.45515 -39.3478,-54.01146 -2.2056,-0.84993 -4.4552,-1.493 -6.7215,-1.95732 0.1566,-0.0596 0.2904,-0.0944 0.33,-0.12709 0.2004,-0.16522 0.075,-0.62071 0.317,-0.71409 0.2423,-0.0933 0.4716,0.41028 0.714,0.31691 0.2424,-0.0933 0.2116,-0.47667 0.317,-0.71407 0.1092,-0.24629 0.603,-1.28365 0.9412,-2.04391 5.8902,0.20626 11.7805,0.41431 17.6705,0.62841 -16.7406,-16.49318 -32.3056,-34.21347 -49.3408,-50.44609 -2.2716,-0.73731 -7.9027,0.97921 -3.2345,-2.18764 7.1297,-6.8549 14.2701,-13.69854 21.3971,-20.55622 -12.3067,-12.7594 -24.6053,-25.53102 -36.757,-38.43357 z M 782.11334,129.25139 c -0.0388,0.12993 -0.0974,0.25405 -0.13627,0.38397 -0.0275,-0.19688 0.0378,-0.32254 0.13627,-0.38397 z"
       style="font-size:144px;font-style:normal;font-variant:normal;font-weight:normal;font-stretch:normal;text-align:center;line-height:125%;letter-spacing:0px;word-spacing:0px;writing-mode:lr-tb;text-anchor:middle;fill:none;stroke:#000000;stroke-opacity:1;font-family:Arial Black;-inkscape-font-specification:'Arial Black,'" />
    <path
       inkscape:transform-center-y="-208.34963"
       inkscape:transform-center-x="438.07614"
       inkscape:connector-curvature="0"
       id="path3549"
       d="m 363.27332,188.84569 c -0.39032,-0.17361 -0.78234,-0.34392 -1.18375,-0.49123 -16.05431,-6.49029 -34.83228,1.64134 -44.44826,15.18077 -5.71735,-7.53041 -11.44392,-15.05384 -17.15548,-22.58867 -14.03511,10.52682 -27.92158,21.24958 -41.92011,31.82477 11.99918,15.80864 24.01197,31.60695 36.02232,47.4071 -0.53481,-0.23298 -1.063,-0.47833 -1.59955,-0.70989 -21.01276,-9.67304 -46.0233,1.2372 -59.24189,18.70107 -15.45142,16.25196 -21.45234,43.39702 -8.02301,62.52737 0.81261,1.3821 1.70939,2.71521 2.66107,4.01873 -8.61727,-4.53293 -17.73585,-7.48677 -27.7696,-5.76007 -17.97728,3.17751 -27.99697,20.85427 -36.61631,35.20432 -9.02548,15.1365 -12.89459,36.32595 -0.60774,50.67245 0.97724,1.25717 2.0139,2.47006 3.11774,3.606 -8.63845,-3.33769 -17.2739,-6.68317 -25.90933,-10.02868 -11.2318,28.99118 -22.3447,58.02827 -33.53328,87.03613 1.05024,0.40659 2.0979,0.81986 3.14822,1.22626 -3.55172,3.40729 -5.35517,8.39623 -5.84075,13.2375 -11.739631,-2.59816 -23.431174,-5.41855 -35.198624,-7.89471 5.891226,18.66071 8.302762,38.57557 15.875695,56.51782 1.97029,1.92907 4.952512,2.27828 7.407207,2.87713 -0.110328,8.93911 8.949092,15.03341 17.281192,14.37068 1.51405,0.4711 3.16211,1.00296 4.83955,1.49825 -10.25308,4.07953 -19.03518,11.14384 -23.712743,21.61405 -10.538127,22.21126 -10.023928,51.54391 7.350811,70.10259 5.608492,5.69985 12.577102,9.73375 20.116632,12.14178 -20.703627,1.71113 -41.399591,3.46739 -62.101536,5.19213 1.563727,17.48753 2.914449,34.99328 4.469948,52.48151 42.205548,-3.56676 84.424038,-6.9798 126.630308,-10.53785 -1.51309,-17.42092 -2.96734,-34.84683 -4.39051,-52.27532 l -0.98993,0.0735 -0.98992,0.0735 c -6.79686,0.51706 -13.5991,1.04547 -20.39493,1.58141 7.06427,-3.73201 13.2061,-9.16996 17.51874,-16.3627 9.33464,-16.07894 10.09864,-35.89929 6.38729,-53.68029 -3.28959,-13.27172 -12.59421,-24.59691 -24.28976,-31.39624 9.59824,1.03094 19.14613,-0.0559 26.78262,-6.57587 12.32762,-10.90127 13.74594,-28.93315 14.57842,-44.40375 -0.008,-0.13158 -0.0212,-0.25829 -0.0319,-0.39025 10.73086,-27.72266 21.23226,-55.52844 32.01546,-83.23094 -0.62202,-0.24192 -1.24405,-0.48374 -1.86607,-0.72567 -0.10738,-0.0411 -0.21967,-0.0693 -0.32685,-0.11091 0.34537,-0.22809 0.69299,-0.45902 1.03083,-0.70495 13.42616,-8.38205 20.32237,-24.35594 23.25929,-39.08094 10.19262,-4.7511 12.18705,-17.36139 18.77352,-25.58399 4.28816,-7.26764 8.5599,-14.55008 12.83256,-21.82722 l -1.7133,0.16272 c 1.00523,-0.40632 2.00498,-0.84329 2.98821,-1.34057 20.45672,-9.79112 37.5624,-29.87024 39.71639,-52.97453 0.0717,-1.69069 0.0411,-3.39449 -0.0535,-5.11794 2.42347,3.188 4.85741,6.36807 7.28065,9.55626 13.76392,-10.44569 27.50093,-20.927 41.31435,-31.30726 -0.21982,-1.43972 -4.67249,-5.74782 -0.7637,-4.13395 10.19856,1.06232 16.04528,-9.26088 24.09136,-13.68504 5.95208,-4.47081 11.86124,-8.98528 17.80585,-13.46594 -18.85102,-19.74204 -30.18811,-46.59795 -53.45275,-61.98078 -0.3924,-0.16869 -0.78078,-0.34614 -1.1711,-0.51975 z"
       style="font-size:144px;font-style:normal;font-variant:normal;font-weight:normal;font-stretch:normal;text-align:center;line-height:125%;letter-spacing:0px;word-spacing:0px;writing-mode:lr-tb;text-anchor:middle;fill:none;stroke:#000000;stroke-opacity:1;font-family:Arial Black;-inkscape-font-specification:'Arial Black,'" />
    <path
       inkscape:transform-center-y="133.58224"
       inkscape:transform-center-x="536.1394"
       inkscape:connector-curvature="0"
       id="path3523"
       d="m 132.98276,750.80325 c -0.50867,-0.23341 -1.02758,-0.44501 -1.55508,-0.65603 -22.48614,-9.39427 -52.933337,1.06353 -60.84715,25.16841 -6.394636,23.83311 6.393441,47.00468 9.847989,70.25362 1.689701,7.10409 3.369783,14.22329 5.065821,21.32593 41.22869,-9.81307 82.46299,-19.60231 123.69167,-29.41539 -4.34543,-18.18019 -8.66029,-36.36763 -12.98724,-54.55217 -12.35637,2.94485 -24.71666,5.87329 -37.07451,8.81191 -3.55995,-15.87823 -10.37253,-33.70084 -26.14148,-40.93633 z"
       style="font-size:144px;font-style:normal;font-variant:normal;font-weight:normal;font-stretch:normal;text-align:center;line-height:125%;letter-spacing:0px;word-spacing:0px;writing-mode:lr-tb;text-anchor:middle;fill:none;stroke:#000000;stroke-opacity:1;font-family:Arial Black;-inkscape-font-specification:'Arial Black,'" />
    <path
       inkscape:connector-curvature="0"
       id="path4015"
       style="font-size:154.8691864px;font-style:normal;font-variant:normal;font-weight:normal;font-stretch:normal;text-align:center;line-height:125%;letter-spacing:0px;word-spacing:0px;writing-mode:lr-tb;text-anchor:middle;fill:none;stroke:#000000;stroke-opacity:1;font-family:Arial Black;-inkscape-font-specification:'Arial Black,'"
       d="m 174.07271,977.78363 25.76718,19.83365 -28.48802,56.22682 51.31894,-38.6533 25.70726,19.7876 -24.17352,59.5478 47.06436,-41.9282 25.64733,19.7414 -86.97427,72.9498 -26.60611,-20.4794 27.17279,-67.1636 -57.91364,43.5016 -26.60611,-20.4794 48.08381,-102.88477" />
    <path
       inkscape:connector-curvature="0"
       id="path4017"
       style="font-size:154.8691864px;font-style:normal;font-variant:normal;font-weight:normal;font-stretch:normal;text-align:center;line-height:125%;letter-spacing:0px;word-spacing:0px;writing-mode:lr-tb;text-anchor:middle;fill:none;stroke:#000000;stroke-opacity:1;font-family:Arial Black;-inkscape-font-specification:'Arial Black,'"
       d="m 287.22413,1127.3635 -24.2959,-16.8709 c 3.44627,-3.9742 6.77882,-6.7457 9.99764,-8.3146 3.28719,-1.5887 7.17588,-2.3873 11.66609,-2.3959 3.22676,-0.012 7.21187,0.7953 11.95535,2.421 4.74335,1.6257 9.63415,3.8211 14.67242,6.5862 8.08753,4.4387 14.32947,8.4683 18.72581,12.0886 4.4204,3.5763 7.47756,7.6982 9.17149,12.3657 1.20653,3.25 1.46617,7.073 0.77894,11.4688 -0.66319,4.3516 -1.90431,8.1847 -3.72334,11.4993 l -17.06354,31.0909 c -1.81923,3.3146 -3.05141,6.0312 -3.69654,8.15 -0.57686,2.0986 -0.95856,4.9945 -1.14508,8.6876 l -25.32356,-13.8983 c -0.0221,-2.3698 0.0669,-4.1037 0.26698,-5.2016 0.22419,-1.1421 0.7395,-2.8145 1.54594,-5.0172 -5.40328,1.4626 -10.25079,1.965 -14.54254,1.5073 -5.8403,-0.675 -11.92034,-2.7468 -18.24014,-6.2153 -8.39701,-4.6085 -13.71591,-10.0579 -15.95671,-16.3483 -2.19663,-6.2661 -1.73048,-12.2498 1.39845,-17.9509 2.93487,-5.3475 6.91717,-8.8838 11.94692,-10.6089 5.02969,-1.725 12.22599,-1.1109 21.58892,1.8424 11.23626,3.5215 18.57533,5.7092 22.01723,6.563 3.46601,0.8097 7.24228,1.4733 11.32881,1.9908 1.81905,-3.3145 2.40743,-6.0107 1.76514,-8.0885 -0.64246,-2.0777 -2.68724,-4.0625 -6.13435,-5.9545 -4.41954,-2.4255 -8.12222,-3.5375 -11.10805,-3.3361 -2.33004,0.159 -4.86216,1.4721 -7.59638,3.9394 m 15.61516,27.0296 c -4.44008,-0.7116 -8.94987,-1.6628 -13.52939,-2.8535 -6.28062,-1.5492 -10.5382,-2.0169 -12.77274,-1.4031 -2.30308,0.6337 -3.96396,1.8787 -4.98264,3.7349 -1.16429,2.1213 -1.39316,4.2672 -0.6866,6.4377 0.77492,2.1505 2.59872,4.014 5.47142,5.5906 3.00519,1.6494 6.18966,2.4482 9.55343,2.3966 3.40785,-0.027 6.21213,-0.7886 8.41287,-2.2836 2.26904,-1.5149 4.3253,-3.9518 6.16877,-7.3106 l 2.36488,-4.309" />
    <path
       inkscape:connector-curvature="0"
       id="path4019"
       style="font-size:154.8691864px;font-style:normal;font-variant:normal;font-weight:normal;font-stretch:normal;text-align:center;line-height:125%;letter-spacing:0px;word-spacing:0px;writing-mode:lr-tb;text-anchor:middle;fill:none;stroke:#000000;stroke-opacity:1;font-family:Arial Black;-inkscape-font-specification:'Arial Black,'"
       d="m 357.45318,1135.6955 26.63044,10.5928 -4.83524,12.1558 c 5.95671,-3.3815 11.39201,-5.3158 16.30594,-5.8027 4.9324,-0.5337 10.32635,0.364 16.18186,2.6931 7.91642,3.149 13.15878,7.9741 15.72708,14.4754 2.63355,6.4731 1.99393,14.6282 -1.91887,24.4653 l -18.86583,47.4289 -28.7384,-11.4313 16.32244,-41.0348 c 1.86322,-4.6843 2.31023,-8.3315 1.34106,-10.9415 -0.9507,-2.6568 -2.99526,-4.6094 -6.13369,-5.8579 -3.46648,-1.3788 -6.7988,-1.1851 -9.99697,0.581 -3.1983,1.7661 -6.1483,6.0453 -8.85002,12.8376 l -14.25418,35.8351 -28.59787,-11.3754 29.68225,-74.6214" />
    <path
       inkscape:connector-curvature="0"
       id="path4021"
       style="font-size:154.8691864px;font-style:normal;font-variant:normal;font-weight:normal;font-stretch:normal;text-align:center;line-height:125%;letter-spacing:0px;word-spacing:0px;writing-mode:lr-tb;text-anchor:middle;fill:none;stroke:#000000;stroke-opacity:1;font-family:Arial Black;-inkscape-font-specification:'Arial Black,'"
       d="m 534.17472,1161.5454 -27.98422,107.2683 -27.87806,-7.2728 2.99695,-11.4878 c -5.17509,3.86 -9.59506,6.2237 -13.25992,7.0911 -4.87813,1.124 -9.95131,0.9988 -15.21956,-0.3756 -10.58539,-2.7615 -17.63306,-8.8984 -21.14303,-18.4106 -3.46122,-9.4996 -3.69017,-20.0054 -0.68685,-31.5176 3.35962,-12.878 9.00341,-21.93 16.9314,-27.1558 7.97671,-5.213 16.72117,-6.5788 26.23342,-4.0973 4.63408,1.209 8.62559,3.0839 11.97453,5.6247 3.39757,2.5537 6.15258,5.7732 8.26503,9.6587 l 9.69713,-37.1708 30.07318,7.8455 m -47.64446,60.4069 c 1.59067,-6.0975 1.48149,-10.9713 -0.32752,-14.6214 -1.79644,-3.6989 -4.67022,-6.0637 -8.62138,-7.0945 -3.46347,-0.9035 -6.74132,-0.2217 -9.83356,2.0455 -3.09234,2.2672 -5.52293,6.7911 -7.29178,13.5715 -1.65441,6.3415 -1.67461,11.3118 -0.0606,14.911 1.67543,3.5631 4.29365,5.8092 7.85467,6.7382 3.80483,0.9926 7.36369,0.332 10.67662,-1.9819 3.3128,-2.3139 5.84731,-6.8367 7.60355,-13.5684" />
    <path
       inkscape:connector-curvature="0"
       id="path4023"
       style="font-size:154.8691864px;font-style:normal;font-variant:normal;font-weight:normal;font-stretch:normal;text-align:center;line-height:125%;letter-spacing:0px;word-spacing:0px;writing-mode:lr-tb;text-anchor:middle;fill:none;stroke:#000000;stroke-opacity:1;font-family:Arial Black;-inkscape-font-specification:'Arial Black,'"
       d="m 617.51622,1252.1171 -61.15793,-8.2037 c -0.10725,4.9704 0.72757,8.7955 2.50445,11.4754 2.48546,3.843 6.10158,6.0829 10.84837,6.7196 2.99788,0.4022 5.94645,0.035 8.84572,-1.1023 1.77615,-0.7282 3.77446,-2.1641 5.99493,-4.3078 l 29.68234,6.8046 c -5.6693,7.3779 -11.98625,12.38 -18.95086,15.0063 -6.95807,2.5763 -16.50788,3.0501 -28.64947,1.4214 -10.54278,-1.4142 -18.63935,-4.0007 -24.28972,-7.7597 -5.64372,-3.8089 -10.03189,-9.2043 -13.16451,-16.186 -3.07599,-7.025 -4.02752,-14.9095 -2.8546,-23.6535 1.66888,-12.4414 6.99166,-21.9766 15.96838,-28.6057 9.02663,-6.6223 20.56012,-8.9918 34.60051,-7.1085 11.39209,1.5282 20.15466,4.4585 26.28774,8.7907 6.1329,4.3324 10.48421,10.0026 13.05393,17.0105 2.56951,7.008 3.15057,15.7584 1.74318,26.2511 l -0.46246,3.4476 M 588.448,1233.34 c 0.19122,-5.9763 -0.84133,-10.4129 -3.09765,-13.3097 -2.20649,-2.89 -5.40826,-4.6165 -9.6053,-5.1796 -4.84673,-0.6501 -8.9771,0.7542 -12.39114,4.2127 -2.17048,2.1505 -3.82389,5.5655 -4.96023,10.2452 l 30.05432,4.0314" />
    <path
       inkscape:connector-curvature="0"
       id="path4025"
       style="font-size:154.8691864px;font-style:normal;font-variant:normal;font-weight:normal;font-stretch:normal;text-align:center;line-height:125%;letter-spacing:0px;word-spacing:0px;writing-mode:lr-tb;text-anchor:middle;fill:none;stroke:#000000;stroke-opacity:1;font-family:Arial Black;-inkscape-font-specification:'Arial Black,'"
       d="m 630.24971,1204.2357 28.7986,0.8492 -0.38784,13.1521 c 2.93939,-5.6124 5.90165,-9.4338 8.8868,-11.4641 3.03693,-2.0791 6.72224,-3.0548 11.05594,-2.927 4.53515,0.1338 9.45707,1.6911 14.76579,4.6719 l -10.17033,21.6394 c -3.58365,-1.6187 -6.43366,-2.4593 -8.55004,-2.5217 -4.03135,-0.1189 -7.20464,1.4519 -9.51988,4.7123 -3.31288,4.5928 -5.15876,13.3141 -5.53764,26.1638 l -0.79349,26.9089 -30.91503,-0.9116 2.36712,-80.2732" />
    <path
       inkscape:connector-curvature="0"
       id="path4027"
       style="font-size:154.8691864px;font-style:normal;font-variant:normal;font-weight:normal;font-stretch:normal;text-align:center;line-height:125%;letter-spacing:0px;word-spacing:0px;writing-mode:lr-tb;text-anchor:middle;fill:none;stroke:#000000;stroke-opacity:1;font-family:Arial Black;-inkscape-font-specification:'Arial Black,'"
       d="m 693.207,1264.4866 30.2716,-5.0212 c 1.51317,3.5319 3.45636,5.9972 5.82956,7.3961 2.37313,1.3989 5.4455,1.965 9.21711,1.6983 4.12353,-0.2915 7.25457,-1.3973 9.39311,-3.3174 1.66756,-1.4319 2.43203,-3.1285 2.29342,-5.0897 -0.15652,-2.2127 -1.43402,-3.8407 -3.83253,-4.884 -1.71999,-0.7376 -6.19482,-1.4825 -13.42451,-2.2348 -10.79256,-1.1068 -18.33087,-2.2921 -22.61494,-3.5559 -4.23738,-1.3176 -7.9226,-3.7608 -11.05566,-7.3298 -3.08279,-3.5724 -4.79486,-7.7724 -5.1362,-12.6001 -0.37336,-5.2801 0.83862,-9.9396 3.63593,-13.9784 2.7973,-4.0387 6.82055,-7.1786 12.06978,-9.4198 5.24563,-2.2913 12.39433,-3.757 21.44613,-4.3971 9.55459,-0.6755 16.6464,-0.4442 21.27546,0.6941 4.67922,1.1348 8.63594,3.1293 11.87017,5.9834 3.28436,2.8507 6.11723,6.8199 8.49861,11.9075 l -28.91384,4.9252 c -0.93571,-2.5113 -2.32624,-4.3082 -4.17159,-5.3907 -2.52763,-1.4385 -5.5012,-2.0368 -8.92072,-1.7951 -3.46988,0.2454 -5.96495,1.0536 -7.48523,2.4245 -1.47361,1.3172 -2.14817,2.8558 -2.02369,4.6158 0.13865,1.9612 1.24929,3.3736 3.33194,4.2371 2.08258,0.8636 6.5216,1.4594 13.31707,1.7875 10.29011,0.4348 17.99731,1.5071 23.12163,3.2168 5.12418,1.7098 9.1289,4.3832 12.01417,8.0201 2.9354,3.6335 4.56492,7.7382 4.88858,12.3144 0.32704,4.6265 -0.76277,9.2268 -3.26944,13.8009 -2.45655,4.5706 -6.60959,8.3767 -12.45913,11.4183 -5.80294,2.9878 -13.884,4.848 -24.24319,5.5804 -14.63372,1.0348 -25.21595,-0.3144 -31.74671,-4.0473 -6.48051,-3.7365 -10.8728,-9.3896 -13.17689,-16.9591" />
    <path
       inkscape:connector-curvature="0"
       id="path4029"
       style="font-size:154.8691864px;font-style:normal;font-variant:normal;font-weight:normal;font-stretch:normal;text-align:center;line-height:125%;letter-spacing:0px;word-spacing:0px;writing-mode:lr-tb;text-anchor:middle;fill:none;stroke:#000000;stroke-opacity:1;font-family:Arial Black;-inkscape-font-specification:'Arial Black,'"
       d="m 847.56494,1236.5784 29.36884,-2.23 c -0.43859,6.2945 -2.04368,11.9909 -4.81529,17.0891 -2.78126,5.0488 -6.76218,9.3261 -11.94278,12.8321 -5.13124,3.4965 -12.02942,6.0735 -20.69456,7.7309 -8.36817,1.6006 -15.49665,2.1686 -21.38546,1.7038 -5.84884,-0.5237 -11.1101,-2.135 -15.78381,-4.834 -4.68322,-2.7484 -8.61355,-6.2568 -11.79101,-10.5251 -3.17747,-4.2683 -5.50969,-10.2894 -6.99665,-18.0633 -1.55326,-8.1205 -1.45964,-15.1446 0.28088,-21.0722 1.27244,-4.3495 3.36812,-8.4202 6.28704,-12.2122 2.90944,-3.8414 6.07419,-6.8848 9.49426,-9.1301 5.42824,-3.5533 12.7473,-6.2108 21.95721,-7.9725 12.87398,-2.4624 23.11844,-2.0352 30.73342,1.2816 7.66436,3.3075 13.70591,9.1324 18.12467,17.4746 l -27.7221,9.2291 c -1.53537,-3.1965 -3.65241,-5.4092 -6.35112,-6.6382 -2.65876,-1.2878 -5.96874,-1.5529 -9.92993,-0.7953 -5.0011,0.9566 -8.71567,3.5406 -11.14372,7.7518 -2.38807,4.1524 -2.88596,9.8679 -1.49368,17.1467 1.24069,6.4865 3.71804,11.1197 7.43207,13.8995 3.71395,2.7799 7.94769,3.7152 12.70122,2.806 3.96119,-0.7577 7.08456,-2.4073 9.37014,-4.9489 2.33498,-2.5511 3.76843,-6.0588 4.30036,-10.5234" />
    <path
       inkscape:connector-curvature="0"
       id="path4031"
       style="font-size:154.8691864px;font-style:normal;font-variant:normal;font-weight:normal;font-stretch:normal;text-align:center;line-height:125%;letter-spacing:0px;word-spacing:0px;writing-mode:lr-tb;text-anchor:middle;fill:none;stroke:#000000;stroke-opacity:1;font-family:Arial Black;-inkscape-font-specification:'Arial Black,'"
       d="m 859.49288,1153.1761 29.29871,-9.4246 12.50438,38.873 c 2.65564,-5.4085 5.66551,-9.6336 9.02964,-12.6752 3.36407,-3.0415 7.73363,-5.4268 13.1087,-7.1559 7.96651,-2.5625 15.00897,-2.1535 21.12739,1.227 6.16629,3.3652 10.86268,10.0628 14.08919,20.0929 l 15.63047,48.5913 -29.44268,9.4709 -13.52326,-42.0404 c -1.54379,-4.7991 -3.51997,-7.8969 -5.92855,-9.2934 -2.42409,-1.4444 -5.24383,-1.6495 -8.45921,-0.6152 -3.55139,1.1424 -5.99862,3.4124 -7.34169,6.81 -1.34313,3.3977 -0.89546,8.5759 1.343,15.5346 l 11.80969,36.7133 -29.29871,9.4246 -33.94707,-105.5329" />
    <path
       inkscape:connector-curvature="0"
       id="path4033"
       style="font-size:154.8691864px;font-style:normal;font-variant:normal;font-weight:normal;font-stretch:normal;text-align:center;line-height:125%;letter-spacing:0px;word-spacing:0px;writing-mode:lr-tb;text-anchor:middle;fill:none;stroke:#000000;stroke-opacity:1;font-family:Arial Black;-inkscape-font-specification:'Arial Black,'"
       d="m 1058.7261,1158.7815 -55.9472,26.0289 c 2.5868,4.2456 5.3505,7.0188 8.291,8.3196 4.1641,1.8992 8.4173,1.8387 12.7596,-0.1815 2.7425,-1.2759 5.0289,-3.1737 6.8592,-5.6933 1.1043,-1.5702 2.0146,-3.8563 2.7308,-6.8585 l 28.6739,-10.2543 c -0.8028,9.2698 -3.4309,16.8867 -7.8843,22.8508 -4.4749,5.9184 -12.2659,11.4614 -23.373,16.6289 -9.6445,4.487 -17.8594,6.6687 -24.6448,6.545 -6.80665,-0.1694 -13.40993,-2.3517 -19.80984,-6.5469 -6.37548,-4.2621 -11.42394,-10.3926 -15.14541,-18.3916 -5.29508,-11.3814 -5.94625,-22.2822 -1.9535,-32.7026 4.03848,-10.4415 12.47976,-18.6501 25.32384,-24.6258 10.42151,-4.8484 19.38271,-7.0992 26.88351,-6.7525 7.5008,0.3469 14.2211,2.7806 20.1608,7.301 5.9396,4.5206 11.1423,11.5802 15.6081,21.1789 l 1.4673,3.1539 m -34.6051,-0.1639 c -3.0579,-5.1383 -6.3175,-8.3202 -9.7788,-9.5456 -3.4157,-1.2465 -7.0433,-0.9767 -10.8828,0.8096 -4.43372,2.0628 -7.1574,5.4706 -8.17104,10.2235 -0.67048,2.9809 -0.22415,6.7488 1.33899,11.3037 l 27.49365,-12.7912" />
    <path
       inkscape:connector-curvature="0"
       id="path4035"
       style="font-size:154.8691864px;font-style:normal;font-variant:normal;font-weight:normal;font-stretch:normal;text-align:center;line-height:125%;letter-spacing:0px;word-spacing:0px;writing-mode:lr-tb;text-anchor:middle;fill:none;stroke:#000000;stroke-opacity:1;font-family:Arial Black;-inkscape-font-specification:'Arial Black,'"
       d="m 1029.7126,1084.015 26.5992,-15.4829 10.5375,18.1031 -26.5992,15.4829 -10.5375,-18.1031 m 15.3688,26.4031 26.5992,-15.4829 40.4001,69.4062 -26.5992,15.483 -40.4001,-69.4063" />
    <path
       inkscape:connector-curvature="0"
       id="path4037"
       style="font-size:154.8691864px;font-style:normal;font-variant:normal;font-weight:normal;font-stretch:normal;text-align:center;line-height:125%;letter-spacing:0px;word-spacing:0px;writing-mode:lr-tb;text-anchor:middle;fill:none;stroke:#000000;stroke-opacity:1;font-family:Arial Black;-inkscape-font-specification:'Arial Black,'"
       d="m 1065.2926,1064.2006 25.3258,-18.0152 22.267,31.303 c 0.6357,-4.4116 2.0676,-8.3997 4.2957,-11.9645 2.2691,-3.5937 5.3345,-6.7641 9.196,-9.511 7.9695,-5.6689 16.6084,-7.4834 25.9166,-5.4435 9.279,1.9991 17.7319,8.3595 25.3588,19.0813 5.0846,7.148 8.3788,14.3013 9.8827,21.4597 1.4746,7.1175 1.0606,13.5368 -1.242,19.2578 -2.2908,5.6509 -6.0037,10.3027 -11.1386,13.9554 -4.3956,3.1267 -9.0936,5.0456 -14.0939,5.7566 -3.8043,0.479 -8.7757,-0.1607 -14.9139,-1.9191 l 6.8817,9.6743 -23.4773,16.7003 -64.2586,-90.3351 m 65.993,39.5462 c 4.0034,5.628 7.9585,8.9703 11.8653,10.027 3.9187,0.9864 7.5007,0.3253 10.7461,-1.9833 2.9988,-2.1331 4.628,-5.1481 4.8877,-9.0448 0.2714,-3.9669 -1.6822,-8.8876 -5.8609,-14.7621 -3.682,-5.176 -7.3914,-8.26 -11.1284,-9.2519 -3.696,-1.021 -6.9612,-0.5234 -9.7957,1.4928 -3.4096,2.4255 -5.2972,5.686 -5.6627,9.7817 -0.3536,4.0255 1.2959,8.6057 4.9486,13.7406" />
    <path
       inkscape:connector-curvature="0"
       id="path4039"
       style="font-size:154.8691864px;font-style:normal;font-variant:normal;font-weight:normal;font-stretch:normal;text-align:center;line-height:125%;letter-spacing:0px;word-spacing:0px;writing-mode:lr-tb;text-anchor:middle;fill:none;stroke:#000000;stroke-opacity:1;font-family:Arial Black;-inkscape-font-specification:'Arial Black,'"
       d="m 1256.9951,1009.5603 -45.5474,41.6296 c 3.7424,3.2727 7.2113,5.0879 10.4067,5.4455 4.5423,0.5611 8.581,-0.774 12.1162,-4.0051 2.2326,-2.0406 3.8436,-4.5374 4.8327,-7.4904 0.5817,-1.8294 0.7634,-4.2834 0.545,-7.362 l 24.2706,-18.3924 c 2.0182,9.083 1.7989,17.1376 -0.6578,24.1638 -2.4908,6.9891 -8.2575,14.616 -17.2999,22.8807 -7.8518,7.1763 -15.0323,11.7244 -21.5416,13.6442 -6.5433,1.8827 -13.4971,1.7843 -20.8615,-0.2952 -7.3612,-2.1507 -14.0178,-6.4821 -19.9697,-12.9942 -8.4688,-9.2657 -12.3636,-19.4678 -11.6847,-30.6063 0.7163,-11.1723 6.3026,-21.5371 16.7592,-31.0943 8.4843,-7.75439 16.3558,-12.59257 23.6146,-14.51452 7.2587,-1.92173 14.3996,-1.61865 21.4227,0.90924 7.0231,2.52811 14.1058,7.69936 21.2481,15.51378 l 2.3468,2.5676 m -33.0569,10.2364 c -4.4598,-3.9828 -8.5246,-6.0388 -12.1941,-6.1682 -3.6324,-0.1631 -7.0115,1.1837 -10.1373,4.0406 -3.6096,3.2991 -5.1841,7.3677 -4.7235,12.2055 0.2557,3.0447 1.813,6.5046 4.6719,10.3798 l 22.383,-20.4577" />
    <path
       style="font-size:154.8691864px;font-style:normal;font-variant:normal;font-weight:normal;font-stretch:normal;text-align:center;line-height:125%;letter-spacing:0px;word-spacing:0px;writing-mode:lr-tb;text-anchor:middle;fill:none;stroke:#000000;stroke-opacity:1;font-family:Arial Black;-inkscape-font-specification:'Arial Black,'"
       d="m 167.75,958.375 c -19.76781,42.1374 -39.47457,84.3037 -59.25,126.4375 14.62568,11.3623 29.23585,22.7594 44.0625,33.8437 8.75534,-6.5972 17.49236,-13.1942 26.25,-19.7812 -4.11376,10.203 -8.30999,20.3724 -12.53125,30.5312 14.64301,11.2809 29.2965,22.5481 44,33.75 5.69497,-4.2466 11.05507,-9.3175 16.46875,-13.6562 -0.90567,17.7855 11.86567,33.4688 27.78125,40.0312 6.98913,3.7035 15.6163,4.1101 22.4375,7.3126 6.23129,9.7685 18.63294,11.3694 27.3125,17.9687 18.87706,9.9861 39.48421,16.2616 59.03125,24.8437 1.25591,-4.9539 2.95714,1.4583 5.40625,2.0626 7.3051,4.2934 16.00494,5.1481 23.45567,9.2612 7.58966,3.0264 15.17997,6.0512 22.70058,9.2388 1.79533,-4.4921 3.07303,-9.3574 4.90625,-13.7188 8.16409,17.6868 28.8225,28.2456 48.09375,24.8438 4.60727,2.2813 9.27582,5.691 14.85031,6.2208 9.50899,1.0189 18.4526,4.7768 27.64969,6.7479 4.03333,0.5034 8.26424,-1.1924 7.87267,-6.0842 1.36935,-2.5187 1.21163,-12.654 4.28358,-5.9783 10.37804,14.0666 27.67463,20.6156 44.61562,22.1054 16.17797,2.1408 33.78847,-0.4565 46.88438,-10.5429 -1.18991,5.3962 -1.32611,14.2176 6.09375,14.7187 8.0051,-0.2033 15.90899,-0.058 23.93278,0.4473 8.96079,0.2598 17.92138,0.5302 26.87972,0.8653 5.50578,-18.7467 -1.36342,-39.0631 5.5,-57.5 3.08988,1.6997 7.96327,0.087 8.9375,4.2812 0.36342,1.7006 4.98914,4.7736 1.46875,4.5938 -5.08126,0.063 -10.80288,3.9543 -8.96875,9.7187 2.42853,24.3284 27.64502,42.1301 51.4359,38.8378 21.44122,0.9339 46.12032,-5.1058 57.97035,-24.3378 20.89405,17.2403 51.92915,15.22 75,3.6875 7.08483,-3.6659 13.52788,-9.0089 18.375,-15.0625 0.88583,4.065 1.62858,11.9806 7.625,11.125 16.98995,-5.5633 34.01148,-11.0289 51.03125,-16.5 -0.81253,-3.0396 -0.1029,-3.185 2.4375,-2.1563 8.89011,0.7898 16.53092,-5.1552 25.08869,-6.7063 8.49575,-2.7324 16.9952,-5.4459 25.50506,-8.1374 -1.92066,-5.2824 -3.87739,-10.5556 -5.6875,-15.875 17.32215,7.7159 37.56025,4.0167 53.59235,-4.957 14.5787,-6.9026 27.7532,-18.8048 33.0326,-34.418 2.0402,4.6998 5.4287,12.506 11.875,9.875 11.0168,-6.7544 22.4875,-13.2124 33.8081,-19.8671 7.5103,-4.2787 15.941,-6.855 22.0982,-13.2266 12.6534,-7.7185 23.6138,-18.5299 37.375,-24.2188 15.7132,-8.6673 25.5509,-26.9166 24.125,-44.875 18.8049,4.4962 38.5949,-3.2715 51.875,-16.5938 16.513,-13.5904 28.4393,-35.2732 23.7495,-57.1751 -1.6436,-9.843 -4.9422,-19.3516 -7.4058,-29.0436 -1.6498,1.79846 -2.8087,7.39507 -4.8437,7.40625 -12.8031,-16.18929 -35.0793,-27.60322 -56.0313,-21.96875 -25.6029,7.28565 -48.1996,29.3439 -52.0624,56.4375 0.7831,4.187 -1.096,4.4335 -4.5313,3.25 -15.3215,-2.4498 -31.7472,2.8819 -42.4063,14.1875 -5.6754,-7.9582 -11.3077,-15.947 -16.9374,-23.9375 -16.2777,10.9811 -31.3109,23.7899 -49.0938,32.375 -9.9761,6.7939 -21.6043,11.2279 -30.9688,18.7187 -4.0572,6.0168 4.0336,11.5783 5.8181,16.8075 3.4882,6.3762 8.8688,14.1395 11.0882,19.7238 -22.3343,-4.224 -45.59478,5.2681 -61.875,20.1875 -5.69104,5.6785 -10.00766,12.8356 -13.34375,19.875 -14.11843,-10.0774 -34.41606,-9.1144 -48.59375,0.4062 -2.86798,-9.6363 -6.21551,-19.152 -9.25,-28.75 -18.58718,6.1147 -37.23204,12.0525 -55.8125,18.1876 3.10644,10.5695 7.6505,22.5765 9.9375,32.25 -23.25703,-6.1033 -49.38339,0.3711 -67.53125,15.875 -2.73207,2.6293 -5.24079,5.5686 -7.46875,8.6562 -12.95584,-13.7571 -33.48031,-15.852 -51.2742,-12.9439 -9.20951,1.0235 -18.3524,3.6156 -26.6633,7.6314 -10.36252,-6.6376 -23.82311,-7.2364 -35.1875,-3.4063 -11.66398,-3.7763 -24.11564,-0.04 -36,-2.4062 -5.03034,-0.2676 -11.77428,2.0947 -11.625,8.0625 -19.37499,-16.244 -48.16317,-20.1739 -71.71875,-11.4375 -5.43218,3.0815 0.71343,-7.4119 0.4575,-10.4575 2.12757,-8.1916 4.26465,-16.3807 6.38625,-24.5737 -19.01613,-4.9259 -38.03138,-9.8556 -57.03125,-14.8438 -2.86066,9.3593 -5.02323,18.9851 -7.5625,28.4688 -14.17959,-6.7967 -31.75765,-5.896 -45.3125,2 -6.21483,-18.8466 -27.01118,-30.2325 -46.21875,-28.5313 -6.00362,-9.5674 -18.75445,-8.6162 -27.71875,-13.6875 -5.59693,-2.3813 -12.76868,-7.5377 -18.8125,-4.0625 -2.96178,-3.2937 -6.50152,-8.3067 -10.5625,-11.4375 -11.25118,-9.6139 -25.14229,-15.2927 -38.6875,-21 5.46158,-4.4959 11.13688,-8.7239 16.28125,-13.5938 2.8415,-2.7908 1.29148,-6.0267 -2.32178,-7.4765 -14.19238,-10.9995 -28.38295,-22.0013 -42.67822,-32.8672 -2.70433,1.7232 -11.13406,11.3533 -10.10008,7.7812 0.80132,-4.9719 8.41367,-11.7557 1.31706,-14.6118 -13.01544,-10.0337 -26.02595,-20.0751 -39.18573,-29.9194 -3.16486,2.09292 -11.51392,9.2317 -11.13964,7.8591 1.18041,-4.9941 9.76868,-11.63291 2.36674,-14.70273 -14.92848,-11.67915 -29.99578,-23.20421 -45.07085,-34.71887 -0.35417,0.75 -0.70833,1.5 -1.0625,2.25 z m 662,265.625 c 3.49459,1.5663 1.82021,5.7515 4.09375,8.0938 1.71848,3.3565 -2.71301,8.9582 -5.1875,4.2812 -2.04525,-3.0378 -3.51353,-11.0931 1.09375,-12.375 z"
       id="text3994"
       inkscape:connector-curvature="0" />
    <path
       sodipodi:type="arc"
       style="opacity:0.83965017;fill:none;stroke:#000000;stroke-width:0.99921262;stroke-miterlimit:4;stroke-opacity:1;stroke-dasharray:none"
       id="path4054"
       sodipodi:cx="673.22833"
       sodipodi:cy="673.22833"
       sodipodi:rx="448.81891"
       sodipodi:ry="448.81891"
       d="m 448.37666,284.79541 a 448.81891,448.81891 0 1 1 -0.64504,0.37411"
       sodipodi:start="4.1876521"
       sodipodi:end="10.469176"
       sodipodi:open="true" />
  </g>
  <g
     style="display:inline"
     inkscape:label="Text"
     id="layer5"
     inkscape:groupmode="layer">
    <path
       inkscape:connector-curvature="0"
       id="path3893"
       d="m 615.56757,673.22834 140.25591,0"
       style="fill:none;stroke:#000000;stroke-width:1px;stroke-linecap:butt;stroke-linejoin:miter;stroke-opacity:1" />
    <path
       inkscape:connector-curvature="0"
       id="path3895"
       d="m 673.22833,604.65878 0,140.2559"
       style="fill:none;stroke:#000000;stroke-width:1px;stroke-linecap:butt;stroke-linejoin:miter;stroke-opacity:1" />
  </g>
</svg>
