<?xml version="1.0" encoding="UTF-8" standalone="no"?>
<!-- Created with Inkscape (http://www.inkscape.org/) -->

<svg
   xmlns:dc="http://purl.org/dc/elements/1.1/"
   xmlns:cc="http://creativecommons.org/ns#"
   xmlns:rdf="http://www.w3.org/1999/02/22-rdf-syntax-ns#"
   xmlns:svg="http://www.w3.org/2000/svg"
   xmlns="http://www.w3.org/2000/svg"
   xmlns:sodipodi="http://sodipodi.sourceforge.net/DTD/sodipodi-0.dtd"
   xmlns:inkscape="http://www.inkscape.org/namespaces/inkscape"
   sodipodi:docname="Scheibe.svg"
   inkscape:version="0.48.3.1 r9886"
   version="1.1"
   id="svg2"
   height="1346.4567"
   width="1346.4567">
  <defs
     id="defs4" />
  <sodipodi:namedview
     id="base"
     pagecolor="#ffffff"
     bordercolor="#666666"
     borderopacity="1.0"
     inkscape:pageopacity="0.0"
     inkscape:pageshadow="2"
     inkscape:zoom="0.45373926"
     inkscape:cx="528.56316"
     inkscape:cy="541.54574"
     inkscape:document-units="mm"
     inkscape:current-layer="layer4"
     showgrid="false"
     units="mm"
     inkscape:snap-center="false"
     inkscape:snap-nodes="true"
     inkscape:snap-global="true"
     inkscape:snap-grids="true"
     inkscape:snap-to-guides="true"
     showguides="true"
     inkscape:guide-bbox="true"
     inkscape:window-width="1406"
     inkscape:window-height="959"
     inkscape:window-x="100"
     inkscape:window-y="49"
     inkscape:window-maximized="0"
     inkscape:snap-object-midpoints="false">
    <sodipodi:guide
       orientation="1,0"
       position="673.22833,1093.996"
       id="guide2991" />
    <sodipodi:guide
       orientation="0,1"
       position="-146.4895,673.22833"
       id="guide2993" />
    <sodipodi:guide
       orientation="0,1"
       position="1128.4014,480.45214"
       id="guide3012" />
  </sodipodi:namedview>
  <metadata
     id="metadata7">
    <rdf:RDF>
      <cc:Work
         rdf:about="">
        <dc:format>image/svg+xml</dc:format>
        <dc:type
           rdf:resource="http://purl.org/dc/dcmitype/StillImage" />
        <dc:title></dc:title>
      </cc:Work>
    </rdf:RDF>
  </metadata>
  <g
     inkscape:groupmode="layer"
     id="layer2"
     inkscape:label="Hilf"
     style="display:inline">
    <path
       sodipodi:type="arc"
       style="opacity:0.83965017;fill:none;stroke:#000000;stroke-width:0.99921262;stroke-miterlimit:4;stroke-opacity:1;stroke-dasharray:none"
       id="path3025"
       sodipodi:cx="673.22833"
       sodipodi:cy="673.22833"
       sodipodi:rx="501.80444"
       sodipodi:ry="501.80444"
       d="m 421.83168,238.93877 a 501.80444,501.80444 0 1 1 -0.72118,0.41827"
       sodipodi:start="4.1876521"
       sodipodi:end="10.469176"
       sodipodi:open="true" />
    <path
       style="opacity:0.83965017;fill:none;stroke:#000000;stroke-width:0.99921262;stroke-miterlimit:4;stroke-opacity:1;stroke-dasharray:none"
       d="M 663.53125,64.09375 C 526.0382,65.663075 390.21893,116.51167 284.6875,204 179.9179,290.07212 106.01147,412.35575 77.75,545.09375 49.624028,673.82938 65.00896,811.76889 121.26797,930.90556 c 53.86186,115.77974 144.87428,213.86764 257.01324,275.35984 125.99318,69.9869 277.40779,93.2552 418.65629,63.5471 155.33108,-31.8892 296.4371,-126.8691 383.627,-259.2813 81.5059,-122.06608 116.582,-274.3227 96.2824,-419.9415 C 1255.0801,427.21876 1163.5205,274.82109 1029.5947,179.08273 924.09538,102.78822 793.86316,61.929661 663.53125,64.09375 z"
       id="path3150"
       inkscape:connector-curvature="0" />
  </g>
  <g
     inkscape:groupmode="layer"
     id="layer4"
     inkscape:label="Rundtext"
     style="display:inline">
    <path
       inkscape:connector-curvature="0"
       id="path3810"
       style="font-size:144px;font-style:normal;font-variant:normal;font-weight:normal;font-stretch:normal;text-align:center;line-height:125%;letter-spacing:0px;word-spacing:0px;writing-mode:lr-tb;text-anchor:middle;fill:none;stroke:#000000;stroke-opacity:1;font-family:Arial Black;-inkscape-font-specification:'Arial Black,'"
       d="M 94.396577,852.39663 82.163874,800.88385 c -2.664123,-11.21916 -1.988876,-20.24438 2.025735,-27.07564 4.003968,-6.87665 10.931424,-11.48468 20.782371,-13.82409 10.12477,-2.40422 18.76316,-1.2276 25.91517,3.52985 7.14131,4.712 12.19566,13.31606 15.16309,25.81224 l 4.02883,16.96567 37.21508,-8.83739 7.39161,31.12656 -100.289183,23.81558 m 35.364683,-41.27984 -1.80322,-7.59353 c -1.41869,-5.97444 -3.44122,-9.92656 -6.06757,-11.85648 -2.67183,-1.91891 -5.6256,-2.49668 -8.86499,-1.72502 -3.14678,0.74735 -5.56568,2.42987 -7.25669,5.04756 -1.69087,2.61785 -1.84861,6.82276 -0.47326,12.61474 l 2.09563,8.82491 22.3701,-5.31218"
       inkscape:transform-center-x="537.51287"
       inkscape:transform-center-y="132.35671" />
    <path
       inkscape:connector-curvature="0"
       id="path3812"
       style="font-size:144px;font-style:normal;font-variant:normal;font-weight:normal;font-stretch:normal;text-align:center;line-height:125%;letter-spacing:0px;word-spacing:0px;writing-mode:lr-tb;text-anchor:middle;fill:none;stroke:#000000;stroke-opacity:1;font-family:Arial Black;-inkscape-font-specification:'Arial Black,'"
       d="m 71.584679,735.80777 -2.344292,-28.59155 102.733373,-8.42336 2.3443,28.59154 -102.733381,8.42337"
       inkscape:transform-center-x="553.36142"
       inkscape:transform-center-y="44.071976" />
    <path
       inkscape:connector-curvature="0"
       id="path3814"
       style="font-size:144px;font-style:normal;font-variant:normal;font-weight:normal;font-stretch:normal;text-align:center;line-height:125%;letter-spacing:0px;word-spacing:0px;writing-mode:lr-tb;text-anchor:middle;fill:none;stroke:#000000;stroke-opacity:1;font-family:Arial Black;-inkscape-font-specification:'Arial Black,'"
       d="m 144.98811,595.68332 -3.59194,57.26245 c 4.61704,-0.22698 8.10997,-1.25251 10.4788,-3.07657 3.40117,-2.55768 5.24114,-6.05873 5.51993,-10.50315 0.17608,-2.80694 -0.35839,-5.51759 -1.60343,-8.13196 -0.79202,-1.59955 -2.25508,-3.35865 -4.38917,-5.27732 l 4.36163,-27.97714 c 7.21532,4.77366 12.26961,10.30406 15.16293,16.59119 2.84652,6.28435 3.91324,15.11062 3.20014,26.47884 -0.6192,9.87126 -2.48645,17.55068 -5.60173,23.03825 -3.16206,5.4847 -7.87798,9.90907 -14.14777,13.27314 -6.31362,3.31437 -13.56394,4.71477 -21.751,4.20121 -11.64893,-0.73071 -20.84241,-5.04127 -27.58045,-12.93171 -6.734983,-7.93719 -9.690202,-18.47881 -8.86565,-31.62489 0.669156,-10.66647 2.811395,-18.98617 6.42672,-24.95911 3.61547,-5.9728 8.58869,-10.38103 14.91971,-13.22471 6.3311,-2.84351 14.40884,-3.95718 24.23325,-3.34101 l 3.22803,0.20249 m -15.50642,28.19392 c -5.55557,0.21518 -9.60264,1.46425 -12.14123,3.74724 -2.53553,2.23633 -3.92659,5.31935 -4.1732,9.24905 -0.2846,4.53799 1.28911,8.27667 4.72115,11.216 2.13705,1.87188 5.41308,3.1811 9.82808,3.92768 l 1.76515,-28.14"
       inkscape:transform-center-x="539.94725"
       inkscape:transform-center-y="-34.737421" />
    <path
       inkscape:connector-curvature="0"
       id="path3816"
       style="font-size:144px;font-style:normal;font-variant:normal;font-weight:normal;font-stretch:normal;text-align:center;line-height:125%;letter-spacing:0px;word-spacing:0px;writing-mode:lr-tb;text-anchor:middle;fill:none;stroke:#000000;stroke-opacity:1;font-family:Arial Black;-inkscape-font-specification:'Arial Black,'"
       d="m 85.799471,528.0408 27.701509,6.2882 3.48653,-15.35925 20.36472,4.62277 -3.48654,15.35925 25.85018,5.86795 c 3.10843,0.70566 5.23293,0.87548 6.37347,0.50946 1.76174,-0.56138 2.90204,-1.98491 3.42085,-4.27056 0.46696,-2.05698 0.52643,-5.07174 0.17844,-9.04426 l 19.73458,2.31668 c -0.0584,7.24501 -0.76723,13.86161 -2.12655,19.84985 -1.57726,6.94826 -3.63081,11.86566 -6.16069,14.75221 -2.52988,2.88661 -5.78203,4.71998 -9.75647,5.50014 -4.00976,0.72409 -10.08301,0.16262 -18.21977,-1.68443 l -25.64447,-5.82125 -2.33473,10.2852 -20.36472,-4.62277 2.33473,-10.2852 -13.370777,-3.03516 -7.980262,-31.22883"
       inkscape:transform-center-x="537.52931"
       inkscape:transform-center-y="-125.13707" />
    <path
       inkscape:connector-curvature="0"
       id="path3818"
       style="font-size:144px;font-style:normal;font-variant:normal;font-weight:normal;font-stretch:normal;text-align:center;line-height:125%;letter-spacing:0px;word-spacing:0px;writing-mode:lr-tb;text-anchor:middle;fill:none;stroke:#000000;stroke-opacity:1;font-family:Arial Black;-inkscape-font-specification:'Arial Black,'"
       d="m 122.61972,498.60677 24.81708,-64.65878 15.62313,5.99642 22.33679,48.94135 14.33596,-37.35112 18.24888,7.00421 -26.65633,69.45076 -17.32986,-6.65149 -21.33552,-46.44826 -11.79126,30.72112 -18.24887,-7.00421"
       inkscape:transform-center-x="504.84001"
       inkscape:transform-center-y="-192.25954" />
    <path
       inkscape:connector-curvature="0"
       id="path3820"
       style="font-size:144px;font-style:normal;font-variant:normal;font-weight:normal;font-stretch:normal;text-align:center;line-height:125%;letter-spacing:0px;word-spacing:0px;writing-mode:lr-tb;text-anchor:middle;fill:none;stroke:#000000;stroke-opacity:1;font-family:Arial Black;-inkscape-font-specification:'Arial Black,'"
       d="m 193.14992,399.3151 -16.54276,21.97171 c -3.5695,-3.34394 -6.02563,-6.53927 -7.3684,-9.58599 -1.35875,-3.11096 -1.96193,-6.75258 -1.80951,-10.92488 0.10434,-2.99849 0.99642,-6.67237 2.67622,-11.02165 1.6799,-4.34914 3.89433,-8.81495 6.64332,-13.39745 4.41294,-7.35589 8.37979,-13.01158 11.90057,-16.9671 3.48064,-3.97945 7.41956,-6.67278 11.81677,-8.08001 3.0628,-1.00497 6.62407,-1.10972 10.68381,-0.31424 4.01955,0.77158 7.53669,2.06158 10.55144,3.87005 l 28.27834,16.96437 c 3.01471,1.80865 5.49482,3.0505 7.44034,3.72556 1.92936,0.61091 4.60637,1.06895 8.03105,1.37411 l -13.81746,23.03269 c -2.20271,-0.0644 -3.81054,-0.20871 -4.82343,-0.43379 -1.05315,-0.24907 -2.58864,-0.78759 -4.60645,-1.61551 1.16597,5.07257 1.4597,9.59448 0.8812,13.56574 -0.83572,5.4023 -2.97773,10.97748 -6.42603,16.72557 -4.58172,7.63738 -9.83489,12.38476 -15.75949,14.24216 -5.9005,1.81723 -11.44342,1.17046 -16.6288,-1.94028 -4.86376,-2.91782 -8.00727,-6.74415 -9.43051,-11.47904 -1.42321,-4.73484 -0.59566,-11.39923 2.48267,-19.99316 3.67314,-10.31422 5.96781,-17.05507 6.88402,-20.22256 0.87604,-3.19147 1.62745,-6.67642 2.25422,-10.45487 -3.01472,-1.80849 -5.4988,-2.45147 -7.45229,-1.92885 -1.95341,0.52274 -3.87058,2.35175 -5.75152,5.487 -2.41139,4.01974 -3.57681,7.42031 -3.49626,10.20174 0.0645,2.17059 1.19413,4.57013 3.38894,7.19868 m 25.6716,-13.54344 c -0.81969,4.10001 -1.86448,8.25623 -3.13436,12.46869 -1.66367,5.78021 -2.25024,9.71935 -1.75974,11.81745 0.50662,2.1625 1.60405,3.75012 3.2923,4.76287 1.92944,1.15753 3.91509,1.4468 5.95697,0.86781 2.02576,-0.64322 3.82238,-2.27123 5.3898,-4.88406 1.63976,-2.73332 2.49572,-5.66359 2.56786,-8.79081 0.0963,-3.16732 -0.51089,-5.80004 -1.82137,-7.8982 -1.3266,-2.16232 -3.51735,-4.15987 -6.57229,-5.99262 l -3.91917,-2.35113"
       inkscape:transform-center-x="458.712"
       inkscape:transform-center-y="-276.26838" />
    <path
       inkscape:connector-curvature="0"
       id="path3822"
       style="font-size:144px;font-style:normal;font-variant:normal;font-weight:normal;font-stretch:normal;text-align:center;line-height:125%;letter-spacing:0px;word-spacing:0px;writing-mode:lr-tb;text-anchor:middle;fill:none;stroke:#000000;stroke-opacity:1;font-family:Arial Black;-inkscape-font-specification:'Arial Black,'"
       d="m 289.47612,305.02062 20.45561,-18.2092 c 3.22509,4.90097 5.25046,10.0175 6.07615,15.3496 0.79067,5.30097 0.25941,10.70808 -1.5938,16.22135 -1.82201,5.47845 -5.46889,11.27342 -10.94063,17.3849 -5.28421,5.90204 -10.23421,10.34153 -14.85001,13.31853 -4.61949,2.91085 -9.41785,4.68629 -14.39512,5.32634 -5.01219,0.6088 -9.89627,0.23121 -14.65226,-1.13274 -4.75598,-1.36391 -9.87543,-4.50036 -15.35837,-9.40936 -5.72734,-5.12781 -9.61885,-10.37364 -11.67453,-15.7375 -1.51185,-3.93319 -2.25788,-8.12449 -2.23809,-12.57392 -0.0151,-4.48058 0.60861,-8.51516 1.87101,-12.10374 2.00961,-5.68786 5.92227,-11.77968 11.73796,-18.27545 8.12952,-9.07989 15.94436,-14.54073 23.44455,-16.38251 7.53146,-1.87648 15.28265,-0.97675 23.2536,2.69923 l -15.29147,22.45525 c -2.93758,-1.49748 -5.75048,-1.93965 -8.43868,-1.32651 -2.69186,0.5471 -5.2885,2.21754 -7.7899,5.01131 -3.15798,3.52729 -4.4472,7.53224 -3.86768,12.01484 0.5759,4.41653 3.43069,8.92291 8.56437,13.51916 4.57492,4.09606 9.01904,6.12454 13.33239,6.08545 4.31333,-0.039 7.97083,-1.73485 10.97251,-5.0875 2.50137,-2.79379 3.88034,-5.77462 4.13696,-8.94248 0.28783,-3.20266 -0.63036,-6.60435 -2.75457,-10.20505"
       inkscape:transform-center-x="401.80702"
       inkscape:transform-center-y="-361.95852" />
    <path
       inkscape:connector-curvature="0"
       id="path3824"
       style="font-size:144px;font-style:normal;font-variant:normal;font-weight:normal;font-stretch:normal;text-align:center;line-height:125%;letter-spacing:0px;word-spacing:0px;writing-mode:lr-tb;text-anchor:middle;fill:none;stroke:#000000;stroke-opacity:1;font-family:Arial Black;-inkscape-font-specification:'Arial Black,'"
       d="m 275.38267,215.09325 22.77558,-17.32675 22.98881,30.21821 c 0.65566,-5.56391 1.988,-10.1997 3.99701,-13.90739 2.00903,-3.70751 5.10269,-7.15067 9.28101,-10.32945 6.19285,-4.71119 12.49459,-6.53097 18.90523,-5.45934 6.44789,1.04345 12.63769,5.46365 18.5694,13.2606 l 28.73601,37.77276 -22.88749,17.41191 -24.86197,-32.68045 c -2.83815,-3.73057 -5.52919,-5.83562 -8.07314,-6.31515 -2.57237,-0.51669 -5.10831,0.1757 -7.60783,2.07717 -2.76068,2.10028 -4.20439,4.84773 -4.33113,8.24237 -0.12679,3.39475 1.86751,7.79681 5.9828,13.20619 l 21.71166,28.53942 -22.77558,17.32676 -62.41037,-82.03686"
       inkscape:transform-center-x="337.13145"
       inkscape:transform-center-y="-425.78003" />
    <path
       inkscape:connector-curvature="0"
       id="path3826"
       style="font-size:144px;font-style:normal;font-variant:normal;font-weight:normal;font-stretch:normal;text-align:center;line-height:125%;letter-spacing:0px;word-spacing:0px;writing-mode:lr-tb;text-anchor:middle;fill:none;stroke:#000000;stroke-opacity:1;font-family:Arial Black;-inkscape-font-specification:'Arial Black,'"
       d="m 426.00678,117.46867 39.72161,-13.35395 35.3149,54.29577 -4.72393,-64.580088 39.58832,-13.309125 32.84709,97.704493 -24.65938,8.2902 -25.04983,-74.51134 5.92213,80.94184 -22.32673,7.50599 -44.11088,-68.10325 25.04984,74.51135 -24.72604,8.3126 -32.8471,-97.70449"
       inkscape:transform-center-x="177.75987"
       inkscape:transform-center-y="-525.38112" />
    <path
       inkscape:connector-curvature="0"
       id="path3828"
       style="font-size:144px;font-style:normal;font-variant:normal;font-weight:normal;font-stretch:normal;text-align:center;line-height:125%;letter-spacing:0px;word-spacing:0px;writing-mode:lr-tb;text-anchor:middle;fill:none;stroke:#000000;stroke-opacity:1;font-family:Arial Black;-inkscape-font-specification:'Arial Black,'"
       d="m 608.77481,123.7197 -27.50135,-0.30771 c 0.57877,-4.85677 1.69752,-8.72861 3.35624,-11.61551 1.701,-2.93784 4.27715,-5.58143 7.72851,-7.9308 2.4773,-1.69258 5.96541,-3.15078 10.46431,-4.374581 4.49887,-1.223665 9.40843,-2.085843 14.72871,-2.586553 8.54036,-0.803556 15.44677,-0.959079 20.71929,-0.466568 5.268,0.446003 9.77151,2.023218 13.51051,4.731642 2.62432,1.87181 4.81879,4.67856 6.58344,8.42026 1.76008,3.69516 2.80484,7.2928 3.13428,10.7929 l 3.0894,32.83154 c 0.32927,3.50018 0.79839,6.23386 1.40732,8.20109 0.65104,1.9162 1.86824,4.34408 3.65157,7.28369 l -26.74125,2.51631 c -1.25349,-1.81241 -2.08967,-3.19327 -2.50851,-4.14258 -0.42335,-0.99597 -0.89935,-2.55197 -1.42798,-4.668 -3.39542,3.94483 -6.86405,6.86074 -10.40592,8.74772 -4.84705,2.52771 -10.60737,4.10555 -17.28098,4.73354 -8.8671,0.83437 -15.80396,-0.58448 -20.81062,-4.25659 -4.95999,-3.67648 -7.72325,-8.52486 -8.28975,-14.54515 -0.53136,-5.64692 0.68843,-10.44635 3.65939,-14.39835 2.97094,-3.95192 8.82985,-7.234 17.57673,-9.84623 10.48512,-3.15236 17.27491,-5.29789 20.36939,-6.43661 3.08999,-1.18528 6.34256,-2.64485 9.75771,-4.37871 -0.32943,-3.50011 -1.28334,-5.88215 -2.86178,-7.14614 -1.57852,-1.26387 -4.18784,-1.72456 -7.82796,-1.38209 -4.66693,0.4392 -8.09683,1.51527 -10.2897,3.22818 -1.71033,1.33805 -2.974,3.66981 -3.791,6.9953 m 26.12081,12.65542 c -3.7885,1.76899 -7.75565,3.38995 -11.90145,4.86293 -5.64207,2.08464 -9.16284,3.94612 -10.56235,5.58441 -1.44186,1.6894 -2.07053,3.51414 -1.88607,5.4742 0.21076,2.24012 1.15425,4.01108 2.8305,5.31288 1.71845,1.25077 4.09442,1.73345 7.12794,1.44796 3.17344,-0.2986 6.04111,-1.3453 8.60304,-3.14009 2.60849,-1.79915 4.36957,-3.84814 5.28329,-6.147 0.95591,-2.34985 1.26696,-5.29822 0.93327,-8.84508 l -0.42817,-4.55021 m -41.69681,-62.603363 18.20085,-1.712672 1.6468,17.500817 -18.20085,1.712672 -1.6468,-17.500817 m 29.68138,-2.792974 18.41086,-1.732439 1.6468,17.500816 -18.41086,1.732439 -1.6468,-17.500816"
       inkscape:transform-center-x="49.680406"
       inkscape:transform-center-y="-550.54625" />
    <path
       inkscape:connector-curvature="0"
       id="path3830"
       style="font-size:144px;font-style:normal;font-variant:normal;font-weight:normal;font-stretch:normal;text-align:center;line-height:125%;letter-spacing:0px;word-spacing:0px;writing-mode:lr-tb;text-anchor:middle;fill:none;stroke:#000000;stroke-opacity:1;font-family:Arial Black;-inkscape-font-specification:'Arial Black,'"
       d="m 690.95395,94.755718 26.51856,2.627847 -1.19951,12.104775 c 4.45488,-4.55156 8.81548,-7.67584 13.08178,-9.37286 4.27082,-1.74352 9.32166,-2.32641 15.15254,-1.748678 7.88319,0.781257 13.80709,3.747068 17.77174,8.897428 4.01572,5.10846 5.53828,12.56055 4.56767,22.35626 l -4.6802,47.22962 -28.61764,-2.83586 4.04923,-40.86236 c 0.46217,-4.66461 -0.0749,-8.03871 -1.61124,-10.12228 -1.53185,-2.13014 -3.86039,-3.35009 -6.98565,-3.65983 -3.4519,-0.34201 -6.3801,0.68674 -8.78466,3.08627 -2.40464,2.39962 -3.94206,6.98128 -4.61226,13.74498 l -3.53616,35.6846 -28.47771,-2.82198 7.36351,-74.307932"
       inkscape:transform-center-x="-50.219637"
       inkscape:transform-center-y="-537.42543" />
    <path
       inkscape:connector-curvature="0"
       id="path3832"
       style="font-size:144px;font-style:normal;font-variant:normal;font-weight:normal;font-stretch:normal;text-align:center;line-height:125%;letter-spacing:0px;word-spacing:0px;writing-mode:lr-tb;text-anchor:middle;fill:none;stroke:#000000;stroke-opacity:1;font-family:Arial Black;-inkscape-font-specification:'Arial Black,'"
       d="m 800.72887,108.73236 25.52483,7.65651 -3.49492,11.65119 c 5.24391,-3.61443 10.12202,-5.84602 14.63431,-6.69481 4.52562,-0.89356 9.59463,-0.49863 15.20703,1.18481 7.58777,2.27613 12.83424,6.32127 15.73944,12.13543 2.96337,5.78281 3.03096,13.38853 0.20281,22.8172 l -13.63628,45.45979 -27.54526,-8.26257 11.7979,-39.33114 c 1.34672,-4.48983 1.46558,-7.90432 0.35658,-10.24351 -1.09566,-2.38402 -3.14756,-4.02722 -6.1557,-4.92961 -3.32255,-0.99658 -6.39356,-0.5475 -9.21306,1.34726 -2.81958,1.89483 -5.20577,6.09737 -7.15856,12.60762 l -10.30297,34.34741 -27.41057,-8.22218 21.4544,-71.5234"
       inkscape:transform-center-x="-149.80356"
       inkscape:transform-center-y="-517.39091" />
    <path
       inkscape:connector-curvature="0"
       id="path3834"
       style="font-size:144px;font-style:normal;font-variant:normal;font-weight:normal;font-stretch:normal;text-align:center;line-height:125%;letter-spacing:0px;word-spacing:0px;writing-mode:lr-tb;text-anchor:middle;fill:none;stroke:#000000;stroke-opacity:1;font-family:Arial Black;-inkscape-font-specification:'Arial Black,'"
       d="m 958.52438,221.12757 -50.85489,-26.56449 c -1.66991,4.31046 -2.1532,7.9186 -1.44989,10.82443 0.95379,4.1473 3.40424,7.25183 7.35136,9.31362 2.49284,1.30218 5.18662,1.91602 8.08136,1.84156 1.78339,-0.0732 3.98538,-0.69463 6.60602,-1.86422 l 23.78668,15.36027 c -7.29499,4.65099 -14.40267,7.02 -21.32306,7.107 -6.89882,0.0454 -15.39629,-2.5688 -25.49243,-7.8426 -8.76669,-4.57935 -15.02342,-9.40772 -18.77024,-14.48511 -3.72517,-5.11895 -5.8498,-11.22639 -6.37395,-18.32234 -0.46093,-7.11578 1.20762,-14.30912 5.00567,-21.58006 5.40402,-10.34543 13.08025,-16.992 23.02869,-19.93967 9.9899,-2.92587 20.82238,-1.33957 32.49746,4.75893 9.47289,4.94832 16.20279,10.28827 20.18972,16.01984 3.98675,5.73165 5.99202,12.06761 6.01586,19.00789 0.0236,6.94031 -2.24333,14.77302 -6.80086,23.49813 l -1.4975,2.86682 m -19.45324,-25.63039 c 2.06229,-5.1631 2.56665,-9.36841 1.51308,-12.61593 -1.01218,-3.22579 -3.26324,-5.75022 -6.75322,-7.5733 -4.03022,-2.10516 -8.08576,-2.18754 -12.16662,-0.24714 -2.57908,1.19131 -5.10723,3.65199 -7.58444,7.382 l 24.9912,13.05436"
       inkscape:transform-center-x="-248.27607"
       inkscape:transform-center-y="-477.87866" />
    <path
       inkscape:connector-curvature="0"
       id="path3836"
       style="font-size:144px;font-style:normal;font-variant:normal;font-weight:normal;font-stretch:normal;text-align:center;line-height:125%;letter-spacing:0px;word-spacing:0px;writing-mode:lr-tb;text-anchor:middle;fill:none;stroke:#000000;stroke-opacity:1;font-family:Arial Black;-inkscape-font-specification:'Arial Black,'"
       d="m 1000.2524,196.81422 21.4025,16.11163 -7.3581,9.77439 c 5.2454,-2.68124 9.5462,-3.99076 12.9024,-3.92857 3.4217,0.0531 6.7429,1.29175 9.9637,3.71621 3.3703,2.5373 6.2698,6.36279 8.6983,11.47647 l -19.3415,10.9624 c -1.8506,-3.15328 -3.5624,-5.32196 -5.1352,-6.50603 -2.9961,-2.25534 -6.2483,-2.76755 -9.7567,-1.53615 -4.9812,1.70676 -11.0663,7.33498 -18.25513,16.88466 l -15.05443,19.99819 -22.97544,-17.29568 44.9096,-59.65752"
       inkscape:transform-center-x="-325.46135"
       inkscape:transform-center-y="-437.93752" />
    <path
       inkscape:connector-curvature="0"
       id="path3838"
       style="font-size:144px;font-style:normal;font-variant:normal;font-weight:normal;font-stretch:normal;text-align:center;line-height:125%;letter-spacing:0px;word-spacing:0px;writing-mode:lr-tb;text-anchor:middle;fill:none;stroke:#000000;stroke-opacity:1;font-family:Arial Black;-inkscape-font-specification:'Arial Black,'"
       d="m 1084.1228,226.6631 20.2552,21.10185 -38.3485,36.81 32.6573,-1.71847 24.3939,25.41352 -37.421,-1.2136 -15.3783,54.03884 -22.349,-23.28304 11.1406,-31.64815 -15.0584,-0.4574 -14.0003,13.43856 -20.2552,-21.10185 74.3637,-71.38022"
       inkscape:transform-center-x="-391.27925"
       inkscape:transform-center-y="-379.34916" />
    <path
       inkscape:connector-curvature="0"
       id="path3840"
       style="font-size:144px;font-style:normal;font-variant:normal;font-weight:normal;font-stretch:normal;text-align:center;line-height:125%;letter-spacing:0px;word-spacing:0px;writing-mode:lr-tb;text-anchor:middle;fill:none;stroke:#000000;stroke-opacity:1;font-family:Arial Black;-inkscape-font-specification:'Arial Black,'"
       d="m 1101.3088,341.86861 c 9.5438,-6.21772 19.4971,-8.11462 29.8597,-5.69072 10.4017,2.39837 19.1721,9.07643 26.311,20.03424 8.1624,12.52881 10.6959,24.36097 7.6008,35.49654 -2.5001,8.95757 -8.0311,16.22539 -16.5932,21.80347 -9.6224,6.26886 -19.6021,8.21099 -29.939,5.8264 -10.2722,-2.37102 -19.08,-9.19251 -26.4236,-20.46447 -6.5503,-10.05451 -9.2941,-19.84768 -8.2311,-29.37952 1.3594,-11.73897 7.1645,-20.94762 17.4154,-27.62594 m 15.7184,23.99812 c -5.5772,3.63339 -8.9718,7.43942 -10.1841,11.41806 -1.1866,4.0179 -0.6669,7.73531 1.5592,11.1523 2.2517,3.45619 5.4098,5.42684 9.4741,5.91194 4.0899,0.52429 9.0412,-1.107 14.8541,-4.89391 5.4199,-3.53108 8.7163,-7.27314 9.8894,-11.22616 1.2121,-3.97866 0.7436,-7.61752 -1.4057,-10.91664 -2.2774,-3.49552 -5.513,-5.49948 -9.7071,-6.01192 -4.1548,-0.53802 -8.9815,0.98408 -14.4799,4.56633"
       inkscape:transform-center-x="-449.87312"
       inkscape:transform-center-y="-295.4872" />
    <path
       inkscape:connector-curvature="0"
       id="path3842"
       style="font-size:144px;font-style:normal;font-variant:normal;font-weight:normal;font-stretch:normal;text-align:center;line-height:125%;letter-spacing:0px;word-spacing:0px;writing-mode:lr-tb;text-anchor:middle;fill:none;stroke:#000000;stroke-opacity:1;font-family:Arial Black;-inkscape-font-specification:'Arial Black,'"
       d="m 1192.4556,418.55691 10.044,24.68314 -11.267,4.58472 c 6.104,1.81778 10.9015,4.21782 14.3924,7.20015 3.5342,2.96464 6.4055,7.16058 8.6141,12.58787 2.9857,7.33763 3.1252,13.96101 0.4186,19.87019 -2.6459,5.93477 -8.5276,10.75733 -17.6453,14.46759 l -43.9608,17.88839 -10.839,-26.63696 38.0343,-15.47674 c 4.3416,-1.76682 7.0758,-3.81559 8.2022,-6.14643 1.1699,-2.3485 1.163,-4.97725 -0.021,-7.88625 -1.3074,-3.21295 -3.5831,-5.32334 -6.8272,-6.33117 -3.2442,-1.00787 -8.014,-0.23091 -14.3095,2.33096 l -33.2148,13.51568 -10.7861,-26.50671 69.1649,-28.14443"
       inkscape:transform-center-x="-494.79867"
       inkscape:transform-center-y="-204.0304" />
    <path
       inkscape:connector-curvature="0"
       id="path3844"
       style="font-size:144px;font-style:normal;font-variant:normal;font-weight:normal;font-stretch:normal;text-align:center;line-height:125%;letter-spacing:0px;word-spacing:0px;writing-mode:lr-tb;text-anchor:middle;fill:none;stroke:#000000;stroke-opacity:1;font-family:Arial Black;-inkscape-font-specification:'Arial Black,'"
       d="m 1265.2832,547.10081 -27.672,6.4171 3.558,15.34285 -20.3429,4.71756 -3.5581,-15.34285 -25.8225,5.98825 c -3.105,0.72007 -5.0912,1.49338 -5.9581,2.31999 -1.3407,1.27327 -1.7463,3.0515 -1.2169,5.33473 0.4765,2.05477 1.7372,4.79389 3.7823,8.21737 l -18.7706,6.51822 c -3.1058,-6.54573 -5.3524,-12.80955 -6.7395,-18.79135 -1.6096,-6.94084 -1.9053,-12.26164 -0.8868,-15.96234 1.0184,-3.70077 3.146,-6.7685 6.3828,-9.20326 3.293,-2.39973 9.0035,-4.54201 17.1317,-6.42689 l 25.617,-5.94063 -2.3826,-10.27421 20.343,-4.71755 2.3825,10.2742 13.3566,-3.09734 20.7961,24.62615"
       inkscape:transform-center-x="-538.03299"
       inkscape:transform-center-y="-122.27242" />
    <path
       inkscape:connector-curvature="0"
       id="path3846"
       style="font-size:144px;font-style:normal;font-variant:normal;font-weight:normal;font-stretch:normal;text-align:center;line-height:125%;letter-spacing:0px;word-spacing:0px;writing-mode:lr-tb;text-anchor:middle;fill:none;stroke:#000000;stroke-opacity:1;font-family:Arial Black;-inkscape-font-specification:'Arial Black,'"
       d="m 1207.2821,679.76088 -3.9301,-57.24021 c -4.5477,0.82905 -7.8764,2.3027 -9.9862,4.42101 -3.0374,2.98064 -4.4036,6.69229 -4.0985,11.13503 0.1927,2.80585 1.0772,5.42328 2.6536,7.85231 0.9944,1.48217 2.675,3.03473 5.0417,4.65775 l -0.6644,28.30728 c -7.7778,-3.78868 -13.5122,-8.61034 -17.2031,-14.46493 -3.6443,-5.85795 -5.8565,-14.46882 -6.6367,-25.83261 -0.6776,-9.86746 0.169,-17.72513 2.5395,-23.57311 2.4175,-5.85121 6.514,-10.8545 12.2897,-15.00993 5.8258,-4.11186 12.8306,-6.44875 21.0145,-7.01064 11.6445,-0.79952 21.3228,2.27124 29.0353,9.21239 7.7154,6.98787 12.0242,17.05227 12.9267,30.19324 0.732,10.66235 -0.3034,19.19079 -3.1063,25.58538 -2.8029,6.39448 -7.1568,11.4154 -13.0614,15.06289 -5.9046,3.64735 -13.7673,5.80819 -23.5878,6.48259 l -3.2269,0.22155 m 11.6848,-29.98019 c 5.4797,-0.94013 9.3285,-2.70795 11.5466,-5.30341 2.2213,-2.54881 3.197,-5.78735 2.9273,-9.71552 -0.3114,-4.53625 -2.3608,-8.0369 -6.1479,-10.50201 -2.3635,-1.57618 -5.7827,-2.44559 -10.2573,-2.60813 l 1.9313,28.12907"
       inkscape:transform-center-x="-536.22133"
       inkscape:transform-center-y="-36.908413" />
    <path
       inkscape:connector-curvature="0"
       id="path3848"
       style="font-size:144px;font-style:normal;font-variant:normal;font-weight:normal;font-stretch:normal;text-align:center;line-height:125%;letter-spacing:0px;word-spacing:0px;writing-mode:lr-tb;text-anchor:middle;fill:none;stroke:#000000;stroke-opacity:1;font-family:Arial Black;-inkscape-font-specification:'Arial Black,'"
       d="m 1197.1844,692.66832 -0.6339,28.52457 c -3.488,0.7734 -6.0758,2.12357 -7.7631,4.05067 -1.6876,1.92694 -2.7347,4.63647 -3.1416,8.12852 -0.4449,3.81786 0.025,6.86935 1.411,9.15451 1.0206,1.77056 2.4388,2.76168 4.2547,2.97332 2.0487,0.23865 3.7564,-0.64779 5.1234,-2.65929 0.9706,-1.44431 2.4227,-5.40452 4.3574,-11.88023 2.8728,-9.67003 5.2561,-16.35316 7.1497,-20.04942 1.9347,-3.64437 4.8027,-6.59005 8.604,-8.83706 3.7958,-2.20048 7.9285,-3.04036 12.3984,-2.51953 4.8887,0.56961 8.9369,2.48065 12.1446,5.73314 3.2076,3.25245 5.3825,7.46999 6.5248,12.65267 1.1888,5.18805 1.2948,11.97246 0.3185,20.35333 -1.0309,8.84632 -2.4655,15.28604 -4.304,19.31919 -1.8443,4.07938 -4.3486,7.35073 -7.5143,9.81348 -3.1711,2.50914 -7.2863,4.41286 -12.3454,5.71113 l 0.4871,-27.26748 c 2.4559,-0.42176 4.3375,-1.38232 5.6449,-2.88168 1.7502,-2.06134 2.8098,-4.67501 3.1788,-7.84104 0.3743,-3.21267 0.066,-5.63177 -0.9241,-7.25728 -0.9493,-1.57358 -2.2387,-2.45533 -3.8683,-2.64514 -1.8159,-0.21161 -3.2979,0.55955 -4.446,2.31347 -1.1483,1.75388 -2.4585,5.70689 -3.9302,11.85922 -2.1723,9.32684 -4.4813,16.18381 -6.9274,20.57087 -2.446,4.38693 -5.5793,7.58487 -9.4,9.59377 -3.8261,2.05527 -7.8576,2.83614 -12.0945,2.34255 -4.2836,-0.4992 -8.2987,-2.28841 -12.0457,-5.36767 -3.7523,-3.03284 -6.5137,-7.48391 -8.2837,-13.35313 -1.7289,-5.81735 -2.0347,-13.52171 -0.9172,-23.11303 1.5788,-13.54898 4.6367,-22.98503 9.1738,-28.30818 4.5318,-5.2766 10.4545,-8.3147 17.768,-9.11425"
       inkscape:transform-center-x="-533.94786"
       inkscape:transform-center-y="59.674488" />
    <path
       inkscape:connector-curvature="0"
       id="path3850"
       style="font-size:144px;font-style:normal;font-variant:normal;font-weight:normal;font-stretch:normal;text-align:center;line-height:125%;letter-spacing:0px;word-spacing:0px;writing-mode:lr-tb;text-anchor:middle;fill:none;stroke:#000000;stroke-opacity:1;font-family:Arial Black;-inkscape-font-specification:'Arial Black,'"
       d="m 1253.8913,843.06698 -27.3905,-7.52836 -4.1741,15.1868 -20.1361,-5.53447 4.1741,-15.18682 -25.5599,-7.02525 c -3.0735,-0.84481 -5.1882,-1.11006 -6.3441,-0.79574 -1.7852,0.48154 -2.9883,1.85234 -3.6095,4.11231 -0.559,2.03391 -0.7541,5.04292 -0.5852,9.0271 l -19.6104,-3.20241 c 0.3844,-7.23503 1.3902,-13.81303 3.0176,-19.73404 1.8883,-6.87026 4.161,-11.69027 6.8183,-14.46005 2.6572,-2.76983 5.9885,-4.45502 9.9941,-5.05552 4.0383,-0.54296 10.0801,0.29128 18.1256,2.50259 l 25.3565,6.96935 2.7952,-10.16973 20.136,5.53444 -2.7951,10.16976 13.2206,3.63373 6.5669,31.55631"
       inkscape:transform-center-x="-527.1328"
       inkscape:transform-center-y="148.22075" />
    <path
       style="font-size:144px;font-style:normal;font-variant:normal;font-weight:normal;font-stretch:normal;text-align:center;line-height:125%;letter-spacing:0px;word-spacing:0px;writing-mode:lr-tb;text-anchor:middle;fill:none;stroke:#000000;stroke-opacity:1;font-family:Arial Black;-inkscape-font-specification:'Arial Black,'"
       d="m 1084.5006,209.63986 -1.446,1.40955 c -8.6012,8.2757 -17.2155,16.5422 -25.8179,24.81669 0.9623,-5.52157 -1.0761,-11.64326 -5.2468,-15.52568 -5.0208,-7.19025 -13.4901,-10.77436 -21.1077,-14.2227 -6.2712,-8.75641 -17.4061,-12.11231 -24.4424,-20.11311 -1.2353,-0.93115 -2.6078,-1.64367 -4.0594,-2.17768 -7.89772,-2.47908 -12.24704,6.21663 -15.85234,11.52941 -3.12064,4.0581 -6.2287,8.14988 -9.32835,12.2367 3.55092,-15.73519 0.59194,-33.04301 -11.29072,-44.43128 -6.9991,-7.26856 -15.82506,-12.40564 -25.00532,-16.53372 -1.31147,-0.58971 -2.63291,-1.16952 -3.95441,-1.72082 -19.65171,-8.31045 -43.23255,-0.97627 -56.77538,14.83827 1.44365,-6.90248 2.29845,-13.90462 2.03856,-21.07904 -2.15302,-11.50696 -10.36724,-21.62363 -21.25993,-26.05141 -8.04356,-3.64681 -16.99167,-3.91946 -25.65509,-3.28311 -8.18108,-9.508348 -22.30433,-6.86118 -32.55496,-12.772934 -4.63778,-2.746916 -12.07599,-1.109902 -12.32098,5.267294 -2.81091,9.07548 -5.54498,18.1558 -8.26064,27.24104 -0.123,-0.0492 -0.32365,-0.14802 -0.48558,-0.2155 0.0537,-0.22351 -0.49347,-0.37822 -0.72674,-0.2884 -0.0593,-0.0263 -0.0601,-0.0146 -0.0126,0.0285 -0.19948,0.12345 -0.0723,0.59617 -0.30424,0.68552 -0.48474,0.18672 -0.94342,-0.82058 -1.42817,-0.63384 -0.24237,0.0933 -0.0745,0.62072 -0.31691,0.71408 -0.0452,0.0174 -0.0931,0.0109 -0.13961,0.006 0.0555,-7.19324 -0.55549,-14.35945 -2.40062,-21.47648 -3.24836,-7.73808 -9.26762,-14.423586 -16.96895,-17.924556 -0.51345,-0.233343 -1.02702,-0.451422 -1.55508,-0.656024 -10.31556,-4.512066 -22.34492,-3.68285 -32.62787,-0.66807 -8.22358,-6.708479 -19.52956,-3.286114 -29.13373,-5.305612 -5.25018,-0.317755 -11.18601,-3.024135 -16.03922,0.163973 -1.13501,11.2491 -2.26212,22.497339 -3.3867,33.746199 -0.17597,-0.09 -0.33544,-0.27838 -0.53004,-0.26938 -0.9276,0.0427 -1.81219,0.92006 -2.73132,1.14689 -1.54564,-8.52549 -4.49675,-16.56036 -10.69567,-23.277497 -2.1617,-3.869372 -9.39989,-4.128329 -7.89943,-9.62574 -0.42344,-9.696885 -2.03014,-19.328 -2.77584,-29.027914 l -2.0052,0.204132 c -23.26166,2.213067 -46.63232,4.169743 -69.89673,6.655825 0.96774,10.941001 2.2431,21.954581 2.99365,32.851212 -6.17282,4.771572 -11.41665,12.180282 -13.06831,20.047322 -0.004,-7.1e-4 -0.0255,-0.0124 -0.0285,-0.0126 -0.36693,0.0169 -0.66407,0.38029 -1.03099,0.39717 -0.25946,0.012 -0.45463,-0.32885 -0.71409,-0.31692 -1.0443,0.048 -2.00745,1.1276 -3.05175,1.17562 -0.25947,0.012 -0.45464,-0.32885 -0.71409,-0.31693 -0.73386,0.0337 -1.33799,0.66983 -2.06201,0.79434 -0.37313,0.0642 -0.75991,0.0868 -1.1422,0.10848 -0.0699,-0.097 -0.16576,-0.14314 -0.30154,-0.16796 -0.003,-0.007 -0.0262,-0.007 -0.0285,-0.0126 -5.84173,-17.39614 -11.67983,-34.793497 -17.52335,-52.189037 l -0.96441,0.324154 -0.92316,0.308265 c -19.29778,6.427522 -38.60207,13.042291 -57.87086,19.309552 0.7198,9.153175 1.41473,18.308336 2.10237,27.464006 -5.01956,-7.70605 -10.04342,-15.409315 -15.08063,-23.103832 -19.87295,6.89867 -39.8589,13.533252 -59.81538,20.224402 13.47584,40.11624 26.9638,80.22844 40.43964,120.3447 15.82421,-5.29041 31.63112,-10.63314 47.46536,-15.89312 -0.15218,-1.36405 4.138,-0.23238 5.53597,-1.61162 10.77747,-4.55673 22.27837,-7.40412 33.3481,-11.35465 -0.83117,-2.79689 3.63808,-0.0759 5.33923,-1.63054 13.25858,-5.34206 27.29981,-9.1618 40.86342,-14.03661 -0.58928,-1.75423 -1.17762,-3.50878 -1.76695,-5.263 2.13574,1.72015 4.51736,3.16924 7.14774,4.23211 15.10642,6.74049 32.90479,3.18602 47.00524,-3.99428 9.25323,5.85251 20.47634,-0.34906 30.56843,0.30111 2.71268,-0.25191 5.42307,-0.51493 8.13506,-0.76583 15.68616,1.58716 31.36795,3.1932 47.06694,4.64883 0.35647,-3.6019 0.94184,-4.34163 3.04518,-1.62299 7.65781,5.15504 17.51129,2.56693 26.17614,4.57422 5.52921,0.53427 11.06437,1.06738 16.59541,1.5872 15.49441,4.31623 30.81845,9.31772 46.26901,13.76516 1.0705,-1.49187 1.72571,-6.45878 2.78441,-2.73022 5.63013,8.64395 17.6621,7.46981 26.18295,11.41512 6.83562,2.08061 13.69746,4.03813 20.54182,6.17638 1.0844,-6.43587 2.7944,-12.76197 4.73347,-19.06246 1.71972,15.10802 10.14717,29.44218 23.91495,36.63181 15.96649,11.21154 37.92746,17.35841 56.35693,9.83169 -3.36985,4.45841 -6.73697,8.91838 -10.13053,13.35082 13.87834,10.29723 27.68236,20.69398 41.4046,31.19679 13.75966,-11.86254 19.64264,-30.68868 35.03004,-40.7974 3.7445,4.83031 10.0744,9.75101 16.3696,6.41021 4.094,-1.60397 7.9639,-3.82056 11.7779,-6.12369 -16.7412,16.08796 -33.5009,32.15003 -50.30398,48.1731 11.95288,12.37665 23.92868,24.73258 35.75048,37.23475 3.9224,-1.62119 7.2859,-4.28153 10.213,-7.29687 -1.4223,4.40183 -2.9184,8.78617 -4.7589,13.03386 12.8547,13.24697 25.6712,26.53815 38.3917,39.91132 3.8756,26.61141 26.3916,51.12816 54.1898,51.84596 0.047,5e-4 0.093,-0.007 0.1396,-0.006 -6.3286,2.58078 -12.6593,5.17448 -18.9764,7.78379 6.5148,15.96785 12.9944,31.95012 19.4408,47.9458 3.5782,-1.13064 5.4724,-1.99416 3.2151,1.76879 -2.0557,8.88223 5.6313,16.10422 7.4979,24.31993 2.9131,7.24743 5.8955,14.46115 8.8735,21.68244 2.7906,-1.50403 5.6361,-2.87822 8.5236,-4.18327 l -0.6085,1.37103 -0.3169,0.71408 c -0.1051,0.23741 -0.4105,0.47163 -0.3169,0.71409 0.093,0.2423 0.6206,0.0745 0.714,0.3169 0.093,0.24234 -0.4104,0.4717 -0.3169,0.71408 0.094,0.24236 0.6207,0.0746 0.714,0.3169 0.094,0.24244 -0.4102,0.47173 -0.3169,0.71409 0.1323,0.34293 1.2961,0.29096 1.4283,0.63386 0.093,0.24231 -0.4105,0.47162 -0.3169,0.71409 -1.1112,1.28025 -2.1339,2.66268 -3.0534,4.18355 -8.347,15.773 -1.233,33.9676 5.1724,48.8957 0.7489,5.34055 6.3982,11.58926 12.0267,8.10691 0.3544,-0.12349 0.7051,-0.26102 1.0595,-0.38453 -3.7684,4.4575 -6.7047,9.67071 -8.4351,15.53928 -5.5675,22.75632 -2.7338,50.11993 15.0753,66.79546 1.414,1.22253 2.8814,2.35329 4.3963,3.42127 -12.8389,6.71417 -21.0118,21.43362 -22.6581,35.72366 -3.891,18.70626 -3.4524,41.44612 11.6042,55.20331 2.7662,2.48875 5.9481,4.44817 9.3633,5.86501 -7.9136,-0.99084 -15.7814,-0.36086 -22.9226,3.81019 -15.1442,9.76066 -17.3399,29.61625 -18.9944,46.03377 -2.1228,5.43647 0.5457,13.09198 7.2507,12.85934 10.9889,0.61202 21.853,3.411 32.8047,4.81504 3.1095,-3.57851 4.0096,-8.45958 3.7498,-13.0714 2.3782,1.32393 8.3679,0.7009 8.3912,3.58735 -2.0904,8.28889 3.1845,17.9998 12.2669,18.5045 8.058,2.17139 16.117,4.36234 24.1085,6.76785 4.7797,-3.20073 6.8624,-8.91313 7.8328,-14.33641 11.6084,3.21369 23.2291,6.38156 34.8061,9.7035 -5.2305,-18.97412 -6.2808,-39.35403 -13.6456,-57.61365 -1.6087,-2.33711 -6.1057,-1.58617 -6.9919,-3.58172 0.617,-4.9794 -1.6707,-10.43546 -6.6602,-12.18699 -3.735,-0.85377 -7.4626,-1.81102 -11.167,-2.80213 15.4243,-5.91955 27.1688,-21.12472 27.6734,-38.01083 3.7645,-18.17967 2.3959,-40.99924 -13.9256,-52.74621 -1.9677,-1.37809 -4.1075,-2.4657 -6.3508,-3.33143 -2.3272,-1.11893 -4.7799,-1.80885 -7.2895,-2.14107 13.3861,-5.30136 24.8232,-15.44431 28.3822,-29.90109 8.0395,-26.66398 -0.3636,-61.75241 -28.2621,-73.05824 -0.6313,-0.27138 -1.269,-0.53671 -1.9106,-0.77955 7.5446,-1.71144 15.0758,-3.504 22.6362,-5.16807 2.4048,-5.13887 1.4956,-11.03275 -0.2274,-16.20415 11.6931,-2.6432 23.3713,-5.28097 35.022,-8.11591 -12.2597,-14.65411 -24.562,-29.27203 -36.9756,-43.79582 l -0.7869,-0.0757 c -2.9151,-0.93574 -6.3524,-0.0745 -9.0491,0.36016 -2.7034,-7.33195 -11.9302,-9.83066 -18.5015,-6.22819 -3.123,0.74476 -6.2429,1.5028 -9.3686,2.23554 2.4529,-1.59681 4.8522,-3.32159 7.1618,-5.19793 14.6669,-15.58272 10.0949,-42.63816 -5.7375,-55.09539 2.5272,-10.34466 -6.2083,-18.93194 -8.7628,-28.40282 -2.7095,-4.28686 -1.9999,-11.38002 -7.0228,-13.98903 -6.2506,0.10909 -11.9795,4.9383 -18.0665,6.58078 -5.8909,2.42423 -11.7728,4.8315 -17.6726,7.23421 10.4755,-9.73077 17.1195,-23.41366 15.9333,-38.05855 -1.6746,-23.40471 -17.4052,-45.45515 -39.3478,-54.01146 -2.2056,-0.84993 -4.4552,-1.493 -6.7215,-1.95732 0.1566,-0.0596 0.2904,-0.0944 0.33,-0.12709 0.2004,-0.16522 0.075,-0.62071 0.317,-0.71409 0.2423,-0.0933 0.4716,0.41028 0.714,0.31691 0.2424,-0.0933 0.2116,-0.47667 0.317,-0.71407 0.1092,-0.24629 0.603,-1.28365 0.9412,-2.04391 5.8902,0.20626 11.7805,0.41431 17.6705,0.62841 -16.7406,-16.49318 -32.3056,-34.21347 -49.3408,-50.44609 -2.2716,-0.73731 -7.9027,0.97921 -3.2345,-2.18764 7.1297,-6.8549 14.2701,-13.69854 21.3971,-20.55622 -12.3067,-12.7594 -24.6053,-25.53102 -36.757,-38.43357 z M 782.11334,129.25139 c -0.0388,0.12993 -0.0974,0.25405 -0.13627,0.38397 -0.0275,-0.19688 0.0378,-0.32254 0.13627,-0.38397 z"
       id="path3553"
       inkscape:connector-curvature="0"
       inkscape:transform-center-x="-173.82992"
       inkscape:transform-center-y="-212.8372" />
    <path
       style="font-size:144px;font-style:normal;font-variant:normal;font-weight:normal;font-stretch:normal;text-align:center;line-height:125%;letter-spacing:0px;word-spacing:0px;writing-mode:lr-tb;text-anchor:middle;fill:none;stroke:#000000;stroke-opacity:1;font-family:Arial Black;-inkscape-font-specification:'Arial Black,'"
       d="m 363.27332,188.84569 c -0.39032,-0.17361 -0.78234,-0.34392 -1.18375,-0.49123 -16.05431,-6.49029 -34.83228,1.64134 -44.44826,15.18077 -5.71735,-7.53041 -11.44392,-15.05384 -17.15548,-22.58867 -14.03511,10.52682 -27.92158,21.24958 -41.92011,31.82477 11.99918,15.80864 24.01197,31.60695 36.02232,47.4071 -0.53481,-0.23298 -1.063,-0.47833 -1.59955,-0.70989 -21.01276,-9.67304 -46.0233,1.2372 -59.24189,18.70107 -15.45142,16.25196 -21.45234,43.39702 -8.02301,62.52737 0.81261,1.3821 1.70939,2.71521 2.66107,4.01873 -8.61727,-4.53293 -17.73585,-7.48677 -27.7696,-5.76007 -17.97728,3.17751 -27.99697,20.85427 -36.61631,35.20432 -9.02548,15.1365 -12.89459,36.32595 -0.60774,50.67245 0.97724,1.25717 2.0139,2.47006 3.11774,3.606 -8.63845,-3.33769 -17.2739,-6.68317 -25.90933,-10.02868 -11.2318,28.99118 -22.3447,58.02827 -33.53328,87.03613 1.05024,0.40659 2.0979,0.81986 3.14822,1.22626 -3.55172,3.40729 -5.35517,8.39623 -5.84075,13.2375 -11.739631,-2.59816 -23.431174,-5.41855 -35.198624,-7.89471 5.891226,18.66071 8.302762,38.57557 15.875695,56.51782 1.97029,1.92907 4.952512,2.27828 7.407207,2.87713 -0.110328,8.93911 8.949092,15.03341 17.281192,14.37068 1.51405,0.4711 3.16211,1.00296 4.83955,1.49825 -10.25308,4.07953 -19.03518,11.14384 -23.712743,21.61405 -10.538127,22.21126 -10.023928,51.54391 7.350811,70.10259 5.608492,5.69985 12.577102,9.73375 20.116632,12.14178 -20.703627,1.71113 -41.399591,3.46739 -62.101536,5.19213 1.563727,17.48753 2.914449,34.99328 4.469948,52.48151 42.205548,-3.56676 84.424038,-6.9798 126.630308,-10.53785 -1.51309,-17.42092 -2.96734,-34.84683 -4.39051,-52.27532 l -0.98993,0.0735 -0.98992,0.0735 c -6.79686,0.51706 -13.5991,1.04547 -20.39493,1.58141 7.06427,-3.73201 13.2061,-9.16996 17.51874,-16.3627 9.33464,-16.07894 10.09864,-35.89929 6.38729,-53.68029 -3.28959,-13.27172 -12.59421,-24.59691 -24.28976,-31.39624 9.59824,1.03094 19.14613,-0.0559 26.78262,-6.57587 12.32762,-10.90127 13.74594,-28.93315 14.57842,-44.40375 -0.008,-0.13158 -0.0212,-0.25829 -0.0319,-0.39025 10.73086,-27.72266 21.23226,-55.52844 32.01546,-83.23094 -0.62202,-0.24192 -1.24405,-0.48374 -1.86607,-0.72567 -0.10738,-0.0411 -0.21967,-0.0693 -0.32685,-0.11091 0.34537,-0.22809 0.69299,-0.45902 1.03083,-0.70495 13.42616,-8.38205 20.32237,-24.35594 23.25929,-39.08094 10.19262,-4.7511 12.18705,-17.36139 18.77352,-25.58399 4.28816,-7.26764 8.5599,-14.55008 12.83256,-21.82722 l -1.7133,0.16272 c 1.00523,-0.40632 2.00498,-0.84329 2.98821,-1.34057 20.45672,-9.79112 37.5624,-29.87024 39.71639,-52.97453 0.0717,-1.69069 0.0411,-3.39449 -0.0535,-5.11794 2.42347,3.188 4.85741,6.36807 7.28065,9.55626 13.76392,-10.44569 27.50093,-20.927 41.31435,-31.30726 -0.21982,-1.43972 -4.67249,-5.74782 -0.7637,-4.13395 10.19856,1.06232 16.04528,-9.26088 24.09136,-13.68504 5.95208,-4.47081 11.86124,-8.98528 17.80585,-13.46594 -18.85102,-19.74204 -30.18811,-46.59795 -53.45275,-61.98078 -0.3924,-0.16869 -0.78078,-0.34614 -1.1711,-0.51975 z"
       id="path3549"
       inkscape:connector-curvature="0"
       inkscape:transform-center-x="438.07614"
       inkscape:transform-center-y="-208.34963" />
    <path
       style="font-size:144px;font-style:normal;font-variant:normal;font-weight:normal;font-stretch:normal;text-align:center;line-height:125%;letter-spacing:0px;word-spacing:0px;writing-mode:lr-tb;text-anchor:middle;fill:none;stroke:#000000;stroke-opacity:1;font-family:Arial Black;-inkscape-font-specification:'Arial Black,'"
       d="m 132.98276,750.80325 c -0.50867,-0.23341 -1.02758,-0.44501 -1.55508,-0.65603 -22.48614,-9.39427 -52.933337,1.06353 -60.84715,25.16841 -6.394636,23.83311 6.393441,47.00468 9.847989,70.25362 1.689701,7.10409 3.369783,14.22329 5.065821,21.32593 41.22869,-9.81307 82.46299,-19.60231 123.69167,-29.41539 -4.34543,-18.18019 -8.66029,-36.36763 -12.98724,-54.55217 -12.35637,2.94485 -24.71666,5.87329 -37.07451,8.81191 -3.55995,-15.87823 -10.37253,-33.70084 -26.14148,-40.93633 z"
       id="path3523"
       inkscape:connector-curvature="0"
       inkscape:transform-center-x="536.1394"
       inkscape:transform-center-y="133.58224" />
    <path
       inkscape:connector-curvature="0"
       id="path3164"
       style="font-size:144px;font-style:normal;font-variant:normal;font-weight:normal;font-stretch:normal;text-align:center;line-height:125%;letter-spacing:0px;word-spacing:0px;writing-mode:lr-tb;text-anchor:middle;fill:none;stroke:#000000;stroke-opacity:1;font-family:Arial Black;-inkscape-font-specification:'Arial Black,'"
       d="m 243.65313,949.93655 19.72162,22.9167 -36.53937,45.82345 54.01364,-25.51819 19.67575,22.86339 -33.23714,49.6607 50.75728,-29.3021 19.62989,22.8101 -92.94411,50.0228 -20.36372,-23.6628 37.40386,-56.0295 -60.93221,28.6893 -20.36371,-23.6628 63.17822,-84.61105" />
    <path
       inkscape:connector-curvature="0"
       id="path3166"
       style="font-size:144px;font-style:normal;font-variant:normal;font-weight:normal;font-stretch:normal;text-align:center;line-height:125%;letter-spacing:0px;word-spacing:0px;writing-mode:lr-tb;text-anchor:middle;fill:none;stroke:#000000;stroke-opacity:1;font-family:Arial Black;-inkscape-font-specification:'Arial Black,'"
       d="m 318.0973,1104.8771 -19.74049,-19.1502 c 3.76245,-3.1253 7.23878,-5.1644 10.42901,-6.1173 3.25595,-0.9607 6.94434,-1.1057 11.06517,-0.4349 2.96216,0.477 6.49634,1.8197 10.60256,4.028 4.10607,2.2085 8.26134,4.9618 12.46581,8.2601 6.74906,5.2947 11.86671,9.935 15.35297,13.921 3.515,3.9491 5.69682,8.1928 6.54548,12.731 0.61572,3.1641 0.27615,6.7107 -1.01872,10.6398 -1.26614,3.8921 -2.98413,7.2212 -5.15396,9.9873 l -20.35399,25.9455 c -2.17001,2.766 -3.71106,5.0722 -4.62315,6.9185 -0.84643,1.8382 -1.63429,4.4373 -2.36358,7.7974 l -21.13259,-16.5783 c 0.33793,-2.1776 0.68163,-3.7549 1.0311,-4.7319 0.37829,-1.0139 1.10383,-2.4704 2.17661,-4.3694 -5.17829,0.5252 -9.70158,0.2535 -13.56988,-0.8151 -5.25616,-1.502 -10.52119,-4.3216 -15.79508,-8.4589 -7.00733,-5.4972 -11.06355,-11.3007 -12.16866,-17.4105 -1.06825,-6.0809 0.26377,-11.5001 3.99607,-16.2577 3.5008,-4.4625 7.68884,-7.1051 12.56412,-7.9276 4.87522,-0.8224 11.38465,0.8287 19.52832,4.9533 9.77649,4.929 16.17909,8.0453 19.20782,9.3488 3.05753,1.2667 6.42178,2.4463 10.09275,3.5387 2.16985,-2.766 3.11716,-5.1507 2.84191,-7.154 -0.2754,-2.0033 -1.85141,-4.1334 -4.72802,-6.3901 -3.68813,-2.8932 -6.91709,-4.4731 -9.68689,-4.7395 -2.16172,-0.2064 -4.68328,0.6156 -7.56469,2.466 m 10.24096,27.1584 c -3.96601,-1.3239 -7.95977,-2.8781 -11.98129,-4.6627 -5.52802,-2.3706 -9.36344,-3.4432 -11.50629,-3.2178 -2.20876,0.2334 -3.92069,1.1245 -5.13582,2.6735 -1.38879,1.7703 -1.92309,3.7045 -1.6029,5.8025 0.38593,2.0902 1.77753,4.0755 4.17481,5.9561 2.50783,1.9674 5.30869,3.1816 8.40259,3.6427 3.13067,0.4899 5.81851,0.2154 8.06353,-0.8236 2.31071,-1.047 4.56552,-2.9719 6.76445,-5.7748 l 2.82092,-3.5959" />
    <path
       inkscape:connector-curvature="0"
       id="path3168"
       style="font-size:144px;font-style:normal;font-variant:normal;font-weight:normal;font-stretch:normal;text-align:center;line-height:125%;letter-spacing:0px;word-spacing:0px;writing-mode:lr-tb;text-anchor:middle;fill:none;stroke:#000000;stroke-opacity:1;font-family:Arial Black;-inkscape-font-specification:'Arial Black,'"
       d="m 379.24484,1121.4409 23.31131,12.9121 -5.89392,10.6408 c 5.89289,-2.4159 11.1341,-3.5585 15.72367,-3.4278 4.61213,0.09 9.48104,1.5542 14.60674,4.3933 6.92973,3.8384 11.19539,8.9072 12.79699,15.2064 1.66511,6.2809 0.1129,13.7269 -4.65664,22.3379 l -22.99648,41.5175 -25.15653,-13.9342 19.89622,-35.9203 c 2.27119,-4.1005 3.11383,-7.4115 2.52794,-9.9331 -0.56333,-2.5625 -2.21862,-4.6047 -4.96588,-6.1264 -3.03443,-1.6808 -6.13067,-1.8954 -9.28874,-0.6439 -3.15819,1.2515 -6.38391,4.8501 -9.67719,10.7958 l -17.37512,31.3688 -25.03351,-13.866 36.18114,-65.3209" />
    <path
       inkscape:connector-curvature="0"
       id="path3170"
       style="font-size:144px;font-style:normal;font-variant:normal;font-weight:normal;font-stretch:normal;text-align:center;line-height:125%;letter-spacing:0px;word-spacing:0px;writing-mode:lr-tb;text-anchor:middle;fill:none;stroke:#000000;stroke-opacity:1;font-family:Arial Black;-inkscape-font-specification:'Arial Black,'"
       d="m 536.9502,1162.1333 -35.11845,96.9112 -25.18635,-9.1269 3.76098,-10.3786 c -5.12272,3.1294 -9.41786,4.9383 -12.88543,5.4268 -4.61288,0.6218 -9.29911,0.07 -14.0587,-1.6544 -9.56335,-3.4655 -15.56152,-9.7524 -17.99454,-18.8606 -2.38899,-9.0922 -1.69899,-18.8387 2.06999,-29.2394 4.21611,-11.6346 10.21853,-19.5307 18.00728,-23.6884 7.83275,-4.1416 16.04602,-4.6554 24.63984,-1.5412 4.18665,1.5172 7.72119,3.5958 10.60365,6.2357 2.92639,2.6559 5.20069,5.8733 6.82291,9.652 l 12.16929,-33.5818 27.16953,9.8456 m -49.29754,51.8369 c 1.9962,-5.5088 2.31356,-10.0305 0.95207,-13.5653 -1.34566,-3.5788 -3.80331,-6.015 -7.37297,-7.3086 -3.12907,-1.1338 -6.22239,-0.784 -9.27996,1.0496 -3.05768,1.8336 -5.69642,5.8133 -7.91623,11.9391 -2.07617,5.7292 -2.52159,10.3292 -1.33627,13.8001 1.24527,3.4427 3.47651,5.747 6.69371,6.9128 3.43745,1.2457 6.78913,0.9396 10.05504,-0.9183 3.26579,-1.8578 6.00066,-5.8276 8.20461,-11.9094" />
    <path
       inkscape:connector-curvature="0"
       id="path3172"
       style="font-size:144px;font-style:normal;font-variant:normal;font-weight:normal;font-stretch:normal;text-align:center;line-height:125%;letter-spacing:0px;word-spacing:0px;writing-mode:lr-tb;text-anchor:middle;fill:none;stroke:#000000;stroke-opacity:1;font-family:Arial Black;-inkscape-font-specification:'Arial Black,'"
       d="m 606.04655,1249.7994 -56.33223,-10.889 c -0.36562,4.6081 0.20456,8.2035 1.71055,10.7863 2.10148,3.7005 5.33833,5.9733 9.71056,6.8184 2.76133,0.5338 5.51809,0.3505 8.27028,-0.5498 1.68773,-0.5808 3.61957,-1.8068 5.79553,-3.6778 l 27.18913,7.9054 c -5.65762,6.5452 -11.78924,10.8503 -18.3949,12.9155 -6.59691,2.019 -15.48712,1.9477 -26.67066,-0.2141 -9.71091,-1.8771 -17.08829,-4.7116 -22.13217,-8.5034 -5.03503,-3.8378 -8.81964,-9.0811 -11.35385,-15.7298 -2.47932,-6.6858 -2.94055,-14.0557 -1.38369,-22.1097 2.21516,-11.4597 7.66659,-20.0261 16.3543,-25.6992 8.73368,-5.6641 19.56677,-7.2462 32.49929,-4.7465 10.49319,2.0285 18.47041,5.2176 23.93169,9.5674 5.46111,4.35 9.1968,9.8464 11.20707,16.4892 2.01008,6.6429 2.08106,14.7967 0.21294,24.4615 l -0.61384,3.1756 m -25.97816,-18.9863 c 0.49741,-5.5375 -0.22359,-9.7111 -2.16301,-12.5209 -1.89353,-2.8008 -4.77323,-4.5749 -8.6391,-5.3223 -4.46429,-0.8628 -8.37358,0.2196 -11.72788,3.2473 -2.12992,1.88 -3.84755,4.9616 -5.15288,9.2448 l 27.68287,5.3511" />
    <path
       inkscape:connector-curvature="0"
       id="path3174"
       style="font-size:144px;font-style:normal;font-variant:normal;font-weight:normal;font-stretch:normal;text-align:center;line-height:125%;letter-spacing:0px;word-spacing:0px;writing-mode:lr-tb;text-anchor:middle;fill:none;stroke:#000000;stroke-opacity:1;font-family:Arial Black;-inkscape-font-specification:'Arial Black,'"
       d="m 618.36222,1205.4182 26.74364,1.5593 -0.71211,12.2136 c 2.88202,-5.1377 5.73742,-8.6102 8.56619,-10.4175 2.87821,-1.8511 6.32954,-2.6594 10.35401,-2.4249 4.21154,0.2457 8.7445,1.8247 13.5989,4.7371 l -10.03122,19.8404 c -3.28748,-1.6003 -5.9139,-2.4577 -7.87925,-2.5724 -3.74369,-0.2182 -6.73505,1.1569 -8.97408,4.1253 -3.2019,4.1802 -5.1507,12.2366 -5.84641,24.1695 l -1.45697,24.9888 -28.70905,-1.6739 4.34635,-74.5453" />
    <path
       inkscape:connector-curvature="0"
       id="path3176"
       style="font-size:144px;font-style:normal;font-variant:normal;font-weight:normal;font-stretch:normal;text-align:center;line-height:125%;letter-spacing:0px;word-spacing:0px;writing-mode:lr-tb;text-anchor:middle;fill:none;stroke:#000000;stroke-opacity:1;font-family:Arial Black;-inkscape-font-specification:'Arial Black,'"
       d="m 674.7324,1263.1861 28.15065,-4.647 c 1.40443,3.285 3.20947,5.5787 5.41511,6.8811 2.20557,1.3025 5.0619,1.8311 8.569,1.5858 3.83434,-0.2681 6.74642,-1.2941 8.73625,-3.0779 1.55156,-1.3302 2.26359,-2.9071 2.13612,-4.7308 -0.14394,-2.0575 -1.33062,-3.5721 -3.56004,-4.544 -1.59875,-0.687 -5.75899,-1.3828 -12.48073,-2.0875 -10.03431,-1.0369 -17.0427,-2.1444 -21.02519,-3.3226 -3.93905,-1.2282 -7.36387,-3.5026 -10.27447,-6.8234 -2.86387,-3.3238 -4.45276,-7.2303 -4.76668,-11.7194 -0.34336,-4.9098 0.78691,-9.2414 3.3908,-12.9948 2.60387,-3.7532 6.34702,-6.6699 11.22944,-8.75 4.87913,-2.1267 11.52716,-3.4844 19.94414,-4.0731 8.8845,-0.6212 15.47842,-0.401 19.78178,0.6607 4.35,1.0585 8.02759,2.9159 11.03278,5.572 3.05181,2.653 5.683,6.3456 7.8936,11.0779 l -26.88812,4.5587 c -0.86823,-2.3357 -2.15987,-4.0074 -3.87494,-5.0153 -2.3492,-1.3393 -5.11364,-1.8978 -8.29334,-1.6755 -3.22653,0.2256 -5.54707,0.9753 -6.96163,2.2489 -1.37113,1.2237 -1.99946,2.6538 -1.88498,4.2904 0.1275,1.8237 1.15919,3.1378 3.09505,3.9421 1.9358,0.8045 6.06284,1.3617 12.38115,1.6716 9.5676,0.4117 16.73311,1.4143 21.49657,3.0077 4.76332,1.5935 8.48505,4.0821 11.16521,7.4659 2.72677,3.3805 4.23898,7.1984 4.53663,11.4536 0.30076,4.302 -0.71587,8.5786 -3.0499,12.8299 -2.28742,4.2481 -6.15172,7.7841 -11.5929,10.6081 -5.39783,2.7739 -12.91306,4.4977 -22.54573,5.1713 -13.60743,0.9516 -23.44599,-0.3104 -29.51572,-3.7861 -6.023,-3.4789 -10.10297,-8.7384 -12.23991,-15.7783" />
    <path
       inkscape:connector-curvature="0"
       id="path3178"
       style="font-size:144px;font-style:normal;font-variant:normal;font-weight:normal;font-stretch:normal;text-align:center;line-height:125%;letter-spacing:0px;word-spacing:0px;writing-mode:lr-tb;text-anchor:middle;fill:none;stroke:#000000;stroke-opacity:1;font-family:Arial Black;-inkscape-font-specification:'Arial Black,'"
       d="m 817.00067,1235.5069 27.22858,-2.9344 c -0.22285,5.8627 -1.54735,11.2037 -3.97352,16.0231 -2.43658,4.7737 -6.01072,8.8658 -10.72242,12.2761 -4.66611,3.4001 -11.00132,5.9975 -19.00566,7.7921 -7.73,1.7332 -14.33821,2.4703 -19.82464,2.2112 -5.45101,-0.3151 -10.38788,-1.6581 -14.81063,-4.0292 -4.43303,-2.4168 -8.18868,-5.562 -11.26694,-9.4355 -3.07827,-3.8735 -5.42245,-9.4007 -7.03255,-16.5819 -1.68187,-7.5012 -1.80102,-14.0318 -0.35746,-19.5917 1.05489,-4.0796 2.88304,-7.9242 5.48445,-11.534 2.59115,-3.6554 5.44299,-6.5766 8.55554,-8.7638 4.94046,-3.4615 11.66446,-6.1461 20.17201,-8.0537 11.8922,-2.6663 21.42547,-2.5699 28.59983,0.289 7.21998,2.8489 13.00569,8.0849 17.35714,15.7081 l -25.49276,9.3908 c -1.52072,-2.9256 -3.55314,-4.9199 -6.09727,-5.9828 -2.50873,-1.1189 -5.59265,-1.2681 -9.25176,-0.4477 -4.61971,1.0358 -7.99602,3.5463 -10.12893,7.5313 -2.09749,3.9291 -2.39244,9.2555 -0.88488,15.9791 1.34342,5.9919 3.78175,10.2251 7.31499,12.6995 3.53317,2.4744 7.49526,3.2194 11.88628,2.2349 3.65911,-0.8204 6.51341,-2.4452 8.56292,-4.8743 2.09514,-2.4394 3.32437,-5.7414 3.68768,-9.9062" />
    <path
       inkscape:connector-curvature="0"
       id="path3180"
       style="font-size:144px;font-style:normal;font-variant:normal;font-weight:normal;font-stretch:normal;text-align:center;line-height:125%;letter-spacing:0px;word-spacing:0px;writing-mode:lr-tb;text-anchor:middle;fill:none;stroke:#000000;stroke-opacity:1;font-family:Arial Black;-inkscape-font-specification:'Arial Black,'"
       d="m 822.25296,1158.6213 26.60143,-10.5503 13.99787,35.2943 c 2.13036,-5.1816 4.66235,-9.287 7.59595,-12.3164 2.93357,-3.0292 6.84046,-5.5116 11.72068,-7.4472 7.23311,-2.8686 13.79211,-2.9233 19.67702,-0.1643 5.92838,2.742 10.6985,8.6663 14.31035,17.7731 l 17.49734,44.1178 -26.73215,10.6021 -15.13843,-38.1701 c -1.72817,-4.3573 -3.7526,-7.1095 -6.07331,-8.2566 -2.33805,-1.1906 -4.96676,-1.207 -7.88614,-0.049 -3.22444,1.2789 -5.35495,3.5359 -6.39154,6.7708 -1.03663,3.2351 -0.30204,8.0117 2.20377,14.3297 l 13.22021,33.3335 -26.60143,10.5503 -38.00162,-95.8174" />
    <path
       inkscape:connector-curvature="0"
       id="path3182"
       style="font-size:144px;font-style:normal;font-variant:normal;font-weight:normal;font-stretch:normal;text-align:center;line-height:125%;letter-spacing:0px;word-spacing:0px;writing-mode:lr-tb;text-anchor:middle;fill:none;stroke:#000000;stroke-opacity:1;font-family:Arial Black;-inkscape-font-specification:'Arial Black,'"
       d="m 1005.1814,1149.41 -49.37867,29.2171 c 2.78302,3.691 5.59461,6.0034 8.43476,6.9372 4.0272,1.3753 7.95705,0.9291 11.78958,-1.3386 2.42048,-1.4322 4.36192,-3.3979 5.82432,-5.8972 0.87771,-1.5542 1.5102,-3.753 1.89747,-6.5966 l 25.59054,-12.1189 c 0.1077,8.6508 -1.6252,15.9398 -5.1987,21.8668 -3.5975,5.8867 -10.29772,11.7303 -20.10078,17.5308 -8.5122,5.0366 -15.91314,7.8089 -22.20284,8.317 -6.31362,0.4678 -12.62372,-0.9455 -18.93033,-4.24 -6.29014,-3.3587 -11.52385,-8.568 -15.70115,-15.6279 -5.94366,-10.0451 -7.54631,-20.0717 -4.80796,-30.0798 2.77873,-10.0318 9.83613,-18.4015 21.17223,-25.1092 9.19797,-5.4423 17.28305,-8.3471 24.25526,-8.7145 6.97216,-0.3671 13.41354,1.2681 19.32418,4.9058 5.91054,3.6378 11.37221,9.6926 16.38499,18.1644 l 1.6471,2.7836 m -32.03447,3.0233 c -3.30082,-4.4738 -6.60879,-7.1189 -9.92393,-7.9352 -3.27484,-0.8399 -6.60662,-0.2574 -9.99533,1.7476 -3.91319,2.3155 -6.12069,5.7186 -6.62251,10.2093 -0.34689,2.8197 0.41179,6.2651 2.27604,10.3362 l 24.26573,-14.3579" />
    <path
       inkscape:connector-curvature="0"
       id="path3184"
       style="font-size:144px;font-style:normal;font-variant:normal;font-weight:normal;font-stretch:normal;text-align:center;line-height:125%;letter-spacing:0px;word-spacing:0px;writing-mode:lr-tb;text-anchor:middle;fill:none;stroke:#000000;stroke-opacity:1;font-family:Arial Black;-inkscape-font-specification:'Arial Black,'"
       d="m 969.11385,1083.9824 22.76468,-17.3411 11.80217,15.4934 -22.7647,17.3411 -11.80215,-15.4934 m 17.21325,22.5969 22.7647,-17.3411 45.2487,59.4007 -22.7647,17.3411 -45.2487,-59.4007" />
    <path
       inkscape:connector-curvature="0"
       id="path3186"
       style="font-size:144px;font-style:normal;font-variant:normal;font-weight:normal;font-stretch:normal;text-align:center;line-height:125%;letter-spacing:0px;word-spacing:0px;writing-mode:lr-tb;text-anchor:middle;fill:none;stroke:#000000;stroke-opacity:1;font-family:Arial Black;-inkscape-font-specification:'Arial Black,'"
       d="m 997.75367,1063.5634 20.76773,-20.0953 24.838,25.6692 c -0.031,-4.1442 0.7285,-8.0103 2.2793,-11.5982 1.5845,-3.6203 3.96,-6.9626 7.1265,-10.0266 6.5352,-6.3235 14.2236,-9.1971 23.0652,-8.6207 8.809,0.5429 17.4672,5.2103 25.9747,14.0024 5.6717,5.8616 9.6982,11.9777 12.0797,18.3485 2.3487,6.3372 2.8639,12.2962 1.5456,17.8768 -1.3174,5.5144 -4.0814,10.3088 -8.2922,14.3833 -3.6045,3.4877 -7.6555,5.9073 -12.1529,7.2587 -3.4305,0.9713 -8.0898,1.0769 -13.978,0.317 l 7.6763,7.9332 -19.2519,18.6284 -71.67803,-74.0767 m 66.18503,27.1452 c 4.4656,4.6151 8.5679,7.1357 12.3068,7.5619 3.7401,0.3599 6.9407,-0.7477 9.6019,-3.3228 2.4591,-2.3794 3.5361,-5.3783 3.2311,-8.9968 -0.3041,-3.6846 -2.7867,-7.9355 -7.4478,-12.7527 -4.1071,-4.2445 -7.9475,-6.5619 -11.5213,-6.9523 -3.5401,-0.4228 -6.4724,0.4903 -8.7967,2.7393 -2.796,2.7055 -4.0762,5.9663 -3.8407,9.7824 0.2367,3.7499 2.3922,7.7303 6.4667,11.941" />
    <path
       inkscape:connector-curvature="0"
       id="path3188"
       style="font-size:144px;font-style:normal;font-variant:normal;font-weight:normal;font-stretch:normal;text-align:center;line-height:125%;letter-spacing:0px;word-spacing:0px;writing-mode:lr-tb;text-anchor:middle;fill:none;stroke:#000000;stroke-opacity:1;font-family:Arial Black;-inkscape-font-specification:'Arial Black,'"
       d="m 1162.9377,985.28409 -34.325,45.97481 c 3.9895,2.3351 7.4746,3.3869 10.4553,3.1554 4.2463,-0.2811 7.7015,-2.2058 10.3656,-5.7742 1.6826,-2.2536 2.7176,-4.8152 3.1052,-7.6849 0.2117,-1.7722 -0.051,-4.0451 -0.7883,-6.8186 l 18.9527,-21.03657 c 3.4298,7.94267 4.6365,15.33687 3.6201,22.18277 -1.0539,6.818 -4.9881,14.7907 -11.8026,23.918 -5.9172,7.9254 -11.6804,13.3332 -17.2898,16.2235 -5.6469,2.8624 -12.0148,3.9871 -19.1036,3.3744 -7.0984,-0.6783 -13.9341,-3.4712 -20.5074,-8.3788 -9.3526,-6.9828 -14.6917,-15.6196 -16.0173,-25.9105 -1.2974,-10.3284 1.9939,-20.77 9.8741,-31.32472 6.3939,-8.56384 12.7375,-14.35734 19.0309,-17.38051 6.2935,-3.02297 12.8679,-3.99352 19.7234,-2.91167 6.8555,1.08207 14.2272,4.5676 22.115,10.4566 l 2.5917,1.93499 m -28.4015,15.12281 c -4.7687,-2.85835 -8.84,-4.02605 -12.2139,-3.50317 -3.3458,0.48549 -6.1965,2.30576 -8.5522,5.46077 -2.7202,3.6435 -3.4474,7.6342 -2.1818,11.972 0.7654,2.7359 2.792,5.6237 6.0798,8.6634 l 16.8681,-22.593" />
    <path
       style="font-size:144px;font-style:normal;font-variant:normal;font-weight:normal;font-stretch:normal;text-align:center;line-height:125%;letter-spacing:0px;word-spacing:0px;writing-mode:lr-tb;text-anchor:middle;fill:none;stroke:#000000;stroke-opacity:1;font-family:Arial Black;-inkscape-font-specification:'Arial Black,'"
       d="M 242.90625 930.65625 L 241.40625 932.6875 C 216.29866 966.95439 190.57771 1001.0346 165.09375 1035.125 C 175.93058 1047.7752 186.79425 1060.4026 197.65625 1073.0312 C 207.73413 1068.2595 217.82533 1063.5155 227.90625 1058.75 C 221.74251 1068.0116 215.55386 1077.2446 209.375 1086.5 C 220.18472 1099.2143 231.02292 1111.7255 241.90625 1124.4062 C 248.23938 1120.9758 254.57224 1117.5543 260.90625 1114.125 C 258.64542 1121.4406 258.80731 1129.4416 262.3125 1136.5625 C 268.90431 1151.0892 283.5194 1160.7235 298.5 1165.0312 C 301.88785 1175.9325 314.20246 1179.322 321.5 1186.9062 C 323.30387 1188.3194 325.10468 1189.7396 326.90625 1191.1562 C 326.85427 1191.2502 326.80198 1191.3437 326.75 1191.4375 C 327.30462 1191.7454 327.85162 1192.0671 328.40625 1192.375 C 333.88472 1196.6878 339.3749 1200.986 344.84375 1205.3125 C 344.16101 1203.7538 343.60729 1202.156 343.15625 1200.5312 C 352.7878 1205.8718 362.41903 1211.2127 372.0625 1216.5312 C 373.18334 1215.9432 375.37652 1210.0747 375.4375 1213.9688 C 378.88145 1224.399 391.77087 1225.9962 399.6875 1231.875 C 405.54027 1235.1574 411.41938 1238.359 417.28125 1241.625 C 419.25253 1236.8444 421.57257 1232.2122 424.0625 1227.6562 C 425.63326 1233.0725 428.19792 1238.2282 431.84375 1242.8125 C 440.65267 1253.2042 454.74457 1257.9382 468.125 1257.2812 C 475.89033 1265.639 488.44937 1265.1556 497.875 1270.5625 C 503.78462 1272.8043 512.6764 1270.5965 513.09375 1263.1875 C 513.70747 1261.4897 514.32391 1259.7916 514.9375 1258.0938 C 522.37829 1272.046 536.6011 1282.1999 552.4375 1284.3438 C 568.91118 1288.824 588.19454 1287.0961 602.125 1277.1562 C 601.8447 1281.8454 601.56475 1286.5298 601.28125 1291.2188 C 618.46255 1292.3229 635.65369 1293.2643 652.84375 1294.2188 C 658.21894 1276.8834 652.13033 1257.0849 659.875 1240.7812 C 661.93607 1242.1912 664.7193 1243.8112 667.34375 1244 C 668.64516 1246.6896 670.21493 1249.2188 672.03125 1251.4062 C 664.70446 1253.8549 660.3713 1262.7738 664.21875 1269.7812 C 670.35832 1287.5068 690.24675 1296.339 708.0625 1295.125 C 727.45656 1295.6417 750.07665 1291.0086 760.9375 1273.3438 C 761.27267 1272.7928 761.57579 1272.2249 761.875 1271.6562 C 766.38014 1275.5906 771.66125 1278.6351 777.65625 1280.4375 C 801.30564 1286.8943 829.06652 1280.3585 845.65625 1262.0625 C 846.73697 1260.7171 847.74936 1259.3088 848.6875 1257.8438 C 850.29193 1261.896 851.89873 1265.9461 853.5 1270 C 869.59365 1263.6012 885.71499 1257.3409 901.75 1250.8438 C 901.2812 1248.13 899.04775 1244.4683 903 1247 C 913.86785 1249.8538 923.07847 1240.8673 933.125 1238.4062 C 938.59501 1236.292 944.18186 1234.0865 949.6875 1231.875 C 946.9759 1226.8227 944.67137 1221.5347 942.5625 1216.1562 C 948.56557 1218.5654 955.06161 1219.7471 961.8125 1219.3125 C 982.10744 1216.9366 1001.017 1205.265 1013.25 1189.1875 C 1016.6433 1183.8688 1019.2289 1177.7279 1020.5625 1171.375 C 1023.4817 1175.1966 1026.391 1179.024 1029.3125 1182.8438 C 1042.2022 1172.9783 1055.1175 1163.1464 1068.0312 1153.3125 C 1068.4238 1153.7121 1068.8261 1154.1006 1069.2188 1154.5 C 1084.2032 1140.9345 1097.2509 1125.1366 1113.9375 1113.8438 C 1125.8165 1103.4574 1130.5942 1086.077 1126.75 1070.9375 C 1144.1146 1071.7421 1161.532 1062.7827 1170.9688 1048.1562 C 1184.8528 1032.2475 1191.788 1008.251 1181.875 988.5625 C 1179.3039 982.0511 1176.4 975.68395 1173.5625 969.28125 C 1172.2971 971.29551 1171.2155 974.20476 1169.9688 975.90625 C 1159.4869 966.65792 1145.7021 960.10723 1131.4688 960.46875 C 1106.684 961.78327 1087.8562 982.83863 1079.7812 1004.8438 C 1077.1544 1012.155 1076.6949 1019.7724 1077.9375 1027.125 C 1073.2716 1026.5997 1068.4802 1026.8453 1063.6875 1028.0312 C 1053.2607 1030.6148 1043.9731 1037.4012 1038.125 1046.375 C 1031.6554 1039.7754 1025.2973 1033.0966 1018.7188 1026.5938 L 1018 1027.2812 L 1017.3125 1027.9688 C 1009.6196 1035.2839 1002.0307 1042.7407 994.40625 1050.125 C 994.3165 1050.0074 994.21475 1049.8989 994.125 1049.7812 C 993.59375 1050.1876 993.0625 1050.5937 992.53125 1051 C 979.12151 1061.2623 965.68618 1071.491 952.25 1081.7188 C 959.83889 1091.6897 967.44262 1101.6538 975.03125 1111.625 C 973.10267 1111.4152 971.16776 1111.3733 969.21875 1111.4688 C 943.90572 1113.3365 918.00983 1129.6899 910.78125 1154.6875 C 897.10404 1146.3286 878.01982 1148.4664 866.03125 1159 C 862.70734 1150.0973 859.00993 1141.3417 855.59375 1132.5 L 853.71875 1133.25 C 838.06295 1139.5199 822.36011 1145.5918 806.6875 1151.875 C 810.36029 1161.2034 814.0264 1170.5225 817.71875 1179.8438 C 813.07394 1178.7217 808.20905 1178.3692 803.25 1178.9062 C 783.60442 1179.6828 762.44239 1188.0565 751.5 1204.8125 C 743.35673 1196.6264 732.07964 1191.5933 720.3125 1192.3438 C 707.54133 1192.2731 693.20717 1193.6641 681.84375 1199.875 C 677.08907 1196.5556 670.69259 1194.9129 665.28125 1194.4375 C 659.64809 1193.4759 653.96548 1196.4601 648.6875 1196.0312 C 639.00735 1192.5896 628.39753 1195.3841 618.5 1193.25 C 617.55242 1193.27 616.60242 1193.2103 615.65625 1193.2812 C 611.54836 1193.6773 608.57279 1196.5074 607.03125 1200.0625 C 604.81395 1197.8004 602.30176 1195.7815 599.46875 1194.0625 C 586.6188 1185.596 570.84336 1182.6965 555.59375 1183.0625 C 550.44149 1183.2373 545.51905 1184.3549 540.9375 1186.2188 C 544.71826 1175.8074 548.50908 1165.4031 552.3125 1155 C 535.75698 1148.9782 519.19814 1142.9657 502.65625 1136.9062 L 502.3125 1137.8438 L 501.96875 1138.7812 C 498.60207 1146.6143 496.65863 1154.9868 493.0625 1162.6875 C 480.98993 1154.7867 464.9045 1154.305 451.84375 1160.0625 C 448.14586 1142.7192 430.37493 1129.8728 412.96875 1129.375 C 408.4308 1120.035 396.58679 1118.6916 388.84375 1113.2188 C 384.44401 1111.3462 380.81625 1106.3476 375.5 1107.4062 C 374.94567 1107.6303 374.44062 1107.8893 373.96875 1108.1875 C 368.12964 1094.8781 355.08247 1085.0697 343.1875 1077.125 C 341.17452 1075.7548 339.08712 1074.4434 336.9375 1073.2188 C 343.49705 1069.7233 350.05434 1066.2246 356.625 1062.75 C 344.62222 1048.8448 332.63191 1034.9286 320.65625 1021 C 315.72042 1023.8778 310.80574 1026.7923 305.84375 1029.625 C 309.08982 1024.7972 312.27607 1019.9233 315.53125 1015.0938 C 305.12646 1002.7526 294.44917 990.5879 284.03125 978.34375 C 279.55206 980.15212 270.98862 985.19743 269.0625 984.96875 C 271.42179 980.41238 279.00748 975.82227 277.875 971.3125 C 266.26638 957.65208 254.53041 944.2363 242.90625 930.65625 z M 1070.3438 1079.2812 C 1072.7078 1080.3086 1076.1929 1083.7676 1075.875 1085.625 C 1073.3978 1084.3026 1070.8597 1080.5901 1070.3438 1079.2812 z M 477.4375 1206.2188 C 477.9443 1209.2833 476.41512 1212.4656 474.125 1214.3438 C 474.2152 1211.4716 475.72777 1207.7722 477.4375 1206.2188 z M 800.375 1223.375 C 802.9069 1223.774 803.07273 1226.429 802.875 1228.4062 C 805.08186 1230.9416 806.92986 1234.6279 803.96875 1237.4062 C 801.6963 1240.3752 798.48071 1237.4782 797.65625 1234.75 C 795.96517 1231.3703 795.14855 1223.8279 800.375 1223.375 z "
       id="path3997" />
  </g>
  <g
     inkscape:groupmode="layer"
     id="layer5"
     inkscape:label="Text"
     style="display:inline">
    <path
       style="fill:none;stroke:#000000;stroke-width:1px;stroke-linecap:butt;stroke-linejoin:miter;stroke-opacity:1"
       d="m 615.56757,673.22834 140.25591,0"
       id="path3893"
       inkscape:connector-curvature="0" />
    <path
       style="fill:none;stroke:#000000;stroke-width:1px;stroke-linecap:butt;stroke-linejoin:miter;stroke-opacity:1"
       d="m 673.22833,604.65878 0,140.2559"
       id="path3895"
       inkscape:connector-curvature="0" />
  </g>
</svg>
