999
dxflib 2.0.4.8
  0
SECTION
  2
HEADER
  9
$ACADVER
  1
AC1015
  9
$HANDSEED
  5
FFFF
  9
$DIMASZ
 40
2.5
  9
$DIMGAP
 40
0.625
  9
$DIMEXO
 40
0.625
  9
$INSUNITS
 70
4
  9
$DIMTXT
 40
2.5
  9
$DIMSTYLE
  2
Standard
  9
$PLIMMAX
 10
210.0
 20
297.0
  9
$PLIMMIN
 10
0.0
 20
0.0
  9
$DIMEXE
 40
1.25
  0
ENDSEC
  0
SECTION
  2
TABLES
  0
TABLE
  2
VPORT
  5
8
100
AcDbSymbolTable
 70
1
  0
VPORT
  5
30
100
AcDbSymbolTableRecord
100
AcDbViewportTableRecord
  2
*Active
 70
0
 10
0.0
 20
0.0
 11
1.0
 21
1.0
 12
286.3055555555554861
 22
148.5
 13
0.0
 23
0.0
 14
10.0
 24
10.0
 15
10.0
 25
10.0
 16
0.0
 26
0.0
 36
1.0
 17
0.0
 27
0.0
 37
0.0
 40
297.0
 41
1.92798353909465
 42
50.0
 43
0.0
 44
0.0
 50
0.0
 51
0.0
 71
0
 72
100
 73
1
 74
3
 75
1
 76
1
 77
0
 78
0
281
0
 65
1
110
0.0
120
0.0
130
0.0
111
1.0
121
0.0
131
0.0
112
0.0
122
1.0
132
0.0
 79
0
146
0.0
  0
ENDTAB
  0
TABLE
  2
LTYPE
  5
5
100
AcDbSymbolTable
 70
21
  0
LTYPE
  5
14
100
AcDbSymbolTableRecord
100
AcDbLinetypeTableRecord
  2
ByBlock
 70
0
  3

 72
65
 73
0
 40
0.0
  0
LTYPE
  5
15
100
AcDbSymbolTableRecord
100
AcDbLinetypeTableRecord
  2
ByLayer
 70
0
  3

 72
65
 73
0
 40
0.0
  0
LTYPE
  5
16
100
AcDbSymbolTableRecord
100
AcDbLinetypeTableRecord
  2
CONTINUOUS
 70
0
  3
Solid line
 72
65
 73
0
 40
0.0
  0
LTYPE
  5
31
100
AcDbSymbolTableRecord
100
AcDbLinetypeTableRecord
  2
DOT
 70
0
  3
Dot . . . . . . . . . . . . . . . . . . . . . .
 72
65
 73
2
 40
6.3499999999999996
 49
0.0
 74
0
 49
-6.3499999999999996
 74
0
  0
LTYPE
  5
32
100
AcDbSymbolTableRecord
100
AcDbLinetypeTableRecord
  2
DOT2
 70
0
  3
Dot (.5x) .....................................
 72
65
 73
2
 40
3.1749999999999998
 49
0.0
 74
0
 49
-3.1749999999999998
 74
0
  0
LTYPE
  5
33
100
AcDbSymbolTableRecord
100
AcDbLinetypeTableRecord
  2
DOTX2
 70
0
  3
Dot (2x) .  .  .  .  .  .  .  .  .  .  .  .  .
 72
65
 73
2
 40
12.6999999999999993
 49
0.0
 74
0
 49
-12.6999999999999993
 74
0
  0
LTYPE
  5
34
100
AcDbSymbolTableRecord
100
AcDbLinetypeTableRecord
  2
DASHED
 70
0
  3
Dashed __ __ __ __ __ __ __ __ __ __ __ __ __ _
 72
65
 73
2
 40
19.0500000000000007
 49
12.6999999999999993
 74
0
 49
-6.3499999999999996
 74
0
  0
LTYPE
  5
35
100
AcDbSymbolTableRecord
100
AcDbLinetypeTableRecord
  2
DASHED2
 70
0
  3
Dashed (.5x) _ _ _ _ _ _ _ _ _ _ _ _ _ _ _ _ _
 72
65
 73
2
 40
9.5250000000000004
 49
6.3499999999999996
 74
0
 49
-3.1749999999999998
 74
0
  0
LTYPE
  5
36
100
AcDbSymbolTableRecord
100
AcDbLinetypeTableRecord
  2
DASHEDX2
 70
0
  3
Dashed (2x) ____  ____  ____  ____  ____  ___
 72
65
 73
2
 40
38.1000000000000014
 49
25.3999999999999986
 74
0
 49
-12.6999999999999993
 74
0
  0
LTYPE
  5
37
100
AcDbSymbolTableRecord
100
AcDbLinetypeTableRecord
  2
DASHDOT
 70
0
  3
Dash dot __ . __ . __ . __ . __ . __ . __ . __
 72
65
 73
4
 40
25.3999999999999986
 49
12.6999999999999993
 74
0
 49
-6.3499999999999996
 74
0
 49
0.0
 74
0
 49
-6.3499999999999996
 74
0
  0
LTYPE
  5
38
100
AcDbSymbolTableRecord
100
AcDbLinetypeTableRecord
  2
DASHDOT2
 70
0
  3
Dash dot (.5x) _._._._._._._._._._._._._._._.
 72
65
 73
4
 40
12.6999999999999993
 49
6.3499999999999996
 74
0
 49
-3.1749999999999998
 74
0
 49
0.0
 74
0
 49
-3.1749999999999998
 74
0
  0
LTYPE
  5
39
100
AcDbSymbolTableRecord
100
AcDbLinetypeTableRecord
  2
DASHDOTX2
 70
0
  3
Dash dot (2x) ____  .  ____  .  ____  .  ___
 72
65
 73
4
 40
50.7999999999999972
 49
25.3999999999999986
 74
0
 49
-12.6999999999999993
 74
0
 49
0.0
 74
0
 49
-12.6999999999999993
 74
0
  0
LTYPE
  5
3A
100
AcDbSymbolTableRecord
100
AcDbLinetypeTableRecord
  2
DIVIDE
 70
0
  3
Divide ____ . . ____ . . ____ . . ____ . . ____
 72
65
 73
6
 40
31.75
 49
12.6999999999999993
 74
0
 49
-6.3499999999999996
 74
0
 49
0.0
 74
0
 49
-6.3499999999999996
 74
0
 49
0.0
 74
0
 49
-6.3499999999999996
 74
0
  0
LTYPE
  5
3B
100
AcDbSymbolTableRecord
100
AcDbLinetypeTableRecord
  2
DIVIDE2
 70
0
  3
Divide (.5x) __..__..__..__..__..__..__..__.._
 72
65
 73
6
 40
15.875
 49
6.3499999999999996
 74
0
 49
-3.1749999999999998
 74
0
 49
0.0
 74
0
 49
-3.1749999999999998
 74
0
 49
0.0
 74
0
 49
-3.1749999999999998
 74
0
  0
LTYPE
  5
3C
100
AcDbSymbolTableRecord
100
AcDbLinetypeTableRecord
  2
DIVIDEX2
 70
0
  3
Divide (2x) ________  .  .  ________  .  .  _
 72
65
 73
6
 40
63.5
 49
25.3999999999999986
 74
0
 49
-12.6999999999999993
 74
0
 49
0.0
 74
0
 49
-12.6999999999999993
 74
0
 49
0.0
 74
0
 49
-12.6999999999999993
 74
0
  0
LTYPE
  5
3D
100
AcDbSymbolTableRecord
100
AcDbLinetypeTableRecord
  2
CENTER
 70
0
  3
Center ____ _ ____ _ ____ _ ____ _ ____ _ ____
 72
65
 73
4
 40
50.7999999999999972
 49
31.75
 74
0
 49
-6.3499999999999996
 74
0
 49
6.3499999999999996
 74
0
 49
-6.3499999999999996
 74
0
  0
LTYPE
  5
3E
100
AcDbSymbolTableRecord
100
AcDbLinetypeTableRecord
  2
CENTER2
 70
0
  3
Center (.5x) ___ _ ___ _ ___ _ ___ _ ___ _ ___
 72
65
 73
4
 40
28.5749999999999993
 49
19.0500000000000007
 74
0
 49
-3.1749999999999998
 74
0
 49
3.1749999999999998
 74
0
 49
-3.1749999999999998
 74
0
  0
LTYPE
  5
3F
100
AcDbSymbolTableRecord
100
AcDbLinetypeTableRecord
  2
CENTERX2
 70
0
  3
Center (2x) ________  __  ________  __  _____
 72
65
 73
4
 40
101.5999999999999943
 49
63.5
 74
0
 49
-12.6999999999999993
 74
0
 49
12.6999999999999993
 74
0
 49
-12.6999999999999993
 74
0
  0
LTYPE
  5
40
100
AcDbSymbolTableRecord
100
AcDbLinetypeTableRecord
  2
BORDER
 70
0
  3
Border __ __ . __ __ . __ __ . __ __ . __ __ .
 72
65
 73
6
 40
44.4500000000000028
 49
12.6999999999999993
 74
0
 49
-6.3499999999999996
 74
0
 49
12.6999999999999993
 74
0
 49
-6.3499999999999996
 74
0
 49
0.0
 74
0
 49
-6.3499999999999996
 74
0
  0
LTYPE
  5
41
100
AcDbSymbolTableRecord
100
AcDbLinetypeTableRecord
  2
BORDER2
 70
0
  3
Border (.5x) __.__.__.__.__.__.__.__.__.__.__.
 72
65
 73
6
 40
22.2250000000000014
 49
6.3499999999999996
 74
0
 49
-3.1749999999999998
 74
0
 49
6.3499999999999996
 74
0
 49
-3.1749999999999998
 74
0
 49
0.0
 74
0
 49
-3.1749999999999998
 74
0
  0
LTYPE
  5
42
100
AcDbSymbolTableRecord
100
AcDbLinetypeTableRecord
  2
BORDERX2
 70
0
  3
Border (2x) ____  ____  .  ____  ____  .  ___
 72
65
 73
6
 40
88.9000000000000057
 49
25.3999999999999986
 74
0
 49
-12.6999999999999993
 74
0
 49
25.3999999999999986
 74
0
 49
-12.6999999999999993
 74
0
 49
0.0
 74
0
 49
-12.6999999999999993
 74
0
  0
ENDTAB
  0
TABLE
  2
LAYER
  5
2
100
AcDbSymbolTable
 70
4
  0
LAYER
  5
10
100
AcDbSymbolTableRecord
100
AcDbLayerTableRecord
  2
0
 70
0
 62
7
  6
CONTINUOUS
370
0
390
F
  0
LAYER
  5
43
100
AcDbSymbolTableRecord
100
AcDbLayerTableRecord
  2
zwischen-cut-full-inside
 70
0
 62
15
  6
CONTINUOUS
370
-3
390
F
  0
LAYER
  5
44
100
AcDbSymbolTableRecord
100
AcDbLayerTableRecord
  2
zwischen-cut-full-outside
 70
0
 62
2
  6
CONTINUOUS
370
-3
390
F
  0
LAYER
  5
45
100
AcDbSymbolTableRecord
100
AcDbLayerTableRecord
  2
hilf
 70
0
 62
4
  6
CONTINUOUS
370
0
390
F
  0
ENDTAB
  0
TABLE
  2
STYLE
  5
3
100
AcDbSymbolTable
 70
1
  0
STYLE
  5
11
100
AcDbSymbolTableRecord
100
AcDbTextStyleTableRecord
  2
Standard
 70
0
 40
0.0
 41
0.75
 50
0.0
 71
0
 42
2.5
  3
txt
  4

  0
ENDTAB
  0
TABLE
  2
VIEW
  5
6
100
AcDbSymbolTable
 70
0
  0
ENDTAB
  0
TABLE
  2
UCS
  5
7
100
AcDbSymbolTable
 70
0
  0
ENDTAB
  0
TABLE
  2
APPID
  5
9
100
AcDbSymbolTable
 70
1
  0
APPID
  5
12
100
AcDbSymbolTableRecord
100
AcDbRegAppTableRecord
  2
ACAD
 70
0
  0
ENDTAB
  0
TABLE
  2
DIMSTYLE
  5
A
100
AcDbSymbolTable
 70
1
100
AcDbDimStyleTable
 71
0
  0
DIMSTYLE
105
27
100
AcDbSymbolTableRecord
100
AcDbDimStyleTableRecord
  2
Standard
 41
2.5
 42
0.625
 43
3.75
 44
1.25
 70
0
 73
0
 74
0
 77
1
 78
8
140
2.5
141
2.5
143
0.03937007874016
147
0.625
171
3
172
1
271
2
272
2
274
3
278
44
283
0
284
8
340
11
  0
ENDTAB
  0
TABLE
  2
BLOCK_RECORD
  5
1
100
AcDbSymbolTable
 70
1
  0
BLOCK_RECORD
  5
1F
100
AcDbSymbolTableRecord
100
AcDbBlockTableRecord
  2
*Model_Space
340
22
  0
BLOCK_RECORD
  5
1B
100
AcDbSymbolTableRecord
100
AcDbBlockTableRecord
  2
*Paper_Space
340
1E
  0
BLOCK_RECORD
  5
23
100
AcDbSymbolTableRecord
100
AcDbBlockTableRecord
  2
*Paper_Space0
340
26
  0
ENDTAB
  0
ENDSEC
  0
SECTION
  2
BLOCKS
  0
BLOCK
  5
20
100
AcDbEntity
  8
0
100
AcDbBlockBegin
  2
*Model_Space
 70
0
 10
0.0
 20
0.0
 30
0.0
  3
*Model_Space
  1

  0
ENDBLK
  5
21
100
AcDbEntity
  8
0
100
AcDbBlockEnd
  0
BLOCK
  5
1C
100
AcDbEntity
 67
1
  8
0
100
AcDbBlockBegin
  2
*Paper_Space
 70
0
 10
0.0
 20
0.0
 30
0.0
  3
*Paper_Space
  1

  0
ENDBLK
  5
1D
100
AcDbEntity
 67
1
  8
0
100
AcDbBlockEnd
  0
BLOCK
  5
24
100
AcDbEntity
  8
0
100
AcDbBlockBegin
  2
*Paper_Space0
 70
0
 10
0.0
 20
0.0
 30
0.0
  3
*Paper_Space0
  1

  0
ENDBLK
  5
25
100
AcDbEntity
  8
0
100
AcDbBlockEnd
  0
ENDSEC
  0
SECTION
  2
ENTITIES
  0
LINE
  5
46
100
AcDbEntity
100
AcDbLine
  8
hilf
 62
256
370
-1
  6
ByLayer
 10
20.0
 20
80.0
 30
0.0
 11
50.0
 21
80.0
 31
0.0
  0
LINE
  5
47
100
AcDbEntity
100
AcDbLine
  8
hilf
 62
256
370
-1
  6
ByLayer
 10
20.0
 20
10.0
 30
0.0
 11
50.0
 21
10.0
 31
0.0
  0
LINE
  5
48
100
AcDbEntity
100
AcDbLine
  8
zwischen-cut-full-outside
 62
256
370
-1
  6
ByLayer
 10
30.0
 20
0.0
 30
0.0
 11
46.0
 21
0.0
 31
0.0
  0
LINE
  5
49
100
AcDbEntity
100
AcDbLine
  8
zwischen-cut-full-outside
 62
256
370
-1
  6
ByLayer
 10
46.0
 20
90.0
 30
0.0
 11
30.0
 21
90.0
 31
0.0
  0
LINE
  5
4A
100
AcDbEntity
100
AcDbLine
  8
hilf
 62
256
370
-1
  6
ByLayer
 10
38.0
 20
90.0
 30
0.0
 11
38.0
 21
0.0
 31
0.0
  0
LINE
  5
4B
100
AcDbEntity
100
AcDbLine
  8
zwischen-cut-full-inside
 62
256
370
-1
  6
ByLayer
 10
27.9204689444558554
 20
19.6170000000002425
 30
0.0
 11
33.8250000000003084
 21
19.6170000000002389
 31
0.0
  0
LINE
  5
4C
100
AcDbEntity
100
AcDbLine
  8
zwischen-cut-full-inside
 62
256
370
-1
  6
ByLayer
 10
33.8250000000003084
 20
19.6170000000002389
 30
0.0
 11
33.8250000000003084
 21
20.9430000000003425
 31
0.0
  0
LINE
  5
4D
100
AcDbEntity
100
AcDbLine
  8
zwischen-cut-full-inside
 62
256
370
-1
  6
ByLayer
 10
33.8250000000003084
 20
20.9430000000003425
 30
0.0
 11
27.9204689444558518
 21
20.943000000000346
 31
0.0
  0
LINE
  5
4E
100
AcDbEntity
100
AcDbLine
  8
zwischen-cut-full-inside
 62
256
370
-1
  6
ByLayer
 10
27.9204689444558518
 20
20.943000000000346
 30
0.0
 11
27.9204689444558554
 21
19.6170000000002425
 31
0.0
  0
LINE
  5
4F
100
AcDbEntity
100
AcDbLine
  8
zwischen-cut-full-inside
 62
256
370
-1
  6
ByLayer
 10
27.9204689444558625
 20
31.2450000000003882
 30
0.0
 11
33.8250000000003226
 21
31.2450000000003882
 31
0.0
  0
LINE
  5
50
100
AcDbEntity
100
AcDbLine
  8
zwischen-cut-full-inside
 62
256
370
-1
  6
ByLayer
 10
33.8250000000003226
 20
31.2450000000003882
 30
0.0
 11
33.8250000000003155
 21
29.9190000000004375
 31
0.0
  0
LINE
  5
51
100
AcDbEntity
100
AcDbLine
  8
zwischen-cut-full-inside
 62
256
370
-1
  6
ByLayer
 10
33.8250000000003155
 20
29.9190000000004375
 30
0.0
 11
27.9204689444558554
 21
29.9190000000004375
 31
0.0
  0
LINE
  5
52
100
AcDbEntity
100
AcDbLine
  8
zwischen-cut-full-inside
 62
256
370
-1
  6
ByLayer
 10
27.9204689444558554
 20
29.9190000000004375
 30
0.0
 11
27.9204689444558625
 21
31.2450000000003882
 31
0.0
  0
LINE
  5
53
100
AcDbEntity
100
AcDbLine
  8
zwischen-cut-full-outside
 62
256
370
-1
  6
ByLayer
 10
30.0000000000000036
 20
23.5094388539875894
 30
0.0
 11
30.0000000000000036
 21
23.0850000000003135
 31
0.0
  0
LINE
  5
54
100
AcDbEntity
100
AcDbLine
  8
zwischen-cut-full-outside
 62
256
370
-1
  6
ByLayer
 10
30.0000000000000036
 20
23.0850000000003135
 30
0.0
 11
33.8250000000003155
 21
23.0850000000002673
 31
0.0
  0
LINE
  5
55
100
AcDbEntity
100
AcDbLine
  8
zwischen-cut-full-outside
 62
256
370
-1
  6
ByLayer
 10
33.8250000000003155
 20
23.0850000000002673
 30
0.0
 11
33.8250000000003084
 21
21.7590000000003201
 31
0.0
  0
LINE
  5
56
100
AcDbEntity
100
AcDbLine
  8
zwischen-cut-full-outside
 62
256
370
-1
  6
ByLayer
 10
33.8250000000003084
 20
21.7590000000003201
 30
0.0
 11
24.517500000000215
 21
21.7590000000003201
 31
0.0
  0
ARC
  5
57
100
AcDbEntity
  8
zwischen-cut-full-outside
 62
256
370
-1
  6
ByLayer
100
AcDbCircle
 10
24.517500000000215
 20
21.1215000000003208
 30
0.0
 40
0.6375
100
AcDbArc
 50
90.0
 51
179.921390918086388
  0
LINE
  5
58
100
AcDbEntity
100
AcDbLine
  8
zwischen-cut-full-outside
 62
256
370
-1
  6
ByLayer
 10
23.880000599999093
 20
21.1223746416302554
 30
0.0
 11
23.8800000000002193
 21
19.6344934028473226
 31
0.0
  0
LINE
  5
59
100
AcDbEntity
100
AcDbLine
  8
zwischen-cut-full-outside
 62
256
370
-1
  6
ByLayer
 10
23.8800000000002193
 20
19.6344934028473226
 30
0.0
 11
24.2101250288903778
 21
18.1890000000002345
 31
0.0
  0
LINE
  5
5A
100
AcDbEntity
100
AcDbLine
  8
zwischen-cut-full-outside
 62
256
370
-1
  6
ByLayer
 10
24.2101250288903778
 20
18.1890000000002345
 30
0.0
 11
24.9000000000003112
 21
18.189000000000231
 31
0.0
  0
LINE
  5
5B
100
AcDbEntity
100
AcDbLine
  8
zwischen-cut-full-outside
 62
256
370
-1
  6
ByLayer
 10
24.9000000000003112
 20
18.189000000000231
 30
0.0
 11
25.4100000000003163
 21
18.8010000000002648
 31
0.0
  0
LINE
  5
5C
100
AcDbEntity
100
AcDbLine
  8
zwischen-cut-full-outside
 62
256
370
-1
  6
ByLayer
 10
25.4100000000003163
 20
18.8010000000002648
 30
0.0
 11
26.4650473611390105
 21
18.8010000000002648
 31
0.0
  0
LINE
  5
5D
100
AcDbEntity
100
AcDbLine
  8
zwischen-cut-full-outside
 62
256
370
-1
  6
ByLayer
 10
26.4650473611390105
 20
18.8010000000002648
 30
0.0
 11
33.8250000000003084
 21
18.8010000000002648
 31
0.0
  0
LINE
  5
5E
100
AcDbEntity
100
AcDbLine
  8
zwischen-cut-full-outside
 62
256
370
-1
  6
ByLayer
 10
33.8250000000003084
 20
18.8010000000002648
 30
0.0
 11
33.8250000000003084
 21
17.4750000000002998
 31
0.0
  0
LINE
  5
5F
100
AcDbEntity
100
AcDbLine
  8
zwischen-cut-full-outside
 62
256
370
-1
  6
ByLayer
 10
33.8250000000003084
 20
17.4750000000002998
 30
0.0
 11
30.0
 21
17.4750000000002998
 31
0.0
  0
LINE
  5
60
100
AcDbEntity
100
AcDbLine
  8
zwischen-cut-full-outside
 62
256
370
-1
  6
ByLayer
 10
30.0000000000000071
 20
33.3870000000001852
 30
0.0
 11
33.8250000000003155
 21
33.3870000000001852
 31
0.0
  0
LINE
  5
61
100
AcDbEntity
100
AcDbLine
  8
zwischen-cut-full-outside
 62
256
370
-1
  6
ByLayer
 10
33.8250000000003155
 20
33.3870000000001852
 30
0.0
 11
33.8250000000003084
 21
32.0610000000002273
 31
0.0
  0
LINE
  5
62
100
AcDbEntity
100
AcDbLine
  8
zwischen-cut-full-outside
 62
256
370
-1
  6
ByLayer
 10
33.8250000000003084
 20
32.0610000000002273
 30
0.0
 11
26.4650473611390105
 21
32.0610000000002273
 31
0.0
  0
LINE
  5
63
100
AcDbEntity
100
AcDbLine
  8
zwischen-cut-full-outside
 62
256
370
-1
  6
ByLayer
 10
26.4650473611390105
 20
32.0610000000002273
 30
0.0
 11
25.4100000000003234
 21
32.0610000000002273
 31
0.0
  0
LINE
  5
64
100
AcDbEntity
100
AcDbLine
  8
zwischen-cut-full-outside
 62
256
370
-1
  6
ByLayer
 10
25.4100000000003234
 20
32.0610000000002273
 30
0.0
 11
24.9000000000003041
 21
32.6730000000002505
 31
0.0
  0
LINE
  5
65
100
AcDbEntity
100
AcDbLine
  8
zwischen-cut-full-outside
 62
256
370
-1
  6
ByLayer
 10
24.9000000000003041
 20
32.6730000000002505
 30
0.0
 11
24.2101250288903813
 21
32.6730000000002576
 31
0.0
  0
LINE
  5
66
100
AcDbEntity
100
AcDbLine
  8
zwischen-cut-full-outside
 62
256
370
-1
  6
ByLayer
 10
24.2101250288903813
 20
32.6730000000002576
 30
0.0
 11
23.8800000000002157
 21
31.2275065971534573
 31
0.0
  0
LINE
  5
67
100
AcDbEntity
100
AcDbLine
  8
zwischen-cut-full-outside
 62
256
370
-1
  6
ByLayer
 10
23.8800000000002157
 20
31.2275065971534573
 30
0.0
 11
23.8800000000002157
 21
29.7405000000003099
 31
0.0
  0
ARC
  5
68
100
AcDbEntity
  8
zwischen-cut-full-outside
 62
256
370
-1
  6
ByLayer
100
AcDbCircle
 10
24.5175000000002186
 20
29.7405000000003099
 30
0.0
 40
0.6375
100
AcDbArc
 50
180.0
 51
270.0
  0
LINE
  5
69
100
AcDbEntity
100
AcDbLine
  8
zwischen-cut-full-outside
 62
256
370
-1
  6
ByLayer
 10
24.5175000000002221
 20
29.1030000000003106
 30
0.0
 11
33.8250000000003084
 21
29.1030000000003106
 31
0.0
  0
LINE
  5
6A
100
AcDbEntity
100
AcDbLine
  8
zwischen-cut-full-outside
 62
256
370
-1
  6
ByLayer
 10
33.8250000000003084
 20
29.1030000000003106
 30
0.0
 11
33.8250000000003084
 21
27.7770000000003563
 31
0.0
  0
LINE
  5
6B
100
AcDbEntity
100
AcDbLine
  8
zwischen-cut-full-outside
 62
256
370
-1
  6
ByLayer
 10
33.8250000000003084
 20
27.7770000000003563
 30
0.0
 11
30.0000000000000036
 21
27.7770000000003563
 31
0.0
  0
LINE
  5
6C
100
AcDbEntity
100
AcDbLine
  8
zwischen-cut-full-outside
 62
256
370
-1
  6
ByLayer
 10
30.0000000000000036
 20
27.7770000000003563
 30
0.0
 11
30.0000000000000036
 21
27.3525611460131159
 31
0.0
  0
ARC
  5
6D
100
AcDbEntity
  8
zwischen-cut-full-outside
 62
256
370
-1
  6
ByLayer
100
AcDbCircle
 10
29.5492194269939077
 20
26.9017805730066861
 30
0.0
 40
0.6375000000000051
100
AcDbArc
 50
225.0
 51
45.0
  0
LINE
  5
6E
100
AcDbEntity
100
AcDbLine
  8
zwischen-cut-full-outside
 62
256
370
-1
  6
ByLayer
 10
29.0984388539874388
 20
26.4510000000002563
 30
0.0
 11
24.5175000000001155
 21
26.4510000000002599
 31
0.0
  0
LINE
  5
6F
100
AcDbEntity
100
AcDbLine
  8
zwischen-cut-full-outside
 62
256
370
-1
  6
ByLayer
 10
24.5175000000001155
 20
26.4510000000002599
 30
0.0
 11
23.8800000000001162
 21
25.813500000000154
 31
0.0
  0
LINE
  5
70
100
AcDbEntity
100
AcDbLine
  8
zwischen-cut-full-outside
 62
256
370
-1
  6
ByLayer
 10
23.8800000000001162
 20
25.813500000000154
 30
0.0
 11
23.8800000000001127
 21
25.0485000000002564
 31
0.0
  0
LINE
  5
71
100
AcDbEntity
100
AcDbLine
  8
zwischen-cut-full-outside
 62
256
370
-1
  6
ByLayer
 10
23.8800000000001127
 20
25.0485000000002564
 30
0.0
 11
24.5175000000001155
 21
24.4110000000002643
 31
0.0
  0
LINE
  5
72
100
AcDbEntity
100
AcDbLine
  8
zwischen-cut-full-outside
 62
256
370
-1
  6
ByLayer
 10
24.5175000000001155
 20
24.4110000000002643
 30
0.0
 11
29.098438853987453
 21
24.4110000000004419
 31
0.0
  0
ARC
  5
73
100
AcDbEntity
  8
zwischen-cut-full-outside
 62
256
370
-1
  6
ByLayer
100
AcDbCircle
 10
29.5492194269938864
 20
23.9602194269940227
 30
0.0
 40
0.6375000000000051
100
AcDbArc
 50
315.0
 51
135.0
  0
LINE
  5
74
100
AcDbEntity
100
AcDbLine
  8
zwischen-cut-full-inside
 62
256
370
-1
  6
ByLayer
 10
27.9204689444558554
 20
58.6919999999999362
 30
0.0
 11
33.8250000000003084
 21
58.6919999999999362
 31
0.0
  0
LINE
  5
75
100
AcDbEntity
100
AcDbLine
  8
zwischen-cut-full-inside
 62
256
370
-1
  6
ByLayer
 10
33.8250000000003084
 20
58.6919999999999362
 30
0.0
 11
33.8250000000003084
 21
60.0180000000000433
 31
0.0
  0
LINE
  5
76
100
AcDbEntity
100
AcDbLine
  8
zwischen-cut-full-inside
 62
256
370
-1
  6
ByLayer
 10
33.8250000000003084
 20
60.0180000000000433
 30
0.0
 11
27.9204689444558518
 21
60.0180000000000433
 31
0.0
  0
LINE
  5
77
100
AcDbEntity
100
AcDbLine
  8
zwischen-cut-full-inside
 62
256
370
-1
  6
ByLayer
 10
27.9204689444558518
 20
60.0180000000000433
 30
0.0
 11
27.9204689444558554
 21
58.6919999999999362
 31
0.0
  0
LINE
  5
78
100
AcDbEntity
100
AcDbLine
  8
zwischen-cut-full-inside
 62
256
370
-1
  6
ByLayer
 10
27.9204689444558625
 20
70.3200000000000784
 30
0.0
 11
33.8250000000003226
 21
70.3200000000000784
 31
0.0
  0
LINE
  5
79
100
AcDbEntity
100
AcDbLine
  8
zwischen-cut-full-inside
 62
256
370
-1
  6
ByLayer
 10
33.8250000000003226
 20
70.3200000000000784
 30
0.0
 11
33.8250000000003155
 21
68.9940000000001419
 31
0.0
  0
LINE
  5
7A
100
AcDbEntity
100
AcDbLine
  8
zwischen-cut-full-inside
 62
256
370
-1
  6
ByLayer
 10
33.8250000000003155
 20
68.9940000000001419
 30
0.0
 11
27.9204689444558554
 21
68.9940000000001419
 31
0.0
  0
LINE
  5
7B
100
AcDbEntity
100
AcDbLine
  8
zwischen-cut-full-inside
 62
256
370
-1
  6
ByLayer
 10
27.9204689444558554
 20
68.9940000000001419
 30
0.0
 11
27.9204689444558625
 21
70.3200000000000784
 31
0.0
  0
LINE
  5
7C
100
AcDbEntity
100
AcDbLine
  8
zwischen-cut-full-outside
 62
256
370
-1
  6
ByLayer
 10
30.0000000000000036
 20
62.5844388539872867
 30
0.0
 11
30.0000000000000036
 21
62.1600000000000108
 31
0.0
  0
LINE
  5
7D
100
AcDbEntity
100
AcDbLine
  8
zwischen-cut-full-outside
 62
256
370
-1
  6
ByLayer
 10
30.0000000000000036
 20
62.1600000000000108
 30
0.0
 11
33.8250000000003155
 21
62.1599999999999682
 31
0.0
  0
LINE
  5
7E
100
AcDbEntity
100
AcDbLine
  8
zwischen-cut-full-outside
 62
256
370
-1
  6
ByLayer
 10
33.8250000000003155
 20
62.1599999999999682
 30
0.0
 11
33.8250000000003084
 21
60.8340000000000174
 31
0.0
  0
LINE
  5
7F
100
AcDbEntity
100
AcDbLine
  8
zwischen-cut-full-outside
 62
256
370
-1
  6
ByLayer
 10
33.8250000000003084
 20
60.8340000000000174
 30
0.0
 11
24.517500000000215
 21
60.8340000000000174
 31
0.0
  0
ARC
  5
80
100
AcDbEntity
  8
zwischen-cut-full-outside
 62
256
370
-1
  6
ByLayer
100
AcDbCircle
 10
24.517500000000215
 20
60.1965000000000146
 30
0.0
 40
0.6375
100
AcDbArc
 50
90.0
 51
179.921390918086388
  0
LINE
  5
81
100
AcDbEntity
100
AcDbLine
  8
zwischen-cut-full-outside
 62
256
370
-1
  6
ByLayer
 10
23.880000599999093
 20
60.1973746416299491
 30
0.0
 11
23.8800000000002193
 21
58.7094934028470163
 31
0.0
  0
LINE
  5
82
100
AcDbEntity
100
AcDbLine
  8
zwischen-cut-full-outside
 62
256
370
-1
  6
ByLayer
 10
23.8800000000002193
 20
58.7094934028470163
 30
0.0
 11
24.2101250288903778
 21
57.2639999999999318
 31
0.0
  0
LINE
  5
83
100
AcDbEntity
100
AcDbLine
  8
zwischen-cut-full-outside
 62
256
370
-1
  6
ByLayer
 10
24.2101250288903778
 20
57.2639999999999318
 30
0.0
 11
24.9000000000003112
 21
57.2639999999999247
 31
0.0
  0
LINE
  5
84
100
AcDbEntity
100
AcDbLine
  8
zwischen-cut-full-outside
 62
256
370
-1
  6
ByLayer
 10
24.9000000000003112
 20
57.2639999999999247
 30
0.0
 11
25.4100000000003163
 21
57.8759999999999621
 31
0.0
  0
LINE
  5
85
100
AcDbEntity
100
AcDbLine
  8
zwischen-cut-full-outside
 62
256
370
-1
  6
ByLayer
 10
25.4100000000003163
 20
57.8759999999999621
 30
0.0
 11
26.4650473611390105
 21
57.8759999999999621
 31
0.0
  0
LINE
  5
86
100
AcDbEntity
100
AcDbLine
  8
zwischen-cut-full-outside
 62
256
370
-1
  6
ByLayer
 10
26.4650473611390105
 20
57.8759999999999621
 30
0.0
 11
33.8250000000003084
 21
57.8759999999999621
 31
0.0
  0
LINE
  5
87
100
AcDbEntity
100
AcDbLine
  8
zwischen-cut-full-outside
 62
256
370
-1
  6
ByLayer
 10
33.8250000000003084
 20
57.8759999999999621
 30
0.0
 11
33.8250000000003084
 21
56.5499999999999972
 31
0.0
  0
LINE
  5
88
100
AcDbEntity
100
AcDbLine
  8
zwischen-cut-full-outside
 62
256
370
-1
  6
ByLayer
 10
33.8250000000003084
 20
56.5499999999999972
 30
0.0
 11
30.0
 21
56.5499999999999972
 31
0.0
  0
LINE
  5
89
100
AcDbEntity
100
AcDbLine
  8
zwischen-cut-full-outside
 62
256
370
-1
  6
ByLayer
 10
30.0000000000000071
 20
72.4619999999998754
 30
0.0
 11
33.8250000000003155
 21
72.4619999999998754
 31
0.0
  0
LINE
  5
8A
100
AcDbEntity
100
AcDbLine
  8
zwischen-cut-full-outside
 62
256
370
-1
  6
ByLayer
 10
33.8250000000003155
 20
72.4619999999998754
 30
0.0
 11
33.8250000000003084
 21
71.1359999999999246
 31
0.0
  0
LINE
  5
8B
100
AcDbEntity
100
AcDbLine
  8
zwischen-cut-full-outside
 62
256
370
-1
  6
ByLayer
 10
33.8250000000003084
 20
71.1359999999999246
 30
0.0
 11
26.4650473611390105
 21
71.1359999999999246
 31
0.0
  0
LINE
  5
8C
100
AcDbEntity
100
AcDbLine
  8
zwischen-cut-full-outside
 62
256
370
-1
  6
ByLayer
 10
26.4650473611390105
 20
71.1359999999999246
 30
0.0
 11
25.4100000000003234
 21
71.1359999999999246
 31
0.0
  0
LINE
  5
8D
100
AcDbEntity
100
AcDbLine
  8
zwischen-cut-full-outside
 62
256
370
-1
  6
ByLayer
 10
25.4100000000003234
 20
71.1359999999999246
 30
0.0
 11
24.9000000000003041
 21
71.7479999999999478
 31
0.0
  0
LINE
  5
8E
100
AcDbEntity
100
AcDbLine
  8
zwischen-cut-full-outside
 62
256
370
-1
  6
ByLayer
 10
24.9000000000003041
 20
71.7479999999999478
 30
0.0
 11
24.2101250288903813
 21
71.747999999999962
 31
0.0
  0
LINE
  5
8F
100
AcDbEntity
100
AcDbLine
  8
zwischen-cut-full-outside
 62
256
370
-1
  6
ByLayer
 10
24.2101250288903813
 20
71.747999999999962
 30
0.0
 11
23.8800000000002157
 21
70.3025065971531546
 31
0.0
  0
LINE
  5
90
100
AcDbEntity
100
AcDbLine
  8
zwischen-cut-full-outside
 62
256
370
-1
  6
ByLayer
 10
23.8800000000002157
 20
70.3025065971531546
 30
0.0
 11
23.8800000000002157
 21
68.8155000000000143
 31
0.0
  0
ARC
  5
91
100
AcDbEntity
  8
zwischen-cut-full-outside
 62
256
370
-1
  6
ByLayer
100
AcDbCircle
 10
24.5175000000002186
 20
68.8155000000000143
 30
0.0
 40
0.6375
100
AcDbArc
 50
180.0
 51
270.0
  0
LINE
  5
92
100
AcDbEntity
100
AcDbLine
  8
zwischen-cut-full-outside
 62
256
370
-1
  6
ByLayer
 10
24.5175000000002221
 20
68.1780000000000115
 30
0.0
 11
33.8250000000003084
 21
68.1780000000000115
 31
0.0
  0
LINE
  5
93
100
AcDbEntity
100
AcDbLine
  8
zwischen-cut-full-outside
 62
256
370
-1
  6
ByLayer
 10
33.8250000000003084
 20
68.1780000000000115
 30
0.0
 11
33.8250000000003084
 21
66.8520000000000607
 31
0.0
  0
LINE
  5
94
100
AcDbEntity
100
AcDbLine
  8
zwischen-cut-full-outside
 62
256
370
-1
  6
ByLayer
 10
33.8250000000003084
 20
66.8520000000000607
 30
0.0
 11
30.0000000000000036
 21
66.8520000000000607
 31
0.0
  0
LINE
  5
95
100
AcDbEntity
100
AcDbLine
  8
zwischen-cut-full-outside
 62
256
370
-1
  6
ByLayer
 10
30.0000000000000036
 20
66.8520000000000607
 30
0.0
 11
30.0000000000000036
 21
66.4275611460128061
 31
0.0
  0
ARC
  5
96
100
AcDbEntity
  8
zwischen-cut-full-outside
 62
256
370
-1
  6
ByLayer
100
AcDbCircle
 10
29.5492194269939077
 20
65.9767805730063799
 30
0.0
 40
0.6375000000000051
100
AcDbArc
 50
225.0
 51
45.0
  0
LINE
  5
97
100
AcDbEntity
100
AcDbLine
  8
zwischen-cut-full-outside
 62
256
370
-1
  6
ByLayer
 10
29.0984388539874388
 20
65.5259999999999536
 30
0.0
 11
24.5175000000001155
 21
65.5259999999999536
 31
0.0
  0
LINE
  5
98
100
AcDbEntity
100
AcDbLine
  8
zwischen-cut-full-outside
 62
256
370
-1
  6
ByLayer
 10
24.5175000000001155
 20
65.5259999999999536
 30
0.0
 11
23.8800000000001162
 21
64.8884999999998513
 31
0.0
  0
LINE
  5
99
100
AcDbEntity
100
AcDbLine
  8
zwischen-cut-full-outside
 62
256
370
-1
  6
ByLayer
 10
23.8800000000001162
 20
64.8884999999998513
 30
0.0
 11
23.8800000000001127
 21
64.1234999999999502
 31
0.0
  0
LINE
  5
9A
100
AcDbEntity
100
AcDbLine
  8
zwischen-cut-full-outside
 62
256
370
-1
  6
ByLayer
 10
23.8800000000001127
 20
64.1234999999999502
 30
0.0
 11
24.5175000000001155
 21
63.4859999999999616
 31
0.0
  0
LINE
  5
9B
100
AcDbEntity
100
AcDbLine
  8
zwischen-cut-full-outside
 62
256
370
-1
  6
ByLayer
 10
24.5175000000001155
 20
63.4859999999999616
 30
0.0
 11
29.098438853987453
 21
63.4860000000001392
 31
0.0
  0
ARC
  5
9C
100
AcDbEntity
  8
zwischen-cut-full-outside
 62
256
370
-1
  6
ByLayer
100
AcDbCircle
 10
29.5492194269938864
 20
63.03521942699372
 30
0.0
 40
0.6375000000000051
100
AcDbArc
 50
315.0
 51
135.0
  0
LINE
  5
9D
100
AcDbEntity
100
AcDbLine
  8
zwischen-cut-full-outside
 62
256
370
-1
  6
ByLayer
 10
30.0
 20
90.0
 30
0.0
 11
30.0000000000000071
 21
72.4619999999998754
 31
0.0
  0
LINE
  5
9E
100
AcDbEntity
100
AcDbLine
  8
zwischen-cut-full-outside
 62
256
370
-1
  6
ByLayer
 10
30.0
 20
56.5499999999999972
 30
0.0
 11
30.0000000000000071
 21
33.3870000000001852
 31
0.0
  0
LINE
  5
9F
100
AcDbEntity
100
AcDbLine
  8
zwischen-cut-full-outside
 62
256
370
-1
  6
ByLayer
 10
30.0
 20
17.4750000000002998
 30
0.0
 11
30.0
 21
0.0
 31
0.0
  0
LINE
  5
A0
100
AcDbEntity
100
AcDbLine
  8
zwischen-cut-full-outside
 62
256
370
-1
  6
ByLayer
 10
60.0
 20
0.0
 30
0.0
 11
120.0
 21
0.0
 31
0.0
  0
LINE
  5
A1
100
AcDbEntity
100
AcDbLine
  8
zwischen-cut-full-outside
 62
256
370
-1
  6
ByLayer
 10
120.0
 20
0.0
 30
0.0
 11
120.0
 21
90.0
 31
0.0
  0
LINE
  5
A2
100
AcDbEntity
100
AcDbLine
  8
zwischen-cut-full-outside
 62
256
370
-1
  6
ByLayer
 10
120.0
 20
90.0
 30
0.0
 11
60.0
 21
90.0
 31
0.0
  0
LINE
  5
A3
100
AcDbEntity
100
AcDbLine
  8
zwischen-cut-full-outside
 62
256
370
-1
  6
ByLayer
 10
60.0
 20
90.0
 30
0.0
 11
60.0
 21
0.0
 31
0.0
  0
LINE
  5
A4
100
AcDbEntity
100
AcDbLine
  8
hilf
 62
256
370
-1
  6
ByLayer
 10
90.0
 20
90.0
 30
0.0
 11
90.0
 21
0.0
 31
0.0
  0
LINE
  5
A5
100
AcDbEntity
100
AcDbLine
  8
hilf
 62
256
370
-1
  6
ByLayer
 10
120.0
 20
45.0
 30
0.0
 11
60.0
 21
45.0
 31
0.0
  0
CIRCLE
  5
A6
100
AcDbEntity
100
AcDbCircle
  8
zwischen-cut-full-inside
 62
256
370
-1
  6
ByLayer
 10
74.0
 20
45.0
 30
0.0
 40
3.0499999999999998
  0
CIRCLE
  5
A7
100
AcDbEntity
100
AcDbCircle
  8
hilf
 62
256
370
-1
  6
ByLayer
 10
74.0
 20
45.0
 30
0.0
 40
15.75
  0
CIRCLE
  5
A8
100
AcDbEntity
100
AcDbCircle
  8
hilf
 62
256
370
-1
  6
ByLayer
 10
74.0
 20
45.0
 30
0.0
 40
19.4499999999999993
  0
CIRCLE
  5
A9
100
AcDbEntity
100
AcDbCircle
  8
hilf
 62
256
370
-1
  6
ByLayer
 10
93.4500000000000028
 20
45.0
 30
0.0
 40
32.5
  0
CIRCLE
  5
AA
100
AcDbEntity
100
AcDbCircle
  8
hilf
 62
256
370
-1
  6
ByLayer
 10
93.4500000000000028
 20
45.0
 30
0.0
 40
27.5
  0
CIRCLE
  5
AB
100
AcDbEntity
100
AcDbCircle
  8
zwischen-cut-full-inside
 62
256
370
-1
  6
ByLayer
 10
93.4500000000000028
 20
45.0
 30
0.0
 40
5.5599999999999996
  0
CIRCLE
  5
AC
100
AcDbEntity
100
AcDbCircle
  8
zwischen-cut-full-inside
 62
256
370
-1
  6
ByLayer
 10
85.7865354535652216
 20
76.5835607736926534
 30
0.0
 40
2.0
  0
CIRCLE
  5
AD
100
AcDbEntity
100
AcDbCircle
  8
zwischen-cut-full-inside
 62
256
370
-1
  6
ByLayer
 10
101.1134645464347841
 20
13.4164392263073484
 30
0.0
 40
2.0
  0
CIRCLE
  5
AE
100
AcDbEntity
100
AcDbCircle
  8
zwischen-cut-full-inside
 62
256
370
-1
  6
ByLayer
 10
102.2134645464347784
 20
76.5835607736926534
 30
0.0
 40
2.0
  0
CIRCLE
  5
AF
100
AcDbEntity
100
AcDbCircle
  8
zwischen-cut-full-inside
 62
256
370
-1
  6
ByLayer
 10
86.8865354535652301
 20
13.4164392263073466
 30
0.0
 40
2.0
  0
LINE
  5
B0
100
AcDbEntity
100
AcDbLine
  8
hilf
 62
256
370
-1
  6
ByLayer
 10
50.0
 20
80.0
 30
0.0
 11
130.0
 21
80.0
 31
0.0
  0
LINE
  5
B1
100
AcDbEntity
100
AcDbLine
  8
hilf
 62
256
370
-1
  6
ByLayer
 10
50.0
 20
10.0
 30
0.0
 11
130.0
 21
10.0
 31
0.0
  0
LINE
  5
B2
100
AcDbEntity
100
AcDbLine
  8
hilf
 62
256
370
-1
  6
ByLayer
 10
39.1749999999996916
 20
80.0
 30
0.0
 11
123.7396919057214575
 21
80.0
 31
0.0
  0
LINE
  5
B3
100
AcDbEntity
100
AcDbLine
  8
zwischen-cut-full-inside
 62
256
370
-1
  6
ByLayer
 10
65.3515611460128838
 20
86.4259999999999309
 30
0.0
 11
68.6484388539872441
 21
86.4259999999999309
 31
0.0
  0
ARC
  5
B4
100
AcDbEntity
  8
zwischen-cut-full-inside
 62
256
370
-1
  6
ByLayer
100
AcDbCircle
 10
69.0992194269936846
 20
85.9752194269935046
 30
0.0
 40
0.6375000000000184
100
AcDbArc
 50
45.0000000000011724
 51
134.9999999999988916
  0
ARC
  5
B5
100
AcDbEntity
  8
zwischen-cut-full-inside
 62
256
370
-1
  6
ByLayer
100
AcDbCircle
 10
69.0992194269935425
 20
85.9752194269935899
 30
0.0
 40
0.6375000000000051
100
AcDbArc
 50
314.9999999999863007
 51
44.9999999999891074
  0
LINE
  5
B6
100
AcDbEntity
100
AcDbLine
  8
zwischen-cut-full-inside
 62
256
370
-1
  6
ByLayer
 10
69.5499999999998835
 20
85.5244388539870499
 30
0.0
 11
69.5500000000000398
 21
83.2475611460128135
 31
0.0
  0
ARC
  5
B7
100
AcDbEntity
  8
zwischen-cut-full-inside
 62
256
370
-1
  6
ByLayer
100
AcDbCircle
 10
69.0992194269936846
 20
82.7967805730063873
 30
0.0
 40
0.6375000000000051
100
AcDbArc
 50
224.9999999999996874
 51
44.9999999999990834
  0
LINE
  5
B8
100
AcDbEntity
100
AcDbLine
  8
zwischen-cut-full-inside
 62
256
370
-1
  6
ByLayer
 10
68.648438853987173
 20
82.345999999999961
 30
0.0
 11
65.3515611460127417
 21
82.3459999999999326
 31
0.0
  0
ARC
  5
B9
100
AcDbEntity
  8
zwischen-cut-full-inside
 62
256
370
-1
  6
ByLayer
100
AcDbCircle
 10
64.9007805730063154
 20
82.7967805730063731
 30
0.0
 40
0.6374999999999795
100
AcDbArc
 50
225.0
 51
314.9999999999977263
  0
ARC
  5
BA
100
AcDbEntity
  8
zwischen-cut-full-inside
 62
256
370
-1
  6
ByLayer
100
AcDbCircle
 10
64.9007805730062444
 20
82.7967805730063873
 30
0.0
 40
0.6374999999999795
100
AcDbArc
 50
134.9999999999974136
 51
225.0000000000032117
  0
LINE
  5
BB
100
AcDbEntity
100
AcDbLine
  8
zwischen-cut-full-inside
 62
256
370
-1
  6
ByLayer
 10
64.4499999999998892
 20
83.2475611460128135
 30
0.0
 11
64.4500000000000313
 21
85.5244388539870641
 31
0.0
  0
ARC
  5
BC
100
AcDbEntity
  8
zwischen-cut-full-inside
 62
256
370
-1
  6
ByLayer
100
AcDbCircle
 10
64.9007805730065428
 20
85.9752194269935046
 30
0.0
 40
0.6375000000000051
100
AcDbArc
 50
44.9999999999996945
 51
224.9999999999996874
  0
LINE
  5
BD
100
AcDbEntity
100
AcDbLine
  8
zwischen-cut-full-inside
 62
256
370
-1
  6
ByLayer
 10
65.3515611460127417
 20
81.0199999999999534
 30
0.0
 11
68.648438853987173
 21
81.0199999999999392
 31
0.0
  0
ARC
  5
BE
100
AcDbEntity
  8
zwischen-cut-full-inside
 62
256
370
-1
  6
ByLayer
100
AcDbCircle
 10
69.0992194269936846
 20
80.5692194269935129
 30
0.0
 40
0.6375000000000051
100
AcDbArc
 50
314.9999999999998863
 51
135.00000000000054
  0
LINE
  5
BF
100
AcDbEntity
100
AcDbLine
  8
zwischen-cut-full-inside
 62
256
370
-1
  6
ByLayer
 10
69.5500000000000398
 20
80.1184388539870724
 30
0.0
 11
69.5500000000000398
 21
79.8815611460128139
 31
0.0
  0
ARC
  5
C0
100
AcDbEntity
  8
zwischen-cut-full-inside
 62
256
370
-1
  6
ByLayer
100
AcDbCircle
 10
69.0992194269936135
 20
79.4307805730064587
 30
0.0
 40
0.6374999999999286
100
AcDbArc
 50
314.9999999999977263
 51
44.9999999999977121
  0
ARC
  5
C1
100
AcDbEntity
  8
zwischen-cut-full-inside
 62
256
370
-1
  6
ByLayer
100
AcDbCircle
 10
69.0992194269936135
 20
79.430780573006416
 30
0.0
 40
0.637499999999903
100
AcDbArc
 50
225.0000000000001137
 51
315.0
  0
LINE
  5
C2
100
AcDbEntity
100
AcDbLine
  8
zwischen-cut-full-inside
 62
256
370
-1
  6
ByLayer
 10
68.6484388539872441
 20
78.980000000000075
 30
0.0
 11
65.3515611460128127
 21
78.9800000000000466
 31
0.0
  0
ARC
  5
C3
100
AcDbEntity
  8
zwischen-cut-full-inside
 62
256
370
-1
  6
ByLayer
100
AcDbCircle
 10
64.9007805730063865
 20
79.4307805730064018
 30
0.0
 40
0.6374999999999795
100
AcDbArc
 50
225.0000000000032117
 51
315.000000000006537
  0
ARC
  5
C4
100
AcDbEntity
  8
zwischen-cut-full-inside
 62
256
370
-1
  6
ByLayer
100
AcDbCircle
 10
64.9007805730063865
 20
79.4307805730063592
 30
0.0
 40
0.637499999999954
100
AcDbArc
 50
135.0000000000003126
 51
225.0000000000003126
  0
LINE
  5
C5
100
AcDbEntity
100
AcDbLine
  8
zwischen-cut-full-inside
 62
256
370
-1
  6
ByLayer
 10
64.4499999999999602
 20
79.8815611460127428
 30
0.0
 11
64.4499999999998892
 21
80.1184388539870866
 31
0.0
  0
ARC
  5
C6
100
AcDbEntity
  8
zwischen-cut-full-inside
 62
256
370
-1
  6
ByLayer
100
AcDbCircle
 10
64.9007805730062444
 20
80.5692194269935129
 30
0.0
 40
0.6375000000000184
100
AcDbArc
 50
45.0000000000014282
 51
225.0000000000013927
  0
LINE
  5
C7
100
AcDbEntity
100
AcDbLine
  8
zwischen-cut-full-inside
 62
256
370
-1
  6
ByLayer
 10
65.3515611460127417
 20
77.6540000000001385
 30
0.0
 11
68.648438853987173
 21
77.6540000000001669
 31
0.0
  0
ARC
  5
C8
100
AcDbEntity
  8
zwischen-cut-full-inside
 62
256
370
-1
  6
ByLayer
100
AcDbCircle
 10
69.0992194269936846
 20
77.2032194269937406
 30
0.0
 40
0.6375000000000051
100
AcDbArc
 50
314.9999999999998863
 51
135.00000000000054
  0
LINE
  5
C9
100
AcDbEntity
100
AcDbLine
  8
zwischen-cut-full-inside
 62
256
370
-1
  6
ByLayer
 10
69.5500000000000398
 20
76.7524388539873144
 30
0.0
 11
69.5500000000000398
 21
74.4755611460129074
 31
0.0
  0
ARC
  5
CA
100
AcDbEntity
  8
zwischen-cut-full-inside
 62
256
370
-1
  6
ByLayer
100
AcDbCircle
 10
69.0992194269936846
 20
74.0247805730064954
 30
0.0
 40
0.6374999999999795
100
AcDbArc
 50
224.9999999999996021
 51
44.9999999999990834
  0
LINE
  5
CB
100
AcDbEntity
100
AcDbLine
  8
zwischen-cut-full-inside
 62
256
370
-1
  6
ByLayer
 10
68.6484388539872583
 20
73.5740000000000975
 30
0.0
 11
65.3515611460127417
 21
73.5740000000000975
 31
0.0
  0
ARC
  5
CC
100
AcDbEntity
  8
zwischen-cut-full-inside
 62
256
370
-1
  6
ByLayer
100
AcDbCircle
 10
64.9007805730063154
 20
74.0247805730064954
 30
0.0
 40
0.6374999999999663
100
AcDbArc
 50
225.0000000000034106
 51
314.9999999999988063
  0
ARC
  5
CD
100
AcDbEntity
  8
zwischen-cut-full-inside
 62
256
370
-1
  6
ByLayer
100
AcDbCircle
 10
64.9007805730063865
 20
74.024780573006538
 30
0.0
 40
0.6375000000000051
100
AcDbArc
 50
134.9999999999999716
 51
225.0000000000011084
  0
LINE
  5
CE
100
AcDbEntity
100
AcDbLine
  8
zwischen-cut-full-inside
 62
256
370
-1
  6
ByLayer
 10
64.4499999999999602
 20
74.4755611460129643
 30
0.0
 11
64.4499999999999602
 21
76.7524388539872859
 31
0.0
  0
ARC
  5
CF
100
AcDbEntity
  8
zwischen-cut-full-inside
 62
256
370
-1
  6
ByLayer
100
AcDbCircle
 10
64.9007805730063154
 20
77.203219426993769
 30
0.0
 40
0.6375000000000051
100
AcDbArc
 50
135.0000000000046043
 51
225.0000000000092086
  0
ARC
  5
D0
100
AcDbEntity
  8
zwischen-cut-full-inside
 62
256
370
-1
  6
ByLayer
100
AcDbCircle
 10
64.9007805730063154
 20
77.2032194269937122
 30
0.0
 40
0.6374999999999929
100
AcDbArc
 50
44.9999999999988276
 51
135.0000000000011369
  0
LINE
  5
D1
100
AcDbEntity
100
AcDbLine
  8
hilf
 62
256
370
-1
  6
ByLayer
 10
67.0
 20
75.6207848009638752
 30
0.0
 11
67.0
 21
88.6081010856441083
 31
0.0
  0
LINE
  5
D2
100
AcDbEntity
100
AcDbLine
  8
hilf
 62
256
370
-1
  6
ByLayer
 10
67.0
 20
75.6207848009638752
 30
0.0
 11
67.0
 21
5.6996381182147395
 31
0.0
  0
LINE
  5
D3
100
AcDbEntity
100
AcDbLine
  8
zwischen-cut-full-inside
 62
256
370
-1
  6
ByLayer
 10
65.3515611460128838
 20
16.4259999999999309
 30
0.0
 11
68.6484388539872441
 21
16.4259999999999309
 31
0.0
  0
ARC
  5
D4
100
AcDbEntity
  8
zwischen-cut-full-inside
 62
256
370
-1
  6
ByLayer
100
AcDbCircle
 10
69.0992194269936846
 20
15.9752194269935046
 30
0.0
 40
0.6375000000000184
100
AcDbArc
 50
45.0000000000011724
 51
134.9999999999988916
  0
ARC
  5
D5
100
AcDbEntity
  8
zwischen-cut-full-inside
 62
256
370
-1
  6
ByLayer
100
AcDbCircle
 10
69.0992194269935425
 20
15.9752194269935899
 30
0.0
 40
0.6375000000000051
100
AcDbArc
 50
314.9999999999863007
 51
44.9999999999891074
  0
LINE
  5
D6
100
AcDbEntity
100
AcDbLine
  8
zwischen-cut-full-inside
 62
256
370
-1
  6
ByLayer
 10
69.5499999999998835
 20
15.5244388539870499
 30
0.0
 11
69.5500000000000398
 21
13.2475611460128135
 31
0.0
  0
ARC
  5
D7
100
AcDbEntity
  8
zwischen-cut-full-inside
 62
256
370
-1
  6
ByLayer
100
AcDbCircle
 10
69.0992194269936846
 20
12.7967805730063873
 30
0.0
 40
0.6375000000000051
100
AcDbArc
 50
224.9999999999996874
 51
44.9999999999990834
  0
LINE
  5
D8
100
AcDbEntity
100
AcDbLine
  8
zwischen-cut-full-inside
 62
256
370
-1
  6
ByLayer
 10
68.648438853987173
 20
12.345999999999961
 30
0.0
 11
65.3515611460127417
 21
12.3459999999999326
 31
0.0
  0
ARC
  5
D9
100
AcDbEntity
  8
zwischen-cut-full-inside
 62
256
370
-1
  6
ByLayer
100
AcDbCircle
 10
64.9007805730063154
 20
12.7967805730063731
 30
0.0
 40
0.6374999999999795
100
AcDbArc
 50
225.0
 51
314.9999999999977263
  0
ARC
  5
DA
100
AcDbEntity
  8
zwischen-cut-full-inside
 62
256
370
-1
  6
ByLayer
100
AcDbCircle
 10
64.9007805730062444
 20
12.7967805730063873
 30
0.0
 40
0.6374999999999795
100
AcDbArc
 50
134.9999999999974136
 51
225.0000000000032117
  0
LINE
  5
DB
100
AcDbEntity
100
AcDbLine
  8
zwischen-cut-full-inside
 62
256
370
-1
  6
ByLayer
 10
64.4499999999998892
 20
13.2475611460128135
 30
0.0
 11
64.4500000000000313
 21
15.5244388539870641
 31
0.0
  0
ARC
  5
DC
100
AcDbEntity
  8
zwischen-cut-full-inside
 62
256
370
-1
  6
ByLayer
100
AcDbCircle
 10
64.9007805730065428
 20
15.9752194269935046
 30
0.0
 40
0.6375000000000051
100
AcDbArc
 50
44.9999999999996945
 51
224.9999999999996874
  0
LINE
  5
DD
100
AcDbEntity
100
AcDbLine
  8
zwischen-cut-full-inside
 62
256
370
-1
  6
ByLayer
 10
65.3515611460127417
 20
11.0199999999999534
 30
0.0
 11
68.648438853987173
 21
11.0199999999999392
 31
0.0
  0
ARC
  5
DE
100
AcDbEntity
  8
zwischen-cut-full-inside
 62
256
370
-1
  6
ByLayer
100
AcDbCircle
 10
69.0992194269936846
 20
10.5692194269935129
 30
0.0
 40
0.6375000000000051
100
AcDbArc
 50
314.9999999999998863
 51
135.00000000000054
  0
LINE
  5
DF
100
AcDbEntity
100
AcDbLine
  8
zwischen-cut-full-inside
 62
256
370
-1
  6
ByLayer
 10
69.5500000000000398
 20
10.1184388539870724
 30
0.0
 11
69.5500000000000398
 21
9.8815611460128139
 31
0.0
  0
ARC
  5
E0
100
AcDbEntity
  8
zwischen-cut-full-inside
 62
256
370
-1
  6
ByLayer
100
AcDbCircle
 10
69.0992194269936135
 20
9.4307805730064587
 30
0.0
 40
0.6374999999999286
100
AcDbArc
 50
314.9999999999977263
 51
44.9999999999977121
  0
ARC
  5
E1
100
AcDbEntity
  8
zwischen-cut-full-inside
 62
256
370
-1
  6
ByLayer
100
AcDbCircle
 10
69.0992194269936135
 20
9.4307805730064231
 30
0.0
 40
0.637499999999903
100
AcDbArc
 50
225.0000000000001137
 51
315.0
  0
LINE
  5
E2
100
AcDbEntity
100
AcDbLine
  8
zwischen-cut-full-inside
 62
256
370
-1
  6
ByLayer
 10
68.6484388539872441
 20
8.9800000000000679
 30
0.0
 11
65.3515611460128127
 21
8.9800000000000466
 31
0.0
  0
ARC
  5
E3
100
AcDbEntity
  8
zwischen-cut-full-inside
 62
256
370
-1
  6
ByLayer
100
AcDbCircle
 10
64.9007805730063865
 20
9.4307805730064018
 30
0.0
 40
0.6374999999999795
100
AcDbArc
 50
225.0000000000032117
 51
315.000000000006537
  0
ARC
  5
E4
100
AcDbEntity
  8
zwischen-cut-full-inside
 62
256
370
-1
  6
ByLayer
100
AcDbCircle
 10
64.9007805730063865
 20
9.4307805730063521
 30
0.0
 40
0.637499999999954
100
AcDbArc
 50
135.0000000000003126
 51
225.0000000000003126
  0
LINE
  5
E5
100
AcDbEntity
100
AcDbLine
  8
zwischen-cut-full-inside
 62
256
370
-1
  6
ByLayer
 10
64.4499999999999602
 20
9.8815611460127428
 30
0.0
 11
64.4499999999998892
 21
10.1184388539870866
 31
0.0
  0
ARC
  5
E6
100
AcDbEntity
  8
zwischen-cut-full-inside
 62
256
370
-1
  6
ByLayer
100
AcDbCircle
 10
64.9007805730062444
 20
10.5692194269935129
 30
0.0
 40
0.6375000000000184
100
AcDbArc
 50
45.0000000000014282
 51
225.0000000000013927
  0
LINE
  5
E7
100
AcDbEntity
100
AcDbLine
  8
zwischen-cut-full-inside
 62
256
370
-1
  6
ByLayer
 10
65.3515611460127417
 20
7.6540000000001314
 30
0.0
 11
68.648438853987173
 21
7.6540000000001669
 31
0.0
  0
ARC
  5
E8
100
AcDbEntity
  8
zwischen-cut-full-inside
 62
256
370
-1
  6
ByLayer
100
AcDbCircle
 10
69.0992194269936846
 20
7.2032194269937406
 30
0.0
 40
0.6375000000000051
100
AcDbArc
 50
314.9999999999998863
 51
135.00000000000054
  0
LINE
  5
E9
100
AcDbEntity
100
AcDbLine
  8
zwischen-cut-full-inside
 62
256
370
-1
  6
ByLayer
 10
69.5500000000000398
 20
6.7524388539873073
 30
0.0
 11
69.5500000000000398
 21
4.4755611460129074
 31
0.0
  0
ARC
  5
EA
100
AcDbEntity
  8
zwischen-cut-full-inside
 62
256
370
-1
  6
ByLayer
100
AcDbCircle
 10
69.0992194269936846
 20
4.0247805730065025
 30
0.0
 40
0.6374999999999795
100
AcDbArc
 50
224.9999999999996021
 51
44.9999999999990834
  0
LINE
  5
EB
100
AcDbEntity
100
AcDbLine
  8
zwischen-cut-full-inside
 62
256
370
-1
  6
ByLayer
 10
68.6484388539872583
 20
3.5740000000000904
 30
0.0
 11
65.3515611460127417
 21
3.5740000000000904
 31
0.0
  0
ARC
  5
EC
100
AcDbEntity
  8
zwischen-cut-full-inside
 62
256
370
-1
  6
ByLayer
100
AcDbCircle
 10
64.9007805730063154
 20
4.0247805730065025
 30
0.0
 40
0.6374999999999663
100
AcDbArc
 50
225.0000000000034106
 51
314.9999999999988063
  0
ARC
  5
ED
100
AcDbEntity
  8
zwischen-cut-full-inside
 62
256
370
-1
  6
ByLayer
100
AcDbCircle
 10
64.9007805730063865
 20
4.024780573006538
 30
0.0
 40
0.6375000000000051
100
AcDbArc
 50
134.9999999999999716
 51
225.0000000000011084
  0
LINE
  5
EE
100
AcDbEntity
100
AcDbLine
  8
zwischen-cut-full-inside
 62
256
370
-1
  6
ByLayer
 10
64.4499999999999602
 20
4.4755611460129643
 30
0.0
 11
64.4499999999999602
 21
6.7524388539872788
 31
0.0
  0
ARC
  5
EF
100
AcDbEntity
  8
zwischen-cut-full-inside
 62
256
370
-1
  6
ByLayer
100
AcDbCircle
 10
64.9007805730063154
 20
7.2032194269937762
 30
0.0
 40
0.6375000000000051
100
AcDbArc
 50
135.0000000000046043
 51
225.0000000000092086
  0
ARC
  5
F0
100
AcDbEntity
  8
zwischen-cut-full-inside
 62
256
370
-1
  6
ByLayer
100
AcDbCircle
 10
64.9007805730063154
 20
7.2032194269937193
 30
0.0
 40
0.6374999999999929
100
AcDbArc
 50
44.9999999999988276
 51
135.0000000000011369
  0
LINE
  5
F1
100
AcDbEntity
100
AcDbLine
  8
zwischen-cut-full-inside
 62
256
370
-1
  6
ByLayer
 10
114.6484388539871162
 20
86.425999999999874
 30
0.0
 11
111.3515611460127559
 21
86.4259999999999877
 31
0.0
  0
ARC
  5
F2
100
AcDbEntity
  8
zwischen-cut-full-inside
 62
256
370
-1
  6
ByLayer
100
AcDbCircle
 10
110.9007805730063154
 20
85.9752194269934762
 30
0.0
 40
0.6375000000000184
100
AcDbArc
 50
45.0000000000011084
 51
134.9999999999988063
  0
ARC
  5
F3
100
AcDbEntity
  8
zwischen-cut-full-inside
 62
256
370
-1
  6
ByLayer
100
AcDbCircle
 10
110.9007805730064575
 20
85.9752194269934762
 30
0.0
 40
0.6375000000000051
100
AcDbArc
 50
135.0000000000109424
 51
225.0000000000136708
  0
LINE
  5
F4
100
AcDbEntity
100
AcDbLine
  8
zwischen-cut-full-inside
 62
256
370
-1
  6
ByLayer
 10
110.4500000000001165
 20
85.5244388539870215
 30
0.0
 11
110.4499999999999602
 21
83.2475611460128135
 31
0.0
  0
ARC
  5
F5
100
AcDbEntity
  8
zwischen-cut-full-inside
 62
256
370
-1
  6
ByLayer
100
AcDbCircle
 10
110.9007805730063154
 20
82.7967805730063731
 30
0.0
 40
0.6375000000000051
100
AcDbArc
 50
135.0000000000009379
 51
315.0000000000002842
  0
LINE
  5
F6
100
AcDbEntity
100
AcDbLine
  8
zwischen-cut-full-inside
 62
256
370
-1
  6
ByLayer
 10
111.351561146012827
 20
82.345999999999961
 30
0.0
 11
114.6484388539872583
 21
82.3459999999999468
 31
0.0
  0
ARC
  5
F7
100
AcDbEntity
  8
zwischen-cut-full-inside
 62
256
370
-1
  6
ByLayer
100
AcDbCircle
 10
115.0992194269936846
 20
82.7967805730064015
 30
0.0
 40
0.6374999999999795
100
AcDbArc
 50
225.0000000000022737
 51
315.0000000000000568
  0
ARC
  5
F8
100
AcDbEntity
  8
zwischen-cut-full-inside
 62
256
370
-1
  6
ByLayer
100
AcDbCircle
 10
115.0992194269937556
 20
82.7967805730064015
 30
0.0
 40
0.6374999999999795
100
AcDbArc
 50
314.9999999999968168
 51
45.0000000000025793
  0
LINE
  5
F9
100
AcDbEntity
100
AcDbLine
  8
zwischen-cut-full-inside
 62
256
370
-1
  6
ByLayer
 10
115.5500000000001108
 20
83.2475611460127993
 30
0.0
 11
115.5499999999999687
 21
85.5244388539871352
 31
0.0
  0
ARC
  5
FA
100
AcDbEntity
  8
zwischen-cut-full-inside
 62
256
370
-1
  6
ByLayer
100
AcDbCircle
 10
115.0992194269934572
 20
85.9752194269933057
 30
0.0
 40
0.6375000000000051
100
AcDbArc
 50
315.0000000000002842
 51
135.0000000000003411
  0
LINE
  5
FB
100
AcDbEntity
100
AcDbLine
  8
zwischen-cut-full-inside
 62
256
370
-1
  6
ByLayer
 10
114.6484388539872583
 20
81.0199999999999392
 30
0.0
 11
111.351561146012827
 21
81.0199999999999392
 31
0.0
  0
ARC
  5
FC
100
AcDbEntity
  8
zwischen-cut-full-inside
 62
256
370
-1
  6
ByLayer
100
AcDbCircle
 10
110.9007805730063154
 20
80.5692194269935271
 30
0.0
 40
0.6375000000000051
100
AcDbArc
 50
44.9999999999994245
 51
225.0000000000001137
  0
LINE
  5
FD
100
AcDbEntity
100
AcDbLine
  8
zwischen-cut-full-inside
 62
256
370
-1
  6
ByLayer
 10
110.4499999999999602
 20
80.1184388539870724
 30
0.0
 11
110.4499999999999602
 21
79.8815611460127855
 31
0.0
  0
ARC
  5
FE
100
AcDbEntity
  8
zwischen-cut-full-inside
 62
256
370
-1
  6
ByLayer
100
AcDbCircle
 10
110.9007805730063865
 20
79.4307805730064587
 30
0.0
 40
0.6374999999999286
100
AcDbArc
 50
135.0000000000022737
 51
225.0000000000022737
  0
ARC
  5
FF
100
AcDbEntity
  8
zwischen-cut-full-inside
 62
256
370
-1
  6
ByLayer
100
AcDbCircle
 10
110.9007805730063865
 20
79.4307805730064018
 30
0.0
 40
0.637499999999903
100
AcDbArc
 50
224.9999999999999716
 51
314.9999999999998295
  0
LINE
  5
100
100
AcDbEntity
100
AcDbLine
  8
zwischen-cut-full-inside
 62
256
370
-1
  6
ByLayer
 10
111.3515611460127559
 20
78.9800000000000608
 30
0.0
 11
114.6484388539871873
 21
78.9800000000000466
 31
0.0
  0
ARC
  5
101
100
AcDbEntity
  8
zwischen-cut-full-inside
 62
256
370
-1
  6
ByLayer
100
AcDbCircle
 10
115.0992194269936135
 20
79.4307805730064018
 30
0.0
 40
0.6374999999999795
100
AcDbArc
 50
224.999999999993463
 51
314.9999999999968168
  0
ARC
  5
102
100
AcDbEntity
  8
zwischen-cut-full-inside
 62
256
370
-1
  6
ByLayer
100
AcDbCircle
 10
115.0992194269936135
 20
79.4307805730063592
 30
0.0
 40
0.637499999999954
100
AcDbArc
 50
314.9999999999997726
 51
44.9999999999996803
  0
LINE
  5
103
100
AcDbEntity
100
AcDbLine
  8
zwischen-cut-full-inside
 62
256
370
-1
  6
ByLayer
 10
115.5500000000000398
 20
79.8815611460127286
 30
0.0
 11
115.5500000000001108
 21
80.1184388539870724
 31
0.0
  0
ARC
  5
104
100
AcDbEntity
  8
zwischen-cut-full-inside
 62
256
370
-1
  6
ByLayer
100
AcDbCircle
 10
115.0992194269937556
 20
80.5692194269935129
 30
0.0
 40
0.6375000000000184
100
AcDbArc
 50
314.9999999999986358
 51
134.9999999999984936
  0
LINE
  5
105
100
AcDbEntity
100
AcDbLine
  8
zwischen-cut-full-inside
 62
256
370
-1
  6
ByLayer
 10
114.6484388539872583
 20
77.6540000000001243
 30
0.0
 11
111.351561146012827
 21
77.6540000000001527
 31
0.0
  0
ARC
  5
106
100
AcDbEntity
  8
zwischen-cut-full-inside
 62
256
370
-1
  6
ByLayer
100
AcDbCircle
 10
110.9007805730063154
 20
77.2032194269937264
 30
0.0
 40
0.6375000000000051
100
AcDbArc
 50
44.9999999999994245
 51
225.0000000000001137
  0
LINE
  5
107
100
AcDbEntity
100
AcDbLine
  8
zwischen-cut-full-inside
 62
256
370
-1
  6
ByLayer
 10
110.4499999999999602
 20
76.7524388539873144
 30
0.0
 11
110.4499999999999602
 21
74.4755611460128932
 31
0.0
  0
ARC
  5
108
100
AcDbEntity
  8
zwischen-cut-full-inside
 62
256
370
-1
  6
ByLayer
100
AcDbCircle
 10
110.9007805730063154
 20
74.0247805730064954
 30
0.0
 40
0.6374999999999795
100
AcDbArc
 50
135.0000000000009379
 51
315.0000000000004547
  0
LINE
  5
109
100
AcDbEntity
100
AcDbLine
  8
zwischen-cut-full-inside
 62
256
370
-1
  6
ByLayer
 10
111.3515611460127417
 20
73.5740000000000975
 30
0.0
 11
114.6484388539872583
 21
73.5740000000000975
 31
0.0
  0
ARC
  5
10A
100
AcDbEntity
  8
zwischen-cut-full-inside
 62
256
370
-1
  6
ByLayer
100
AcDbCircle
 10
115.0992194269936846
 20
74.0247805730064812
 30
0.0
 40
0.6374999999999663
100
AcDbArc
 50
225.0000000000011653
 51
314.9999999999965894
  0
ARC
  5
10B
100
AcDbEntity
  8
zwischen-cut-full-inside
 62
256
370
-1
  6
ByLayer
100
AcDbCircle
 10
115.0992194269936135
 20
74.0247805730065522
 30
0.0
 40
0.6375000000000051
100
AcDbArc
 50
314.99999999999892
 51
45.0000000000000284
  0
LINE
  5
10C
100
AcDbEntity
100
AcDbLine
  8
zwischen-cut-full-inside
 62
256
370
-1
  6
ByLayer
 10
115.5500000000000398
 20
74.4755611460129785
 30
0.0
 11
115.5500000000000398
 21
76.7524388539872717
 31
0.0
  0
ARC
  5
10D
100
AcDbEntity
  8
zwischen-cut-full-inside
 62
256
370
-1
  6
ByLayer
100
AcDbCircle
 10
115.0992194269936846
 20
77.2032194269937833
 30
0.0
 40
0.6375000000000051
100
AcDbArc
 50
314.9999999999907914
 51
44.9999999999953531
  0
ARC
  5
10E
100
AcDbEntity
  8
zwischen-cut-full-inside
 62
256
370
-1
  6
ByLayer
100
AcDbCircle
 10
115.0992194269936846
 20
77.2032194269937122
 30
0.0
 40
0.6374999999999929
100
AcDbArc
 50
44.9999999999988134
 51
135.0000000000011653
  0
LINE
  5
10F
100
AcDbEntity
100
AcDbLine
  8
zwischen-cut-full-inside
 62
256
370
-1
  6
ByLayer
 10
114.6484388539871304
 20
16.4259999999999238
 30
0.0
 11
111.3515611460127559
 21
16.4259999999999309
 31
0.0
  0
ARC
  5
110
100
AcDbEntity
  8
zwischen-cut-full-inside
 62
256
370
-1
  6
ByLayer
100
AcDbCircle
 10
110.9007805730063438
 20
15.9752194269935153
 30
0.0
 40
0.6375000000000184
100
AcDbArc
 50
45.0000000000011084
 51
134.9999999999988063
  0
ARC
  5
111
100
AcDbEntity
  8
zwischen-cut-full-inside
 62
256
370
-1
  6
ByLayer
100
AcDbCircle
 10
110.9007805730064575
 20
15.975219426993597
 30
0.0
 40
0.6375000000000051
100
AcDbArc
 50
135.0000000000109424
 51
225.0000000000136708
  0
LINE
  5
112
100
AcDbEntity
100
AcDbLine
  8
zwischen-cut-full-inside
 62
256
370
-1
  6
ByLayer
 10
110.4500000000001023
 20
15.5244388539870428
 30
0.0
 11
110.4499999999999886
 21
13.2475611460128171
 31
0.0
  0
ARC
  5
113
100
AcDbEntity
  8
zwischen-cut-full-inside
 62
256
370
-1
  6
ByLayer
100
AcDbCircle
 10
110.9007805730063012
 20
12.7967805730063855
 30
0.0
 40
0.6375000000000051
100
AcDbArc
 50
135.0000000000009379
 51
315.0000000000002842
  0
LINE
  5
114
100
AcDbEntity
100
AcDbLine
  8
zwischen-cut-full-inside
 62
256
370
-1
  6
ByLayer
 10
111.3515611460128127
 20
12.3459999999999539
 30
0.0
 11
114.6484388539872441
 21
12.3459999999999326
 31
0.0
  0
ARC
  5
115
100
AcDbEntity
  8
zwischen-cut-full-inside
 62
256
370
-1
  6
ByLayer
100
AcDbCircle
 10
115.0992194269936562
 20
12.7967805730063695
 30
0.0
 40
0.6374999999999795
100
AcDbArc
 50
225.0000000000022737
 51
315.0000000000000568
  0
ARC
  5
116
100
AcDbEntity
  8
zwischen-cut-full-inside
 62
256
370
-1
  6
ByLayer
100
AcDbCircle
 10
115.0992194269937272
 20
12.7967805730063819
 30
0.0
 40
0.6374999999999795
100
AcDbArc
 50
314.9999999999968168
 51
45.0000000000025793
  0
LINE
  5
117
100
AcDbEntity
100
AcDbLine
  8
zwischen-cut-full-inside
 62
256
370
-1
  6
ByLayer
 10
115.5500000000000824
 20
13.2475611460128011
 30
0.0
 11
115.5499999999999545
 21
15.5244388539870553
 31
0.0
  0
ARC
  5
118
100
AcDbEntity
  8
zwischen-cut-full-inside
 62
256
370
-1
  6
ByLayer
100
AcDbCircle
 10
115.0992194269934572
 20
15.9752194269935011
 30
0.0
 40
0.6375000000000051
100
AcDbArc
 50
315.0000000000002842
 51
135.0000000000003411
  0
LINE
  5
119
100
AcDbEntity
100
AcDbLine
  8
zwischen-cut-full-inside
 62
256
370
-1
  6
ByLayer
 10
114.6484388539872441
 20
11.0199999999999392
 30
0.0
 11
111.3515611460128412
 21
11.019999999999941
 31
0.0
  0
ARC
  5
11A
100
AcDbEntity
  8
zwischen-cut-full-inside
 62
256
370
-1
  6
ByLayer
100
AcDbCircle
 10
110.9007805730063154
 20
10.5692194269935111
 30
0.0
 40
0.6375000000000051
100
AcDbArc
 50
44.9999999999994245
 51
225.0000000000001137
  0
LINE
  5
11B
100
AcDbEntity
100
AcDbLine
  8
zwischen-cut-full-inside
 62
256
370
-1
  6
ByLayer
 10
110.4499999999999602
 20
10.1184388539870707
 30
0.0
 11
110.449999999999946
 21
9.8815611460128121
 31
0.0
  0
ARC
  5
11C
100
AcDbEntity
  8
zwischen-cut-full-inside
 62
256
370
-1
  6
ByLayer
100
AcDbCircle
 10
110.9007805730063438
 20
9.4307805730064516
 30
0.0
 40
0.6374999999999286
100
AcDbArc
 50
135.0000000000022737
 51
225.0000000000022737
  0
ARC
  5
11D
100
AcDbEntity
  8
zwischen-cut-full-inside
 62
256
370
-1
  6
ByLayer
100
AcDbCircle
 10
110.9007805730063581
 20
9.4307805730064107
 30
0.0
 40
0.637499999999903
100
AcDbArc
 50
224.9999999999999716
 51
314.9999999999998295
  0
LINE
  5
11E
100
AcDbEntity
100
AcDbLine
  8
zwischen-cut-full-inside
 62
256
370
-1
  6
ByLayer
 10
111.3515611460127559
 20
8.980000000000075
 30
0.0
 11
114.6484388539872015
 21
8.9800000000000466
 31
0.0
  0
ARC
  5
11F
100
AcDbEntity
  8
zwischen-cut-full-inside
 62
256
370
-1
  6
ByLayer
100
AcDbCircle
 10
115.0992194269935567
 20
9.430780573006377
 30
0.0
 40
0.6374999999999795
100
AcDbArc
 50
224.999999999993463
 51
314.9999999999968168
  0
ARC
  5
120
100
AcDbEntity
  8
zwischen-cut-full-inside
 62
256
370
-1
  6
ByLayer
100
AcDbCircle
 10
115.0992194269935709
 20
9.4307805730063361
 30
0.0
 40
0.637499999999954
100
AcDbArc
 50
314.9999999999997726
 51
44.9999999999996803
  0
LINE
  5
121
100
AcDbEntity
100
AcDbLine
  8
zwischen-cut-full-inside
 62
256
370
-1
  6
ByLayer
 10
115.5500000000000114
 20
9.8815611460127304
 30
0.0
 11
115.5500000000000682
 21
10.118438853987076
 31
0.0
  0
ARC
  5
122
100
AcDbEntity
  8
zwischen-cut-full-inside
 62
256
370
-1
  6
ByLayer
100
AcDbCircle
 10
115.0992194269937556
 20
10.5692194269935165
 30
0.0
 40
0.6375000000000184
100
AcDbArc
 50
314.9999999999986358
 51
134.9999999999984936
  0
LINE
  5
123
100
AcDbEntity
100
AcDbLine
  8
zwischen-cut-full-inside
 62
256
370
-1
  6
ByLayer
 10
114.6484388539872441
 20
7.6540000000001323
 30
0.0
 11
111.351561146012827
 21
7.654000000000166
 31
0.0
  0
ARC
  5
124
100
AcDbEntity
  8
zwischen-cut-full-inside
 62
256
370
-1
  6
ByLayer
100
AcDbCircle
 10
110.9007805730063296
 20
7.2032194269937451
 30
0.0
 40
0.6375000000000051
100
AcDbArc
 50
44.9999999999994245
 51
225.0000000000001137
  0
LINE
  5
125
100
AcDbEntity
100
AcDbLine
  8
zwischen-cut-full-inside
 62
256
370
-1
  6
ByLayer
 10
110.4499999999999176
 20
6.7524388539873144
 30
0.0
 11
110.4499999999999602
 21
4.4755611460129066
 31
0.0
  0
ARC
  5
126
100
AcDbEntity
  8
zwischen-cut-full-inside
 62
256
370
-1
  6
ByLayer
100
AcDbCircle
 10
110.900780573006287
 20
4.0247805730064901
 30
0.0
 40
0.6374999999999795
100
AcDbArc
 50
135.0000000000009379
 51
315.0000000000004547
  0
LINE
  5
127
100
AcDbEntity
100
AcDbLine
  8
zwischen-cut-full-inside
 62
256
370
-1
  6
ByLayer
 10
111.3515611460127133
 20
3.574000000000086
 30
0.0
 11
114.6484388539872299
 21
3.5740000000000975
 31
0.0
  0
ARC
  5
128
100
AcDbEntity
  8
zwischen-cut-full-inside
 62
256
370
-1
  6
ByLayer
100
AcDbCircle
 10
115.099219426993713
 20
4.0247805730064981
 30
0.0
 40
0.6374999999999663
100
AcDbArc
 50
225.0000000000011653
 51
314.9999999999965894
  0
ARC
  5
129
100
AcDbEntity
  8
zwischen-cut-full-inside
 62
256
370
-1
  6
ByLayer
100
AcDbCircle
 10
115.0992194269936277
 20
4.0247805730065469
 30
0.0
 40
0.6375000000000051
100
AcDbArc
 50
314.99999999999892
 51
45.0000000000000284
  0
LINE
  5
12A
100
AcDbEntity
100
AcDbLine
  8
zwischen-cut-full-inside
 62
256
370
-1
  6
ByLayer
 10
115.5500000000000114
 20
4.4755611460129554
 30
0.0
 11
115.5500000000000398
 21
6.7524388539872851
 31
0.0
  0
ARC
  5
12B
100
AcDbEntity
  8
zwischen-cut-full-inside
 62
256
370
-1
  6
ByLayer
100
AcDbCircle
 10
115.0992194269936562
 20
7.2032194269937602
 30
0.0
 40
0.6375000000000051
100
AcDbArc
 50
314.9999999999907914
 51
44.9999999999953531
  0
ARC
  5
12C
100
AcDbEntity
  8
zwischen-cut-full-inside
 62
256
370
-1
  6
ByLayer
100
AcDbCircle
 10
115.0992194269936846
 20
7.203219426993706
 30
0.0
 40
0.6374999999999929
100
AcDbArc
 50
44.9999999999988134
 51
135.0000000000011653
  0
LINE
  5
12D
100
AcDbEntity
100
AcDbLine
  8
zwischen-cut-full-inside
 62
256
370
-1
  6
ByLayer
 10
48.0795310555441517
 20
74.1859999999999218
 30
0.0
 11
42.1749999999996987
 21
74.1859999999999218
 31
0.0
  0
LINE
  5
12E
100
AcDbEntity
100
AcDbLine
  8
zwischen-cut-full-inside
 62
256
370
-1
  6
ByLayer
 10
42.1749999999996987
 20
74.1859999999999218
 30
0.0
 11
42.1749999999996987
 21
75.5120000000000289
 31
0.0
  0
LINE
  5
12F
100
AcDbEntity
100
AcDbLine
  8
zwischen-cut-full-inside
 62
256
370
-1
  6
ByLayer
 10
42.1749999999996987
 20
75.5120000000000289
 30
0.0
 11
48.0795310555441588
 21
75.5120000000000289
 31
0.0
  0
LINE
  5
130
100
AcDbEntity
100
AcDbLine
  8
zwischen-cut-full-inside
 62
256
370
-1
  6
ByLayer
 10
48.0795310555441588
 20
75.5120000000000289
 30
0.0
 11
48.0795310555441517
 21
74.1859999999999218
 31
0.0
  0
LINE
  5
131
100
AcDbEntity
100
AcDbLine
  8
zwischen-cut-full-inside
 62
256
370
-1
  6
ByLayer
 10
48.0795310555441517
 20
85.814000000000064
 30
0.0
 11
42.1749999999996916
 21
85.814000000000064
 31
0.0
  0
LINE
  5
132
100
AcDbEntity
100
AcDbLine
  8
zwischen-cut-full-inside
 62
256
370
-1
  6
ByLayer
 10
42.1749999999996916
 20
85.814000000000064
 30
0.0
 11
42.1749999999996987
 21
84.4880000000001274
 31
0.0
  0
LINE
  5
133
100
AcDbEntity
100
AcDbLine
  8
zwischen-cut-full-inside
 62
256
370
-1
  6
ByLayer
 10
42.1749999999996987
 20
84.4880000000001274
 30
0.0
 11
48.0795310555441517
 21
84.4880000000001274
 31
0.0
  0
LINE
  5
134
100
AcDbEntity
100
AcDbLine
  8
zwischen-cut-full-inside
 62
256
370
-1
  6
ByLayer
 10
48.0795310555441517
 20
84.4880000000001274
 30
0.0
 11
48.0795310555441517
 21
85.814000000000064
 31
0.0
  0
LINE
  5
135
100
AcDbEntity
100
AcDbLine
  8
zwischen-cut-full-outside
 62
256
370
-1
  6
ByLayer
 10
46.0000000000000071
 20
78.0784388539872793
 30
0.0
 11
46.0000000000000071
 21
77.6539999999999964
 31
0.0
  0
LINE
  5
136
100
AcDbEntity
100
AcDbLine
  8
zwischen-cut-full-outside
 62
256
370
-1
  6
ByLayer
 10
46.0000000000000071
 20
77.6539999999999964
 30
0.0
 11
42.1749999999996916
 21
77.6539999999999537
 31
0.0
  0
LINE
  5
137
100
AcDbEntity
100
AcDbLine
  8
zwischen-cut-full-outside
 62
256
370
-1
  6
ByLayer
 10
42.1749999999996916
 20
77.6539999999999537
 30
0.0
 11
42.1749999999996987
 21
76.328000000000003
 31
0.0
  0
LINE
  5
138
100
AcDbEntity
100
AcDbLine
  8
zwischen-cut-full-outside
 62
256
370
-1
  6
ByLayer
 10
42.1749999999996987
 20
76.328000000000003
 30
0.0
 11
51.4824999999997885
 21
76.328000000000003
 31
0.0
  0
ARC
  5
139
100
AcDbEntity
  8
zwischen-cut-full-outside
 62
256
370
-1
  6
ByLayer
100
AcDbCircle
 10
51.4824999999997956
 20
75.6905000000000001
 30
0.0
 40
0.6375
100
AcDbArc
 50
0.0786090819149487
 51
90.0
  0
LINE
  5
13A
100
AcDbEntity
100
AcDbLine
  8
zwischen-cut-full-outside
 62
256
370
-1
  6
ByLayer
 10
52.1199994000009141
 20
75.6913746416299347
 30
0.0
 11
52.1199999999997914
 21
74.2034934028469877
 31
0.0
  0
LINE
  5
13B
100
AcDbEntity
100
AcDbLine
  8
zwischen-cut-full-outside
 62
256
370
-1
  6
ByLayer
 10
52.1199999999997914
 20
74.2034934028469877
 30
0.0
 11
51.7898749711096258
 21
72.7579999999999245
 31
0.0
  0
LINE
  5
13C
100
AcDbEntity
100
AcDbLine
  8
zwischen-cut-full-outside
 62
256
370
-1
  6
ByLayer
 10
51.7898749711096258
 20
72.7579999999999245
 30
0.0
 11
51.099999999999703
 21
72.7579999999999103
 31
0.0
  0
LINE
  5
13D
100
AcDbEntity
100
AcDbLine
  8
zwischen-cut-full-outside
 62
256
370
-1
  6
ByLayer
 10
51.099999999999703
 20
72.7579999999999103
 30
0.0
 11
50.5899999999996908
 21
73.3699999999999477
 31
0.0
  0
LINE
  5
13E
100
AcDbEntity
100
AcDbLine
  8
zwischen-cut-full-outside
 62
256
370
-1
  6
ByLayer
 10
50.5899999999996908
 20
73.3699999999999477
 30
0.0
 11
49.5349526388610002
 21
73.3699999999999477
 31
0.0
  0
LINE
  5
13F
100
AcDbEntity
100
AcDbLine
  8
zwischen-cut-full-outside
 62
256
370
-1
  6
ByLayer
 10
49.5349526388610002
 20
73.3699999999999477
 30
0.0
 11
42.1749999999996987
 21
73.3699999999999477
 31
0.0
  0
LINE
  5
140
100
AcDbEntity
100
AcDbLine
  8
zwischen-cut-full-outside
 62
256
370
-1
  6
ByLayer
 10
42.1749999999996987
 20
73.3699999999999477
 30
0.0
 11
42.1749999999996987
 21
72.0439999999999827
 31
0.0
  0
LINE
  5
141
100
AcDbEntity
100
AcDbLine
  8
zwischen-cut-full-outside
 62
256
370
-1
  6
ByLayer
 10
42.1749999999996987
 20
72.0439999999999827
 30
0.0
 11
46.0
 21
72.0439999999999827
 31
0.0
  0
LINE
  5
142
100
AcDbEntity
100
AcDbLine
  8
zwischen-cut-full-outside
 62
256
370
-1
  6
ByLayer
 10
46.0
 20
87.955999999999861
 30
0.0
 11
42.1749999999996845
 21
87.9559999999998468
 31
0.0
  0
LINE
  5
143
100
AcDbEntity
100
AcDbLine
  8
zwischen-cut-full-outside
 62
256
370
-1
  6
ByLayer
 10
42.1749999999996845
 20
87.9559999999998468
 30
0.0
 11
42.1749999999996916
 21
86.6299999999999102
 31
0.0
  0
LINE
  5
144
100
AcDbEntity
100
AcDbLine
  8
zwischen-cut-full-outside
 62
256
370
-1
  6
ByLayer
 10
42.1749999999996916
 20
86.6299999999999102
 30
0.0
 11
49.5349526388609931
 21
86.6299999999999102
 31
0.0
  0
LINE
  5
145
100
AcDbEntity
100
AcDbLine
  8
zwischen-cut-full-outside
 62
256
370
-1
  6
ByLayer
 10
49.5349526388609931
 20
86.6299999999999102
 30
0.0
 11
50.5899999999996766
 21
86.6299999999999102
 31
0.0
  0
LINE
  5
146
100
AcDbEntity
100
AcDbLine
  8
zwischen-cut-full-outside
 62
256
370
-1
  6
ByLayer
 10
50.5899999999996766
 20
86.6299999999999102
 30
0.0
 11
51.0999999999996959
 21
87.2419999999999334
 31
0.0
  0
LINE
  5
147
100
AcDbEntity
100
AcDbLine
  8
zwischen-cut-full-outside
 62
256
370
-1
  6
ByLayer
 10
51.0999999999996959
 20
87.2419999999999334
 30
0.0
 11
51.7898749711096258
 21
87.2419999999999476
 31
0.0
  0
LINE
  5
148
100
AcDbEntity
100
AcDbLine
  8
zwischen-cut-full-outside
 62
256
370
-1
  6
ByLayer
 10
51.7898749711096258
 20
87.2419999999999476
 30
0.0
 11
52.1199999999997843
 21
85.7965065971531402
 31
0.0
  0
LINE
  5
149
100
AcDbEntity
100
AcDbLine
  8
zwischen-cut-full-outside
 62
256
370
-1
  6
ByLayer
 10
52.1199999999997843
 20
85.7965065971531402
 30
0.0
 11
52.1199999999997914
 21
84.3094999999999999
 31
0.0
  0
ARC
  5
14A
100
AcDbEntity
  8
zwischen-cut-full-outside
 62
256
370
-1
  6
ByLayer
100
AcDbCircle
 10
51.4824999999997956
 20
84.3094999999999999
 30
0.0
 40
0.6375
100
AcDbArc
 50
270.0
 51
0.0
  0
LINE
  5
14B
100
AcDbEntity
100
AcDbLine
  8
zwischen-cut-full-outside
 62
256
370
-1
  6
ByLayer
 10
51.4824999999997814
 20
83.671999999999997
 30
0.0
 11
42.1749999999996987
 21
83.671999999999997
 31
0.0
  0
LINE
  5
14C
100
AcDbEntity
100
AcDbLine
  8
zwischen-cut-full-outside
 62
256
370
-1
  6
ByLayer
 10
42.1749999999996987
 20
83.671999999999997
 30
0.0
 11
42.1749999999996916
 21
82.3460000000000463
 31
0.0
  0
LINE
  5
14D
100
AcDbEntity
100
AcDbLine
  8
zwischen-cut-full-outside
 62
256
370
-1
  6
ByLayer
 10
42.1749999999996916
 20
82.3460000000000463
 30
0.0
 11
46.0
 21
82.3460000000000463
 31
0.0
  0
LINE
  5
14E
100
AcDbEntity
100
AcDbLine
  8
zwischen-cut-full-outside
 62
256
370
-1
  6
ByLayer
 10
46.0
 20
82.3460000000000463
 30
0.0
 11
46.0000000000000071
 21
81.9215611460127775
 31
0.0
  0
ARC
  5
14F
100
AcDbEntity
  8
zwischen-cut-full-outside
 62
256
370
-1
  6
ByLayer
100
AcDbCircle
 10
46.4507805730060994
 20
81.4707805730063654
 30
0.0
 40
0.6375000000000051
100
AcDbArc
 50
135.0
 51
315.0000000000000568
  0
LINE
  5
150
100
AcDbEntity
100
AcDbLine
  8
zwischen-cut-full-outside
 62
256
370
-1
  6
ByLayer
 10
46.9015611460125612
 20
81.0199999999999392
 30
0.0
 11
51.482499999999888
 21
81.0199999999999392
 31
0.0
  0
LINE
  5
151
100
AcDbEntity
100
AcDbLine
  8
zwischen-cut-full-outside
 62
256
370
-1
  6
ByLayer
 10
51.482499999999888
 20
81.0199999999999392
 30
0.0
 11
52.119999999999898
 21
80.3824999999998369
 31
0.0
  0
LINE
  5
152
100
AcDbEntity
100
AcDbLine
  8
zwischen-cut-full-outside
 62
256
370
-1
  6
ByLayer
 10
52.119999999999898
 20
80.3824999999998369
 30
0.0
 11
52.119999999999898
 21
79.6174999999999358
 31
0.0
  0
LINE
  5
153
100
AcDbEntity
100
AcDbLine
  8
zwischen-cut-full-outside
 62
256
370
-1
  6
ByLayer
 10
52.119999999999898
 20
79.6174999999999358
 30
0.0
 11
51.4824999999998951
 21
78.9799999999999329
 31
0.0
  0
LINE
  5
154
100
AcDbEntity
100
AcDbLine
  8
zwischen-cut-full-outside
 62
256
370
-1
  6
ByLayer
 10
51.4824999999998951
 20
78.9799999999999329
 30
0.0
 11
46.9015611460125612
 21
78.9800000000001177
 31
0.0
  0
ARC
  5
155
100
AcDbEntity
  8
zwischen-cut-full-outside
 62
256
370
-1
  6
ByLayer
100
AcDbCircle
 10
46.4507805730061207
 20
78.5292194269937056
 30
0.0
 40
0.6375000000000051
100
AcDbArc
 50
45.0
 51
225.0
  0
LINE
  5
156
100
AcDbEntity
100
AcDbLine
  8
zwischen-cut-full-inside
 62
256
370
-1
  6
ByLayer
 10
48.0795310555441517
 20
4.1859999999999289
 30
0.0
 11
42.1749999999996916
 21
4.1859999999999253
 31
0.0
  0
LINE
  5
157
100
AcDbEntity
100
AcDbLine
  8
zwischen-cut-full-inside
 62
256
370
-1
  6
ByLayer
 10
42.1749999999996916
 20
4.1859999999999253
 30
0.0
 11
42.1749999999996916
 21
5.5120000000000324
 31
0.0
  0
LINE
  5
158
100
AcDbEntity
100
AcDbLine
  8
zwischen-cut-full-inside
 62
256
370
-1
  6
ByLayer
 10
42.1749999999996916
 20
5.5120000000000324
 30
0.0
 11
48.0795310555441517
 21
5.512000000000036
 31
0.0
  0
LINE
  5
159
100
AcDbEntity
100
AcDbLine
  8
zwischen-cut-full-inside
 62
256
370
-1
  6
ByLayer
 10
48.0795310555441517
 20
5.512000000000036
 30
0.0
 11
48.0795310555441517
 21
4.1859999999999289
 31
0.0
  0
LINE
  5
15A
100
AcDbEntity
100
AcDbLine
  8
zwischen-cut-full-inside
 62
256
370
-1
  6
ByLayer
 10
48.0795310555441446
 20
15.8140000000000747
 30
0.0
 11
42.1749999999996774
 21
15.8140000000000747
 31
0.0
  0
LINE
  5
15B
100
AcDbEntity
100
AcDbLine
  8
zwischen-cut-full-inside
 62
256
370
-1
  6
ByLayer
 10
42.1749999999996774
 20
15.8140000000000747
 30
0.0
 11
42.1749999999996916
 21
14.4880000000001239
 31
0.0
  0
LINE
  5
15C
100
AcDbEntity
100
AcDbLine
  8
zwischen-cut-full-inside
 62
256
370
-1
  6
ByLayer
 10
42.1749999999996916
 20
14.4880000000001239
 30
0.0
 11
48.0795310555441517
 21
14.4880000000001239
 31
0.0
  0
LINE
  5
15D
100
AcDbEntity
100
AcDbLine
  8
zwischen-cut-full-inside
 62
256
370
-1
  6
ByLayer
 10
48.0795310555441517
 20
14.4880000000001239
 30
0.0
 11
48.0795310555441446
 21
15.8140000000000747
 31
0.0
  0
LINE
  5
15E
100
AcDbEntity
100
AcDbLine
  8
zwischen-cut-full-outside
 62
256
370
-1
  6
ByLayer
 10
46.0
 20
8.0784388539872793
 30
0.0
 11
46.0
 21
7.6539999999999999
 31
0.0
  0
LINE
  5
15F
100
AcDbEntity
100
AcDbLine
  8
zwischen-cut-full-outside
 62
256
370
-1
  6
ByLayer
 10
46.0
 20
7.6539999999999999
 30
0.0
 11
42.1749999999996916
 21
7.6539999999999537
 31
0.0
  0
LINE
  5
160
100
AcDbEntity
100
AcDbLine
  8
zwischen-cut-full-outside
 62
256
370
-1
  6
ByLayer
 10
42.1749999999996916
 20
7.6539999999999537
 30
0.0
 11
42.1749999999996987
 21
6.3280000000000065
 31
0.0
  0
LINE
  5
161
100
AcDbEntity
100
AcDbLine
  8
zwischen-cut-full-outside
 62
256
370
-1
  6
ByLayer
 10
42.1749999999996987
 20
6.3280000000000065
 30
0.0
 11
51.4824999999997885
 21
6.3280000000000065
 31
0.0
  0
ARC
  5
162
100
AcDbEntity
  8
zwischen-cut-full-outside
 62
256
370
-1
  6
ByLayer
100
AcDbCircle
 10
51.4824999999997814
 20
5.6905000000000108
 30
0.0
 40
0.6375
100
AcDbArc
 50
0.0786090819149487
 51
90.0
  0
LINE
  5
163
100
AcDbEntity
100
AcDbLine
  8
zwischen-cut-full-outside
 62
256
370
-1
  6
ByLayer
 10
52.119999400000907
 20
5.6913746416299418
 30
0.0
 11
52.1199999999997843
 21
4.2034934028470055
 31
0.0
  0
LINE
  5
164
100
AcDbEntity
100
AcDbLine
  8
zwischen-cut-full-outside
 62
256
370
-1
  6
ByLayer
 10
52.1199999999997843
 20
4.2034934028470055
 30
0.0
 11
51.7898749711096258
 21
2.757999999999921
 31
0.0
  0
LINE
  5
165
100
AcDbEntity
100
AcDbLine
  8
zwischen-cut-full-outside
 62
256
370
-1
  6
ByLayer
 10
51.7898749711096258
 20
2.757999999999921
 30
0.0
 11
51.0999999999996888
 21
2.757999999999921
 31
0.0
  0
LINE
  5
166
100
AcDbEntity
100
AcDbLine
  8
zwischen-cut-full-outside
 62
256
370
-1
  6
ByLayer
 10
51.0999999999996888
 20
2.757999999999921
 30
0.0
 11
50.5899999999996908
 21
3.3699999999999513
 31
0.0
  0
LINE
  5
167
100
AcDbEntity
100
AcDbLine
  8
zwischen-cut-full-outside
 62
256
370
-1
  6
ByLayer
 10
50.5899999999996908
 20
3.3699999999999513
 30
0.0
 11
49.5349526388609931
 21
3.3699999999999513
 31
0.0
  0
LINE
  5
168
100
AcDbEntity
100
AcDbLine
  8
zwischen-cut-full-outside
 62
256
370
-1
  6
ByLayer
 10
49.5349526388609931
 20
3.3699999999999513
 30
0.0
 11
42.1749999999996916
 21
3.3699999999999548
 31
0.0
  0
LINE
  5
169
100
AcDbEntity
100
AcDbLine
  8
zwischen-cut-full-outside
 62
256
370
-1
  6
ByLayer
 10
42.1749999999996916
 20
3.3699999999999548
 30
0.0
 11
42.1749999999996916
 21
2.0439999999999898
 31
0.0
  0
LINE
  5
16A
100
AcDbEntity
100
AcDbLine
  8
zwischen-cut-full-outside
 62
256
370
-1
  6
ByLayer
 10
42.1749999999996916
 20
2.0439999999999898
 30
0.0
 11
46.0000000000000071
 21
2.0439999999999863
 31
0.0
  0
LINE
  5
16B
100
AcDbEntity
100
AcDbLine
  8
zwischen-cut-full-outside
 62
256
370
-1
  6
ByLayer
 10
46.0
 20
17.9559999999998752
 30
0.0
 11
42.1749999999996916
 21
17.9559999999998752
 31
0.0
  0
LINE
  5
16C
100
AcDbEntity
100
AcDbLine
  8
zwischen-cut-full-outside
 62
256
370
-1
  6
ByLayer
 10
42.1749999999996916
 20
17.9559999999998752
 30
0.0
 11
42.1749999999996987
 21
16.6299999999999102
 31
0.0
  0
LINE
  5
16D
100
AcDbEntity
100
AcDbLine
  8
zwischen-cut-full-outside
 62
256
370
-1
  6
ByLayer
 10
42.1749999999996987
 20
16.6299999999999102
 30
0.0
 11
49.5349526388609931
 21
16.6299999999999173
 31
0.0
  0
LINE
  5
16E
100
AcDbEntity
100
AcDbLine
  8
zwischen-cut-full-outside
 62
256
370
-1
  6
ByLayer
 10
49.5349526388609931
 20
16.6299999999999173
 30
0.0
 11
50.5899999999996837
 21
16.6299999999999173
 31
0.0
  0
LINE
  5
16F
100
AcDbEntity
100
AcDbLine
  8
zwischen-cut-full-outside
 62
256
370
-1
  6
ByLayer
 10
50.5899999999996837
 20
16.6299999999999173
 30
0.0
 11
51.0999999999996959
 21
17.2419999999999405
 31
0.0
  0
LINE
  5
170
100
AcDbEntity
100
AcDbLine
  8
zwischen-cut-full-outside
 62
256
370
-1
  6
ByLayer
 10
51.0999999999996959
 20
17.2419999999999405
 30
0.0
 11
51.7898749711096258
 21
17.2419999999999476
 31
0.0
  0
LINE
  5
171
100
AcDbEntity
100
AcDbLine
  8
zwischen-cut-full-outside
 62
256
370
-1
  6
ByLayer
 10
51.7898749711096258
 20
17.2419999999999476
 30
0.0
 11
52.1199999999997843
 21
15.7965065971531438
 31
0.0
  0
LINE
  5
172
100
AcDbEntity
100
AcDbLine
  8
zwischen-cut-full-outside
 62
256
370
-1
  6
ByLayer
 10
52.1199999999997843
 20
15.7965065971531438
 30
0.0
 11
52.1199999999997914
 21
14.3094999999999928
 31
0.0
  0
ARC
  5
173
100
AcDbEntity
  8
zwischen-cut-full-outside
 62
256
370
-1
  6
ByLayer
100
AcDbCircle
 10
51.4824999999997814
 20
14.3094999999999963
 30
0.0
 40
0.6375
100
AcDbArc
 50
270.0
 51
0.0
  0
LINE
  5
174
100
AcDbEntity
100
AcDbLine
  8
zwischen-cut-full-outside
 62
256
370
-1
  6
ByLayer
 10
51.4824999999997743
 20
13.6720000000000006
 30
0.0
 11
42.1749999999996916
 21
13.671999999999997
 31
0.0
  0
LINE
  5
175
100
AcDbEntity
100
AcDbLine
  8
zwischen-cut-full-outside
 62
256
370
-1
  6
ByLayer
 10
42.1749999999996916
 20
13.671999999999997
 30
0.0
 11
42.1749999999996916
 21
12.3460000000000463
 31
0.0
  0
LINE
  5
176
100
AcDbEntity
100
AcDbLine
  8
zwischen-cut-full-outside
 62
256
370
-1
  6
ByLayer
 10
42.1749999999996916
 20
12.3460000000000463
 30
0.0
 11
46.0
 21
12.3460000000000427
 31
0.0
  0
LINE
  5
177
100
AcDbEntity
100
AcDbLine
  8
zwischen-cut-full-outside
 62
256
370
-1
  6
ByLayer
 10
46.0
 20
12.3460000000000427
 30
0.0
 11
46.0
 21
11.9215611460128024
 31
0.0
  0
ARC
  5
178
100
AcDbEntity
  8
zwischen-cut-full-outside
 62
256
370
-1
  6
ByLayer
100
AcDbCircle
 10
46.4507805730060994
 20
11.4707805730063725
 30
0.0
 40
0.6375000000000051
100
AcDbArc
 50
135.0
 51
315.0000000000000568
  0
LINE
  5
179
100
AcDbEntity
100
AcDbLine
  8
zwischen-cut-full-outside
 62
256
370
-1
  6
ByLayer
 10
46.9015611460125612
 20
11.0199999999999427
 30
0.0
 11
51.4824999999998951
 21
11.0199999999999463
 31
0.0
  0
LINE
  5
17A
100
AcDbEntity
100
AcDbLine
  8
zwischen-cut-full-outside
 62
256
370
-1
  6
ByLayer
 10
51.4824999999998951
 20
11.0199999999999463
 30
0.0
 11
52.1199999999998838
 21
10.382499999999844
 31
0.0
  0
LINE
  5
17B
100
AcDbEntity
100
AcDbLine
  8
zwischen-cut-full-outside
 62
256
370
-1
  6
ByLayer
 10
52.1199999999998838
 20
10.382499999999844
 30
0.0
 11
52.1199999999998838
 21
9.6174999999999429
 31
0.0
  0
LINE
  5
17C
100
AcDbEntity
100
AcDbLine
  8
zwischen-cut-full-outside
 62
256
370
-1
  6
ByLayer
 10
52.1199999999998838
 20
9.6174999999999429
 30
0.0
 11
51.482499999999888
 21
8.9799999999999507
 31
0.0
  0
LINE
  5
17D
100
AcDbEntity
100
AcDbLine
  8
zwischen-cut-full-outside
 62
256
370
-1
  6
ByLayer
 10
51.482499999999888
 20
8.9799999999999507
 30
0.0
 11
46.9015611460125541
 21
8.9800000000001283
 31
0.0
  0
ARC
  5
17E
100
AcDbEntity
  8
zwischen-cut-full-outside
 62
256
370
-1
  6
ByLayer
100
AcDbCircle
 10
46.4507805730061136
 20
8.5292194269937092
 30
0.0
 40
0.6375000000000051
100
AcDbArc
 50
45.0
 51
225.0
  0
LINE
  5
17F
100
AcDbEntity
100
AcDbLine
  8
zwischen-cut-full-outside
 62
256
370
-1
  6
ByLayer
 10
46.0
 20
90.0
 30
0.0
 11
46.0
 21
87.955999999999861
 31
0.0
  0
LINE
  5
180
100
AcDbEntity
100
AcDbLine
  8
zwischen-cut-full-outside
 62
256
370
-1
  6
ByLayer
 10
46.0000000000000071
 20
2.0439999999999863
 30
0.0
 11
46.0
 21
0.0
 31
0.0
  0
LINE
  5
181
100
AcDbEntity
100
AcDbLine
  8
hilf
 62
256
370
-1
  6
ByLayer
 10
36.5749577804586465
 20
-0.0078166465614657
 30
0.0
 11
36.5749577804586465
 21
89.9921833534385343
 31
0.0
  0
CIRCLE
  5
182
100
AcDbEntity
100
AcDbCircle
  8
zwischen-cut-full-inside
 62
256
370
-1
  6
ByLayer
 10
36.5749577804586465
 20
80.0
 30
0.0
 40
4.0519999999999996
  0
CIRCLE
  5
183
100
AcDbEntity
100
AcDbCircle
  8
zwischen-cut-full-inside
 62
256
370
-1
  6
ByLayer
 10
36.5749577804586465
 20
10.0
 30
0.0
 40
4.0519999999999996
  0
LINE
  5
184
100
AcDbEntity
100
AcDbLine
  8
hilf
 62
256
370
-1
  6
ByLayer
 10
69.6141855278352182
 20
63.9490667689928713
 30
0.0
 11
42.8699638118218047
 21
63.9490667689928713
 31
0.0
  0
LINE
  5
185
100
AcDbEntity
100
AcDbLine
  8
hilf
 62
256
370
-1
  6
ByLayer
 10
69.7512247714033293
 20
26.0197363280468821
 30
0.0
 11
40.0212303980702728
 21
26.0197363280468821
 31
0.0
  0
LINE
  5
186
100
AcDbEntity
100
AcDbLine
  8
zwischen-cut-full-outside
 62
256
370
-1
  6
ByLayer
 10
46.0
 20
26.0197363280468821
 30
0.0
 11
37.0
 21
26.0197363280468821
 31
0.0
  0
LINE
  5
187
100
AcDbEntity
100
AcDbLine
  8
zwischen-cut-full-outside
 62
256
370
-1
  6
ByLayer
 10
46.0
 20
63.9490667689928713
 30
0.0
 11
37.0
 21
63.9490667689928713
 31
0.0
  0
LINE
  5
188
100
AcDbEntity
100
AcDbLine
  8
zwischen-cut-full-outside
 62
256
370
-1
  6
ByLayer
 10
37.0
 20
63.9490667689928713
 30
0.0
 11
37.0
 21
26.0197363280468821
 31
0.0
  0
LINE
  5
189
100
AcDbEntity
100
AcDbLine
  8
zwischen-cut-full-outside
 62
256
370
-1
  6
ByLayer
 10
46.0
 20
72.0439999999999827
 30
0.0
 11
46.0
 21
63.9490667689928713
 31
0.0
  0
LINE
  5
18A
100
AcDbEntity
100
AcDbLine
  8
zwischen-cut-full-outside
 62
256
370
-1
  6
ByLayer
 10
46.0
 20
26.0197363280468821
 30
0.0
 11
46.0
 21
17.9559999999998752
 31
0.0
  0
ENDSEC
  0
SECTION
  2
OBJECTS
  0
DICTIONARY
  5
C
100
AcDbDictionary
280
0
281
1
  3
ACAD_GROUP
350
D
  3
ACAD_LAYOUT
350
1A
  3
ACAD_MLINESTYLE
350
17
  3
ACAD_PLOTSETTINGS
350
19
  3
ACAD_PLOTSTYLENAME
350
E
  3
AcDbVariableDictionary
350
18B
  0
DICTIONARY
  5
D
100
AcDbDictionary
280
0
281
1
  0
ACDBDICTIONARYWDFLT
  5
E
100
AcDbDictionary
281
1
  3
Normal
350
F
100
AcDbDictionaryWithDefault
340
F
  0
ACDBPLACEHOLDER
  5
F
  0
DICTIONARY
  5
17
100
AcDbDictionary
280
0
281
1
  3
Standard
350
18
  0
MLINESTYLE
  5
18
100
AcDbMlineStyle
  2
STANDARD
 70
0
  3

 62
256
 51
90.0
 52
90.0
 71
2
 49
0.5
 62
256
  6
BYLAYER
 49
-0.5
 62
256
  6
BYLAYER
  0
DICTIONARY
  5
19
100
AcDbDictionary
280
0
281
1
  0
DICTIONARY
  5
1A
100
AcDbDictionary
281
1
  3
Layout1
350
1E
  3
Layout2
350
26
  3
Model
350
22
  0
LAYOUT
  5
1E
100
AcDbPlotSettings
  1

  2
C:\Program Files\AutoCAD 2002\plotters\DWF ePlot (optimized for plotting).pc3
  4

  6

 40
0.0
 41
0.0
 42
0.0
 43
0.0
 44
0.0
 45
0.0
 46
0.0
 47
0.0
 48
0.0
 49
0.0
140
0.0
141
0.0
142
1.0
143
1.0
 70
688
 72
0
 73
0
 74
5
  7

 75
16
147
1.0
148
0.0
149
0.0
100
AcDbLayout
  1
Layout1
 70
1
 71
1
 10
0.0
 20
0.0
 11
420.0
 21
297.0
 12
0.0
 22
0.0
 32
0.0
 14
100000000000000000000.0
 24
100000000000000000000.0
 34
100000000000000000000.0
 15
-100000000000000000000.0
 25
-100000000000000000000.0
 35
-100000000000000000000.0
146
0.0
 13
0.0
 23
0.0
 33
0.0
 16
1.0
 26
0.0
 36
0.0
 17
0.0
 27
1.0
 37
0.0
 76
0
330
1B
  0
LAYOUT
  5
22
100
AcDbPlotSettings
  1

  2
C:\Program Files\AutoCAD 2002\plotters\DWF ePlot (optimized for plotting).pc3
  4

  6

 40
0.0
 41
0.0
 42
0.0
 43
0.0
 44
0.0
 45
0.0
 46
0.0
 47
0.0
 48
0.0
 49
0.0
140
0.0
141
0.0
142
1.0
143
1.0
 70
1712
 72
0
 73
0
 74
0
  7

 75
0
147
1.0
148
0.0
149
0.0
100
AcDbLayout
  1
Model
 70
1
 71
0
 10
0.0
 20
0.0
 11
12.0
 21
9.0
 12
0.0
 22
0.0
 32
0.0
 14
0.0
 24
0.0
 34
0.0
 15
0.0
 25
0.0
 35
0.0
146
0.0
 13
0.0
 23
0.0
 33
0.0
 16
1.0
 26
0.0
 36
0.0
 17
0.0
 27
1.0
 37
0.0
 76
0
330
1F
  0
LAYOUT
  5
26
100
AcDbPlotSettings
  1

  2
C:\Program Files\AutoCAD 2002\plotters\DWF ePlot (optimized for plotting).pc3
  4

  6

 40
0.0
 41
0.0
 42
0.0
 43
0.0
 44
0.0
 45
0.0
 46
0.0
 47
0.0
 48
0.0
 49
0.0
140
0.0
141
0.0
142
1.0
143
1.0
 70
688
 72
0
 73
0
 74
5
  7

 75
16
147
1.0
148
0.0
149
0.0
100
AcDbLayout
  1
Layout2
 70
1
 71
2
 10
0.0
 20
0.0
 11
12.0
 21
9.0
 12
0.0
 22
0.0
 32
0.0
 14
0.0
 24
0.0
 34
0.0
 15
0.0
 25
0.0
 35
0.0
146
0.0
 13
0.0
 23
0.0
 33
0.0
 16
1.0
 26
0.0
 36
0.0
 17
0.0
 27
1.0
 37
0.0
 76
0
330
23
  0
DICTIONARY
  5
18B
100
AcDbDictionary
281
1
  3
DIMASSOC
350
18D
  3
HIDETEXT
350
18C
  0
DICTIONARYVAR
  5
18C
100
DictionaryVariables
280
0
  1
2
  0
DICTIONARYVAR
  5
18D
100
DictionaryVariables
280
0
  1
1
  0
ENDSEC
  0
EOF
