999
dxflib 2.2.0.0
  0
SECTION
  2
HEADER
  9
$ACADVER
  1
AC1015
  9
$HANDSEED
  5
FFFF
  9
$DIMASZ
 40
2.5
  9
$DIMGAP
 40
0.625
  9
$DIMEXO
 40
0.625
  9
$INSUNITS
 70
4
  9
$DIMTXT
 40
2.5
  9
$PLIMMAX
 10
210.0
 20
297.0
  9
$PLIMMIN
 10
0.0
 20
0.0
  9
$DIMEXE
 40
1.25
  0
ENDSEC
  0
SECTION
  2
TABLES
  0
TABLE
  2
VPORT
  5
8
100
AcDbSymbolTable
 70
1
  0
VPORT
  5
30
100
AcDbSymbolTableRecord
100
AcDbViewportTableRecord
  2
*Active
 70
0
 10
0.0
 20
0.0
 11
1.0
 21
1.0
 12
286.3055555555554861
 22
148.5
 13
0.0
 23
0.0
 14
10.0
 24
10.0
 15
10.0
 25
10.0
 16
0.0
 26
0.0
 36
1.0
 17
0.0
 27
0.0
 37
0.0
 40
297.0
 41
1.92798353909465
 42
50.0
 43
0.0
 44
0.0
 50
0.0
 51
0.0
 71
0
 72
100
 73
1
 74
3
 75
1
 76
1
 77
0
 78
0
281
0
 65
1
110
0.0
120
0.0
130
0.0
111
1.0
121
0.0
131
0.0
112
0.0
122
1.0
132
0.0
 79
0
146
0.0
  0
ENDTAB
  0
TABLE
  2
LTYPE
  5
5
100
AcDbSymbolTable
 70
21
  0
LTYPE
  5
14
100
AcDbSymbolTableRecord
100
AcDbLinetypeTableRecord
  2
ByBlock
 70
0
  3

 72
65
 73
0
 40
0.0
  0
LTYPE
  5
15
100
AcDbSymbolTableRecord
100
AcDbLinetypeTableRecord
  2
ByLayer
 70
0
  3

 72
65
 73
0
 40
0.0
  0
LTYPE
  5
16
100
AcDbSymbolTableRecord
100
AcDbLinetypeTableRecord
  2
CONTINUOUS
 70
0
  3
Solid line
 72
65
 73
0
 40
0.0
  0
LTYPE
  5
31
100
AcDbSymbolTableRecord
100
AcDbLinetypeTableRecord
  2
DOT
 70
0
  3
Dot . . . . . . . . . . . . . . . . . . . . . .
 72
65
 73
2
 40
6.3499999999999996
 49
0.0
 74
0
 49
-6.3499999999999996
 74
0
  0
LTYPE
  5
32
100
AcDbSymbolTableRecord
100
AcDbLinetypeTableRecord
  2
DOT2
 70
0
  3
Dot (.5x) .....................................
 72
65
 73
2
 40
3.1749999999999998
 49
0.0
 74
0
 49
-3.1749999999999998
 74
0
  0
LTYPE
  5
33
100
AcDbSymbolTableRecord
100
AcDbLinetypeTableRecord
  2
DOTX2
 70
0
  3
Dot (2x) .  .  .  .  .  .  .  .  .  .  .  .  .
 72
65
 73
2
 40
12.6999999999999993
 49
0.0
 74
0
 49
-12.6999999999999993
 74
0
  0
LTYPE
  5
34
100
AcDbSymbolTableRecord
100
AcDbLinetypeTableRecord
  2
DASHED
 70
0
  3
Dashed __ __ __ __ __ __ __ __ __ __ __ __ __ _
 72
65
 73
2
 40
19.0500000000000007
 49
12.6999999999999993
 74
0
 49
-6.3499999999999996
 74
0
  0
LTYPE
  5
35
100
AcDbSymbolTableRecord
100
AcDbLinetypeTableRecord
  2
DASHED2
 70
0
  3
Dashed (.5x) _ _ _ _ _ _ _ _ _ _ _ _ _ _ _ _ _
 72
65
 73
2
 40
9.5250000000000004
 49
6.3499999999999996
 74
0
 49
-3.1749999999999998
 74
0
  0
LTYPE
  5
36
100
AcDbSymbolTableRecord
100
AcDbLinetypeTableRecord
  2
DASHEDX2
 70
0
  3
Dashed (2x) ____  ____  ____  ____  ____  ___
 72
65
 73
2
 40
38.1000000000000014
 49
25.3999999999999986
 74
0
 49
-12.6999999999999993
 74
0
  0
LTYPE
  5
37
100
AcDbSymbolTableRecord
100
AcDbLinetypeTableRecord
  2
DASHDOT
 70
0
  3
Dash dot __ . __ . __ . __ . __ . __ . __ . __
 72
65
 73
4
 40
25.3999999999999986
 49
12.6999999999999993
 74
0
 49
-6.3499999999999996
 74
0
 49
0.0
 74
0
 49
-6.3499999999999996
 74
0
  0
LTYPE
  5
38
100
AcDbSymbolTableRecord
100
AcDbLinetypeTableRecord
  2
DASHDOT2
 70
0
  3
Dash dot (.5x) _._._._._._._._._._._._._._._.
 72
65
 73
4
 40
12.6999999999999993
 49
6.3499999999999996
 74
0
 49
-3.1749999999999998
 74
0
 49
0.0
 74
0
 49
-3.1749999999999998
 74
0
  0
LTYPE
  5
39
100
AcDbSymbolTableRecord
100
AcDbLinetypeTableRecord
  2
DASHDOTX2
 70
0
  3
Dash dot (2x) ____  .  ____  .  ____  .  ___
 72
65
 73
4
 40
50.7999999999999972
 49
25.3999999999999986
 74
0
 49
-12.6999999999999993
 74
0
 49
0.0
 74
0
 49
-12.6999999999999993
 74
0
  0
LTYPE
  5
3A
100
AcDbSymbolTableRecord
100
AcDbLinetypeTableRecord
  2
DIVIDE
 70
0
  3
Divide ____ . . ____ . . ____ . . ____ . . ____
 72
65
 73
6
 40
31.75
 49
12.6999999999999993
 74
0
 49
-6.3499999999999996
 74
0
 49
0.0
 74
0
 49
-6.3499999999999996
 74
0
 49
0.0
 74
0
 49
-6.3499999999999996
 74
0
  0
LTYPE
  5
3B
100
AcDbSymbolTableRecord
100
AcDbLinetypeTableRecord
  2
DIVIDE2
 70
0
  3
Divide (.5x) __..__..__..__..__..__..__..__.._
 72
65
 73
6
 40
15.875
 49
6.3499999999999996
 74
0
 49
-3.1749999999999998
 74
0
 49
0.0
 74
0
 49
-3.1749999999999998
 74
0
 49
0.0
 74
0
 49
-3.1749999999999998
 74
0
  0
LTYPE
  5
3C
100
AcDbSymbolTableRecord
100
AcDbLinetypeTableRecord
  2
DIVIDEX2
 70
0
  3
Divide (2x) ________  .  .  ________  .  .  _
 72
65
 73
6
 40
63.5
 49
25.3999999999999986
 74
0
 49
-12.6999999999999993
 74
0
 49
0.0
 74
0
 49
-12.6999999999999993
 74
0
 49
0.0
 74
0
 49
-12.6999999999999993
 74
0
  0
LTYPE
  5
3D
100
AcDbSymbolTableRecord
100
AcDbLinetypeTableRecord
  2
CENTER
 70
0
  3
Center ____ _ ____ _ ____ _ ____ _ ____ _ ____
 72
65
 73
4
 40
50.7999999999999972
 49
31.75
 74
0
 49
-6.3499999999999996
 74
0
 49
6.3499999999999996
 74
0
 49
-6.3499999999999996
 74
0
  0
LTYPE
  5
3E
100
AcDbSymbolTableRecord
100
AcDbLinetypeTableRecord
  2
CENTER2
 70
0
  3
Center (.5x) ___ _ ___ _ ___ _ ___ _ ___ _ ___
 72
65
 73
4
 40
28.5749999999999993
 49
19.0500000000000007
 74
0
 49
-3.1749999999999998
 74
0
 49
3.1749999999999998
 74
0
 49
-3.1749999999999998
 74
0
  0
LTYPE
  5
3F
100
AcDbSymbolTableRecord
100
AcDbLinetypeTableRecord
  2
CENTERX2
 70
0
  3
Center (2x) ________  __  ________  __  _____
 72
65
 73
4
 40
101.5999999999999943
 49
63.5
 74
0
 49
-12.6999999999999993
 74
0
 49
12.6999999999999993
 74
0
 49
-12.6999999999999993
 74
0
  0
LTYPE
  5
40
100
AcDbSymbolTableRecord
100
AcDbLinetypeTableRecord
  2
BORDER
 70
0
  3
Border __ __ . __ __ . __ __ . __ __ . __ __ .
 72
65
 73
6
 40
44.4500000000000028
 49
12.6999999999999993
 74
0
 49
-6.3499999999999996
 74
0
 49
12.6999999999999993
 74
0
 49
-6.3499999999999996
 74
0
 49
0.0
 74
0
 49
-6.3499999999999996
 74
0
  0
LTYPE
  5
41
100
AcDbSymbolTableRecord
100
AcDbLinetypeTableRecord
  2
BORDER2
 70
0
  3
Border (.5x) __.__.__.__.__.__.__.__.__.__.__.
 72
65
 73
6
 40
22.2250000000000014
 49
6.3499999999999996
 74
0
 49
-3.1749999999999998
 74
0
 49
6.3499999999999996
 74
0
 49
-3.1749999999999998
 74
0
 49
0.0
 74
0
 49
-3.1749999999999998
 74
0
  0
LTYPE
  5
42
100
AcDbSymbolTableRecord
100
AcDbLinetypeTableRecord
  2
BORDERX2
 70
0
  3
Border (2x) ____  ____  .  ____  ____  .  ___
 72
65
 73
6
 40
88.9000000000000057
 49
25.3999999999999986
 74
0
 49
-12.6999999999999993
 74
0
 49
25.3999999999999986
 74
0
 49
-12.6999999999999993
 74
0
 49
0.0
 74
0
 49
-12.6999999999999993
 74
0
  0
ENDTAB
  0
TABLE
  2
LAYER
  5
2
100
AcDbSymbolTable
 70
4
  0
LAYER
  5
10
100
AcDbSymbolTableRecord
100
AcDbLayerTableRecord
  2
0
 70
0
 62
7
  6
CONTINUOUS
370
0
390
F
  0
LAYER
  5
43
100
AcDbSymbolTableRecord
100
AcDbLayerTableRecord
  2
zwischen-cut-full-inside
 70
0
 62
15
  6
CONTINUOUS
370
-3
390
F
  0
LAYER
  5
44
100
AcDbSymbolTableRecord
100
AcDbLayerTableRecord
  2
zwischen-cut-full-outside
 70
0
 62
2
  6
CONTINUOUS
370
-3
390
F
  0
LAYER
  5
45
100
AcDbSymbolTableRecord
100
AcDbLayerTableRecord
  2
hilf
 70
0
 62
4
  6
CONTINUOUS
370
0
390
F
  0
ENDTAB
  0
TABLE
  2
STYLE
  5
3
100
AcDbSymbolTable
 70
1
  0
STYLE
  5
11
100
AcDbSymbolTableRecord
100
AcDbTextStyleTableRecord
  2
Standard
 70
0
 40
0.0
 41
0.75
 50
0.0
 71
0
 42
2.5
  3
txt
  4

  0
ENDTAB
  0
TABLE
  2
VIEW
  5
6
100
AcDbSymbolTable
 70
0
  0
ENDTAB
  0
TABLE
  2
UCS
  5
7
100
AcDbSymbolTable
 70
0
  0
ENDTAB
  0
TABLE
  2
APPID
  5
9
100
AcDbSymbolTable
 70
1
  0
APPID
  5
12
100
AcDbSymbolTableRecord
100
AcDbRegAppTableRecord
  2
ACAD
 70
0
  0
ENDTAB
  0
TABLE
  2
DIMSTYLE
  5
A
100
AcDbSymbolTable
 70
1
100
AcDbDimStyleTable
 71
0
  0
DIMSTYLE
105
27
100
AcDbSymbolTableRecord
100
AcDbDimStyleTableRecord
  2
Standard
 41
2.5
 42
0.625
 43
3.75
 44
1.25
 70
0
 73
0
 74
0
 77
1
 78
8
140
2.5
141
2.5
143
0.03937007874016
147
0.625
171
3
172
1
271
2
272
2
274
3
278
44
283
0
284
8
340
11
  0
ENDTAB
  0
TABLE
  2
BLOCK_RECORD
  5
1
100
AcDbSymbolTable
 70
1
  0
BLOCK_RECORD
  5
1F
100
AcDbSymbolTableRecord
100
AcDbBlockTableRecord
  2
*Model_Space
340
22
  0
BLOCK_RECORD
  5
1B
100
AcDbSymbolTableRecord
100
AcDbBlockTableRecord
  2
*Paper_Space
340
1E
  0
BLOCK_RECORD
  5
23
100
AcDbSymbolTableRecord
100
AcDbBlockTableRecord
  2
*Paper_Space0
340
26
  0
ENDTAB
  0
ENDSEC
  0
SECTION
  2
BLOCKS
  0
BLOCK
  5
20
100
AcDbEntity
  8
0
100
AcDbBlockBegin
  2
*Model_Space
 70
0
 10
0.0
 20
0.0
 30
0.0
  3
*Model_Space
  1

  0
ENDBLK
  5
21
100
AcDbEntity
  8
0
100
AcDbBlockEnd
  0
BLOCK
  5
1C
100
AcDbEntity
 67
1
  8
0
100
AcDbBlockBegin
  2
*Paper_Space
 70
0
 10
0.0
 20
0.0
 30
0.0
  3
*Paper_Space
  1

  0
ENDBLK
  5
1D
100
AcDbEntity
 67
1
  8
0
100
AcDbBlockEnd
  0
BLOCK
  5
24
100
AcDbEntity
  8
0
100
AcDbBlockBegin
  2
*Paper_Space0
 70
0
 10
0.0
 20
0.0
 30
0.0
  3
*Paper_Space0
  1

  0
ENDBLK
  5
25
100
AcDbEntity
  8
0
100
AcDbBlockEnd
  0
ENDSEC
  0
SECTION
  2
ENTITIES
  0
LINE
  5
46
100
AcDbEntity
100
AcDbLine
  8
zwischen-cut-full-inside
 62
256
370
-1
  6
ByLayer
 10
4.6919999999999407
 20
11.0045310555444473
 30
0.0
 11
4.6919999999999407
 21
5.0999999999999925
 31
0.0
  0
LINE
  5
47
100
AcDbEntity
100
AcDbLine
  8
zwischen-cut-full-inside
 62
256
370
-1
  6
ByLayer
 10
4.6919999999999407
 20
5.0999999999999925
 30
0.0
 11
6.0180000000000433
 21
5.0999999999999925
 31
0.0
  0
LINE
  5
48
100
AcDbEntity
100
AcDbLine
  8
zwischen-cut-full-inside
 62
256
370
-1
  6
ByLayer
 10
6.0180000000000433
 20
5.0999999999999925
 30
0.0
 11
6.0180000000000433
 21
11.0045310555444473
 31
0.0
  0
LINE
  5
49
100
AcDbEntity
100
AcDbLine
  8
zwischen-cut-full-inside
 62
256
370
-1
  6
ByLayer
 10
6.0180000000000433
 20
11.0045310555444473
 30
0.0
 11
4.6919999999999407
 21
11.0045310555444473
 31
0.0
  0
LINE
  5
4A
100
AcDbEntity
100
AcDbLine
  8
zwischen-cut-full-inside
 62
256
370
-1
  6
ByLayer
 10
16.3200000000000891
 20
11.0045310555444473
 30
0.0
 11
16.3200000000000891
 21
5.0999999999999925
 31
0.0
  0
LINE
  5
4B
100
AcDbEntity
100
AcDbLine
  8
zwischen-cut-full-inside
 62
256
370
-1
  6
ByLayer
 10
16.3200000000000891
 20
5.0999999999999925
 30
0.0
 11
14.9940000000001366
 21
5.0999999999999925
 31
0.0
  0
LINE
  5
4C
100
AcDbEntity
100
AcDbLine
  8
zwischen-cut-full-inside
 62
256
370
-1
  6
ByLayer
 10
14.9940000000001366
 20
5.0999999999999925
 30
0.0
 11
14.9940000000001366
 21
11.0045310555444473
 31
0.0
  0
LINE
  5
4D
100
AcDbEntity
100
AcDbLine
  8
zwischen-cut-full-inside
 62
256
370
-1
  6
ByLayer
 10
14.9940000000001366
 20
11.0045310555444473
 30
0.0
 11
16.3200000000000891
 21
11.0045310555444473
 31
0.0
  0
LINE
  5
4E
100
AcDbEntity
100
AcDbLine
  8
zwischen-cut-full-outside
 62
256
370
-1
  6
ByLayer
 10
8.5844388539872902
 20
8.9249999999999936
 30
0.0
 11
8.1600000000000108
 21
8.9249999999999936
 31
0.0
  0
LINE
  5
4F
100
AcDbEntity
100
AcDbLine
  8
zwischen-cut-full-outside
 62
256
370
-1
  6
ByLayer
 10
8.1600000000000108
 20
8.9249999999999936
 30
0.0
 11
8.1599999999999699
 21
5.0999999999999925
 31
0.0
  0
LINE
  5
50
100
AcDbEntity
100
AcDbLine
  8
zwischen-cut-full-outside
 62
256
370
-1
  6
ByLayer
 10
8.1599999999999699
 20
5.0999999999999925
 30
0.0
 11
6.8340000000000218
 21
5.0999999999999925
 31
0.0
  0
LINE
  5
51
100
AcDbEntity
100
AcDbLine
  8
zwischen-cut-full-outside
 62
256
370
-1
  6
ByLayer
 10
6.8340000000000218
 20
5.0999999999999925
 30
0.0
 11
6.8340000000000218
 21
14.4075000000000841
 31
0.0
  0
ARC
  5
52
100
AcDbEntity
  8
zwischen-cut-full-outside
 62
256
370
-1
  6
ByLayer
100
AcDbCircle
 10
6.1965000000000217
 20
14.4075000000000841
 30
0.0
 40
0.6375
100
AcDbArc
 50
0.0
 51
89.9213909180864022
  0
LINE
  5
53
100
AcDbEntity
100
AcDbLine
  8
zwischen-cut-full-outside
 62
256
370
-1
  6
ByLayer
 10
6.1973746416299536
 20
15.0449994000012097
 30
0.0
 11
4.7094934028470208
 21
15.0450000000000834
 31
0.0
  0
LINE
  5
54
100
AcDbEntity
100
AcDbLine
  8
zwischen-cut-full-outside
 62
256
370
-1
  6
ByLayer
 10
4.7094934028470208
 20
15.0450000000000834
 30
0.0
 11
3.2639999999999301
 21
14.7148749711099249
 31
0.0
  0
LINE
  5
55
100
AcDbEntity
100
AcDbLine
  8
zwischen-cut-full-outside
 62
256
370
-1
  6
ByLayer
 10
3.2639999999999301
 20
14.7148749711099249
 30
0.0
 11
3.2639999999999301
 21
14.0249999999999915
 31
0.0
  0
LINE
  5
56
100
AcDbEntity
100
AcDbLine
  8
zwischen-cut-full-outside
 62
256
370
-1
  6
ByLayer
 10
3.2639999999999301
 20
14.0249999999999915
 30
0.0
 11
3.8759999999999626
 21
13.5149999999999828
 31
0.0
  0
LINE
  5
57
100
AcDbEntity
100
AcDbLine
  8
zwischen-cut-full-outside
 62
256
370
-1
  6
ByLayer
 10
3.8759999999999626
 20
13.5149999999999828
 30
0.0
 11
3.8759999999999626
 21
12.4599526388612905
 31
0.0
  0
LINE
  5
58
100
AcDbEntity
100
AcDbLine
  8
zwischen-cut-full-outside
 62
256
370
-1
  6
ByLayer
 10
3.8759999999999626
 20
12.4599526388612905
 30
0.0
 11
3.8759999999999626
 21
5.0999999999999925
 31
0.0
  0
LINE
  5
59
100
AcDbEntity
100
AcDbLine
  8
zwischen-cut-full-outside
 62
256
370
-1
  6
ByLayer
 10
3.8759999999999626
 20
5.0999999999999925
 30
0.0
 11
2.5499999999999998
 21
5.0999999999999925
 31
0.0
  0
LINE
  5
5A
100
AcDbEntity
100
AcDbLine
  8
zwischen-cut-full-outside
 62
256
370
-1
  6
ByLayer
 10
2.5499999999999998
 20
5.0999999999999925
 30
0.0
 11
2.5499999999999998
 21
8.9250000000003009
 31
0.0
  0
LINE
  5
5B
100
AcDbEntity
100
AcDbLine
  8
zwischen-cut-full-outside
 62
256
370
-1
  6
ByLayer
 10
2.5499999999999998
 20
8.9250000000003009
 30
0.0
 11
0.0
 21
8.9250000000003009
 31
0.0
  0
LINE
  5
5C
100
AcDbEntity
100
AcDbLine
  8
zwischen-cut-full-outside
 62
256
370
-1
  6
ByLayer
 10
0.0
 20
8.9250000000003009
 30
0.0
 11
0.0
 21
2.5499999999999998
 31
0.0
  0
ARC
  5
5D
100
AcDbEntity
  8
zwischen-cut-full-outside
 62
256
370
-1
  6
ByLayer
100
AcDbCircle
 10
2.5499999999999998
 20
2.5499999999999998
 30
0.0
 40
2.5499999999999998
100
AcDbArc
 50
180.0
 51
269.9999999999996021
  0
LINE
  5
5E
100
AcDbEntity
100
AcDbLine
  8
zwischen-cut-full-outside
 62
256
370
-1
  6
ByLayer
 10
2.5499999999999909
 20
0.0
 30
0.0
 11
18.4619999999999003
 21
-0.0000000000000071
 31
0.0
  0
ARC
  5
5F
100
AcDbEntity
  8
zwischen-cut-full-outside
 62
256
370
-1
  6
ByLayer
100
AcDbCircle
 10
18.4619999999999003
 20
2.5499999999999936
 30
0.0
 40
2.5499999999999998
100
AcDbArc
 50
270.0
 51
0.0
  0
LINE
  5
60
100
AcDbEntity
100
AcDbLine
  8
zwischen-cut-full-outside
 62
256
370
-1
  6
ByLayer
 10
21.011999999999901
 20
2.5499999999999936
 30
0.0
 11
21.0119999999998797
 21
8.9249999999999936
 31
0.0
  0
LINE
  5
61
100
AcDbEntity
100
AcDbLine
  8
zwischen-cut-full-outside
 62
256
370
-1
  6
ByLayer
 10
21.0119999999998797
 20
8.9249999999999936
 30
0.0
 11
18.4619999999998825
 21
8.9249999999999936
 31
0.0
  0
LINE
  5
62
100
AcDbEntity
100
AcDbLine
  8
zwischen-cut-full-outside
 62
256
370
-1
  6
ByLayer
 10
18.4619999999998825
 20
8.9249999999999936
 30
0.0
 11
18.4619999999998825
 21
5.0999999999999925
 31
0.0
  0
LINE
  5
63
100
AcDbEntity
100
AcDbLine
  8
zwischen-cut-full-outside
 62
256
370
-1
  6
ByLayer
 10
18.4619999999998825
 20
5.0999999999999925
 30
0.0
 11
17.1359999999999282
 21
5.0999999999999925
 31
0.0
  0
LINE
  5
64
100
AcDbEntity
100
AcDbLine
  8
zwischen-cut-full-outside
 62
256
370
-1
  6
ByLayer
 10
17.1359999999999282
 20
5.0999999999999925
 30
0.0
 11
17.1359999999999282
 21
12.4599526388612905
 31
0.0
  0
LINE
  5
65
100
AcDbEntity
100
AcDbLine
  8
zwischen-cut-full-outside
 62
256
370
-1
  6
ByLayer
 10
17.1359999999999282
 20
12.4599526388612905
 30
0.0
 11
17.1359999999999282
 21
13.5149999999999828
 31
0.0
  0
LINE
  5
66
100
AcDbEntity
100
AcDbLine
  8
zwischen-cut-full-outside
 62
256
370
-1
  6
ByLayer
 10
17.1359999999999282
 20
13.5149999999999828
 30
0.0
 11
17.7479999999999514
 21
14.0249999999999915
 31
0.0
  0
LINE
  5
67
100
AcDbEntity
100
AcDbLine
  8
zwischen-cut-full-outside
 62
256
370
-1
  6
ByLayer
 10
17.7479999999999514
 20
14.0249999999999915
 30
0.0
 11
17.7479999999999514
 21
14.7148749711099249
 31
0.0
  0
LINE
  5
68
100
AcDbEntity
100
AcDbLine
  8
zwischen-cut-full-outside
 62
256
370
-1
  6
ByLayer
 10
17.7479999999999514
 20
14.7148749711099249
 30
0.0
 11
16.3025065971531546
 21
15.0450000000000834
 31
0.0
  0
LINE
  5
69
100
AcDbEntity
100
AcDbLine
  8
zwischen-cut-full-outside
 62
256
370
-1
  6
ByLayer
 10
16.3025065971531546
 20
15.0450000000000834
 30
0.0
 11
14.815500000000009
 21
15.0450000000000834
 31
0.0
  0
ARC
  5
6A
100
AcDbEntity
  8
zwischen-cut-full-outside
 62
256
370
-1
  6
ByLayer
100
AcDbCircle
 10
14.815500000000009
 20
14.4075000000000841
 30
0.0
 40
0.6375
100
AcDbArc
 50
90.0
 51
180.0
  0
LINE
  5
6B
100
AcDbEntity
100
AcDbLine
  8
zwischen-cut-full-outside
 62
256
370
-1
  6
ByLayer
 10
14.1780000000000097
 20
14.4075000000000841
 30
0.0
 11
14.1780000000000097
 21
5.0999999999999925
 31
0.0
  0
LINE
  5
6C
100
AcDbEntity
100
AcDbLine
  8
zwischen-cut-full-outside
 62
256
370
-1
  6
ByLayer
 10
14.1780000000000097
 20
5.0999999999999925
 30
0.0
 11
12.8520000000000554
 21
5.0999999999999925
 31
0.0
  0
LINE
  5
6D
100
AcDbEntity
100
AcDbLine
  8
zwischen-cut-full-outside
 62
256
370
-1
  6
ByLayer
 10
12.8520000000000554
 20
5.0999999999999925
 30
0.0
 11
12.8520000000000554
 21
8.9249999999999936
 31
0.0
  0
LINE
  5
6E
100
AcDbEntity
100
AcDbLine
  8
zwischen-cut-full-outside
 62
256
370
-1
  6
ByLayer
 10
12.8520000000000554
 20
8.9249999999999936
 30
0.0
 11
12.4275611460128133
 21
8.9249999999999936
 31
0.0
  0
ARC
  5
6F
100
AcDbEntity
  8
zwischen-cut-full-outside
 62
256
370
-1
  6
ByLayer
100
AcDbCircle
 10
11.9767805730063852
 20
9.3757805730064199
 30
0.0
 40
0.6375000000000051
100
AcDbArc
 50
135.0
 51
315.0
  0
LINE
  5
70
100
AcDbEntity
100
AcDbLine
  8
zwischen-cut-full-outside
 62
256
370
-1
  6
ByLayer
 10
11.5259999999999572
 20
9.8265611460128479
 30
0.0
 11
11.5259999999999572
 21
14.4075000000001872
 31
0.0
  0
LINE
  5
71
100
AcDbEntity
100
AcDbLine
  8
zwischen-cut-full-outside
 62
256
370
-1
  6
ByLayer
 10
11.5259999999999572
 20
14.4075000000001872
 30
0.0
 11
10.8884999999998495
 21
15.0450000000001864
 31
0.0
  0
LINE
  5
72
100
AcDbEntity
100
AcDbLine
  8
zwischen-cut-full-outside
 62
256
370
-1
  6
ByLayer
 10
10.8884999999998495
 20
15.0450000000001864
 30
0.0
 11
10.1234999999999555
 21
15.0450000000001864
 31
0.0
  0
LINE
  5
73
100
AcDbEntity
100
AcDbLine
  8
zwischen-cut-full-outside
 62
256
370
-1
  6
ByLayer
 10
10.1234999999999555
 20
15.0450000000001864
 30
0.0
 11
9.4859999999999598
 21
14.4075000000001872
 31
0.0
  0
LINE
  5
74
100
AcDbEntity
100
AcDbLine
  8
zwischen-cut-full-outside
 62
256
370
-1
  6
ByLayer
 10
9.4859999999999598
 20
14.4075000000001872
 30
0.0
 11
9.486000000000141
 21
9.8265611460128479
 31
0.0
  0
ARC
  5
75
100
AcDbEntity
  8
zwischen-cut-full-outside
 62
256
370
-1
  6
ByLayer
100
AcDbCircle
 10
9.0352194269937236
 20
9.3757805730064199
 30
0.0
 40
0.6375000000000051
100
AcDbArc
 50
225.0
 51
45.0
  0
LINE
  5
76
100
AcDbEntity
100
AcDbLine
  8
hilf
 62
256
370
-1
  6
ByLayer
 10
3.8779741935484067
 20
0.0
 30
0.0
 11
-1.4016774193548458
 21
0.0
 31
0.0
  0
LINE
  5
77
100
AcDbEntity
100
AcDbLine
  8
hilf
 62
256
370
-1
  6
ByLayer
 10
0.0
 20
3.645348387097048
 30
0.0
 11
0.0
 21
-1.2137999999997504
 31
0.0
  0
ARC
  5
78
100
AcDbEntity
  8
zwischen-cut-full-outside
 62
256
370
-1
  6
ByLayer
100
AcDbCircle
 10
2.5500000000000007
 20
21.5500000000000007
 30
0.0
 40
2.5499999999999998
100
AcDbArc
 50
180.0
 51
270.0
  0
LINE
  5
79
100
AcDbEntity
100
AcDbLine
  8
zwischen-cut-full-outside
 62
256
370
-1
  6
ByLayer
 10
2.5500000000000007
 20
19.0
 30
0.0
 11
18.4620000000000211
 21
19.0
 31
0.0
  0
ARC
  5
7A
100
AcDbEntity
  8
zwischen-cut-full-outside
 62
256
370
-1
  6
ByLayer
100
AcDbCircle
 10
18.4620000000000211
 20
21.5500000000000007
 30
0.0
 40
2.5499999999999998
100
AcDbArc
 50
270.0
 51
0.0
  0
LINE
  5
7B
100
AcDbEntity
100
AcDbLine
  8
zwischen-cut-full-outside
 62
256
370
-1
  6
ByLayer
 10
21.0120000000000182
 20
21.5500000000000007
 30
0.0
 11
21.0120000000000182
 21
26.6499999999999986
 31
0.0
  0
ARC
  5
7C
100
AcDbEntity
  8
zwischen-cut-full-outside
 62
256
370
-1
  6
ByLayer
100
AcDbCircle
 10
18.4620000000000211
 20
26.6499999999999986
 30
0.0
 40
2.5499999999999998
100
AcDbArc
 50
0.0
 51
90.0
  0
LINE
  5
7D
100
AcDbEntity
100
AcDbLine
  8
zwischen-cut-full-outside
 62
256
370
-1
  6
ByLayer
 10
18.4620000000000211
 20
29.1999999999999993
 30
0.0
 11
2.5500000000000007
 21
29.1999999999999993
 31
0.0
  0
ARC
  5
7E
100
AcDbEntity
  8
zwischen-cut-full-outside
 62
256
370
-1
  6
ByLayer
100
AcDbCircle
 10
2.5500000000000007
 20
26.6499999999999986
 30
0.0
 40
2.5499999999999998
100
AcDbArc
 50
90.0000000000000142
 51
180.0
  0
LINE
  5
7F
100
AcDbEntity
100
AcDbLine
  8
zwischen-cut-full-outside
 62
256
370
-1
  6
ByLayer
 10
0.0
 20
26.6499999999999986
 30
0.0
 11
0.0
 21
21.5500000000000007
 31
0.0
  0
LINE
  5
80
100
AcDbEntity
100
AcDbLine
  8
zwischen-cut-full-inside
 62
256
370
-1
  6
ByLayer
 10
16.9320000000010218
 20
25.7484388539870714
 30
0.0
 11
16.9320000000010289
 21
22.4515611460127111
 31
0.0
  0
ARC
  5
81
100
AcDbEntity
  8
zwischen-cut-full-inside
 62
256
370
-1
  6
ByLayer
100
AcDbCircle
 10
16.4812194269945884
 20
22.0007805730062813
 30
0.0
 40
0.6375000000000184
100
AcDbArc
 50
315.0000000000011937
 51
44.9999999999988773
  0
ARC
  5
82
100
AcDbEntity
  8
zwischen-cut-full-inside
 62
256
370
-1
  6
ByLayer
100
AcDbCircle
 10
16.4812194269946772
 20
22.000780573006427
 30
0.0
 40
0.6375000000000051
100
AcDbArc
 50
224.9999999999863007
 51
314.9999999999890861
  0
LINE
  5
83
100
AcDbEntity
100
AcDbLine
  8
zwischen-cut-full-inside
 62
256
370
-1
  6
ByLayer
 10
16.0304388539881444
 20
21.5500000000000718
 30
0.0
 11
13.7535611460139044
 21
21.5499999999999261
 31
0.0
  0
ARC
  5
84
100
AcDbEntity
  8
zwischen-cut-full-inside
 62
256
370
-1
  6
ByLayer
100
AcDbCircle
 10
13.3027805730074729
 20
22.0007805730062813
 30
0.0
 40
0.6375000000000051
100
AcDbArc
 50
134.9999999999996874
 51
314.9999999999990905
  0
LINE
  5
85
100
AcDbEntity
100
AcDbLine
  8
zwischen-cut-full-inside
 62
256
370
-1
  6
ByLayer
 10
12.8520000000010519
 20
22.4515611460127822
 30
0.0
 11
12.8520000000010306
 21
25.7484388539872171
 31
0.0
  0
ARC
  5
86
100
AcDbEntity
  8
zwischen-cut-full-inside
 62
256
370
-1
  6
ByLayer
100
AcDbCircle
 10
13.3027805730074622
 20
26.1992194269936434
 30
0.0
 40
0.6374999999999795
100
AcDbArc
 50
135.0
 51
224.9999999999976978
  0
ARC
  5
87
100
AcDbEntity
  8
zwischen-cut-full-inside
 62
256
370
-1
  6
ByLayer
100
AcDbCircle
 10
13.3027805730074729
 20
26.199219426993718
 30
0.0
 40
0.6374999999999795
100
AcDbArc
 50
44.9999999999974065
 51
135.0000000000032117
  0
LINE
  5
88
100
AcDbEntity
100
AcDbLine
  8
zwischen-cut-full-inside
 62
256
370
-1
  6
ByLayer
 10
13.7535611460139044
 20
26.6500000000000732
 30
0.0
 11
16.030438853988155
 21
26.6499999999999275
 31
0.0
  0
ARC
  5
89
100
AcDbEntity
  8
zwischen-cut-full-inside
 62
256
370
-1
  6
ByLayer
100
AcDbCircle
 10
16.4812194269945884
 20
26.1992194269934267
 30
0.0
 40
0.6375000000000051
100
AcDbArc
 50
314.9999999999997158
 51
134.9999999999996874
  0
LINE
  5
8A
100
AcDbEntity
100
AcDbLine
  8
zwischen-cut-full-inside
 62
256
370
-1
  6
ByLayer
 10
11.5260000000010407
 20
25.7484388539872171
 30
0.0
 11
11.5260000000010212
 21
22.4515611460127822
 31
0.0
  0
ARC
  5
8B
100
AcDbEntity
  8
zwischen-cut-full-inside
 62
256
370
-1
  6
ByLayer
100
AcDbCircle
 10
11.0752194269945967
 20
22.0007805730062813
 30
0.0
 40
0.6375000000000051
100
AcDbArc
 50
224.9999999999998863
 51
45.00000000000054
  0
LINE
  5
8C
100
AcDbEntity
100
AcDbLine
  8
zwischen-cut-full-inside
 62
256
370
-1
  6
ByLayer
 10
10.6244388539881669
 20
21.5499999999999261
 30
0.0
 11
10.387561146013903
 21
21.5499999999999261
 31
0.0
  0
ARC
  5
8D
100
AcDbEntity
  8
zwischen-cut-full-inside
 62
256
370
-1
  6
ByLayer
100
AcDbCircle
 10
9.9367805730075478
 20
22.0007805730063559
 30
0.0
 40
0.6374999999999286
100
AcDbArc
 50
224.9999999999976978
 51
314.9999999999977263
  0
ARC
  5
8E
100
AcDbEntity
  8
zwischen-cut-full-inside
 62
256
370
-1
  6
ByLayer
100
AcDbCircle
 10
9.9367805730075123
 20
22.0007805730063559
 30
0.0
 40
0.637499999999903
100
AcDbArc
 50
135.0000000000001137
 51
225.0
  0
LINE
  5
8F
100
AcDbEntity
100
AcDbLine
  8
zwischen-cut-full-inside
 62
256
370
-1
  6
ByLayer
 10
9.4860000000011571
 20
22.4515611460127111
 30
0.0
 11
9.4860000000011393
 21
25.748438853987146
 31
0.0
  0
ARC
  5
90
100
AcDbEntity
  8
zwischen-cut-full-inside
 62
256
370
-1
  6
ByLayer
100
AcDbCircle
 10
9.9367805730074945
 20
26.1992194269935723
 30
0.0
 40
0.6374999999999795
100
AcDbArc
 50
135.0000000000032117
 51
225.0000000000065938
  0
ARC
  5
91
100
AcDbEntity
  8
zwischen-cut-full-inside
 62
256
370
-1
  6
ByLayer
100
AcDbCircle
 10
9.9367805730074394
 20
26.1992194269935723
 30
0.0
 40
0.637499999999954
100
AcDbArc
 50
45.0000000000002913
 51
135.0000000000003126
  0
LINE
  5
92
100
AcDbEntity
100
AcDbLine
  8
zwischen-cut-full-inside
 62
256
370
-1
  6
ByLayer
 10
10.3875611460138337
 20
26.6499999999999986
 30
0.0
 11
10.6244388539881669
 21
26.6500000000000732
 31
0.0
  0
ARC
  5
93
100
AcDbEntity
  8
zwischen-cut-full-inside
 62
256
370
-1
  6
ByLayer
100
AcDbCircle
 10
11.0752194269945967
 20
26.199219426993718
 30
0.0
 40
0.6375000000000184
100
AcDbArc
 50
315.0000000000014211
 51
135.0000000000013927
  0
LINE
  5
94
100
AcDbEntity
100
AcDbLine
  8
zwischen-cut-full-inside
 62
256
370
-1
  6
ByLayer
 10
8.1600000000012223
 20
25.7484388539872171
 30
0.0
 11
8.1600000000012578
 21
22.4515611460127822
 31
0.0
  0
ARC
  5
95
100
AcDbEntity
  8
zwischen-cut-full-inside
 62
256
370
-1
  6
ByLayer
100
AcDbCircle
 10
7.7092194269948298
 20
22.0007805730062813
 30
0.0
 40
0.6375000000000051
100
AcDbArc
 50
224.9999999999998863
 51
45.00000000000054
  0
LINE
  5
96
100
AcDbEntity
100
AcDbLine
  8
zwischen-cut-full-inside
 62
256
370
-1
  6
ByLayer
 10
7.2584388539884017
 20
21.5499999999999261
 30
0.0
 11
4.9815611460140019
 21
21.5499999999999261
 31
0.0
  0
ARC
  5
97
100
AcDbEntity
  8
zwischen-cut-full-inside
 62
256
370
-1
  6
ByLayer
100
AcDbCircle
 10
4.5307805730075934
 20
22.0007805730062813
 30
0.0
 40
0.6374999999999795
100
AcDbArc
 50
134.9999999999996021
 51
314.9999999999990905
  0
LINE
  5
98
100
AcDbEntity
100
AcDbLine
  8
zwischen-cut-full-inside
 62
256
370
-1
  6
ByLayer
 10
4.0800000000011813
 20
22.4515611460127111
 30
0.0
 11
4.0800000000011813
 21
25.7484388539872171
 31
0.0
  0
ARC
  5
99
100
AcDbEntity
  8
zwischen-cut-full-inside
 62
256
370
-1
  6
ByLayer
100
AcDbCircle
 10
4.5307805730075934
 20
26.1992194269936434
 30
0.0
 40
0.6374999999999663
100
AcDbArc
 50
135.0000000000034106
 51
224.9999999999988063
  0
ARC
  5
9A
100
AcDbEntity
  8
zwischen-cut-full-inside
 62
256
370
-1
  6
ByLayer
100
AcDbCircle
 10
4.5307805730076289
 20
26.1992194269935723
 30
0.0
 40
0.6375000000000051
100
AcDbArc
 50
44.9999999999999716
 51
135.0000000000011084
  0
LINE
  5
9B
100
AcDbEntity
100
AcDbLine
  8
zwischen-cut-full-inside
 62
256
370
-1
  6
ByLayer
 10
4.9815611460140552
 20
26.6499999999999986
 30
0.0
 11
7.2584388539883662
 21
26.6499999999999986
 31
0.0
  0
ARC
  5
9C
100
AcDbEntity
  8
zwischen-cut-full-inside
 62
256
370
-1
  6
ByLayer
100
AcDbCircle
 10
7.7092194269948671
 20
26.1992194269936434
 30
0.0
 40
0.6375000000000051
100
AcDbArc
 50
45.0000000000045972
 51
135.0000000000092086
  0
ARC
  5
9D
100
AcDbEntity
  8
zwischen-cut-full-inside
 62
256
370
-1
  6
ByLayer
100
AcDbCircle
 10
7.709219426994812
 20
26.1992194269936434
 30
0.0
 40
0.6374999999999929
100
AcDbArc
 50
314.9999999999988063
 51
45.0000000000011511
  0
LINE
  5
9E
100
AcDbEntity
100
AcDbLine
  8
hilf
 62
256
370
-1
  6
ByLayer
 10
0.0
 20
23.0181419354839001
 30
0.0
 11
0.0
 21
17.2245419354838596
 31
0.0
  0
LINE
  5
9F
100
AcDbEntity
100
AcDbLine
  8
hilf
 62
256
370
-1
  6
ByLayer
 10
3.0501290322579244
 20
19.0
 30
0.0
 11
-0.9212903225808127
 21
19.0
 31
0.0
  0
ENDSEC
  0
SECTION
  2
OBJECTS
  0
DICTIONARY
  5
C
100
AcDbDictionary
280
0
281
1
  3
ACAD_GROUP
350
D
  3
ACAD_LAYOUT
350
1A
  3
ACAD_MLINESTYLE
350
17
  3
ACAD_PLOTSETTINGS
350
19
  3
ACAD_PLOTSTYLENAME
350
E
  3
AcDbVariableDictionary
350
A0
  0
DICTIONARY
  5
D
100
AcDbDictionary
280
0
281
1
  0
ACDBDICTIONARYWDFLT
  5
E
100
AcDbDictionary
281
1
  3
Normal
350
F
100
AcDbDictionaryWithDefault
340
F
  0
ACDBPLACEHOLDER
  5
F
  0
DICTIONARY
  5
17
100
AcDbDictionary
280
0
281
1
  3
Standard
350
18
  0
MLINESTYLE
  5
18
100
AcDbMlineStyle
  2
STANDARD
 70
0
  3

 62
256
 51
90.0
 52
90.0
 71
2
 49
0.5
 62
256
  6
BYLAYER
 49
-0.5
 62
256
  6
BYLAYER
  0
DICTIONARY
  5
19
100
AcDbDictionary
280
0
281
1
  0
DICTIONARY
  5
1A
100
AcDbDictionary
281
1
  3
Layout1
350
1E
  3
Layout2
350
26
  3
Model
350
22
  0
LAYOUT
  5
1E
100
AcDbPlotSettings
  1

  2
C:\Program Files\AutoCAD 2002\plotters\DWF ePlot (optimized for plotting).pc3
  4

  6

 40
0.0
 41
0.0
 42
0.0
 43
0.0
 44
0.0
 45
0.0
 46
0.0
 47
0.0
 48
0.0
 49
0.0
140
0.0
141
0.0
142
1.0
143
1.0
 70
688
 72
0
 73
0
 74
5
  7

 75
16
147
1.0
148
0.0
149
0.0
100
AcDbLayout
  1
Layout1
 70
1
 71
1
 10
0.0
 20
0.0
 11
420.0
 21
297.0
 12
0.0
 22
0.0
 32
0.0
 14
100000000000000000000.0
 24
100000000000000000000.0
 34
100000000000000000000.0
 15
-100000000000000000000.0
 25
-100000000000000000000.0
 35
-100000000000000000000.0
146
0.0
 13
0.0
 23
0.0
 33
0.0
 16
1.0
 26
0.0
 36
0.0
 17
0.0
 27
1.0
 37
0.0
 76
0
330
1B
  0
LAYOUT
  5
22
100
AcDbPlotSettings
  1

  2
C:\Program Files\AutoCAD 2002\plotters\DWF ePlot (optimized for plotting).pc3
  4

  6

 40
0.0
 41
0.0
 42
0.0
 43
0.0
 44
0.0
 45
0.0
 46
0.0
 47
0.0
 48
0.0
 49
0.0
140
0.0
141
0.0
142
1.0
143
1.0
 70
1712
 72
0
 73
0
 74
0
  7

 75
0
147
1.0
148
0.0
149
0.0
100
AcDbLayout
  1
Model
 70
1
 71
0
 10
0.0
 20
0.0
 11
12.0
 21
9.0
 12
0.0
 22
0.0
 32
0.0
 14
0.0
 24
0.0
 34
0.0
 15
0.0
 25
0.0
 35
0.0
146
0.0
 13
0.0
 23
0.0
 33
0.0
 16
1.0
 26
0.0
 36
0.0
 17
0.0
 27
1.0
 37
0.0
 76
0
330
1F
  0
LAYOUT
  5
26
100
AcDbPlotSettings
  1

  2
C:\Program Files\AutoCAD 2002\plotters\DWF ePlot (optimized for plotting).pc3
  4

  6

 40
0.0
 41
0.0
 42
0.0
 43
0.0
 44
0.0
 45
0.0
 46
0.0
 47
0.0
 48
0.0
 49
0.0
140
0.0
141
0.0
142
1.0
143
1.0
 70
688
 72
0
 73
0
 74
5
  7

 75
16
147
1.0
148
0.0
149
0.0
100
AcDbLayout
  1
Layout2
 70
1
 71
2
 10
0.0
 20
0.0
 11
12.0
 21
9.0
 12
0.0
 22
0.0
 32
0.0
 14
0.0
 24
0.0
 34
0.0
 15
0.0
 25
0.0
 35
0.0
146
0.0
 13
0.0
 23
0.0
 33
0.0
 16
1.0
 26
0.0
 36
0.0
 17
0.0
 27
1.0
 37
0.0
 76
0
330
23
  0
DICTIONARY
  5
A0
100
AcDbDictionary
281
1
  3
DIMASSOC
350
A2
  3
HIDETEXT
350
A1
  0
DICTIONARYVAR
  5
A1
100
DictionaryVariables
280
0
  1
2
  0
DICTIONARYVAR
  5
A2
100
DictionaryVariables
280
0
  1
1
  0
ENDSEC
  0
EOF
