<?xml version="1.0" encoding="UTF-8" standalone="no"?>
<svg
   xmlns:dc="http://purl.org/dc/elements/1.1/"
   xmlns:cc="http://creativecommons.org/ns#"
   xmlns:rdf="http://www.w3.org/1999/02/22-rdf-syntax-ns#"
   xmlns:svg="http://www.w3.org/2000/svg"
   xmlns="http://www.w3.org/2000/svg"
   xmlns:sodipodi="http://sodipodi.sourceforge.net/DTD/sodipodi-0.dtd"
   xmlns:inkscape="http://www.inkscape.org/namespaces/inkscape"
   width="177.16534"
   height="496.06299"
   id="svg2"
   version="1.1"
   inkscape:version="0.48.2 r9819"
   sodipodi:docname="cubeses2.svg">
  <sodipodi:namedview
     pagecolor="#ffffff"
     bordercolor="#666666"
     borderopacity="1"
     objecttolerance="10"
     gridtolerance="10"
     guidetolerance="10"
     inkscape:pageopacity="0"
     inkscape:pageshadow="2"
     inkscape:window-width="1920"
     inkscape:window-height="1056"
     id="namedview8"
     showgrid="false"
     inkscape:zoom="1.447972"
     inkscape:cx="120.07237"
     inkscape:cy="234.88681"
     inkscape:window-x="0"
     inkscape:window-y="24"
     inkscape:window-maximized="1"
     inkscape:current-layer="g4"
     units="mm"
     inkscape:document-units="mm"
     width="50mm" />
  <metadata
     id="metadata12">
    <rdf:RDF>
      <cc:Work
         rdf:about="">
        <dc:format>image/svg+xml</dc:format>
        <dc:type
           rdf:resource="http://purl.org/dc/dcmitype/StillImage" />
      </cc:Work>
    </rdf:RDF>
  </metadata>
  <defs
     id="defs10" />
  <g
     inkscape:groupmode="layer"
     inkscape:label="1 - red"
     id="g4"
     style="fill:none;stroke:#ff0000;stroke-width:1"
     transform="translate(0,-703.93711)">
    <path
       style="stroke-width:0.14493506"
       inkscape:connector-curvature="0"
       d="m 164.72986,704.44733 -10.84516,0 -1.35564,3.09905 10.84515,0 -1.35564,3.0987 -10.84515,0 -1.35564,3.09903 10.84515,0 -1.35564,3.09905 -10.84516,0 -0.40669,0.62035 4.88032,11.15664 2.44015,0 -4.88031,-11.15664 2.44016,0 4.88032,11.15664 2.44015,0 -4.88032,-11.15664 2.44017,0 4.88031,11.15664 2.3046,0 -4.88032,-11.15664 0,-1.23995 4.88032,-11.15685 1.8979,4.02873 -4.88032,11.15687 1.76234,4.18397 4.88031,-11.15685 1.76234,4.18408 -4.88031,11.15664 -0.81339,0.61969 -10.84516,0 -1.35564,3.09849 10.84515,0 -1.35564,3.09991 -10.84515,0 -1.35564,3.09883 10.84515,0 -1.35564,3.09903 -10.84516,0 -0.40669,0.61926 4.88032,11.15685 2.44015,0 -4.88031,-11.15685 2.44016,0 4.88032,11.15685 2.44015,0 -4.88032,-11.15685 2.44017,0 4.88031,11.15685 2.3046,0 -4.88032,-11.15685 0,-1.23896 4.88032,-11.15653 1.8979,4.0282 -4.88032,11.15685 1.76234,4.18376 4.88031,-11.15685 1.76234,4.18353 -4.88031,11.15685 -0.81339,0.62025 -10.84516,0 -1.35564,3.09925 10.84515,0 -1.35564,3.09839 -10.84515,0 -1.35564,3.09926 10.84515,0 -1.35564,3.09881 -10.84516,0 -0.40669,0.62046 4.88032,11.15665 2.44015,0 -4.88031,-11.15665 2.44016,0 4.88032,11.15665 2.44015,0 -4.88032,-11.15665 2.44017,0 4.88031,11.15665 2.3046,0 -4.88032,-11.15665 0,-1.23972 4.88032,-11.15697 1.8979,4.02875 -4.88032,11.15686 1.76234,4.18386 4.88031,-11.15664 1.76234,4.18386 -4.88031,11.15665 -0.81339,0.61969 -10.84516,0 -1.35564,3.0987 10.84515,0 -1.35564,3.09894 -10.84515,0 -1.35564,3.09979 10.84515,0 -1.35564,3.09882 -10.84516,0 -0.40669,0.61937 4.88032,11.15698 2.44015,0 -4.88031,-11.15698 2.44016,0 4.88032,11.15698 2.44015,0 -4.88032,-11.15698 2.44017,0 4.88031,11.15698 2.3046,0 -4.88032,-11.15698 0,-1.23928 4.88032,-11.1561 1.8979,4.02788 -4.88032,11.15686 1.76234,4.18396 4.88031,-11.15685 1.76234,4.18353 -4.88031,11.15698 -0.81339,0.61924 -10.84516,0 -1.35564,3.09926 10.84515,0 -1.35564,3.09937 -10.84515,0 -1.35564,3.09915 10.84515,0 -1.35564,3.09904 -10.84516,0 -0.40669,0.61947 4.88032,11.15697 2.44015,0 -4.88031,-11.15697 2.44016,0 4.88032,11.15697 2.44015,0 -4.88032,-11.15697 2.44017,0 4.88031,11.15697 2.3046,0 -4.88032,-11.15697 0,-1.23984 4.88032,-11.15619 1.8979,4.02853 -4.88032,11.15675 1.76234,4.18408 4.88031,-11.15685 1.76234,4.18352 -4.88031,11.15697 -0.81339,0.62002 -10.84516,0 -1.35564,3.09872 10.84515,0 -1.35564,3.09914 -10.84515,0 -1.35564,3.09904 10.84515,0 -1.35564,3.09937 -10.84516,0 -0.40669,0.61958 4.88032,11.15686 2.44015,0 -4.88031,-11.15686 2.44016,0 4.88032,11.15686 2.44015,0 -4.88032,-11.15686 2.44017,0 4.88031,11.15686 2.3046,0 -4.88032,-11.15686 0,-1.2395 4.88032,-11.15675 1.8979,4.02865 -4.88032,11.15696 1.76234,4.18365 4.88031,-11.15686 1.76234,4.18385 -4.88031,11.15686 -0.81339,0.61927 -10.84516,0 -1.35564,3.09924 10.84515,0 -1.35564,3.09926 -10.84515,0 -1.35564,3.09937 10.84515,0 -1.35564,3.09827 -10.84516,0 -0.40669,0.6209 4.88032,11.15609 2.44015,0 -4.88031,-11.15609 2.44016,0 4.88032,11.15609 2.44015,0 -4.88032,-11.15609 2.44017,0 4.88031,11.15609 2.3046,0 -4.88032,-11.15609 0,-1.23994 4.88032,-11.15643 1.8979,4.02896 -4.88032,11.15578 1.76234,4.18398 4.88031,-11.15622 1.76234,4.18387 -4.88031,11.15609 -0.81339,0.61937 -10.84516,0 -1.35564,3.09937 10.84515,0 -1.35564,3.09914 -10.84515,0 -1.35564,3.09925 10.84515,0 -1.35564,3.09882 -10.84516,0 -0.40669,0.61982 4.88032,11.15631 2.44015,0 -4.88031,-11.15631 2.44016,0 4.88032,11.15631 2.44015,0 -4.88032,-11.15631 2.44017,0 4.88031,11.15631 2.3046,0 -4.88032,-11.15631 0,-1.2394 4.88032,-11.15686 1.8979,4.02897 -4.88032,11.15598 1.76234,4.18387 4.88031,-11.1561 1.76234,4.18354 -4.88031,11.15631 -0.81339,0.62014 -10.84516,0 -1.35564,3.09892 10.84515,0 -1.35564,3.09936 -10.84515,0 -1.35564,3.09871 10.84515,0 -1.35564,3.0998 -10.84516,0 -0.40669,0.61927 4.88032,11.15685 2.44015,0 -4.88031,-11.15685 2.44016,0 4.88032,11.15685 2.44015,0 -4.88032,-11.15685 2.44017,0 4.88031,11.15685 2.3046,0 -4.88032,-11.15685 0,-1.2394 4.88032,-11.15686 1.8979,4.02887 -4.88032,11.15685 1.76234,4.18386 4.88031,-11.15697 1.76234,4.18365 -4.88031,11.15685 -0.81339,0.61959 -10.84516,0 -1.35564,3.09925 10.84515,0 -1.35564,3.09915 -10.84515,0 -1.35564,3.09912 10.84515,0 -1.35564,3.0988 -10.84516,0 -0.40669,0.6205 4.88032,11.1564 2.44015,0 -4.88031,-11.1564 2.44016,0 4.88032,11.1564 2.44015,0 -4.88032,-11.1564 2.44017,0 4.88031,11.1564 2.3046,0 -4.88032,-11.1564 0,-1.2398 4.88032,-11.15699 1.8979,4.02873 -4.88032,11.15636 1.76234,4.1845 4.88031,-11.1569 1.76234,4.1841 -4.88031,11.1564 -0.81339,0.6192 -10.84516,0 -1.35564,3.0994 10.84515,0 -1.35564,3.0991 -10.84515,0 -1.35564,3.0989 10.84515,0 -1.35564,3.0988 -10.84516,0 -0.40669,0.62 4.88032,11.1572 2.44015,0 -4.88031,-11.1572 2.44016,0 4.88032,11.1572 2.44015,0 -4.88032,-11.1572 2.44017,0 4.88031,11.1572 2.3046,0 -4.88032,-11.1572 0,-1.2391 4.88032,-11.157 1.8979,4.0288 -4.88032,11.1569 1.76234,4.1838 4.88031,-11.1569 1.76234,4.1835 -4.88031,11.1572 -0.81339,0.6193 -10.84516,0 -1.35564,3.0992 10.84515,0 -1.35564,3.0994 -10.84515,0 -1.35564,3.0982 10.84515,0 -1.35564,3.0996 -10.84516,0 -0.40669,0.6196 4.88032,11.15686 2.44015,0 -4.88031,-11.15686 2.44016,0 4.88032,11.15686 2.44015,0 -4.88032,-11.15686 2.44017,0 4.88031,11.15686 2.3046,0 -4.88032,-11.15686 0,-1.2397 4.88032,-11.1566 1.8979,4.029 -4.88032,11.1566 1.76234,4.1835 4.88031,-11.1565 1.76234,4.1837 -4.88031,11.15686 -0.81339,0.6202 -10.84516,0 -1.35564,3.0987 10.84515,0 -1.35564,3.099 -10.84515,0 -1.35564,3.0992 10.84515,0 -1.35564,3.0987 -10.84516,0 -0.40669,0.6203 4.88032,11.1567 2.44015,0 -4.88031,-11.1567 2.44016,0 4.88032,11.1567 2.44015,0 -4.88032,-11.1567 2.44017,0 4.88031,11.1567 2.3046,0 -4.88032,-11.1567 0,-1.2395 4.88032,-11.1568 1.8979,4.0285 -4.88032,11.157 1.76234,4.1839 4.88031,-11.1569 1.76234,4.1838 -4.88031,11.1567 -0.81339,0.6193 -10.84516,0 -1.35564,3.0999 10.84515,0 -1.35564,3.0986 -10.84515,0 -1.35564,3.0993 10.84515,0 -1.35564,3.0991 -10.84516,0 -0.40669,0.6194 4.88032,11.1569 2.44015,0 -4.88031,-11.1569 2.44016,0 4.88032,11.1569 2.44015,0 -4.88032,-11.1569 2.44017,0 4.88031,11.1569 2.3046,0 -4.88032,-11.1569 0,-1.2398 4.88032,-11.1563 1.8979,4.0285 -4.88032,11.1568 1.76234,4.1837 4.88031,-11.1566 1.76234,4.1837 -4.88031,11.1569 -0.81339,0.6203 -10.84516,0 -1.35564,3.0986 10.84515,0 -1.35564,3.099 -10.84515,0 -1.35564,3.0992 10.84515,0 -1.35564,3.0986 -10.84516,0 -0.40669,0.6199 4.88032,11.1563 2.44015,0 -4.88031,-11.1563 2.44016,0 4.88032,11.1563 2.44015,0 -4.88032,-11.1563 2.44017,0 4.88031,11.1563 2.3046,0 -4.88032,-11.1563 0,-1.2399 4.88032,-11.1562 1.8979,4.0281 -4.88032,11.1577 1.76234,4.1831 4.88031,-11.1566 1.76234,4.1838 -4.88031,11.1563 -0.81339,0.6203 -10.84516,0 -1.35564,3.099 10.84515,0 -1.35564,3.0992 -10.84515,0 -1.35564,3.0987 10.84515,0 -1.35564,3.0998 -10.84516,0 -0.40669,0.6195 4.88032,11.1568 2.44015,0 -4.88031,-11.1568 2.44016,0 4.88032,11.1568 2.44015,0 -4.88032,-11.1568 2.44017,0 4.88031,11.1568 2.3046,0 -4.88032,-11.1568 0,-1.24 4.88032,-11.1565 1.8979,4.0289 -4.88032,11.1567 1.76234,4.1837 4.88031,-11.1569 1.76234,4.1841 -4.88031,11.1568 -0.81339,0.6195 -10.84516,0 -1.35564,3.0991 10.84515,0 -1.35564,3.0984 -10.84515,0 -1.35564,3.0999 10.84515,0 -1.35564,3.0991 -10.84516,0 -0.40669,0.6195 4.88032,11.1565 2.44015,0 -4.88031,-11.1565 2.44016,0 4.88032,11.1565 2.44015,0 -4.88032,-11.1565 2.44017,0 4.88031,11.1565 2.3046,0 -4.88032,-11.1565 0,-1.2389 4.88032,-11.157 1.8979,4.0286 -4.88032,11.1563 1.76234,4.184 4.88031,-11.1567 1.76234,4.1837 -4.88031,11.1565 -0.81339,0.6201 -10.84516,0 -1.35564,3.0992 10.84515,0 -1.35564,3.099 -10.84515,0 -1.35564,3.0987 10.84515,0 -1.35564,3.0992 -10.84516,0 -0.40669,0.62 4.88032,11.1562 2.44015,0 -4.88031,-11.1562 2.44016,0 4.88032,11.1562 2.44015,0 -4.88032,-11.1562 2.44017,0 4.88031,11.1562 2.3046,0 -4.88032,-11.1562 0,-1.2395 4.88032,-11.1569 1.8979,4.0291 -4.88032,11.1566 1.76234,4.1834 4.88031,-11.1565 1.76234,4.1838 -4.88031,11.1562 -0.81339,0.6203 -10.84516,0 -1.35564,3.0992 10.84515,0 -1.35564,3.0984 -10.84515,0 -1.35564,3.0993 10.84515,0 -1.35564,3.0994 -10.84516,0 -0.40669,0.6197 4.88032,11.1566 2.44015,0 -4.88031,-11.1566 2.44016,0 4.88032,11.1566 2.44015,0 -4.88032,-11.1566 2.44017,0 4.88031,11.1566 2.3046,0 -4.88032,-11.1566 0,-1.2398 4.88032,-11.1565 1.8979,4.0291 -4.88032,11.1563 1.76234,4.1837 4.88031,-11.1566 1.76234,4.1838 -4.88031,11.1566 -0.81339,0.6198 -10.84516,0 -1.35564,3.0994 10.84515,0 -1.35564,3.0991 -10.84515,0 -1.35564,3.0985 10.84515,0 -1.35564,3.0993 -10.84516,0 -0.40669,0.6201 4.88032,11.1563 2.44015,0 -4.88031,-11.1563 2.44016,0 4.88032,11.1563 2.44015,0 -4.88032,-11.1563 2.44017,0 4.88031,11.1563 2.3046,0 -4.88032,-11.1563 0,-1.2396 4.88032,-11.1569 1.8979,4.0289 -4.88032,11.1563 1.76234,4.1838 4.88031,-11.1561 1.76234,4.1836 -4.88031,11.1563 -18.3012,-11.7764 -10.98071,0 -1.35565,3.099 10.98072,0 -1.35565,3.0989 -10.98071,0 -1.35564,3.0995 10.98071,0 -1.35564,3.0989 -10.98071,0 -0.27114,0.6199 4.88032,11.1565 2.44017,0 -4.88033,-11.1565 2.30459,0 4.88032,11.1565 2.44016,0 -4.88031,-11.1565 2.44015,0 4.88033,11.1565 2.44015,0 -4.88032,-11.1565 0,-1.2398 4.88032,-11.1563 1.76234,4.0282 -4.88032,11.1571 1.8979,4.1836 4.88032,-11.1565 1.76234,4.1837 -4.88032,11.1565 -0.81339,0.6202 -10.98071,0 -1.35565,3.0988 10.98072,0 -1.35565,3.0992 -10.98071,0 -1.35564,3.099 10.98071,0 -1.35564,3.099 -10.98071,0 -0.27114,0.62 4.88032,11.1561 2.44017,0 -4.88033,-11.1561 2.30459,0 4.88032,11.1561 2.44016,0 -4.88031,-11.1561 2.44015,0 4.88033,11.1561 2.44015,0 -4.88032,-11.1561 0,-1.2399 4.88032,-11.1564 1.76234,4.0287 -4.88032,11.1567 1.8979,4.1839 4.88032,-11.1567 1.76234,4.1837 -4.88032,11.1561 -0.81339,0.6202 -10.98071,0 -1.35565,3.0989 10.98072,0 -1.35565,3.0991 -10.98071,0 -1.35564,3.0994 10.98071,0 -1.35564,3.0988 -10.98071,0 -0.27114,0.6199 4.88032,11.1567 2.44017,0 -4.88033,-11.1567 2.30459,0 4.88032,11.1567 2.44016,0 -4.88031,-11.1567 2.44015,0 4.88033,11.1567 2.44015,0 -4.88032,-11.1567 0,-1.2401 4.88032,-11.1562 1.76234,4.0292 -4.88032,11.1561 1.8979,4.1837 4.88032,-11.1564 1.76234,4.1837 -4.88032,11.1567 -0.81339,0.6197 -10.98071,0 -1.35565,3.0993 10.98072,0 -1.35565,3.0985 -10.98071,0 -1.35564,3.0995 10.98071,0 -1.35564,3.099 -10.98071,0 -0.27114,0.6195 4.88032,11.1568 2.44017,0 -4.88033,-11.1568 2.30459,0 4.88032,11.1568 2.44016,0 -4.88031,-11.1568 2.44015,0 4.88033,11.1568 2.44015,0 -4.88032,-11.1568 0,-1.2388 4.88032,-11.1571 1.76234,4.0288 -4.88032,11.1563 1.8979,4.1838 4.88032,-11.1568 1.76234,4.1838 -4.88032,11.1568 -0.81339,0.6199 -10.98071,0 -1.35565,3.0992 10.98072,0 -1.35565,3.0988 -10.98071,0 -1.35564,3.0991 10.98071,0 -1.35564,3.0995 -10.98071,0 -0.27114,0.6188 4.88032,11.1574 2.44017,0 -4.88033,-11.1574 2.30459,0 4.88032,11.1574 2.44016,0 -4.88031,-11.1574 2.44015,0 4.88033,11.1574 2.44015,0 -4.88032,-11.1574 0,-1.2391 4.88032,-11.1563 1.76234,4.0287 -4.88032,11.1568 1.8979,4.1836 4.88032,-11.1564 1.76234,4.1827 -4.88032,11.1574 -0.81339,0.6197 -10.98071,0 -1.35565,3.0991 10.98072,0 -1.35565,3.099 -10.98071,0 -1.35564,3.0994 10.98071,0 -1.35564,3.099 -10.98071,0 -0.27114,0.6197 4.88032,11.1566 2.44017,0 -4.88033,-11.1566 2.30459,0 4.88032,11.1566 2.44016,0 -4.88031,-11.1566 2.44015,0 4.88033,11.1566 2.44015,0 -4.88032,-11.1566 0,-1.2397 4.88032,-11.1572 1.76234,4.0292 -4.88032,11.1569 1.8979,4.1835 4.88032,-11.1562 1.76234,4.1835 -4.88032,11.1566 -0.81339,0.6198 -10.98071,0 -1.35565,3.0994 10.98072,0 -1.35565,3.0988 -10.98071,0 -1.35564,3.0989 10.98071,0 -1.35564,3.0992 -10.98071,0 -0.27114,0.62 4.88032,11.1562 2.44017,0 -4.88033,-11.1562 2.30459,0 4.88032,11.1562 2.44016,0 -4.88031,-11.1562 2.44015,0 4.88033,11.1562 2.44015,0 -4.88032,-11.1562 0,-1.2398 4.88032,-11.1563 1.76234,4.0285 -4.88032,11.1562 1.8979,4.184 4.88032,-11.1562 1.76234,4.1836 -4.88032,11.1562 -0.81339,0.6201 -10.98071,0 -1.35565,3.0991 10.98072,0 -1.35565,3.0989 -10.98071,0 -1.35564,3.0988 10.98071,0 -1.35564,3.0998 -10.98071,0 -0.27114,0.6197 4.88032,11.1564 2.44017,0 -4.88033,-11.1564 2.30459,0 4.88032,11.1564 2.44016,0 -4.88031,-11.1564 2.44015,0 4.88033,11.1564 2.44015,0 -4.88032,-11.1564 0,-1.2399 4.88032,-11.157 1.76234,4.0292 -4.88032,11.1569 1.8979,4.1835 4.88032,-11.157 1.76234,4.1843 -4.88032,11.1564 -0.81339,0.6197 -10.98071,0 -1.35565,3.0987 10.98072,0 -1.35565,3.0999 -10.98071,0 -1.35564,3.0988 10.98071,0 -1.35564,3.0993 -10.98071,0 -0.27114,0.6198 4.88032,11.1569 2.44017,0 -4.88033,-11.1569 2.30459,0 4.88032,11.1569 2.44016,0 -4.88031,-11.1569 2.44015,0 4.88033,11.1569 2.44015,0 -4.88032,-11.1569 0,-1.24 4.88032,-11.1562 1.76234,4.0287 -4.88032,11.1566 1.8979,4.1837 4.88032,-11.1563 1.76234,4.1835 -4.88032,11.1569 -0.81339,0.6186 -10.98071,0 -1.35565,3.0999 10.98072,0 -1.35565,3.0988 -10.98071,0 -1.35564,3.0998 10.98071,0 -1.35564,3.0982 -10.98071,0 -0.27114,0.6202 4.88032,11.1562 2.44017,0 -4.88033,-11.1562 2.30459,0 4.88032,11.1562 2.44016,0 -4.88031,-11.1562 2.44015,0 4.88033,11.1562 2.44015,0 -4.88032,-11.1562 0,-1.2397 4.88032,-11.157 1.76234,4.029 -4.88032,11.1568 1.8979,4.1838 4.88032,-11.1564 1.76234,4.1835 -4.88032,11.1562 -0.81339,0.6202 -10.98071,0 -1.35565,3.0988 10.98072,0 -1.35565,3.0998 -10.98071,0 -1.35564,3.0988 10.98071,0 -1.35564,3.099 -10.98071,0 -0.27114,0.6192 4.88032,11.1568 2.44017,0 -4.88033,-11.1568 2.30459,0 4.88032,11.1568 2.44016,0 -4.88031,-11.1568 2.44015,0 4.88033,11.1568 2.44015,0 -4.88032,-11.1568 0,-1.2391 4.88032,-11.1569 1.76234,4.0293 -4.88032,11.1563 1.8979,4.1838 4.88032,-11.1569 1.76234,4.1835 -4.88032,11.1568 -0.81339,0.6204 -10.98071,0 -1.35565,3.0982 10.98072,0 -1.35565,3.0997 -10.98071,0 -1.35564,3.0991 10.98071,0 -1.35564,3.0994 -10.98071,0 -0.27114,0.6198 4.88032,11.1566 2.44017,0 -4.88033,-11.1566 2.30459,0 4.88032,11.1566 2.44016,0 -4.88031,-11.1566 2.44015,0 4.88033,11.1566 2.44015,0 -4.88032,-11.1566 0,-1.2398 4.88032,-11.1567 1.76234,4.0289 -4.88032,11.1566 1.8979,4.1836 4.88032,-11.1563 1.76234,4.1837 -4.88032,11.1566 -0.81339,0.6197 -10.98071,0 -1.35565,3.0986 10.98072,0 -1.35565,3.099 -10.98071,0 -1.35564,3.0998 10.98071,0 -1.35564,3.0989 -10.98071,0 -0.27114,0.6191 4.88032,11.157 2.44017,0 -4.88033,-11.157 2.30459,0 4.88032,11.157 2.44016,0 -4.88031,-11.157 2.44015,0 4.88033,11.157 2.44015,0 -4.88032,-11.157 0,-1.2392 4.88032,-11.156 1.76234,4.0279 -4.88032,11.1569 1.8979,4.1839 4.88032,-11.1569 1.76234,4.1834 -4.88032,11.157 -0.81339,0.6194 -10.98071,0 -1.35565,3.0993 10.98072,0 -1.35565,3.0995 -10.98071,0 -1.35564,3.0989 10.98071,0 -1.35564,3.0992 -10.98071,0 -0.27114,0.6203 4.88032,11.1561 2.44017,0 -4.88033,-11.1561 2.30459,0 4.88032,11.1561 2.44016,0 -4.88031,-11.1561 2.44015,0 4.88033,11.1561 2.44015,0 -4.88032,-11.1561 0,-1.24 4.88032,-11.1568 1.76234,4.0285 -4.88032,11.1567 1.8979,4.1838 4.88032,-11.156 1.76234,4.1838 -4.88032,11.1561 -0.81339,0.6198 -10.98071,0 -1.35565,3.0989 10.98072,0 -1.35565,3.0992 -10.98071,0 -1.35564,3.0989 10.98071,0 -1.35564,3.0999 -10.98071,0 -0.27114,0.6191 4.88032,11.1568 2.44017,0 -4.88033,-11.1568 2.30459,0 4.88032,11.1568 2.44016,0 -4.88031,-11.1568 2.44015,0 4.88033,11.1568 2.44015,0 -4.88032,-11.1568 0,-1.2395 4.88032,-11.1568 1.76234,4.0286 -4.88032,11.157 1.8979,4.184 4.88032,-11.1571 1.76234,4.1838 -4.88032,11.1568 -0.81339,0.6199 -10.98071,0 -1.35565,3.0993 10.98072,0 -1.35565,3.0985 -10.98071,0 -1.35564,3.0993 10.98071,0 -1.35564,3.0991 -10.98071,0 -0.27114,0.6195 4.88032,11.1567 2.44017,0 -4.88033,-11.1567 2.30459,0 4.88032,11.1567 2.44016,0 -4.88031,-11.1567 2.44015,0 4.88033,11.1567 2.44015,0 -4.88032,-11.1567 0,-1.2391 4.88032,-11.1567 1.76234,4.0292 -4.88032,11.1561 1.8979,4.1837 4.88032,-11.1559 1.76234,4.1827 -4.88032,11.1567 -0.81339,0.6195 -10.98071,0 -1.35565,3.1 10.98072,0 -1.35565,3.0986 -10.98071,0 -1.35564,3.0991 10.98071,0 -1.35564,3.0989 -10.98071,0 -0.27114,0.6204 4.88032,11.1558 2.44017,0 -4.88033,-11.1558 2.30459,0 4.88032,11.1558 2.44016,0 -4.88031,-11.1558 2.44015,0 4.88033,11.1558 2.44015,0 -4.88032,-11.1558 0,-1.2398 4.88032,-11.157 1.76234,4.0285 -4.88032,11.1568 1.8979,4.1836 4.88032,-11.1565 1.76234,4.1844 -4.88032,11.1558 -0.81339,0.6206 -10.98071,0 -1.35565,3.0984 10.98072,0 -1.35565,3.0993 -10.98071,0 -1.35564,3.0988 10.98071,0 -1.35564,3.0997 -10.98071,0 -0.27114,0.6195 4.88032,11.1568 2.44017,0 -4.88033,-11.1568 2.30459,0 4.88032,11.1568 2.44016,0 -4.88031,-11.1568 2.44015,0 4.88033,11.1568 2.44015,0 -4.88032,-11.1568 0,-1.2394 4.88032,-11.157 1.76234,4.0288 -4.88032,11.1568 1.8979,4.184 4.88032,-11.1568 1.76234,4.1836 -4.88032,11.1568 -0.81339,0.6195 -10.98071,0 -1.35565,3.0999 10.98072,0 -1.35565,3.0985 -10.98071,0 -1.35564,3.0992 10.98071,0 -1.35564,3.0988 -10.98071,0 -0.27114,0.6203 4.88032,11.1561 2.44017,0 -4.88033,-11.1561 2.30459,0 4.88032,11.1561 2.44016,0 -4.88031,-11.1561 2.44015,0 4.88033,11.1561 2.44015,0 -4.88032,-11.1561 0,-1.2397 4.88032,-11.1571 1.76234,4.0289 -4.88032,11.1564 1.8979,4.1837 4.88032,-11.1559 1.76234,4.1837 -4.88032,11.1561 -0.81339,0.6203 -10.98071,0 -1.35565,3.0987 10.98072,0 -1.35565,3.099 -10.98071,0 -1.35564,3.0992 10.98071,0 -1.35564,3.0988 -10.98071,0 -0.27114,0.6199 4.88032,11.1565 2.44017,0 -4.88033,-11.1565 2.30459,0 4.88032,11.1565 2.44016,0 -4.88031,-11.1565 2.44015,0 4.88033,11.1565 2.44015,0 -4.88032,-11.1565 0,-1.2392 4.88032,-11.1572 1.76234,4.0291 -4.88032,11.1568 1.8979,4.1832 4.88032,-11.1562 1.76234,4.1835 -4.88032,11.1565 -18.43676,-11.7764 -10.84516,0 -1.35564,3.0992 10.84516,0 -1.35565,3.0995 -10.84516,0 -1.35564,3.0989 10.84516,0 -1.35564,3.0986 -10.84516,0 -0.40669,0.62 4.88031,11.1565 2.44016,0 -4.88031,-11.1565 2.44015,0 4.88033,11.1565 2.44016,0 -4.88033,-11.1565 2.44017,0 4.88031,11.1565 2.44016,0 -4.88031,-11.1565 0,-1.2398 4.88031,-11.1565 1.76234,4.0287 -4.88032,11.1565 1.76234,4.1838 4.88032,-11.1566 1.8979,4.1839 -4.88032,11.1565 -0.94895,0.6204 -10.84516,0 -1.35564,3.0988 10.84516,0 -1.35565,3.0991 -10.84516,0 -1.35564,3.0987 10.84516,0 -1.35564,3.0991 -10.84516,0 -0.40669,0.6201 4.88031,11.1569 2.44016,0 -4.88031,-11.1569 2.44015,0 4.88033,11.1569 2.44016,0 -4.88033,-11.1569 2.44017,0 4.88031,11.1569 2.44016,0 -4.88031,-11.1569 0,-1.2395 4.88031,-11.1569 1.76234,4.0288 -4.88032,11.1571 1.76234,4.1837 4.88032,-11.157 1.8979,4.1838 -4.88032,11.1569 -0.94895,0.6194 -10.84516,0 -1.35564,3.0997 10.84516,0 -1.35565,3.0985 -10.84516,0 -1.35564,3.0995 10.84516,0 -1.35564,3.0985 -10.84516,0 -0.40669,0.62 4.88031,11.1563 2.44016,0 -4.88031,-11.1563 2.44015,0 4.88033,11.1563 2.44016,0 -4.88033,-11.1563 2.44017,0 4.88031,11.1563 2.44016,0 -4.88031,-11.1563 0,-1.2399 4.88031,-11.1564 1.76234,4.0286 -4.88032,11.1574 1.76234,4.1831 4.88032,-11.1566 1.8979,4.1838 -4.88032,11.1563 -0.94895,0.6205 -10.84516,0 -1.35564,3.0988 10.84516,0 -1.35565,3.0993 -10.84516,0 -1.35564,3.0991 10.84516,0 -1.35564,3.0994 -10.84516,0 -0.40669,0.6188 4.88031,11.1568 2.44016,0 -4.88031,-11.1568 2.44015,0 4.88033,11.1568 2.44016,0 -4.88033,-11.1568 2.44017,0 4.88031,11.1568 2.44016,0 -4.88031,-11.1568 0,-1.2397 4.88031,-11.1561 1.76234,4.0289 -4.88032,11.1568 1.76234,4.1835 4.88032,-11.157 1.8979,4.1836 -4.88032,11.1568 -0.94895,0.6202 -10.84516,0 -1.35564,3.0989 10.84516,0 -1.35565,3.0994 -10.84516,0 -1.35564,3.0984 10.84516,0 -1.35564,3.1 -10.84516,0 -0.40669,0.6193 4.88031,11.157 2.44016,0 -4.88031,-11.157 2.44015,0 4.88033,11.157 2.44016,0 -4.88033,-11.157 2.44017,0 4.88031,11.157 2.44016,0 -4.88031,-11.157 0,-1.2399 4.88031,-11.1564 1.76234,4.0285 -4.88032,11.1566 1.76234,4.184 4.88032,-11.1567 1.8979,4.1839 -4.88032,11.157 -0.94895,0.6192 -10.84516,0 -1.35564,3.0996 10.84516,0 -1.35565,3.0989 -10.84516,0 -1.35564,3.0992 10.84516,0 -1.35564,3.0988 -10.84516,0 -0.40669,0.6201 4.88031,11.1569 2.44016,0 -4.88031,-11.1569 2.44015,0 4.88033,11.1569 2.44016,0 -4.88033,-11.1569 2.44017,0 4.88031,11.1569 2.44016,0 -4.88031,-11.1569 0,-1.2398 4.88031,-11.1568 1.76234,4.0292 -4.88032,11.1567 1.76234,4.1838 4.88032,-11.1571 1.8979,4.184 -4.88032,11.1569 -0.94895,0.6193 -10.84516,0 -1.35564,3.0992 10.84516,0 -1.35565,3.099 -10.84516,0 -1.35564,3.0987 10.84516,0 -1.35564,3.0999 -10.84516,0 -0.40669,0.6194 4.88031,11.157 2.44016,0 -4.88031,-11.157 2.44015,0 4.88033,11.157 2.44016,0 -4.88033,-11.157 2.44017,0 4.88031,11.157 2.44016,0 -4.88031,-11.157 0,-1.2397 4.88031,-11.1568 1.76234,4.0288 -4.88032,11.1566 1.76234,4.1841 4.88032,-11.157 1.8979,4.184 -4.88032,11.157 -0.94895,0.62 -10.84516,0 -1.35564,3.0981 10.84516,0 -1.35565,3.0997 -10.84516,0 -1.35564,3.0991 10.84516,0 -1.35564,3.0987 -10.84516,0 -0.40669,0.6196 4.88031,11.1568 2.44016,0 -4.88031,-11.1568 2.44015,0 4.88033,11.1568 2.44016,0 -4.88033,-11.1568 2.44017,0 4.88031,11.1568 2.44016,0 -4.88031,-11.1568 0,-1.2398 4.88031,-11.1561 1.76234,4.029 -4.88032,11.157 1.76234,4.1836 4.88032,-11.1574 1.8979,4.1837 -4.88032,11.1568 -0.94895,0.62 -10.84516,0 -1.35564,3.0992 10.84516,0 -1.35565,3.0989 -10.84516,0 -1.35564,3.0988 10.84516,0 -1.35564,3.0991 -10.84516,0 -0.40669,0.6203 4.88031,11.1568 2.44016,0 -4.88031,-11.1568 2.44015,0 4.88033,11.1568 2.44016,0 -4.88033,-11.1568 2.44017,0 4.88031,11.1568 2.44016,0 -4.88031,-11.1568 0,-1.2396 4.88031,-11.157 1.76234,4.029 -4.88032,11.1564 1.76234,4.1841 4.88032,-11.1568 1.8979,4.1839 -4.88032,11.1568 -0.94895,0.6193 -10.84516,0 -1.35564,3.0994 10.84516,0 -1.35565,3.0985 -10.84516,0 -1.35564,3.1 10.84516,0 -1.35564,3.0984 -10.84516,0 -0.40669,0.6197 4.88031,11.1568 2.44016,0 -4.88031,-11.1568 2.44015,0 4.88033,11.1568 2.44016,0 -4.88033,-11.1568 2.44017,0 4.88031,11.1568 2.44016,0 -4.88031,-11.1568 0,-1.2399 4.88031,-11.1559 1.76234,4.0285 -4.88032,11.1566 1.76234,4.1835 4.88032,-11.1564 1.8979,4.1836 -4.88032,11.1568 -0.94895,0.6203 -10.84516,0 -1.35564,3.0988 10.84516,0 -1.35565,3.0991 -10.84516,0 -1.35564,3.0988 10.84516,0 -1.35564,3.0999 -10.84516,0 -0.40669,0.6189 4.88031,11.1566 2.44016,0 -4.88031,-11.1566 2.44015,0 4.88033,11.1566 2.44016,0 -4.88033,-11.1566 2.44017,0 4.88031,11.1566 2.44016,0 -4.88031,-11.1566 0,-1.2399 4.88031,-11.156 1.76234,4.029 -4.88032,11.1568 1.76234,4.1835 4.88032,-11.1568 1.8979,4.1834 -4.88032,11.1566 -0.94895,0.6199 -10.84516,0 -1.35564,3.0992 10.84516,0 -1.35565,3.0987 -10.84516,0 -1.35564,3.0992 10.84516,0 -1.35564,3.0994 -10.84516,0 -0.40669,0.6197 4.88031,11.1565 2.44016,0 -4.88031,-11.1565 2.44015,0 4.88033,11.1565 2.44016,0 -4.88033,-11.1565 2.44017,0 4.88031,11.1565 2.44016,0 -4.88031,-11.1565 0,-1.2399 4.88031,-11.1563 1.76234,4.0287 -4.88032,11.1567 1.76234,4.1836 4.88032,-11.1565 1.8979,4.1837 -4.88032,11.1565 -0.94895,0.6196 -10.84516,0 -1.35564,3.0998 10.84516,0 -1.35565,3.0985 -10.84516,0 -1.35564,3.0993 10.84516,0 -1.35564,3.0992 -10.84516,0 -0.40669,0.6201 4.88031,11.156 2.44016,0 -4.88031,-11.156 2.44015,0 4.88033,11.156 2.44016,0 -4.88033,-11.156 2.44017,0 4.88031,11.156 2.44016,0 -4.88031,-11.156 0,-1.2397 4.88031,-11.1569 1.76234,4.0284 -4.88032,11.1568 1.76234,4.1835 4.88032,-11.1569 1.8979,4.1848 -4.88032,11.156 -0.94895,0.6201 -10.84516,0 -1.35564,3.0991 10.84516,0 -1.35565,3.099 -10.84516,0 -1.35564,3.0988 10.84516,0 -1.35564,3.0993 -10.84516,0 -0.40669,0.6199 4.88031,11.157 2.44016,0 -4.88031,-11.157 2.44015,0 4.88033,11.157 2.44016,0 -4.88033,-11.157 2.44017,0 4.88031,11.157 2.44016,0 -4.88031,-11.157 0,-1.24 4.88031,-11.1561 1.76234,4.0286 -4.88032,11.1565 1.76234,4.184 4.88032,-11.1568 1.8979,4.1838 -4.88032,11.157 -0.94895,0.6194 -10.84516,0 -1.35564,3.0989 10.84516,0 -1.35565,3.0994 -10.84516,0 -1.35564,3.0993 10.84516,0 -1.35564,3.0988 -10.84516,0 -0.40669,0.6197 4.88031,11.1566 2.44016,0 -4.88031,-11.1566 2.44015,0 4.88033,11.1566 2.44016,0 -4.88033,-11.1566 2.44017,0 4.88031,11.1566 2.44016,0 -4.88031,-11.1566 0,-1.2391 4.88031,-11.1578 1.76234,4.0299 -4.88032,11.1561 1.76234,4.1837 4.88032,-11.1565 1.8979,4.1837 -4.88032,11.1566 -0.94895,0.6197 -10.84516,0 -1.35564,3.0995 10.84516,0 -1.35565,3.099 -10.84516,0 -1.35564,3.0987 10.84516,0 -1.35564,3.0993 -10.84516,0 -0.40669,0.6192 4.88031,11.1571 2.44016,0 -4.88031,-11.1571 2.44015,0 4.88033,11.1571 2.44016,0 -4.88033,-11.1571 2.44017,0 4.88031,11.1571 2.44016,0 -4.88031,-11.1571 0,-1.2395 4.88031,-11.1561 1.76234,4.0282 -4.88032,11.157 1.76234,4.1837 4.88032,-11.1571 1.8979,4.1838 -4.88032,11.1571 -0.94895,0.62 -10.84516,0 -1.35564,3.0991 10.84516,0 -1.35565,3.0996 -10.84516,0 -1.35564,3.0988 10.84516,0 -1.35564,3.0989 -10.84516,0 -0.40669,0.6196 4.88031,11.1566 2.44016,0 -4.88031,-11.1566 2.44015,0 4.88033,11.1566 2.44016,0 -4.88033,-11.1566 2.44017,0 4.88031,11.1566 2.44016,0 -4.88031,-11.1566 0,-1.2396 4.88031,-11.1567 1.76234,4.0289 -4.88032,11.1566 1.76234,4.1836 4.88032,-11.1564 1.8979,4.1836 -4.88032,11.1566 -0.94895,0.6198 -10.84516,0 -1.35564,3.0989 10.84516,0 -1.35565,3.0997 -10.84516,0 -1.35564,3.0987 10.84516,0 -1.35564,3.099 -10.84516,0 -0.40669,0.6201 4.88031,11.1564 2.44016,0 -4.88031,-11.1564 2.44015,0 4.88033,11.1564 2.44016,0 -4.88033,-11.1564 2.44017,0 4.88031,11.1564 2.44016,0 -4.88031,-11.1564 0,-1.2394 4.88031,-11.1568 1.76234,4.0286 -4.88032,11.1569 1.76234,4.184 4.88032,-11.157 1.8979,4.1837 -4.88032,11.1564 -0.94895,0.6198 -10.84516,0 -1.35564,3.0992 10.84516,0 -1.35565,3.0997 -10.84516,0 -1.35564,3.0984 10.84516,0 -1.35564,3.0993 -10.84516,0 -0.40669,0.6197 4.88031,11.1566 2.44016,0 -4.88031,-11.1566 2.44015,0 4.88033,11.1566 2.44016,0 -4.88033,-11.1566 2.44017,0 4.88031,11.1566 2.44016,0 -4.88031,-11.1566 0,-1.2398 4.88031,-11.1564 1.76234,4.0286 -4.88032,11.1567 1.76234,4.1835 4.88032,-11.1563 1.8979,4.1837 -4.88032,11.1566 -0.94895,0.6196 -10.84516,0 -1.35564,3.0992 10.84516,0 -1.35565,3.0993 -10.84516,0 -1.35564,3.099 10.84516,0 -1.35564,3.0991 -10.84516,0 -0.40669,0.6199 4.88031,11.1569 2.44016,0 -4.88031,-11.1569 2.44015,0 4.88033,11.1569 2.44016,0 -4.88033,-11.1569 2.44017,0 4.88031,11.1569 2.44016,0 -4.88031,-11.1569 0,-1.2393 4.88031,-11.1569 1.76234,4.0287 -4.88032,11.157 1.76234,4.1838 4.88032,-11.1569 1.8979,4.1836 -4.88032,11.1569 -18.43676,-11.7768 -10.98072,0 -1.355642,3.0991 10.980712,0 -1.35564,3.0986 -10.980713,0 -1.35565,3.1 10.980713,0 -1.35564,3.0986 -10.980713,0 -0.27113,0.6198 4.880323,11.1573 2.44016,0 -4.880323,-11.1573 2.440163,0 4.88031,11.1573 2.3046,0 -4.88032,-11.1573 2.44016,0 4.88032,11.1573 2.44016,0 -4.88032,-11.1573 0,-1.2393 4.88032,-11.1569 1.8979,4.0291 -4.88032,11.1561 1.76234,4.1838 4.88031,-11.1561 1.76234,4.1833 -4.88031,11.1573 -0.81339,0.6191 -10.98072,0 -1.355642,3.0994 10.980712,0 -1.35564,3.099 -10.980713,0 -1.35565,3.0987 10.980713,0 -1.35564,3.0992 -10.980713,0 -0.27113,0.6199 4.880323,11.157 2.44016,0 -4.880323,-11.157 2.440163,0 4.88031,11.157 2.3046,0 -4.88032,-11.157 2.44016,0 4.88032,11.157 2.44016,0 -4.88032,-11.157 0,-1.2397 4.88032,-11.1559 1.8979,4.0283 -4.88032,11.1564 1.76234,4.1842 4.88031,-11.157 1.76234,4.1837 -4.88031,11.157 -0.81339,0.6195 -10.98072,0 -1.355642,3.0991 10.980712,0 -1.35564,3.0993 -10.980713,0 -1.35565,3.0986 10.980713,0 -1.35564,3.0992 -10.980713,0 -0.27113,0.6199 4.880323,11.1566 2.44016,0 -4.880323,-11.1566 2.440163,0 4.88031,11.1566 2.3046,0 -4.88032,-11.1566 2.44016,0 4.88032,11.1566 2.44016,0 -4.88032,-11.1566 0,-1.2398 4.88032,-11.1566 1.8979,4.029 -4.88032,11.1563 1.76234,4.1838 4.88031,-11.1566 1.76234,4.1839 -4.88031,11.1566 -0.81339,0.62 -10.98072,0 -1.355642,3.0991 10.980712,0 -1.35564,3.0993 -10.980713,0 -1.35565,3.0983 10.980713,0 -1.35564,3.0992 -10.980713,0 -0.27113,0.6203 4.880323,11.1562 2.44016,0 -4.880323,-11.1562 2.440163,0 4.88031,11.1562 2.3046,0 -4.88032,-11.1562 2.44016,0 4.88032,11.1562 2.44016,0 -4.88032,-11.1562 0,-1.2398 4.88032,-11.1566 1.8979,4.0288 -4.88032,11.1561 1.76234,4.184 4.88031,-11.1563 1.76234,4.1838 -4.88031,11.1562 -0.81339,0.62 -10.98072,0 -1.355642,3.0992 10.980712,0 -1.35564,3.0986 -10.980713,0 -1.35565,3.0992 10.980713,0 -1.35564,3.0991 -10.980713,0 -0.27113,0.6201 4.880323,11.1564 2.44016,0 -4.880323,-11.1564 2.440163,0 4.88031,11.1564 2.3046,0 -4.88032,-11.1564 2.44016,0 4.88032,11.1564 2.44016,0 -4.88032,-11.1564 0,-1.2399 4.88032,-11.1566 1.8979,4.0292 -4.88032,11.156 1.76234,4.184 4.88031,-11.1565 1.76234,4.1838 -4.88031,11.1564 -0.81339,0.62 -10.98072,0 -1.355642,3.0987 10.980712,0 -1.35564,3.099 -10.980713,0 -1.35565,3.0992 10.980713,0 -1.35564,3.0993 -10.980713,0 -0.27113,0.6197 4.880323,11.1565 2.44016,0 -4.880323,-11.1565 2.440163,0 4.88031,11.1565 2.3046,0 -4.88032,-11.1565 2.44016,0 4.88032,11.1565 2.44016,0 -4.88032,-11.1565 0,-1.24 4.88032,-11.1559 1.8979,4.028 -4.88032,11.1571 1.76234,4.1836 4.88031,-11.1568 1.76234,4.184 -4.88031,11.1565 -0.81339,0.6204 -10.98072,0 -1.355642,3.0989 10.980712,0 -1.35564,3.0992 -10.980713,0 -1.35565,3.0987 10.980713,0 -1.35564,3.0991 -10.980713,0 -0.27113,0.6201 4.880323,11.1564 2.44016,0 -4.880323,-11.1564 2.440163,0 4.88031,11.1564 2.3046,0 -4.88032,-11.1564 2.44016,0 4.88032,11.1564 2.44016,0 -4.88032,-11.1564 0,-1.2399 4.88032,-11.1566 1.8979,4.0291 -4.88032,11.1562 1.76234,4.1841 4.88031,-11.1569 1.76234,4.184 -4.88031,11.1564 -0.81339,0.62 -10.98072,0 -1.355642,3.099 10.980712,0 -1.35564,3.0988 -10.980713,0 -1.35565,3.0992 10.980713,0 -1.35564,3.0983 -10.980713,0 -0.27113,0.6204 4.880323,11.1567 2.44016,0 -4.880323,-11.1567 2.440163,0 4.88031,11.1567 2.3046,0 -4.88032,-11.1567 2.44016,0 4.88032,11.1567 2.44016,0 -4.88032,-11.1567 0,-1.2396 4.88032,-11.1568 1.8979,4.0289 -4.88032,11.1569 1.76234,4.1837 4.88031,-11.1567 1.76234,4.1836 -4.88031,11.1567 -0.81339,0.6198 -10.98072,0 -1.355642,3.0996 10.980712,0 -1.35564,3.099 -10.980713,0 -1.35565,3.0988 10.980713,0 -1.35564,3.0992 -10.980713,0 -0.27113,0.6192 4.880323,11.1569 2.44016,0 -4.880323,-11.1569 2.440163,0 4.88031,11.1569 2.3046,0 -4.88032,-11.1569 2.44016,0 4.88032,11.1569 2.44016,0 -4.88032,-11.1569 0,-1.2395 4.88032,-11.1562 1.8979,4.0285 -4.88032,11.1568 1.76234,4.1835 4.88031,-11.1569 1.76234,4.1838 -4.88031,11.1569 -0.81339,0.6202 -10.98072,0 -1.355642,3.0988 10.980712,0 -1.35564,3.0989 -10.980713,0 -1.35565,3.0992 10.980713,0 -1.35564,3.0992 -10.980713,0 -0.27113,0.6198 4.880323,11.1568 2.44016,0 -4.880323,-11.1568 2.440163,0 4.88031,11.1568 2.3046,0 -4.88032,-11.1568 2.44016,0 4.88032,11.1568 2.44016,0 -4.88032,-11.1568 0,-1.2398 4.88032,-11.1568 1.8979,4.0289 -4.88032,11.1569 1.76234,4.1838 4.88031,-11.1565 1.76234,4.1835 -4.88031,11.1568 -0.81339,0.6195 -10.98072,0 -1.355642,3.0997 10.980712,0 -1.35564,3.0992 -10.980713,0 -1.35565,3.0985 10.980713,0 -1.35564,3.0992 -10.980713,0 -0.27113,0.6193 4.880323,11.157 2.44016,0 -4.880323,-11.157 2.440163,0 4.88031,11.157 2.3046,0 -4.88032,-11.157 2.44016,0 4.88032,11.157 2.44016,0 -4.88032,-11.157 0,-1.2396 4.88032,-11.1561 1.8979,4.0283 -4.88032,11.1568 1.76234,4.184 4.88031,-11.1574 1.76234,4.184 -4.88031,11.157 -0.81339,0.6201 -10.98072,0 -1.355642,3.0984 10.980712,0 -1.35564,3.0994 -10.980713,0 -1.35565,3.0992 10.980713,0 -1.35564,3.0991 -10.980713,0 -0.27113,0.6194 4.880323,11.1568 2.44016,0 -4.880323,-11.1568 2.440163,0 4.88031,11.1568 2.3046,0 -4.88032,-11.1568 2.44016,0 4.88032,11.1568 2.44016,0 -4.88032,-11.1568 0,-1.2399 4.88032,-11.1558 1.8979,4.0282 -4.88032,11.1572 1.76234,4.1833 4.88031,-11.157 1.76234,4.184 -4.88031,11.1568 -0.81339,0.6201 -10.98072,0 -1.355642,3.0988 10.980712,0 -1.35564,3.0992 -10.980713,0 -1.35565,3.0989 10.980713,0 -1.35564,3.0989 -10.980713,0 -0.27113,0.6201 4.880323,11.1569 2.44016,0 -4.880323,-11.1569 2.440163,0 4.88031,11.1569 2.3046,0 -4.88032,-11.1569 2.44016,0 4.88032,11.1569 2.44016,0 -4.88032,-11.1569 0,-1.2398 4.88032,-11.1568 1.8979,4.0291 -4.88032,11.1567 1.76234,4.1838 4.88031,-11.157 1.76234,4.184 -4.88031,11.1569 -0.81339,0.6191 -10.98072,0 -1.355642,3.1 10.980712,0 -1.35564,3.0984 -10.980713,0 -1.35565,3.0996 10.980713,0 -1.35564,3.0989 -10.980713,0 -0.27113,0.6195 4.880323,11.1571 2.44016,0 -4.880323,-11.1571 2.440163,0 4.88031,11.1571 2.3046,0 -4.88032,-11.1571 2.44016,0 4.88032,11.1571 2.44016,0 -4.88032,-11.1571 0,-1.2392 4.88032,-11.1566 1.8979,4.0288 -4.88032,11.1567 1.76234,4.1838 4.88031,-11.1566 1.76234,4.1831 -4.88031,11.1571 -0.81339,0.6197 -10.98072,0 -1.355642,3.0988 10.980712,0 -1.35564,3.0991 -10.980713,0 -1.35565,3.0992 10.980713,0 -1.35564,3.0995 -10.980713,0 -0.27113,0.6193 4.880323,11.1561 2.44016,0 -4.880323,-11.1561 2.440163,0 4.88031,11.1561 2.3046,0 -4.88032,-11.1561 2.44016,0 4.88032,11.1561 2.44016,0 -4.88032,-11.1561 0,-1.2397 4.88032,-11.1567 1.8979,4.0291 -4.88032,11.1567 1.76234,4.1837 4.88031,-11.157 1.76234,4.1839 -4.88031,11.1561 -0.81339,0.6209 -10.98072,0 -1.355642,3.0983 10.980712,0 -1.35564,3.0995 -10.980713,0 -1.35565,3.0991 10.980713,0 -1.35564,3.0991 -10.980713,0 -0.27113,0.6195 4.880323,11.1569 2.44016,0 -4.880323,-11.1569 2.440163,0 4.88031,11.1569 2.3046,0 -4.88032,-11.1569 2.44016,0 4.88032,11.1569 2.44016,0 -4.88032,-11.1569 0,-1.2395 4.88032,-11.157 1.8979,4.0295 -4.88032,11.1564 1.76234,4.1835 4.88031,-11.1568 1.76234,4.1839 -4.88031,11.1569 -0.81339,0.6198 -10.98072,0 -1.355642,3.0993 10.980712,0 -1.35564,3.0988 -10.980713,0 -1.35565,3.0992 10.980713,0 -1.35564,3.0985 -10.980713,0 -0.27113,0.6205 4.880323,11.1566 2.44016,0 -4.880323,-11.1566 2.440163,0 4.88031,11.1566 2.3046,0 -4.88032,-11.1566 2.44016,0 4.88032,11.1566 2.44016,0 -4.88032,-11.1566 0,-1.24 4.88032,-11.1567 1.8979,4.029 -4.88032,11.1567 1.76234,4.1839 4.88031,-11.1573 1.76234,4.1844 -4.88031,11.1566 -0.81339,0.6196 -10.98072,0 -1.355642,3.0988 10.980712,0 -1.35564,3.0993 -10.980713,0 -1.35565,3.0992 10.980713,0 -1.35564,3.0993 -10.980713,0 -0.27113,0.6193 4.880323,11.157 2.44016,0 -4.880323,-11.157 2.440163,0 4.88031,11.157 2.3046,0 -4.88032,-11.157 2.44016,0 4.88032,11.157 2.44016,0 -4.88032,-11.157 0,-1.2394 4.88032,-11.1562 1.8979,4.0282 -4.88032,11.1569 1.76234,4.1836 4.88031,-11.1569 1.76234,4.1838 -4.88031,11.157 -0.81339,0.6201 -10.98072,0 -1.355642,3.0986 10.980712,0 -1.35564,3.0993 -10.980713,0 -1.35565,3.0989 10.980713,0 -1.35564,3.0993 -10.980713,0 -0.27113,0.6192 4.880323,11.157 2.44016,0 -4.880323,-11.157 2.440163,0 4.88031,11.157 2.3046,0 -4.88032,-11.157 2.44016,0 4.88032,11.157 2.44016,0 -4.88032,-11.157 0,-1.2397 4.88032,-11.1564 1.8979,4.029 -4.88032,11.157 1.76234,4.1836 4.88031,-11.1564 1.76234,4.1829 -4.88031,11.157 -0.81339,0.62 -10.98072,0 -1.355642,3.0989 10.980712,0 -1.35564,3.0991 -10.980713,0 -1.35565,3.0991 10.980713,0 -1.35564,3.0986 -10.980713,0 -0.27113,0.6202 4.880323,11.1569 2.44016,0 -4.880323,-11.1569 2.440163,0 4.88031,11.1569 2.3046,0 -4.88032,-11.1569 2.44016,0 4.88032,11.1569 2.44016,0 -4.88032,-11.1569 0,-1.2397 4.88032,-11.1569 1.8979,4.029 -4.88032,11.1569 1.76234,4.1837 4.88031,-11.1568 1.76234,4.1838 -4.88031,11.1569 -18.436753,-11.7771 -10.84516,0 -1.355645,3.0994 10.845155,0 -1.35565,3.0983 -10.845146,0 -1.35565,3.0999 10.845156,0 -1.35564,3.0989 -10.845157,0 -0.406694,0.6205 4.880321,11.1557 2.44016,0 -4.880325,-11.1557 2.440165,0 4.88032,11.1557 2.44016,0 -4.88032,-11.1557 2.44016,0 4.88032,11.1557 2.44016,0 -4.88032,-11.1557 0,-1.2399 4.88032,-11.1569 1.76233,4.0286 -4.88032,11.1567 1.76234,4.1841 4.88032,-11.1568 1.897903,4.1842 -4.880323,11.1557 -0.94894,0.6204 -10.84516,0 -1.355645,3.0988 10.845155,0 -1.35565,3.099 -10.845146,0 -1.35565,3.0991 10.845156,0 -1.35564,3.0995 -10.845157,0 -0.406694,0.6193 4.880321,11.1571 2.44016,0 -4.880325,-11.1571 2.440165,0 4.88032,11.1571 2.44016,0 -4.88032,-11.1571 2.44016,0 4.88032,11.1571 2.44016,0 -4.88032,-11.1571 0,-1.2392 4.88032,-11.1569 1.76233,4.0286 -4.88032,11.1569 1.76234,4.184 4.88032,-11.1569 1.897903,4.1835 -4.880323,11.1571 -0.94894,0.6193 -10.84516,0 -1.355645,3.0992 10.845155,0 -1.35565,3.0993 -10.845146,0 -1.35565,3.099 10.845156,0 -1.35564,3.099 -10.845157,0 -0.406694,0.6196 4.880321,11.1568 2.44016,0 -4.880325,-11.1568 2.440165,0 4.88032,11.1568 2.44016,0 -4.88032,-11.1568 2.44016,0 4.88032,11.1568 2.44016,0 -4.88032,-11.1568 0,-1.239 4.88032,-11.1574 1.76233,4.0293 -4.88032,11.1563 1.76234,4.1835 4.88032,-11.1559 1.897903,4.1832 -4.880323,11.1568 -0.94894,0.6203 -10.84516,0 -1.355645,3.0986 10.845155,0 -1.35565,3.0993 -10.845146,0 -1.35565,3.099 10.845156,0 -1.35564,3.0987 -10.845157,0 -0.406694,0.6201 4.880321,11.1569 2.44016,0 -4.880325,-11.1569 2.440165,0 4.88032,11.1569 2.44016,0 -4.88032,-11.1569 2.44016,0 4.88032,11.1569 2.44016,0 -4.88032,-11.1569 0,-1.2392 4.88032,-11.157 1.76233,4.0287 -4.88032,11.1561 1.76234,4.1838 4.88032,-11.156 1.897903,4.1836 -4.880323,11.1569 -0.94894,0.6196 -10.84516,0 -1.355645,3.0989 10.845155,0 -1.35565,3.0993 -10.845146,0 -1.35565,3.0983 10.845156,0 -1.35564,3.1 -10.845157,0 -0.406694,0.6196 4.880321,11.1568 2.44016,0 -4.880325,-11.1568 2.440165,0 4.88032,11.1568 2.44016,0 -4.88032,-11.1568 2.44016,0 4.88032,11.1568 2.44016,0 -4.88032,-11.1568 0,-1.2401 4.88032,-11.1561 1.76233,4.0285 -4.88032,11.1567 1.76234,4.1837 4.88032,-11.1568 1.897903,4.1841 -4.880323,11.1568 -0.94894,0.6193 -10.84516,0 -1.355645,3.0992 10.845155,0 -1.35565,3.0994 -10.845146,0 -1.35565,3.0992 10.845156,0 -1.35564,3.0983 -10.845157,0 -0.406694,0.6204 4.880321,11.1568 2.44016,0 -4.880325,-11.1568 2.440175,0 4.88031,11.1568 2.44016,0 -4.88032,-11.1568 2.44017,0 4.88031,11.1568 2.44017,0 -4.88033,-11.1568 0,-1.2394 4.88033,-11.157 1.76233,4.029 -4.88032,11.1568 1.76234,4.1839 4.88032,-11.1567 1.897903,4.1834 -4.880323,11.1568 -0.94895,0.6195 -10.84515,0 -1.355647,3.0991 10.845157,0 -1.35565,3.0991 -10.845149,0 -1.355649,3.0993 10.845158,0 -1.35564,3.0985 -10.84516,0 -0.406694,0.6202 4.880324,11.156 2.44015,0 -4.880317,-11.156 2.440167,0 4.88032,11.156 2.44015,0 -4.88032,-11.156 2.44017,0 4.88031,11.156 2.44017,0 -4.88033,-11.156 0,-1.2398 4.88033,-11.1567 1.76233,4.029 -4.88032,11.1569 1.76234,4.1835 4.88032,-11.1569 1.897903,4.184 -4.880323,11.156 -0.94895,0.6203 -10.84515,0 -1.355647,3.0991 10.845157,0 -1.35565,3.0994 -10.845149,0 -1.355649,3.0992 10.845158,0 -1.35564,3.0988 -10.84516,0 -0.406694,0.6197 4.880324,11.1563 2.44015,0 -4.880317,-11.1563 2.440167,0 4.88032,11.1563 2.44015,0 -4.88032,-11.1563 2.44017,0 4.88031,11.1563 2.44017,0 -4.88033,-11.1563 0,-1.2398 4.88033,-11.1567 1.76233,4.029 -4.88032,11.1564 1.76234,4.1838 4.88032,-11.1567 1.897903,4.184 -4.880323,11.1563 -0.94895,0.6203 -10.84515,0 -1.355647,3.0993 10.845157,0 -1.35565,3.0988 -10.845149,0 -1.355649,3.0986 10.845158,0 -1.35564,3.0999 -10.84516,0 -0.406694,0.6193 4.880324,11.157 2.44015,0 -4.880317,-11.157 2.440167,0 4.88032,11.157 2.44015,0 -4.88032,-11.157 2.44017,0 4.88031,11.157 2.44017,0 -4.88033,-11.157 0,-1.2394 4.88033,-11.1569 1.76233,4.0289 -4.88032,11.1571 1.76234,4.1836 4.88032,-11.1568 1.897903,4.1835 -4.880323,11.157 -0.94895,0.6195 -10.84515,0 -1.355647,3.0991 10.845157,0 -1.35565,3.0986 -10.845149,0 -1.355649,3.1 10.845158,0 -1.35564,3.0989 -10.84516,0 -0.406694,0.6198 4.880324,11.1563 2.44015,0 -4.880317,-11.1563 2.440167,0 4.88032,11.1563 2.44015,0 -4.88032,-11.1563 2.44017,0 4.88031,11.1563 2.44017,0 -4.88033,-11.1563 0,-1.2393 4.88033,-11.1569 1.76233,4.0287 -4.88032,11.1562 1.76234,4.1837 4.88032,-11.156 1.897903,4.1836 -4.880323,11.1563 -0.94895,0.6197 -10.84515,0 -1.355647,3.0988 10.845157,0 -1.35565,3.0998 -10.845149,0 -1.355649,3.0984 10.845158,0 -1.35564,3.0992 -10.84516,0 -0.406694,0.6203 4.880324,11.1562 2.44015,0 -4.880317,-11.1562 2.440167,0 4.88032,11.1562 2.44015,0 -4.88032,-11.1562 2.44017,0 4.88031,11.1562 2.44017,0 -4.88033,-11.1562 0,-1.2395 4.88033,-11.1571 1.76233,4.0289 -4.88032,11.1563 1.76234,4.184 4.88032,-11.1562 1.897903,4.1836 -4.880323,11.1562 -0.94895,0.6201 -10.84515,0 -1.355647,3.0991 10.845157,0 -1.35565,3.0986 -10.845149,0 -1.355649,3.0992 10.845158,0 -1.35564,3.0996 -10.84516,0 -0.406694,0.6196 4.880324,11.1565 2.44015,0 -4.880317,-11.1565 2.440167,0 4.88032,11.1565 2.44015,0 -4.88032,-11.1565 2.44017,0 4.88031,11.1565 2.44017,0 -4.88033,-11.1565 0,-1.2398 4.88033,-11.1567 1.76233,4.0292 -4.88032,11.1564 1.76234,4.1838 4.88032,-11.1566 1.897903,4.1837 -4.880323,11.1565 -0.94895,0.6199 -10.84515,0 -1.355647,3.0993 10.845157,0 -1.35565,3.0985 -10.845149,0 -1.355649,3.0993 10.845158,0 -1.35564,3.099 -10.84516,0 -0.406694,0.6204 4.880324,11.1568 2.44015,0 -4.880317,-11.1568 2.440167,0 4.88032,11.1568 2.44015,0 -4.88032,-11.1568 2.44017,0 4.88031,11.1568 2.44017,0 -4.88033,-11.1568 0,-1.2398 4.88033,-11.1568 1.76233,4.0291 -4.88032,11.1561 1.76234,4.1846 4.88032,-11.1568 1.897903,4.1836 -4.880323,11.1568 -0.94895,0.6194 -10.84515,0 -1.355647,3.099 10.845157,0 -1.35565,3.0992 -10.845149,0 -1.355649,3.0988 10.845158,0 -1.35564,3.0995 -10.84516,0 -0.406694,0.6197 4.880324,11.1562 2.44015,0 -4.880317,-11.1562 2.440167,0 4.88032,11.1562 2.44015,0 -4.88032,-11.1562 2.44017,0 4.88031,11.1562 2.44017,0 -4.88033,-11.1562 0,-1.24 4.88033,-11.1564 1.76233,4.0289 -4.88032,11.1562 1.76234,4.1841 4.88032,-11.1568 1.897903,4.184 -4.880323,11.1562 -0.94895,0.6209 -10.84515,0 -1.355647,3.0982 10.845157,0 -1.35565,3.0994 -10.845149,0 -1.355649,3.0992 10.845158,0 -1.35564,3.0987 -10.84516,0 -0.406694,0.6198 4.880324,11.1563 2.44015,0 -4.880317,-11.1563 2.440167,0 4.88032,11.1563 2.44015,0 -4.88032,-11.1563 2.44017,0 4.88031,11.1563 2.44017,0 -4.88033,-11.1563 0,-1.2398 4.88033,-11.1568 1.76233,4.0294 -4.88032,11.1561 1.76234,4.1839 4.88032,-11.1561 1.897903,4.1833 -4.880323,11.1563 -0.94895,0.6203 -10.84515,0 -1.355647,3.0991 10.845157,0 -1.35565,3.0991 -10.845149,0 -1.355649,3.0987 10.845158,0 -1.35564,3.0992 -10.84516,0 -0.406694,0.6201 4.880324,11.157 2.44015,0 -4.880317,-11.157 2.440167,0 4.88032,11.157 2.44015,0 -4.88032,-11.157 2.44017,0 4.88031,11.157 2.44017,0 -4.88033,-11.157 0,-1.2399 4.88033,-11.1567 1.76233,4.0292 -4.88032,11.1562 1.76234,4.1842 4.88032,-11.1569 1.897903,4.1839 -4.880323,11.157 -0.94895,0.6192 -10.84515,0 -1.355647,3.0993 10.845157,0 -1.35565,3.0984 -10.845149,0 -1.355649,3.0992 10.845158,0 -1.35564,3.0994 -10.84516,0 -0.406694,0.6199 4.880324,11.1565 2.44015,0 -4.880317,-11.1565 2.440167,0 4.88032,11.1565 2.44015,0 -4.88032,-11.1565 2.44017,0 4.88031,11.1565 2.44017,0 -4.88033,-11.1565 0,-1.2397 4.88033,-11.1564 1.76233,4.0286 -4.88032,11.1563 1.76234,4.1839 4.88032,-11.1565 1.897903,4.1838 -4.880323,11.1565 -0.94895,0.6199 -10.84515,0 -1.355647,3.0993 10.845157,0 -1.35565,3.0992 -10.845149,0 -1.355649,3.0985 10.845158,0 -1.35564,3.0992 -10.84516,0 -0.406694,0.6201 4.880324,11.1562 2.44015,0 -4.880317,-11.1562 2.440167,0 4.88032,11.1562 2.44015,0 -4.88032,-11.1562 2.44017,0 4.88031,11.1562 2.44017,0 -4.88033,-11.1562 0,-1.2398 4.88033,-11.1567 1.76233,4.0292 -4.88032,11.1559 1.76234,4.184 4.88032,-11.1563 1.897903,4.1837 -4.880323,11.1562 -0.94895,0.6201 -10.84515,0 -1.355647,3.0993 10.845157,0 -1.35565,3.0986 -10.845149,0 -1.355649,3.0991 10.845158,0 -1.35564,3.099 -10.84516,0 -0.406694,0.6204 4.880324,11.1563 2.44015,0 -4.880317,-11.1563 2.440167,0 4.88032,11.1563 2.44015,0 -4.88032,-11.1563 2.44017,0 4.88031,11.1563 2.44017,0 -4.88033,-11.1563 0,-1.2401 4.88033,-11.1565 1.76233,4.029 -4.88032,11.1565 1.76234,4.1837 4.88032,-11.1566 1.897903,4.184 -4.880323,11.1563 -0.94895,0.6198 -10.84515,0 -1.355647,3.0987 10.845157,0 -1.35565,3.0998 -10.845149,0 -1.355649,3.0988 10.845158,0 -1.35564,3.099 -10.84516,0 -0.406694,0.6195 4.880324,11.1569 2.44015,0 -4.880317,-11.1569 2.440167,0 4.88032,11.1569 2.44015,0 -4.88032,-11.1569 2.44017,0 4.88031,11.1569 2.44017,0 -4.88033,-11.1569 0,-1.2396 4.88033,-11.1561 1.76233,4.0281 -4.88032,11.1576 1.76234,4.1834 4.88032,-11.1571 1.897903,4.1837 -4.880323,11.1569 -18.436762,-11.7764 -10.980715,0 -1.355642,3.0992 10.980708,0 -1.355642,3.0988 -10.980715,0 -1.355642,3.0998 10.980716,0 -1.355642,3.0988 -10.980715,0 -0.271127,0.6197 4.880321,11.1565 2.440156,0 -4.880321,-11.1565 2.440165,0 4.880312,11.1565 2.440165,0 -4.880321,-11.1565 2.304589,0 4.880321,11.1565 2.440156,0 -4.880313,-11.1565 0,-1.2399 4.880313,-11.1569 1.897911,4.0289 -4.880329,11.1569 1.762344,4.1837 4.88032,-11.1564 1.762339,4.1837 -4.880324,11.1565 -0.813388,0.6195 -10.980715,0 -1.355642,3.0995 10.980708,0 -1.355642,3.0992 -10.980715,0 -1.355642,3.0989 10.980716,0 -1.355642,3.0992 -10.980715,0 -0.271127,0.6191 4.880321,11.1574 2.440156,0 -4.880321,-11.1574 2.440165,0 4.880312,11.1574 2.440165,0 -4.880321,-11.1574 2.304589,0 4.880321,11.1574 2.440156,0 -4.880313,-11.1574 0,-1.2392 4.880313,-11.1563 1.897911,4.0289 -4.880329,11.1564 1.762344,4.1843 4.88032,-11.1578 1.762339,4.1837 -4.880324,11.1574 -0.813388,0.6196 -10.980715,0 -1.355642,3.099 10.980708,0 -1.355642,3.099 -10.980715,0 -1.355642,3.0997 10.980716,0 -1.355642,3.0982 -10.980715,0 -0.271127,0.6203 4.880321,11.1567 2.440156,0 -4.880321,-11.1567 2.440165,0 4.880312,11.1567 2.440165,0 -4.880321,-11.1567 2.304589,0 4.880321,11.1567 2.440156,0 -4.880313,-11.1567 0,-1.24 4.880313,-11.1563 1.897911,4.0288 -4.880329,11.1566 1.762344,4.1835 4.88032,-11.1562 1.762339,4.1836 -4.880324,11.1567 -0.813388,0.6197 -10.980715,0 -1.355642,3.0988 10.980708,0 -1.355642,3.0988 -10.980715,0 -1.355642,3.0996 10.980716,0 -1.355642,3.0993 -10.980715,0 -0.271127,0.6197 4.880321,11.1564 2.440156,0 -4.880321,-11.1564 2.440165,0 4.880312,11.1564 2.440165,0 -4.880321,-11.1564 2.304589,0 4.880321,11.1564 2.440156,0 -4.880313,-11.1564 0,-1.2391 4.880313,-11.157 1.897911,4.0286 -4.880329,11.1562 1.762344,4.1841 4.88032,-11.1563 1.762339,4.1835 -4.880324,11.1564 -0.813388,0.62 -10.980715,0 -1.355642,3.0992 10.980708,0 -1.355642,3.0987 -10.980715,0 -1.355642,3.0992 10.980716,0 -1.355642,3.0989 -10.980715,0 -0.271127,0.6202 4.880321,11.1566 2.440156,0 -4.880321,-11.1566 2.440165,0 4.880312,11.1566 2.440165,0 -4.880321,-11.1566 2.304589,0 4.880321,11.1566 2.440156,0 -4.880313,-11.1566 0,-1.2399 4.880313,-11.1565 1.897911,4.029 -4.880329,11.1566 1.762344,4.1836 4.88032,-11.1563 1.762339,4.1835 -4.880324,11.1566 -0.813388,0.6197 -10.980715,0 -1.355642,3.0988 10.980708,0 -1.355642,3.0989 -10.980715,0 -1.355642,3.0997 10.980716,0 -1.355642,3.0991 -10.980715,0 -0.271127,0.6195 4.880321,11.1568 2.440156,0 -4.880321,-11.1568 2.440165,0 4.880312,11.1568 2.440165,0 -4.880321,-11.1568 2.304589,0 4.880321,11.1568 2.440156,0 -4.880313,-11.1568 0,-1.2396 4.880313,-11.1561 1.897911,4.0279 -4.880329,11.1569 1.762344,4.1837 4.88032,-11.1569 1.762339,4.1841 -4.880324,11.1568 -0.813388,0.6198 -10.980715,0 -1.355642,3.0993 10.980708,0 -1.355642,3.0988 -10.980715,0 -1.355642,3.0993 10.980716,0 -1.355642,3.0988 -10.980715,0 -0.271127,0.6202 4.880321,11.1562 2.440156,0 -4.880321,-11.1562 2.440165,0 4.880312,11.1562 2.440165,0 -4.880321,-11.1562 2.304589,0 4.880321,11.1562 2.440156,0 -4.880313,-11.1562 0,-1.2399 4.880313,-11.1564 1.897911,4.0287 -4.880329,11.1561 1.762344,4.1838 4.88032,-11.1559 1.762339,4.1836 -4.880324,11.1562 -0.813388,0.6199 -10.980715,0 -1.355642,3.0993 10.980708,0 -1.355642,3.0986 -10.980715,0 -1.355642,3.0989 10.980716,0 -1.355642,3.0999 -10.980715,0 -0.271127,0.6196 4.880321,11.1563 2.440156,0 -4.880321,-11.1563 2.440165,0 4.880312,11.1563 2.440165,0 -4.880321,-11.1563 2.304589,0 4.880321,11.1563 2.440156,0 -4.880313,-11.1563 0,-1.2399 4.880313,-11.1569 1.897911,4.0287 -4.880329,11.1572 1.762344,4.1837 4.88032,-11.157 1.762339,4.1842 -4.880324,11.1563 -0.813388,0.6198 -10.980715,0 -1.355642,3.0995 10.980708,0 -1.355642,3.0985 -10.980715,0 -1.355642,3.0995 10.980716,0 -1.355642,3.0989 -10.980715,0 -0.271127,0.6195 4.880321,11.1569 2.440156,0 -4.880321,-11.1569 2.440165,0 4.880312,11.1569 2.440165,0 -4.880321,-11.1569 2.304589,0 4.880321,11.1569 2.440156,0 -4.880313,-11.1569 0,-1.2394 4.880313,-11.1563 1.897911,4.0289 -4.880329,11.1563 1.762344,4.1836 4.88032,-11.1558 1.762339,4.1827 -4.880324,11.1569 -0.813388,0.6202 -10.980715,0 -1.355642,3.0991 10.980708,0 -1.355642,3.0985 -10.980715,0 -1.355642,3.0991 10.980716,0 -1.355642,3.0993 -10.980715,0 -0.271127,0.6202 4.880321,11.1565 2.440156,0 -4.880321,-11.1565 2.440165,0 4.880312,11.1565 2.440165,0 -4.880321,-11.1565 2.304589,0 4.880321,11.1565 2.440156,0 -4.880313,-11.1565 0,-1.24 4.880313,-11.1568 1.897911,4.0287 -4.880329,11.157 1.762344,4.1838 4.88032,-11.1567 1.762339,4.184 -4.880324,11.1565 -0.813388,0.6196 -10.980715,0 -1.355642,3.0987 10.980708,0 -1.355642,3.0992 -10.980715,0 -1.355642,3.0991 10.980716,0 -1.355642,3.0993 -10.980715,0 -0.271127,0.6194 4.880321,11.1569 2.440156,0 -4.880321,-11.1569 2.440165,0 4.880312,11.1569 2.440165,0 -4.880321,-11.1569 2.304589,0 4.880321,11.1569 2.440156,0 -4.880313,-11.1569 0,-1.2393 4.880313,-11.1563 1.897911,4.0282 -4.880329,11.1569 1.762344,4.1839 4.88032,-11.1569 1.762339,4.1835 -4.880324,11.1569 -0.813388,0.6195 -10.980715,0 -1.355642,3.1 10.980708,0 -1.355642,3.0984 -10.980715,0 -1.355642,3.0992 10.980716,0 -1.355642,3.0993 -10.980715,0 -0.271127,0.6193 4.880321,11.1567 2.440156,0 -4.880321,-11.1567 2.440165,0 4.880312,11.1567 2.440165,0 -4.880321,-11.1567 2.304589,0 4.880321,11.1567 2.440156,0 -4.880313,-11.1567 0,-1.2392 4.880313,-11.1565 1.897911,4.0283 -4.880329,11.1565 1.762344,4.1841 4.88032,-11.1568 1.762339,4.1836 -4.880324,11.1567 -0.813388,0.6204 -10.980715,0 -1.355642,3.0986 10.980708,0 -1.355642,3.0989 -10.980715,0 -1.355642,3.0993 10.980716,0 -1.355642,3.0994 -10.980715,0 -0.271127,0.6193 4.880321,11.1571 2.440156,0 -4.880321,-11.1571 2.440165,0 4.880312,11.1571 2.440165,0 -4.880321,-11.1571 2.304589,0 4.880321,11.1571 2.440156,0 -4.880313,-11.1571 0,-1.239 4.880313,-11.1573 1.897911,4.0289 -4.880329,11.1568 1.762344,4.1839 4.88032,-11.1568 1.762339,4.1835 -4.880324,11.1571 -0.813388,0.6192 -10.980715,0 -1.355642,3.0993 10.980708,0 -1.355642,3.0993 -10.980715,0 -1.355642,3.0989 10.980716,0 -1.355642,3.0993 -10.980715,0 -0.271127,0.6194 4.880321,11.157 2.440156,0 -4.880321,-11.157 2.440165,0 4.880312,11.157 2.440165,0 -4.880321,-11.157 2.304589,0 4.880321,11.157 2.440156,0 -4.880313,-11.157 0,-1.2393 4.880313,-11.1563 1.897911,4.0281 -4.880329,11.1568 1.762344,4.1841 4.88032,-11.1569 1.762339,4.1835 -4.880324,11.157 -0.813388,0.6193 -10.980715,0 -1.355642,3.0993 10.980708,0 -1.355642,3.0994 -10.980715,0 -1.355642,3.099 10.980716,0 -1.355642,3.0988 -10.980715,0 -0.271127,0.62 4.880321,11.1564 2.440156,0 -4.880321,-11.1564 2.440165,0 4.880312,11.1564 2.440165,0 -4.880321,-11.1564 2.304589,0 4.880321,11.1564 2.440156,0 -4.880313,-11.1564 0,-1.2394 4.880313,-11.1569 1.897911,4.0288 -4.880329,11.157 1.762344,4.1836 4.88032,-11.1569 1.762339,4.1838 -4.880324,11.1564 -0.813388,0.6204 -10.980715,0 -1.355642,3.0987 10.980708,0 -1.355642,3.099 -10.980715,0 -1.355642,3.0993 10.980716,0 -1.355642,3.0992 -10.980715,0 -0.271127,0.6195 4.880321,11.1567 2.440156,0 -4.880321,-11.1567 2.440165,0 4.880312,11.1567 2.440165,0 -4.880321,-11.1567 2.304589,0 4.880321,11.1567 2.440156,0 -4.880313,-11.1567 0,-1.2394 4.880313,-11.1567 1.897911,4.0293 -4.880329,11.1563 1.762344,4.1836 4.88032,-11.1568 1.762339,4.1837 -4.880324,11.1567 -0.813388,0.6196 -10.980715,0 -1.355642,3.0998 10.980708,0 -1.355642,3.0986 -10.980715,0 -1.355642,3.0992 10.980716,0 -1.355642,3.0989 -10.980715,0 -0.271127,0.6197 4.880321,11.157 2.440156,0 -4.880321,-11.157 2.440165,0 4.880312,11.157 2.440165,0 -4.880321,-11.157 2.304589,0 4.880321,11.157 2.440156,0 -4.880313,-11.157 0,-1.2391 4.880313,-11.157 1.897911,4.029 -4.880329,11.1567 1.762344,4.1839 4.88032,-11.157 1.762339,4.1835 -4.880324,11.157 -0.813388,0.6201 -10.980715,0 -1.355642,3.0984 10.980708,0 -1.355642,3.0993 -10.980715,0 -1.355642,3.0988 10.980716,0 -1.355642,3.0997 -10.980715,0 -0.271127,0.6193 4.880321,11.1569 2.440156,0 -4.880321,-11.1569 2.440165,0 4.880312,11.1569 2.440165,0 -4.880321,-11.1569 2.304589,0 4.880321,11.1569 2.440156,0 -4.880313,-11.1569 0,-1.2394 4.880313,-11.1568 1.897911,4.0288 -4.880329,11.157 1.762344,4.1836 4.88032,-11.1567 1.762339,4.1835 -4.880324,11.1569 -0.813388,0.6196 -10.980715,0 -1.355642,3.0989 10.980708,0 -1.355642,3.0993 -10.980715,0 -1.355642,3.0994 10.980716,0 -1.355642,3.0988 -10.980715,0 -0.271127,0.6195 4.880321,11.157 2.440156,0 -4.880321,-11.157 2.440165,0 4.880312,11.157 2.440165,0 -4.880321,-11.157 2.304589,0 4.880321,11.157 2.440156,0 -4.880313,-11.157 0,-1.2397 4.880313,-11.1562 1.897911,4.0288 -4.880329,11.1563 1.762344,4.1837 4.88032,-11.1566 1.762339,4.1837 -4.880324,11.157 -0.813388,0.62 -10.980715,0 -1.355642,3.0989 10.980708,0 -1.355642,3.0989 -10.980715,0 -1.355642,3.0992 10.980716,0 -1.355642,3.0993 -10.980715,0 -0.271127,0.6195 4.880321,11.157 2.440156,0 -4.880321,-11.157 2.440165,0 4.880312,11.157 2.440165,0 -4.880321,-11.157 2.304589,0 4.880321,11.157 2.440156,0 -4.880313,-11.157 0,-1.2393 4.880313,-11.1568 1.897911,4.0286 -4.880329,11.157 1.762344,4.1839 4.88032,-11.1569 1.762339,4.1835 -4.880324,11.157 -18.436759,-11.7765 -10.845172,0 -1.355603,3.0984 10.845133,0 -1.355641,3.099 -10.845148,0 -1.355665,3.0998 10.845171,0 -1.355649,3.0986 -10.845117,0 -0.406756,0.6202 4.880366,11.1563 2.440141,0 -4.880297,-11.1563 2.440156,0 4.880298,11.1563 2.440156,0 -4.880313,-11.1563 2.440157,0 4.88032,11.1563 2.440164,0 -4.880328,-11.1563 0,-1.2395 4.880328,-11.157 1.762328,4.029 -4.880312,11.1562 1.897902,4.1837 4.880313,-11.1562 1.762344,4.1838 -4.880321,11.1563 -0.948955,0.6203 -10.845172,0 -1.355603,3.0989 10.845133,0 -1.355641,3.0992 -10.845148,0 -1.355665,3.0985 10.845171,0 -1.355649,3.0992 -10.845117,0 -0.406756,0.6203 4.880366,11.1568 2.440141,0 -4.880297,-11.1568 2.440156,0 4.880298,11.1568 2.440156,0 -4.880313,-11.1568 2.440157,0 4.88032,11.1568 2.440164,0 -4.880328,-11.1568 0,-1.2398 4.880328,-11.1569 1.762328,4.029 -4.880312,11.1569 1.897902,4.1837 4.880313,-11.1569 1.762344,4.184 -4.880321,11.1568 -0.948955,0.6192 -10.845172,0 -1.355603,3.099 10.845133,0 -1.355641,3.099 -10.845148,0 -1.355665,3.0998 10.845171,0 -1.355649,3.0986 -10.845117,0 -0.406756,0.6196 4.880366,11.1567 2.440141,0 -4.880297,-11.1567 2.440156,0 4.880298,11.1567 2.440156,0 -4.880313,-11.1567 2.440157,0 4.88032,11.1567 2.440164,0 -4.880328,-11.1567 0,-1.239 4.880328,-11.1569 1.762328,4.0291 -4.880312,11.1561 1.897902,4.1839 4.880313,-11.1565 1.762344,4.1833 -4.880321,11.1567 -0.948955,0.6203 -10.845172,0 -1.355603,3.0989 10.845133,0 -1.355641,3.0993 -10.845148,0 -1.355665,3.0986 10.845171,0 -1.355649,3.0989 -10.845117,0 -0.406756,0.6203 4.880366,11.1562 2.440141,0 -4.880297,-11.1562 2.440156,0 4.880298,11.1562 2.440156,0 -4.880313,-11.1562 2.440157,0 4.88032,11.1562 2.440164,0 -4.880328,-11.1562 0,-1.2396 4.880328,-11.1568 1.762328,4.0291 -4.880312,11.1568 1.897902,4.1828 4.880313,-11.1561 1.762344,4.1838 -4.880321,11.1562 -0.948955,0.6202 -10.845172,0 -1.355603,3.0988 10.845133,0 -1.355641,3.0994 -10.845148,0 -1.355665,3.0994 10.845171,0 -1.355649,3.0987 -10.845117,0 -0.406756,0.6196 4.880366,11.1568 2.440141,0 -4.880297,-11.1568 2.440156,0 4.880298,11.1568 2.440156,0 -4.880313,-11.1568 2.440157,0 4.88032,11.1568 2.440164,0 -4.880328,-11.1568 0,-1.2399 4.880328,-11.1563 1.762328,4.0285 -4.880312,11.1569 1.897902,4.1838 4.880313,-11.1567 1.762344,4.1837 -4.880321,11.1568 -0.948955,0.6204 -10.845172,0 -1.355603,3.0987 10.845133,0 -1.355641,3.0992 -10.845148,0 -1.355665,3.0987 10.845171,0 -1.355649,3.099 -10.845117,0 -0.406756,0.6201 4.880366,11.156 2.440141,0 -4.880297,-11.156 2.440156,0 4.880298,11.156 2.440156,0 -4.880313,-11.156 2.440157,0 4.88032,11.156 2.440164,0 -4.880328,-11.156 0,-1.2397 4.880328,-11.1568 1.762328,4.029 -4.880312,11.1562 1.897902,4.1836 4.880313,-11.1562 1.762344,4.1839 -4.880321,11.156 -0.948955,0.6202 -10.845172,0 -1.355603,3.099 10.845133,0 -1.355641,3.0991 -10.845148,0 -1.355665,3.0988 10.845171,0 -1.355649,3.0993 -10.845117,0 -0.406756,0.6199 4.880366,11.1568 2.440141,0 -4.880297,-11.1568 2.440156,0 4.880298,11.1568 2.440156,0 -4.880313,-11.1568 2.440157,0 4.88032,11.1568 2.440164,0 -4.880328,-11.1568 0,-1.24 4.880328,-11.1563 1.762328,4.0288 -4.880312,11.1566 1.897902,4.1842 4.880313,-11.1571 1.762344,4.1838 -4.880321,11.1568 -0.948955,0.6195 -10.845172,0 -1.355603,3.0991 10.845133,0 -1.355641,3.0996 -10.845148,0 -1.355665,3.0991 10.845171,0 -1.355649,3.0987 -10.845117,0 -0.406756,0.6198 4.880366,11.1565 2.440141,0 -4.880297,-11.1565 2.440156,0 4.880298,11.1565 2.440156,0 -4.880313,-11.1565 2.440157,0 4.88032,11.1565 2.440164,0 -4.880328,-11.1565 0,-1.24 4.880328,-11.1562 1.762328,4.0284 -4.880312,11.1568 1.897902,4.1836 4.880313,-11.1564 1.762344,4.1838 -4.880321,11.1565 -0.948955,0.6196 -10.845172,0 -1.355603,3.0995 10.845133,0 -1.355641,3.099 -10.845148,0 -1.355665,3.0989 10.845171,0 -1.355649,3.0992 -10.845117,0 -0.406756,0.6197 4.880366,11.1569 2.440141,0 -4.880297,-11.1569 2.440156,0 4.880298,11.1569 2.440156,0 -4.880313,-11.1569 2.440157,0 4.88032,11.1569 2.440164,0 -4.880328,-11.1569 0,-1.2397 4.880328,-11.1564 1.762328,4.0288 -4.880312,11.1567 1.897902,4.184 4.880313,-11.1569 1.762344,4.1835 -4.880321,11.1569 -0.948955,0.6195 -10.845172,0 -1.355603,3.0991 10.845133,0 -1.355641,3.0991 -10.845148,0 -1.355665,3.0994 10.845171,0 -1.355649,3.0988 -10.845117,0 -0.406756,0.6197 4.880366,11.1568 2.440141,0 -4.880297,-11.1568 2.440156,0 4.880298,11.1568 2.440156,0 -4.880313,-11.1568 2.440157,0 4.88032,11.1568 2.440164,0 -4.880328,-11.1568 0,-1.2396 4.880328,-11.1566 1.762328,4.029 -4.880312,11.1565 1.897902,4.1835 4.880313,-11.1563 1.762344,4.1835 -4.880321,11.1568 -0.948955,0.6196 -10.845172,0 -1.355603,3.0994 10.845133,0 -1.355641,3.099 -10.845148,0 -1.355665,3.0991 10.845171,0 -1.355649,3.099 -10.845117,0 -0.406756,0.6195 4.880366,11.1567 2.440141,0 -4.880297,-11.1567 2.440156,0 4.880298,11.1567 2.440156,0 -4.880313,-11.1567 2.440157,0 4.88032,11.1567 2.440164,0 -4.880328,-11.1567 0,-1.2388 4.880328,-11.1568 1.762328,4.0284 -4.880312,11.1567 1.897902,4.1836 4.880313,-11.157 1.762344,4.1839 -4.880321,11.1567 -0.948955,0.6201 -10.845172,0 -1.355603,3.0991 10.845133,0 -1.355641,3.0988 -10.845148,0 -1.355665,3.0997 10.845171,0 -1.355649,3.0989 -10.845117,0 -0.406756,0.6197 4.880366,11.1566 2.440141,0 -4.880297,-11.1566 2.440156,0 4.880298,11.1566 2.440156,0 -4.880313,-11.1566 2.440157,0 4.88032,11.1566 2.440164,0 -4.880328,-11.1566 0,-1.2399 4.880328,-11.1564 1.762328,4.0288 -4.880312,11.1566 1.897902,4.1835 4.880313,-11.1562 1.762344,4.1836 -4.880321,11.1566 -0.948955,0.6195 -10.845172,0 -1.355603,3.0993 10.845133,0 -1.355641,3.0989 -10.845148,0 -1.355665,3.0993 10.845171,0 -1.355649,3.0993 -10.845117,0 -0.406756,0.6198 4.880366,11.1562 2.440141,0 -4.880297,-11.1562 2.440156,0 4.880298,11.1562 2.440156,0 -4.880313,-11.1562 2.440157,0 4.88032,11.1562 2.440164,0 -4.880328,-11.1562 0,-1.2394 4.880328,-11.1568 1.762328,4.0287 -4.880312,11.1563 1.897902,4.1837 4.880313,-11.1562 1.762344,4.1837 -4.880321,11.1562 -0.948955,0.62 -10.845172,0 -1.355603,3.0992 10.845133,0 -1.355641,3.0992 -10.845148,0 -1.355665,3.0989 10.845171,0 -1.355649,3.0991 -10.845117,0 -0.406756,0.62 4.880366,11.1568 2.440141,0 -4.880297,-11.1568 2.440156,0 4.880298,11.1568 2.440156,0 -4.880313,-11.1568 2.440157,0 4.88032,11.1568 2.440164,0 -4.880328,-11.1568 0,-1.24 4.880328,-11.1564 1.762328,4.0287 -4.880312,11.1567 1.897902,4.1837 4.880313,-11.1565 1.762344,4.1838 -4.880321,11.1568 -0.948955,0.6195 -10.845172,0 -1.355603,3.0989 10.845133,0 -1.355641,3.0989 -10.845148,0 -1.355665,3.0996 10.845171,0 -1.355649,3.0991 -10.845117,0 -0.406756,0.6195 4.880366,11.1568 2.440141,0 -4.880297,-11.1568 2.440156,0 4.880298,11.1568 2.440156,0 -4.880313,-11.1568 2.440157,0 4.88032,11.1568 2.440164,0 -4.880328,-11.1568 0,-1.2399 4.880328,-11.156 1.762328,4.0282 -4.880312,11.1568 1.897902,4.1838 4.880313,-11.1565 1.762344,4.1836 -4.880321,11.1568 -0.948955,0.6197 -10.845172,0 -1.355603,3.0993 10.845133,0 -1.355641,3.099 -10.845148,0 -1.355665,3.0988 10.845171,0 -1.355649,3.0992 -10.845117,0 -0.406756,0.62 4.880366,11.1565 2.440141,0 -4.880297,-11.1565 2.440156,0 4.880298,11.1565 2.440156,0 -4.880313,-11.1565 2.440157,0 4.88032,11.1565 2.440164,0 -4.880328,-11.1565 0,-1.2398 4.880328,-11.1567 1.762328,4.029 -4.880312,11.1567 1.897902,4.1836 4.880313,-11.1563 1.762344,4.1835 -4.880321,11.1565 -0.948955,0.6198 -10.845172,0 -1.355603,3.099 10.845133,0 -1.355641,3.0989 -10.845148,0 -1.355665,3.0992 10.845171,0 -1.355649,3.0994 -10.845117,0 -0.406756,0.6197 4.880366,11.1565 2.440141,0 -4.880297,-11.1565 2.440156,0 4.880298,11.1565 2.440156,0 -4.880313,-11.1565 2.440157,0 4.88032,11.1565 2.440164,0 -4.880328,-11.1565 0,-1.2399 4.880328,-11.1569 1.762328,4.029 -4.880312,11.157 1.897902,4.1835 4.880313,-11.1563 1.762344,4.1836 -4.880321,11.1565 -0.948955,0.6197 -10.845172,0 -1.355603,3.0993 10.845133,0 -1.355641,3.0992 -10.845148,0 -1.355665,3.0989 10.845171,0 -1.355649,3.0991 -10.845117,0 -0.406756,0.6196 4.880366,11.1568 2.440141,0 -4.880297,-11.1568 2.440156,0 4.880298,11.1568 2.440156,0 -4.880313,-11.1568 2.440157,0 4.88032,11.1568 2.440164,0 -4.880328,-11.1568 0,-1.2397 4.880328,-11.1562 1.762328,4.028 -4.880312,11.1569 1.897902,4.1838 4.880313,-11.1567 1.762344,4.1839 -4.880321,11.1568 -0.948955,0.6198 -10.845172,0 -1.355603,3.0994 10.845133,0 -1.355641,3.0987 -10.845148,0 -1.355665,3.0991 10.845171,0 -1.355649,3.0989 -10.845117,0 -0.406756,0.6199 4.880366,11.1568 2.440141,0 -4.880297,-11.1568 2.440156,0 4.880298,11.1568 2.440156,0 -4.880313,-11.1568 2.440157,0 4.88032,11.1568 2.440164,0 -4.880328,-11.1568 0,-1.2397 4.880328,-11.1564 1.762328,4.0289 -4.880312,11.1566 1.897902,4.1835 4.880313,-11.1564 1.762344,4.1835 -4.880321,11.1568 -0.948955,0.6197 -10.845172,0 -1.355603,3.0988 10.845133,0 -1.355641,3.0989 -10.845148,0 -1.355665,3.0993 10.845171,0 -1.355649,3.0996 -10.845117,0 -0.406756,0.6195 4.880366,11.1568 2.440141,0 -4.880297,-11.1568 2.440156,0 4.880298,11.1568 2.440156,0 -4.880313,-11.1568 2.440157,0 4.88032,11.1568 2.440164,0 -4.880328,-11.1568 0,-1.2396 4.880328,-11.1563 1.762328,4.0279 -4.880312,11.157 1.897902,4.1837 4.880313,-11.1567 1.762344,4.184 -4.880321,11.1568 -18.436783,-11.7763 -10.980692,0 -1.355657,3.099 10.980746,0 -1.355657,3.0986 -10.980754,0 -1.355595,3.0992 10.980685,0 -1.355596,3.0986 -10.980746,0 -0.271112,0.6208 4.880306,11.1562 2.440148,0 -4.880305,-11.1562 2.440157,0 4.880305,11.1562 2.440149,0 -4.880306,-11.1562 2.440157,0 4.880305,11.1562 2.304628,0 -4.880305,-11.1562 0,-1.2399 4.880305,-11.1568 1.897879,4.0287 -4.880305,11.1568 1.762351,4.1838 4.880306,-11.1565 1.76235,4.1839 -4.880366,11.1562 -0.813381,0.6197 -10.980692,0 -1.355657,3.0989 10.980746,0 -1.355657,3.0998 -10.980754,0 -1.355595,3.0987 10.980685,0 -1.355596,3.0991 -10.980746,0 -0.271112,0.6194 4.880306,11.1569 2.440148,0 -4.880305,-11.1569 2.440157,0 4.880305,11.1569 2.440149,0 -4.880306,-11.1569 2.440157,0 4.880305,11.1569 2.304628,0 -4.880305,-11.1569 0,-1.2395 4.880305,-11.1569 1.897879,4.0291 -4.880305,11.1568 1.762351,4.1836 4.880306,-11.1569 1.76235,4.1838 -4.880366,11.1569 -0.813381,0.6196 -10.980692,0 -1.355657,3.0998 10.980746,0 -1.355657,3.0986 -10.980754,0 -1.355595,3.0991 10.980685,0 -1.355596,3.0991 -10.980746,0 -0.271112,0.6203 4.880306,11.156 2.440148,0 -4.880305,-11.156 2.440157,0 4.880305,11.156 2.440149,0 -4.880306,-11.156 2.440157,0 4.880305,11.156 2.304628,0 -4.880305,-11.156 0,-1.2399 4.880305,-11.1567 1.897879,4.0285 -4.880305,11.1568 1.762351,4.1834 4.880306,-11.1562 1.76235,4.1841 -4.880366,11.156 -0.813381,0.6199 -10.980692,0 -1.355657,3.099 10.980746,0 -1.355657,3.0991 -10.980754,0 -1.355595,3.0994 10.980685,0 -1.355596,3.099 -10.980746,0 -0.271112,0.6195 4.880306,11.157 2.440148,0 -4.880305,-11.157 2.440157,0 4.880305,11.157 2.440149,0 -4.880306,-11.157 2.440157,0 4.880305,11.157 2.304628,0 -4.880305,-11.157 0,-1.2398 4.880305,-11.1566 1.897879,4.0288 -4.880305,11.1569 1.762351,4.1838 4.880306,-11.1571 1.76235,4.184 -4.880366,11.157 -0.813381,0.6194 -10.980692,0 -1.355657,3.0998 10.980746,0 -1.355657,3.0986 -10.980754,0 -1.355595,3.099 10.980685,0 -1.355596,3.0993 -10.980746,0 -0.271112,0.6193 4.880306,11.1568 2.440148,0 -4.880305,-11.1568 2.440157,0 4.880305,11.1568 2.440149,0 -4.880306,-11.1568 2.440157,0 4.880305,11.1568 2.304628,0 -4.880305,-11.1568 0,-1.2394 4.880305,-11.1564 1.897879,4.0292 -4.880305,11.1563 1.762351,4.1838 4.880306,-11.1572 1.76235,4.1837 -4.880366,11.1568 -0.813381,0.6202 -10.980692,0 -1.355657,3.0987 10.980746,0 -1.355657,3.0994 -10.980754,0 -1.355595,3.0989 10.980685,0 -1.355596,3.0994 -10.980746,0 -0.271112,0.6194 4.880306,11.1569 2.440148,0 -4.880305,-11.1569 2.440157,0 4.880305,11.1569 2.440149,0 -4.880306,-11.1569 2.440157,0 4.880305,11.1569 2.304628,0 -4.880305,-11.1569 0,-1.2398 4.880305,-11.1568 1.897879,4.029 -4.880305,11.1569 1.762351,4.1837 4.880306,-11.1569 1.76235,4.1839 -4.880366,11.1569 -0.813381,0.6197 -10.980692,0 -1.355657,3.0987 10.980746,0 -1.355657,3.0991 -10.980754,0 -1.355595,3.0996 10.980685,0 -1.355596,3.0989 -10.980746,0 -0.271112,0.6197 4.880306,11.1568 2.440148,0 -4.880305,-11.1568 2.440157,0 4.880305,11.1568 2.440149,0 -4.880306,-11.1568 2.440157,0 4.880305,11.1568 2.304628,0 -4.880305,-11.1568 0,-1.2393 4.880305,-11.1575 1.897879,4.0297 -4.880305,11.1562 1.762351,4.1837 4.880306,-11.1559 1.76235,4.1831 -4.880366,11.1568 -0.813381,0.6198 -10.980692,0 -1.355657,3.0993 10.980746,0 -1.355657,3.0988 -10.980754,0 -1.355595,3.099 10.980685,0 -1.355596,3.0986 -10.980746,0 -0.271112,0.6204 4.880306,11.1568 2.440148,0 -4.880305,-11.1568 2.440157,0 4.880305,11.1568 2.440149,0 -4.880306,-11.1568 2.440157,0 4.880305,11.1568 2.304628,0 -4.880305,-11.1568 0,-1.2396 4.880305,-11.157 1.897879,4.029 -4.880305,11.157 1.762351,4.1835 4.880306,-11.1569 1.76235,4.184 -4.880366,11.1568 -0.813381,0.6196 -10.980692,0 -1.355657,3.0989 10.980746,0 -1.355657,3.0992 -10.980754,0 -1.355595,3.0993 10.980685,0 -1.355596,3.099 -10.980746,0 -0.271112,0.6197 4.880306,11.1566 2.440148,0 -4.880305,-11.1566 2.440157,0 4.880305,11.1566 2.440149,0 -4.880306,-11.1566 2.440157,0 4.880305,11.1566 2.304628,0 -4.880305,-11.1566 0,-1.2398 4.880305,-11.1561 1.897879,4.0284 -4.880305,11.1568 1.762351,4.1835 4.880306,-11.1568 1.76235,4.184 -4.880366,11.1566 -0.813381,0.6195 -10.980692,0 -1.355657,3.0998 10.980746,0 -1.355657,3.0988 -10.980754,0 -1.355595,3.0992 10.980685,0 -1.355596,3.0986 -10.980746,0 -0.271112,0.6205 4.880306,11.1563 2.440148,0 -4.880305,-11.1563 2.440157,0 4.880305,11.1563 2.440149,0 -4.880306,-11.1563 2.440157,0 4.880305,11.1563 2.304628,0 -4.880305,-11.1563 0,-1.24 4.880305,-11.1569 1.897879,4.029 -4.880305,11.1562 1.762351,4.1839 4.880306,-11.1565 1.76235,4.1843 -4.880366,11.1563 -0.813381,0.6198 -10.980692,0 -1.355657,3.099 10.980746,0 -1.355657,3.099 -10.980754,0 -1.355595,3.0992 10.980685,0 -1.355596,3.0984 -10.980746,0 -0.271112,0.6202 4.880306,11.1569 2.440148,0 -4.880305,-11.1569 2.440157,0 4.880305,11.1569 2.440149,0 -4.880306,-11.1569 2.440157,0 4.880305,11.1569 2.304628,0 -4.880305,-11.1569 0,-1.2394 4.880305,-11.1569 1.897879,4.0291 -4.880305,11.1568 1.762351,4.1838 4.880306,-11.157 1.76235,4.1836 -4.880366,11.1569 -0.813381,0.6195 -10.980692,0 -1.355657,3.0991 10.980746,0 -1.355657,3.0992 -10.980754,0 -1.355595,3.0994 10.980685,0 -1.355596,3.0992 -10.980746,0 -0.271112,0.6193 4.880306,11.1568 2.440148,0 -4.880305,-11.1568 2.440157,0 4.880305,11.1568 2.440149,0 -4.880306,-11.1568 2.440157,0 4.880305,11.1568 2.304628,0 -4.880305,-11.1568 0,-1.2398 4.880305,-11.1565 1.897879,4.0289 -4.880305,11.1564 1.762351,4.1838 4.880306,-11.1568 1.76235,4.184 -4.880366,11.1568 -0.813381,0.6201 -10.980692,0 -1.355657,3.0988 10.980746,0 -1.355657,3.0992 -10.980754,0 -1.355595,3.099 10.980685,0 -1.355596,3.0987 -10.980746,0 -0.271112,0.6203 4.880306,11.1568 2.440148,0 -4.880305,-11.1568 2.440157,0 4.880305,11.1568 2.440149,0 -4.880306,-11.1568 2.440157,0 4.880305,11.1568 2.304628,0 -4.880305,-11.1568 0,-1.2399 4.880305,-11.1568 1.897879,4.029 -4.880305,11.1568 1.762351,4.1838 4.880306,-11.1568 1.76235,4.1839 -4.880366,11.1568 -0.813381,0.6192 -10.980692,0 -1.355657,3.0993 10.980746,0 -1.355657,3.099 -10.980754,0 -1.355595,3.0986 10.980685,0 -1.355596,3.1001 -10.980746,0 -0.271112,0.6194 4.880306,11.1568 2.440148,0 -4.880305,-11.1568 2.440157,0 4.880305,11.1568 2.440149,0 -4.880306,-11.1568 2.440157,0 4.880305,11.1568 2.304628,0 -4.880305,-11.1568 0,-1.2399 4.880305,-11.1567 1.897879,4.029 -4.880305,11.1566 1.762351,4.1841 4.880306,-11.1569 1.76235,4.1838 -4.880366,11.1568 -0.813381,0.6195 -10.980692,0 -1.355657,3.0993 10.980746,0 -1.355657,3.0992 -10.980754,0 -1.355595,3.099 10.980685,0 -1.355596,3.0987 -10.980746,0 -0.271112,0.6197 4.880306,11.1565 2.440148,0 -4.880305,-11.1565 2.440157,0 4.880305,11.1565 2.440149,0 -4.880306,-11.1565 2.440157,0 4.880305,11.1565 2.304628,0 -4.880305,-11.1565 0,-1.2392 4.880305,-11.1569 1.897879,4.0292 -4.880305,11.1559 1.762351,4.1838 4.880306,-11.1562 1.76235,4.1834 -4.880366,11.1565 -0.813381,0.6203 -10.980692,0 -1.355657,3.0991 10.980746,0 -1.355657,3.0991 -10.980754,0 -1.355595,3.0987 10.980685,0 -1.355596,3.0991 -10.980746,0 -0.271112,0.6202 4.880306,11.1568 2.440148,0 -4.880305,-11.1568 2.440157,0 4.880305,11.1568 2.440149,0 -4.880306,-11.1568 2.440157,0 4.880305,11.1568 2.304628,0 -4.880305,-11.1568 0,-1.2396 4.880305,-11.157 1.897879,4.0289 -4.880305,11.157 1.762351,4.1836 4.880306,-11.1569 1.76235,4.184 -4.880366,11.1568 -0.813381,0.6196 -10.980692,0 -1.355657,3.0989 10.980746,0 -1.355657,3.0995 -10.980754,0 -1.355595,3.0992 10.980685,0 -1.355596,3.0983 -10.980746,0 -0.271112,0.6197 4.880306,11.1568 2.440148,0 -4.880305,-11.1568 2.440157,0 4.880305,11.1568 2.440149,0 -4.880306,-11.1568 2.440157,0 4.880305,11.1568 2.304628,0 -4.880305,-11.1568 0,-1.2395 4.880305,-11.1563 1.897879,4.0285 -4.880305,11.1566 1.762351,4.1839 4.880306,-11.1566 1.76235,4.1834 -4.880366,11.1568 -0.813381,0.6196 -10.980692,0 -1.355657,3.0998 10.980746,0 -1.355657,3.099 -10.980754,0 -1.355595,3.0986 10.980685,0 -1.355596,3.0991 -10.980746,0 -0.271112,0.6202 4.880306,11.156 2.440148,0 -4.880305,-11.156 2.440157,0 4.880305,11.156 2.440149,0 -4.880306,-11.156 2.440157,0 4.880305,11.156 2.304628,0 -4.880305,-11.156 0,-1.2395 4.880305,-11.1569 1.897879,4.029 -4.880305,11.1569 1.762351,4.1836 4.880306,-11.157 1.76235,4.1839 -4.880366,11.156 -0.813381,0.6203 -10.980692,0 -1.355657,3.0989 10.980746,0 -1.355657,3.0992 -10.980754,0 -1.355595,3.0996 10.980685,0 -1.355596,3.0986 -10.980746,0 -0.271112,0.6197 4.880306,11.1568 2.440148,0 -4.880305,-11.1568 2.440157,0 4.880305,11.1568 2.440149,0 -4.880306,-11.1568 2.440157,0 4.880305,11.1568 2.304628,0 -4.880305,-11.1568 0,-1.2399 4.880305,-11.1564 1.897879,4.0286 -4.880305,11.1568 1.762351,4.1838 4.880306,-11.1565 1.76235,4.1836 -4.880366,11.1568 -0.813381,0.6194 -10.980692,0 -1.355657,3.0992 10.980746,0 -1.355657,3.0995 -10.980754,0 -1.355595,3.0987 10.980685,0 -1.355596,3.0992 -10.980746,0 -0.271112,0.6196 4.880306,11.1566 2.440148,0 -4.880305,-11.1566 2.440157,0 4.880305,11.1566 2.440149,0 -4.880306,-11.1566 2.440157,0 4.880305,11.1566 2.304628,0 -4.880305,-11.1566 0,-1.239 4.880305,-11.157 1.897879,4.0292 -4.880305,11.1567 1.762351,4.1838 4.880306,-11.1569 1.76235,4.1832 -4.880366,11.1566 -18.436729,-11.7762 -10.845164,0 -1.355595,3.0991 10.845102,0 -1.355603,3.0986 -10.845164,0 -1.3556562,3.1 10.8451632,0 -1.355665,3.0987 -10.8451548,0 -0.271112,0.6197 4.8803048,11.1564 2.304628,0 -4.880367,-11.1564 2.440218,0 4.880305,11.1564 2.440149,0 -4.880305,-11.1564 2.440156,0 4.880305,11.1564 2.440149,0 -4.880305,-11.1564 0,-1.2399 4.880305,-11.1566 1.762351,4.0291 -4.880305,11.1563 1.897879,4.1841 4.880305,-11.1569 1.762352,4.1839 -4.880306,11.1564 -0.94897,0.6202 -10.845164,0 -1.355595,3.0991 10.845102,0 -1.355603,3.0991 -10.845164,0 -1.3556562,3.0987 10.8451632,0 -1.355665,3.0992 -10.8451548,0 -0.271112,0.62 4.8803048,11.157 2.304628,0 -4.880367,-11.157 2.440218,0 4.880305,11.157 2.440149,0 -4.880305,-11.157 2.440156,0 4.880305,11.157 2.440149,0 -4.880305,-11.157 0,-1.2395 4.880305,-11.1568 1.762351,4.0289 -4.880305,11.1568 1.897879,4.1839 4.880305,-11.1569 1.762352,4.1836 -4.880306,11.157 -0.94897,0.6194 -10.845164,0 -1.355595,3.0992 10.845102,0 -1.355603,3.0983 -10.845164,0 -1.3556562,3.0993 10.8451632,0 -1.355665,3.0999 -10.8451548,0 -0.271112,0.6193 4.8803048,11.1567 2.304628,0 -4.880367,-11.1567 2.440218,0 4.880305,11.1567 2.440149,0 -4.880305,-11.1567 2.440156,0 4.880305,11.1567 2.440149,0 -4.880305,-11.1567 0,-1.2397 4.880305,-11.1566 1.762351,4.029 -4.880305,11.1563 1.897879,4.1838 4.880305,-11.1566 1.762352,4.1838 -4.880306,11.1567 -0.94897,0.6197 -10.845164,0 -1.355595,3.0993 10.845102,0 -1.355603,3.0994 -10.845164,0 -1.3556562,3.0984 10.8451632,0 -1.355665,3.0992 -10.8451548,0 -0.271112,0.6202 4.8803048,11.1561 2.304628,0 -4.880367,-11.1561 2.440218,0 4.880305,11.1561 2.440149,0 -4.880305,-11.1561 2.440156,0 4.880305,11.1561 2.440149,0 -4.880305,-11.1561 0,-1.2396 4.880305,-11.1569 1.762351,4.0289 -4.880305,11.1561 1.897879,4.184 4.880305,-11.1563 1.762352,4.1838 -4.880306,11.1561 -0.94897,0.6202 -10.845164,0 -1.355595,3.099 10.845102,0 -1.355603,3.0993 -10.845164,0 -1.3556562,3.0986 10.8451632,0 -1.355665,3.099 -10.8451548,0 -0.271112,0.6202 4.8803048,11.157 2.304628,0 -4.880367,-11.157 2.440218,0 4.880305,11.157 2.440149,0 -4.880305,-11.157 2.440156,0 4.880305,11.157 2.440149,0 -4.880305,-11.157 0,-1.24 4.880305,-11.1564 1.762351,4.0289 -4.880305,11.1566 1.897879,4.1837 4.880305,-11.1565 1.762352,4.1837 -4.880306,11.157 -0.94897,0.6193 -10.845164,0 -1.355595,3.0991 10.845102,0 -1.355603,3.0987 -10.845164,0 -1.3556562,3.0999 10.8451632,0 -1.355665,3.0986 -10.8451548,0 -0.271112,0.6201 4.8803048,11.1561 2.304628,0 -4.880367,-11.1561 2.440218,0 4.880305,11.1561 2.440149,0 -4.880305,-11.1561 2.440156,0 4.880305,11.1561 2.440149,0 -4.880305,-11.1561 0,-1.24 4.880305,-11.1561 1.762351,4.0279 -4.880305,11.1569 1.897879,4.184 4.880305,-11.1567 1.762352,4.184 -4.880306,11.1561 -0.94897,0.6203 -10.845164,0 -1.355595,3.0991 10.845102,0 -1.355603,3.0992 -10.845164,0 -1.3556562,3.0985 10.8451632,0 -1.355665,3.0991 -10.8451548,0 -0.271112,0.6202 4.8803048,11.1563 2.304628,0 -4.880367,-11.1563 2.440218,0 4.880305,11.1563 2.440149,0 -4.880305,-11.1563 2.440156,0 4.880305,11.1563 2.440149,0 -4.880305,-11.1563 0,-1.2399 4.880305,-11.1565 1.762351,4.029 -4.880305,11.1563 1.897879,4.1839 4.880305,-11.1568 1.762352,4.184 -4.880306,11.1563 -0.94897,0.6201 -10.845164,0 -1.355595,3.099 10.845102,0 -1.355603,3.0987 -10.845164,0 -1.3556562,3.0992 10.8451632,0 -1.355665,3.0994 -10.8451548,0 -0.271112,0.6199 4.8803048,11.1561 2.304628,0 -4.880367,-11.1561 2.440218,0 4.880305,11.1561 2.440149,0 -4.880305,-11.1561 2.440156,0 4.880305,11.1561 2.440149,0 -4.880305,-11.1561 0,-1.2399 4.880305,-11.1569 1.762351,4.0289 -4.880305,11.1568 1.897879,4.1837 4.880305,-11.1565 1.762352,4.1839 -4.880306,11.1561 -0.94897,0.6203 -10.845164,0 -1.355595,3.0994 10.845102,0 -1.355603,3.0988 -10.845164,0 -1.3556562,3.0987 10.8451632,0 -1.355665,3.0993 -10.8451548,0 -0.271112,0.6192 4.8803048,11.157 2.304628,0 -4.880367,-11.157 2.440218,0 4.880305,11.157 2.440149,0 -4.880305,-11.157 2.440156,0 4.880305,11.157 2.440149,0 -4.880305,-11.157 0,-1.2389 4.880305,-11.1568 1.762351,4.0284 -4.880305,11.1568 1.897879,4.1839 4.880305,-11.1569 1.762352,4.1835 -4.880306,11.157 -0.94897,0.6201 -10.845164,0 -1.355595,3.0993 10.845102,0 -1.355603,3.0984 -10.845164,0 -1.3556562,3.0992 10.8451632,0 -1.355665,3.0992 -10.8451548,0 -0.271112,0.6202 4.8803048,11.1563 2.304628,0 -4.880367,-11.1563 2.440218,0 4.880305,11.1563 2.440149,0 -4.880305,-11.1563 2.440156,0 4.880305,11.1563 2.440149,0 -4.880305,-11.1563 0,-1.2399 4.880305,-11.1566 1.762351,4.029 -4.880305,11.1562 1.897879,4.184 4.880305,-11.1568 1.762352,4.1841 -4.880306,11.1563 -0.94897,0.6198 -10.845164,0 -1.355595,3.0988 10.845102,0 -1.355603,3.0999 -10.845164,0 -1.3556562,3.0986 10.8451632,0 -1.355665,3.099 -10.8451548,0 -0.271112,0.6195 4.8803048,11.157 2.304628,0 -4.880367,-11.157 2.440218,0 4.880305,11.157 2.440149,0 -4.880305,-11.157 2.440156,0 4.880305,11.157 2.440149,0 -4.880305,-11.157 0,-1.2394 4.880305,-11.1569 1.762351,4.0289 -4.880305,11.1568 1.897879,4.1839 4.880305,-11.1569 1.762352,4.1836 -4.880306,11.157 -0.94897,0.6193 -10.845164,0 -1.355595,3.0999 10.845102,0 -1.355603,3.0986 -10.845164,0 -1.3556562,3.099 10.8451632,0 -1.355665,3.0994 -10.8451548,0 -0.271112,0.6202 4.8803048,11.156 2.304628,0 -4.880367,-11.156 2.440218,0 4.880305,11.156 2.440149,0 -4.880305,-11.156 2.440156,0 4.880305,11.156 2.440149,0 -4.880305,-11.156 0,-1.24 4.880305,-11.1566 1.762351,4.029 -4.880305,11.1563 1.897879,4.1841 4.880305,-11.1568 1.762352,4.184 -4.880306,11.156 -0.94897,0.6201 -10.845164,0 -1.355595,3.0987 10.845102,0 -1.355603,3.0993 -10.845164,0 -1.3556562,3.0993 10.8451632,0 -1.355665,3.0989 -10.8451548,0 -0.271112,0.62 4.8803048,11.1564 2.304628,0 -4.880367,-11.1564 2.440218,0 4.880305,11.1564 2.440149,0 -4.880305,-11.1564 2.440156,0 4.880305,11.1564 2.440149,0 -4.880305,-11.1564 0,-1.2398 4.880305,-11.1569 1.762351,4.0287 -4.880305,11.157 1.897879,4.1839 4.880305,-11.157 1.762352,4.1841 -4.880306,11.1564 -0.94897,0.6197 -10.845164,0 -1.355595,3.0987 10.845102,0 -1.355603,3.0995 -10.845164,0 -1.3556562,3.0992 10.8451632,0 -1.355665,3.0989 -10.8451548,0 -0.271112,0.6197 4.8803048,11.1568 2.304628,0 -4.880367,-11.1568 2.440218,0 4.880305,11.1568 2.440149,0 -4.880305,-11.1568 2.440156,0 4.880305,11.1568 2.440149,0 -4.880305,-11.1568 0,-1.2393 4.880305,-11.1565 1.762351,4.029 -4.880305,11.1561 1.897879,4.1835 4.880305,-11.156 1.762352,4.1832 -4.880306,11.1568 -0.94897,0.6203 -10.845164,0 -1.355595,3.0988 10.845102,0 -1.355603,3.0988 -10.845164,0 -1.3556562,3.0992 10.8451632,0 -1.355665,3.0995 -10.8451548,0 -0.271112,0.6196 4.8803048,11.1565 2.304628,0 -4.880367,-11.1565 2.440218,0 4.880305,11.1565 2.440149,0 -4.880305,-11.1565 2.440156,0 4.880305,11.1565 2.440149,0 -4.880305,-11.1565 0,-1.2398 4.880305,-11.1569 1.762351,4.0288 -4.880305,11.1569 1.897879,4.1839 4.880305,-11.1568 1.762352,4.1839 -4.880306,11.1565 -0.94897,0.6197 -10.845164,0 -1.355595,3.0988 10.845102,0 -1.355603,3.0992 -10.845164,0 -1.3556562,3.0993 10.8451632,0 -1.355665,3.0991 -10.8451548,0 -0.271112,0.6195 4.8803048,11.1567 2.304628,0 -4.880367,-11.1567 2.440218,0 4.880305,11.1567 2.440149,0 -4.880305,-11.1567 2.440156,0 4.880305,11.1567 2.440149,0 -4.880305,-11.1567 0,-1.2392 4.880305,-11.1566 1.762351,4.0283 -4.880305,11.1569 1.897879,4.1836 4.880305,-11.1568 1.762352,4.1838 -4.880306,11.1567 -0.94897,0.6204 -10.845164,0 -1.355595,3.0991 10.845102,0 -1.355603,3.0987 -10.845164,0 -1.3556562,3.0991 10.8451632,0 -1.355665,3.0991 -10.8451548,0 -0.271112,0.62 4.8803048,11.1567 2.304628,0 -4.880367,-11.1567 2.440218,0 4.880305,11.1567 2.440149,0 -4.880305,-11.1567 2.440156,0 4.880305,11.1567 2.440149,0 -4.880305,-11.1567 0,-1.2397 4.880305,-11.157 1.762351,4.0289 -4.880305,11.1568 1.897879,4.1839 4.880305,-11.1568 1.762352,4.1839 -4.880306,11.1567 -0.94897,0.6196 -10.845164,0 -1.355595,3.0988 10.845102,0 -1.355603,3.099 -10.845164,0 -1.3556562,3.0992 10.8451632,0 -1.355665,3.0994 -10.8451548,0 -0.271112,0.6193 4.8803048,11.157 2.304628,0 -4.880367,-11.157 2.440218,0 4.880305,11.157 2.440149,0 -4.880305,-11.157 2.440156,0 4.880305,11.157 2.440149,0 -4.880305,-11.157 0,-1.2395 4.880305,-11.1569 1.762351,4.029 -4.880305,11.1569 1.897879,4.1837 4.880305,-11.1568 1.762352,4.1836 -4.880306,11.157 -0.94897,0.6194 -10.845164,0 -1.355595,3.1 10.845102,0 -1.355603,3.0985 -10.845164,0 -1.3556562,3.0991 10.8451632,0 -1.355665,3.0991 -10.8451548,0 -0.271112,0.6203 4.8803048,11.1562 2.304628,0 -4.880367,-11.1562 2.440218,0 4.880305,11.1562 2.440149,0 -4.880305,-11.1562 2.440156,0 4.880305,11.1562 2.440149,0 -4.880305,-11.1562 0,-1.2399 4.880305,-11.1567 1.762351,4.029 -4.880305,11.1557 1.897879,4.1842 4.880305,-11.1563 1.762352,4.184 -4.880306,11.1562 -0.94897,0.6198 -10.845164,0 -1.355595,3.0988 10.845102,0 -1.355603,3.0993 -10.845164,0 -1.3556562,3.0989 10.8451632,0 -1.355665,3.0986 -10.8451548,0 -0.271112,0.6203 4.8803048,11.1569 2.304628,0 -4.880367,-11.1569 2.440218,0 4.880305,11.1569 2.440149,0 -4.880305,-11.1569 2.440156,0 4.880305,11.1569 2.440149,0 -4.880305,-11.1569 0,-1.2395 4.880305,-11.1572 1.762351,4.0291 -4.880305,11.157 1.897879,4.1835 4.880305,-11.1567 1.762352,4.1838 -4.880306,11.1569"
       id="path6" />
  </g>
  <eggbot
     serialport="COM14"
     layer="0"
     node="0"
     lastpath="0"
     lastpathnc="0"
     totaldeltax="0"
     totaldeltay="0"
     id="eggbot2995" />
</svg>
