<?xml version="1.0" encoding="UTF-8" standalone="no"?>
<svg
   xmlns:dc="http://purl.org/dc/elements/1.1/"
   xmlns:cc="http://creativecommons.org/ns#"
   xmlns:rdf="http://www.w3.org/1999/02/22-rdf-syntax-ns#"
   xmlns:svg="http://www.w3.org/2000/svg"
   xmlns="http://www.w3.org/2000/svg"
   xmlns:sodipodi="http://sodipodi.sourceforge.net/DTD/sodipodi-0.dtd"
   xmlns:inkscape="http://www.inkscape.org/namespaces/inkscape"
   sodipodi:docname="cubeses-5stripes.svg"
   inkscape:version="0.48.2 r9819"
   version="1.1"
   id="svg2"
   height="496.06299"
   width="177.16534">
  <sodipodi:namedview
     pagecolor="#ffffff"
     bordercolor="#666666"
     borderopacity="1"
     objecttolerance="10"
     gridtolerance="10"
     guidetolerance="10"
     inkscape:pageopacity="0"
     inkscape:pageshadow="2"
     inkscape:window-width="1920"
     inkscape:window-height="1056"
     id="namedview16"
     showgrid="false"
     inkscape:zoom="1.5678791"
     inkscape:cx="88.362659"
     inkscape:cy="282.09351"
     inkscape:window-x="0"
     inkscape:window-y="24"
     inkscape:window-maximized="1"
     inkscape:current-layer="layer1"
     width="50px"
     units="mm"
     inkscape:document-units="mm"
     inkscape:showpageshadow="false" />
  <metadata
     id="metadata20">
    <rdf:RDF>
      <cc:Work
         rdf:about="">
        <dc:format>image/svg+xml</dc:format>
        <dc:type
           rdf:resource="http://purl.org/dc/dcmitype/StillImage" />
      </cc:Work>
    </rdf:RDF>
  </metadata>
  <defs
     id="defs18" />
  <g
     style="display:inline"
     inkscape:label="3-CYAN"
     id="layer3"
     inkscape:groupmode="layer"
     transform="translate(0,-703.93702)">
    <path
       style="fill:none;stroke:#00cbff;stroke-width:0.17307678;stroke-opacity:1"
       inkscape:connector-curvature="0"
       id="path10"
       d="m 98.853688,673.6657 -19.537205,0 -2.321267,3.8715 19.343799,0 -2.321266,3.87147 -19.537243,0 -2.321231,3.87146 19.343802,0 -2.321267,3.87147 -19.537245,0 -0.58029,0.77427 8.704707,13.93732 4.255617,0 -8.704709,-13.93732 4.449092,0 8.704708,13.93732 4.255612,0 -8.704703,-13.93732 4.449091,0 8.704706,13.93732 4.255625,0 -8.704719,-13.93732 0,-1.54856 8.704719,-13.9373 3.288439,5.11033 -8.704711,13.93731 3.094996,5.11033 8.704705,-13.93728 3.28848,5.26517 -8.70471,13.93732 -1.547532,0.77428 -19.537205,0 -2.321267,3.87147 19.343799,0 -2.321266,3.87146 -19.537243,0 -2.321231,3.87149 19.343802,0 -2.321267,3.87147 -19.537245,0 -0.58029,0.7743 8.704707,13.9373 4.255617,0 -8.704709,-13.9373 4.449092,0 8.704708,13.9373 4.255612,0 -8.704703,-13.9373 4.449091,0 8.704706,13.9373 4.255625,0 -8.704719,-13.9373 0,-1.54859 8.704719,-13.93728 3.288439,5.11033 -8.704711,13.9373 3.094996,5.11033 8.704705,-13.93731 3.28848,5.26522 -8.70471,13.9373 -1.547532,0.77429 -19.537205,0 -2.321267,3.87147 19.343799,0 -2.321266,3.87147 -19.537243,0 -2.321231,3.87147 19.343802,0 -2.321267,3.87146 -19.537245,0 -0.58029,0.7743 8.704707,13.9373 4.255617,0 -8.704709,-13.9373 4.449092,0 8.704708,13.9373 4.255612,0 -8.704703,-13.9373 4.449091,0 8.704706,13.9373 4.255625,0 -8.704719,-13.9373 0,-1.54859 8.704719,-13.93729 3.288439,5.11034 -8.704711,13.93729 3.094996,5.11034 8.704705,-13.93729 3.28848,5.2652 -8.70471,13.9373 -1.547532,0.77429 -19.537205,0 -2.321267,3.87148 19.343799,0 -2.321266,3.87146 -19.537243,0 -2.321231,3.87147 19.343802,0 -2.321267,3.87148 -19.537245,0 -0.58029,0.77429 8.704707,13.93729 4.255617,0 -8.704709,-13.93729 4.449092,0 8.704708,13.93729 4.255612,0 -8.704703,-13.93729 4.449091,0 8.704706,13.93729 4.255625,0 -8.704719,-13.93729 0,-1.54859 8.704719,-13.9373 3.288439,5.11034 -8.704711,13.9373 3.094996,5.11034 8.704705,-13.93729 3.28848,5.2652 -8.70471,13.93729 -1.547532,0.77429 -19.537205,0 -2.321267,3.87148 19.343799,0 -2.321266,3.87147 -19.537243,0 -2.321231,3.87146 19.343802,0 -2.321267,3.87147 -19.537245,0 -0.58029,0.77429 8.704707,13.93731 4.255617,0 -8.704709,-13.93731 4.449092,0 8.704708,13.93731 4.255612,0 -8.704703,-13.93731 4.449091,0 8.704706,13.93731 4.255625,0 -8.704719,-13.93731 0,-1.54858 8.704719,-13.93728 3.288439,5.11032 -8.704711,13.93731 3.094996,5.11034 8.704705,-13.9373 3.28848,5.26519 -8.70471,13.93731 -1.547532,0.77429 -19.537205,0 -2.321267,3.87147 19.343799,0 -2.321266,3.87147 -19.537243,0 -2.321231,3.87147 19.343802,0 -2.321267,3.87148 -19.537245,0 -0.58029,0.77428 8.704707,13.9373 4.255617,0 -8.704709,-13.9373 4.449092,0 8.704708,13.9373 4.255612,0 -8.704703,-13.9373 4.449091,0 8.704706,13.9373 4.255625,0 -8.704719,-13.9373 0,-1.54858 8.704719,-13.9373 3.288439,5.11034 -8.704711,13.9373 3.094996,5.11033 8.704705,-13.93728 3.28848,5.26519 -8.70471,13.9373 -1.547532,0.7743 -19.537205,0 -2.321267,3.87147 19.343799,0 -2.321266,3.87146 -19.537243,0 -2.321231,3.87147 19.343802,0 -2.321267,3.87148 -19.537245,0 -0.58029,0.77429 8.704707,13.9373 4.255617,0 -8.704709,-13.9373 4.449092,0 8.704708,13.9373 4.255612,0 -8.704703,-13.9373 4.449091,0 8.704706,13.9373 4.255625,0 -8.704719,-13.9373 0,-1.54859 8.704719,-13.93728 3.288439,5.11033 -8.704711,13.93729 3.094996,5.11035 8.704705,-13.9373 3.28848,5.2652 -8.70471,13.9373 -1.547532,0.77428 -19.537205,0 -2.321267,3.87149 19.343799,0 -2.321266,3.87146 -19.537243,0 -2.321231,3.87147 19.343802,0 -2.321267,3.87147 -19.537245,0 -0.58029,0.77429 8.704707,13.9373 4.255617,0 -8.704709,-13.9373 4.449092,0 8.704708,13.9373 4.255612,0 -8.704703,-13.9373 4.449091,0 8.704706,13.9373 4.255625,0 -8.704719,-13.9373 0,-1.54858 8.704719,-13.93729 3.288439,5.11033 -8.704711,13.9373 3.094996,5.11034 8.704705,-13.93729 3.28848,5.26519 -8.70471,13.9373 -1.547532,0.7743 -19.537205,0 -2.321267,3.87146 19.343799,0 -2.321266,3.87147 -19.537243,0 -2.321231,3.87148 19.343802,0 -2.321267,3.87146 -19.537245,0 -0.58029,0.77429 8.704707,13.9373 4.255617,0 -8.704709,-13.9373 4.449092,0 8.704708,13.9373 4.255612,0 -8.704703,-13.9373 4.449091,0 8.704706,13.9373 4.255625,0 -8.704719,-13.9373 0,-1.54857 8.704719,-13.9373 3.288439,5.11034 -8.704711,13.93729 3.094996,5.11035 8.704705,-13.9373 3.28848,5.26519 -8.70471,13.9373 -1.547532,0.7743 -19.537205,0 -2.321267,3.87147 19.343799,0 -2.321266,3.8715 -19.537243,0 -2.321231,3.87143 19.343802,0 -2.321267,3.87146 -19.537245,0 -0.58029,0.77429 8.704707,13.93732 4.255617,0 -8.704709,-13.93732 4.449092,0 8.704708,13.93732 4.255612,0 -8.704703,-13.93732 4.449091,0 8.704706,13.93732 4.255625,0 -8.704719,-13.93732 0,-1.54858 8.704719,-13.93728 3.288439,5.11035 -8.704711,13.93726 3.094996,5.11039 8.704705,-13.93732 3.28848,5.26518 -8.70471,13.93732 -1.547532,0.77429 -19.537205,0 -2.321267,3.87144 19.343799,0 -2.321266,3.87151 -19.537243,0 -2.321231,3.87144 19.343802,0 -2.321267,3.8715 -19.537245,0 -0.58029,0.77429 8.704707,13.93736 4.255617,0 -8.704709,-13.93736 4.449092,0 8.704708,13.93736 4.255612,0 -8.704703,-13.93736 4.449091,0 8.704706,13.93736 4.255625,0 -8.704719,-13.93736 0,-1.54857 8.704719,-13.93732 3.288439,5.11032 -8.704711,13.93733 3.094996,5.1104 8.704705,-13.9374 3.28848,5.26524 -8.70471,13.93736 -1.547532,0.7743 -19.537205,0 -2.321267,3.8714 19.343799,0 -2.321266,3.8715 -19.537243,0 -2.321231,3.8715 19.343802,0 -2.321267,3.8714 -19.537245,0 -0.58029,0.7743 8.704707,13.9373 4.255617,0 -8.704709,-13.9373 4.449092,0 8.704708,13.9373 4.255612,0 -8.704703,-13.9373 4.449091,0 8.704706,13.9373 4.255625,0 -8.704719,-13.9373 0,-1.5485 8.704719,-13.9373 3.288439,5.1102 -8.704711,13.9374 3.094996,5.1103 8.704705,-13.9372 3.28848,5.2651 -8.70471,13.9373 -1.547532,0.7744 -19.537205,0 -2.321267,3.8714 19.343799,0 -2.321266,3.8715 -19.537243,0 -2.321231,3.8715 19.343802,0 -2.321267,3.8714 -19.537245,0 -0.58029,0.7743 8.704707,13.9373 4.255617,0 -8.704709,-13.9373 4.449092,0 8.704708,13.9373 4.255612,0 -8.704703,-13.9373 4.449091,0 8.704706,13.9373 4.255625,0 -8.704719,-13.9373 0,-1.5486 8.704719,-13.9372 3.288439,5.1102 -8.704711,13.9373 3.094996,5.1104 8.704705,-13.9373 3.28848,5.2652 -8.70471,13.9373 -1.547532,0.7743 -19.537205,0 -2.321267,3.8715 19.343799,0 -2.321266,3.8714 -19.537243,0 -2.321231,3.8715 19.343802,0 -2.321267,3.8714 -19.537245,0 -0.58029,0.7744 8.704707,13.9372 4.255617,0 -8.704709,-13.9372 4.449092,0 8.704708,13.9372 4.255612,0 -8.704703,-13.9372 4.449091,0 8.704706,13.9372 4.255625,0 -8.704719,-13.9372 0,-1.5485 8.704719,-13.9374 3.288439,5.1104 -8.704711,13.9371 3.094996,5.1104 8.704705,-13.9372 3.28848,5.2652 -8.70471,13.9372 -1.547532,0.7744 -19.537205,0 -2.321267,3.8714 19.343799,0 -2.321266,3.8716 -19.537243,0 -2.321231,3.8714 19.343802,0 -2.321267,3.8714 -19.537245,0 -0.58029,0.7744 8.704707,13.9372 4.255617,0 -8.704709,-13.9372 4.449092,0 8.704708,13.9372 4.255612,0 -8.704703,-13.9372 4.449091,0 8.704706,13.9372 4.255625,0 -8.704719,-13.9372 0,-1.5486 8.704719,-13.9374 3.288439,5.1104 -8.704711,13.9372 3.094996,5.1104 8.704705,-13.9372 3.28848,5.2652 -8.70471,13.9372 -1.547532,0.7743 -19.537205,0 -2.321267,3.8715 19.343799,0 -2.321266,3.8714 -19.537243,0 -2.321231,3.8716 19.343802,0 -2.321267,3.8714 -19.537245,0 -0.58029,0.7743 8.704707,13.9373 4.255617,0 -8.704709,-13.9373 4.449092,0 8.704708,13.9373 4.255612,0 -8.704703,-13.9373 4.449091,0 8.704706,13.9373 4.255625,0 -8.704719,-13.9373 0,-1.5487 8.704719,-13.9372 3.288439,5.1102 -8.704711,13.9374 3.094996,5.1104 8.704705,-13.9374 3.28848,5.2653 -8.70471,13.9373" />
  </g>
  <g
     style="display:inline"
     inkscape:label="2-YELLOW"
     id="layer2"
     inkscape:groupmode="layer"
     transform="translate(0,-703.93702)">
    <path
       style="fill:none;stroke:#ffcc00;stroke-width:0.17307678;stroke-opacity:1"
       inkscape:connector-curvature="0"
       id="path8"
       d="m 130.19064,658.17982 -19.53722,0 -2.51469,3.87147 19.53724,0 -2.32127,3.8715 -19.53725,0 -2.51467,3.87144 19.53724,0 -2.32127,3.87147 -19.53722,0 -0.58031,0.77431 8.70471,13.9373 4.25561,0 -8.70469,-13.9373 4.44908,0 8.70467,13.9373 4.25566,0 -8.70472,-13.9373 4.25566,0 8.70471,13.9373 4.44905,0 -8.7047,-13.9373 0,-1.54859 8.7047,-13.93728 3.09501,5.11033 -8.70471,13.9373 3.28844,5.11033 8.70471,-13.9373 3.28843,5.26521 -8.70471,13.9373 -1.54749,0.77429 -19.53722,0 -2.51469,3.87147 19.53724,0 -2.32127,3.87146 -19.53725,0 -2.51467,3.87147 19.53724,0 -2.32127,3.87147 -19.53722,0 -0.58031,0.77432 8.70471,13.93728 4.25561,0 -8.70469,-13.93728 4.44908,0 8.70467,13.93728 4.25566,0 -8.70472,-13.93728 4.25566,0 8.70471,13.93728 4.44905,0 -8.7047,-13.93728 0,-1.5486 8.7047,-13.93732 3.09501,5.11038 -8.70471,13.93727 3.28844,5.11037 8.70471,-13.93732 3.28843,5.26522 -8.70471,13.93728 -1.54749,0.77429 -19.53722,0 -2.51469,3.87147 19.53724,0 -2.32127,3.87148 -19.53725,0 -2.51467,3.87146 19.53724,0 -2.32127,3.87148 -19.53722,0 -0.58031,0.77429 8.70471,13.93729 4.25561,0 -8.70469,-13.93729 4.44908,0 8.70467,13.93729 4.25566,0 -8.70472,-13.93729 4.25566,0 8.70471,13.93729 4.44905,0 -8.7047,-13.93729 0,-1.54858 8.7047,-13.9373 3.09501,5.11034 -8.70471,13.93729 3.28844,5.11034 8.70471,-13.93729 3.28843,5.2652 -8.70471,13.93729 -1.54749,0.77429 -19.53722,0 -2.51469,3.87148 19.53724,0 -2.32127,3.87147 -19.53725,0 -2.51467,3.87148 19.53724,0 -2.32127,3.87146 -19.53722,0 -0.58031,0.77429 8.70471,13.9373 4.25561,0 -8.70469,-13.9373 4.44908,0 8.70467,13.9373 4.25566,0 -8.70472,-13.9373 4.25566,0 8.70471,13.9373 4.44905,0 -8.7047,-13.9373 0,-1.54858 8.7047,-13.9373 3.09501,5.11034 -8.70471,13.9373 3.28844,5.11035 8.70471,-13.9373 3.28843,5.26519 -8.70471,13.9373 -1.54749,0.7743 -19.53722,0 -2.51469,3.87146 19.53724,0 -2.32127,3.87147 -19.53725,0 -2.51467,3.87147 19.53724,0 -2.32127,3.87147 -19.53722,0 -0.58031,0.77431 8.70471,13.93728 4.25561,0 -8.70469,-13.93728 4.44908,0 8.70467,13.93728 4.25566,0 -8.70472,-13.93728 4.25566,0 8.70471,13.93728 4.44905,0 -8.7047,-13.93728 0,-1.5486 8.7047,-13.93729 3.09501,5.11034 -8.70471,13.93729 3.28844,5.11034 8.70471,-13.93729 3.28843,5.26521 -8.70471,13.93728 -1.54749,0.77429 -19.53722,0 -2.51469,3.87147 19.53724,0 -2.32127,3.87148 -19.53725,0 -2.51467,3.87148 19.53724,0 -2.32127,3.87146 -19.53722,0 -0.58031,0.77429 8.70471,13.9373 4.25561,0 -8.70469,-13.9373 4.44908,0 8.70467,13.9373 4.25566,0 -8.70472,-13.9373 4.25566,0 8.70471,13.9373 4.44905,0 -8.7047,-13.9373 0,-1.54858 8.7047,-13.93731 3.09501,5.11035 -8.70471,13.93731 3.28844,5.11033 8.70471,-13.9373 3.28843,5.2652 -8.70471,13.9373 -1.54749,0.7743 -19.53722,0 -2.51469,3.87146 19.53724,0 -2.32127,3.87147 -19.53725,0 -2.51467,3.87147 19.53724,0 -2.32127,3.87148 -19.53722,0 -0.58031,0.7743 8.70471,13.93728 4.25561,0 -8.70469,-13.93728 4.44908,0 8.70467,13.93728 4.25566,0 -8.70472,-13.93728 4.25566,0 8.70471,13.93728 4.44905,0 -8.7047,-13.93728 0,-1.5486 8.7047,-13.9373 3.09501,5.11035 -8.70471,13.93728 3.28844,5.11035 8.70471,-13.93728 3.28843,5.2652 -8.70471,13.93728 -1.54749,0.7743 -19.53722,0 -2.51469,3.87147 19.53724,0 -2.32127,3.87147 -19.53725,0 -2.51467,3.87148 19.53724,0 -2.32127,3.87145 -19.53722,0 -0.58031,0.77431 8.70471,13.93729 4.25561,0 -8.70469,-13.93729 4.44908,0 8.70467,13.93729 4.25566,0 -8.70472,-13.93729 4.25566,0 8.70471,13.93729 4.44905,0 -8.7047,-13.93729 0,-1.54859 8.7047,-13.9373 3.09501,5.11034 -8.70471,13.9373 3.28844,5.11035 8.70471,-13.93731 3.28843,5.26521 -8.70471,13.93729 -1.54749,0.77429 -19.53722,0 -2.51469,3.87147 19.53724,0 -2.32127,3.87148 -19.53725,0 -2.51467,3.87146 19.53724,0 -2.32127,3.87148 -19.53722,0 -0.58031,0.77429 8.70471,13.9373 4.25561,0 -8.70469,-13.9373 4.44908,0 8.70467,13.9373 4.25566,0 -8.70472,-13.9373 4.25566,0 8.70471,13.9373 4.44905,0 -8.7047,-13.9373 0,-1.54859 8.7047,-13.9373 3.09501,5.11035 -8.70471,13.93729 3.28844,5.11034 8.70471,-13.93729 3.28843,5.2652 -8.70471,13.9373 -1.54749,0.77428 -19.53722,0 -2.51469,3.87148 19.53724,0 -2.32127,3.87146 -19.53725,0 -2.51467,3.87148 19.53724,0 -2.32127,3.87147 -19.53722,0 -0.58031,0.77429 8.70471,13.93728 4.25561,0 -8.70469,-13.93728 4.44908,0 8.70467,13.93728 4.25566,0 -8.70472,-13.93728 4.25566,0 8.70471,13.93728 4.44905,0 -8.7047,-13.93728 0,-1.54859 8.7047,-13.9373 3.09501,5.11035 -8.70471,13.93731 3.28844,5.11033 8.70471,-13.9373 3.28843,5.2652 -8.70471,13.93728 -1.54749,0.77429 -19.53722,0 -2.51469,3.8715 19.53724,0 -2.32127,3.87145 -19.53725,0 -2.51467,3.8715 19.53724,0 -2.32127,3.87145 -19.53722,0 -0.58031,0.77429 8.70471,13.93732 4.25561,0 -8.70469,-13.93732 4.44908,0 8.70467,13.93732 4.25566,0 -8.70472,-13.93732 4.25566,0 8.70471,13.93732 4.44905,0 -8.7047,-13.93732 0,-1.54858 8.7047,-13.93732 3.09501,5.11039 -8.70471,13.93726 3.28844,5.11033 8.70471,-13.93727 3.28843,5.26519 -8.70471,13.93732 -1.54749,0.77428 -19.53722,0 -2.51469,3.87145 19.53724,0 -2.32127,3.8715 -19.53725,0 -2.51467,3.8715 19.53724,0 -2.32127,3.8715 -19.53722,0 -0.58031,0.7743 8.70471,13.9373 4.25561,0 -8.70469,-13.9373 4.44908,0 8.70467,13.9373 4.25566,0 -8.70472,-13.9373 4.25566,0 8.70471,13.9373 4.44905,0 -8.7047,-13.9373 0,-1.5486 8.7047,-13.93736 3.09501,5.11036 -8.70471,13.9374 3.28844,5.1103 8.70471,-13.9374 3.28843,5.2653 -8.70471,13.9373 -1.54749,0.7742 -19.53722,0 -2.51469,3.8715 19.53724,0 -2.32127,3.8715 -19.53725,0 -2.51467,3.8714 19.53724,0 -2.32127,3.8716 -19.53722,0 -0.58031,0.7743 8.70471,13.9372 4.25561,0 -8.70469,-13.9372 4.44908,0 8.70467,13.9372 4.25566,0 -8.70472,-13.9372 4.25566,0 8.70471,13.9372 4.44905,0 -8.7047,-13.9372 0,-1.5487 8.7047,-13.9373 3.09501,5.1104 -8.70471,13.9373 3.28844,5.1104 8.70471,-13.9374 3.28843,5.2653 -8.70471,13.9372 -1.54749,0.7743 -19.53722,0 -2.51469,3.8715 19.53724,0 -2.32127,3.8715 -19.53725,0 -2.51467,3.8714 19.53724,0 -2.32127,3.8715 -19.53722,0 -0.58031,0.7743 8.70471,13.9374 4.25561,0 -8.70469,-13.9374 4.44908,0 8.70467,13.9374 4.25566,0 -8.70472,-13.9374 4.25566,0 8.70471,13.9374 4.44905,0 -8.7047,-13.9374 0,-1.5486 8.7047,-13.9373 3.09501,5.1104 -8.70471,13.9372 3.28844,5.1104 8.70471,-13.9373 3.28843,5.2652 -8.70471,13.9374 -1.54749,0.7741 -19.53722,0 -2.51469,3.8716 19.53724,0 -2.32127,3.8715 -19.53725,0 -2.51467,3.8714 19.53724,0 -2.32127,3.8715 -19.53722,0 -0.58031,0.7742 8.70471,13.9374 4.25561,0 -8.70469,-13.9374 4.44908,0 8.70467,13.9374 4.25566,0 -8.70472,-13.9374 4.25566,0 8.70471,13.9374 4.44905,0 -8.7047,-13.9374 0,-1.5486 8.7047,-13.9372 3.09501,5.1103 -8.70471,13.9374 3.28844,5.1103 8.70471,-13.9373 3.28843,5.2651 -8.70471,13.9374 -1.54749,0.7742 -19.53722,0 -2.51469,3.8715 19.53724,0 -2.32127,3.8715 -19.53725,0 -2.51467,3.8713 19.53724,0 -2.32127,3.8716 -19.53722,0 -0.58031,0.7743 8.70471,13.9372 4.25561,0 -8.70469,-13.9372 4.44908,0 8.70467,13.9372 4.25566,0 -8.70472,-13.9372 4.25566,0 8.70471,13.9372 4.44905,0 -8.7047,-13.9372 0,-1.5486 8.7047,-13.9372 3.09501,5.1103 -8.70471,13.9373 3.28844,5.1103 8.70471,-13.9372 3.28843,5.2651 -8.70471,13.9372" />
    <path
       style="fill:none;stroke:#ffc500;stroke-width:0.17307678;stroke-opacity:1"
       inkscape:connector-curvature="0"
       id="path12"
       d="m 67.516774,689.1516 -19.53724,0 -2.321268,3.87147 19.537242,0 -2.514708,3.87146 -19.537208,0 -2.321267,3.87147 19.537241,0 -2.514708,3.87147 -19.537243,0 -0.580292,0.77432 8.70471,13.93728 4.449059,0 -8.704711,-13.93728 4.255652,0 8.704708,13.93728 4.255617,0 -8.704708,-13.93728 4.449091,0 8.704709,13.93728 4.255617,0 -8.704709,-13.93728 0,-1.5486 8.704709,-13.93732 3.288441,5.11038 -8.704708,13.93727 3.095034,5.11037 8.704672,-13.93732 3.288476,5.26522 -8.704707,13.93728 -1.547501,0.77429 -19.53724,0 -2.321268,3.87147 19.537242,0 -2.514708,3.87148 -19.537208,0 -2.321267,3.87146 19.537241,0 -2.514708,3.87148 -19.537243,0 -0.580292,0.77429 8.70471,13.93729 4.449059,0 -8.704711,-13.93729 4.255652,0 8.704708,13.93729 4.255617,0 -8.704708,-13.93729 4.449091,0 8.704709,13.93729 4.255617,0 -8.704709,-13.93729 0,-1.54858 8.704709,-13.9373 3.288441,5.11034 -8.704708,13.93729 3.095034,5.11034 8.704672,-13.93729 3.288476,5.2652 -8.704707,13.93729 -1.547501,0.77429 -19.53724,0 -2.321268,3.87148 19.537242,0 -2.514708,3.87147 -19.537208,0 -2.321267,3.87148 19.537241,0 -2.514708,3.87146 -19.537243,0 -0.580292,0.77429 8.70471,13.9373 4.449059,0 -8.704711,-13.9373 4.255652,0 8.704708,13.9373 4.255617,0 -8.704708,-13.9373 4.449091,0 8.704709,13.9373 4.255617,0 -8.704709,-13.9373 0,-1.54858 8.704709,-13.9373 3.288441,5.11034 -8.704708,13.9373 3.095034,5.11035 8.704672,-13.9373 3.288476,5.26519 -8.704707,13.9373 -1.547501,0.7743 -19.53724,0 -2.321268,3.87146 19.537242,0 -2.514708,3.87147 -19.537208,0 -2.321267,3.87147 19.537241,0 -2.514708,3.87147 -19.537243,0 -0.580292,0.77431 8.70471,13.93728 4.449059,0 -8.704711,-13.93728 4.255652,0 8.704708,13.93728 4.255617,0 -8.704708,-13.93728 4.449091,0 8.704709,13.93728 4.255617,0 -8.704709,-13.93728 0,-1.5486 8.704709,-13.93729 3.288441,5.11034 -8.704708,13.93729 3.095034,5.11034 8.704672,-13.93729 3.288476,5.26521 -8.704707,13.93728 -1.547501,0.77429 -19.53724,0 -2.321268,3.87147 19.537242,0 -2.514708,3.87148 -19.537208,0 -2.321267,3.87148 19.537241,0 -2.514708,3.87146 -19.537243,0 -0.580292,0.77429 8.70471,13.9373 4.449059,0 -8.704711,-13.9373 4.255652,0 8.704708,13.9373 4.255617,0 -8.704708,-13.9373 4.449091,0 8.704709,13.9373 4.255617,0 -8.704709,-13.9373 0,-1.54858 8.704709,-13.93731 3.288441,5.11035 -8.704708,13.93731 3.095034,5.11033 8.704672,-13.9373 3.288476,5.2652 -8.704707,13.9373 -1.547501,0.7743 -19.53724,0 -2.321268,3.87146 19.537242,0 -2.514708,3.87147 -19.537208,0 -2.321267,3.87147 19.537241,0 -2.514708,3.87148 -19.537243,0 -0.580292,0.7743 8.70471,13.93728 4.449059,0 -8.704711,-13.93728 4.255652,0 8.704708,13.93728 4.255617,0 -8.704708,-13.93728 4.449091,0 8.704709,13.93728 4.255617,0 -8.704709,-13.93728 0,-1.5486 8.704709,-13.9373 3.288441,5.11035 -8.704708,13.93728 3.095034,5.11035 8.704672,-13.93728 3.288476,5.2652 -8.704707,13.93728 -1.547501,0.7743 -19.53724,0 -2.321268,3.87147 19.537242,0 -2.514708,3.87147 -19.537208,0 -2.321267,3.87148 19.537241,0 -2.514708,3.87145 -19.537243,0 -0.580292,0.77431 8.70471,13.93729 4.449059,0 -8.704711,-13.93729 4.255652,0 8.704708,13.93729 4.255617,0 -8.704708,-13.93729 4.449091,0 8.704709,13.93729 4.255617,0 -8.704709,-13.93729 0,-1.54859 8.704709,-13.9373 3.288441,5.11034 -8.704708,13.9373 3.095034,5.11035 8.704672,-13.93731 3.288476,5.26521 -8.704707,13.93729 -1.547501,0.77429 -19.53724,0 -2.321268,3.87147 19.537242,0 -2.514708,3.87148 -19.537208,0 -2.321267,3.87146 19.537241,0 -2.514708,3.87148 -19.537243,0 -0.580292,0.77429 8.70471,13.9373 4.449059,0 -8.704711,-13.9373 4.255652,0 8.704708,13.9373 4.255617,0 -8.704708,-13.9373 4.449091,0 8.704709,13.9373 4.255617,0 -8.704709,-13.9373 0,-1.54859 8.704709,-13.9373 3.288441,5.11035 -8.704708,13.93729 3.095034,5.11034 8.704672,-13.93729 3.288476,5.2652 -8.704707,13.9373 -1.547501,0.77428 -19.53724,0 -2.321268,3.87148 19.537242,0 -2.514708,3.87146 -19.537208,0 -2.321267,3.87148 19.537241,0 -2.514708,3.87147 -19.537243,0 -0.580292,0.77429 8.70471,13.93728 4.449059,0 -8.704711,-13.93728 4.255652,0 8.704708,13.93728 4.255617,0 -8.704708,-13.93728 4.449091,0 8.704709,13.93728 4.255617,0 -8.704709,-13.93728 0,-1.54859 8.704709,-13.9373 3.288441,5.11035 -8.704708,13.93731 3.095034,5.11033 8.704672,-13.9373 3.288476,5.2652 -8.704707,13.93728 -1.547501,0.77429 -19.53724,0 -2.321268,3.8715 19.537242,0 -2.514708,3.87145 -19.537208,0 -2.321267,3.8715 19.537241,0 -2.514708,3.87145 -19.537243,0 -0.580292,0.77429 8.70471,13.93732 4.449059,0 -8.704711,-13.93732 4.255652,0 8.704708,13.93732 4.255617,0 -8.704708,-13.93732 4.449091,0 8.704709,13.93732 4.255617,0 -8.704709,-13.93732 0,-1.54858 8.704709,-13.93732 3.288441,5.11039 -8.704708,13.93726 3.095034,5.11033 8.704672,-13.93727 3.288476,5.26519 -8.704707,13.93732 -1.547501,0.77428 -19.53724,0 -2.321268,3.87145 19.537242,0 -2.514708,3.8715 -19.537208,0 -2.321267,3.8715 19.537241,0 -2.514708,3.8715 -19.537243,0 -0.580292,0.7743 8.70471,13.9373 4.449059,0 -8.704711,-13.9373 4.255652,0 8.704708,13.9373 4.255617,0 -8.704708,-13.9373 4.449091,0 8.704709,13.9373 4.255617,0 -8.704709,-13.9373 0,-1.5486 8.704709,-13.93736 3.288441,5.11036 -8.704708,13.9374 3.095034,5.1103 8.704672,-13.9374 3.288476,5.2653 -8.704707,13.9373 -1.547501,0.7742 -19.53724,0 -2.321268,3.8715 19.537242,0 -2.514708,3.8715 -19.537208,0 -2.321267,3.8714 19.537241,0 -2.514708,3.8716 -19.537243,0 -0.580292,0.7743 8.70471,13.9372 4.449059,0 -8.704711,-13.9372 4.255652,0 8.704708,13.9372 4.255617,0 -8.704708,-13.9372 4.449091,0 8.704709,13.9372 4.255617,0 -8.704709,-13.9372 0,-1.5487 8.704709,-13.9373 3.288441,5.1104 -8.704708,13.9373 3.095034,5.1104 8.704672,-13.9374 3.288476,5.2653 -8.704707,13.9372 -1.547501,0.7743 -19.53724,0 -2.321268,3.8715 19.537242,0 -2.514708,3.8715 -19.537208,0 -2.321267,3.8714 19.537241,0 -2.514708,3.8715 -19.537243,0 -0.580292,0.7743 8.70471,13.9374 4.449059,0 -8.704711,-13.9374 4.255652,0 8.704708,13.9374 4.255617,0 -8.704708,-13.9374 4.449091,0 8.704709,13.9374 4.255617,0 -8.704709,-13.9374 0,-1.5486 8.704709,-13.9373 3.288441,5.1104 -8.704708,13.9372 3.095034,5.1104 8.704672,-13.9373 3.288476,5.2652 -8.704707,13.9374 -1.547501,0.7741 -19.53724,0 -2.321268,3.8716 19.537242,0 -2.514708,3.8715 -19.537208,0 -2.321267,3.8714 19.537241,0 -2.514708,3.8715 -19.537243,0 -0.580292,0.7742 8.70471,13.9374 4.449059,0 -8.704711,-13.9374 4.255652,0 8.704708,13.9374 4.255617,0 -8.704708,-13.9374 4.449091,0 8.704709,13.9374 4.255617,0 -8.704709,-13.9374 0,-1.5486 8.704709,-13.9372 3.288441,5.1103 -8.704708,13.9374 3.095034,5.1103 8.704672,-13.9373 3.288476,5.2651 -8.704707,13.9374 -1.547501,0.7742 -19.53724,0 -2.321268,3.8715 19.537242,0 -2.514708,3.8715 -19.537208,0 -2.321267,3.8713 19.537241,0 -2.514708,3.8716 -19.537243,0 -0.580292,0.7743 8.70471,13.9372 4.449059,0 -8.704711,-13.9372 4.255652,0 8.704708,13.9372 4.255617,0 -8.704708,-13.9372 4.449091,0 8.704709,13.9372 4.255617,0 -8.704709,-13.9372 0,-1.5486 8.704709,-13.9372 3.288441,5.1103 -8.704708,13.9373 3.095034,5.1103 8.704672,-13.9372 3.288476,5.2651 -8.704707,13.9372 -1.547501,0.7744 -19.53724,0 -2.321268,3.8715 19.537242,0 -2.514708,3.8714 -19.537208,0 -2.321267,3.8715 19.537241,0 -2.514708,3.8714 -19.537243,0 -0.580292,0.7743 8.70471,13.9374 4.449059,0 -8.704711,-13.9374 4.255652,0 8.704708,13.9374 4.255617,0 -8.704708,-13.9374 4.449091,0 8.704709,13.9374 4.255617,0 -8.704709,-13.9374 0,-1.5485 8.704709,-13.9373 3.288441,5.1104 -8.704708,13.9372 3.095034,5.1104 8.704672,-13.9373 3.288476,5.2651 -8.704707,13.9374" />
  </g>
  <g
     style="display:inline"
     inkscape:label="1-RED"
     id="layer1"
     inkscape:groupmode="layer"
     transform="translate(0,-703.93702)">
    <path
       style="fill:none;stroke:#ff00ff;stroke-width:0.17307678;stroke-opacity:1"
       inkscape:connector-curvature="0"
       id="path6"
       d="m 161.33415,642.69395 -19.34377,0 -2.51471,3.87147 19.53723,0 -2.51471,3.87148 -19.34378,0 -2.51468,3.87145 19.5372,0 -2.51466,3.87147 -19.34382,0 -0.58032,0.77432 8.70471,13.93728 4.25566,0 -8.7047,-13.93728 4.25564,0 8.70467,13.93728 4.44909,0 -8.7047,-13.93728 4.25561,0 8.7047,13.93728 4.44911,0 -8.70472,-13.93728 0,-1.54859 8.70472,-13.93732 3.09498,5.11033 -8.70471,13.93732 3.28845,5.11031 8.70471,-13.93726 3.28845,5.26521 -8.70471,13.93728 -1.74094,0.77428 -19.34377,0 -2.51471,3.8715 19.53723,0 -2.51471,3.87147 -19.34378,0 -2.51468,3.87146 19.5372,0 -2.51466,3.87147 -19.34382,0 -0.58032,0.77427 8.70471,13.93732 4.25566,0 -8.7047,-13.93732 4.25564,0 8.70467,13.93732 4.44909,0 -8.7047,-13.93732 4.25561,0 8.7047,13.93732 4.44911,0 -8.70472,-13.93732 0,-1.54856 8.70472,-13.9373 3.09498,5.11033 -8.70471,13.93731 3.28845,5.11033 8.70471,-13.93728 3.28845,5.26517 -8.70471,13.93732 -1.74094,0.77428 -19.34377,0 -2.51471,3.87147 19.53723,0 -2.51471,3.87146 -19.34378,0 -2.51468,3.87149 19.5372,0 -2.51466,3.87147 -19.34382,0 -0.58032,0.7743 8.70471,13.9373 4.25566,0 -8.7047,-13.9373 4.25564,0 8.70467,13.9373 4.44909,0 -8.7047,-13.9373 4.25561,0 8.7047,13.9373 4.44911,0 -8.70472,-13.9373 0,-1.54859 8.70472,-13.93728 3.09498,5.11033 -8.70471,13.9373 3.28845,5.11033 8.70471,-13.93731 3.28845,5.26522 -8.70471,13.9373 -1.74094,0.77429 -19.34377,0 -2.51471,3.87147 19.53723,0 -2.51471,3.87147 -19.34378,0 -2.51468,3.87147 19.5372,0 -2.51466,3.87146 -19.34382,0 -0.58032,0.7743 8.70471,13.9373 4.25566,0 -8.7047,-13.9373 4.25564,0 8.70467,13.9373 4.44909,0 -8.7047,-13.9373 4.25561,0 8.7047,13.9373 4.44911,0 -8.70472,-13.9373 0,-1.54859 8.70472,-13.93729 3.09498,5.11034 -8.70471,13.93729 3.28845,5.11034 8.70471,-13.93729 3.28845,5.2652 -8.70471,13.9373 -1.74094,0.77429 -19.34377,0 -2.51471,3.87148 19.53723,0 -2.51471,3.87146 -19.34378,0 -2.51468,3.87147 19.5372,0 -2.51466,3.87148 -19.34382,0 -0.58032,0.77429 8.70471,13.93729 4.25566,0 -8.7047,-13.93729 4.25564,0 8.70467,13.93729 4.44909,0 -8.7047,-13.93729 4.25561,0 8.7047,13.93729 4.44911,0 -8.70472,-13.93729 0,-1.54859 8.70472,-13.9373 3.09498,5.11034 -8.70471,13.9373 3.28845,5.11034 8.70471,-13.93729 3.28845,5.2652 -8.70471,13.93729 -1.74094,0.77429 -19.34377,0 -2.51471,3.87148 19.53723,0 -2.51471,3.87147 -19.34378,0 -2.51468,3.87146 19.5372,0 -2.51466,3.87147 -19.34382,0 -0.58032,0.77429 8.70471,13.93731 4.25566,0 -8.7047,-13.93731 4.25564,0 8.70467,13.93731 4.44909,0 -8.7047,-13.93731 4.25561,0 8.7047,13.93731 4.44911,0 -8.70472,-13.93731 0,-1.54858 8.70472,-13.93728 3.09498,5.11032 -8.70471,13.93731 3.28845,5.11034 8.70471,-13.9373 3.28845,5.26519 -8.70471,13.93731 -1.74094,0.77429 -19.34377,0 -2.51471,3.87147 19.53723,0 -2.51471,3.87147 -19.34378,0 -2.51468,3.87147 19.5372,0 -2.51466,3.87148 -19.34382,0 -0.58032,0.77428 8.70471,13.9373 4.25566,0 -8.7047,-13.9373 4.25564,0 8.70467,13.9373 4.44909,0 -8.7047,-13.9373 4.25561,0 8.7047,13.9373 4.44911,0 -8.70472,-13.9373 0,-1.54858 8.70472,-13.9373 3.09498,5.11034 -8.70471,13.9373 3.28845,5.11033 8.70471,-13.93728 3.28845,5.26519 -8.70471,13.9373 -1.74094,0.7743 -19.34377,0 -2.51471,3.87147 19.53723,0 -2.51471,3.87146 -19.34378,0 -2.51468,3.87147 19.5372,0 -2.51466,3.87148 -19.34382,0 -0.58032,0.77429 8.70471,13.9373 4.25566,0 -8.7047,-13.9373 4.25564,0 8.70467,13.9373 4.44909,0 -8.7047,-13.9373 4.25561,0 8.7047,13.9373 4.44911,0 -8.70472,-13.9373 0,-1.54859 8.70472,-13.93728 3.09498,5.11033 -8.70471,13.93729 3.28845,5.11035 8.70471,-13.9373 3.28845,5.2652 -8.70471,13.9373 -1.74094,0.77428 -19.34377,0 -2.51471,3.87149 19.53723,0 -2.51471,3.87146 -19.34378,0 -2.51468,3.87147 19.5372,0 -2.51466,3.87147 -19.34382,0 -0.58032,0.77429 8.70471,13.9373 4.25566,0 -8.7047,-13.9373 4.25564,0 8.70467,13.9373 4.44909,0 -8.7047,-13.9373 4.25561,0 8.7047,13.9373 4.44911,0 -8.70472,-13.9373 0,-1.54858 8.70472,-13.93729 3.09498,5.11033 -8.70471,13.9373 3.28845,5.11034 8.70471,-13.93729 3.28845,5.26519 -8.70471,13.9373 -1.74094,0.7743 -19.34377,0 -2.51471,3.87146 19.53723,0 -2.51471,3.87147 -19.34378,0 -2.51468,3.87148 19.5372,0 -2.51466,3.87146 -19.34382,0 -0.58032,0.77429 8.70471,13.9373 4.25566,0 -8.7047,-13.9373 4.25564,0 8.70467,13.9373 4.44909,0 -8.7047,-13.9373 4.25561,0 8.7047,13.9373 4.44911,0 -8.70472,-13.9373 0,-1.54857 8.70472,-13.9373 3.09498,5.11034 -8.70471,13.93729 3.28845,5.11035 8.70471,-13.9373 3.28845,5.26519 -8.70471,13.9373 -1.74094,0.7743 -19.34377,0 -2.51471,3.87147 19.53723,0 -2.51471,3.8715 -19.34378,0 -2.51468,3.87143 19.5372,0 -2.51466,3.87146 -19.34382,0 -0.58032,0.77429 8.70471,13.93732 4.25566,0 -8.7047,-13.93732 4.25564,0 8.70467,13.93732 4.44909,0 -8.7047,-13.93732 4.25561,0 8.7047,13.93732 4.44911,0 -8.70472,-13.93732 0,-1.54858 8.70472,-13.93728 3.09498,5.11035 -8.70471,13.93726 3.28845,5.11039 8.70471,-13.93732 3.28845,5.26518 -8.70471,13.93732 -1.74094,0.77429 -19.34377,0 -2.51471,3.87144 19.53723,0 -2.51471,3.87151 -19.34378,0 -2.51468,3.87144 19.5372,0 -2.51466,3.8715 -19.34382,0 -0.58032,0.77429 8.70471,13.93736 4.25566,0 -8.7047,-13.93736 4.25564,0 8.70467,13.93736 4.44909,0 -8.7047,-13.93736 4.25561,0 8.7047,13.93736 4.44911,0 -8.70472,-13.93736 0,-1.54857 8.70472,-13.93732 3.09498,5.11032 -8.70471,13.93733 3.28845,5.1104 8.70471,-13.9374 3.28845,5.26524 -8.70471,13.93736 -1.74094,0.7743 -19.34377,0 -2.51471,3.8714 19.53723,0 -2.51471,3.8715 -19.34378,0 -2.51468,3.8715 19.5372,0 -2.51466,3.8714 -19.34382,0 -0.58032,0.7743 8.70471,13.9373 4.25566,0 -8.7047,-13.9373 4.25564,0 8.70467,13.9373 4.44909,0 -8.7047,-13.9373 4.25561,0 8.7047,13.9373 4.44911,0 -8.70472,-13.9373 0,-1.5485 8.70472,-13.9373 3.09498,5.1102 -8.70471,13.9374 3.28845,5.1103 8.70471,-13.9372 3.28845,5.2651 -8.70471,13.9373 -1.74094,0.7744 -19.34377,0 -2.51471,3.8714 19.53723,0 -2.51471,3.8715 -19.34378,0 -2.51468,3.8715 19.5372,0 -2.51466,3.8714 -19.34382,0 -0.58032,0.7743 8.70471,13.9373 4.25566,0 -8.7047,-13.9373 4.25564,0 8.70467,13.9373 4.44909,0 -8.7047,-13.9373 4.25561,0 8.7047,13.9373 4.44911,0 -8.70472,-13.9373 0,-1.5486 8.70472,-13.9372 3.09498,5.1102 -8.70471,13.9373 3.28845,5.1104 8.70471,-13.9373 3.28845,5.2652 -8.70471,13.9373 -1.74094,0.7743 -19.34377,0 -2.51471,3.8715 19.53723,0 -2.51471,3.8714 -19.34378,0 -2.51468,3.8715 19.5372,0 -2.51466,3.8714 -19.34382,0 -0.58032,0.7744 8.70471,13.9372 4.25566,0 -8.7047,-13.9372 4.25564,0 8.70467,13.9372 4.44909,0 -8.7047,-13.9372 4.25561,0 8.7047,13.9372 4.44911,0 -8.70472,-13.9372 0,-1.5485 8.70472,-13.9374 3.09498,5.1104 -8.70471,13.9371 3.28845,5.1104 8.70471,-13.9372 3.28845,5.2652 -8.70471,13.9372 -1.74094,0.7744 -19.34377,0 -2.51471,3.8714 19.53723,0 -2.51471,3.8716 -19.34378,0 -2.51468,3.8714 19.5372,0 -2.51466,3.8714 -19.34382,0 -0.58032,0.7744 8.70471,13.9372 4.25566,0 -8.7047,-13.9372 4.25564,0 8.70467,13.9372 4.44909,0 -8.7047,-13.9372 4.25561,0 8.7047,13.9372 4.44911,0 -8.70472,-13.9372 0,-1.5486 8.70472,-13.9374 3.09498,5.1104 -8.70471,13.9372 3.28845,5.1104 8.70471,-13.9372 3.28845,5.2652 -8.70471,13.9372" />
    <path
       style="fill:none;stroke:#ff00ff;stroke-width:0.17307678;stroke-opacity:1"
       inkscape:connector-curvature="0"
       id="path14"
       d="m 36.179829,704.63747 -19.343803,0 -2.514708,3.87147 19.537239,0 -2.514709,3.87146 -19.343759,0 -2.5147084,3.87149 19.5372374,0 -2.514708,3.87147 -19.3437957,0 -0.7737351,0.7743 8.7047108,13.9373 4.449052,0 -8.704704,-13.9373 4.255652,0 8.704704,13.9373 4.449059,0 -8.704711,-13.9373 4.255652,0 8.704705,13.9373 4.255617,0 -8.704706,-13.9373 0,-1.54859 8.704706,-13.93728 3.288444,5.11033 -8.704712,13.9373 3.288479,5.11033 8.704673,-13.93731 3.095033,5.26522 -8.70471,13.9373 -1.547494,0.77429 -19.343803,0 -2.514708,3.87147 19.537239,0 -2.514709,3.87147 -19.343759,0 -2.5147084,3.87147 19.5372374,0 -2.514708,3.87146 -19.3437957,0 -0.7737351,0.7743 8.7047108,13.9373 4.449052,0 -8.704704,-13.9373 4.255652,0 8.704704,13.9373 4.449059,0 -8.704711,-13.9373 4.255652,0 8.704705,13.9373 4.255617,0 -8.704706,-13.9373 0,-1.54859 8.704706,-13.93729 3.288444,5.11034 -8.704712,13.93729 3.288479,5.11034 8.704673,-13.93729 3.095033,5.2652 -8.70471,13.9373 -1.547494,0.77429 -19.343803,0 -2.514708,3.87148 19.537239,0 -2.514709,3.87146 -19.343759,0 -2.5147084,3.87147 19.5372374,0 -2.514708,3.87148 -19.3437957,0 -0.7737351,0.77429 8.7047108,13.93729 4.449052,0 -8.704704,-13.93729 4.255652,0 8.704704,13.93729 4.449059,0 -8.704711,-13.93729 4.255652,0 8.704705,13.93729 4.255617,0 -8.704706,-13.93729 0,-1.54859 8.704706,-13.9373 3.288444,5.11034 -8.704712,13.9373 3.288479,5.11034 8.704673,-13.93729 3.095033,5.2652 -8.70471,13.93729 -1.547494,0.77429 -19.343803,0 -2.514708,3.87148 19.537239,0 -2.514709,3.87147 -19.343759,0 -2.5147084,3.87146 19.5372374,0 -2.514708,3.87147 -19.3437957,0 -0.7737351,0.77429 8.7047108,13.93731 4.449052,0 -8.704704,-13.93731 4.255652,0 8.704704,13.93731 4.449059,0 -8.704711,-13.93731 4.255652,0 8.704705,13.93731 4.255617,0 -8.704706,-13.93731 0,-1.54858 8.704706,-13.93728 3.288444,5.11032 -8.704712,13.93731 3.288479,5.11034 8.704673,-13.9373 3.095033,5.26519 -8.70471,13.93731 -1.547494,0.77429 -19.343803,0 -2.514708,3.87147 19.537239,0 -2.514709,3.87147 -19.343759,0 -2.5147084,3.87147 19.5372374,0 -2.514708,3.87148 -19.3437957,0 -0.7737351,0.77428 8.7047108,13.9373 4.449052,0 -8.704704,-13.9373 4.255652,0 8.704704,13.9373 4.449059,0 -8.704711,-13.9373 4.255652,0 8.704705,13.9373 4.255617,0 -8.704706,-13.9373 0,-1.54858 8.704706,-13.9373 3.288444,5.11034 -8.704712,13.9373 3.288479,5.11033 8.704673,-13.93728 3.095033,5.26519 -8.70471,13.9373 -1.547494,0.7743 -19.343803,0 -2.514708,3.87147 19.537239,0 -2.514709,3.87146 -19.343759,0 -2.5147084,3.87147 19.5372374,0 -2.514708,3.87148 -19.3437957,0 -0.7737351,0.77429 8.7047108,13.9373 4.449052,0 -8.704704,-13.9373 4.255652,0 8.704704,13.9373 4.449059,0 -8.704711,-13.9373 4.255652,0 8.704705,13.9373 4.255617,0 -8.704706,-13.9373 0,-1.54859 8.704706,-13.93728 3.288444,5.11033 -8.704712,13.93729 3.288479,5.11035 8.704673,-13.9373 3.095033,5.2652 -8.70471,13.9373 -1.547494,0.77428 -19.343803,0 -2.514708,3.87149 19.537239,0 -2.514709,3.87146 -19.343759,0 -2.5147084,3.87147 19.5372374,0 -2.514708,3.87147 -19.3437957,0 -0.7737351,0.77429 8.7047108,13.9373 4.449052,0 -8.704704,-13.9373 4.255652,0 8.704704,13.9373 4.449059,0 -8.704711,-13.9373 4.255652,0 8.704705,13.9373 4.255617,0 -8.704706,-13.9373 0,-1.54858 8.704706,-13.93729 3.288444,5.11033 -8.704712,13.9373 3.288479,5.11034 8.704673,-13.93729 3.095033,5.26519 -8.70471,13.9373 -1.547494,0.7743 -19.343803,0 -2.514708,3.87146 19.537239,0 -2.514709,3.87147 -19.343759,0 -2.5147084,3.87148 19.5372374,0 -2.514708,3.87146 -19.3437957,0 -0.7737351,0.77429 8.7047108,13.9373 4.449052,0 -8.704704,-13.9373 4.255652,0 8.704704,13.9373 4.449059,0 -8.704711,-13.9373 4.255652,0 8.704705,13.9373 4.255617,0 -8.704706,-13.9373 0,-1.54857 8.704706,-13.9373 3.288444,5.11034 -8.704712,13.93729 3.288479,5.11035 8.704673,-13.9373 3.095033,5.26519 -8.70471,13.9373 -1.547494,0.7743 -19.343803,0 -2.514708,3.87147 19.537239,0 -2.514709,3.8715 -19.343759,0 -2.5147084,3.87143 19.5372374,0 -2.514708,3.87146 -19.3437957,0 -0.7737351,0.77429 8.7047108,13.93732 4.449052,0 -8.704704,-13.93732 4.255652,0 8.704704,13.93732 4.449059,0 -8.704711,-13.93732 4.255652,0 8.704705,13.93732 4.255617,0 -8.704706,-13.93732 0,-1.54858 8.704706,-13.93728 3.288444,5.11035 -8.704712,13.93726 3.288479,5.11039 8.704673,-13.93732 3.095033,5.26518 -8.70471,13.93732 -1.547494,0.77429 -19.343803,0 -2.514708,3.87144 19.537239,0 -2.514709,3.87151 -19.343759,0 -2.5147084,3.87144 19.5372374,0 -2.514708,3.8715 -19.3437957,0 -0.7737351,0.77429 8.7047108,13.93736 4.449052,0 -8.704704,-13.93736 4.255652,0 8.704704,13.93736 4.449059,0 -8.704711,-13.93736 4.255652,0 8.704705,13.93736 4.255617,0 -8.704706,-13.93736 0,-1.54857 8.704706,-13.93732 3.288444,5.11032 -8.704712,13.93733 3.288479,5.1104 8.704673,-13.9374 3.095033,5.26524 -8.70471,13.93736 -1.547494,0.7743 -19.343803,0 -2.514708,3.8714 19.537239,0 -2.514709,3.8715 -19.343759,0 -2.5147084,3.8715 19.5372374,0 -2.514708,3.8714 -19.3437957,0 -0.7737351,0.7743 8.7047108,13.9373 4.449052,0 -8.704704,-13.9373 4.255652,0 8.704704,13.9373 4.449059,0 -8.704711,-13.9373 4.255652,0 8.704705,13.9373 4.255617,0 -8.704706,-13.9373 0,-1.5485 8.704706,-13.9373 3.288444,5.1102 -8.704712,13.9374 3.288479,5.1103 8.704673,-13.9372 3.095033,5.2651 -8.70471,13.9373 -1.547494,0.7744 -19.343803,0 -2.514708,3.8714 19.537239,0 -2.514709,3.8715 -19.343759,0 -2.5147084,3.8715 19.5372374,0 -2.514708,3.8714 -19.3437957,0 -0.7737351,0.7743 8.7047108,13.9373 4.449052,0 -8.704704,-13.9373 4.255652,0 8.704704,13.9373 4.449059,0 -8.704711,-13.9373 4.255652,0 8.704705,13.9373 4.255617,0 -8.704706,-13.9373 0,-1.5486 8.704706,-13.9372 3.288444,5.1102 -8.704712,13.9373 3.288479,5.1104 8.704673,-13.9373 3.095033,5.2652 -8.70471,13.9373 -1.547494,0.7743 -19.343803,0 -2.514708,3.8715 19.537239,0 -2.514709,3.8714 -19.343759,0 -2.5147084,3.8715 19.5372374,0 -2.514708,3.8714 -19.3437957,0 -0.7737351,0.7744 8.7047108,13.9372 4.449052,0 -8.704704,-13.9372 4.255652,0 8.704704,13.9372 4.449059,0 -8.704711,-13.9372 4.255652,0 8.704705,13.9372 4.255617,0 -8.704706,-13.9372 0,-1.5485 8.704706,-13.9374 3.288444,5.1104 -8.704712,13.9371 3.288479,5.1104 8.704673,-13.9372 3.095033,5.2652 -8.70471,13.9372 -1.547494,0.7744 -19.343803,0 -2.514708,3.8714 19.537239,0 -2.514709,3.8716 -19.343759,0 -2.5147084,3.8714 19.5372374,0 -2.514708,3.8714 -19.3437957,0 -0.7737351,0.7744 8.7047108,13.9372 4.449052,0 -8.704704,-13.9372 4.255652,0 8.704704,13.9372 4.449059,0 -8.704711,-13.9372 4.255652,0 8.704705,13.9372 4.255617,0 -8.704706,-13.9372 0,-1.5486 8.704706,-13.9374 3.288444,5.1104 -8.704712,13.9372 3.288479,5.1104 8.704673,-13.9372 3.095033,5.2652 -8.70471,13.9372 -1.547494,0.7743 -19.343803,0 -2.514708,3.8715 19.537239,0 -2.514709,3.8714 -19.343759,0 -2.5147084,3.8716 19.5372374,0 -2.514708,3.8714 -19.3437957,0 -0.7737351,0.7743 8.7047108,13.9373 4.449052,0 -8.704704,-13.9373 4.255652,0 8.704704,13.9373 4.449059,0 -8.704711,-13.9373 4.255652,0 8.704705,13.9373 4.255617,0 -8.704706,-13.9373 0,-1.5487 8.704706,-13.9372 3.288444,5.1102 -8.704712,13.9374 3.288479,5.1104 8.704673,-13.9374 3.095033,5.2653 -8.70471,13.9373 -1.547494,0.7742 -19.343803,0 -2.514708,3.8715 19.537239,0 -2.514709,3.8714 -19.343759,0 -2.5147084,3.8716 19.5372374,0 -2.514708,3.8715 -19.3437957,0 -0.7737351,0.7742 8.7047108,13.9373 4.449052,0 -8.704704,-13.9373 4.255652,0 8.704704,13.9373 4.449059,0 -8.704711,-13.9373 4.255652,0 8.704705,13.9373 4.255617,0 -8.704706,-13.9373 0,-1.5485 8.704706,-13.9374 3.288444,5.1104 -8.704712,13.9373 3.288479,5.1103 8.704673,-13.9373 3.095033,5.2652 -8.70471,13.9373" />
  </g>
  <eggbot
     id="eggbot3785"
     totaldeltay="0"
     totaldeltax="0"
     lastpathnc="0"
     lastpath="0"
     node="0"
     layer="0"
     serialport="COM14" />
</svg>
