<?xml version="1.0" encoding="UTF-8" standalone="no"?>
<svg
   xmlns:dc="http://purl.org/dc/elements/1.1/"
   xmlns:cc="http://creativecommons.org/ns#"
   xmlns:rdf="http://www.w3.org/1999/02/22-rdf-syntax-ns#"
   xmlns:svg="http://www.w3.org/2000/svg"
   xmlns="http://www.w3.org/2000/svg"
   xmlns:sodipodi="http://sodipodi.sourceforge.net/DTD/sodipodi-0.dtd"
   xmlns:inkscape="http://www.inkscape.org/namespaces/inkscape"
   width="177.16534"
   height="496.06299"
   id="svg2997"
   version="1.1"
   inkscape:version="0.48.2 r9819"
   sodipodi:docname="op-art-1.svg">
  <title
     id="title3022">Eggbot Op Art I</title>
  <sodipodi:namedview
     pagecolor="#ffffff"
     bordercolor="#666666"
     borderopacity="1"
     objecttolerance="10"
     gridtolerance="10"
     guidetolerance="10"
     inkscape:pageopacity="0"
     inkscape:pageshadow="2"
     inkscape:window-width="1920"
     inkscape:window-height="1056"
     id="namedview3001"
     showgrid="false"
     inkscape:showpageshadow="false"
     inkscape:zoom="1.6063873"
     inkscape:cx="87.6178"
     inkscape:cy="272.34534"
     inkscape:window-x="0"
     inkscape:window-y="24"
     inkscape:window-maximized="1"
     inkscape:current-layer="layer2"
     units="mm"
     inkscape:document-units="mm" />
  <metadata
     id="metadata3005">
    <rdf:RDF>
      <cc:Work
         rdf:about="">
        <dc:format>image/svg+xml</dc:format>
        <dc:type
           rdf:resource="http://purl.org/dc/dcmitype/StillImage" />
        <dc:title>Eggbot Op Art I</dc:title>
        <dc:creator>
          <cc:Agent>
            <dc:title>Dan Newman</dc:title>
          </cc:Agent>
        </dc:creator>
        <dc:description>Op art intended for drawing with an Eggbot.  See http://www.egg-bot.com/ for details.</dc:description>
        <cc:license
           rdf:resource="http://creativecommons.org/licenses/publicdomain/" />
      </cc:Work>
      <cc:License
         rdf:about="http://creativecommons.org/licenses/publicdomain/">
        <cc:permits
           rdf:resource="http://creativecommons.org/ns#Reproduction" />
        <cc:permits
           rdf:resource="http://creativecommons.org/ns#Distribution" />
        <cc:permits
           rdf:resource="http://creativecommons.org/ns#DerivativeWorks" />
      </cc:License>
    </rdf:RDF>
  </metadata>
  <defs
     id="defs3003" />
  <g
     inkscape:groupmode="layer"
     id="layer2"
     inkscape:label="2 - drawing"
     transform="translate(0,-303.93702)"
     style="display:inline">
    <g
       id="g3163">
      <g
         id="use3531"
         inkscape:tile-x0="0"
         inkscape:tile-y0="0"
         transform="matrix(0,-0.24804611,0.24029457,0,4.3773052,800.50537)">
        <path
           id="path3065"
           style="fill:none;stroke:#000000;stroke-width:1"
           d="M 0,0 400,0 200,346.41016 0,0 47.999999,0 376,41.569218 176,304.84094 47.999999,0 87.359998,4.988306 352,73.161825 160.64,268.26003 87.359998,4.988306 119.1168,13.169128 329.0368,96.573609 151.8464,236.66742 119.1168,13.169128 144.3072,23.177666 307.77395,113.38487 147.91885,209.84763 144.3072,23.177666 163.92321,34.002529 288.59134,124.9604 147.48545,187.44723 163.92321,34.002529 l 14.96017,10.914944 92.77525,87.541347 -122.20065,36.57505 29.4254,-124.116397 11.13303,10.504962 66.97815,81.425385 -104.00553,17.29208 37.02738,-98.717465 8.03738,9.771046 46.4601,73.729389 -87.08158,3.37094 40.62148,-77.100329"
           inkscape:connector-curvature="0" />
      </g>
      <g
         id="use3533"
         inkscape:tile-x0="0"
         inkscape:tile-y0="0"
         transform="matrix(0,0.24804611,-0.24029457,0,170.85825,701.28691)">
        <path
           id="path3069"
           style="fill:none;stroke:#000000;stroke-width:1"
           d="M 0,0 400,0 200,346.41016 0,0 47.999999,0 376,41.569218 176,304.84094 47.999999,0 87.359998,4.988306 352,73.161825 160.64,268.26003 87.359998,4.988306 119.1168,13.169128 329.0368,96.573609 151.8464,236.66742 119.1168,13.169128 144.3072,23.177666 307.77395,113.38487 147.91885,209.84763 144.3072,23.177666 163.92321,34.002529 288.59134,124.9604 147.48545,187.44723 163.92321,34.002529 l 14.96017,10.914944 92.77525,87.541347 -122.20065,36.57505 29.4254,-124.116397 11.13303,10.504962 66.97815,81.425385 -104.00553,17.29208 37.02738,-98.717465 8.03738,9.771046 46.4601,73.729389 -87.08158,3.37094 40.62148,-77.100329"
           inkscape:connector-curvature="0" />
      </g>
      <g
         id="use3535"
         inkscape:tile-x0="0"
         inkscape:tile-y0="0"
         transform="matrix(0,-0.24804611,-0.24029457,0,87.617794,750.89615)">
        <path
           id="path3073"
           style="fill:none;stroke:#000000;stroke-width:1"
           d="M 0,0 400,0 200,346.41016 0,0 47.999999,0 376,41.569218 176,304.84094 47.999999,0 87.359998,4.988306 352,73.161825 160.64,268.26003 87.359998,4.988306 119.1168,13.169128 329.0368,96.573609 151.8464,236.66742 119.1168,13.169128 144.3072,23.177666 307.77395,113.38487 147.91885,209.84763 144.3072,23.177666 163.92321,34.002529 288.59134,124.9604 147.48545,187.44723 163.92321,34.002529 l 14.96017,10.914944 92.77525,87.541347 -122.20065,36.57505 29.4254,-124.116397 11.13303,10.504962 66.97815,81.425385 -104.00553,17.29208 37.02738,-98.717465 8.03738,9.771046 46.4601,73.729389 -87.08158,3.37094 40.62148,-77.100329"
           inkscape:connector-curvature="0" />
      </g>
      <g
         id="use3537"
         inkscape:tile-x0="0"
         inkscape:tile-y0="0"
         transform="matrix(0,0.24804611,0.24029457,0,87.617814,651.67771)">
        <path
           id="path3077"
           style="fill:none;stroke:#000000;stroke-width:1"
           d="M 0,0 400,0 200,346.41016 0,0 47.999999,0 376,41.569218 176,304.84094 47.999999,0 87.359998,4.988306 352,73.161825 160.64,268.26003 87.359998,4.988306 119.1168,13.169128 329.0368,96.573609 151.8464,236.66742 119.1168,13.169128 144.3072,23.177666 307.77395,113.38487 147.91885,209.84763 144.3072,23.177666 163.92321,34.002529 288.59134,124.9604 147.48545,187.44723 163.92321,34.002529 l 14.96017,10.914944 92.77525,87.541347 -122.20065,36.57505 29.4254,-124.116397 11.13303,10.504962 66.97815,81.425385 -104.00553,17.29208 37.02738,-98.717465 8.03738,9.771046 46.4601,73.729389 -87.08158,3.37094 40.62148,-77.100329"
           inkscape:connector-curvature="0" />
      </g>
      <g
         id="use3539"
         inkscape:tile-x0="0"
         inkscape:tile-y0="0"
         transform="matrix(0,-0.24804611,0.24029457,0,4.3773052,701.28692)">
        <path
           id="path3081"
           style="fill:none;stroke:#000000;stroke-width:1"
           d="M 0,0 400,0 200,346.41016 0,0 47.999999,0 376,41.569218 176,304.84094 47.999999,0 87.359998,4.988306 352,73.161825 160.64,268.26003 87.359998,4.988306 119.1168,13.169128 329.0368,96.573609 151.8464,236.66742 119.1168,13.169128 144.3072,23.177666 307.77395,113.38487 147.91885,209.84763 144.3072,23.177666 163.92321,34.002529 288.59134,124.9604 147.48545,187.44723 163.92321,34.002529 l 14.96017,10.914944 92.77525,87.541347 -122.20065,36.57505 29.4254,-124.116397 11.13303,10.504962 66.97815,81.425385 -104.00553,17.29208 37.02738,-98.717465 8.03738,9.771046 46.4601,73.729389 -87.08158,3.37094 40.62148,-77.100329"
           inkscape:connector-curvature="0" />
      </g>
      <g
         id="use3541"
         inkscape:tile-x0="0"
         inkscape:tile-y0="0"
         transform="matrix(0,0.24804611,-0.24029457,0,170.85825,602.0685)">
        <path
           id="path3085"
           style="fill:none;stroke:#000000;stroke-width:1"
           d="M 0,0 400,0 200,346.41016 0,0 47.999999,0 376,41.569218 176,304.84094 47.999999,0 87.359998,4.988306 352,73.161825 160.64,268.26003 87.359998,4.988306 119.1168,13.169128 329.0368,96.573609 151.8464,236.66742 119.1168,13.169128 144.3072,23.177666 307.77395,113.38487 147.91885,209.84763 144.3072,23.177666 163.92321,34.002529 288.59134,124.9604 147.48545,187.44723 163.92321,34.002529 l 14.96017,10.914944 92.77525,87.541347 -122.20065,36.57505 29.4254,-124.116397 11.13303,10.504962 66.97815,81.425385 -104.00553,17.29208 37.02738,-98.717465 8.03738,9.771046 46.4601,73.729389 -87.08158,3.37094 40.62148,-77.100329"
           inkscape:connector-curvature="0" />
      </g>
      <g
         id="use3543"
         inkscape:tile-x0="0"
         inkscape:tile-y0="0"
         transform="matrix(0,-0.24804611,-0.24029457,0,87.617794,651.67771)">
        <path
           id="path3089"
           style="fill:none;stroke:#000000;stroke-width:1"
           d="M 0,0 400,0 200,346.41016 0,0 47.999999,0 376,41.569218 176,304.84094 47.999999,0 87.359998,4.988306 352,73.161825 160.64,268.26003 87.359998,4.988306 119.1168,13.169128 329.0368,96.573609 151.8464,236.66742 119.1168,13.169128 144.3072,23.177666 307.77395,113.38487 147.91885,209.84763 144.3072,23.177666 163.92321,34.002529 288.59134,124.9604 147.48545,187.44723 163.92321,34.002529 l 14.96017,10.914944 92.77525,87.541347 -122.20065,36.57505 29.4254,-124.116397 11.13303,10.504962 66.97815,81.425385 -104.00553,17.29208 37.02738,-98.717465 8.03738,9.771046 46.4601,73.729389 -87.08158,3.37094 40.62148,-77.100329"
           inkscape:connector-curvature="0" />
      </g>
      <g
         id="use3545"
         inkscape:tile-x0="0"
         inkscape:tile-y0="0"
         transform="matrix(0,0.24804611,0.24029457,0,87.617814,552.45929)">
        <path
           id="path3093"
           style="fill:none;stroke:#000000;stroke-width:1"
           d="M 0,0 400,0 200,346.41016 0,0 47.999999,0 376,41.569218 176,304.84094 47.999999,0 87.359998,4.988306 352,73.161825 160.64,268.26003 87.359998,4.988306 119.1168,13.169128 329.0368,96.573609 151.8464,236.66742 119.1168,13.169128 144.3072,23.177666 307.77395,113.38487 147.91885,209.84763 144.3072,23.177666 163.92321,34.002529 288.59134,124.9604 147.48545,187.44723 163.92321,34.002529 l 14.96017,10.914944 92.77525,87.541347 -122.20065,36.57505 29.4254,-124.116397 11.13303,10.504962 66.97815,81.425385 -104.00553,17.29208 37.02738,-98.717465 8.03738,9.771046 46.4601,73.729389 -87.08158,3.37094 40.62148,-77.100329"
           inkscape:connector-curvature="0" />
      </g>
      <g
         id="use3547"
         inkscape:tile-x0="0"
         inkscape:tile-y0="0"
         transform="matrix(0,-0.24804611,0.24029457,0,4.3773052,602.06849)">
        <path
           id="path3097"
           style="fill:none;stroke:#000000;stroke-width:1"
           d="M 0,0 400,0 200,346.41016 0,0 47.999999,0 376,41.569218 176,304.84094 47.999999,0 87.359998,4.988306 352,73.161825 160.64,268.26003 87.359998,4.988306 119.1168,13.169128 329.0368,96.573609 151.8464,236.66742 119.1168,13.169128 144.3072,23.177666 307.77395,113.38487 147.91885,209.84763 144.3072,23.177666 163.92321,34.002529 288.59134,124.9604 147.48545,187.44723 163.92321,34.002529 l 14.96017,10.914944 92.77525,87.541347 -122.20065,36.57505 29.4254,-124.116397 11.13303,10.504962 66.97815,81.425385 -104.00553,17.29208 37.02738,-98.717465 8.03738,9.771046 46.4601,73.729389 -87.08158,3.37094 40.62148,-77.100329"
           inkscape:connector-curvature="0" />
      </g>
      <g
         id="use3549"
         inkscape:tile-x0="0"
         inkscape:tile-y0="0"
         transform="matrix(0,0.24804611,-0.24029457,0,170.85825,502.85008)">
        <path
           id="path3101"
           style="fill:none;stroke:#000000;stroke-width:1"
           d="M 0,0 400,0 200,346.41016 0,0 47.999999,0 376,41.569218 176,304.84094 47.999999,0 87.359998,4.988306 352,73.161825 160.64,268.26003 87.359998,4.988306 119.1168,13.169128 329.0368,96.573609 151.8464,236.66742 119.1168,13.169128 144.3072,23.177666 307.77395,113.38487 147.91885,209.84763 144.3072,23.177666 163.92321,34.002529 288.59134,124.9604 147.48545,187.44723 163.92321,34.002529 l 14.96017,10.914944 92.77525,87.541347 -122.20065,36.57505 29.4254,-124.116397 11.13303,10.504962 66.97815,81.425385 -104.00553,17.29208 37.02738,-98.717465 8.03738,9.771046 46.4601,73.729389 -87.08158,3.37094 40.62148,-77.100329"
           inkscape:connector-curvature="0" />
      </g>
      <g
         id="use3551"
         inkscape:tile-x0="0"
         inkscape:tile-y0="0"
         transform="matrix(0,-0.24804611,-0.24029457,0,87.617794,552.45926)">
        <path
           id="path3105"
           style="fill:none;stroke:#000000;stroke-width:1"
           d="M 0,0 400,0 200,346.41016 0,0 47.999999,0 376,41.569218 176,304.84094 47.999999,0 87.359998,4.988306 352,73.161825 160.64,268.26003 87.359998,4.988306 119.1168,13.169128 329.0368,96.573609 151.8464,236.66742 119.1168,13.169128 144.3072,23.177666 307.77395,113.38487 147.91885,209.84763 144.3072,23.177666 163.92321,34.002529 288.59134,124.9604 147.48545,187.44723 163.92321,34.002529 l 14.96017,10.914944 92.77525,87.541347 -122.20065,36.57505 29.4254,-124.116397 11.13303,10.504962 66.97815,81.425385 -104.00553,17.29208 37.02738,-98.717465 8.03738,9.771046 46.4601,73.729389 -87.08158,3.37094 40.62148,-77.100329"
           inkscape:connector-curvature="0" />
      </g>
      <g
         id="use3553"
         inkscape:tile-x0="0"
         inkscape:tile-y0="0"
         transform="matrix(0,0.24804611,0.24029457,0,87.617814,453.24087)">
        <path
           id="path3109"
           style="fill:none;stroke:#000000;stroke-width:1"
           d="M 0,0 400,0 200,346.41016 0,0 47.999999,0 376,41.569218 176,304.84094 47.999999,0 87.359998,4.988306 352,73.161825 160.64,268.26003 87.359998,4.988306 119.1168,13.169128 329.0368,96.573609 151.8464,236.66742 119.1168,13.169128 144.3072,23.177666 307.77395,113.38487 147.91885,209.84763 144.3072,23.177666 163.92321,34.002529 288.59134,124.9604 147.48545,187.44723 163.92321,34.002529 l 14.96017,10.914944 92.77525,87.541347 -122.20065,36.57505 29.4254,-124.116397 11.13303,10.504962 66.97815,81.425385 -104.00553,17.29208 37.02738,-98.717465 8.03738,9.771046 46.4601,73.729389 -87.08158,3.37094 40.62148,-77.100329"
           inkscape:connector-curvature="0" />
      </g>
      <g
         id="use3555"
         inkscape:tile-x0="0"
         inkscape:tile-y0="0"
         transform="matrix(0,-0.24804611,0.24029457,0,4.3773052,502.85003)">
        <path
           id="path3113"
           style="fill:none;stroke:#000000;stroke-width:1"
           d="M 0,0 400,0 200,346.41016 0,0 47.999999,0 376,41.569218 176,304.84094 47.999999,0 87.359998,4.988306 352,73.161825 160.64,268.26003 87.359998,4.988306 119.1168,13.169128 329.0368,96.573609 151.8464,236.66742 119.1168,13.169128 144.3072,23.177666 307.77395,113.38487 147.91885,209.84763 144.3072,23.177666 163.92321,34.002529 288.59134,124.9604 147.48545,187.44723 163.92321,34.002529 l 14.96017,10.914944 92.77525,87.541347 -122.20065,36.57505 29.4254,-124.116397 11.13303,10.504962 66.97815,81.425385 -104.00553,17.29208 37.02738,-98.717465 8.03738,9.771046 46.4601,73.729389 -87.08158,3.37094 40.62148,-77.100329"
           inkscape:connector-curvature="0" />
      </g>
      <g
         id="use3557"
         inkscape:tile-x0="0"
         inkscape:tile-y0="0"
         transform="matrix(0,0.24804611,-0.24029457,0,170.85825,403.63167)">
        <path
           id="path3117"
           style="fill:none;stroke:#000000;stroke-width:1"
           d="M 0,0 400,0 200,346.41016 0,0 47.999999,0 376,41.569218 176,304.84094 47.999999,0 87.359998,4.988306 352,73.161825 160.64,268.26003 87.359998,4.988306 119.1168,13.169128 329.0368,96.573609 151.8464,236.66742 119.1168,13.169128 144.3072,23.177666 307.77395,113.38487 147.91885,209.84763 144.3072,23.177666 163.92321,34.002529 288.59134,124.9604 147.48545,187.44723 163.92321,34.002529 l 14.96017,10.914944 92.77525,87.541347 -122.20065,36.57505 29.4254,-124.116397 11.13303,10.504962 66.97815,81.425385 -104.00553,17.29208 37.02738,-98.717465 8.03738,9.771046 46.4601,73.729389 -87.08158,3.37094 40.62148,-77.100329"
           inkscape:connector-curvature="0" />
      </g>
      <g
         id="use3559"
         inkscape:tile-x0="0"
         inkscape:tile-y0="0"
         transform="matrix(0,-0.24804611,-0.24029457,0,87.617794,453.2408)">
        <path
           id="path3121"
           style="fill:none;stroke:#000000;stroke-width:1"
           d="M 0,0 400,0 200,346.41016 0,0 47.999999,0 376,41.569218 176,304.84094 47.999999,0 87.359998,4.988306 352,73.161825 160.64,268.26003 87.359998,4.988306 119.1168,13.169128 329.0368,96.573609 151.8464,236.66742 119.1168,13.169128 144.3072,23.177666 307.77395,113.38487 147.91885,209.84763 144.3072,23.177666 163.92321,34.002529 288.59134,124.9604 147.48545,187.44723 163.92321,34.002529 l 14.96017,10.914944 92.77525,87.541347 -122.20065,36.57505 29.4254,-124.116397 11.13303,10.504962 66.97815,81.425385 -104.00553,17.29208 37.02738,-98.717465 8.03738,9.771046 46.4601,73.729389 -87.08158,3.37094 40.62148,-77.100329"
           inkscape:connector-curvature="0" />
      </g>
      <g
         id="use3561"
         inkscape:tile-x0="0"
         inkscape:tile-y0="0"
         transform="matrix(0,0.24804611,0.24029457,0,87.617814,354.02236)">
        <path
           id="path3125"
           style="fill:none;stroke:#000000;stroke-width:1"
           d="M 0,0 400,0 200,346.41016 0,0 47.999999,0 376,41.569218 176,304.84094 47.999999,0 87.359998,4.988306 352,73.161825 160.64,268.26003 87.359998,4.988306 119.1168,13.169128 329.0368,96.573609 151.8464,236.66742 119.1168,13.169128 144.3072,23.177666 307.77395,113.38487 147.91885,209.84763 144.3072,23.177666 163.92321,34.002529 288.59134,124.9604 147.48545,187.44723 163.92321,34.002529 l 14.96017,10.914944 92.77525,87.541347 -122.20065,36.57505 29.4254,-124.116397 11.13303,10.504962 66.97815,81.425385 -104.00553,17.29208 37.02738,-98.717465 8.03738,9.771046 46.4601,73.729389 -87.08158,3.37094 40.62148,-77.100329"
           inkscape:connector-curvature="0" />
      </g>
      <g
         id="use3563"
         inkscape:tile-x0="0"
         inkscape:tile-y0="0"
         transform="matrix(0,-0.24804611,0.24029457,0,4.3773052,403.63158)">
        <path
           id="path3129"
           style="fill:none;stroke:#000000;stroke-width:1"
           d="M 0,0 400,0 200,346.41016 0,0 47.999999,0 376,41.569218 176,304.84094 47.999999,0 87.359998,4.988306 352,73.161825 160.64,268.26003 87.359998,4.988306 119.1168,13.169128 329.0368,96.573609 151.8464,236.66742 119.1168,13.169128 144.3072,23.177666 307.77395,113.38487 147.91885,209.84763 144.3072,23.177666 163.92321,34.002529 288.59134,124.9604 147.48545,187.44723 163.92321,34.002529 l 14.96017,10.914944 92.77525,87.541347 -122.20065,36.57505 29.4254,-124.116397 11.13303,10.504962 66.97815,81.425385 -104.00553,17.29208 37.02738,-98.717465 8.03738,9.771046 46.4601,73.729389 -87.08158,3.37094 40.62148,-77.100329"
           inkscape:connector-curvature="0" />
      </g>
      <g
         id="use3565"
         inkscape:tile-x0="0"
         inkscape:tile-y0="0"
         transform="matrix(0,0.24804611,-0.24029457,0,170.85825,304.41318)">
        <path
           id="path3133"
           style="fill:none;stroke:#000000;stroke-width:1"
           d="M 0,0 400,0 200,346.41016 0,0 47.999999,0 376,41.569218 176,304.84094 47.999999,0 87.359998,4.988306 352,73.161825 160.64,268.26003 87.359998,4.988306 119.1168,13.169128 329.0368,96.573609 151.8464,236.66742 119.1168,13.169128 144.3072,23.177666 307.77395,113.38487 147.91885,209.84763 144.3072,23.177666 163.92321,34.002529 288.59134,124.9604 147.48545,187.44723 163.92321,34.002529 l 14.96017,10.914944 92.77525,87.541347 -122.20065,36.57505 29.4254,-124.116397 11.13303,10.504962 66.97815,81.425385 -104.00553,17.29208 37.02738,-98.717465 8.03738,9.771046 46.4601,73.729389 -87.08158,3.37094 40.62148,-77.100329"
           inkscape:connector-curvature="0" />
      </g>
      <g
         id="use3567"
         inkscape:tile-x0="0"
         inkscape:tile-y0="0"
         transform="matrix(0,-0.24804611,-0.24029457,0,87.617794,354.02241)">
        <path
           id="path3137"
           style="fill:none;stroke:#000000;stroke-width:1"
           d="M 0,0 400,0 200,346.41016 0,0 47.999999,0 376,41.569218 176,304.84094 47.999999,0 87.359998,4.988306 352,73.161825 160.64,268.26003 87.359998,4.988306 119.1168,13.169128 329.0368,96.573609 151.8464,236.66742 119.1168,13.169128 144.3072,23.177666 307.77395,113.38487 147.91885,209.84763 144.3072,23.177666 163.92321,34.002529 288.59134,124.9604 147.48545,187.44723 163.92321,34.002529 l 14.96017,10.914944 92.77525,87.541347 -122.20065,36.57505 29.4254,-124.116397 11.13303,10.504962 66.97815,81.425385 -104.00553,17.29208 37.02738,-98.717465 8.03738,9.771046 46.4601,73.729389 -87.08158,3.37094 40.62148,-77.100329"
           inkscape:connector-curvature="0" />
      </g>
      <g
         id="use3569"
         inkscape:tile-x0="0"
         inkscape:tile-y0="0"
         transform="matrix(0,0.24804611,0.24029457,0,87.617814,254.80397)">
        <path
           id="path3141"
           style="fill:none;stroke:#000000;stroke-width:1"
           d="M 0,0 400,0 200,346.41016 0,0 47.999999,0 376,41.569218 176,304.84094 47.999999,0 87.359998,4.988306 352,73.161825 160.64,268.26003 87.359998,4.988306 119.1168,13.169128 329.0368,96.573609 151.8464,236.66742 119.1168,13.169128 144.3072,23.177666 307.77395,113.38487 147.91885,209.84763 144.3072,23.177666 163.92321,34.002529 288.59134,124.9604 147.48545,187.44723 163.92321,34.002529 l 14.96017,10.914944 92.77525,87.541347 -122.20065,36.57505 29.4254,-124.116397 11.13303,10.504962 66.97815,81.425385 -104.00553,17.29208 37.02738,-98.717465 8.03738,9.771046 46.4601,73.729389 -87.08158,3.37094 40.62148,-77.100329"
           inkscape:connector-curvature="0" />
      </g>
    </g>
  </g>
</svg>
