<?xml version='1.0' encoding='us-ascii'?>
<svg width="174.15mm" height="277.20mm" viewBox="0.0 0.0 174.15 277.20" xmlns="http://www.w3.org/2000/svg" xmlns:dc="http://purl.org/dc/elements/1.1/" xmlns:cc="http://creativecommons.org/ns#" xmlns:rdf="http://www.w3.org/1999/02/22-rdf-syntax-ns#" xmlns:svg="http://www.w3.org/2000/svg" xmlns:xlink="http://www.w3.org/1999/xlink" xmlns:inkscape="http://www.inkscape.org/namespaces/inkscape">
<!--
ElectronicsBox - Closed box with screw on top and mounting holes

Created with Boxes.py (https://festi.info/boxes.py)
Creation date: 2022-10-05 11:17:40
Command line (remove spaces between dashes): boxes ElectronicsBox - -FingerJoint_angle=90.0 - -FingerJoint_style=rectangular - -FingerJoint_surroundingspaces=2.0 - -FingerJoint_edge_width=1.0 - -FingerJoint_extra_length=0.0 - -FingerJoint_finger=2.0 - -FingerJoint_play=0.0 - -FingerJoint_space=2.0 - -FingerJoint_width=1.0 - -x=80.2 - -y=60 - -h=40 - -outside=0 - -triangle=20.0 - -d1=2.0 - -d2=3.0 - -d3=3.0 - -outsidemounts=0 - -outsidemounts=1 - -holedist=7.0 - -thickness=3.1 - -format=svg - -tabs=0.0 - -debug=0 - -labels=0 - -labels=1 - -reference=0 - -inner_corners=loop - -burn=0
Url: http://www.festi.info/ElectronicsBox?FingerJoint_angle=90.0&FingerJoint_style=rectangular&FingerJoint_surroundingspaces=2.0&FingerJoint_edge_width=1.0&FingerJoint_extra_length=0.0&FingerJoint_finger=2.0&FingerJoint_play=0.0&FingerJoint_space=2.0&FingerJoint_width=1.0&x=80.2&y=60&h=40&outside=0&triangle=20.0&d1=2.0&d2=3.0&d3=3.0&outsidemounts=0&outsidemounts=1&holedist=7.0&thickness=3.1&format=svg&tabs=0.0&debug=0&labels=0&labels=1&reference=0&inner_corners=loop&burn=0&render=1
SettingsUrl: http://www.festi.info/ElectronicsBox?FingerJoint_angle=90.0&FingerJoint_style=rectangular&FingerJoint_surroundingspaces=2.0&FingerJoint_edge_width=1.0&FingerJoint_extra_length=0.0&FingerJoint_finger=2.0&FingerJoint_play=0.0&FingerJoint_space=2.0&FingerJoint_width=1.0&x=80.2&y=60&h=40&outside=0&triangle=20.0&d1=2.0&d2=3.0&d3=3.0&outsidemounts=0&outsidemounts=1&holedist=7.0&thickness=3.1&format=svg&tabs=0.0&debug=0&labels=0&labels=1&reference=0&inner_corners=loop&burn=0
-->
<title>ElectronicsBox</title>
<metadata>
<rdf:RDF><cc:Work>
<dc:title>Box - ElectronicsBox</dc:title>
<dc:date>2022-10-05 11:17:40</dc:date>
<dc:source>http://www.festi.info/ElectronicsBox?FingerJoint_angle=90.0&amp;FingerJoint_style=rectangular&amp;FingerJoint_surroundingspaces=2.0&amp;FingerJoint_edge_width=1.0&amp;FingerJoint_extra_length=0.0&amp;FingerJoint_finger=2.0&amp;FingerJoint_play=0.0&amp;FingerJoint_space=2.0&amp;FingerJoint_width=1.0&amp;x=80.2&amp;y=60&amp;h=40&amp;outside=0&amp;triangle=20.0&amp;d1=2.0&amp;d2=3.0&amp;d3=3.0&amp;outsidemounts=0&amp;outsidemounts=1&amp;holedist=7.0&amp;thickness=3.1&amp;format=svg&amp;tabs=0.0&amp;debug=0&amp;labels=0&amp;labels=1&amp;reference=0&amp;inner_corners=loop&amp;burn=0&amp;render=1</dc:source>
<dc:description>Closed box with screw on top and mounting holes

Created with Boxes.py (https://festi.info/boxes.py)
Command line: boxes ElectronicsBox --FingerJoint_angle=90.0 --FingerJoint_style=rectangular --FingerJoint_surroundingspaces=2.0 --FingerJoint_edge_width=1.0 --FingerJoint_extra_length=0.0 --FingerJoint_finger=2.0 --FingerJoint_play=0.0 --FingerJoint_space=2.0 --FingerJoint_width=1.0 --x=80.2 --y=60 --h=40 --outside=0 --triangle=20.0 --d1=2.0 --d2=3.0 --d3=3.0 --outsidemounts=0 --outsidemounts=1 --holedist=7.0 --thickness=3.1 --format=svg --tabs=0.0 --debug=0 --labels=0 --labels=1 --reference=0 --inner_corners=loop --burn=0
Url: http://www.festi.info/ElectronicsBox?FingerJoint_angle=90.0&amp;FingerJoint_style=rectangular&amp;FingerJoint_surroundingspaces=2.0&amp;FingerJoint_edge_width=1.0&amp;FingerJoint_extra_length=0.0&amp;FingerJoint_finger=2.0&amp;FingerJoint_play=0.0&amp;FingerJoint_space=2.0&amp;FingerJoint_width=1.0&amp;x=80.2&amp;y=60&amp;h=40&amp;outside=0&amp;triangle=20.0&amp;d1=2.0&amp;d2=3.0&amp;d3=3.0&amp;outsidemounts=0&amp;outsidemounts=1&amp;holedist=7.0&amp;thickness=3.1&amp;format=svg&amp;tabs=0.0&amp;debug=0&amp;labels=0&amp;labels=1&amp;reference=0&amp;inner_corners=loop&amp;burn=0&amp;render=1
SettingsUrl: http://www.festi.info/ElectronicsBox?FingerJoint_angle=90.0&amp;FingerJoint_style=rectangular&amp;FingerJoint_surroundingspaces=2.0&amp;FingerJoint_edge_width=1.0&amp;FingerJoint_extra_length=0.0&amp;FingerJoint_finger=2.0&amp;FingerJoint_play=0.0&amp;FingerJoint_space=2.0&amp;FingerJoint_width=1.0&amp;x=80.2&amp;y=60&amp;h=40&amp;outside=0&amp;triangle=20.0&amp;d1=2.0&amp;d2=3.0&amp;d3=3.0&amp;outsidemounts=0&amp;outsidemounts=1&amp;holedist=7.0&amp;thickness=3.1&amp;format=svg&amp;tabs=0.0&amp;debug=0&amp;labels=0&amp;labels=1&amp;reference=0&amp;inner_corners=loop&amp;burn=0
</dc:description>
</cc:Work></rdf:RDF></metadata>
<g id="p-0" style="fill:none;stroke-linecap:round;stroke-linejoin:round;">
  <path d="M 23.100 224.100 H 20.000 V 221.000 H 26.200 V 224.100 H 23.100 Z" stroke="rgb(0,0,255)" stroke-width="0.05" />
  <path d="M 83.300 221.000 H 86.400 V 224.100 H 80.200 V 221.000 H 83.300 Z" stroke="rgb(0,0,255)" stroke-width="0.05" />
  <text transform="matrix( 1.000 0.000 0.000 1.000 53.200 240.550 )" style="font-family: sans-serif ; font-weight: normal; font-style: normal; fill: rgb(255,0,0)" font-size="4px" text-anchor="middle" dominant-baseline="hanging">Wall 1</text><path d="M 13.100 264.100 H 25.300 V 267.200 H 31.500 V 264.100 H 37.700 V 267.200 H 43.900 V 264.100 H 50.100 V 267.200 H 56.300 V 264.100 H 62.500 V 267.200 H 68.700 V 264.100 H 74.900 V 267.200 H 81.100 V 264.100 H 93.300 H 96.400 V 256.500 H 93.300 V 250.300 H 96.400 V 244.100 H 93.300 V 237.900 H 96.400 V 231.700 H 93.300 V 225.500 H 96.400 V 217.900 H 93.300 H 13.100 H 10.000 V 225.500 H 13.100 V 231.700 H 10.000 V 237.900 H 13.100 V 244.100 H 10.000 V 250.300 H 13.100 V 256.500 H 10.000 V 264.100 H 13.100" stroke="rgb(0,0,0)" stroke-width="0.05" />
</g>
<g id="p-1" style="fill:none;stroke-linecap:round;stroke-linejoin:round;">
  <path d="M 111.050 224.100 H 107.950 V 221.000 H 114.150 V 224.100 H 111.050 Z" stroke="rgb(0,0,255)" stroke-width="0.05" />
  <path d="M 151.050 221.000 H 154.150 V 224.100 H 147.950 V 221.000 H 151.050 Z" stroke="rgb(0,0,255)" stroke-width="0.05" />
  <text transform="matrix( 1.000 0.000 0.000 1.000 131.050 240.550 )" style="font-family: sans-serif ; font-weight: normal; font-style: normal; fill: rgb(255,0,0)" font-size="4px" text-anchor="middle" dominant-baseline="hanging">Wall 2</text><path d="M 101.050 264.100 H 109.350 V 267.200 H 115.550 V 264.100 H 121.750 V 267.200 H 127.950 V 264.100 H 134.150 V 267.200 H 140.350 V 264.100 H 146.550 V 267.200 H 152.750 V 264.100 H 161.050 V 256.500 H 164.150 V 250.300 H 161.050 V 244.100 H 164.150 V 237.900 H 161.050 V 231.700 H 164.150 V 225.500 H 161.050 V 217.900 H 101.050 V 225.500 H 97.950 V 231.700 H 101.050 V 237.900 H 97.950 V 244.100 H 101.050 V 250.300 H 97.950 V 256.500 H 101.050 V 264.100" stroke="rgb(0,0,0)" stroke-width="0.05" />
</g>
<g id="p-2" style="fill:none;stroke-linecap:round;stroke-linejoin:round;">
  <path d="M 111.050 173.250 H 107.950 V 170.150 H 114.150 V 173.250 H 111.050 Z" stroke="rgb(0,0,255)" stroke-width="0.05" />
  <path d="M 151.050 170.150 H 154.150 V 173.250 H 147.950 V 170.150 H 151.050 Z" stroke="rgb(0,0,255)" stroke-width="0.05" />
  <text transform="matrix( 1.000 0.000 0.000 1.000 131.050 189.700 )" style="font-family: sans-serif ; font-weight: normal; font-style: normal; fill: rgb(255,0,0)" font-size="4px" text-anchor="middle" dominant-baseline="hanging">Wall 4</text><path d="M 101.050 213.250 H 109.350 V 216.350 H 115.550 V 213.250 H 121.750 V 216.350 H 127.950 V 213.250 H 134.150 V 216.350 H 140.350 V 213.250 H 146.550 V 216.350 H 152.750 V 213.250 H 161.050 V 205.650 H 164.150 V 199.450 H 161.050 V 193.250 H 164.150 V 187.050 H 161.050 V 180.850 H 164.150 V 174.650 H 161.050 V 167.050 H 101.050 V 174.650 H 97.950 V 180.850 H 101.050 V 187.050 H 97.950 V 193.250 H 101.050 V 199.450 H 97.950 V 205.650 H 101.050 V 213.250" stroke="rgb(0,0,0)" stroke-width="0.05" />
</g>
<g id="p-3" style="fill:none;stroke-linecap:round;stroke-linejoin:round;">
  <path d="M 23.100 173.250 H 20.000 V 170.150 H 26.200 V 173.250 H 23.100 Z" stroke="rgb(0,0,255)" stroke-width="0.05" />
  <path d="M 83.300 170.150 H 86.400 V 173.250 H 80.200 V 170.150 H 83.300 Z" stroke="rgb(0,0,255)" stroke-width="0.05" />
  <text transform="matrix( 1.000 0.000 0.000 1.000 53.200 189.700 )" style="font-family: sans-serif ; font-weight: normal; font-style: normal; fill: rgb(255,0,0)" font-size="4px" text-anchor="middle" dominant-baseline="hanging">Wall 3</text><path d="M 13.100 213.250 H 25.300 V 216.350 H 31.500 V 213.250 H 37.700 V 216.350 H 43.900 V 213.250 H 50.100 V 216.350 H 56.300 V 213.250 H 62.500 V 216.350 H 68.700 V 213.250 H 74.900 V 216.350 H 81.100 V 213.250 H 93.300 H 96.400 V 205.650 H 93.300 V 199.450 H 96.400 V 193.250 H 93.300 V 187.050 H 96.400 V 180.850 H 93.300 V 174.650 H 96.400 V 167.050 H 93.300 H 13.100 H 10.000 V 174.650 H 13.100 V 180.850 H 10.000 V 187.050 H 13.100 V 193.250 H 10.000 V 199.450 H 13.100 V 205.650 H 10.000 V 213.250 H 13.100" stroke="rgb(0,0,0)" stroke-width="0.05" />
</g>
<g id="p-4" style="fill:none;stroke-linecap:round;stroke-linejoin:round;">
  <path d="M 18.500 158.500 C 18.500 158.788 18.417 159.069 18.262 159.311 C 18.106 159.553 17.885 159.745 17.623 159.864 C 17.362 159.984 17.071 160.026 16.787 159.985 C 16.502 159.944 16.235 159.822 16.018 159.634 C 15.800 159.445 15.642 159.199 15.561 158.923 C 15.480 158.647 15.480 158.353 15.561 158.077 C 15.642 157.801 15.800 157.555 16.018 157.366 C 16.235 157.178 16.502 157.056 16.787 157.015 C 17.071 156.974 17.362 157.016 17.623 157.136 C 17.885 157.255 18.106 157.447 18.262 157.689 C 18.417 157.931 18.500 158.212 18.500 158.500 Z" stroke="rgb(0,0,255)" stroke-width="0.05" />
  <text transform="matrix( 1.000 0.000 0.000 1.000 67.200 130.400 )" style="font-family: sans-serif ; font-weight: normal; font-style: normal; fill: rgb(255,0,0)" font-size="4px" text-anchor="middle" dominant-baseline="hanging">Bottom</text><path d="M 17.000 165.500 H 27.100 H 39.300 V 162.400 H 45.500 V 165.500 H 51.700 V 162.400 H 57.900 V 165.500 H 64.100 V 162.400 H 70.300 V 165.500 H 76.500 V 162.400 H 82.700 V 165.500 H 88.900 V 162.400 H 95.100 V 165.500 H 107.300 H 117.400 C 118.629 165.500 119.836 165.177 120.900 164.562 C 121.964 163.948 122.848 163.064 123.462 162.000 C 124.077 160.936 124.400 159.729 124.400 158.500 V 106.300 C 124.400 105.071 124.077 103.864 123.462 102.800 C 122.848 101.736 121.964 100.852 120.900 100.238 C 119.836 99.623 118.629 99.300 117.400 99.300 H 107.300 H 95.100 V 102.400 H 88.900 V 99.300 H 82.700 V 102.400 H 76.500 V 99.300 H 70.300 V 102.400 H 64.100 V 99.300 H 57.900 V 102.400 H 51.700 V 99.300 H 45.500 V 102.400 H 39.300 V 99.300 H 27.100 H 17.000 C 15.771 99.300 14.564 99.623 13.500 100.238 C 12.436 100.852 11.552 101.736 10.938 102.800 C 10.323 103.864 10.000 105.071 10.000 106.300 V 158.500 C 10.000 159.729 10.323 160.936 10.938 162.000 C 11.552 163.064 12.436 163.948 13.500 164.562 C 14.564 165.177 15.771 165.500 17.000 165.500" stroke="rgb(0,0,0)" stroke-width="0.05" />
  <path d="M 117.400 157.000 C 117.688 157.000 117.969 157.083 118.211 157.238 C 118.453 157.394 118.645 157.615 118.764 157.877 C 118.884 158.138 118.926 158.429 118.885 158.713 C 118.844 158.998 118.722 159.265 118.534 159.482 C 118.345 159.700 118.099 159.858 117.823 159.939 C 117.547 160.020 117.253 160.020 116.977 159.939 C 116.701 159.858 116.455 159.700 116.266 159.482 C 116.078 159.265 115.956 158.998 115.915 158.713 C 115.874 158.429 115.916 158.138 116.036 157.877 C 116.155 157.615 116.347 157.394 116.589 157.238 C 116.831 157.083 117.112 157.000 117.400 157.000 Z" stroke="rgb(0,0,255)" stroke-width="0.05" />
  <path d="M 110.400 151.000 V 154.100 H 107.300 V 147.900 H 110.400 V 151.000 Z" stroke="rgb(0,0,255)" stroke-width="0.05" />
  <path d="M 110.400 138.600 V 141.700 H 107.300 V 135.500 H 110.400 V 138.600 Z" stroke="rgb(0,0,255)" stroke-width="0.05" />
  <path d="M 110.400 126.200 V 129.300 H 107.300 V 123.100 H 110.400 V 126.200 Z" stroke="rgb(0,0,255)" stroke-width="0.05" />
  <path d="M 110.400 113.800 V 116.900 H 107.300 V 110.700 H 110.400 V 113.800 Z" stroke="rgb(0,0,255)" stroke-width="0.05" />
  <path d="M 115.900 106.300 C 115.900 106.012 115.983 105.731 116.138 105.489 C 116.294 105.247 116.515 105.055 116.777 104.936 C 117.038 104.816 117.329 104.774 117.613 104.815 C 117.898 104.856 118.165 104.978 118.382 105.166 C 118.600 105.355 118.758 105.601 118.839 105.877 C 118.920 106.153 118.920 106.447 118.839 106.723 C 118.758 106.999 118.600 107.245 118.382 107.434 C 118.165 107.622 117.898 107.744 117.613 107.785 C 117.329 107.826 117.038 107.784 116.777 107.664 C 116.515 107.545 116.294 107.353 116.138 107.111 C 115.983 106.869 115.900 106.588 115.900 106.300 Z" stroke="rgb(0,0,255)" stroke-width="0.05" />
  <path d="M 17.000 107.800 C 16.712 107.800 16.431 107.717 16.189 107.562 C 15.947 107.406 15.755 107.185 15.636 106.923 C 15.516 106.662 15.474 106.371 15.515 106.087 C 15.556 105.802 15.678 105.535 15.866 105.318 C 16.055 105.100 16.301 104.942 16.577 104.861 C 16.853 104.780 17.147 104.780 17.423 104.861 C 17.699 104.942 17.945 105.100 18.134 105.318 C 18.322 105.535 18.444 105.802 18.485 106.087 C 18.526 106.371 18.484 106.662 18.364 106.923 C 18.245 107.185 18.053 107.406 17.811 107.562 C 17.569 107.717 17.288 107.800 17.000 107.800 Z" stroke="rgb(0,0,255)" stroke-width="0.05" />
  <path d="M 24.000 113.800 V 110.700 H 27.100 V 116.900 H 24.000 V 113.800 Z" stroke="rgb(0,0,255)" stroke-width="0.05" />
  <path d="M 24.000 126.200 V 123.100 H 27.100 V 129.300 H 24.000 V 126.200 Z" stroke="rgb(0,0,255)" stroke-width="0.05" />
  <path d="M 24.000 138.600 V 135.500 H 27.100 V 141.700 H 24.000 V 138.600 Z" stroke="rgb(0,0,255)" stroke-width="0.05" />
  <path d="M 24.000 151.000 V 147.900 H 27.100 V 154.100 H 24.000 V 151.000 Z" stroke="rgb(0,0,255)" stroke-width="0.05" />
</g>
<g id="p-5" style="fill:none;stroke-linecap:round;stroke-linejoin:round;">
  <path d="M 18.167 91.083 C 18.167 91.371 18.084 91.652 17.929 91.894 C 17.773 92.136 17.551 92.328 17.290 92.448 C 17.028 92.567 16.738 92.609 16.453 92.568 C 16.169 92.527 15.902 92.405 15.684 92.217 C 15.467 92.029 15.308 91.782 15.227 91.506 C 15.146 91.230 15.146 90.937 15.227 90.661 C 15.308 90.385 15.467 90.138 15.684 89.950 C 15.902 89.761 16.169 89.640 16.453 89.599 C 16.738 89.558 17.028 89.599 17.290 89.719 C 17.551 89.838 17.773 90.030 17.929 90.272 C 18.084 90.514 18.167 90.796 18.167 91.083 Z" stroke="rgb(0,0,255)" stroke-width="0.05" />
  <text transform="matrix( 1.000 0.000 0.000 1.000 50.100 65.750 )" style="font-family: sans-serif ; font-weight: normal; font-style: normal; fill: rgb(255,0,0)" font-size="4px" text-anchor="middle" dominant-baseline="hanging">Top</text><path d="M 10.000 97.750 H 90.200 V 37.750 H 10.000 V 97.750" stroke="rgb(0,0,0)" stroke-width="0.05" />
  <path d="M 83.533 89.583 C 83.821 89.583 84.102 89.666 84.344 89.821 C 84.586 89.977 84.778 90.199 84.898 90.460 C 85.017 90.722 85.059 91.012 85.018 91.297 C 84.977 91.581 84.855 91.848 84.667 92.066 C 84.479 92.283 84.232 92.442 83.956 92.523 C 83.680 92.604 83.387 92.604 83.111 92.523 C 82.835 92.442 82.588 92.283 82.400 92.066 C 82.211 91.848 82.090 91.581 82.049 91.297 C 82.008 91.012 82.049 90.722 82.169 90.460 C 82.288 90.199 82.480 89.977 82.722 89.821 C 82.964 89.666 83.246 89.583 83.533 89.583 Z" stroke="rgb(0,0,255)" stroke-width="0.05" />
  <path d="M 82.033 44.417 C 82.033 44.129 82.116 43.848 82.271 43.606 C 82.427 43.364 82.649 43.172 82.910 43.052 C 83.172 42.933 83.462 42.891 83.747 42.932 C 84.031 42.973 84.298 43.095 84.516 43.283 C 84.733 43.471 84.892 43.718 84.973 43.994 C 85.054 44.270 85.054 44.563 84.973 44.839 C 84.892 45.115 84.733 45.362 84.516 45.550 C 84.298 45.739 84.031 45.860 83.747 45.901 C 83.462 45.942 83.172 45.901 82.910 45.781 C 82.649 45.662 82.427 45.470 82.271 45.228 C 82.116 44.986 82.033 44.704 82.033 44.417 Z" stroke="rgb(0,0,255)" stroke-width="0.05" />
  <path d="M 16.667 45.917 C 16.379 45.917 16.098 45.834 15.856 45.679 C 15.614 45.523 15.422 45.301 15.302 45.040 C 15.183 44.778 15.141 44.488 15.182 44.203 C 15.223 43.919 15.345 43.652 15.533 43.434 C 15.721 43.217 15.968 43.058 16.244 42.977 C 16.520 42.896 16.813 42.896 17.089 42.977 C 17.365 43.058 17.612 43.217 17.800 43.434 C 17.989 43.652 18.110 43.919 18.151 44.203 C 18.192 44.488 18.151 44.778 18.031 45.040 C 17.912 45.301 17.720 45.523 17.478 45.679 C 17.236 45.834 16.954 45.917 16.667 45.917 Z" stroke="rgb(0,0,255)" stroke-width="0.05" />
</g>
<g id="p-6" style="fill:none;stroke-linecap:round;stroke-linejoin:round;">
  <path d="M 17.484 33.100 H 24.384 V 36.200 H 30.584 V 33.100 H 37.484 V 26.200 H 40.584 V 20.000 H 37.484 V 13.100 L 17.484 33.100 Z" stroke="rgb(0,0,0)" stroke-width="0.05" />
  <path d="M 30.817 25.433 C 31.009 25.433 31.197 25.488 31.358 25.592 C 31.519 25.696 31.647 25.844 31.727 26.018 C 31.807 26.192 31.834 26.386 31.807 26.576 C 31.780 26.765 31.699 26.943 31.573 27.088 C 31.448 27.233 31.283 27.339 31.099 27.393 C 30.915 27.447 30.720 27.447 30.536 27.393 C 30.352 27.339 30.187 27.233 30.062 27.088 C 29.936 26.943 29.855 26.765 29.828 26.576 C 29.800 26.386 29.828 26.192 29.908 26.018 C 29.987 25.844 30.115 25.696 30.277 25.592 C 30.438 25.488 30.626 25.433 30.817 25.433 Z" stroke="rgb(0,0,255)" stroke-width="0.05" />
  <path d="M 33.100 13.100 H 26.200 V 10.000 H 20.000 V 13.100 H 13.100 V 20.000 H 10.000 V 26.200 H 13.100 V 33.100 L 33.100 13.100 Z" stroke="rgb(0,0,0)" stroke-width="0.05" />
  <path d="M 19.767 20.767 C 19.575 20.767 19.387 20.712 19.226 20.608 C 19.065 20.504 18.937 20.356 18.857 20.182 C 18.777 20.008 18.750 19.814 18.777 19.624 C 18.804 19.435 18.885 19.257 19.011 19.112 C 19.136 18.967 19.301 18.861 19.485 18.807 C 19.669 18.753 19.864 18.753 20.048 18.807 C 20.232 18.861 20.397 18.967 20.522 19.112 C 20.648 19.257 20.729 19.435 20.756 19.624 C 20.784 19.814 20.756 20.008 20.676 20.182 C 20.597 20.356 20.469 20.504 20.307 20.608 C 20.146 20.712 19.958 20.767 19.767 20.767 Z" stroke="rgb(0,0,255)" stroke-width="0.05" />
  <path d="M 49.618 33.100 H 56.518 V 36.200 H 62.718 V 33.100 H 69.618 V 26.200 H 72.718 V 20.000 H 69.618 V 13.100 L 49.618 33.100 Z" stroke="rgb(0,0,0)" stroke-width="0.05" />
  <path d="M 62.951 25.433 C 63.143 25.433 63.331 25.488 63.492 25.592 C 63.653 25.696 63.781 25.844 63.861 26.018 C 63.941 26.192 63.969 26.386 63.941 26.576 C 63.914 26.765 63.833 26.943 63.707 27.088 C 63.582 27.233 63.417 27.339 63.233 27.393 C 63.049 27.447 62.854 27.447 62.670 27.393 C 62.486 27.339 62.321 27.233 62.196 27.088 C 62.070 26.943 61.989 26.765 61.962 26.576 C 61.934 26.386 61.962 26.192 62.042 26.018 C 62.121 25.844 62.250 25.696 62.411 25.592 C 62.572 25.488 62.760 25.433 62.951 25.433 Z" stroke="rgb(0,0,255)" stroke-width="0.05" />
  <path d="M 65.234 13.100 H 58.334 V 10.000 H 52.134 V 13.100 H 45.234 V 20.000 H 42.134 V 26.200 H 45.234 V 33.100 L 65.234 13.100 Z" stroke="rgb(0,0,0)" stroke-width="0.05" />
  <path d="M 51.901 20.767 C 51.709 20.767 51.521 20.712 51.360 20.608 C 51.199 20.504 51.071 20.356 50.991 20.182 C 50.911 20.008 50.884 19.814 50.911 19.624 C 50.938 19.435 51.019 19.257 51.145 19.112 C 51.271 18.967 51.435 18.861 51.619 18.807 C 51.803 18.753 51.999 18.753 52.182 18.807 C 52.366 18.861 52.531 18.967 52.656 19.112 C 52.782 19.257 52.863 19.435 52.891 19.624 C 52.918 19.814 52.890 20.008 52.810 20.182 C 52.731 20.356 52.603 20.504 52.441 20.608 C 52.280 20.712 52.092 20.767 51.901 20.767 Z" stroke="rgb(0,0,255)" stroke-width="0.05" />
</g>
</svg>